<?xml version="1.0" encoding="UTF-8" standalone="no"?>
<!-- Created with Inkscape (http://www.inkscape.org/) -->

<svg
   xmlns:dc="http://purl.org/dc/elements/1.1/"
   xmlns:cc="http://creativecommons.org/ns#"
   xmlns:rdf="http://www.w3.org/1999/02/22-rdf-syntax-ns#"
   xmlns:svg="http://www.w3.org/2000/svg"
   xmlns="http://www.w3.org/2000/svg"
   xmlns:xlink="http://www.w3.org/1999/xlink"
   xmlns:sodipodi="http://sodipodi.sourceforge.net/DTD/sodipodi-0.dtd"
   xmlns:inkscape="http://www.inkscape.org/namespaces/inkscape"
   sodipodi:docname="edit-redo.svg"
   inkscape:version="0.48.4 r9939"
   version="1.1"
   id="svg2"
   height="128"
   width="128">
  <sodipodi:namedview
     id="base"
     pagecolor="#ffffff"
     bordercolor="#666666"
     borderopacity="1.0"
     inkscape:pageopacity="0.0"
     inkscape:pageshadow="2"
     inkscape:zoom="3.6203868"
     inkscape:cx="129.12727"
     inkscape:cy="11.48345"
     inkscape:document-units="px"
     inkscape:current-layer="layer1"
     showgrid="true"
     showguides="true"
     inkscape:guide-bbox="true"
     inkscape:window-width="1221"
     inkscape:window-height="1000"
     inkscape:window-x="59"
     inkscape:window-y="24"
     inkscape:window-maximized="1">
    <inkscape:grid
       snapvisiblegridlinesonly="true"
       enabled="true"
       visible="true"
       empspacing="4"
       id="grid2985"
       type="xygrid" />
  </sodipodi:namedview>
  <defs
     id="defs4">
    <linearGradient
       id="linearGradient10061">
      <stop
         style="stop-color:#b3b3b3;stop-opacity:1;"
         offset="0"
         id="stop10063" />
      <stop
         style="stop-color:#b3b3b3;stop-opacity:0;"
         offset="1"
         id="stop10065" />
    </linearGradient>
    <linearGradient
       id="linearGradient7110">
      <stop
         style="stop-color:#5a5a5a;stop-opacity:1;"
         offset="0"
         id="stop7112" />
      <stop
         style="stop-color:#202020;stop-opacity:1;"
         offset="1"
         id="stop7114" />
    </linearGradient>
    <linearGradient
       id="linearGradient4216-4-8-2">
      <stop
         id="stop4218-8-0-7"
         offset="0"
         style="stop-color:#494949;stop-opacity:1;" />
      <stop
         id="stop4220-1-6-4"
         offset="1"
         style="stop-color:#0f0f0f;stop-opacity:1;" />
    </linearGradient>
    <radialGradient
       inkscape:collect="always"
       xlink:href="#linearGradient4216-4-8-2"
       id="radialGradient5899"
       gradientUnits="userSpaceOnUse"
       gradientTransform="translate(0,2)"
       cx="64"
       cy="1020.3622"
       fx="64"
       fy="1020.3622"
       r="52" />
    <radialGradient
       inkscape:collect="always"
       xlink:href="#linearGradient7110"
       id="radialGradient7116"
       cx="80"
       cy="972.36218"
       fx="80"
       fy="972.36218"
       r="52.5"
       gradientUnits="userSpaceOnUse" />
    <linearGradient
       id="linearGradient6964-4">
      <stop
         style="stop-color:#ffffff;stop-opacity:1;"
         offset="0"
         id="stop6966-4" />
      <stop
         style="stop-color:#cacaca;stop-opacity:1;"
         offset="1"
         id="stop6970-3" />
    </linearGradient>
    <radialGradient
       inkscape:collect="always"
       xlink:href="#linearGradient6964-4"
       id="radialGradient10067"
       cx="80"
       cy="974.11218"
       fx="80"
       fy="974.11218"
       r="31.5"
       gradientTransform="matrix(1.5238095,1.1927547e-6,-1.1927556e-6,1.5238107,-41.9036,-512.00048)"
       gradientUnits="userSpaceOnUse" />
    <radialGradient
       inkscape:collect="always"
       xlink:href="#linearGradient6964-4"
       id="radialGradient10083"
       gradientUnits="userSpaceOnUse"
       gradientTransform="matrix(1.5238095,1.1927547e-6,-1.1927556e-6,1.5238107,-41.9036,-512.00048)"
       cx="80"
       cy="974.11218"
       fx="80"
       fy="974.11218"
       r="31.5" />
    <radialGradient
       inkscape:collect="always"
       xlink:href="#linearGradient6964-4"
       id="radialGradient10098"
       cx="154"
       cy="1042.6122"
       fx="154"
       fy="1042.6122"
       r="7"
       gradientTransform="matrix(1.4285711,4.2426579e-6,-4.2426398e-6,1.428565,-65.99553,-447.07772)"
       gradientUnits="userSpaceOnUse" />
    <radialGradient
       inkscape:collect="always"
       xlink:href="#linearGradient6964-4"
       id="radialGradient10135"
       cx="154"
       cy="118"
       fx="154"
       fy="118"
       r="8"
       gradientUnits="userSpaceOnUse"
       gradientTransform="matrix(1.25,0,0,1.25,-38.5,-29.5)" />
    <radialGradient
       inkscape:collect="always"
       xlink:href="#linearGradient6964-4"
       id="radialGradient10139"
       gradientUnits="userSpaceOnUse"
       gradientTransform="matrix(5.625,0,0,5.625,-793.25,313.61216)"
       cx="154"
       cy="118"
       fx="154"
       fy="118"
       r="8" />
    <filter
       inkscape:collect="always"
       id="filter10143"
       x="-0.12000002"
       width="1.24"
       y="-0.11999998"
       height="1.24">
      <feGaussianBlur
         inkscape:collect="always"
         stdDeviation="3.6000005"
         id="feGaussianBlur10145" />
    </filter>
    <radialGradient
       inkscape:collect="always"
       xlink:href="#linearGradient6964-4"
       id="radialGradient10155"
       gradientUnits="userSpaceOnUse"
       gradientTransform="matrix(5.625,0,0,5.625,-793.25,313.61216)"
       cx="154"
       cy="118"
       fx="154"
       fy="118"
       r="8" />
    <radialGradient
       inkscape:collect="always"
       xlink:href="#linearGradient6964-4"
       id="radialGradient3830"
       cx="76"
       cy="976.57489"
       fx="76"
       fy="976.57489"
       r="35.234001"
       gradientTransform="matrix(1.4758471,-7.8524481e-7,7.8524448e-7,1.4758464,-36.165151,-464.91229)"
       gradientUnits="userSpaceOnUse" />
    <filter
       inkscape:collect="always"
       id="filter3834"
       x="-0.1213043"
       width="1.2426086"
       y="-0.11872345"
       height="1.2374469">
      <feGaussianBlur
         inkscape:collect="always"
         stdDeviation="3.5616965"
         id="feGaussianBlur3836" />
    </filter>
    <radialGradient
       inkscape:collect="always"
       xlink:href="#linearGradient6964-4"
       id="radialGradient3846"
       gradientUnits="userSpaceOnUse"
       gradientTransform="matrix(1.4758471,-7.8524481e-7,7.8524448e-7,1.4758464,-36.165151,-464.91229)"
       cx="76"
       cy="976.57489"
       fx="76"
       fy="976.57489"
       r="35.234001" />
    <radialGradient
       inkscape:collect="always"
       xlink:href="#linearGradient6964-4"
       id="radialGradient3850"
       gradientUnits="userSpaceOnUse"
       gradientTransform="matrix(0.32797533,-1.745038e-7,1.7450373e-7,0.32797517,129.74045,721.84759)"
       cx="76"
       cy="976.57489"
       fx="76"
       fy="976.57489"
       r="35.234001" />
    <radialGradient
       inkscape:collect="always"
       xlink:href="#linearGradient6964-4"
       id="radialGradient3875"
       cx="154"
       cy="118"
       fx="154"
       fy="118"
       r="8"
       gradientUnits="userSpaceOnUse"
       gradientTransform="matrix(1.25,0,0,1.25,-38.5,-29.5)" />
  </defs>
  <metadata
     id="metadata7">
    <rdf:RDF>
      <cc:Work
         rdf:about="">
        <dc:format>image/svg+xml</dc:format>
        <dc:type
           rdf:resource="http://purl.org/dc/dcmitype/StillImage" />
        <dc:title></dc:title>
      </cc:Work>
    </rdf:RDF>
  </metadata>
  <g
     transform="translate(0,-924.36218)"
     id="layer1"
     inkscape:groupmode="layer"
     inkscape:label="Layer 1">
    <rect
       ry="8"
       rx="8"
       y="940.36218"
       x="12"
       height="104"
       width="104"
       id="rect6981"
       style="opacity:0.10000000000000001;fill:#000000;fill-opacity:1;stroke:#000000;stroke-width:10;stroke-miterlimit:4;stroke-dasharray:none" />
    <rect
       style="opacity:0.1;fill:#000000;fill-opacity:1;stroke:#000000;stroke-width:6;stroke-miterlimit:4;stroke-dasharray:none"
       id="rect6979"
       width="104"
       height="104"
       x="12"
       y="940.36218"
       rx="8"
       ry="8" />
    <rect
       ry="8"
       rx="8"
       y="938.36218"
       x="12"
       height="104"
       width="104"
       id="rect5969"
       style="fill:#000000;fill-opacity:1;stroke:#000000;opacity:0.20000000000000001;stroke-width:3;stroke-miterlimit:4;stroke-dasharray:none" />
    <rect
       style="fill:url(#radialGradient5899);fill-opacity:1;stroke:#1a1a1a"
       id="rect6936"
       width="104"
       height="104"
       x="12"
       y="938.36218"
       rx="8"
       ry="8" />
    <rect
       ry="8"
       rx="8"
       y="934.36218"
       x="12"
       height="104"
       width="104"
       id="rect6964"
       style="fill:url(#radialGradient7116);fill-opacity:1;stroke:#1a1a1a" />
    <text
       xml:space="preserve"
       style="font-size:24px;font-style:normal;font-weight:normal;line-height:125%;letter-spacing:0px;word-spacing:0px;fill:#000000;fill-opacity:1;stroke:none;font-family:Sans"
       x="-56"
       y="948.36218"
       id="text5893"
       sodipodi:linespacing="125%"><tspan
         sodipodi:role="line"
         id="tspan5895"
         x="-56"
         y="948.36218">128</tspan></text>
    <text
       sodipodi:linespacing="125%"
       id="text5901"
       y="1000.3622"
       x="184"
       style="font-size:16px;font-style:normal;font-weight:normal;line-height:125%;letter-spacing:0px;word-spacing:0px;fill:#000000;fill-opacity:1;stroke:none;font-family:Sans"
       xml:space="preserve"><tspan
         y="1000.3622"
         x="184"
         id="tspan5903"
         sodipodi:role="line">31 - 17</tspan></text>
    <text
       xml:space="preserve"
       style="font-size:16px;font-style:normal;font-weight:normal;line-height:125%;letter-spacing:0px;word-spacing:0px;fill:#000000;fill-opacity:1;stroke:none;font-family:Sans"
       x="172"
       y="1048.3622"
       id="text5905"
       sodipodi:linespacing="125%"><tspan
         sodipodi:role="line"
         id="tspan5907"
         x="172"
         y="1048.3622">16</tspan></text>
    <rect
       style="fill:none;stroke:#000000;stroke-width:1;stroke-linecap:round;stroke-linejoin:round;stroke-miterlimit:4;stroke-opacity:1;stroke-dasharray:none;stroke-dashoffset:0"
       id="rect5919"
       width="40"
       height="40"
       x="140"
       y="60"
       rx="4.5902016e-07"
       transform="translate(0,924.36218)" />
    <rect
       style="fill:none;stroke:#000000;stroke-width:1;stroke-linecap:round;stroke-linejoin:round;stroke-miterlimit:4;stroke-opacity:1;stroke-dasharray:none;stroke-dashoffset:0"
       id="rect5921"
       width="24"
       height="24"
       x="140"
       y="1032.3622"
       rx="4.5902016e-07" />
    <rect
       style="fill:#b3b3b3;fill-opacity:1;stroke:none"
       id="rect6935"
       width="32"
       height="4"
       x="144"
       y="56"
       transform="translate(0,924.36218)"
       rx="4.5902016e-07" />
    <rect
       style="fill:#b3b3b3;fill-opacity:1;stroke:none"
       id="rect6937"
       width="4"
       height="32"
       x="136"
       y="64"
       transform="translate(0,924.36218)"
       rx="4.5902016e-07" />
    <rect
       style="fill:#b3b3b3;fill-opacity:1;stroke:none"
       id="rect6939"
       width="16"
       height="4"
       x="144"
       y="104"
       rx="4.5902016e-07"
       transform="translate(0,924.36218)" />
    <rect
       style="fill:#b3b3b3;fill-opacity:1;stroke:none"
       id="rect6941"
       width="4"
       height="16"
       x="136"
       y="112"
       transform="translate(0,924.36218)"
       rx="4.5902016e-07" />
    <rect
       style="fill:url(#radialGradient7116);fill-opacity:1;stroke:#1a1a1a"
       id="rect12711"
       width="104"
       height="104"
       x="12"
       y="934.36218"
       rx="8"
       ry="8" />
    <path
       inkscape:connector-curvature="0"
       id="path3832"
       d="m 53.276609,950.36224 c -1.69736,0 -3.063826,1.36647 -3.063826,3.06383 l 0,7.65956 27.574434,0 c 1.69736,0 3.063826,1.36647 3.063826,3.06383 l 0,9.19148 c 1.69736,0 3.063827,1.36647 3.063827,3.06383 l 0,12.2553 c 0,1.69736 -1.366467,3.06383 -3.063827,3.06383 l 0,13.7872 12.255305,0 c 1.697362,0 3.063822,-1.3664 3.063822,-3.0638 l 0,-27.57445 c 1.69736,0 3.06383,-1.36646 3.06383,-3.06382 l 0,-12.25531 c 0,-1.69736 -1.36647,-3.06382 -3.06383,-3.06382 l 0,-3.06383 c 0,-1.69736 -1.36646,-3.06383 -3.063822,-3.06383 l -39.829739,0 z m -21.446783,16.85105 c -1.69736,0 -3.063826,1.36646 -3.063826,3.06382 l 0,49.02119 c 0,1.6974 1.366466,3.0638 3.063826,3.0638 l 39.829739,0 c 1.69736,0 3.063826,-1.3664 3.063826,-3.0638 l 0,-27.5744 c 1.69736,0 3.063826,-1.36647 3.063826,-3.06383 l 0,-12.2553 c 0,-1.69736 -1.366466,-3.06383 -3.063826,-3.06383 l 0,-3.06383 c 0,-1.69736 -1.366466,-3.06382 -3.063826,-3.06382 l -39.829739,0 z"
       style="fill:#000000;fill-opacity:1;filter:url(#filter3834)" />
    <path
       style="fill:url(#radialGradient3830);fill-opacity:1;stroke:#ffffff;stroke-opacity:0.31372549999999999;stroke-width:2;stroke-miterlimit:4;stroke-dasharray:none"
       d="m 53.276609,950.36224 c -1.69736,0 -3.063826,1.36647 -3.063826,3.06383 l 0,7.65956 27.574434,0 c 1.69736,0 3.063826,1.36647 3.063826,3.06383 l 0,9.19148 c 1.69736,0 3.063827,1.36647 3.063827,3.06383 l 0,12.2553 c 0,1.69736 -1.366467,3.06383 -3.063827,3.06383 l 0,13.7872 12.255305,0 c 1.697362,0 3.063822,-1.3664 3.063822,-3.0638 l 0,-27.57445 c 1.69736,0 3.06383,-1.36646 3.06383,-3.06382 l 0,-12.25531 c 0,-1.69736 -1.36647,-3.06382 -3.06383,-3.06382 l 0,-3.06383 c 0,-1.69736 -1.36646,-3.06383 -3.063822,-3.06383 l -39.829739,0 z m -21.446783,16.85105 c -1.69736,0 -3.063826,1.36646 -3.063826,3.06382 l 0,49.02119 c 0,1.6974 1.366466,3.0638 3.063826,3.0638 l 39.829739,0 c 1.69736,0 3.063826,-1.3664 3.063826,-3.0638 l 0,-27.5744 c 1.69736,0 3.063826,-1.36647 3.063826,-3.06383 l 0,-12.2553 c 0,-1.69736 -1.366466,-3.06383 -3.063826,-3.06383 l 0,-3.06383 c 0,-1.69736 -1.366466,-3.06382 -3.063826,-3.06382 l -39.829739,0 z"
       id="rect3044"
       inkscape:connector-curvature="0" />
    <g
       id="g3842"
       transform="matrix(0.35916528,0,0,0.35916528,137.01342,650.09514)">
      <path
         inkscape:connector-curvature="0"
         id="path3838"
         d="m 53.276609,950.36224 c -1.69736,0 -3.063826,1.36647 -3.063826,3.06383 l 0,7.65956 27.574434,0 c 1.69736,0 3.063826,1.36647 3.063826,3.06383 l 0,9.19148 c 1.69736,0 3.063827,1.36647 3.063827,3.06383 l 0,12.2553 c 0,1.69736 -1.366467,3.06383 -3.063827,3.06383 l 0,13.7872 12.255305,0 c 1.697362,0 3.063822,-1.3664 3.063822,-3.0638 l 0,-27.57445 c 1.69736,0 3.06383,-1.36646 3.06383,-3.06382 l 0,-12.25531 c 0,-1.69736 -1.36647,-3.06382 -3.06383,-3.06382 l 0,-3.06383 c 0,-1.69736 -1.36646,-3.06383 -3.063822,-3.06383 l -39.829739,0 z m -21.446783,16.85105 c -1.69736,0 -3.063826,1.36646 -3.063826,3.06382 l 0,49.02119 c 0,1.6974 1.366466,3.0638 3.063826,3.0638 l 39.829739,0 c 1.69736,0 3.063826,-1.3664 3.063826,-3.0638 l 0,-27.5744 c 1.69736,0 3.063826,-1.36647 3.063826,-3.06383 l 0,-12.2553 c 0,-1.69736 -1.366466,-3.06383 -3.063826,-3.06383 l 0,-3.06383 c 0,-1.69736 -1.366466,-3.06382 -3.063826,-3.06382 l -39.829739,0 z"
         style="fill:#000000;fill-opacity:1;filter:url(#filter3834)" />
      <path
         style="fill:url(#radialGradient3846);fill-opacity:1;stroke:#ffffff;stroke-width:2;stroke-miterlimit:4;stroke-opacity:0.31372549;stroke-dasharray:none"
         d="m 53.276609,950.36224 c -1.69736,0 -3.063826,1.36647 -3.063826,3.06383 l 0,7.65956 27.574434,0 c 1.69736,0 3.063826,1.36647 3.063826,3.06383 l 0,9.19148 c 1.69736,0 3.063827,1.36647 3.063827,3.06383 l 0,12.2553 c 0,1.69736 -1.366467,3.06383 -3.063827,3.06383 l 0,13.7872 12.255305,0 c 1.697362,0 3.063822,-1.3664 3.063822,-3.0638 l 0,-27.57445 c 1.69736,0 3.06383,-1.36646 3.06383,-3.06382 l 0,-12.25531 c 0,-1.69736 -1.36647,-3.06382 -3.06383,-3.06382 l 0,-3.06383 c 0,-1.69736 -1.36646,-3.06383 -3.063822,-3.06383 l -39.829739,0 z m -21.446783,16.85105 c -1.69736,0 -3.063826,1.36646 -3.063826,3.06382 l 0,49.02119 c 0,1.6974 1.366466,3.0638 3.063826,3.0638 l 39.829739,0 c 1.69736,0 3.063826,-1.3664 3.063826,-3.0638 l 0,-27.5744 c 1.69736,0 3.063826,-1.36647 3.063826,-3.06383 l 0,-12.2553 c 0,-1.69736 -1.366466,-3.06383 -3.063826,-3.06383 l 0,-3.06383 c 0,-1.69736 -1.366466,-3.06382 -3.063826,-3.06382 l -39.829739,0 z"
         id="path3840"
         inkscape:connector-curvature="0" />
    </g>
    <path
       style="fill:url(#radialGradient3875);fill-opacity:1;stroke:none"
       d="M 150 112 C 149.446 112 149 112.446 149 113 L 149 115 L 154 115 C 154.33888 115 155 115.42394 155 116 L 155 117 C 155.554 117 156 117.446 156 118 L 156 120 C 156 120.554 155.554 121 155 121 L 155 124 L 158 124 C 158.554 124 159 123.554 159 123 L 159 117 C 159.554 117 160 116.554 160 116 L 160 114 C 160 113.446 159.554 113 159 113 C 159 112.446 158.554 112 158 112 L 150 112 z M 145 116 C 144.446 116 144 116.446 144 117 L 144 127 C 144 127.554 144.446 128 145 128 L 153 128 C 153.554 128 154 127.554 154 127 L 154 121 C 154.554 121 155 120.554 155 120 L 155 118 C 155 117.446 154.554 117 154 117 C 154 116.446 153.554 116 153 116 L 145 116 z "
       transform="translate(0,924.36218)"
       id="rect3852" />
  </g>
</svg>
