<?xml version="1.0" encoding="UTF-8" standalone="no"?>
<!-- Created with Inkscape (http://www.inkscape.org/) -->

<svg
   xmlns:dc="http://purl.org/dc/elements/1.1/"
   xmlns:cc="http://creativecommons.org/ns#"
   xmlns:rdf="http://www.w3.org/1999/02/22-rdf-syntax-ns#"
   xmlns:svg="http://www.w3.org/2000/svg"
   xmlns="http://www.w3.org/2000/svg"
   xmlns:xlink="http://www.w3.org/1999/xlink"
   xmlns:sodipodi="http://sodipodi.sourceforge.net/DTD/sodipodi-0.dtd"
   xmlns:inkscape="http://www.inkscape.org/namespaces/inkscape"
   sodipodi:docname="media-optical-burn.svg"
   inkscape:version="0.48.4 r9939"
   version="1.1"
   id="svg2"
   height="128"
   width="128">
  <sodipodi:namedview
     id="base"
     pagecolor="#ffffff"
     bordercolor="#666666"
     borderopacity="1.0"
     inkscape:pageopacity="0.0"
     inkscape:pageshadow="2"
     inkscape:zoom="2.5600001"
     inkscape:cx="198.7573"
     inkscape:cy="47.942979"
     inkscape:document-units="px"
     inkscape:current-layer="layer1"
     showgrid="true"
     showguides="true"
     inkscape:guide-bbox="true"
     inkscape:window-width="1221"
     inkscape:window-height="1000"
     inkscape:window-x="59"
     inkscape:window-y="24"
     inkscape:window-maximized="1">
    <inkscape:grid
       snapvisiblegridlinesonly="true"
       enabled="true"
       visible="true"
       empspacing="4"
       id="grid2985"
       type="xygrid" />
  </sodipodi:namedview>
  <defs
     id="defs4">
    <linearGradient
       id="linearGradient7110">
      <stop
         style="stop-color:#5a5a5a;stop-opacity:1;"
         offset="0"
         id="stop7112" />
      <stop
         style="stop-color:#202020;stop-opacity:1;"
         offset="1"
         id="stop7114" />
    </linearGradient>
    <linearGradient
       id="linearGradient4216-4-8-2">
      <stop
         id="stop4218-8-0-7"
         offset="0"
         style="stop-color:#494949;stop-opacity:1;" />
      <stop
         id="stop4220-1-6-4"
         offset="1"
         style="stop-color:#0f0f0f;stop-opacity:1;" />
    </linearGradient>
    <radialGradient
       inkscape:collect="always"
       xlink:href="#linearGradient4216-4-8-2"
       id="radialGradient5899"
       gradientUnits="userSpaceOnUse"
       gradientTransform="translate(0,2)"
       cx="64"
       cy="1020.3622"
       fx="64"
       fy="1020.3622"
       r="52" />
    <radialGradient
       inkscape:collect="always"
       xlink:href="#linearGradient7110"
       id="radialGradient7116"
       cx="80"
       cy="972.36218"
       fx="80"
       fy="972.36218"
       r="52.5"
       gradientUnits="userSpaceOnUse" />
    <linearGradient
       id="linearGradient6964-4">
      <stop
         style="stop-color:#ffffff;stop-opacity:1;"
         offset="0"
         id="stop6966-4" />
      <stop
         style="stop-color:#cacaca;stop-opacity:1;"
         offset="1"
         id="stop6970-3" />
    </linearGradient>
    <linearGradient
       id="linearGradient8794-33">
      <stop
         style="stop-color:#ffffff;stop-opacity:1;"
         offset="0"
         id="stop8796-9" />
      <stop
         style="stop-color:#cacaca;stop-opacity:1;"
         offset="1"
         id="stop8798-6" />
    </linearGradient>
    <radialGradient
       r="32"
       fy="46.695652"
       fx="84"
       cy="46.695652"
       cx="84"
       gradientTransform="matrix(0.78722727,0,0,1.1316392,13.617455,-8.16161)"
       gradientUnits="userSpaceOnUse"
       id="radialGradient5944"
       xlink:href="#linearGradient8794-33"
       inkscape:collect="always" />
    <radialGradient
       inkscape:collect="always"
       xlink:href="#linearGradient8794-33"
       id="radialGradient10267"
       gradientUnits="userSpaceOnUse"
       gradientTransform="matrix(0.78722727,0,0,1.1316392,13.617455,-8.16161)"
       cx="84"
       cy="46.695652"
       fx="84"
       fy="46.695652"
       r="32" />
    <radialGradient
       inkscape:collect="always"
       xlink:href="#linearGradient6964-4"
       id="radialGradient10297"
       cx="154"
       cy="118.5"
       fx="154"
       fy="118.5"
       r="6"
       gradientTransform="matrix(1.6666671,-2.1327557e-6,2.1327544e-6,1.6666661,-102.66697,-79.499605)"
       gradientUnits="userSpaceOnUse" />
    <radialGradient
       inkscape:collect="always"
       xlink:href="#linearGradient8794-33"
       id="radialGradient3924"
       gradientUnits="userSpaceOnUse"
       gradientTransform="matrix(5.625,0,0,5.625,-793.25,304.61216)"
       cx="154"
       cy="118"
       fx="154"
       fy="118"
       r="8" />
    <radialGradient
       inkscape:collect="always"
       xlink:href="#linearGradient8794-33"
       id="radialGradient3944"
       gradientUnits="userSpaceOnUse"
       gradientTransform="matrix(5.625,0,0,5.625,-793.25,304.61216)"
       cx="154"
       cy="118"
       fx="154"
       fy="118"
       r="8" />
    <radialGradient
       inkscape:collect="always"
       xlink:href="#linearGradient8794-33"
       id="radialGradient4305"
       cx="154.00002"
       cy="1046.1122"
       fx="154.00002"
       fy="1046.1122"
       r="7"
       gradientTransform="matrix(-1.6312602e-5,1.4285802,-1.4285787,-1.6312585e-5,1648.4561,826.37783)"
       gradientUnits="userSpaceOnUse" />
    <radialGradient
       inkscape:collect="always"
       xlink:href="#linearGradient8794-33"
       id="radialGradient4313"
       gradientUnits="userSpaceOnUse"
       gradientTransform="matrix(-1.6312602e-5,1.4285802,-1.4285787,-1.6312585e-5,1648.4561,826.37783)"
       cx="154.00002"
       cy="1046.1122"
       fx="154.00002"
       fy="1046.1122"
       r="7" />
    <radialGradient
       inkscape:collect="always"
       xlink:href="#linearGradient8794-33"
       id="radialGradient4315"
       gradientUnits="userSpaceOnUse"
       gradientTransform="matrix(-1.6312602e-5,1.4285802,-1.4285787,-1.6312585e-5,1648.4561,826.37783)"
       cx="154.00002"
       cy="1046.1122"
       fx="154.00002"
       fy="1046.1122"
       r="7" />
    <radialGradient
       inkscape:collect="always"
       xlink:href="#linearGradient8794-33"
       id="radialGradient4317"
       gradientUnits="userSpaceOnUse"
       gradientTransform="matrix(-1.6312602e-5,1.4285802,-1.4285787,-1.6312585e-5,1648.4561,826.37783)"
       cx="154.00002"
       cy="1046.1122"
       fx="154.00002"
       fy="1046.1122"
       r="7" />
    <filter
       inkscape:collect="always"
       id="filter4325"
       x="-0.1125"
       width="1.225"
       y="-0.12857143"
       height="1.2571429">
      <feGaussianBlur
         inkscape:collect="always"
         stdDeviation="0.75"
         id="feGaussianBlur4327" />
    </filter>
    <radialGradient
       inkscape:collect="always"
       xlink:href="#linearGradient8794-33"
       id="radialGradient4351"
       gradientUnits="userSpaceOnUse"
       gradientTransform="matrix(-1.6312602e-5,1.4285802,-1.4285787,-1.6312585e-5,1648.4561,826.37783)"
       cx="154.00002"
       cy="1046.1122"
       fx="154.00002"
       fy="1046.1122"
       r="7" />
    <radialGradient
       inkscape:collect="always"
       xlink:href="#linearGradient8794-33"
       id="radialGradient4353"
       gradientUnits="userSpaceOnUse"
       gradientTransform="matrix(-1.6312602e-5,1.4285802,-1.4285787,-1.6312585e-5,1648.4561,826.37783)"
       cx="154.00002"
       cy="1046.1122"
       fx="154.00002"
       fy="1046.1122"
       r="7" />
    <radialGradient
       inkscape:collect="always"
       xlink:href="#linearGradient8794-33"
       id="radialGradient4355"
       gradientUnits="userSpaceOnUse"
       gradientTransform="matrix(-1.6312602e-5,1.4285802,-1.4285787,-1.6312585e-5,1648.4561,826.37783)"
       cx="154.00002"
       cy="1046.1122"
       fx="154.00002"
       fy="1046.1122"
       r="7" />
    <radialGradient
       inkscape:collect="always"
       xlink:href="#linearGradient8794-33"
       id="radialGradient4625"
       cx="154"
       cy="118"
       fx="154"
       fy="118"
       r="8"
       gradientUnits="userSpaceOnUse"
       gradientTransform="matrix(1.25,0,0,1.25,-38.5,-29.5)" />
    <radialGradient
       inkscape:collect="always"
       xlink:href="#linearGradient8794-33"
       id="radialGradient4629"
       gradientUnits="userSpaceOnUse"
       gradientTransform="matrix(5.625,0,0,5.625,-793.25,313.61216)"
       cx="154"
       cy="118"
       fx="154"
       fy="118"
       r="8" />
    <filter
       inkscape:collect="always"
       id="filter4633"
       x="-0.12000002"
       width="1.24"
       y="-0.11999998"
       height="1.24">
      <feGaussianBlur
         inkscape:collect="always"
         stdDeviation="3.6000005"
         id="feGaussianBlur4635" />
    </filter>
    <radialGradient
       inkscape:collect="always"
       xlink:href="#linearGradient8794-33"
       id="radialGradient4649"
       gradientUnits="userSpaceOnUse"
       gradientTransform="matrix(5.625,0,0,5.625,-793.25,313.61216)"
       cx="154"
       cy="118"
       fx="154"
       fy="118"
       r="8" />
  </defs>
  <metadata
     id="metadata7">
    <rdf:RDF>
      <cc:Work
         rdf:about="">
        <dc:format>image/svg+xml</dc:format>
        <dc:type
           rdf:resource="http://purl.org/dc/dcmitype/StillImage" />
        <dc:title></dc:title>
      </cc:Work>
    </rdf:RDF>
  </metadata>
  <g
     transform="translate(0,-924.36218)"
     id="layer1"
     inkscape:groupmode="layer"
     inkscape:label="Layer 1">
    <rect
       ry="8"
       rx="8"
       y="940.36218"
       x="12"
       height="104"
       width="104"
       id="rect6981"
       style="opacity:0.10000000000000001;fill:#000000;fill-opacity:1;stroke:#000000;stroke-width:10;stroke-miterlimit:4;stroke-dasharray:none" />
    <rect
       style="opacity:0.1;fill:#000000;fill-opacity:1;stroke:#000000;stroke-width:6;stroke-miterlimit:4;stroke-dasharray:none"
       id="rect6979"
       width="104"
       height="104"
       x="12"
       y="940.36218"
       rx="8"
       ry="8" />
    <rect
       ry="8"
       rx="8"
       y="938.36218"
       x="12"
       height="104"
       width="104"
       id="rect5969"
       style="fill:#000000;fill-opacity:1;stroke:#000000;opacity:0.20000000000000001;stroke-width:3;stroke-miterlimit:4;stroke-dasharray:none" />
    <rect
       style="fill:url(#radialGradient5899);fill-opacity:1;stroke:#1a1a1a"
       id="rect6936"
       width="104"
       height="104"
       x="12"
       y="938.36218"
       rx="8"
       ry="8" />
    <rect
       ry="8"
       rx="8"
       y="934.36218"
       x="12"
       height="104"
       width="104"
       id="rect6964"
       style="fill:url(#radialGradient7116);fill-opacity:1;stroke:#1a1a1a" />
    <text
       xml:space="preserve"
       style="font-size:24px;font-style:normal;font-weight:normal;line-height:125%;letter-spacing:0px;word-spacing:0px;fill:#000000;fill-opacity:1;stroke:none;font-family:Sans"
       x="-56"
       y="948.36218"
       id="text5893"
       sodipodi:linespacing="125%"><tspan
         sodipodi:role="line"
         id="tspan5895"
         x="-56"
         y="948.36218">128</tspan></text>
    <text
       sodipodi:linespacing="125%"
       id="text5901"
       y="1000.3622"
       x="184"
       style="font-size:16px;font-style:normal;font-weight:normal;line-height:125%;letter-spacing:0px;word-spacing:0px;fill:#000000;fill-opacity:1;stroke:none;font-family:Sans"
       xml:space="preserve"><tspan
         y="1000.3622"
         x="184"
         id="tspan5903"
         sodipodi:role="line">31 - 17</tspan></text>
    <text
       xml:space="preserve"
       style="font-size:16px;font-style:normal;font-weight:normal;line-height:125%;letter-spacing:0px;word-spacing:0px;fill:#000000;fill-opacity:1;stroke:none;font-family:Sans"
       x="172"
       y="1048.3622"
       id="text5905"
       sodipodi:linespacing="125%"><tspan
         sodipodi:role="line"
         id="tspan5907"
         x="172"
         y="1048.3622">16</tspan></text>
    <rect
       style="fill:none;stroke:#000000;stroke-width:1;stroke-linecap:round;stroke-linejoin:round;stroke-miterlimit:4;stroke-opacity:1;stroke-dasharray:none;stroke-dashoffset:0"
       id="rect5919"
       width="40"
       height="40"
       x="140"
       y="60"
       transform="translate(0,924.36218)"
       rx="4.5902016e-07" />
    <rect
       style="fill:none;stroke:#000000;stroke-width:1;stroke-linecap:round;stroke-linejoin:round;stroke-miterlimit:4;stroke-opacity:1;stroke-dasharray:none;stroke-dashoffset:0"
       id="rect5921"
       width="24"
       height="24"
       x="140"
       y="1032.3622"
       rx="4.5902016e-07" />
    <rect
       style="fill:#b3b3b3;fill-opacity:1;stroke:none"
       id="rect6935"
       width="32"
       height="4"
       x="144"
       y="56"
       transform="translate(0,924.36218)"
       rx="4.5902016e-07" />
    <rect
       style="fill:#b3b3b3;fill-opacity:1;stroke:none"
       id="rect6937"
       width="4"
       height="32"
       x="136"
       y="64"
       transform="translate(0,924.36218)"
       rx="4.5902016e-07" />
    <rect
       style="fill:#b3b3b3;fill-opacity:1;stroke:none"
       id="rect6939"
       width="16"
       height="4"
       x="144"
       y="104"
       rx="4.5902016e-07"
       transform="translate(0,924.36218)" />
    <rect
       style="fill:#b3b3b3;fill-opacity:1;stroke:none"
       id="rect6941"
       width="4"
       height="16"
       x="136"
       y="112"
       transform="translate(0,924.36218)"
       rx="4.5902016e-07" />
    <rect
       style="fill:url(#radialGradient7116);fill-opacity:1;stroke:#1a1a1a"
       id="rect12711"
       width="104"
       height="104"
       x="12"
       y="934.36218"
       rx="8"
       ry="8" />
    <path
       style="fill:url(#radialGradient4625);fill-opacity:1;stroke:none"
       d="M 150 112 C 146.68629 112 144 114.68629 144 118 C 144 121.31371 146.68629 124 150 124 C 153.31371 124 156 121.31371 156 118 C 156 114.68629 153.31371 112 150 112 z M 150 115 C 151.65685 115 153 116.34315 153 118 C 153 119.65685 151.65685 121 150 121 C 148.34315 121 147 119.65685 147 118 C 147 116.34315 148.34315 115 150 115 z M 150 116 C 148.89543 116 148 116.89543 148 118 C 148 119.10457 148.89543 120 150 120 C 151.10457 120 152 119.10457 152 118 C 152 116.89543 151.10457 116 150 116 z M 156.875 116.71875 C 156.95223 117.13517 157 117.56121 157 118 C 157 118.8561 156.84378 119.67927 156.5625 120.4375 C 156.84034 120.89238 157 121.42795 157 122 C 157 123.6568 155.65685 125 154 125 C 153.42796 125 152.89238 124.84035 152.4375 124.5625 C 151.67927 124.84378 150.8561 125 150 125 C 149.56121 125 149.13517 124.95223 148.71875 124.875 C 149.73479 126.74535 151.72182 128 154 128 C 157.31371 128 160 125.3137 160 122 C 160 119.72183 158.74535 117.73479 156.875 116.71875 z M 150 117 C 150.55228 117 151 117.44772 151 118 C 151 118.55228 150.55228 119 150 119 C 149.44772 119 149 118.55228 149 118 C 149 117.44772 149.44772 117 150 117 z M 155.96875 121.65625 C 155.39182 122.59493 154.59493 123.39182 153.65625 123.96875 C 153.7677 123.98801 153.88305 124 154 124 C 155.10457 124 156 123.1046 156 122 C 156 121.88304 155.98801 121.7677 155.96875 121.65625 z "
       transform="translate(0,924.36218)"
       id="path4594" />
    <g
       id="g4637">
      <path
         id="path4631"
         d="m 55,950.36218 c -14.91169,0 -27,12.0883 -27,27 0,14.9117 12.08831,27.00002 27,27.00002 14.91169,0 27,-12.08832 27,-27.00002 0,-14.9117 -12.08831,-27 -27,-27 z m 0,13.5 c 7.45582,0 13.5,6.0442 13.5,13.5 0,7.4558 -6.04418,13.5 -13.5,13.5 -7.45583,0 -13.5,-6.0442 -13.5,-13.5 0,-7.4558 6.04417,-13.5 13.5,-13.5 z m 0,4.5 c -4.97056,0 -9,4.0294 -9,9 0,4.9705 4.02944,9 9,9 4.97056,0 9,-4.0295 9,-9 0,-4.9706 -4.02944,-9 -9,-9 z m 30.9375,3.2344 c 0.34753,1.8738 0.5625,3.791 0.5625,5.7656 0,3.8524 -0.70299,7.5567 -1.96875,10.9687 1.25028,2.047 1.96875,4.4571 1.96875,7.0313 0,7.45562 -6.04418,13.50002 -13.5,13.50002 -2.57418,0 -4.98429,-0.7184 -7.03125,-1.9688 -3.41203,1.2658 -7.1163,1.9688 -10.96875,1.9688 -1.97456,0 -3.89174,-0.215 -5.76563,-0.5625 4.57218,8.4166 13.51382,14.0625 23.76563,14.0625 14.91169,0 27,-12.0884 27,-27.00002 0,-10.2518 -5.64593,-19.1935 -14.0625,-23.7656 z M 55,972.86218 c 2.48526,0 4.5,2.0147 4.5,4.5 0,2.4852 -2.01474,4.5 -4.5,4.5 -2.48526,0 -4.5,-2.0148 -4.5,-4.5 0,-2.4853 2.01474,-4.5 4.5,-4.5 z m 26.85937,20.9531 c -2.59618,4.2241 -6.18219,7.81012 -10.40625,10.40632 0.50153,0.087 1.0206,0.1406 1.54688,0.1406 4.97056,0 9,-4.0293 9,-9.00002 0,-0.5263 -0.0539,-1.0454 -0.14063,-1.5469 z"
         style="fill:#000000;fill-opacity:1;stroke:none;filter:url(#filter4633)"
         inkscape:connector-curvature="0" />
      <path
         inkscape:connector-curvature="0"
         style="fill:url(#radialGradient4629);fill-opacity:1;stroke:#ffffff;stroke-opacity:0.31372549999999999;stroke-width:2;stroke-miterlimit:4;stroke-dasharray:none"
         d="m 55,950.36218 c -14.91169,0 -27,12.0883 -27,27 0,14.9117 12.08831,27.00002 27,27.00002 14.91169,0 27,-12.08832 27,-27.00002 0,-14.9117 -12.08831,-27 -27,-27 z m 0,13.5 c 7.45582,0 13.5,6.0442 13.5,13.5 0,7.4558 -6.04418,13.5 -13.5,13.5 -7.45583,0 -13.5,-6.0442 -13.5,-13.5 0,-7.4558 6.04417,-13.5 13.5,-13.5 z m 0,4.5 c -4.97056,0 -9,4.0294 -9,9 0,4.9705 4.02944,9 9,9 4.97056,0 9,-4.0295 9,-9 0,-4.9706 -4.02944,-9 -9,-9 z m 30.9375,3.2344 c 0.34753,1.8738 0.5625,3.791 0.5625,5.7656 0,3.8524 -0.70299,7.5567 -1.96875,10.9687 1.25028,2.047 1.96875,4.4571 1.96875,7.0313 0,7.45562 -6.04418,13.50002 -13.5,13.50002 -2.57418,0 -4.98429,-0.7184 -7.03125,-1.9688 -3.41203,1.2658 -7.1163,1.9688 -10.96875,1.9688 -1.97456,0 -3.89174,-0.215 -5.76563,-0.5625 4.57218,8.4166 13.51382,14.0625 23.76563,14.0625 14.91169,0 27,-12.0884 27,-27.00002 0,-10.2518 -5.64593,-19.1935 -14.0625,-23.7656 z M 55,972.86218 c 2.48526,0 4.5,2.0147 4.5,4.5 0,2.4852 -2.01474,4.5 -4.5,4.5 -2.48526,0 -4.5,-2.0148 -4.5,-4.5 0,-2.4853 2.01474,-4.5 4.5,-4.5 z m 26.85937,20.9531 c -2.59618,4.2241 -6.18219,7.81012 -10.40625,10.40632 0.50153,0.087 1.0206,0.1406 1.54688,0.1406 4.97056,0 9,-4.0293 9,-9.00002 0,-0.5263 -0.0539,-1.0454 -0.14063,-1.5469 z"
         id="path4627" />
    </g>
    <g
       id="g4643"
       transform="matrix(0.35842285,0,0,0.35842285,137.06094,650.82743)">
      <path
         inkscape:connector-curvature="0"
         style="fill:#000000;fill-opacity:1;stroke:none;filter:url(#filter4633)"
         d="m 55,950.36218 c -14.91169,0 -27,12.0883 -27,27 0,14.9117 12.08831,27.00002 27,27.00002 14.91169,0 27,-12.08832 27,-27.00002 0,-14.9117 -12.08831,-27 -27,-27 z m 0,13.5 c 7.45582,0 13.5,6.0442 13.5,13.5 0,7.4558 -6.04418,13.5 -13.5,13.5 -7.45583,0 -13.5,-6.0442 -13.5,-13.5 0,-7.4558 6.04417,-13.5 13.5,-13.5 z m 0,4.5 c -4.97056,0 -9,4.0294 -9,9 0,4.9705 4.02944,9 9,9 4.97056,0 9,-4.0295 9,-9 0,-4.9706 -4.02944,-9 -9,-9 z m 30.9375,3.2344 c 0.34753,1.8738 0.5625,3.791 0.5625,5.7656 0,3.8524 -0.70299,7.5567 -1.96875,10.9687 1.25028,2.047 1.96875,4.4571 1.96875,7.0313 0,7.45562 -6.04418,13.50002 -13.5,13.50002 -2.57418,0 -4.98429,-0.7184 -7.03125,-1.9688 -3.41203,1.2658 -7.1163,1.9688 -10.96875,1.9688 -1.97456,0 -3.89174,-0.215 -5.76563,-0.5625 4.57218,8.4166 13.51382,14.0625 23.76563,14.0625 14.91169,0 27,-12.0884 27,-27.00002 0,-10.2518 -5.64593,-19.1935 -14.0625,-23.7656 z M 55,972.86218 c 2.48526,0 4.5,2.0147 4.5,4.5 0,2.4852 -2.01474,4.5 -4.5,4.5 -2.48526,0 -4.5,-2.0148 -4.5,-4.5 0,-2.4853 2.01474,-4.5 4.5,-4.5 z m 26.85937,20.9531 c -2.59618,4.2241 -6.18219,7.81012 -10.40625,10.40632 0.50153,0.087 1.0206,0.1406 1.54688,0.1406 4.97056,0 9,-4.0293 9,-9.00002 0,-0.5263 -0.0539,-1.0454 -0.14063,-1.5469 z"
         id="path4645" />
      <path
         id="path4647"
         d="m 55,950.36218 c -14.91169,0 -27,12.0883 -27,27 0,14.9117 12.08831,27.00002 27,27.00002 14.91169,0 27,-12.08832 27,-27.00002 0,-14.9117 -12.08831,-27 -27,-27 z m 0,13.5 c 7.45582,0 13.5,6.0442 13.5,13.5 0,7.4558 -6.04418,13.5 -13.5,13.5 -7.45583,0 -13.5,-6.0442 -13.5,-13.5 0,-7.4558 6.04417,-13.5 13.5,-13.5 z m 0,4.5 c -4.97056,0 -9,4.0294 -9,9 0,4.9705 4.02944,9 9,9 4.97056,0 9,-4.0295 9,-9 0,-4.9706 -4.02944,-9 -9,-9 z m 30.9375,3.2344 c 0.34753,1.8738 0.5625,3.791 0.5625,5.7656 0,3.8524 -0.70299,7.5567 -1.96875,10.9687 1.25028,2.047 1.96875,4.4571 1.96875,7.0313 0,7.45562 -6.04418,13.50002 -13.5,13.50002 -2.57418,0 -4.98429,-0.7184 -7.03125,-1.9688 -3.41203,1.2658 -7.1163,1.9688 -10.96875,1.9688 -1.97456,0 -3.89174,-0.215 -5.76563,-0.5625 4.57218,8.4166 13.51382,14.0625 23.76563,14.0625 14.91169,0 27,-12.0884 27,-27.00002 0,-10.2518 -5.64593,-19.1935 -14.0625,-23.7656 z M 55,972.86218 c 2.48526,0 4.5,2.0147 4.5,4.5 0,2.4852 -2.01474,4.5 -4.5,4.5 -2.48526,0 -4.5,-2.0148 -4.5,-4.5 0,-2.4853 2.01474,-4.5 4.5,-4.5 z m 26.85937,20.9531 c -2.59618,4.2241 -6.18219,7.81012 -10.40625,10.40632 0.50153,0.087 1.0206,0.1406 1.54688,0.1406 4.97056,0 9,-4.0293 9,-9.00002 0,-0.5263 -0.0539,-1.0454 -0.14063,-1.5469 z"
         style="fill:url(#radialGradient4649);fill-opacity:1;stroke:#ffffff;stroke-width:2;stroke-miterlimit:4;stroke-opacity:0.31372549;stroke-dasharray:none"
         inkscape:connector-curvature="0" />
    </g>
  </g>
</svg>
