<?xml version="1.0" encoding="UTF-8" standalone="no"?>
<!-- Created with Inkscape (http://www.inkscape.org/) -->

<svg
   xmlns:dc="http://purl.org/dc/elements/1.1/"
   xmlns:cc="http://creativecommons.org/ns#"
   xmlns:rdf="http://www.w3.org/1999/02/22-rdf-syntax-ns#"
   xmlns:svg="http://www.w3.org/2000/svg"
   xmlns="http://www.w3.org/2000/svg"
   xmlns:xlink="http://www.w3.org/1999/xlink"
   xmlns:sodipodi="http://sodipodi.sourceforge.net/DTD/sodipodi-0.dtd"
   xmlns:inkscape="http://www.inkscape.org/namespaces/inkscape"
   width="128"
   height="128"
   id="svg2"
   version="1.1"
   inkscape:version="0.48.4 r9939"
   sodipodi:docname="user-bookmarks.svg">
  <defs
     id="defs4">
    <linearGradient
       inkscape:collect="always"
       id="linearGradient3786">
      <stop
         style="stop-color:#ffffff;stop-opacity:1;"
         offset="0"
         id="stop3788" />
      <stop
         style="stop-color:#ffffff;stop-opacity:0;"
         offset="1"
         id="stop3790" />
    </linearGradient>
    <linearGradient
       id="linearGradient3802">
      <stop
         style="stop-color:#f8ff00;stop-opacity:1;"
         offset="0"
         id="stop3804" />
      <stop
         style="stop-color:#dc9500;stop-opacity:1;"
         offset="1"
         id="stop3806" />
    </linearGradient>
    <linearGradient
       id="linearGradient3785">
      <stop
         style="stop-color:#ffffff;stop-opacity:1;"
         offset="0"
         id="stop3787" />
      <stop
         style="stop-color:#d6d6d6;stop-opacity:1;"
         offset="1"
         id="stop3789" />
    </linearGradient>
    <radialGradient
       inkscape:collect="always"
       xlink:href="#linearGradient3785"
       id="radialGradient3791"
       cx="120"
       cy="217.06807"
       fx="120"
       fy="217.06807"
       r="366"
       gradientTransform="matrix(0.3723091,0,0,0.327632,-19.527241,892.69492)"
       gradientUnits="userSpaceOnUse" />
    <radialGradient
       inkscape:collect="always"
       xlink:href="#linearGradient3802"
       id="radialGradient3808"
       cx="548"
       cy="726.62531"
       fx="548"
       fy="726.62531"
       r="364"
       gradientTransform="matrix(0.19466446,0,0,0.19466446,-23.569618,882.32189)"
       gradientUnits="userSpaceOnUse" />
    <radialGradient
       inkscape:collect="always"
       xlink:href="#linearGradient3786"
       id="radialGradient3792"
       cx="69.103531"
       cy="1007.5928"
       fx="69.103531"
       fy="1007.5928"
       r="49.080518"
       gradientTransform="matrix(1.222481,2.9627286e-6,-3.21361e-6,1.3243539,-10.902227,-318.9127)"
       gradientUnits="userSpaceOnUse" />
    <radialGradient
       inkscape:collect="always"
       xlink:href="#linearGradient4161"
       id="radialGradient4167"
       cx="160"
       cy="88.781929"
       fx="160"
       fy="88.781929"
       r="13.90625"
       gradientTransform="matrix(1.4382022,6.1779722e-7,-4.6334786e-7,1.0786515,-70.112319,-12.764858)"
       gradientUnits="userSpaceOnUse" />
    <linearGradient
       inkscape:collect="always"
       id="linearGradient4161">
      <stop
         style="stop-color:#ffffff;stop-opacity:1;"
         offset="0"
         id="stop4163" />
      <stop
         style="stop-color:#ffffff;stop-opacity:0;"
         offset="1"
         id="stop4165" />
    </linearGradient>
    <radialGradient
       inkscape:collect="always"
       xlink:href="#linearGradient3785-5"
       id="radialGradient3791-8"
       cx="120"
       cy="217.06807"
       fx="120"
       fy="217.06807"
       r="366"
       gradientTransform="matrix(0.3723091,0,0,0.327632,-19.527241,892.69492)"
       gradientUnits="userSpaceOnUse" />
    <linearGradient
       id="linearGradient3785-5">
      <stop
         style="stop-color:#ffffff;stop-opacity:1;"
         offset="0"
         id="stop3787-8" />
      <stop
         style="stop-color:#d6d6d6;stop-opacity:1;"
         offset="1"
         id="stop3789-0" />
    </linearGradient>
    <radialGradient
       inkscape:collect="always"
       xlink:href="#linearGradient3802-5"
       id="radialGradient3808-0"
       cx="548"
       cy="726.62531"
       fx="548"
       fy="726.62531"
       r="364"
       gradientTransform="matrix(0.19466446,0,0,0.19466446,-23.569618,882.32189)"
       gradientUnits="userSpaceOnUse" />
    <linearGradient
       id="linearGradient3802-5">
      <stop
         style="stop-color:#b5ff00;stop-opacity:1;"
         offset="0"
         id="stop3804-1" />
      <stop
         style="stop-color:#205900;stop-opacity:1;"
         offset="1"
         id="stop3806-8" />
    </linearGradient>
    <radialGradient
       inkscape:collect="always"
       xlink:href="#linearGradient3786-1"
       id="radialGradient3792-5"
       cx="69.103531"
       cy="1007.5928"
       fx="69.103531"
       fy="1007.5928"
       r="49.080517"
       gradientTransform="matrix(1.222481,2.9627286e-6,-3.21361e-6,1.3243539,-10.902227,-318.9127)"
       gradientUnits="userSpaceOnUse" />
    <linearGradient
       inkscape:collect="always"
       id="linearGradient3786-1">
      <stop
         style="stop-color:#ffffff;stop-opacity:1;"
         offset="0"
         id="stop3788-0" />
      <stop
         style="stop-color:#ffffff;stop-opacity:0;"
         offset="1"
         id="stop3790-6" />
    </linearGradient>
    <radialGradient
       inkscape:collect="always"
       xlink:href="#linearGradient3786-1"
       id="radialGradient3052"
       gradientUnits="userSpaceOnUse"
       gradientTransform="matrix(1.222481,2.9627286e-6,-3.21361e-6,1.3243539,-10.902227,-318.9127)"
       cx="69.103531"
       cy="1007.5928"
       fx="69.103531"
       fy="1007.5928"
       r="49.080517" />
    <radialGradient
       inkscape:collect="always"
       xlink:href="#linearGradient3802-5"
       id="radialGradient3055"
       gradientUnits="userSpaceOnUse"
       gradientTransform="matrix(0.19466446,0,0,0.19466446,-23.569618,882.32189)"
       cx="548"
       cy="726.62531"
       fx="548"
       fy="726.62531"
       r="364" />
    <radialGradient
       inkscape:collect="always"
       xlink:href="#linearGradient3785-5"
       id="radialGradient3069"
       gradientUnits="userSpaceOnUse"
       gradientTransform="matrix(0.3723091,0,0,0.327632,-19.527241,892.69492)"
       cx="120"
       cy="217.06807"
       fx="120"
       fy="217.06807"
       r="366" />
    <linearGradient
       id="linearGradient3785-0">
      <stop
         style="stop-color:#ffffff;stop-opacity:1;"
         offset="0"
         id="stop3787-7" />
      <stop
         style="stop-color:#d6d6d6;stop-opacity:1;"
         offset="1"
         id="stop3789-1" />
    </linearGradient>
    <linearGradient
       id="linearGradient3802-56">
      <stop
         style="stop-color:#ff8400;stop-opacity:1;"
         offset="0"
         id="stop3804-16" />
      <stop
         style="stop-color:#4b2700;stop-opacity:1;"
         offset="1"
         id="stop3806-83" />
    </linearGradient>
    <radialGradient
       inkscape:collect="always"
       xlink:href="#linearGradient3785-7"
       id="radialGradient3791-1"
       cx="120"
       cy="217.06807"
       fx="120"
       fy="217.06807"
       r="366"
       gradientTransform="matrix(0.3723091,0,0,0.327632,-19.527241,892.69492)"
       gradientUnits="userSpaceOnUse" />
    <linearGradient
       id="linearGradient3785-7">
      <stop
         style="stop-color:#ffffff;stop-opacity:1;"
         offset="0"
         id="stop3787-9" />
      <stop
         style="stop-color:#d6d6d6;stop-opacity:1;"
         offset="1"
         id="stop3789-6" />
    </linearGradient>
    <radialGradient
       inkscape:collect="always"
       xlink:href="#linearGradient3802-6"
       id="radialGradient3808-7"
       cx="548"
       cy="726.62531"
       fx="548"
       fy="726.62531"
       r="364"
       gradientTransform="matrix(0.19466446,0,0,0.19466446,-23.569618,882.32189)"
       gradientUnits="userSpaceOnUse" />
    <linearGradient
       id="linearGradient3802-6">
      <stop
         style="stop-color:#00e3ff;stop-opacity:1;"
         offset="0"
         id="stop3804-5" />
      <stop
         style="stop-color:#003480;stop-opacity:1;"
         offset="1"
         id="stop3806-6" />
    </linearGradient>
    <radialGradient
       inkscape:collect="always"
       xlink:href="#linearGradient3786-9"
       id="radialGradient3792-52"
       cx="69.103531"
       cy="1007.5928"
       fx="69.103531"
       fy="1007.5928"
       r="49.080517"
       gradientTransform="matrix(1.222481,2.9627286e-6,-3.21361e-6,1.3243539,-10.902227,-318.9127)"
       gradientUnits="userSpaceOnUse" />
    <linearGradient
       inkscape:collect="always"
       id="linearGradient3786-9">
      <stop
         style="stop-color:#ffffff;stop-opacity:1;"
         offset="0"
         id="stop3788-6" />
      <stop
         style="stop-color:#ffffff;stop-opacity:0;"
         offset="1"
         id="stop3790-27" />
    </linearGradient>
    <radialGradient
       inkscape:collect="always"
       xlink:href="#linearGradient4161"
       id="radialGradient3135"
       gradientUnits="userSpaceOnUse"
       gradientTransform="matrix(1.4382022,6.1779722e-7,-4.6334786e-7,1.0786515,-70.112319,911.59732)"
       cx="160"
       cy="88.781929"
       fx="160"
       fy="88.781929"
       r="13.90625" />
    <linearGradient
       inkscape:collect="always"
       xlink:href="#linearGradient3833"
       id="linearGradient33752"
       gradientUnits="userSpaceOnUse"
       gradientTransform="translate(-4,926.36218)"
       x1="25"
       y1="38"
       x2="25"
       y2="53" />
    <linearGradient
       id="linearGradient3833">
      <stop
         style="stop-color:#777777;stop-opacity:1;"
         offset="0"
         id="stop3835" />
      <stop
         style="stop-color:#f2f2f2;stop-opacity:1;"
         offset="1"
         id="stop3837" />
    </linearGradient>
    <radialGradient
       inkscape:collect="always"
       xlink:href="#linearGradient3785-0-1"
       id="radialGradient4507"
       gradientUnits="userSpaceOnUse"
       gradientTransform="matrix(0.3723091,0,0,0.327632,-19.527241,892.69492)"
       cx="120"
       cy="217.06807"
       fx="120"
       fy="217.06807"
       r="366" />
    <linearGradient
       id="linearGradient3785-0-1">
      <stop
         style="stop-color:#ffffff;stop-opacity:1;"
         offset="0"
         id="stop3787-7-8" />
      <stop
         style="stop-color:#d6d6d6;stop-opacity:1;"
         offset="1"
         id="stop3789-1-7" />
    </linearGradient>
    <radialGradient
       inkscape:collect="always"
       xlink:href="#linearGradient3786-7-0"
       id="radialGradient4490"
       gradientUnits="userSpaceOnUse"
       gradientTransform="matrix(1.222481,2.9627286e-6,-3.21361e-6,1.3243539,-10.902227,-318.9127)"
       cx="69.103531"
       cy="1007.5928"
       fx="69.103531"
       fy="1007.5928"
       r="49.080517" />
    <linearGradient
       inkscape:collect="always"
       id="linearGradient3786-7-0">
      <stop
         style="stop-color:#ffffff;stop-opacity:1;"
         offset="0"
         id="stop3788-01-1" />
      <stop
         style="stop-color:#ffffff;stop-opacity:0;"
         offset="1"
         id="stop3790-2-7" />
    </linearGradient>
    <radialGradient
       inkscape:collect="always"
       xlink:href="#linearGradient3802-6-6"
       id="radialGradient4493"
       gradientUnits="userSpaceOnUse"
       gradientTransform="matrix(0.19466446,0,0,0.19466446,-23.569618,882.32189)"
       cx="548"
       cy="726.62531"
       fx="548"
       fy="726.62531"
       r="364" />
    <linearGradient
       id="linearGradient3802-6-6">
      <stop
         style="stop-color:#00e3ff;stop-opacity:1;"
         offset="0"
         id="stop3804-5-4" />
      <stop
         style="stop-color:#003480;stop-opacity:1;"
         offset="1"
         id="stop3806-6-8" />
    </linearGradient>
    <radialGradient
       inkscape:collect="always"
       xlink:href="#linearGradient3785-0-1"
       id="radialGradient4514"
       gradientUnits="userSpaceOnUse"
       gradientTransform="matrix(1.3690656,-5.9207165e-7,5.920727e-7,1.3690681,-60.89642,-371.42802)"
       cx="157.69576"
       cy="1007.1013"
       fx="157.69576"
       fy="1007.1013"
       r="14.608503" />
    <linearGradient
       id="linearGradient5005">
      <stop
         style="stop-color:#ffffff;stop-opacity:1;"
         offset="0"
         id="stop5007" />
      <stop
         style="stop-color:#d6d6d6;stop-opacity:1;"
         offset="1"
         id="stop5009" />
    </linearGradient>
    <radialGradient
       inkscape:collect="always"
       xlink:href="#linearGradient3802-6-6"
       id="radialGradient4476"
       gradientUnits="userSpaceOnUse"
       gradientTransform="matrix(1.3690656,-5.9207165e-7,5.920727e-7,1.3690681,-60.89642,-371.42802)"
       cx="165"
       cy="1014.4056"
       fx="165"
       fy="1014.4056"
       r="14.608503" />
    <linearGradient
       id="linearGradient5012">
      <stop
         style="stop-color:#00e3ff;stop-opacity:1;"
         offset="0"
         id="stop5014" />
      <stop
         style="stop-color:#003480;stop-opacity:1;"
         offset="1"
         id="stop5016" />
    </linearGradient>
    <radialGradient
       inkscape:collect="always"
       xlink:href="#linearGradient4161-2"
       id="radialGradient4478"
       gradientUnits="userSpaceOnUse"
       gradientTransform="matrix(1.4382022,6.1779722e-7,-4.6334786e-7,1.0786515,-70.11232,911.59732)"
       cx="160"
       cy="88.781929"
       fx="160"
       fy="88.781929"
       r="13.90625" />
    <linearGradient
       inkscape:collect="always"
       id="linearGradient4161-2">
      <stop
         style="stop-color:#ffffff;stop-opacity:1;"
         offset="0"
         id="stop4163-0" />
      <stop
         style="stop-color:#ffffff;stop-opacity:0;"
         offset="1"
         id="stop4165-5" />
    </linearGradient>
    <radialGradient
       inkscape:collect="always"
       xlink:href="#linearGradient3785-0-1"
       id="radialGradient4524"
       cx="150"
       cy="1042.505"
       fx="150"
       fy="1042.505"
       r="6.5"
       gradientTransform="matrix(1.5384615,-4.0200113e-6,4.0200063e-6,1.5384596,-80.773428,-561.48903)"
       gradientUnits="userSpaceOnUse" />
    <linearGradient
       id="linearGradient5023">
      <stop
         style="stop-color:#ffffff;stop-opacity:1;"
         offset="0"
         id="stop5025" />
      <stop
         style="stop-color:#d6d6d6;stop-opacity:1;"
         offset="1"
         id="stop5027" />
    </linearGradient>
    <radialGradient
       inkscape:collect="always"
       xlink:href="#linearGradient3802-6-6"
       id="radialGradient4532"
       cx="154.8125"
       cy="1050.8622"
       fx="154.8125"
       fy="1050.8622"
       r="6.5"
       gradientTransform="matrix(1.3846166,-4.5998478e-6,4.5998576e-6,1.3846195,-59.360802,-403.68132)"
       gradientUnits="userSpaceOnUse" />
    <linearGradient
       id="linearGradient5030">
      <stop
         style="stop-color:#00e3ff;stop-opacity:1;"
         offset="0"
         id="stop5032" />
      <stop
         style="stop-color:#003480;stop-opacity:1;"
         offset="1"
         id="stop5034" />
    </linearGradient>
  </defs>
  <sodipodi:namedview
     id="base"
     pagecolor="#ffffff"
     bordercolor="#666666"
     borderopacity="1.0"
     inkscape:pageopacity="0.0"
     inkscape:pageshadow="2"
     inkscape:zoom="3.447557"
     inkscape:cx="117.66634"
     inkscape:cy="44.835979"
     inkscape:document-units="px"
     inkscape:current-layer="layer1"
     showgrid="true"
     inkscape:window-width="1375"
     inkscape:window-height="876"
     inkscape:window-x="1345"
     inkscape:window-y="148"
     inkscape:window-maximized="1">
    <inkscape:grid
       type="xygrid"
       id="grid3000"
       empspacing="5"
       visible="true"
       enabled="true"
       snapvisiblegridlinesonly="true" />
  </sodipodi:namedview>
  <metadata
     id="metadata7">
    <rdf:RDF>
      <cc:Work
         rdf:about="">
        <dc:format>image/svg+xml</dc:format>
        <dc:type
           rdf:resource="http://purl.org/dc/dcmitype/StillImage" />
        <dc:title />
      </cc:Work>
    </rdf:RDF>
  </metadata>
  <g
     inkscape:label="Ebene 1"
     inkscape:groupmode="layer"
     id="layer1"
     transform="translate(0,-924.36218)">
    <g
       transform="translate(2.5e-7,-2.6171874e-6)"
       id="g4534">
      <path
         inkscape:export-ydpi="32.142857"
         inkscape:export-xdpi="32.142857"
         inkscape:export-filename="/home/georg/.icons/Kawaiki-Only/places/scalable/rect3146.png"
         sodipodi:nodetypes="csscc"
         inkscape:connector-curvature="0"
         style="fill:#666666;fill-rule:evenodd;stroke:#999999;stroke-width:1.39128566;stroke-linecap:butt;stroke-linejoin:miter;stroke-miterlimit:4;stroke-opacity:1;stroke-dasharray:none"
         d="m 171.13029,1009.9273 c 1.54154,0 2.78257,-1.241 2.78257,-2.7825 l 0,-2.7826 c 0,-1.5415 -1.24103,-2.7826 -2.78257,-2.7826 -8.34772,-4.17381 -5.56515,15.3042 0,8.3477 z"
         id="path3151" />
      <text
         x="-56"
         y="948.36218"
         id="text5893-3"
         xml:space="preserve"
         style="font-size:24px;font-style:normal;font-weight:normal;line-height:125%;letter-spacing:0px;word-spacing:0px;fill:#000000;fill-opacity:1;stroke:none;font-family:Sans"
         sodipodi:linespacing="125%"><tspan
           x="-56"
           y="948.36218"
           id="tspan5895-8">128</tspan></text>
      <rect
         ry="2.3894534"
         rx="2.7253025"
         y="1025.3622"
         x="5"
         height="11.999998"
         width="115.00002"
         id="rect3806"
         style="opacity:0.1;fill:#000000;fill-opacity:1;stroke:none" />
      <rect
         ry="2.3894534"
         rx="2.7253025"
         y="1026.3622"
         x="7"
         height="8.0000296"
         width="111"
         id="rect3804"
         style="opacity:0.12000002;fill:#000000;stroke:none" />
      <rect
         ry="2.3894534"
         rx="2.7253025"
         y="1027.3622"
         x="10"
         height="4.999999"
         width="105"
         id="rect3802"
         style="opacity:0.25;fill:#000000;stroke:none" />
      <path
         sodipodi:nodetypes="cscscccccccccccccc"
         inkscape:connector-curvature="0"
         id="rect3002"
         d="m 22.424554,950.18686 0,5.45061 c 0,1.36265 -1.362653,2.72531 -2.725305,2.72531 -0.69976,0 -1.398545,0 -2.725294,0 -1.362653,0 -2.725306,1.36264 -2.725306,2.72529 l 0,62.68193 c 0,2.7253 2.725306,5.4506 5.4506,5.4506 l 87.209691,0 c 2.72531,0 5.45061,-2.7253 5.45061,-5.398 l 0,-62.73453 c 0,-1.36265 -1.36265,-2.72529 -2.7253,-2.72529 l -43.604849,0 c -1.362652,0 -2.725305,-1.36266 -2.725305,-2.72531 l 0,-5.45061 c 0,-2.7253 -1.362652,-2.7253 -2.725305,-2.7253 l -35.428932,1e-5 c -1.362653,0 -2.725305,1.36265 -2.725305,2.72529 z"
         style="fill:url(#radialGradient4507);fill-opacity:1;stroke:#505050;stroke-width:1.09012103;stroke-miterlimit:4;stroke-opacity:1;stroke-dasharray:none" />
      <g
         transform="matrix(0.13626513,0,0,0.13626513,6.7980396,929.42521)"
         id="g3867">
        <rect
           style="opacity:0.2;fill:#000000;fill-opacity:1;stroke:none"
           id="rect3847"
           width="40"
           height="420"
           x="80"
           y="252.36218"
           rx="20"
           ry="20" />
        <rect
           ry="20"
           rx="20"
           y="252.36218"
           x="160"
           height="420"
           width="40"
           id="rect3849"
           style="opacity:0.2;fill:#000000;fill-opacity:1;stroke:none" />
        <rect
           style="opacity:0.2;fill:#000000;fill-opacity:1;stroke:none"
           id="rect3851"
           width="40"
           height="420"
           x="240"
           y="252.36218"
           rx="20"
           ry="20" />
        <rect
           ry="20"
           rx="20"
           y="252.36218"
           x="320"
           height="420"
           width="40"
           id="rect3853"
           style="opacity:0.2;fill:#000000;fill-opacity:1;stroke:none" />
        <rect
           style="opacity:0.2;fill:#000000;fill-opacity:1;stroke:none"
           id="rect3855"
           width="40"
           height="420"
           x="400"
           y="252.36218"
           rx="20"
           ry="20" />
        <rect
           ry="20"
           rx="20"
           y="252.36218"
           x="460"
           height="420"
           width="40"
           id="rect3857"
           style="opacity:0.2;fill:#000000;fill-opacity:1;stroke:none" />
        <rect
           style="opacity:0.2;fill:#000000;fill-opacity:1;stroke:none"
           id="rect3859"
           width="40"
           height="420"
           x="540"
           y="252.36218"
           rx="20"
           ry="20" />
        <rect
           ry="20"
           rx="20"
           y="252.36218"
           x="620"
           height="420"
           width="40"
           id="rect3861"
           style="opacity:0.2;fill:#000000;fill-opacity:1;stroke:none" />
        <rect
           style="opacity:0.2;fill:#000000;fill-opacity:1;stroke:none"
           id="rect3863"
           width="40"
           height="420"
           x="700"
           y="252.36218"
           rx="20"
           ry="20" />
      </g>
      <path
         inkscape:connector-curvature="0"
         id="path3797"
         d="m 98.08201,961.30027 c -56.630838,0.21628 -35.932141,6.92853 -82.653534,8.12047 -1.237475,0 -2.459726,1.25596 -2.459726,2.49342 l 0,0.60651 c 49.801725,-1.86733 26.411612,-9.68562 99.93901,-9.40087 -0.22042,-1.77415 -1.31853,-1.78583 -2.42603,-1.78583 -4.50572,-0.047 -8.62432,-0.0481 -12.39972,-0.0336 z"
         style="opacity:0.25;fill:#000000;fill-opacity:1;stroke:none" />
      <path
         sodipodi:nodetypes="scscscscs"
         inkscape:connector-curvature="0"
         id="path3015"
         d="m 102.82229,962.9345 c -61.041028,0.23815 -39.677466,7.65625 -91.125002,8.96875 -1.362653,0 -2.7187504,1.35611 -2.7187504,2.71875 l 0,23.65625 c 25.7810454,-4.31192 70.3149154,-6.875 105.7187524,-6.875 1.46301,0 2.92197,0.0225 4.375,0.0313 l 0,-25.71875 c 0,-2.7253 -1.3561,-2.71875 -2.71875,-2.71875 -4.96151,-0.0517 -9.46185,-0.0784 -13.53125,-0.0625 z"
         style="opacity:0.75;fill:url(#radialGradient4490);fill-opacity:1;stroke:none" />
      <rect
         ry="2.7253025"
         rx="2.7253025"
         y="950.18689"
         x="25.149862"
         height="6.1319308"
         width="25.890375"
         id="rect3828"
         style="opacity:0.85;fill:#287dd5;fill-opacity:1;stroke:none" />
      <path
         style="opacity:0.85;fill:url(#radialGradient4493);fill-opacity:1;stroke:#505050;stroke-width:1.09012103;stroke-miterlimit:4;stroke-opacity:1;stroke-dasharray:none"
         d="m 11.694916,971.897 c -1.362653,0 -2.7252954,1.36265 -2.7252954,2.72529 l 0,49.14771 c -0.397333,4.727 1.6026674,5.727 4.7296284,5.4506 l 99.930661,0 c 2.72531,0 5.45061,-2.7253 5.45061,-5.398 l 0,-58.10151 c 0,-2.7253 -1.36265,-2.7253 -2.7253,-2.7253 C 36.971094,962.16807 66.572288,970.497 11.694916,971.897 z"
         id="path3798"
         inkscape:connector-curvature="0"
         sodipodi:nodetypes="ccccccccc" />
      <text
         x="184"
         y="1000.3622"
         id="text5901"
         xml:space="preserve"
         style="font-size:16px;font-style:normal;font-weight:normal;line-height:125%;letter-spacing:0px;word-spacing:0px;fill:#000000;fill-opacity:1;stroke:none;font-family:Sans"
         sodipodi:linespacing="125%"><tspan
           x="184"
           y="1000.3622"
           id="tspan5903">31 - 17</tspan></text>
      <text
         x="172"
         y="1048.3622"
         id="text5905"
         xml:space="preserve"
         style="font-size:16px;font-style:normal;font-weight:normal;line-height:125%;letter-spacing:0px;word-spacing:0px;fill:#000000;fill-opacity:1;stroke:none;font-family:Sans"
         sodipodi:linespacing="125%"><tspan
           x="172"
           y="1048.3622"
           id="tspan5907">16</tspan></text>
      <path
         inkscape:connector-curvature="0"
         style="fill:url(#radialGradient4514);fill-opacity:1;fill-rule:evenodd;stroke:#b3b3b3;stroke-width:1.39128566;stroke-linecap:butt;stroke-linejoin:miter;stroke-miterlimit:4;stroke-opacity:1;stroke-dasharray:none"
         d="m 148.86971,989.05809 c -1.54154,0 -2.78257,1.241 -2.78257,2.7825 l 0,25.04321 c 0,1.5415 1.24103,2.7825 2.78257,2.7825 l 19.478,0 c 1.54155,0 2.78258,-1.241 2.78258,-2.7825 l 0,-16.6955 c 1.54154,0 2.78257,-1.24101 2.78257,-2.78251 l 0,-2.7826 c 0,-1.5415 -1.24103,-2.7826 -2.78257,-2.7826 0,-1.5415 -1.24103,-2.7825 -2.78258,-2.7825 l -19.478,0 z"
         id="path4512"
         inkscape:export-filename="/home/georg/.icons/Kawaiki-Only/places/scalable/rect3146.png"
         inkscape:export-xdpi="32.142857"
         inkscape:export-ydpi="32.142857" />
      <rect
         width="40"
         height="40"
         rx="4.5902016e-07"
         x="140"
         y="984.36218"
         id="rect5919"
         style="fill:none;stroke:#000000;stroke-width:1;stroke-linecap:round;stroke-linejoin:round;stroke-miterlimit:4;stroke-opacity:1;stroke-dasharray:none;stroke-dashoffset:0" />
      <rect
         width="24"
         height="24"
         rx="4.5902016e-07"
         x="140"
         y="1032.3622"
         id="rect5921"
         style="fill:none;stroke:#000000;stroke-width:1;stroke-linecap:round;stroke-linejoin:round;stroke-miterlimit:4;stroke-opacity:1;stroke-dasharray:none;stroke-dashoffset:0" />
      <rect
         width="32"
         height="4"
         rx="4.5902016e-07"
         x="144"
         y="980.36218"
         id="rect6935"
         style="fill:#b3b3b3;fill-opacity:1;stroke:none" />
      <rect
         width="4"
         height="32"
         rx="4.5902016e-07"
         x="136"
         y="988.36218"
         id="rect6937"
         style="fill:#b3b3b3;fill-opacity:1;stroke:none" />
      <rect
         width="16"
         height="4"
         rx="4.5902016e-07"
         x="144"
         y="1028.3622"
         id="rect6939"
         style="fill:#b3b3b3;fill-opacity:1;stroke:none" />
      <rect
         width="4"
         height="16"
         rx="4.5902016e-07"
         x="136"
         y="1036.3622"
         id="rect6941"
         style="fill:#b3b3b3;fill-opacity:1;stroke:none" />
      <path
         inkscape:export-ydpi="32.142857"
         inkscape:export-xdpi="32.142857"
         inkscape:export-filename="/home/georg/.icons/Kawaiki-Only/places/scalable/rect3146.png"
         id="rect3144"
         d="m 148.86971,989.05809 c -1.54154,0 -2.78257,1.241 -2.78257,2.7825 l 0,25.04321 c 0,1.5415 1.24103,2.7825 2.78257,2.7825 l 19.478,0 c 1.54155,0 2.78258,-1.241 2.78258,-2.7825 l 0,-16.6955 c 1.54154,0 2.78257,-1.24101 2.78257,-2.78251 l 0,-2.7826 c 0,-1.5415 -1.24103,-2.7826 -2.78257,-2.7826 0,-1.5415 -1.24103,-2.7825 -2.78258,-2.7825 l -19.478,0 z"
         style="opacity:0.85;fill:url(#radialGradient4476);fill-opacity:1;fill-rule:evenodd;stroke:#b3b3b3;stroke-width:1.39128566;stroke-linecap:butt;stroke-linejoin:miter;stroke-miterlimit:4;stroke-opacity:1;stroke-dasharray:none"
         inkscape:connector-curvature="0" />
      <rect
         inkscape:export-ydpi="32.142857"
         inkscape:export-xdpi="32.142857"
         ry="1.3912857"
         rx="1.3912857"
         y="991.84058"
         x="148.86972"
         height="25.043142"
         width="19.478001"
         id="rect3146"
         style="fill:none;stroke:#eeeeec;stroke-width:1.39128566;stroke-miterlimit:4;stroke-dasharray:none" />
      <path
         inkscape:connector-curvature="0"
         id="path4154"
         d="m 148.875,989.04968 c -1.54154,0 -2.78125,1.23975 -2.78125,2.78125 l 0,14.59377 c 6.87691,-2.9814 15.55072,-4.8132 25.03125,-5.0313 l 0,-1.2187 c 1.54154,0 2.78125,-1.23977 2.78125,-2.78127 l 0,-2.78125 c 0,-1.5415 -1.23971,-2.78125 -2.78125,-2.78125 0,-1.5415 -1.2397,-2.78125 -2.78125,-2.78125 l -19.46875,0 z"
         style="opacity:0.5;fill:url(#radialGradient4478);fill-opacity:1;fill-rule:evenodd;stroke:none" />
      <path
         sodipodi:nodetypes="sssssscsscss"
         inkscape:connector-curvature="0"
         id="rect4029"
         d="m 147,1036.3622 c -1.108,0 -2,0.892 -2,2 l 0,12 c 0,1.108 0.892,2 2,2 l 10,0 c 1.108,0 2,-0.892 2,-2 l 0,-7.2813 c 0.59691,-0.3452 1,-0.9768 1,-1.7187 l 0,-2 c 0,-0.816 -0.48992,-1.5008 -1.1875,-1.8125 -0.31167,-0.6976 -0.9965,-1.1875 -1.8125,-1.1875 z"
         style="fill:#888a85;fill-opacity:1;stroke:none" />
      <path
         style="fill:url(#radialGradient4524);fill-opacity:1;stroke:none"
         d="m 147,1037.3622 c -0.554,0 -1,0.446 -1,1 l 0,12 c 0,0.554 0.446,1 1,1 l 10,0 c 0.554,0 1,-0.446 1,-1 l 0,-8 c 0.554,0 1,-0.446 1,-1 l 0,-2 c 0,-0.554 -0.446,-1 -1,-1 0,-0.554 -0.446,-1 -1,-1 z"
         id="path4516"
         inkscape:connector-curvature="0"
         sodipodi:nodetypes="sssssscsscss" />
      <path
         sodipodi:nodetypes="sssssscsscss"
         inkscape:connector-curvature="0"
         id="rect4016"
         d="m 147,1037.3622 c -0.554,0 -1,0.446 -1,1 l 0,12 c 0,0.554 0.446,1 1,1 l 10,0 c 0.554,0 1,-0.446 1,-1 l 0,-8 c 0.554,0 1,-0.446 1,-1 l 0,-2 c 0,-0.554 -0.446,-1 -1,-1 0,-0.554 -0.446,-1 -1,-1 z"
         style="opacity:0.85;fill:url(#radialGradient4532);fill-opacity:1;stroke:none" />
      <path
         sodipodi:nodetypes="ssssssssssssssssss"
         inkscape:connector-curvature="0"
         id="rect4018"
         d="m 148,1038.3622 c -0.554,0 -1,0.446 -1,1 l 0,10 c 0,0.554 0.446,1 1,1 l 8,0 c 0.554,0 1,-0.446 1,-1 l 0,-10 c 0,-0.554 -0.446,-1 -1,-1 z m 1,1 6,0 c 0.554,0 1,0.446 1,1 l 0,8 c 0,0.554 -0.446,1 -1,1 l -6,0 c -0.554,0 -1,-0.446 -1,-1 l 0,-8 c 0,-0.554 0.446,-1 1,-1 z"
         style="fill:#eeeeec;fill-opacity:1;stroke:none" />
    </g>
    <g
       id="g5240">
      <path
         inkscape:connector-curvature="0"
         id="path3803"
         d="m 64.377694,971.44818 a 2.0002,2.0002 0 0 0 -1.801703,1.14834 l -6.751439,14.23544 -15.581767,2.51446 a 2.0002,2.0002 0 0 0 -1.069142,3.42522 l 11.483385,10.84986 -2.435269,15.5817 a 2.0002,2.0002 0 0 0 2.930243,2.0789 l 13.859258,-7.5632 14.057249,7.1276 a 2.0002,2.0002 0 0 0 2.870846,-2.158 l -2.890645,-15.5026 11.127004,-11.18642 a 2.0002,2.0002 0 0 0 -1.168137,-3.38562 l -15.660962,-2.03929 -7.187016,-14.03745 a 2.0002,2.0002 0 0 0 -1.781905,-1.08894 z m 0.0792,6.51385 5.820889,11.38439 a 2.0002,2.0002 0 0 0 1.524518,1.06914 l 12.691121,1.64332 -9.028317,9.04812 a 2.0002,2.0002 0 0 0 -0.55437,1.7819 l 2.356074,12.5525 -11.40419,-5.7615 a 2.0002,2.0002 0 0 0 -1.861101,0.02 l -11.2062,6.1179 1.960095,-12.6119 a 2.0002,2.0002 0 0 0 -0.593968,-1.7621 l -9.285703,-8.77096 12.611925,-2.03929 a 2.0002,2.0002 0 0 0 1.48492,-1.12854 l 5.484307,-11.54278 z"
         style="font-size:medium;font-style:normal;font-variant:normal;font-weight:normal;font-stretch:normal;text-indent:0;text-align:start;text-decoration:none;line-height:normal;letter-spacing:normal;word-spacing:normal;text-transform:none;direction:ltr;block-progression:tb;writing-mode:lr-tb;text-anchor:start;baseline-shift:baseline;opacity:0.25;color:#000000;fill:none;stroke:#000000;stroke-width:4;stroke-miterlimit:4;stroke-dasharray:none;marker:none;visibility:visible;display:inline;overflow:visible;enable-background:accumulate;font-family:Sans;-inkscape-font-specification:Sans" />
      <path
         inkscape:transform-center-y="-2.3066539"
         inkscape:transform-center-x="0.1188988"
         transform="matrix(0.63356611,0,0,0.63356611,29.293971,960.77655)"
         d="M 80,92 56.303641,79.997695 32.982599,92.7139 37.074892,66.468407 17.774464,48.218302 43.999999,44.000001 55.39272,20.00461 67.5087,43.643049 93.850216,47.063188 75.112768,65.890848 z"
         inkscape:randomized="0"
         inkscape:rounded="0"
         inkscape:flatsided="false"
         sodipodi:arg2="1.5556137"
         sodipodi:arg1="0.92729522"
         sodipodi:r2="20"
         sodipodi:r1="40"
         sodipodi:cy="60"
         sodipodi:cx="56"
         sodipodi:sides="5"
         id="path3148"
         style="fill:#fce94f;stroke:#fce94f;stroke-width:6.31346893;stroke-linecap:round;stroke-linejoin:round;stroke-miterlimit:4;stroke-opacity:1;stroke-dasharray:none"
         sodipodi:type="star" />
      <path
         inkscape:connector-curvature="0"
         id="path3831"
         d="m 11,969.36218 20,0 0,45.00002 -10,-10 -10,10 z"
         style="opacity:0.85;fill:url(#linearGradient33752);fill-opacity:1;stroke:#4d4d4d;stroke-width:1px;stroke-linecap:butt;stroke-linejoin:miter;stroke-opacity:1" />
    </g>
    <g
       id="g5906"
       style="fill:#fce94f;stroke:#fce94f">
      <path
         style="font-size:medium;font-style:normal;font-variant:normal;font-weight:normal;font-stretch:normal;text-indent:0;text-align:start;text-decoration:none;line-height:normal;letter-spacing:normal;word-spacing:normal;text-transform:none;direction:ltr;block-progression:tb;writing-mode:lr-tb;text-anchor:start;baseline-shift:baseline;opacity:0.25;color:#000000;fill:#fce94f;stroke:#fce94f;stroke-width:0.99650043;stroke-miterlimit:4;stroke-dasharray:none;marker:none;visibility:visible;display:inline;overflow:visible;enable-background:accumulate;font-family:Sans;-inkscape-font-specification:Sans"
         d="m 158.54068,998.12441 a 0.49830004,0.49830004 0 0 0 -0.44885,0.28608 l -1.68195,3.54641 -3.88181,0.6264 a 0.49830004,0.49830004 0 0 0 -0.26635,0.8533 l 2.8608,2.703 -0.60669,3.8818 a 0.49830004,0.49830004 0 0 0 0.73,0.5179 l 3.45269,-1.8841 3.50201,1.7756 a 0.49830004,0.49830004 0 0 0 0.7152,-0.5376 l -0.72013,-3.8621 2.77202,-2.7868 a 0.49830004,0.49830004 0 0 0 -0.29102,-0.8435 l -3.90153,-0.508 -1.79047,-3.4971 a 0.49830004,0.49830004 0 0 0 -0.44392,-0.27129 z m 0.0197,1.62277 1.45013,2.83612 a 0.49830004,0.49830004 0 0 0 0.3798,0.2664 l 3.16167,0.4094 -2.24918,2.2541 a 0.49830004,0.49830004 0 0 0 -0.1381,0.4439 l 0.58695,3.1272 -2.84107,-1.4354 a 0.49830004,0.49830004 0 0 0 -0.46364,0 l -2.79175,1.5241 0.48831,-3.1419 a 0.49830004,0.49830004 0 0 0 -0.14797,-0.439 l -2.31331,-2.1851 3.14195,-0.508 a 0.49830004,0.49830004 0 0 0 0.36993,-0.2812 l 1.36628,-2.87556 z"
         id="path10808"
         inkscape:connector-curvature="0" />
      <path
         sodipodi:type="star"
         style="fill:#fce94f;stroke:#fce94f;stroke-width:6.31346893;stroke-linecap:round;stroke-linejoin:round;stroke-miterlimit:4;stroke-opacity:1;stroke-dasharray:none"
         id="path10810"
         sodipodi:sides="5"
         sodipodi:cx="56"
         sodipodi:cy="60"
         sodipodi:r1="40"
         sodipodi:r2="20"
         sodipodi:arg1="0.92729522"
         sodipodi:arg2="1.5556137"
         inkscape:flatsided="false"
         inkscape:rounded="0"
         inkscape:randomized="0"
         d="M 80,92 56.303641,79.997695 32.982599,92.7139 37.074892,66.468407 17.774464,48.218302 43.999999,44.000001 55.39272,20.00461 67.5087,43.643049 93.850216,47.063188 75.112768,65.890848 z"
         transform="matrix(0.15783723,0,0,0.15783723,149.79946,995.46656)"
         inkscape:transform-center-x="0.029620491"
         inkscape:transform-center-y="-0.57464757" />
    </g>
    <path
       inkscape:connector-curvature="0"
       style="fill:#edd400;fill-opacity:1;stroke:none"
       id="path3092"
       d="m 154.33425,1047.8018 -2.28683,-1.1583 -2.25064,1.2271 0.39493,-2.5328 -1.8626,-1.7613 2.53092,-0.4071 1.09948,-2.3157 1.16926,2.2813 2.54212,0.3301 -1.80828,1.8169 z" />
  </g>
</svg>
