<?xml version="1.0" encoding="UTF-8" standalone="no"?>
<!-- Created with Inkscape (http://www.inkscape.org/) -->

<svg
   xmlns:dc="http://purl.org/dc/elements/1.1/"
   xmlns:cc="http://creativecommons.org/ns#"
   xmlns:rdf="http://www.w3.org/1999/02/22-rdf-syntax-ns#"
   xmlns:svg="http://www.w3.org/2000/svg"
   xmlns="http://www.w3.org/2000/svg"
   xmlns:xlink="http://www.w3.org/1999/xlink"
   xmlns:sodipodi="http://sodipodi.sourceforge.net/DTD/sodipodi-0.dtd"
   xmlns:inkscape="http://www.inkscape.org/namespaces/inkscape"
   sodipodi:docname="edit-clear.svg"
   inkscape:version="0.48.4 r9939"
   version="1.1"
   id="svg2"
   height="128"
   width="128">
  <sodipodi:namedview
     id="base"
     pagecolor="#ffffff"
     bordercolor="#666666"
     borderopacity="1.0"
     inkscape:pageopacity="0.0"
     inkscape:pageshadow="2"
     inkscape:zoom="2.5600001"
     inkscape:cx="143.84622"
     inkscape:cy="-3.0001009"
     inkscape:document-units="px"
     inkscape:current-layer="layer1"
     showgrid="true"
     showguides="true"
     inkscape:guide-bbox="true"
     inkscape:window-width="1221"
     inkscape:window-height="1000"
     inkscape:window-x="59"
     inkscape:window-y="24"
     inkscape:window-maximized="1">
    <inkscape:grid
       snapvisiblegridlinesonly="true"
       enabled="true"
       visible="true"
       empspacing="4"
       id="grid2985"
       type="xygrid" />
  </sodipodi:namedview>
  <defs
     id="defs4">
    <linearGradient
       id="linearGradient7110">
      <stop
         style="stop-color:#5a5a5a;stop-opacity:1;"
         offset="0"
         id="stop7112" />
      <stop
         style="stop-color:#202020;stop-opacity:1;"
         offset="1"
         id="stop7114" />
    </linearGradient>
    <linearGradient
       id="linearGradient4216-4-8-2">
      <stop
         id="stop4218-8-0-7"
         offset="0"
         style="stop-color:#494949;stop-opacity:1;" />
      <stop
         id="stop4220-1-6-4"
         offset="1"
         style="stop-color:#0f0f0f;stop-opacity:1;" />
    </linearGradient>
    <radialGradient
       inkscape:collect="always"
       xlink:href="#linearGradient4216-4-8-2"
       id="radialGradient5899"
       gradientUnits="userSpaceOnUse"
       gradientTransform="translate(0,2)"
       cx="64"
       cy="1020.3622"
       fx="64"
       fy="1020.3622"
       r="52" />
    <radialGradient
       inkscape:collect="always"
       xlink:href="#linearGradient7110"
       id="radialGradient7116"
       cx="80"
       cy="972.36218"
       fx="80"
       fy="972.36218"
       r="52.5"
       gradientUnits="userSpaceOnUse" />
    <linearGradient
       id="linearGradient4216-4-8-2-7">
      <stop
         style="stop-color:#ffffff;stop-opacity:1;"
         offset="0"
         id="stop4218-8-0-7-6" />
      <stop
         style="stop-color:#c6c6c6;stop-opacity:1;"
         offset="1"
         id="stop4220-1-6-4-0" />
    </linearGradient>
    <filter
       inkscape:collect="always"
       id="filter18822"
       x="-0.1200165"
       width="1.240033"
       y="-0.1199835"
       height="1.239967">
      <feGaussianBlur
         inkscape:collect="always"
         stdDeviation="3.599495"
         id="feGaussianBlur18824" />
    </filter>
    <radialGradient
       inkscape:collect="always"
       xlink:href="#linearGradient4216-4-8-2-7"
       id="radialGradient18832"
       cx="76"
       cy="976.36493"
       fx="76"
       fy="976.36493"
       r="35.990002"
       gradientTransform="matrix(1.1114199,-1.0831252e-6,1.2997507e-6,1.3337044,-8.4691817,-325.81988)"
       gradientUnits="userSpaceOnUse" />
    <radialGradient
       inkscape:collect="always"
       xlink:href="#linearGradient4216-4-8-2-7"
       id="radialGradient18864"
       gradientUnits="userSpaceOnUse"
       gradientTransform="matrix(1.1114199,-1.0831252e-6,1.2997507e-6,1.3337044,-8.4691817,-325.81988)"
       cx="76"
       cy="976.36493"
       fx="76"
       fy="976.36493"
       r="35.990002" />
    <radialGradient
       inkscape:collect="always"
       xlink:href="#linearGradient4216-4-8-2-7"
       id="radialGradient10018"
       cx="154"
       cy="118"
       fx="154"
       fy="118"
       r="8"
       gradientUnits="userSpaceOnUse"
       gradientTransform="matrix(1.25,0,0,1.25,-38.5,-29.5)" />
  </defs>
  <metadata
     id="metadata7">
    <rdf:RDF>
      <cc:Work
         rdf:about="">
        <dc:format>image/svg+xml</dc:format>
        <dc:type
           rdf:resource="http://purl.org/dc/dcmitype/StillImage" />
        <dc:title />
      </cc:Work>
    </rdf:RDF>
  </metadata>
  <g
     transform="translate(0,-924.36218)"
     id="layer1"
     inkscape:groupmode="layer"
     inkscape:label="Layer 1">
    <rect
       ry="8"
       rx="8"
       y="940.36218"
       x="12"
       height="104"
       width="104"
       id="rect6981"
       style="opacity:0.10000000000000001;fill:#000000;fill-opacity:1;stroke:#000000;stroke-width:10;stroke-miterlimit:4;stroke-dasharray:none" />
    <rect
       style="opacity:0.1;fill:#000000;fill-opacity:1;stroke:#000000;stroke-width:6;stroke-miterlimit:4;stroke-dasharray:none"
       id="rect6979"
       width="104"
       height="104"
       x="12"
       y="940.36218"
       rx="8"
       ry="8" />
    <rect
       ry="8"
       rx="8"
       y="938.36218"
       x="12"
       height="104"
       width="104"
       id="rect5969"
       style="fill:#000000;fill-opacity:1;stroke:#000000;opacity:0.20000000000000001;stroke-width:3;stroke-miterlimit:4;stroke-dasharray:none" />
    <rect
       style="fill:url(#radialGradient5899);fill-opacity:1;stroke:#1a1a1a"
       id="rect6936"
       width="104"
       height="104"
       x="12"
       y="938.36218"
       rx="8"
       ry="8" />
    <rect
       ry="8"
       rx="8"
       y="934.36218"
       x="12"
       height="104"
       width="104"
       id="rect6964"
       style="fill:url(#radialGradient7116);fill-opacity:1;stroke:#1a1a1a" />
    <text
       xml:space="preserve"
       style="font-size:24px;font-style:normal;font-weight:normal;line-height:125%;letter-spacing:0px;word-spacing:0px;fill:#000000;fill-opacity:1;stroke:none;font-family:Sans"
       x="-56"
       y="948.36218"
       id="text5893"
       sodipodi:linespacing="125%"><tspan
         sodipodi:role="line"
         id="tspan5895"
         x="-56"
         y="948.36218">128</tspan></text>
    <text
       sodipodi:linespacing="125%"
       id="text5901"
       y="1000.3622"
       x="184"
       style="font-size:16px;font-style:normal;font-weight:normal;line-height:125%;letter-spacing:0px;word-spacing:0px;fill:#000000;fill-opacity:1;stroke:none;font-family:Sans"
       xml:space="preserve"><tspan
         y="1000.3622"
         x="184"
         id="tspan5903"
         sodipodi:role="line">31 - 17</tspan></text>
    <text
       xml:space="preserve"
       style="font-size:16px;font-style:normal;font-weight:normal;line-height:125%;letter-spacing:0px;word-spacing:0px;fill:#000000;fill-opacity:1;stroke:none;font-family:Sans"
       x="172"
       y="1048.3622"
       id="text5905"
       sodipodi:linespacing="125%"><tspan
         sodipodi:role="line"
         id="tspan5907"
         x="172"
         y="1048.3622">16</tspan></text>
    <rect
       style="fill:none;stroke:#000000;stroke-width:1;stroke-linecap:round;stroke-linejoin:round;stroke-miterlimit:4;stroke-opacity:1;stroke-dasharray:none;stroke-dashoffset:0"
       id="rect5919"
       width="40"
       height="40"
       x="140"
       y="60"
       transform="translate(0,924.36218)"
       rx="4.5902016e-07" />
    <rect
       style="fill:none;stroke:#000000;stroke-width:1;stroke-linecap:round;stroke-linejoin:round;stroke-miterlimit:4;stroke-opacity:1;stroke-dasharray:none;stroke-dashoffset:0"
       id="rect5921"
       width="24"
       height="24"
       x="140"
       y="1032.3622"
       rx="4.5902016e-07" />
    <rect
       style="fill:#b3b3b3;fill-opacity:1;stroke:none"
       id="rect6935"
       width="32"
       height="4"
       x="144"
       y="56"
       transform="translate(0,924.36218)"
       rx="4.5902016e-07" />
    <rect
       style="fill:#b3b3b3;fill-opacity:1;stroke:none"
       id="rect6937"
       width="4"
       height="32"
       x="136"
       y="64"
       transform="translate(0,924.36218)"
       rx="4.5902016e-07" />
    <rect
       style="fill:#b3b3b3;fill-opacity:1;stroke:none"
       id="rect6939"
       width="16"
       height="4"
       x="144"
       y="104"
       rx="4.5902016e-07"
       transform="translate(0,924.36218)" />
    <rect
       style="fill:#b3b3b3;fill-opacity:1;stroke:none"
       id="rect6941"
       width="4"
       height="16"
       x="136"
       y="112"
       transform="translate(0,924.36218)"
       rx="4.5902016e-07" />
    <rect
       style="fill:url(#radialGradient7116);fill-opacity:1;stroke:#1a1a1a"
       id="rect12711"
       width="104"
       height="104"
       x="12"
       y="934.36218"
       rx="8"
       ry="8" />
    <path
       inkscape:connector-curvature="0"
       id="path18820"
       d="m 59.491363,950.3623 0,25.13367 -17.757704,-17.77747 -6.367461,6.36746 17.757703,17.77748 -25.113901,0 0,8.9975 25.113901,0 -17.757703,17.77746 6.367461,6.3675 17.757704,-17.7775 0,25.1337 9.017277,0 0,-25.1337 17.7577,17.7775 6.36746,-6.3675 -17.7577,-17.77746 25.1139,0 0,-8.9975 -25.1139,0 17.7577,-17.77748 -6.36746,-6.36746 -17.7577,17.77747 0,-25.13367 -9.017277,0 z m 0.790989,26.9925 7.435296,0 5.279852,5.27985 0,7.45507 -5.279852,5.27985 -7.435296,0 -5.279852,-5.27985 0,-7.45507 5.279852,-5.27985 z"
       style="font-size:medium;font-style:normal;font-variant:normal;font-weight:normal;font-stretch:normal;text-indent:0;text-align:start;text-decoration:none;line-height:normal;letter-spacing:normal;word-spacing:normal;text-transform:none;direction:ltr;block-progression:tb;writing-mode:lr-tb;text-anchor:start;baseline-shift:baseline;color:#000000;fill:#000000;fill-opacity:1;stroke:none;stroke-width:14.22220611999999917;marker:none;visibility:visible;display:inline;overflow:visible;enable-background:accumulate;font-family:Sans;-inkscape-font-specification:Sans;filter:url(#filter18822)" />
    <path
       style="font-size:medium;font-style:normal;font-variant:normal;font-weight:normal;font-stretch:normal;text-indent:0;text-align:start;text-decoration:none;line-height:normal;letter-spacing:normal;word-spacing:normal;text-transform:none;direction:ltr;block-progression:tb;writing-mode:lr-tb;text-anchor:start;baseline-shift:baseline;color:#000000;fill:url(#radialGradient18832);fill-opacity:1;stroke:#ffffff;stroke-width:2;marker:none;visibility:visible;display:inline;overflow:visible;enable-background:accumulate;font-family:Sans;-inkscape-font-specification:Sans;stroke-opacity:0.31372549999999999;stroke-miterlimit:4;stroke-dasharray:none"
       d="m 59.491363,950.3623 0,25.13367 -17.757704,-17.77747 -6.367461,6.36746 17.757703,17.77748 -25.113901,0 0,8.9975 25.113901,0 -17.757703,17.77746 6.367461,6.3675 17.757704,-17.7775 0,25.1337 9.017277,0 0,-25.1337 17.7577,17.7775 6.36746,-6.3675 -17.7577,-17.77746 25.1139,0 0,-8.9975 -25.1139,0 17.7577,-17.77748 -6.36746,-6.36746 -17.7577,17.77747 0,-25.13367 -9.017277,0 z m 0.790989,26.9925 7.435296,0 5.279852,5.27985 0,7.45507 -5.279852,5.27985 -7.435296,0 -5.279852,-5.27985 0,-7.45507 5.279852,-5.27985 z"
       id="path6965"
       inkscape:connector-curvature="0" />
    <g
       id="g18860"
       transform="matrix(0.35843456,0,0,0.35843456,137.06019,650.81588)">
      <path
         inkscape:connector-curvature="0"
         id="path18856"
         d="m 59.491363,950.3623 0,25.13367 -17.757704,-17.77747 -6.367461,6.36746 17.757703,17.77748 -25.113901,0 0,8.9975 25.113901,0 -17.757703,17.77746 6.367461,6.3675 17.757704,-17.7775 0,25.1337 9.017277,0 0,-25.1337 17.7577,17.7775 6.36746,-6.3675 -17.7577,-17.77746 25.1139,0 0,-8.9975 -25.1139,0 17.7577,-17.77748 -6.36746,-6.36746 -17.7577,17.77747 0,-25.13367 -9.017277,0 z m 0.790989,26.9925 7.435296,0 5.279852,5.27985 0,7.45507 -5.279852,5.27985 -7.435296,0 -5.279852,-5.27985 0,-7.45507 5.279852,-5.27985 z"
         style="font-size:medium;font-style:normal;font-variant:normal;font-weight:normal;font-stretch:normal;text-indent:0;text-align:start;text-decoration:none;line-height:normal;letter-spacing:normal;word-spacing:normal;text-transform:none;direction:ltr;block-progression:tb;writing-mode:lr-tb;text-anchor:start;baseline-shift:baseline;color:#000000;fill:#000000;fill-opacity:1;stroke:none;stroke-width:14.22220612;marker:none;visibility:visible;display:inline;overflow:visible;filter:url(#filter18822);enable-background:accumulate;font-family:Sans;-inkscape-font-specification:Sans" />
      <path
         style="font-size:medium;font-style:normal;font-variant:normal;font-weight:normal;font-stretch:normal;text-indent:0;text-align:start;text-decoration:none;line-height:normal;letter-spacing:normal;word-spacing:normal;text-transform:none;direction:ltr;block-progression:tb;writing-mode:lr-tb;text-anchor:start;baseline-shift:baseline;color:#000000;fill:url(#radialGradient18864);fill-opacity:1;stroke:#ffffff;stroke-width:2;stroke-miterlimit:4;stroke-opacity:0.31372549;stroke-dasharray:none;marker:none;visibility:visible;display:inline;overflow:visible;enable-background:accumulate;font-family:Sans;-inkscape-font-specification:Sans"
         d="m 59.491363,950.3623 0,25.13367 -17.757704,-17.77747 -6.367461,6.36746 17.757703,17.77748 -25.113901,0 0,8.9975 25.113901,0 -17.757703,17.77746 6.367461,6.3675 17.757704,-17.7775 0,25.1337 9.017277,0 0,-25.1337 17.7577,17.7775 6.36746,-6.3675 -17.7577,-17.77746 25.1139,0 0,-8.9975 -25.1139,0 17.7577,-17.77748 -6.36746,-6.36746 -17.7577,17.77747 0,-25.13367 -9.017277,0 z m 0.790989,26.9925 7.435296,0 5.279852,5.27985 0,7.45507 -5.279852,5.27985 -7.435296,0 -5.279852,-5.27985 0,-7.45507 5.279852,-5.27985 z"
         id="path18858"
         inkscape:connector-curvature="0" />
    </g>
    <path
       style="fill:url(#radialGradient10018);fill-opacity:1;stroke:none"
       d="M 151 112 L 151 117.59375 L 147.0625 113.625 L 145.625 115.0625 L 149.59375 119 L 144 119 L 144 121 L 149.59375 121 L 145.625 124.9375 L 147.0625 126.375 L 151 122.40625 L 151 128 L 153 128 L 153 122.40625 L 156.9375 126.375 L 158.375 124.9375 L 154.40625 121 L 160 121 L 160 119 L 154.40625 119 L 158.375 115.0625 L 156.9375 113.625 L 153 117.59375 L 153 112 L 151 112 z M 151.59375 119 L 152.40625 119 L 153 119.59375 L 153 120.40625 L 152.40625 121 L 151.59375 121 L 151 120.40625 L 151 119.59375 L 151.59375 119 z "
       transform="translate(0,924.36218)"
       id="rect8747" />
  </g>
</svg>
