<?xml version="1.0" encoding="UTF-8" standalone="no"?>
<!-- Created with Inkscape (http://www.inkscape.org/) -->

<svg
   xmlns:dc="http://purl.org/dc/elements/1.1/"
   xmlns:cc="http://creativecommons.org/ns#"
   xmlns:rdf="http://www.w3.org/1999/02/22-rdf-syntax-ns#"
   xmlns:svg="http://www.w3.org/2000/svg"
   xmlns="http://www.w3.org/2000/svg"
   xmlns:xlink="http://www.w3.org/1999/xlink"
   xmlns:sodipodi="http://sodipodi.sourceforge.net/DTD/sodipodi-0.dtd"
   xmlns:inkscape="http://www.inkscape.org/namespaces/inkscape"
   sodipodi:docname="edit-find-replace.svg"
   inkscape:version="0.48.4 r9939"
   version="1.1"
   id="svg2"
   height="128"
   width="128">
  <sodipodi:namedview
     id="base"
     pagecolor="#ffffff"
     bordercolor="#666666"
     borderopacity="1.0"
     inkscape:pageopacity="0.0"
     inkscape:pageshadow="2"
     inkscape:zoom="3.6203868"
     inkscape:cx="114.62078"
     inkscape:cy="65.727803"
     inkscape:document-units="px"
     inkscape:current-layer="layer1"
     showgrid="true"
     showguides="true"
     inkscape:guide-bbox="true"
     inkscape:window-width="1221"
     inkscape:window-height="1000"
     inkscape:window-x="59"
     inkscape:window-y="24"
     inkscape:window-maximized="1">
    <inkscape:grid
       snapvisiblegridlinesonly="true"
       enabled="true"
       visible="true"
       empspacing="4"
       id="grid2985"
       type="xygrid" />
  </sodipodi:namedview>
  <defs
     id="defs4">
    <linearGradient
       id="linearGradient10061">
      <stop
         style="stop-color:#b3b3b3;stop-opacity:1;"
         offset="0"
         id="stop10063" />
      <stop
         style="stop-color:#b3b3b3;stop-opacity:0;"
         offset="1"
         id="stop10065" />
    </linearGradient>
    <linearGradient
       id="linearGradient7110">
      <stop
         style="stop-color:#5a5a5a;stop-opacity:1;"
         offset="0"
         id="stop7112" />
      <stop
         style="stop-color:#202020;stop-opacity:1;"
         offset="1"
         id="stop7114" />
    </linearGradient>
    <linearGradient
       id="linearGradient4216-4-8-2">
      <stop
         id="stop4218-8-0-7"
         offset="0"
         style="stop-color:#494949;stop-opacity:1;" />
      <stop
         id="stop4220-1-6-4"
         offset="1"
         style="stop-color:#0f0f0f;stop-opacity:1;" />
    </linearGradient>
    <radialGradient
       inkscape:collect="always"
       xlink:href="#linearGradient4216-4-8-2"
       id="radialGradient5899"
       gradientUnits="userSpaceOnUse"
       gradientTransform="translate(0,2)"
       cx="64"
       cy="1020.3622"
       fx="64"
       fy="1020.3622"
       r="52" />
    <radialGradient
       inkscape:collect="always"
       xlink:href="#linearGradient7110"
       id="radialGradient7116"
       cx="80"
       cy="972.36218"
       fx="80"
       fy="972.36218"
       r="52.5"
       gradientUnits="userSpaceOnUse" />
    <linearGradient
       id="linearGradient6964-4">
      <stop
         style="stop-color:#ffffff;stop-opacity:1;"
         offset="0"
         id="stop6966-4" />
      <stop
         style="stop-color:#cacaca;stop-opacity:1;"
         offset="1"
         id="stop6970-3" />
    </linearGradient>
    <filter
       inkscape:collect="always"
       id="filter10039"
       x="-0.11999996"
       width="1.2399999"
       y="-0.12000004"
       height="1.2400001">
      <feGaussianBlur
         inkscape:collect="always"
         stdDeviation="3.6000181"
         id="feGaussianBlur10041" />
    </filter>
    <radialGradient
       inkscape:collect="always"
       xlink:href="#linearGradient6964-4"
       id="radialGradient10066"
       cx="156"
       cy="1040.3622"
       fx="156"
       fy="1040.3622"
       r="7.9998608"
       gradientTransform="matrix(1,0,0,0.99999781,0,-924.35989)"
       gradientUnits="userSpaceOnUse" />
    <filter
       inkscape:collect="always"
       id="filter10010"
       x="-0.086666667"
       width="1.1733333"
       y="-0.195"
       height="1.39">
      <feGaussianBlur
         inkscape:collect="always"
         stdDeviation="1.3"
         id="feGaussianBlur10012" />
    </filter>
    <radialGradient
       inkscape:collect="always"
       xlink:href="#linearGradient6964-4"
       id="radialGradient10014"
       gradientUnits="userSpaceOnUse"
       gradientTransform="matrix(1.4444368,3.2381007e-7,-3.2381004e-7,1.4444367,-37.332384,-1354.737)"
       cx="84"
       cy="968.36157"
       fx="84"
       fy="968.36157"
       r="36.000191" />
    <radialGradient
       inkscape:collect="always"
       xlink:href="#linearGradient6964-4"
       id="radialGradient10027"
       gradientUnits="userSpaceOnUse"
       gradientTransform="matrix(1.4444368,3.2381007e-7,-3.2381004e-7,1.4444367,-37.332384,-1354.737)"
       cx="84"
       cy="968.36157"
       fx="84"
       fy="968.36157"
       r="36.000191" />
    <radialGradient
       inkscape:collect="always"
       xlink:href="#linearGradient6964-4"
       id="radialGradient10067"
       cx="80"
       cy="974.11218"
       fx="80"
       fy="974.11218"
       r="31.5"
       gradientTransform="matrix(1.5238095,1.1927547e-6,-1.1927556e-6,1.5238107,-41.9036,-512.00048)"
       gradientUnits="userSpaceOnUse" />
    <filter
       inkscape:collect="always"
       id="filter10071"
       x="-0.12857145"
       width="1.2571429"
       y="-0.11249999"
       height="1.225">
      <feGaussianBlur
         inkscape:collect="always"
         stdDeviation="3.3750005"
         id="feGaussianBlur10073" />
    </filter>
    <radialGradient
       inkscape:collect="always"
       xlink:href="#linearGradient6964-4"
       id="radialGradient10083"
       gradientUnits="userSpaceOnUse"
       gradientTransform="matrix(1.5238095,1.1927547e-6,-1.1927556e-6,1.5238107,-41.9036,-512.00048)"
       cx="80"
       cy="974.11218"
       fx="80"
       fy="974.11218"
       r="31.5" />
    <radialGradient
       inkscape:collect="always"
       xlink:href="#linearGradient6964-4"
       id="radialGradient10098"
       cx="154"
       cy="1042.6122"
       fx="154"
       fy="1042.6122"
       r="7"
       gradientTransform="matrix(1.4285711,4.2426579e-6,-4.2426398e-6,1.428565,-65.99553,-447.07772)"
       gradientUnits="userSpaceOnUse" />
  </defs>
  <metadata
     id="metadata7">
    <rdf:RDF>
      <cc:Work
         rdf:about="">
        <dc:format>image/svg+xml</dc:format>
        <dc:type
           rdf:resource="http://purl.org/dc/dcmitype/StillImage" />
        <dc:title></dc:title>
      </cc:Work>
    </rdf:RDF>
  </metadata>
  <g
     transform="translate(0,-924.36218)"
     id="layer1"
     inkscape:groupmode="layer"
     inkscape:label="Layer 1">
    <rect
       ry="8"
       rx="8"
       y="940.36218"
       x="12"
       height="104"
       width="104"
       id="rect6981"
       style="opacity:0.10000000000000001;fill:#000000;fill-opacity:1;stroke:#000000;stroke-width:10;stroke-miterlimit:4;stroke-dasharray:none" />
    <rect
       style="opacity:0.1;fill:#000000;fill-opacity:1;stroke:#000000;stroke-width:6;stroke-miterlimit:4;stroke-dasharray:none"
       id="rect6979"
       width="104"
       height="104"
       x="12"
       y="940.36218"
       rx="8"
       ry="8" />
    <rect
       ry="8"
       rx="8"
       y="938.36218"
       x="12"
       height="104"
       width="104"
       id="rect5969"
       style="fill:#000000;fill-opacity:1;stroke:#000000;opacity:0.20000000000000001;stroke-width:3;stroke-miterlimit:4;stroke-dasharray:none" />
    <rect
       style="fill:url(#radialGradient5899);fill-opacity:1;stroke:#1a1a1a"
       id="rect6936"
       width="104"
       height="104"
       x="12"
       y="938.36218"
       rx="8"
       ry="8" />
    <rect
       ry="8"
       rx="8"
       y="934.36218"
       x="12"
       height="104"
       width="104"
       id="rect6964"
       style="fill:url(#radialGradient7116);fill-opacity:1;stroke:#1a1a1a" />
    <text
       xml:space="preserve"
       style="font-size:24px;font-style:normal;font-weight:normal;line-height:125%;letter-spacing:0px;word-spacing:0px;fill:#000000;fill-opacity:1;stroke:none;font-family:Sans"
       x="-56"
       y="948.36218"
       id="text5893"
       sodipodi:linespacing="125%"><tspan
         sodipodi:role="line"
         id="tspan5895"
         x="-56"
         y="948.36218">128</tspan></text>
    <text
       sodipodi:linespacing="125%"
       id="text5901"
       y="1000.3622"
       x="184"
       style="font-size:16px;font-style:normal;font-weight:normal;line-height:125%;letter-spacing:0px;word-spacing:0px;fill:#000000;fill-opacity:1;stroke:none;font-family:Sans"
       xml:space="preserve"><tspan
         y="1000.3622"
         x="184"
         id="tspan5903"
         sodipodi:role="line">31 - 17</tspan></text>
    <text
       xml:space="preserve"
       style="font-size:16px;font-style:normal;font-weight:normal;line-height:125%;letter-spacing:0px;word-spacing:0px;fill:#000000;fill-opacity:1;stroke:none;font-family:Sans"
       x="172"
       y="1048.3622"
       id="text5905"
       sodipodi:linespacing="125%"><tspan
         sodipodi:role="line"
         id="tspan5907"
         x="172"
         y="1048.3622">16</tspan></text>
    <rect
       style="fill:none;stroke:#000000;stroke-width:1;stroke-linecap:round;stroke-linejoin:round;stroke-miterlimit:4;stroke-opacity:1;stroke-dasharray:none;stroke-dashoffset:0"
       id="rect5919"
       width="40"
       height="40"
       x="140"
       y="60"
       transform="translate(0,924.36218)"
       rx="4.5902016e-07" />
    <rect
       style="fill:none;stroke:#000000;stroke-width:1;stroke-linecap:round;stroke-linejoin:round;stroke-miterlimit:4;stroke-opacity:1;stroke-dasharray:none;stroke-dashoffset:0"
       id="rect5921"
       width="24"
       height="24"
       x="140"
       y="1032.3622"
       rx="4.5902016e-07" />
    <rect
       style="fill:#b3b3b3;fill-opacity:1;stroke:none"
       id="rect6935"
       width="32"
       height="4"
       x="144"
       y="56"
       transform="translate(0,924.36218)"
       rx="4.5902016e-07" />
    <rect
       style="fill:#b3b3b3;fill-opacity:1;stroke:none"
       id="rect6937"
       width="4"
       height="32"
       x="136"
       y="64"
       transform="translate(0,924.36218)"
       rx="4.5902016e-07" />
    <rect
       style="fill:#b3b3b3;fill-opacity:1;stroke:none"
       id="rect6939"
       width="16"
       height="4"
       x="144"
       y="104"
       rx="4.5902016e-07"
       transform="translate(0,924.36218)" />
    <rect
       style="fill:#b3b3b3;fill-opacity:1;stroke:none"
       id="rect6941"
       width="4"
       height="16"
       x="136"
       y="112"
       transform="translate(0,924.36218)"
       rx="4.5902016e-07" />
    <rect
       style="fill:url(#radialGradient7116);fill-opacity:1;stroke:#1a1a1a"
       id="rect12711"
       width="104"
       height="104"
       x="12"
       y="934.36218"
       rx="8"
       ry="8" />
    <path
       sodipodi:nodetypes="sccccccccccsscccccccc"
       inkscape:connector-curvature="0"
       id="path10069"
       d="m 55,950.36218 c -2.493,0 -4.5,2.007 -4.5,4.5 l -13.5,0 c -2.35613,2e-4 -4.49976,2.1439 -4.5,4.5 l 0,58.50002 c 2.4e-4,2.3561 2.14387,4.4998 4.5,4.5 l 54,0 c 2.35613,-2e-4 4.49976,-2.1439 4.5,-4.5 l 0,-58.50002 c -2.4e-4,-2.3561 -2.14387,-4.4998 -4.5,-4.5 l -13.5,0 c 0,-2.493 -2.007,-4.5 -4.5,-4.5 z m -4.5,27 27,0 0,13.5 9,0 -22.5,22.50002 -22.5,-22.50002 9,0 z"
       style="font-size:medium;font-style:normal;font-variant:normal;font-weight:normal;font-stretch:normal;text-indent:0;text-align:start;text-decoration:none;line-height:normal;letter-spacing:normal;word-spacing:normal;text-transform:none;direction:ltr;block-progression:tb;writing-mode:lr-tb;text-anchor:start;baseline-shift:baseline;color:#000000;fill:#000000;fill-opacity:1;fill-rule:nonzero;stroke:none;stroke-width:16;marker:none;visibility:visible;display:inline;overflow:visible;enable-background:accumulate;font-family:Sans;-inkscape-font-specification:Sans;filter:url(#filter10071)" />
    <path
       style="font-size:medium;font-style:normal;font-variant:normal;font-weight:normal;font-stretch:normal;text-indent:0;text-align:start;text-decoration:none;line-height:normal;letter-spacing:normal;word-spacing:normal;text-transform:none;direction:ltr;block-progression:tb;writing-mode:lr-tb;text-anchor:start;baseline-shift:baseline;color:#000000;fill:url(#radialGradient10067);fill-opacity:1;fill-rule:nonzero;stroke:#ffffff;stroke-width:2;marker:none;visibility:visible;display:inline;overflow:visible;enable-background:accumulate;font-family:Sans;-inkscape-font-specification:Sans;stroke-opacity:0.3137255;stroke-miterlimit:4;stroke-dasharray:none"
       d="m 55,950.36218 c -2.493,0 -4.5,2.007 -4.5,4.5 l -13.5,0 c -2.35613,2e-4 -4.49976,2.1439 -4.5,4.5 l 0,58.50002 c 2.4e-4,2.3561 2.14387,4.4998 4.5,4.5 l 54,0 c 2.35613,-2e-4 4.49976,-2.1439 4.5,-4.5 l 0,-58.50002 c -2.4e-4,-2.3561 -2.14387,-4.4998 -4.5,-4.5 l -13.5,0 c 0,-2.493 -2.007,-4.5 -4.5,-4.5 z m -4.5,27 27,0 0,13.5 9,0 -22.5,22.50002 -22.5,-22.50002 9,0 z"
       id="rect7216"
       inkscape:connector-curvature="0"
       sodipodi:nodetypes="sccccccccccsscccccccc" />
    <g
       id="g10079"
       transform="matrix(0.36281565,0,0,0.36281565,136.7798,646.49454)">
      <path
         sodipodi:nodetypes="sccccccccccsscccccccc"
         inkscape:connector-curvature="0"
         id="path10075"
         d="m 55,950.36218 c -2.493,0 -4.5,2.007 -4.5,4.5 l -13.5,0 c -2.35613,2e-4 -4.49976,2.1439 -4.5,4.5 l 0,58.50002 c 2.4e-4,2.3561 2.14387,4.4998 4.5,4.5 l 54,0 c 2.35613,-2e-4 4.49976,-2.1439 4.5,-4.5 l 0,-58.50002 c -2.4e-4,-2.3561 -2.14387,-4.4998 -4.5,-4.5 l -13.5,0 c 0,-2.493 -2.007,-4.5 -4.5,-4.5 z m -4.5,27 27,0 0,13.5 9,0 -22.5,22.50002 -22.5,-22.50002 9,0 z"
         style="font-size:medium;font-style:normal;font-variant:normal;font-weight:normal;font-stretch:normal;text-indent:0;text-align:start;text-decoration:none;line-height:normal;letter-spacing:normal;word-spacing:normal;text-transform:none;direction:ltr;block-progression:tb;writing-mode:lr-tb;text-anchor:start;baseline-shift:baseline;color:#000000;fill:#000000;fill-opacity:1;fill-rule:nonzero;stroke:none;stroke-width:16;marker:none;visibility:visible;display:inline;overflow:visible;filter:url(#filter10071);enable-background:accumulate;font-family:Sans;-inkscape-font-specification:Sans" />
      <path
         style="font-size:medium;font-style:normal;font-variant:normal;font-weight:normal;font-stretch:normal;text-indent:0;text-align:start;text-decoration:none;line-height:normal;letter-spacing:normal;word-spacing:normal;text-transform:none;direction:ltr;block-progression:tb;writing-mode:lr-tb;text-anchor:start;baseline-shift:baseline;color:#000000;fill:url(#radialGradient10083);fill-opacity:1;fill-rule:nonzero;stroke:#ffffff;stroke-width:2;stroke-miterlimit:4;stroke-opacity:0.31372549;stroke-dasharray:none;marker:none;visibility:visible;display:inline;overflow:visible;enable-background:accumulate;font-family:Sans;-inkscape-font-specification:Sans"
         d="m 55,950.36218 c -2.493,0 -4.5,2.007 -4.5,4.5 l -13.5,0 c -2.35613,2e-4 -4.49976,2.1439 -4.5,4.5 l 0,58.50002 c 2.4e-4,2.3561 2.14387,4.4998 4.5,4.5 l 54,0 c 2.35613,-2e-4 4.49976,-2.1439 4.5,-4.5 l 0,-58.50002 c -2.4e-4,-2.3561 -2.14387,-4.4998 -4.5,-4.5 l -13.5,0 c 0,-2.493 -2.007,-4.5 -4.5,-4.5 z m -4.5,27 27,0 0,13.5 9,0 -22.5,22.50002 -22.5,-22.50002 9,0 z"
         id="path10077"
         inkscape:connector-curvature="0"
         sodipodi:nodetypes="sccccccccccsscccccccc" />
    </g>
    <path
       sodipodi:nodetypes="sccccccccccsscccccccc"
       inkscape:connector-curvature="0"
       id="path10254"
       d="m 150,1036.3622 c -0.554,0 -1,0.446 -1,1 l -3,0 c -0.52359,0 -0.99995,0.4764 -1,1 l 0,13 c 5e-5,0.5236 0.47641,0.9999 1,1 l 12,0 c 0.52358,-10e-5 0.99995,-0.4764 1,-1 l 0,-13 c -5e-5,-0.5236 -0.47642,-1 -1,-1 l -3,0 c 0,-0.554 -0.446,-1 -1,-1 z m -1,6 6,0 0,3 2,0 -5,5 -5,-5 2,0 z"
       style="font-size:medium;font-style:normal;font-variant:normal;font-weight:normal;font-stretch:normal;text-indent:0;text-align:start;text-decoration:none;line-height:normal;letter-spacing:normal;word-spacing:normal;text-transform:none;direction:ltr;block-progression:tb;writing-mode:lr-tb;text-anchor:start;baseline-shift:baseline;color:#000000;fill:url(#radialGradient10098);fill-opacity:1;fill-rule:nonzero;stroke:none;stroke-width:16;marker:none;visibility:visible;display:inline;overflow:visible;enable-background:accumulate;font-family:Sans;-inkscape-font-specification:Sans" />
  </g>
</svg>
