<?xml version="1.0" encoding="UTF-8" standalone="no"?>
<!-- Created with Inkscape (http://www.inkscape.org/) -->

<svg
   xmlns:dc="http://purl.org/dc/elements/1.1/"
   xmlns:cc="http://creativecommons.org/ns#"
   xmlns:rdf="http://www.w3.org/1999/02/22-rdf-syntax-ns#"
   xmlns:svg="http://www.w3.org/2000/svg"
   xmlns="http://www.w3.org/2000/svg"
   xmlns:xlink="http://www.w3.org/1999/xlink"
   xmlns:sodipodi="http://sodipodi.sourceforge.net/DTD/sodipodi-0.dtd"
   xmlns:inkscape="http://www.inkscape.org/namespaces/inkscape"
   sodipodi:docname="edit-select-all.svg"
   inkscape:version="0.48.4 r9939"
   version="1.1"
   id="svg2"
   height="128"
   width="128">
  <sodipodi:namedview
     id="base"
     pagecolor="#ffffff"
     bordercolor="#666666"
     borderopacity="1.0"
     inkscape:pageopacity="0.0"
     inkscape:pageshadow="2"
     inkscape:zoom="3.6203868"
     inkscape:cx="86.940695"
     inkscape:cy="46.303325"
     inkscape:document-units="px"
     inkscape:current-layer="layer1"
     showgrid="true"
     showguides="true"
     inkscape:guide-bbox="true"
     inkscape:window-width="1221"
     inkscape:window-height="1000"
     inkscape:window-x="59"
     inkscape:window-y="24"
     inkscape:window-maximized="1">
    <inkscape:grid
       snapvisiblegridlinesonly="true"
       enabled="true"
       visible="true"
       empspacing="4"
       id="grid2985"
       type="xygrid" />
  </sodipodi:namedview>
  <defs
     id="defs4">
    <linearGradient
       id="linearGradient10061">
      <stop
         style="stop-color:#b3b3b3;stop-opacity:1;"
         offset="0"
         id="stop10063" />
      <stop
         style="stop-color:#b3b3b3;stop-opacity:0;"
         offset="1"
         id="stop10065" />
    </linearGradient>
    <linearGradient
       id="linearGradient7110">
      <stop
         style="stop-color:#5a5a5a;stop-opacity:1;"
         offset="0"
         id="stop7112" />
      <stop
         style="stop-color:#202020;stop-opacity:1;"
         offset="1"
         id="stop7114" />
    </linearGradient>
    <linearGradient
       id="linearGradient4216-4-8-2">
      <stop
         id="stop4218-8-0-7"
         offset="0"
         style="stop-color:#494949;stop-opacity:1;" />
      <stop
         id="stop4220-1-6-4"
         offset="1"
         style="stop-color:#0f0f0f;stop-opacity:1;" />
    </linearGradient>
    <radialGradient
       inkscape:collect="always"
       xlink:href="#linearGradient4216-4-8-2"
       id="radialGradient5899"
       gradientUnits="userSpaceOnUse"
       gradientTransform="translate(0,2)"
       cx="64"
       cy="1020.3622"
       fx="64"
       fy="1020.3622"
       r="52" />
    <radialGradient
       inkscape:collect="always"
       xlink:href="#linearGradient7110"
       id="radialGradient7116"
       cx="80"
       cy="972.36218"
       fx="80"
       fy="972.36218"
       r="52.5"
       gradientUnits="userSpaceOnUse" />
    <linearGradient
       id="linearGradient6964-4">
      <stop
         style="stop-color:#ffffff;stop-opacity:1;"
         offset="0"
         id="stop6966-4" />
      <stop
         style="stop-color:#cacaca;stop-opacity:1;"
         offset="1"
         id="stop6970-3" />
    </linearGradient>
    <radialGradient
       inkscape:collect="always"
       xlink:href="#linearGradient8794-33"
       id="radialGradient6967"
       gradientUnits="userSpaceOnUse"
       gradientTransform="matrix(0.78722727,0,0,1.1316392,13.617455,-8.16161)"
       cx="84"
       cy="46.695652"
       fx="84"
       fy="46.695652"
       r="32" />
    <linearGradient
       id="linearGradient8794-33">
      <stop
         style="stop-color:#ffffff;stop-opacity:1;"
         offset="0"
         id="stop8796-9" />
      <stop
         style="stop-color:#cacaca;stop-opacity:1;"
         offset="1"
         id="stop8798-6" />
    </linearGradient>
    <radialGradient
       r="32"
       fy="46.695652"
       fx="84"
       cy="46.695652"
       cx="84"
       gradientTransform="matrix(0.78722727,0,0,1.1316392,13.617455,-8.16161)"
       gradientUnits="userSpaceOnUse"
       id="radialGradient5944"
       xlink:href="#linearGradient8794-33"
       inkscape:collect="always" />
    <filter
       inkscape:collect="always"
       id="filter10255"
       x="-0.14627792"
       width="1.2925558"
       y="-0.10172563"
       height="1.2034513">
      <feGaussianBlur
         inkscape:collect="always"
         stdDeviation="3.0703125"
         id="feGaussianBlur10257" />
    </filter>
    <radialGradient
       inkscape:collect="always"
       xlink:href="#linearGradient8794-33"
       id="radialGradient10267"
       gradientUnits="userSpaceOnUse"
       gradientTransform="matrix(0.78722727,0,0,1.1316392,13.617455,-8.16161)"
       cx="84"
       cy="46.695652"
       fx="84"
       fy="46.695652"
       r="32" />
    <radialGradient
       inkscape:collect="always"
       xlink:href="#linearGradient8794-33-9"
       id="radialGradient6997"
       cx="153"
       cy="118"
       fx="153"
       fy="118"
       r="4"
       gradientTransform="matrix(1,0,0,1.5,0,-60)"
       gradientUnits="userSpaceOnUse" />
    <linearGradient
       id="linearGradient8794-33-9">
      <stop
         style="stop-color:#ffffff;stop-opacity:1;"
         offset="0"
         id="stop8796-9-5" />
      <stop
         style="stop-color:#cacaca;stop-opacity:1;"
         offset="1"
         id="stop8798-6-9" />
    </linearGradient>
    <radialGradient
       inkscape:collect="always"
       xlink:href="#linearGradient6964-4"
       id="radialGradient10297"
       cx="154"
       cy="118.5"
       fx="154"
       fy="118.5"
       r="6"
       gradientTransform="matrix(1.6666671,-2.1327557e-6,2.1327544e-6,1.6666661,-102.66697,-79.499605)"
       gradientUnits="userSpaceOnUse" />
    <radialGradient
       inkscape:collect="always"
       xlink:href="#linearGradient6964-4"
       id="radialGradient10372"
       cx="76"
       cy="56"
       fx="76"
       fy="56"
       r="36"
       gradientUnits="userSpaceOnUse"
       gradientTransform="matrix(1.2222222,1.0015431e-7,-1.0925925e-7,1.3333333,-16.888883,-18.666674)" />
    <filter
       inkscape:collect="always"
       id="filter10376"
       x="-0.12"
       width="1.24"
       y="-0.12"
       height="1.24">
      <feGaussianBlur
         inkscape:collect="always"
         stdDeviation="3.6"
         id="feGaussianBlur10378" />
    </filter>
    <radialGradient
       inkscape:collect="always"
       xlink:href="#linearGradient6964-4"
       id="radialGradient10388"
       gradientUnits="userSpaceOnUse"
       gradientTransform="matrix(1.2222222,1.0015431e-7,-1.0925925e-7,1.3333333,-16.888883,-18.666674)"
       cx="76"
       cy="56"
       fx="76"
       fy="56"
       r="36" />
    <radialGradient
       inkscape:collect="always"
       xlink:href="#linearGradient6964-4"
       id="radialGradient10403"
       cx="154"
       cy="118"
       fx="154"
       fy="118"
       r="8"
       gradientUnits="userSpaceOnUse"
       gradientTransform="matrix(1.25,0,0,1.25,-38.5,-29.5)" />
  </defs>
  <metadata
     id="metadata7">
    <rdf:RDF>
      <cc:Work
         rdf:about="">
        <dc:format>image/svg+xml</dc:format>
        <dc:type
           rdf:resource="http://purl.org/dc/dcmitype/StillImage" />
        <dc:title></dc:title>
      </cc:Work>
    </rdf:RDF>
  </metadata>
  <g
     transform="translate(0,-924.36218)"
     id="layer1"
     inkscape:groupmode="layer"
     inkscape:label="Layer 1">
    <rect
       ry="8"
       rx="8"
       y="940.36218"
       x="12"
       height="104"
       width="104"
       id="rect6981"
       style="opacity:0.10000000000000001;fill:#000000;fill-opacity:1;stroke:#000000;stroke-width:10;stroke-miterlimit:4;stroke-dasharray:none" />
    <rect
       style="opacity:0.1;fill:#000000;fill-opacity:1;stroke:#000000;stroke-width:6;stroke-miterlimit:4;stroke-dasharray:none"
       id="rect6979"
       width="104"
       height="104"
       x="12"
       y="940.36218"
       rx="8"
       ry="8" />
    <rect
       ry="8"
       rx="8"
       y="938.36218"
       x="12"
       height="104"
       width="104"
       id="rect5969"
       style="fill:#000000;fill-opacity:1;stroke:#000000;opacity:0.20000000000000001;stroke-width:3;stroke-miterlimit:4;stroke-dasharray:none" />
    <rect
       style="fill:url(#radialGradient5899);fill-opacity:1;stroke:#1a1a1a"
       id="rect6936"
       width="104"
       height="104"
       x="12"
       y="938.36218"
       rx="8"
       ry="8" />
    <rect
       ry="8"
       rx="8"
       y="934.36218"
       x="12"
       height="104"
       width="104"
       id="rect6964"
       style="fill:url(#radialGradient7116);fill-opacity:1;stroke:#1a1a1a" />
    <text
       xml:space="preserve"
       style="font-size:24px;font-style:normal;font-weight:normal;line-height:125%;letter-spacing:0px;word-spacing:0px;fill:#000000;fill-opacity:1;stroke:none;font-family:Sans"
       x="-56"
       y="948.36218"
       id="text5893"
       sodipodi:linespacing="125%"><tspan
         sodipodi:role="line"
         id="tspan5895"
         x="-56"
         y="948.36218">128</tspan></text>
    <text
       sodipodi:linespacing="125%"
       id="text5901"
       y="1000.3622"
       x="184"
       style="font-size:16px;font-style:normal;font-weight:normal;line-height:125%;letter-spacing:0px;word-spacing:0px;fill:#000000;fill-opacity:1;stroke:none;font-family:Sans"
       xml:space="preserve"><tspan
         y="1000.3622"
         x="184"
         id="tspan5903"
         sodipodi:role="line">31 - 17</tspan></text>
    <text
       xml:space="preserve"
       style="font-size:16px;font-style:normal;font-weight:normal;line-height:125%;letter-spacing:0px;word-spacing:0px;fill:#000000;fill-opacity:1;stroke:none;font-family:Sans"
       x="172"
       y="1048.3622"
       id="text5905"
       sodipodi:linespacing="125%"><tspan
         sodipodi:role="line"
         id="tspan5907"
         x="172"
         y="1048.3622">16</tspan></text>
    <rect
       style="fill:none;stroke:#000000;stroke-width:1;stroke-linecap:round;stroke-linejoin:round;stroke-miterlimit:4;stroke-opacity:1;stroke-dasharray:none;stroke-dashoffset:0"
       id="rect5919"
       width="40"
       height="40"
       x="140"
       y="60"
       transform="translate(0,924.36218)"
       rx="4.5902016e-07" />
    <rect
       style="fill:none;stroke:#000000;stroke-width:1;stroke-linecap:round;stroke-linejoin:round;stroke-miterlimit:4;stroke-opacity:1;stroke-dasharray:none;stroke-dashoffset:0"
       id="rect5921"
       width="24"
       height="24"
       x="140"
       y="1032.3622"
       rx="4.5902016e-07" />
    <rect
       style="fill:#b3b3b3;fill-opacity:1;stroke:none"
       id="rect6935"
       width="32"
       height="4"
       x="144"
       y="56"
       transform="translate(0,924.36218)"
       rx="4.5902016e-07" />
    <rect
       style="fill:#b3b3b3;fill-opacity:1;stroke:none"
       id="rect6937"
       width="4"
       height="32"
       x="136"
       y="64"
       transform="translate(0,924.36218)"
       rx="4.5902016e-07" />
    <rect
       style="fill:#b3b3b3;fill-opacity:1;stroke:none"
       id="rect6939"
       width="16"
       height="4"
       x="144"
       y="104"
       rx="4.5902016e-07"
       transform="translate(0,924.36218)" />
    <rect
       style="fill:#b3b3b3;fill-opacity:1;stroke:none"
       id="rect6941"
       width="4"
       height="16"
       x="136"
       y="112"
       transform="translate(0,924.36218)"
       rx="4.5902016e-07" />
    <rect
       style="fill:url(#radialGradient7116);fill-opacity:1;stroke:#1a1a1a"
       id="rect12711"
       width="104"
       height="104"
       x="12"
       y="934.36218"
       rx="8"
       ry="8" />
    <path
       style="fill:url(#radialGradient10403);stroke:none;stroke-width:1px;stroke-linecap:butt;stroke-linejoin:miter;stroke-opacity:1;fill-opacity:1"
       d="M 152 112 L 148 114 L 150 114 L 150 119 L 154 119 L 154 114 L 156 114 L 152 112 z M 146 113 L 144 116 L 146 120 L 148 116 L 146 113 z M 148 116 L 149 116 L 149 115 L 148 115 L 148 116 z M 146 120 L 145 123 L 146 123 L 146 128 L 158 128 L 158 123 L 159 123 L 158 120 L 146 120 z M 158 120 L 160 116 L 158 113 L 156 116 L 158 120 z M 156 116 L 156 115 L 155 115 L 155 116 L 156 116 z "
       transform="translate(0,924.36218)"
       id="path10320" />
    <path
       id="path10374"
       transform="translate(0,924.36218)"
       d="M 64 26 L 46 35 L 55 35 L 55 57.5 L 73 57.5 L 73 35 L 82 35 L 64 26 z M 37 30.5 L 28 44 L 37 62 L 46 44 L 37 30.5 z M 46 44 L 54 44 L 54 39.5 L 46 39.5 L 46 44 z M 37 62 L 32.5 75.5 L 95.5 75.5 L 91 62 L 37 62 z M 91 62 L 100 44 L 91 30.5 L 82 44 L 91 62 z M 82 44 L 82 39.5 L 74 39.5 L 74 44 L 82 44 z M 37 78 L 37 98 L 91 98 L 91 78 L 37 78 z "
       style="fill:#000000;stroke:none;fill-opacity:1;stroke-opacity:0.32026145000000000;stroke-width:2;stroke-miterlimit:4;stroke-dasharray:none;stroke-linejoin:round;filter:url(#filter10376)" />
    <path
       style="fill:url(#radialGradient10372);stroke:#ffffff;fill-opacity:1;stroke-opacity:0.32026145000000000;stroke-width:2;stroke-miterlimit:4;stroke-dasharray:none;stroke-linejoin:round"
       d="M 64 26 L 46 35 L 55 35 L 55 57.5 L 73 57.5 L 73 35 L 82 35 L 64 26 z M 37 30.5 L 28 44 L 37 62 L 46 44 L 37 30.5 z M 46 44 L 54 44 L 54 39.5 L 46 39.5 L 46 44 z M 37 62 L 32.5 75.5 L 95.5 75.5 L 91 62 L 37 62 z M 91 62 L 100 44 L 91 30.5 L 82 44 L 91 62 z M 82 44 L 82 39.5 L 74 39.5 L 74 44 L 82 44 z M 37 78 L 37 98 L 91 98 L 91 78 L 37 78 z "
       transform="translate(0,924.36218)"
       id="path10336" />
    <g
       id="g10384"
       transform="matrix(0.35842294,0,0,0.35842294,137.06093,650.82735)">
      <path
         id="path10380"
         transform="translate(0,924.36218)"
         d="m 64,26 -18,9 9,0 0,22.5 18,0 0,-22.5 9,0 -18,-9 z M 37,30.5 28,44 37,62 46,44 37,30.5 z m 9,13.5 8,0 0,-4.5 -8,0 0,4.5 z m -9,18 -4.5,13.5 63,0 L 91,62 37,62 z m 54,0 9,-18 -9,-13.5 -9,13.5 9,18 z m -9,-18 0,-4.5 -8,0 0,4.5 8,0 z m -45,34 0,20 54,0 0,-20 -54,0 z"
         style="fill:#000000;fill-opacity:1;stroke:none;filter:url(#filter10376)"
         inkscape:connector-curvature="0" />
      <path
         style="fill:url(#radialGradient10388);fill-opacity:1;stroke:#ffffff;stroke-width:2;stroke-linejoin:round;stroke-miterlimit:4;stroke-opacity:0.32026146;stroke-dasharray:none"
         d="m 64,26 -18,9 9,0 0,22.5 18,0 0,-22.5 9,0 -18,-9 z M 37,30.5 28,44 37,62 46,44 37,30.5 z m 9,13.5 8,0 0,-4.5 -8,0 0,4.5 z m -9,18 -4.5,13.5 63,0 L 91,62 37,62 z m 54,0 9,-18 -9,-13.5 -9,13.5 9,18 z m -9,-18 0,-4.5 -8,0 0,4.5 8,0 z m -45,34 0,20 54,0 0,-20 -54,0 z"
         transform="translate(0,924.36218)"
         id="path10382"
         inkscape:connector-curvature="0" />
    </g>
  </g>
</svg>
