<?xml version="1.0" encoding="UTF-8" standalone="no"?>
<!-- Created with Inkscape (http://www.inkscape.org/) -->

<svg
   xmlns:dc="http://purl.org/dc/elements/1.1/"
   xmlns:cc="http://creativecommons.org/ns#"
   xmlns:rdf="http://www.w3.org/1999/02/22-rdf-syntax-ns#"
   xmlns:svg="http://www.w3.org/2000/svg"
   xmlns="http://www.w3.org/2000/svg"
   xmlns:xlink="http://www.w3.org/1999/xlink"
   xmlns:sodipodi="http://sodipodi.sourceforge.net/DTD/sodipodi-0.dtd"
   xmlns:inkscape="http://www.inkscape.org/namespaces/inkscape"
   sodipodi:docname="format-text-strikethrough.svg"
   inkscape:version="0.48.4 r9939"
   version="1.1"
   id="svg2"
   height="128"
   width="128">
  <sodipodi:namedview
     id="base"
     pagecolor="#ffffff"
     bordercolor="#666666"
     borderopacity="1.0"
     inkscape:pageopacity="0.0"
     inkscape:pageshadow="2"
     inkscape:zoom="3.6203868"
     inkscape:cx="161.53576"
     inkscape:cy="43.595093"
     inkscape:document-units="px"
     inkscape:current-layer="layer1"
     showgrid="true"
     showguides="true"
     inkscape:guide-bbox="true"
     inkscape:window-width="1221"
     inkscape:window-height="1000"
     inkscape:window-x="59"
     inkscape:window-y="24"
     inkscape:window-maximized="1">
    <inkscape:grid
       snapvisiblegridlinesonly="true"
       enabled="true"
       visible="true"
       empspacing="4"
       id="grid2985"
       type="xygrid" />
  </sodipodi:namedview>
  <defs
     id="defs4">
    <linearGradient
       id="linearGradient7110">
      <stop
         style="stop-color:#5a5a5a;stop-opacity:1;"
         offset="0"
         id="stop7112" />
      <stop
         style="stop-color:#202020;stop-opacity:1;"
         offset="1"
         id="stop7114" />
    </linearGradient>
    <linearGradient
       id="linearGradient4216-4-8-2">
      <stop
         id="stop4218-8-0-7"
         offset="0"
         style="stop-color:#494949;stop-opacity:1;" />
      <stop
         id="stop4220-1-6-4"
         offset="1"
         style="stop-color:#0f0f0f;stop-opacity:1;" />
    </linearGradient>
    <radialGradient
       inkscape:collect="always"
       xlink:href="#linearGradient4216-4-8-2"
       id="radialGradient5899"
       gradientUnits="userSpaceOnUse"
       gradientTransform="translate(0,2)"
       cx="64"
       cy="1020.3622"
       fx="64"
       fy="1020.3622"
       r="52" />
    <radialGradient
       inkscape:collect="always"
       xlink:href="#linearGradient7110"
       id="radialGradient7116"
       cx="80"
       cy="972.36218"
       fx="80"
       fy="972.36218"
       r="52.5"
       gradientUnits="userSpaceOnUse" />
    <linearGradient
       id="linearGradient4216-4-8-2-7">
      <stop
         style="stop-color:#ffffff;stop-opacity:1;"
         offset="0"
         id="stop4218-8-0-7-6" />
      <stop
         style="stop-color:#c6c6c6;stop-opacity:1;"
         offset="1"
         id="stop4220-1-6-4-0" />
    </linearGradient>
    <linearGradient
       id="linearGradient6964-4">
      <stop
         style="stop-color:#ffffff;stop-opacity:1;"
         offset="0"
         id="stop6966-4" />
      <stop
         id="stop6968-0"
         offset="0.5"
         style="stop-color:#e4e4e4;stop-opacity:1;" />
      <stop
         style="stop-color:#cacaca;stop-opacity:1;"
         offset="1"
         id="stop6970-3" />
    </linearGradient>
    <radialGradient
       inkscape:collect="always"
       xlink:href="#linearGradient6964-4"
       id="radialGradient9536"
       cx="154"
       cy="118"
       fx="154"
       fy="118"
       r="7"
       gradientUnits="userSpaceOnUse"
       gradientTransform="matrix(1.4285714,1.0571433e-6,-1.0571433e-6,1.4285714,-65.999879,-50.571591)" />
    <radialGradient
       inkscape:collect="always"
       xlink:href="#linearGradient6964-4"
       id="radialGradient9540"
       gradientUnits="userSpaceOnUse"
       gradientTransform="matrix(7.3469386,5.436737e-6,-5.436737e-6,7.3469386,-1057.1422,109.13683)"
       cx="154"
       cy="118"
       fx="154"
       fy="118"
       r="7" />
    <filter
       inkscape:collect="always"
       id="filter9544"
       x="-0.12000002"
       width="1.24"
       y="-0.11999998"
       height="1.24">
      <feGaussianBlur
         inkscape:collect="always"
         stdDeviation="3.6000005"
         id="feGaussianBlur9546" />
    </filter>
    <radialGradient
       inkscape:collect="always"
       xlink:href="#linearGradient6964-4"
       id="radialGradient9585"
       gradientUnits="userSpaceOnUse"
       gradientTransform="matrix(7.3469386,5.436737e-6,-5.436737e-6,7.3469386,-1057.1422,109.13683)"
       cx="154"
       cy="118"
       fx="154"
       fy="118"
       r="7" />
    <radialGradient
       inkscape:collect="always"
       xlink:href="#linearGradient4216-4-8-2-7"
       id="radialGradient9631"
       cx="154"
       cy="118.42857"
       fx="154"
       fy="118.42857"
       r="6"
       gradientTransform="matrix(1.3333333,-1.0096103e-7,1.0096113e-7,1.3333344,-51.333347,-39.904863)"
       gradientUnits="userSpaceOnUse" />
    <radialGradient
       inkscape:collect="always"
       xlink:href="#linearGradient4216-4-8-2-7"
       id="radialGradient9635"
       gradientUnits="userSpaceOnUse"
       gradientTransform="matrix(6.8571109,-5.1922575e-7,5.1922626e-7,6.8571166,-981.70951,158.85532)"
       cx="154"
       cy="118.42857"
       fx="154"
       fy="118.42857"
       r="6" />
    <filter
       inkscape:collect="always"
       id="filter9639"
       x="-0.13"
       width="1.26"
       y="-0.11142857"
       height="1.2228571">
      <feGaussianBlur
         inkscape:collect="always"
         stdDeviation="3.3428417"
         id="feGaussianBlur9641" />
    </filter>
    <radialGradient
       inkscape:collect="always"
       xlink:href="#linearGradient4216-4-8-2-7"
       id="radialGradient9653"
       gradientUnits="userSpaceOnUse"
       gradientTransform="matrix(6.8571109,-5.1922575e-7,5.1922626e-7,6.8571166,-981.70951,158.85532)"
       cx="154"
       cy="118.42857"
       fx="154"
       fy="118.42857"
       r="6" />
  </defs>
  <metadata
     id="metadata7">
    <rdf:RDF>
      <cc:Work
         rdf:about="">
        <dc:format>image/svg+xml</dc:format>
        <dc:type
           rdf:resource="http://purl.org/dc/dcmitype/StillImage" />
        <dc:title></dc:title>
      </cc:Work>
    </rdf:RDF>
  </metadata>
  <g
     transform="translate(0,-924.36218)"
     id="layer1"
     inkscape:groupmode="layer"
     inkscape:label="Layer 1">
    <rect
       ry="8"
       rx="8"
       y="940.36218"
       x="12"
       height="104"
       width="104"
       id="rect6981"
       style="opacity:0.10000000000000001;fill:#000000;fill-opacity:1;stroke:#000000;stroke-width:10;stroke-miterlimit:4;stroke-dasharray:none" />
    <rect
       style="opacity:0.1;fill:#000000;fill-opacity:1;stroke:#000000;stroke-width:6;stroke-miterlimit:4;stroke-dasharray:none"
       id="rect6979"
       width="104"
       height="104"
       x="12"
       y="940.36218"
       rx="8"
       ry="8" />
    <rect
       ry="8"
       rx="8"
       y="938.36218"
       x="12"
       height="104"
       width="104"
       id="rect5969"
       style="fill:#000000;fill-opacity:1;stroke:#000000;opacity:0.20000000000000001;stroke-width:3;stroke-miterlimit:4;stroke-dasharray:none" />
    <rect
       style="fill:url(#radialGradient5899);fill-opacity:1;stroke:#1a1a1a"
       id="rect6936"
       width="104"
       height="104"
       x="12"
       y="938.36218"
       rx="8"
       ry="8" />
    <rect
       ry="8"
       rx="8"
       y="934.36218"
       x="12"
       height="104"
       width="104"
       id="rect6964"
       style="fill:url(#radialGradient7116);fill-opacity:1;stroke:#1a1a1a" />
    <text
       xml:space="preserve"
       style="font-size:24px;font-style:normal;font-weight:normal;line-height:125%;letter-spacing:0px;word-spacing:0px;fill:#000000;fill-opacity:1;stroke:none;font-family:Sans"
       x="-56"
       y="948.36218"
       id="text5893"
       sodipodi:linespacing="125%"><tspan
         sodipodi:role="line"
         id="tspan5895"
         x="-56"
         y="948.36218">128</tspan></text>
    <text
       sodipodi:linespacing="125%"
       id="text5901"
       y="1000.3622"
       x="184"
       style="font-size:16px;font-style:normal;font-weight:normal;line-height:125%;letter-spacing:0px;word-spacing:0px;fill:#000000;fill-opacity:1;stroke:none;font-family:Sans"
       xml:space="preserve"><tspan
         y="1000.3622"
         x="184"
         id="tspan5903"
         sodipodi:role="line">31 - 17</tspan></text>
    <text
       xml:space="preserve"
       style="font-size:16px;font-style:normal;font-weight:normal;line-height:125%;letter-spacing:0px;word-spacing:0px;fill:#000000;fill-opacity:1;stroke:none;font-family:Sans"
       x="172"
       y="1048.3622"
       id="text5905"
       sodipodi:linespacing="125%"><tspan
         sodipodi:role="line"
         id="tspan5907"
         x="172"
         y="1048.3622">16</tspan></text>
    <rect
       style="fill:none;stroke:#000000;stroke-width:1;stroke-linecap:round;stroke-linejoin:round;stroke-miterlimit:4;stroke-opacity:1;stroke-dasharray:none;stroke-dashoffset:0"
       id="rect5919"
       width="40"
       height="40"
       x="140"
       y="60"
       transform="translate(0,924.36218)"
       rx="4.5902016e-07" />
    <rect
       style="fill:none;stroke:#000000;stroke-width:1;stroke-linecap:round;stroke-linejoin:round;stroke-miterlimit:4;stroke-opacity:1;stroke-dasharray:none;stroke-dashoffset:0"
       id="rect5921"
       width="24"
       height="24"
       x="140"
       y="1032.3622"
       rx="4.5902016e-07" />
    <rect
       style="fill:#b3b3b3;fill-opacity:1;stroke:none"
       id="rect6935"
       width="32"
       height="4"
       x="144"
       y="56"
       transform="translate(0,924.36218)"
       rx="4.5902016e-07" />
    <rect
       style="fill:#b3b3b3;fill-opacity:1;stroke:none"
       id="rect6937"
       width="4"
       height="32"
       x="136"
       y="64"
       transform="translate(0,924.36218)"
       rx="4.5902016e-07" />
    <rect
       style="fill:#b3b3b3;fill-opacity:1;stroke:none"
       id="rect6939"
       width="16"
       height="4"
       x="144"
       y="104"
       rx="4.5902016e-07"
       transform="translate(0,924.36218)" />
    <rect
       style="fill:#b3b3b3;fill-opacity:1;stroke:none"
       id="rect6941"
       width="4"
       height="16"
       x="136"
       y="112"
       transform="translate(0,924.36218)"
       rx="4.5902016e-07" />
    <rect
       style="fill:url(#radialGradient7116);fill-opacity:1;stroke:#1a1a1a"
       id="rect12711"
       width="104"
       height="104"
       x="12"
       y="934.36218"
       rx="8"
       ry="8" />
    <path
       style="font-size:16.14748572999999965px;font-style:normal;font-weight:normal;line-height:125%;letter-spacing:0px;word-spacing:0px;fill:url(#radialGradient9631);fill-opacity:1;stroke:none;font-family:Sans"
       d="M 147.5 114 L 147.5 121.34375 C 147.5 122.87865 147.86809 124.0293 148.625 124.8125 C 149.38717 125.5957 150.51245 126 152 126 C 153.48228 126 154.61808 125.5957 155.375 124.8125 C 156.13716 124.0293 156.49999 122.87865 156.5 121.34375 L 156.5 114 L 154.90625 114 L 154.90625 121.15625 C 154.90624 122.41775 154.67605 123.3178 154.21875 123.875 C 153.76145 124.4269 153.01972 124.71875 152 124.71875 C 150.975 124.71875 150.23855 124.4269 149.78125 123.875 C 149.32395 123.3178 149.09375 122.41775 149.09375 121.15625 L 149.09375 114 L 147.5 114 z M 146 127 L 146 128 L 158 128 L 158 127 L 146 127 z "
       transform="translate(0,924.36218)"
       id="path10426" />
    <g
       id="g9643">
      <path
         id="path9637"
         d="m 40.85725,950.36233 0,37.7677 c 0,7.8938 1.89303,13.81137 5.78569,17.83917 3.91971,4.0279 9.70684,6.1071 17.35706,6.1071 7.62312,0 13.46435,-2.0792 17.35706,-6.1071 3.91966,-4.0278 5.78564,-9.94537 5.78569,-17.83917 l 0,-37.7677 -8.19639,0 0,36.8034 c -5e-5,6.4877 -1.18388,11.1165 -3.5357,13.98207 -2.35182,2.8384 -6.16641,4.3393 -11.41066,4.3393 -5.2714,0 -9.05884,-1.5009 -11.41066,-4.3393 -2.35182,-2.86557 -3.5357,-7.49437 -3.5357,-13.98207 l 0,-36.8034 -8.19639,0 z m -7.71425,66.85687 0,5.1428 61.714,0 0,-5.1428 -61.714,0 z"
         style="font-size:16.14748572999999965px;font-style:normal;font-weight:normal;line-height:125%;letter-spacing:0px;word-spacing:0px;fill:#000000;fill-opacity:1;stroke:none;font-family:Sans;filter:url(#filter9639)"
         inkscape:connector-curvature="0" />
      <path
         inkscape:connector-curvature="0"
         style="font-size:16.14748572999999965px;font-style:normal;font-weight:normal;line-height:125%;letter-spacing:0px;word-spacing:0px;fill:url(#radialGradient9635);fill-opacity:1;stroke:#ffffff;font-family:Sans;stroke-opacity:0.31372549999999999;stroke-width:2;stroke-miterlimit:4;stroke-dasharray:none;stroke-linejoin:round"
         d="m 40.85725,950.36233 0,37.7677 c 0,7.8938 1.89303,13.81137 5.78569,17.83917 3.91971,4.0279 9.70684,6.1071 17.35706,6.1071 7.62312,0 13.46435,-2.0792 17.35706,-6.1071 3.91966,-4.0278 5.78564,-9.94537 5.78569,-17.83917 l 0,-37.7677 -8.19639,0 0,36.8034 c -5e-5,6.4877 -1.18388,11.1165 -3.5357,13.98207 -2.35182,2.8384 -6.16641,4.3393 -11.41066,4.3393 -5.2714,0 -9.05884,-1.5009 -11.41066,-4.3393 -2.35182,-2.86557 -3.5357,-7.49437 -3.5357,-13.98207 l 0,-36.8034 -8.19639,0 z m -7.71425,66.85687 0,5.1428 61.714,0 0,-5.1428 -61.714,0 z"
         id="path9633" />
    </g>
    <g
       id="g9647"
       transform="matrix(0.36345333,0,0,0.36345333,136.73899,645.86557)">
      <path
         inkscape:connector-curvature="0"
         style="font-size:16.14748573px;font-style:normal;font-weight:normal;line-height:125%;letter-spacing:0px;word-spacing:0px;fill:#000000;fill-opacity:1;stroke:none;filter:url(#filter9639);font-family:Sans"
         d="m 40.85725,950.36233 0,37.7677 c 0,7.8938 1.89303,13.81137 5.78569,17.83917 3.91971,4.0279 9.70684,6.1071 17.35706,6.1071 7.62312,0 13.46435,-2.0792 17.35706,-6.1071 3.91966,-4.0278 5.78564,-9.94537 5.78569,-17.83917 l 0,-37.7677 -8.19639,0 0,36.8034 c -5e-5,6.4877 -1.18388,11.1165 -3.5357,13.98207 -2.35182,2.8384 -6.16641,4.3393 -11.41066,4.3393 -5.2714,0 -9.05884,-1.5009 -11.41066,-4.3393 -2.35182,-2.86557 -3.5357,-7.49437 -3.5357,-13.98207 l 0,-36.8034 -8.19639,0 z m -7.71425,66.85687 0,5.1428 61.714,0 0,-5.1428 -61.714,0 z"
         id="path9649" />
      <path
         id="path9651"
         d="m 40.85725,950.36233 0,37.7677 c 0,7.8938 1.89303,13.81137 5.78569,17.83917 3.91971,4.0279 9.70684,6.1071 17.35706,6.1071 7.62312,0 13.46435,-2.0792 17.35706,-6.1071 3.91966,-4.0278 5.78564,-9.94537 5.78569,-17.83917 l 0,-37.7677 -8.19639,0 0,36.8034 c -5e-5,6.4877 -1.18388,11.1165 -3.5357,13.98207 -2.35182,2.8384 -6.16641,4.3393 -11.41066,4.3393 -5.2714,0 -9.05884,-1.5009 -11.41066,-4.3393 -2.35182,-2.86557 -3.5357,-7.49437 -3.5357,-13.98207 l 0,-36.8034 -8.19639,0 z m -7.71425,66.85687 0,5.1428 61.714,0 0,-5.1428 -61.714,0 z"
         style="font-size:16.14748573px;font-style:normal;font-weight:normal;line-height:125%;letter-spacing:0px;word-spacing:0px;fill:url(#radialGradient9653);fill-opacity:1;stroke:#ffffff;stroke-width:2;stroke-linejoin:round;stroke-miterlimit:4;stroke-opacity:0.31372549;stroke-dasharray:none;font-family:Sans"
         inkscape:connector-curvature="0" />
    </g>
  </g>
</svg>
