<?xml version="1.0" encoding="UTF-8" standalone="no"?>
<!-- Created with Inkscape (http://www.inkscape.org/) -->

<svg
   xmlns:dc="http://purl.org/dc/elements/1.1/"
   xmlns:cc="http://creativecommons.org/ns#"
   xmlns:rdf="http://www.w3.org/1999/02/22-rdf-syntax-ns#"
   xmlns:svg="http://www.w3.org/2000/svg"
   xmlns="http://www.w3.org/2000/svg"
   xmlns:xlink="http://www.w3.org/1999/xlink"
   xmlns:sodipodi="http://sodipodi.sourceforge.net/DTD/sodipodi-0.dtd"
   xmlns:inkscape="http://www.inkscape.org/namespaces/inkscape"
   sodipodi:docname="go-left.svg"
   inkscape:version="0.48.4 r9939"
   version="1.1"
   id="svg2"
   height="128"
   width="128">
  <sodipodi:namedview
     id="base"
     pagecolor="#ffffff"
     bordercolor="#666666"
     borderopacity="1.0"
     inkscape:pageopacity="0.0"
     inkscape:pageshadow="2"
     inkscape:zoom="3.6203869"
     inkscape:cx="113.0574"
     inkscape:cy="42.476427"
     inkscape:document-units="px"
     inkscape:current-layer="layer1"
     showgrid="true"
     showguides="true"
     inkscape:guide-bbox="true"
     inkscape:window-width="1221"
     inkscape:window-height="1000"
     inkscape:window-x="59"
     inkscape:window-y="24"
     inkscape:window-maximized="1">
    <inkscape:grid
       snapvisiblegridlinesonly="true"
       enabled="true"
       visible="true"
       empspacing="4"
       id="grid2985"
       type="xygrid" />
  </sodipodi:namedview>
  <defs
     id="defs4">
    <linearGradient
       id="linearGradient7110">
      <stop
         style="stop-color:#5a5a5a;stop-opacity:1;"
         offset="0"
         id="stop7112" />
      <stop
         style="stop-color:#202020;stop-opacity:1;"
         offset="1"
         id="stop7114" />
    </linearGradient>
    <linearGradient
       id="linearGradient4216-4-8-2">
      <stop
         id="stop4218-8-0-7"
         offset="0"
         style="stop-color:#494949;stop-opacity:1;" />
      <stop
         id="stop4220-1-6-4"
         offset="1"
         style="stop-color:#0f0f0f;stop-opacity:1;" />
    </linearGradient>
    <radialGradient
       inkscape:collect="always"
       xlink:href="#linearGradient4216-4-8-2"
       id="radialGradient5899"
       gradientUnits="userSpaceOnUse"
       gradientTransform="translate(0,2)"
       cx="64"
       cy="1020.3622"
       fx="64"
       fy="1020.3622"
       r="52" />
    <linearGradient
       id="linearGradient8794-33">
      <stop
         style="stop-color:#ffffff;stop-opacity:1;"
         offset="0"
         id="stop8796-9" />
      <stop
         style="stop-color:#cacaca;stop-opacity:1;"
         offset="1"
         id="stop8798-6" />
    </linearGradient>
    <radialGradient
       inkscape:collect="always"
       xlink:href="#linearGradient7110"
       id="radialGradient7116"
       cx="80"
       cy="972.36218"
       fx="80"
       fy="972.36218"
       r="52.5"
       gradientUnits="userSpaceOnUse" />
    <radialGradient
       inkscape:collect="always"
       xlink:href="#linearGradient8794-33"
       id="radialGradient6707"
       cx="64.000008"
       cy="988.36218"
       fx="64.000008"
       fy="988.36218"
       r="64"
       gradientUnits="userSpaceOnUse" />
    <radialGradient
       inkscape:collect="always"
       xlink:href="#linearGradient8794-33"
       id="radialGradient6861"
       cx="150.00002"
       cy="122.00002"
       fx="150.00002"
       fy="122.00002"
       r="8"
       gradientUnits="userSpaceOnUse"
       gradientTransform="matrix(-1,0,0,-1,304.00002,1164.3622)" />
    <radialGradient
       inkscape:collect="always"
       xlink:href="#linearGradient8794-33"
       id="radialGradient6865"
       gradientUnits="userSpaceOnUse"
       cx="149.55556"
       cy="122.66668"
       fx="149.55556"
       fy="122.66668"
       r="8"
       gradientTransform="matrix(4.5,0,0,4.5,-620,446.36216)" />
    <filter
       inkscape:collect="always"
       id="filter6869"
       x="-0.12000002"
       width="1.24"
       y="-0.11999998"
       height="1.24">
      <feGaussianBlur
         inkscape:collect="always"
         stdDeviation="3.6000005"
         id="feGaussianBlur6871" />
    </filter>
    <radialGradient
       inkscape:collect="always"
       xlink:href="#linearGradient8794-33"
       id="radialGradient6883"
       gradientUnits="userSpaceOnUse"
       gradientTransform="matrix(4.5,0,0,4.5,-620,446.36216)"
       cx="149.52"
       cy="122.47999"
       fx="149.52"
       fy="122.47999"
       r="8" />
  </defs>
  <metadata
     id="metadata7">
    <rdf:RDF>
      <cc:Work
         rdf:about="">
        <dc:format>image/svg+xml</dc:format>
        <dc:type
           rdf:resource="http://purl.org/dc/dcmitype/StillImage" />
        <dc:title></dc:title>
      </cc:Work>
    </rdf:RDF>
  </metadata>
  <g
     transform="translate(0,-924.36218)"
     id="layer1"
     inkscape:groupmode="layer"
     inkscape:label="Layer 1">
    <rect
       ry="8"
       rx="8"
       y="940.36218"
       x="12"
       height="104"
       width="104"
       id="rect6981"
       style="opacity:0.10000000000000001;fill:#000000;fill-opacity:1;stroke:#000000;stroke-width:10;stroke-miterlimit:4;stroke-dasharray:none" />
    <rect
       style="opacity:0.1;fill:#000000;fill-opacity:1;stroke:#000000;stroke-width:6;stroke-miterlimit:4;stroke-dasharray:none"
       id="rect6979"
       width="104"
       height="104"
       x="12"
       y="940.36218"
       rx="8"
       ry="8" />
    <rect
       ry="8"
       rx="8"
       y="938.36218"
       x="12"
       height="104"
       width="104"
       id="rect5969"
       style="fill:#000000;fill-opacity:1;stroke:#000000;opacity:0.20000000000000001;stroke-width:3;stroke-miterlimit:4;stroke-dasharray:none" />
    <rect
       style="fill:url(#radialGradient5899);fill-opacity:1;stroke:#1a1a1a"
       id="rect6936"
       width="104"
       height="104"
       x="12"
       y="938.36218"
       rx="8"
       ry="8" />
    <rect
       ry="8"
       rx="8"
       y="934.36218"
       x="12"
       height="104"
       width="104"
       id="rect6964"
       style="fill:url(#radialGradient7116);fill-opacity:1;stroke:#1a1a1a" />
    <text
       xml:space="preserve"
       style="font-size:24px;font-style:normal;font-weight:normal;line-height:125%;letter-spacing:0px;word-spacing:0px;fill:#000000;fill-opacity:1;stroke:none;font-family:Sans"
       x="-56"
       y="948.36218"
       id="text5893"
       sodipodi:linespacing="125%"><tspan
         sodipodi:role="line"
         id="tspan5895"
         x="-56"
         y="948.36218">128</tspan></text>
    <text
       sodipodi:linespacing="125%"
       id="text5901"
       y="1000.3622"
       x="184"
       style="font-size:16px;font-style:normal;font-weight:normal;line-height:125%;letter-spacing:0px;word-spacing:0px;fill:#000000;fill-opacity:1;stroke:none;font-family:Sans"
       xml:space="preserve"><tspan
         y="1000.3622"
         x="184"
         id="tspan5903"
         sodipodi:role="line">31 - 17</tspan></text>
    <text
       xml:space="preserve"
       style="font-size:16px;font-style:normal;font-weight:normal;line-height:125%;letter-spacing:0px;word-spacing:0px;fill:#000000;fill-opacity:1;stroke:none;font-family:Sans"
       x="172"
       y="1048.3622"
       id="text5905"
       sodipodi:linespacing="125%"><tspan
         sodipodi:role="line"
         id="tspan5907"
         x="172"
         y="1048.3622">16</tspan></text>
    <rect
       style="fill:none;stroke:#000000;stroke-width:1;stroke-linecap:round;stroke-linejoin:round;stroke-miterlimit:4;stroke-opacity:1;stroke-dasharray:none;stroke-dashoffset:0"
       id="rect5919"
       width="40"
       height="40"
       x="140"
       y="60"
       transform="translate(0,924.36218)"
       rx="4.5902016e-07" />
    <rect
       style="fill:none;stroke:#000000;stroke-width:1;stroke-linecap:round;stroke-linejoin:round;stroke-miterlimit:4;stroke-opacity:1;stroke-dasharray:none;stroke-dashoffset:0"
       id="rect5921"
       width="24"
       height="24"
       x="140"
       y="1032.3622"
       rx="4.5902016e-07" />
    <rect
       style="fill:#b3b3b3;fill-opacity:1;stroke:none"
       id="rect6935"
       width="32"
       height="4"
       x="144"
       y="56"
       transform="translate(0,924.36218)"
       rx="4.5902016e-07" />
    <rect
       style="fill:#b3b3b3;fill-opacity:1;stroke:none"
       id="rect6937"
       width="4"
       height="32"
       x="136"
       y="64"
       transform="translate(0,924.36218)"
       rx="4.5902016e-07" />
    <rect
       style="fill:#b3b3b3;fill-opacity:1;stroke:none"
       id="rect6939"
       width="16"
       height="4"
       x="144"
       y="104"
       rx="4.5902016e-07"
       transform="translate(0,924.36218)" />
    <rect
       style="fill:#b3b3b3;fill-opacity:1;stroke:none"
       id="rect6941"
       width="4"
       height="16"
       x="136"
       y="112"
       transform="translate(0,924.36218)"
       rx="4.5902016e-07" />
    <path
       style="fill:url(#radialGradient6861);fill-opacity:1;stroke:none"
       d="m 152,1052.3622 c 4.4183,0 8,-3.5817 8,-8 0,-4.4183 -3.5817,-8 -8,-8 -4.4183,0 -8,3.5817 -8,8 0,4.4183 3.5817,8 8,8 z m 0,-1 c -2.3756,0 -4.4845,-1.1905 -5.75,-3 l 11.5,0 c -1.2655,1.8095 -3.3744,3 -5.75,3 z m 5.875,-3.2187 -5.875,-10.7813 -5.875,10.7813 c -0.7067,-1.0934 -1.125,-2.3826 -1.125,-3.7813 0,-3.866 3.134,-7 7,-7 3.866,0 7,3.134 7,7 0,1.3987 -0.4183,2.6879 -1.125,3.7813 z"
       id="path10768"
       inkscape:connector-curvature="0" />
    <g
       id="g6873"
       transform="matrix(-1,0,0,-1,128.00001,1972.7244)">
      <path
         id="path6867"
         d="m 64,950.36218 c -19.88226,0 -36,16.1176 -36,36 0,19.88232 16.11774,36.00002 36,36.00002 19.88222,0 36,-16.1177 36,-36.00002 0,-19.8824 -16.11778,-36 -36,-36 z m 0,4.5 c 10.69029,0 20.18034,5.3574 25.875,13.5 l -51.75,0 c 5.69466,-8.1426 15.18471,-13.5 25.875,-13.5 z M 37.5625,969.34658 64,1017.8622 90.4375,969.34658 c 3.18019,4.9199 5.0625,10.7214 5.0625,17.0156 0,17.39702 -14.10304,31.50002 -31.5,31.50002 -17.39696,0 -31.5,-14.103 -31.5,-31.50002 0,-6.2942 1.88231,-12.0957 5.0625,-17.0156 z"
         style="fill:#000000;fill-opacity:1;stroke:none;filter:url(#filter6869)"
         inkscape:connector-curvature="0" />
      <path
         inkscape:connector-curvature="0"
         style="fill:url(#radialGradient6865);fill-opacity:1;stroke:#ffffff;stroke-width:2;stroke-miterlimit:4;stroke-opacity:0.31372549000000000;stroke-dasharray:none"
         d="m 64,950.36218 c -19.88226,0 -36,16.1176 -36,36 0,19.88232 16.11774,36.00002 36,36.00002 19.88222,0 36,-16.1177 36,-36.00002 0,-19.8824 -16.11778,-36 -36,-36 z m 0,4.5 c 10.69029,0 20.18034,5.3574 25.875,13.5 l -51.75,0 c 5.69466,-8.1426 15.18471,-13.5 25.875,-13.5 z M 37.5625,969.34658 64,1017.8622 90.4375,969.34658 c 3.18019,4.9199 5.0625,10.7214 5.0625,17.0156 0,17.39702 -14.10304,31.50002 -31.5,31.50002 -17.39696,0 -31.5,-14.103 -31.5,-31.50002 0,-6.2942 1.88231,-12.0957 5.0625,-17.0156 z"
         id="path6863" />
    </g>
    <g
       id="g6877"
       transform="matrix(-0.35842285,0,0,-0.35842285,182.93907,1357.8969)">
      <path
         inkscape:connector-curvature="0"
         style="fill:#000000;fill-opacity:1;stroke:none;filter:url(#filter6869)"
         d="m 64,950.36218 c -19.88226,0 -36,16.1176 -36,36 0,19.88232 16.11774,36.00002 36,36.00002 19.88222,0 36,-16.1177 36,-36.00002 0,-19.8824 -16.11778,-36 -36,-36 z m 0,4.5 c 10.69029,0 20.18034,5.3574 25.875,13.5 l -51.75,0 c 5.69466,-8.1426 15.18471,-13.5 25.875,-13.5 z M 37.5625,969.34658 64,1017.8622 90.4375,969.34658 c 3.18019,4.9199 5.0625,10.7214 5.0625,17.0156 0,17.39702 -14.10304,31.50002 -31.5,31.50002 -17.39696,0 -31.5,-14.103 -31.5,-31.50002 0,-6.2942 1.88231,-12.0957 5.0625,-17.0156 z"
         id="path6879" />
      <path
         id="path6881"
         d="m 64,950.36218 c -19.88226,0 -36,16.1176 -36,36 0,19.88232 16.11774,36.00002 36,36.00002 19.88222,0 36,-16.1177 36,-36.00002 0,-19.8824 -16.11778,-36 -36,-36 z m 0,4.5 c 10.69029,0 20.18034,5.3574 25.875,13.5 l -51.75,0 c 5.69466,-8.1426 15.18471,-13.5 25.875,-13.5 z M 37.5625,969.34658 64,1017.8622 90.4375,969.34658 c 3.18019,4.9199 5.0625,10.7214 5.0625,17.0156 0,17.39702 -14.10304,31.50002 -31.5,31.50002 -17.39696,0 -31.5,-14.103 -31.5,-31.50002 0,-6.2942 1.88231,-12.0957 5.0625,-17.0156 z"
         style="fill:url(#radialGradient6883);fill-opacity:1;stroke:#ffffff;stroke-width:2;stroke-miterlimit:4;stroke-opacity:0.31372549000000000;stroke-dasharray:none"
         inkscape:connector-curvature="0" />
    </g>
  </g>
</svg>
