<?xml version="1.0" encoding="UTF-8" standalone="no"?>
<!-- Created with Inkscape (http://www.inkscape.org/) -->

<svg
   xmlns:dc="http://purl.org/dc/elements/1.1/"
   xmlns:cc="http://creativecommons.org/ns#"
   xmlns:rdf="http://www.w3.org/1999/02/22-rdf-syntax-ns#"
   xmlns:svg="http://www.w3.org/2000/svg"
   xmlns="http://www.w3.org/2000/svg"
   xmlns:xlink="http://www.w3.org/1999/xlink"
   xmlns:sodipodi="http://sodipodi.sourceforge.net/DTD/sodipodi-0.dtd"
   xmlns:inkscape="http://www.inkscape.org/namespaces/inkscape"
   sodipodi:docname="media-playlist-repeat.svg"
   inkscape:version="0.48.4 r9939"
   version="1.1"
   id="svg2"
   height="128"
   width="128">
  <sodipodi:namedview
     id="base"
     pagecolor="#ffffff"
     bordercolor="#666666"
     borderopacity="1.0"
     inkscape:pageopacity="0.0"
     inkscape:pageshadow="2"
     inkscape:zoom="3.6203869"
     inkscape:cx="156.13374"
     inkscape:cy="0.025681261"
     inkscape:document-units="px"
     inkscape:current-layer="layer1"
     showgrid="true"
     showguides="true"
     inkscape:guide-bbox="true"
     inkscape:window-width="1221"
     inkscape:window-height="1000"
     inkscape:window-x="59"
     inkscape:window-y="24"
     inkscape:window-maximized="1">
    <inkscape:grid
       snapvisiblegridlinesonly="true"
       enabled="true"
       visible="true"
       empspacing="4"
       id="grid2985"
       type="xygrid" />
  </sodipodi:namedview>
  <defs
     id="defs4">
    <linearGradient
       id="linearGradient4045">
      <stop
         style="stop-color:#202020;stop-opacity:1;"
         offset="0"
         id="stop4047" />
      <stop
         id="stop4055"
         offset="0.125"
         style="stop-color:#d4d4d4;stop-opacity:1;" />
      <stop
         id="stop4053"
         offset="0.25"
         style="stop-color:#282828;stop-opacity:1;" />
      <stop
         id="stop4051"
         offset="0.5"
         style="stop-color:#ffffff;stop-opacity:1;" />
      <stop
         style="stop-color:#545454;stop-opacity:1;"
         offset="1"
         id="stop4049" />
    </linearGradient>
    <linearGradient
       id="linearGradient10061">
      <stop
         style="stop-color:#b3b3b3;stop-opacity:1;"
         offset="0"
         id="stop10063" />
      <stop
         style="stop-color:#b3b3b3;stop-opacity:0;"
         offset="1"
         id="stop10065" />
    </linearGradient>
    <linearGradient
       id="linearGradient7110">
      <stop
         style="stop-color:#5a5a5a;stop-opacity:1;"
         offset="0"
         id="stop7112" />
      <stop
         style="stop-color:#202020;stop-opacity:1;"
         offset="1"
         id="stop7114" />
    </linearGradient>
    <linearGradient
       id="linearGradient4216-4-8-2">
      <stop
         id="stop4218-8-0-7"
         offset="0"
         style="stop-color:#494949;stop-opacity:1;" />
      <stop
         id="stop4220-1-6-4"
         offset="1"
         style="stop-color:#0f0f0f;stop-opacity:1;" />
    </linearGradient>
    <radialGradient
       inkscape:collect="always"
       xlink:href="#linearGradient4216-4-8-2"
       id="radialGradient5899"
       gradientUnits="userSpaceOnUse"
       gradientTransform="translate(0,2)"
       cx="64"
       cy="1020.3622"
       fx="64"
       fy="1020.3622"
       r="52" />
    <radialGradient
       inkscape:collect="always"
       xlink:href="#linearGradient7110"
       id="radialGradient7116"
       cx="80"
       cy="972.36218"
       fx="80"
       fy="972.36218"
       r="52.5"
       gradientUnits="userSpaceOnUse" />
    <linearGradient
       id="linearGradient6964-4">
      <stop
         style="stop-color:#ffffff;stop-opacity:1;"
         offset="0"
         id="stop6966-4" />
      <stop
         style="stop-color:#cacaca;stop-opacity:1;"
         offset="1"
         id="stop6970-3" />
    </linearGradient>
    <radialGradient
       inkscape:collect="always"
       xlink:href="#linearGradient6964-4"
       id="radialGradient10192"
       cx="154"
       cy="118"
       fx="154"
       fy="118"
       r="8"
       gradientUnits="userSpaceOnUse"
       gradientTransform="matrix(1.25,0,0,1.25,-38.5,-29.5)" />
    <radialGradient
       inkscape:collect="always"
       xlink:href="#linearGradient6964-4"
       id="radialGradient10196"
       gradientUnits="userSpaceOnUse"
       gradientTransform="matrix(5.625,0,0,5.625,-793.25,313.61216)"
       cx="154"
       cy="118"
       fx="154"
       fy="118"
       r="8" />
    <radialGradient
       inkscape:collect="always"
       xlink:href="#linearGradient6964-4"
       id="radialGradient10212"
       gradientUnits="userSpaceOnUse"
       gradientTransform="matrix(5.625,0,0,5.625,-793.25,313.61216)"
       cx="154"
       cy="118"
       fx="154"
       fy="118"
       r="8" />
    <radialGradient
       inkscape:collect="always"
       xlink:href="#linearGradient8794-33"
       id="radialGradient6967"
       gradientUnits="userSpaceOnUse"
       gradientTransform="matrix(0.78722727,0,0,1.1316392,13.617455,-8.16161)"
       cx="84"
       cy="46.695652"
       fx="84"
       fy="46.695652"
       r="32" />
    <linearGradient
       id="linearGradient8794-33">
      <stop
         style="stop-color:#ffffff;stop-opacity:1;"
         offset="0"
         id="stop8796-9" />
      <stop
         style="stop-color:#cacaca;stop-opacity:1;"
         offset="1"
         id="stop8798-6" />
    </linearGradient>
    <radialGradient
       r="32"
       fy="46.695652"
       fx="84"
       cy="46.695652"
       cx="84"
       gradientTransform="matrix(0.78722727,0,0,1.1316392,13.617455,-8.16161)"
       gradientUnits="userSpaceOnUse"
       id="radialGradient5944"
       xlink:href="#linearGradient8794-33"
       inkscape:collect="always" />
    <radialGradient
       inkscape:collect="always"
       xlink:href="#linearGradient8794-33"
       id="radialGradient10267"
       gradientUnits="userSpaceOnUse"
       gradientTransform="matrix(0.78722727,0,0,1.1316392,13.617455,-8.16161)"
       cx="84"
       cy="46.695652"
       fx="84"
       fy="46.695652"
       r="32" />
    <radialGradient
       inkscape:collect="always"
       xlink:href="#linearGradient8794-33-9"
       id="radialGradient6997"
       cx="153"
       cy="118"
       fx="153"
       fy="118"
       r="4"
       gradientTransform="matrix(1,0,0,1.5,0,-60)"
       gradientUnits="userSpaceOnUse" />
    <linearGradient
       id="linearGradient8794-33-9">
      <stop
         style="stop-color:#ffffff;stop-opacity:1;"
         offset="0"
         id="stop8796-9-5" />
      <stop
         style="stop-color:#cacaca;stop-opacity:1;"
         offset="1"
         id="stop8798-6-9" />
    </linearGradient>
    <radialGradient
       r="4"
       fy="118"
       fx="153"
       cy="118"
       cx="153"
       gradientTransform="matrix(1.333375,0,0,2.0000625,-50.673,804.35467)"
       gradientUnits="userSpaceOnUse"
       id="radialGradient5961"
       xlink:href="#linearGradient8794-33-9"
       inkscape:collect="always" />
    <radialGradient
       inkscape:collect="always"
       xlink:href="#linearGradient4216-4-8-2"
       id="radialGradient3881"
       gradientUnits="userSpaceOnUse"
       gradientTransform="translate(0,150)"
       cx="64"
       cy="1020.3622"
       fx="64"
       fy="1020.3622"
       r="52" />
    <radialGradient
       inkscape:collect="always"
       xlink:href="#linearGradient7110"
       id="radialGradient3883"
       gradientUnits="userSpaceOnUse"
       cx="80"
       cy="972.36218"
       fx="80"
       fy="972.36218"
       r="52.5"
       gradientTransform="translate(0,148)" />
    <radialGradient
       inkscape:collect="always"
       xlink:href="#linearGradient7110"
       id="radialGradient3885"
       gradientUnits="userSpaceOnUse"
       cx="80"
       cy="972.36218"
       fx="80"
       fy="972.36218"
       r="52.5"
       gradientTransform="translate(0,148)" />
    <radialGradient
       inkscape:collect="always"
       xlink:href="#linearGradient8794-33"
       id="radialGradient3887"
       gradientUnits="userSpaceOnUse"
       gradientTransform="matrix(0.78722727,0,0,1.1316392,13.617455,1064.2006)"
       cx="84"
       cy="46.695652"
       fx="84"
       fy="46.695652"
       r="32" />
    <radialGradient
       inkscape:collect="always"
       xlink:href="#linearGradient8794-33"
       id="radialGradient3889"
       gradientUnits="userSpaceOnUse"
       gradientTransform="matrix(0.78722727,0,0,1.1316392,13.617455,-8.16161)"
       cx="84"
       cy="46.695652"
       fx="84"
       fy="46.695652"
       r="32" />
    <radialGradient
       inkscape:collect="always"
       xlink:href="#linearGradient8794-33-9"
       id="radialGradient3905"
       cx="152"
       cy="1191.8622"
       fx="152"
       fy="1191.8622"
       r="4"
       gradientTransform="matrix(1,0,0,0.875,0,148.98277)"
       gradientUnits="userSpaceOnUse" />
    <filter
       color-interpolation-filters="sRGB"
       inkscape:collect="always"
       id="filter6960">
      <feGaussianBlur
         inkscape:collect="always"
         stdDeviation="4.16"
         id="feGaussianBlur6962" />
    </filter>
    <radialGradient
       inkscape:collect="always"
       xlink:href="#linearGradient4216-4-8-2-6"
       id="radialGradient5899-5"
       gradientUnits="userSpaceOnUse"
       gradientTransform="translate(0,2)"
       cx="64"
       cy="1020.3622"
       fx="64"
       fy="1020.3622"
       r="52" />
    <linearGradient
       id="linearGradient4216-4-8-2-6">
      <stop
         id="stop4218-8-0-7-4"
         offset="0"
         style="stop-color:#ffffff;stop-opacity:1;" />
      <stop
         id="stop4220-1-6-4-0"
         offset="1"
         style="stop-color:#c6c6c6;stop-opacity:1;" />
    </linearGradient>
    <linearGradient
       inkscape:collect="always"
       xlink:href="#linearGradient6978"
       id="linearGradient5895"
       gradientUnits="userSpaceOnUse"
       gradientTransform="translate(0,926.36218)"
       x1="64"
       y1="188"
       x2="64"
       y2="8" />
    <linearGradient
       inkscape:collect="always"
       id="linearGradient6978">
      <stop
         style="stop-color:#000000;stop-opacity:0.25"
         offset="0"
         id="stop6980" />
      <stop
         style="stop-color:#000000;stop-opacity:0;"
         offset="1"
         id="stop6982" />
    </linearGradient>
    <radialGradient
       inkscape:collect="always"
       xlink:href="#linearGradient7006"
       id="radialGradient5892"
       gradientUnits="userSpaceOnUse"
       gradientTransform="translate(0,926.36218)"
       cx="88"
       cy="36"
       fx="88"
       fy="36"
       r="51" />
    <linearGradient
       inkscape:collect="always"
       id="linearGradient7006">
      <stop
         style="stop-color:#ffffff;stop-opacity:1;"
         offset="0"
         id="stop7008" />
      <stop
         style="stop-color:#ffffff;stop-opacity:0;"
         offset="1"
         id="stop7010" />
    </linearGradient>
    <radialGradient
       r="51"
       fy="36"
       fx="88"
       cy="36"
       cx="88"
       gradientTransform="translate(0,926.36218)"
       gradientUnits="userSpaceOnUse"
       id="radialGradient6102"
       xlink:href="#linearGradient7006"
       inkscape:collect="always" />
    <radialGradient
       inkscape:collect="always"
       xlink:href="#linearGradient7006"
       id="radialGradient3988"
       gradientUnits="userSpaceOnUse"
       gradientTransform="translate(0,1072.3622)"
       cx="88"
       cy="36"
       fx="88"
       fy="36"
       r="51" />
    <linearGradient
       inkscape:collect="always"
       xlink:href="#linearGradient6978"
       id="linearGradient3991"
       gradientUnits="userSpaceOnUse"
       gradientTransform="translate(0,1072.3622)"
       x1="64"
       y1="188"
       x2="64"
       y2="8" />
    <radialGradient
       inkscape:collect="always"
       xlink:href="#linearGradient4216-4-8-2-6"
       id="radialGradient3995"
       gradientUnits="userSpaceOnUse"
       gradientTransform="translate(0,148)"
       cx="64"
       cy="1020.3622"
       fx="64"
       fy="1020.3622"
       r="52" />
    <radialGradient
       inkscape:collect="always"
       xlink:href="#linearGradient4216-4-8-2"
       id="radialGradient4009"
       gradientUnits="userSpaceOnUse"
       gradientTransform="matrix(5.625,0,0,5.625,-793.25,459.61216)"
       cx="154"
       cy="118"
       fx="154"
       fy="118"
       r="8" />
    <linearGradient
       inkscape:collect="always"
       xlink:href="#linearGradient4045"
       id="linearGradient4043"
       x1="28"
       y1="1168.3622"
       x2="100"
       y2="1096.3622"
       gradientUnits="userSpaceOnUse" />
    <radialGradient
       inkscape:collect="always"
       xlink:href="#linearGradient4216-4-8-2"
       id="radialGradient4071"
       gradientUnits="userSpaceOnUse"
       gradientTransform="matrix(5.625,0,0,5.625,-793.25,459.61216)"
       cx="154"
       cy="118"
       fx="154"
       fy="118"
       r="8" />
    <linearGradient
       inkscape:collect="always"
       xlink:href="#linearGradient4045"
       id="linearGradient4073"
       gradientUnits="userSpaceOnUse"
       x1="28"
       y1="1168.3622"
       x2="100"
       y2="1096.3622" />
    <radialGradient
       inkscape:collect="always"
       xlink:href="#linearGradient4216-4-8-2-6"
       id="radialGradient4124"
       cx="154"
       cy="118"
       fx="154"
       fy="118"
       r="8"
       gradientUnits="userSpaceOnUse"
       gradientTransform="matrix(1.25,0,0,1.25,-38.5,-29.5)" />
    <radialGradient
       inkscape:collect="always"
       xlink:href="#linearGradient4216-4-8-2-6"
       id="radialGradient4128"
       gradientUnits="userSpaceOnUse"
       gradientTransform="matrix(5.625,0,0,5.625,-793.25,313.61216)"
       cx="154"
       cy="118"
       fx="154"
       fy="118"
       r="8" />
    <filter
       inkscape:collect="always"
       id="filter4132"
       x="-0.12000002"
       width="1.24"
       y="-0.11999998"
       height="1.24">
      <feGaussianBlur
         inkscape:collect="always"
         stdDeviation="3.6000005"
         id="feGaussianBlur4134" />
    </filter>
    <radialGradient
       inkscape:collect="always"
       xlink:href="#linearGradient4216-4-8-2-6"
       id="radialGradient4146"
       gradientUnits="userSpaceOnUse"
       gradientTransform="matrix(5.625,0,0,5.625,-793.25,313.61216)"
       cx="154"
       cy="118"
       fx="154"
       fy="118"
       r="8" />
    <radialGradient
       inkscape:collect="always"
       xlink:href="#linearGradient4216-4-8-2"
       id="radialGradient4150"
       gradientUnits="userSpaceOnUse"
       gradientTransform="matrix(1.25,0,0,1.25,-38.5,1042.8622)"
       cx="154"
       cy="118"
       fx="154"
       fy="118"
       r="8" />
    <radialGradient
       inkscape:collect="always"
       xlink:href="#linearGradient4216-4-8-2"
       id="radialGradient4154"
       gradientUnits="userSpaceOnUse"
       gradientTransform="matrix(5.625,0,0,5.625,-793.25,457.61221)"
       cx="154"
       cy="118"
       fx="154"
       fy="118"
       r="8" />
    <radialGradient
       inkscape:collect="always"
       xlink:href="#linearGradient4216-4-8-2"
       id="radialGradient4181"
       gradientUnits="userSpaceOnUse"
       gradientTransform="matrix(5.625,0,0,5.625,-793.25,457.61221)"
       cx="154"
       cy="118"
       fx="154"
       fy="118"
       r="8" />
    <radialGradient
       inkscape:collect="always"
       xlink:href="#linearGradient4216-4-8-2-6"
       id="radialGradient4223"
       cx="154"
       cy="117.33334"
       fx="154"
       fy="117.33334"
       r="8"
       gradientTransform="matrix(1.25,2.864386e-7,-2.8643884e-7,1.250001,-38.499959,-28.666835)"
       gradientUnits="userSpaceOnUse" />
    <radialGradient
       inkscape:collect="always"
       xlink:href="#linearGradient4216-4-8-2-6"
       id="radialGradient4227"
       gradientUnits="userSpaceOnUse"
       gradientTransform="matrix(5.625,1.2889737e-6,-1.2889748e-6,5.6250045,-793.24982,317.3614)"
       cx="154"
       cy="117.33334"
       fx="154"
       fy="117.33334"
       r="8" />
    <filter
       inkscape:collect="always"
       id="filter4231"
       x="-0.10500002"
       width="1.21"
       y="-0.13999997"
       height="1.2799999">
      <feGaussianBlur
         inkscape:collect="always"
         stdDeviation="3.1500005"
         id="feGaussianBlur4233" />
    </filter>
    <radialGradient
       inkscape:collect="always"
       xlink:href="#linearGradient4216-4-8-2-6"
       id="radialGradient4245"
       gradientUnits="userSpaceOnUse"
       gradientTransform="matrix(5.625,1.2889737e-6,-1.2889748e-6,5.6250045,-793.24982,317.3614)"
       cx="154"
       cy="117.33334"
       fx="154"
       fy="117.33334"
       r="8" />
    <radialGradient
       inkscape:collect="always"
       xlink:href="#linearGradient4216-4-8-2"
       id="radialGradient4249"
       gradientUnits="userSpaceOnUse"
       gradientTransform="matrix(1.25,2.864386e-7,-2.8643884e-7,1.250001,-38.499959,1043.6953)"
       cx="154"
       cy="117.33334"
       fx="154"
       fy="117.33334"
       r="8" />
    <radialGradient
       inkscape:collect="always"
       xlink:href="#linearGradient4216-4-8-2"
       id="radialGradient4253"
       gradientUnits="userSpaceOnUse"
       gradientTransform="matrix(5.625,1.2889737e-6,-1.2889748e-6,5.6250045,-793.24982,461.36113)"
       cx="154"
       cy="117.33334"
       fx="154"
       fy="117.33334"
       r="8" />
    <radialGradient
       inkscape:collect="always"
       xlink:href="#linearGradient4216-4-8-2"
       id="radialGradient4270"
       gradientUnits="userSpaceOnUse"
       gradientTransform="matrix(5.625,1.2889737e-6,-1.2889748e-6,5.6250045,-793.24982,461.36113)"
       cx="154"
       cy="117.33334"
       fx="154"
       fy="117.33334"
       r="8" />
  </defs>
  <metadata
     id="metadata7">
    <rdf:RDF>
      <cc:Work
         rdf:about="">
        <dc:format>image/svg+xml</dc:format>
        <dc:type
           rdf:resource="http://purl.org/dc/dcmitype/StillImage" />
        <dc:title />
      </cc:Work>
    </rdf:RDF>
  </metadata>
  <g
     transform="translate(0,-924.36218)"
     id="layer1"
     inkscape:groupmode="layer"
     inkscape:label="Layer 1">
    <rect
       style="fill:none;fill-opacity:1;stroke:#2e3436"
       id="rect3893"
       width="144"
       height="144"
       x="-8"
       y="1064.3622"
       rx="4.5902016e-07" />
    <rect
       ry="8"
       rx="8"
       y="940.36218"
       x="12"
       height="104"
       width="104"
       id="rect6981"
       style="opacity:0.10000000000000001;fill:#000000;fill-opacity:1;stroke:#000000;stroke-width:10;stroke-miterlimit:4;stroke-dasharray:none" />
    <rect
       style="opacity:0.1;fill:#000000;fill-opacity:1;stroke:#000000;stroke-width:6;stroke-miterlimit:4;stroke-dasharray:none"
       id="rect6979"
       width="104"
       height="104"
       x="12"
       y="940.36218"
       rx="8"
       ry="8" />
    <rect
       ry="8"
       rx="8"
       y="938.36218"
       x="12"
       height="104"
       width="104"
       id="rect5969"
       style="fill:#000000;fill-opacity:1;stroke:#000000;opacity:0.20000000000000001;stroke-width:3;stroke-miterlimit:4;stroke-dasharray:none" />
    <rect
       style="fill:url(#radialGradient5899);fill-opacity:1;stroke:#1a1a1a"
       id="rect6936"
       width="104"
       height="104"
       x="12"
       y="938.36218"
       rx="8"
       ry="8" />
    <rect
       ry="8"
       rx="8"
       y="934.36218"
       x="12"
       height="104"
       width="104"
       id="rect6964"
       style="fill:url(#radialGradient7116);fill-opacity:1;stroke:#1a1a1a" />
    <text
       xml:space="preserve"
       style="font-size:24px;font-style:normal;font-weight:normal;line-height:125%;letter-spacing:0px;word-spacing:0px;fill:#000000;fill-opacity:1;stroke:none;font-family:Sans"
       x="-56"
       y="948.36218"
       id="text5893"
       sodipodi:linespacing="125%"><tspan
         sodipodi:role="line"
         id="tspan5895"
         x="-56"
         y="948.36218">128</tspan></text>
    <text
       sodipodi:linespacing="125%"
       id="text5901"
       y="1000.3622"
       x="184"
       style="font-size:16px;font-style:normal;font-weight:normal;line-height:125%;letter-spacing:0px;word-spacing:0px;fill:#000000;fill-opacity:1;stroke:none;font-family:Sans"
       xml:space="preserve"><tspan
         y="1000.3622"
         x="184"
         id="tspan5903"
         sodipodi:role="line">31 - 17</tspan></text>
    <text
       xml:space="preserve"
       style="font-size:16px;font-style:normal;font-weight:normal;line-height:125%;letter-spacing:0px;word-spacing:0px;fill:#000000;fill-opacity:1;stroke:none;font-family:Sans"
       x="172"
       y="1048.3622"
       id="text5905"
       sodipodi:linespacing="125%"><tspan
         sodipodi:role="line"
         id="tspan5907"
         x="172"
         y="1048.3622">16</tspan></text>
    <rect
       style="fill:none;stroke:#000000;stroke-width:1;stroke-linecap:round;stroke-linejoin:round;stroke-miterlimit:4;stroke-opacity:1;stroke-dasharray:none;stroke-dashoffset:0"
       id="rect5919"
       width="40"
       height="40"
       x="140"
       y="60"
       transform="translate(0,924.36218)"
       rx="4.5902016e-07" />
    <rect
       style="fill:none;stroke:#000000;stroke-width:1;stroke-linecap:round;stroke-linejoin:round;stroke-miterlimit:4;stroke-opacity:1;stroke-dasharray:none;stroke-dashoffset:0"
       id="rect5921"
       width="24"
       height="24"
       x="140"
       y="1032.3622"
       rx="4.5902016e-07" />
    <rect
       style="fill:#b3b3b3;fill-opacity:1;stroke:none"
       id="rect6935"
       width="32"
       height="4"
       x="144"
       y="56"
       transform="translate(0,924.36218)"
       rx="4.5902016e-07" />
    <rect
       style="fill:#b3b3b3;fill-opacity:1;stroke:none"
       id="rect6937"
       width="4"
       height="32"
       x="136"
       y="64"
       transform="translate(0,924.36218)"
       rx="4.5902016e-07" />
    <rect
       style="fill:#b3b3b3;fill-opacity:1;stroke:none"
       id="rect6939"
       width="16"
       height="4"
       x="144"
       y="104"
       rx="4.5902016e-07"
       transform="translate(0,924.36218)" />
    <rect
       style="fill:#b3b3b3;fill-opacity:1;stroke:none"
       id="rect6941"
       width="4"
       height="16"
       x="136"
       y="112"
       transform="translate(0,924.36218)"
       rx="4.5902016e-07" />
    <rect
       style="fill:url(#radialGradient7116);fill-opacity:1;stroke:#1a1a1a"
       id="rect12711"
       width="104"
       height="104"
       x="12"
       y="934.36218"
       rx="8"
       ry="8" />
    <text
       sodipodi:linespacing="125%"
       id="text3841"
       y="1096.3622"
       x="-56"
       style="font-size:24px;font-style:normal;font-weight:normal;line-height:125%;letter-spacing:0px;word-spacing:0px;fill:#000000;fill-opacity:1;stroke:none;font-family:Sans"
       xml:space="preserve"><tspan
         y="1096.3622"
         x="-56"
         id="tspan3843"
         sodipodi:role="line">128</tspan></text>
    <text
       xml:space="preserve"
       style="font-size:16px;font-style:normal;font-weight:normal;line-height:125%;letter-spacing:0px;word-spacing:0px;fill:#000000;fill-opacity:1;stroke:none;font-family:Sans"
       x="184"
       y="1148.3622"
       id="text3845"
       sodipodi:linespacing="125%"><tspan
         sodipodi:role="line"
         id="tspan3847"
         x="184"
         y="1148.3622">31 - 17</tspan></text>
    <text
       sodipodi:linespacing="125%"
       id="text3849"
       y="1196.3622"
       x="172"
       style="font-size:16px;font-style:normal;font-weight:normal;line-height:125%;letter-spacing:0px;word-spacing:0px;fill:#000000;fill-opacity:1;stroke:none;font-family:Sans"
       xml:space="preserve"><tspan
         y="1196.3622"
         x="172"
         id="tspan3851"
         sodipodi:role="line">16</tspan></text>
    <rect
       rx="4.5902016e-07"
       y="1132.3622"
       x="140"
       height="40"
       width="40"
       id="rect3853"
       style="fill:none;stroke:#000000;stroke-width:1;stroke-linecap:round;stroke-linejoin:round;stroke-miterlimit:4;stroke-opacity:1;stroke-dasharray:none;stroke-dashoffset:0" />
    <rect
       rx="4.5902016e-07"
       y="1180.3622"
       x="140"
       height="24"
       width="24"
       id="rect3855"
       style="fill:none;stroke:#000000;stroke-width:1;stroke-linecap:round;stroke-linejoin:round;stroke-miterlimit:4;stroke-opacity:1;stroke-dasharray:none;stroke-dashoffset:0" />
    <rect
       rx="4.5902016e-07"
       y="1128.3622"
       x="144"
       height="4"
       width="32"
       id="rect3857"
       style="fill:#b3b3b3;fill-opacity:1;stroke:none" />
    <rect
       rx="4.5902016e-07"
       y="1136.3622"
       x="136"
       height="32"
       width="4"
       id="rect3859"
       style="fill:#b3b3b3;fill-opacity:1;stroke:none" />
    <rect
       rx="4.5902016e-07"
       y="1176.3622"
       x="144"
       height="4"
       width="16"
       id="rect3861"
       style="fill:#b3b3b3;fill-opacity:1;stroke:none" />
    <rect
       rx="4.5902016e-07"
       y="1184.3622"
       x="136"
       height="16"
       width="4"
       id="rect3863"
       style="fill:#b3b3b3;fill-opacity:1;stroke:none" />
    <rect
       style="fill:#888a85;stroke:none;stroke-width:1;stroke-linejoin:round;stroke-miterlimit:4;stroke-opacity:0.58823528999999997;stroke-dasharray:none"
       id="rect3895"
       width="128"
       height="4"
       x="0"
       y="136"
       transform="translate(0,924.36218)"
       rx="4.5902016e-07" />
    <rect
       style="fill:#888a85;fill-opacity:1;stroke:none"
       id="rect3897"
       width="4"
       height="128"
       x="-12"
       y="148"
       transform="translate(0,924.36218)"
       rx="4.5902016e-07" />
    <rect
       ry="8"
       rx="8"
       y="1084.3622"
       x="12"
       height="104"
       width="104"
       id="rect6938"
       style="fill:#000000;fill-opacity:1;stroke:none;filter:url(#filter6960)" />
    <rect
       style="fill:url(#radialGradient3995);fill-opacity:1;stroke:none"
       id="rect6936-6"
       width="104"
       height="104"
       x="12"
       y="1084.3622"
       rx="8"
       ry="8" />
    <rect
       ry="8"
       rx="8"
       y="1080.3622"
       x="12"
       height="104"
       width="104"
       id="rect6964-2"
       style="fill:#ffffff;fill-opacity:1;stroke:none" />
    <rect
       style="opacity:0.5;fill:url(#linearGradient3991);fill-opacity:1;stroke:none"
       id="rect6975"
       width="102"
       height="102"
       x="13"
       y="1081.3622"
       rx="8"
       ry="8" />
    <rect
       ry="8"
       rx="8"
       y="1081.3622"
       x="13"
       height="102"
       width="102"
       id="rect7002"
       style="opacity:0.5;fill:url(#radialGradient3988);fill-opacity:1;stroke:none" />
    <path
       style="fill:url(#radialGradient4223);fill-opacity:1;stroke:none"
       d="m 146,114 c -1.108,0 -2,0.892 -2,2 l 0,8 c 0,1.108 0.892,2 2,2 l 2,0 3,-3 -4,0 0,-6 10,0 0,6 -2,0 0,-2 -5,5 8,0 c 1,0 2,-0.892 2,-2 l 0,-8 c 0,-1.108 -0.892,-2 -2,-2 z"
       transform="translate(0,924.36218)"
       id="rect4206"
       inkscape:connector-curvature="0"
       sodipodi:nodetypes="sssscccccccccsssss" />
    <g
       id="g4235">
      <path
         sodipodi:nodetypes="sssscccccccccsssss"
         inkscape:connector-curvature="0"
         id="path4229"
         d="m 37,959.36218 c -4.986,0 -9,4.014 -9,9 l 0,36.00002 c 0,4.986 4.014,9 9,9 l 9,0 13.5,-13.50002 -18,0 0,-27 45,0 0,27 -9,0 0,-9 -22.5,22.50002 36,0 c 4.5,0 9,-4.014 9,-9 l 0,-36.00002 c 0,-4.986 -4.014,-9 -9,-9 z"
         style="fill:#000000;fill-opacity:1;stroke:none;filter:url(#filter4231)" />
      <path
         style="fill:url(#radialGradient4227);fill-opacity:1;stroke:#ffffff;stroke-opacity:0.31372549999999999;stroke-width:2;stroke-miterlimit:4;stroke-dasharray:none"
         d="m 37,959.36218 c -4.986,0 -9,4.014 -9,9 l 0,36.00002 c 0,4.986 4.014,9 9,9 l 9,0 13.5,-13.50002 -18,0 0,-27 45,0 0,27 -9,0 0,-9 -22.5,22.50002 36,0 c 4.5,0 9,-4.014 9,-9 l 0,-36.00002 c 0,-4.986 -4.014,-9 -9,-9 z"
         id="path4225"
         inkscape:connector-curvature="0"
         sodipodi:nodetypes="sssscccccccccsssss" />
    </g>
    <g
       id="g4239"
       transform="matrix(0.36730312,0,0,0.36730312,136.4926,642.06827)">
      <path
         style="fill:#000000;fill-opacity:1;stroke:none;filter:url(#filter4231)"
         d="m 37,959.36218 c -4.986,0 -9,4.014 -9,9 l 0,36.00002 c 0,4.986 4.014,9 9,9 l 9,0 13.5,-13.50002 -18,0 0,-27 45,0 0,27 -9,0 0,-9 -22.5,22.50002 36,0 c 4.5,0 9,-4.014 9,-9 l 0,-36.00002 c 0,-4.986 -4.014,-9 -9,-9 z"
         id="path4241"
         inkscape:connector-curvature="0"
         sodipodi:nodetypes="sssscccccccccsssss" />
      <path
         sodipodi:nodetypes="sssscccccccccsssss"
         inkscape:connector-curvature="0"
         id="path4243"
         d="m 37,959.36218 c -4.986,0 -9,4.014 -9,9 l 0,36.00002 c 0,4.986 4.014,9 9,9 l 9,0 13.5,-13.50002 -18,0 0,-27 45,0 0,27 -9,0 0,-9 -22.5,22.50002 36,0 c 4.5,0 9,-4.014 9,-9 l 0,-36.00002 c 0,-4.986 -4.014,-9 -9,-9 z"
         style="fill:url(#radialGradient4245);fill-opacity:1;stroke:#ffffff;stroke-width:2;stroke-miterlimit:4;stroke-opacity:0.31372549;stroke-dasharray:none" />
    </g>
    <path
       sodipodi:nodetypes="sssscccccccccsssss"
       inkscape:connector-curvature="0"
       id="path4247"
       d="m 146,1186.3622 c -1.108,0 -2,0.892 -2,2 l 0,8 c 0,1.108 0.892,2 2,2 l 2,0 3,-3 -4,0 0,-6 10,0 0,6 -2,0 0,-2 -5,5 8,0 c 1,0 2,-0.892 2,-2 l 0,-8 c 0,-1.108 -0.892,-2 -2,-2 z"
       style="fill:url(#radialGradient4249);fill-opacity:1.0;stroke:none" />
    <path
       style="fill:#888a85;fill-opacity:1;stroke:#000000;stroke-width:4;stroke-miterlimit:4;stroke-dasharray:none;stroke-opacity:0.19607843000000000;stroke-linejoin:round"
       d="m 37,1105.3622 c -4.986,0 -9,4.014 -9,9 l 0,36 c 0,4.986 4.014,9 9,9 l 9,0 13.5,-13.5 -18,0 0,-27 45,0 0,27 -9,0 0,-9 -22.5,22.5 36,0 c 4.5,0 9,-4.014 9,-9 l 0,-36 c 0,-4.986 -4.014,-9 -9,-9 z"
       id="path4257"
       inkscape:connector-curvature="0"
       sodipodi:nodetypes="sssscccccccccsssss" />
    <path
       sodipodi:nodetypes="sssscccccccccsssss"
       inkscape:connector-curvature="0"
       id="path4255"
       d="m 37,1105.3622 c -4.986,0 -9,4.014 -9,9 l 0,36 c 0,4.986 4.014,9 9,9 l 9,0 13.5,-13.5 -18,0 0,-27 45,0 0,27 -9,0 0,-9 -22.5,22.5 36,0 c 4.5,0 9,-4.014 9,-9 l 0,-36 c 0,-4.986 -4.014,-9 -9,-9 z"
       style="fill:#555753;fill-opacity:1;stroke:none" />
    <path
       style="fill:url(#radialGradient4253);fill-opacity:1;stroke:none"
       d="m 37,1103.3622 c -4.986,0 -9,4.014 -9,9 l 0,36 c 0,4.986 4.014,9 9,9 l 9,0 13.5,-13.5 -18,0 0,-27 45,0 0,27 -9,0 0,-9 -22.5,22.5 36,0 c 4.5,0 9,-4.014 9,-9 l 0,-36 c 0,-4.986 -4.014,-9 -9,-9 z"
       id="path4251"
       inkscape:connector-curvature="0"
       sodipodi:nodetypes="sssscccccccccsssss" />
    <g
       id="g4265"
       transform="matrix(0.42105172,0,0,0.42105172,133.05269,675.57913)">
      <path
         style="fill:#888a85;fill-opacity:1;stroke:#000000;stroke-width:4;stroke-linejoin:round;stroke-miterlimit:4;stroke-opacity:0.19607843;stroke-dasharray:none"
         d="m 37,1105.3622 c -4.986,0 -9,4.014 -9,9 l 0,36 c 0,4.986 4.014,9 9,9 l 9,0 13.5,-13.5 -18,0 0,-27 45,0 0,27 -9,0 0,-9 -22.5,22.5 36,0 c 4.5,0 9,-4.014 9,-9 l 0,-36 c 0,-4.986 -4.014,-9 -9,-9 z"
         id="path4259"
         inkscape:connector-curvature="0"
         sodipodi:nodetypes="sssscccccccccsssss" />
      <path
         sodipodi:nodetypes="sssscccccccccsssss"
         inkscape:connector-curvature="0"
         id="path4261"
         d="m 37,1105.3622 c -4.986,0 -9,4.014 -9,9 l 0,36 c 0,4.986 4.014,9 9,9 l 9,0 13.5,-13.5 -18,0 0,-27 45,0 0,27 -9,0 0,-9 -22.5,22.5 36,0 c 4.5,0 9,-4.014 9,-9 l 0,-36 c 0,-4.986 -4.014,-9 -9,-9 z"
         style="fill:#555753;fill-opacity:1;stroke:none" />
      <path
         style="fill:url(#radialGradient4270);fill-opacity:1;stroke:none"
         d="m 37,1103.3622 c -4.986,0 -9,4.014 -9,9 l 0,36 c 0,4.986 4.014,9 9,9 l 9,0 13.5,-13.5 -18,0 0,-27 45,0 0,27 -9,0 0,-9 -22.5,22.5 36,0 c 4.5,0 9,-4.014 9,-9 l 0,-36 c 0,-4.986 -4.014,-9 -9,-9 z"
         id="path4263"
         inkscape:connector-curvature="0"
         sodipodi:nodetypes="sssscccccccccsssss" />
    </g>
  </g>
</svg>
