<?xml version="1.0" encoding="UTF-8" standalone="no"?>
<!-- Created with Inkscape (http://www.inkscape.org/) -->

<svg
   xmlns:dc="http://purl.org/dc/elements/1.1/"
   xmlns:cc="http://creativecommons.org/ns#"
   xmlns:rdf="http://www.w3.org/1999/02/22-rdf-syntax-ns#"
   xmlns:svg="http://www.w3.org/2000/svg"
   xmlns="http://www.w3.org/2000/svg"
   xmlns:xlink="http://www.w3.org/1999/xlink"
   xmlns:sodipodi="http://sodipodi.sourceforge.net/DTD/sodipodi-0.dtd"
   xmlns:inkscape="http://www.inkscape.org/namespaces/inkscape"
   sodipodi:docname="system-upgrade.svg"
   inkscape:version="0.48.4 r9939"
   version="1.1"
   id="svg2"
   height="128"
   width="128">
  <sodipodi:namedview
     id="base"
     pagecolor="#ffffff"
     bordercolor="#666666"
     borderopacity="1.0"
     inkscape:pageopacity="0.0"
     inkscape:pageshadow="2"
     inkscape:zoom="3.6203868"
     inkscape:cx="114.60722"
     inkscape:cy="4.7871093"
     inkscape:document-units="px"
     inkscape:current-layer="layer1"
     showgrid="true"
     showguides="true"
     inkscape:guide-bbox="true"
     inkscape:window-width="1221"
     inkscape:window-height="1000"
     inkscape:window-x="59"
     inkscape:window-y="24"
     inkscape:window-maximized="1">
    <inkscape:grid
       snapvisiblegridlinesonly="true"
       enabled="true"
       visible="true"
       empspacing="4"
       id="grid2985"
       type="xygrid" />
  </sodipodi:namedview>
  <defs
     id="defs4">
    <linearGradient
       id="linearGradient7110">
      <stop
         style="stop-color:#5a5a5a;stop-opacity:1;"
         offset="0"
         id="stop7112" />
      <stop
         style="stop-color:#202020;stop-opacity:1;"
         offset="1"
         id="stop7114" />
    </linearGradient>
    <linearGradient
       id="linearGradient4216-4-8-2">
      <stop
         id="stop4218-8-0-7"
         offset="0"
         style="stop-color:#494949;stop-opacity:1;" />
      <stop
         id="stop4220-1-6-4"
         offset="1"
         style="stop-color:#0f0f0f;stop-opacity:1;" />
    </linearGradient>
    <radialGradient
       inkscape:collect="always"
       xlink:href="#linearGradient4216-4-8-2"
       id="radialGradient5899"
       gradientUnits="userSpaceOnUse"
       gradientTransform="translate(0,2)"
       cx="64"
       cy="1020.3622"
       fx="64"
       fy="1020.3622"
       r="52" />
    <radialGradient
       inkscape:collect="always"
       xlink:href="#linearGradient7110"
       id="radialGradient7116"
       cx="80"
       cy="972.36218"
       fx="80"
       fy="972.36218"
       r="52.5"
       gradientUnits="userSpaceOnUse" />
    <linearGradient
       id="linearGradient8794-33">
      <stop
         style="stop-color:#ffffff;stop-opacity:1;"
         offset="0"
         id="stop8796-9" />
      <stop
         style="stop-color:#cacaca;stop-opacity:1;"
         offset="1"
         id="stop8798-6" />
    </linearGradient>
    <radialGradient
       inkscape:collect="always"
       xlink:href="#linearGradient8794-33"
       id="radialGradient4305"
       cx="154.00002"
       cy="1046.1122"
       fx="154.00002"
       fy="1046.1122"
       r="7"
       gradientTransform="matrix(-1.6312602e-5,1.4285802,-1.4285787,-1.6312585e-5,1648.4561,826.37783)"
       gradientUnits="userSpaceOnUse" />
    <radialGradient
       inkscape:collect="always"
       xlink:href="#linearGradient8794-33"
       id="radialGradient4317"
       gradientUnits="userSpaceOnUse"
       gradientTransform="matrix(-1.6312602e-5,1.4285802,-1.4285787,-1.6312585e-5,1648.4561,826.37783)"
       cx="154.00002"
       cy="1046.1122"
       fx="154.00002"
       fy="1046.1122"
       r="7" />
    <filter
       inkscape:collect="always"
       id="filter4325"
       x="-0.1125"
       width="1.225"
       y="-0.12857143"
       height="1.2571429">
      <feGaussianBlur
         inkscape:collect="always"
         stdDeviation="0.75"
         id="feGaussianBlur4327" />
    </filter>
    <radialGradient
       inkscape:collect="always"
       xlink:href="#linearGradient8794-33"
       id="radialGradient4355"
       gradientUnits="userSpaceOnUse"
       gradientTransform="matrix(-1.6312602e-5,1.4285802,-1.4285787,-1.6312585e-5,1648.4561,826.37783)"
       cx="154.00002"
       cy="1046.1122"
       fx="154.00002"
       fy="1046.1122"
       r="7" />
    <radialGradient
       inkscape:collect="always"
       xlink:href="#linearGradient8794-33"
       id="radialGradient3900"
       cx="154"
       cy="118"
       fx="154"
       fy="118"
       r="8"
       gradientUnits="userSpaceOnUse"
       gradientTransform="matrix(1.25,0,0,1.25,-38.5,-29.5)" />
    <radialGradient
       inkscape:collect="always"
       xlink:href="#linearGradient8794-33"
       id="radialGradient3904"
       gradientUnits="userSpaceOnUse"
       gradientTransform="matrix(5.625,0,0,5.625,-793.25,313.61216)"
       cx="154"
       cy="118"
       fx="154"
       fy="118"
       r="8" />
    <filter
       inkscape:collect="always"
       id="filter3908"
       x="-0.12000002"
       width="1.24"
       y="-0.11999998"
       height="1.24">
      <feGaussianBlur
         inkscape:collect="always"
         stdDeviation="3.6000005"
         id="feGaussianBlur3910" />
    </filter>
    <radialGradient
       inkscape:collect="always"
       xlink:href="#linearGradient8794-33"
       id="radialGradient3922"
       gradientUnits="userSpaceOnUse"
       gradientTransform="matrix(5.625,0,0,5.625,-793.25,313.61216)"
       cx="154"
       cy="118"
       fx="154"
       fy="118"
       r="8" />
    <radialGradient
       inkscape:collect="always"
       xlink:href="#linearGradient8794-33"
       id="radialGradient5400"
       cx="154"
       cy="118"
       fx="154"
       fy="118"
       r="8"
       gradientUnits="userSpaceOnUse"
       gradientTransform="matrix(1.25,0,0,1.25,-38.5,-29.5)" />
    <radialGradient
       inkscape:collect="always"
       xlink:href="#linearGradient8794-33"
       id="radialGradient5404"
       gradientUnits="userSpaceOnUse"
       gradientTransform="matrix(5.625,0,0,5.625,-793.25,313.61216)"
       cx="154"
       cy="118"
       fx="154"
       fy="118"
       r="8" />
    <filter
       inkscape:collect="always"
       id="filter5408"
       x="-0.12000002"
       width="1.24"
       y="-0.11999998"
       height="1.24">
      <feGaussianBlur
         inkscape:collect="always"
         stdDeviation="3.6000005"
         id="feGaussianBlur5410" />
    </filter>
    <radialGradient
       inkscape:collect="always"
       xlink:href="#linearGradient8794-33"
       id="radialGradient5422"
       gradientUnits="userSpaceOnUse"
       gradientTransform="matrix(5.625,0,0,5.625,-793.25,313.61216)"
       cx="154"
       cy="118"
       fx="154"
       fy="118"
       r="8" />
  </defs>
  <metadata
     id="metadata7">
    <rdf:RDF>
      <cc:Work
         rdf:about="">
        <dc:format>image/svg+xml</dc:format>
        <dc:type
           rdf:resource="http://purl.org/dc/dcmitype/StillImage" />
        <dc:title></dc:title>
      </cc:Work>
    </rdf:RDF>
  </metadata>
  <g
     transform="translate(0,-924.36218)"
     id="layer1"
     inkscape:groupmode="layer"
     inkscape:label="Layer 1">
    <rect
       ry="8"
       rx="8"
       y="940.36218"
       x="12"
       height="104"
       width="104"
       id="rect6981"
       style="opacity:0.10000000000000001;fill:#000000;fill-opacity:1;stroke:#000000;stroke-width:10;stroke-miterlimit:4;stroke-dasharray:none" />
    <rect
       style="opacity:0.1;fill:#000000;fill-opacity:1;stroke:#000000;stroke-width:6;stroke-miterlimit:4;stroke-dasharray:none"
       id="rect6979"
       width="104"
       height="104"
       x="12"
       y="940.36218"
       rx="8"
       ry="8" />
    <rect
       ry="8"
       rx="8"
       y="938.36218"
       x="12"
       height="104"
       width="104"
       id="rect5969"
       style="fill:#000000;fill-opacity:1;stroke:#000000;opacity:0.20000000000000001;stroke-width:3;stroke-miterlimit:4;stroke-dasharray:none" />
    <rect
       style="fill:url(#radialGradient5899);fill-opacity:1;stroke:#1a1a1a"
       id="rect6936"
       width="104"
       height="104"
       x="12"
       y="938.36218"
       rx="8"
       ry="8" />
    <rect
       ry="8"
       rx="8"
       y="934.36218"
       x="12"
       height="104"
       width="104"
       id="rect6964"
       style="fill:url(#radialGradient7116);fill-opacity:1;stroke:#1a1a1a" />
    <text
       xml:space="preserve"
       style="font-size:24px;font-style:normal;font-weight:normal;line-height:125%;letter-spacing:0px;word-spacing:0px;fill:#000000;fill-opacity:1;stroke:none;font-family:Sans"
       x="-56"
       y="948.36218"
       id="text5893"
       sodipodi:linespacing="125%"><tspan
         sodipodi:role="line"
         id="tspan5895"
         x="-56"
         y="948.36218">128</tspan></text>
    <text
       sodipodi:linespacing="125%"
       id="text5901"
       y="1000.3622"
       x="184"
       style="font-size:16px;font-style:normal;font-weight:normal;line-height:125%;letter-spacing:0px;word-spacing:0px;fill:#000000;fill-opacity:1;stroke:none;font-family:Sans"
       xml:space="preserve"><tspan
         y="1000.3622"
         x="184"
         id="tspan5903"
         sodipodi:role="line">31 - 17</tspan></text>
    <text
       xml:space="preserve"
       style="font-size:16px;font-style:normal;font-weight:normal;line-height:125%;letter-spacing:0px;word-spacing:0px;fill:#000000;fill-opacity:1;stroke:none;font-family:Sans"
       x="172"
       y="1048.3622"
       id="text5905"
       sodipodi:linespacing="125%"><tspan
         sodipodi:role="line"
         id="tspan5907"
         x="172"
         y="1048.3622">16</tspan></text>
    <rect
       style="fill:none;stroke:#000000;stroke-width:1;stroke-linecap:round;stroke-linejoin:round;stroke-miterlimit:4;stroke-opacity:1;stroke-dasharray:none;stroke-dashoffset:0"
       id="rect5919"
       width="40"
       height="40"
       x="140"
       y="60"
       transform="translate(0,924.36218)"
       rx="4.5902016e-07" />
    <rect
       style="fill:none;stroke:#000000;stroke-width:1;stroke-linecap:round;stroke-linejoin:round;stroke-miterlimit:4;stroke-opacity:1;stroke-dasharray:none;stroke-dashoffset:0"
       id="rect5921"
       width="24"
       height="24"
       x="140"
       y="1032.3622"
       rx="4.5902016e-07" />
    <rect
       style="fill:#b3b3b3;fill-opacity:1;stroke:none"
       id="rect6935"
       width="32"
       height="4"
       x="144"
       y="56"
       transform="translate(0,924.36218)"
       rx="4.5902016e-07" />
    <rect
       style="fill:#b3b3b3;fill-opacity:1;stroke:none"
       id="rect6937"
       width="4"
       height="32"
       x="136"
       y="64"
       transform="translate(0,924.36218)"
       rx="4.5902016e-07" />
    <rect
       style="fill:#b3b3b3;fill-opacity:1;stroke:none"
       id="rect6939"
       width="16"
       height="4"
       x="144"
       y="104"
       rx="4.5902016e-07"
       transform="translate(0,924.36218)" />
    <rect
       style="fill:#b3b3b3;fill-opacity:1;stroke:none"
       id="rect6941"
       width="4"
       height="16"
       x="136"
       y="112"
       transform="translate(0,924.36218)"
       rx="4.5902016e-07" />
    <rect
       style="fill:url(#radialGradient7116);fill-opacity:1;stroke:#1a1a1a"
       id="rect12711"
       width="104"
       height="104"
       x="12"
       y="934.36218"
       rx="8"
       ry="8" />
    <path
       style="fill:url(#radialGradient5400);fill-opacity:1;stroke:none"
       d="m 145,112 c -0.554,0 -1,0.446 -1,1 l 0,3 0,1 0,10 c 0,0.554 0.446,1 1,1 l 14,0 c 0.554,0 1,-0.446 1,-1 l 0,-9 c 0,-0.554 -0.446,-1 -1,-1 l -3,0 c -4,0 -2,-5 -6,-5 z m 6.96875,7 0.0625,0 c 0.54444,0 0.96875,0.446 0.96875,1 l 0,1 1.03125,0 c 0.54444,0 0.96875,0.446 0.96875,1 0,0.554 -0.42431,1 -0.96875,1 L 153,123 l 0,1 c 0,0.554 -0.42431,1 -0.96875,1 l -0.0625,0 C 151.42431,125 151,124.554 151,124 l 0,-1 -1.03125,0 c -0.54444,0 -0.92622,-0.44763 -0.96875,-1 -0.0462,-0.60021 0.59002,-1 0.96875,-1 l 1.03125,0 0,-1 c 0,-0.554 0.42431,-1 0.96875,-1 z"
       transform="translate(0,924.36218)"
       id="rect3947"
       inkscape:connector-curvature="0"
       sodipodi:nodetypes="ssccsssssssssssscssscsssscssscss" />
    <g
       id="g5412">
      <path
         sodipodi:nodetypes="ssccsssssssssssscssscsssscssscss"
         inkscape:connector-curvature="0"
         id="path5406"
         d="m 32.5,950.36218 c -2.493,0 -4.5,2.007 -4.5,4.5 l 0,13.5 0,4.5 0,45.00002 c 0,2.493 2.007,4.5 4.5,4.5 l 63,0 c 2.493,0 4.5,-2.007 4.5,-4.5 l 0,-40.50002 c 0,-2.493 -2.007,-4.5 -4.5,-4.5 l -13.5,0 c -18,0 -9,-22.5 -27,-22.5 z m 31.35937,31.5 0.28125,0 c 2.44999,0 4.35938,2.007 4.35938,4.5 l 0,4.5 4.64062,0 c 2.44999,0 4.35938,2.007 4.35938,4.5 0,2.493 -1.90939,4.5 -4.35938,4.5 l -4.64062,0 0,4.50002 c 0,2.493 -1.90939,4.5 -4.35938,4.5 l -0.28125,0 c -2.44998,0 -4.35937,-2.007 -4.35937,-4.5 l 0,-4.50002 -4.64063,0 c -2.44998,0 -4.16799,-2.0144 -4.35937,-4.5 -0.2079,-2.701 2.65509,-4.5 4.35937,-4.5 l 4.64063,0 0,-4.5 c 0,-2.493 1.90939,-4.5 4.35937,-4.5 z"
         style="fill:#000000;fill-opacity:1;stroke:none;filter:url(#filter5408)" />
      <path
         style="fill:url(#radialGradient5404);fill-opacity:1;stroke:#ffffff;stroke-opacity:0.31372549999999999;stroke-width:2;stroke-miterlimit:4;stroke-dasharray:none"
         d="m 32.5,950.36218 c -2.493,0 -4.5,2.007 -4.5,4.5 l 0,13.5 0,4.5 0,45.00002 c 0,2.493 2.007,4.5 4.5,4.5 l 63,0 c 2.493,0 4.5,-2.007 4.5,-4.5 l 0,-40.50002 c 0,-2.493 -2.007,-4.5 -4.5,-4.5 l -13.5,0 c -18,0 -9,-22.5 -27,-22.5 z m 31.35937,31.5 0.28125,0 c 2.44999,0 4.35938,2.007 4.35938,4.5 l 0,4.5 4.64062,0 c 2.44999,0 4.35938,2.007 4.35938,4.5 0,2.493 -1.90939,4.5 -4.35938,4.5 l -4.64062,0 0,4.50002 c 0,2.493 -1.90939,4.5 -4.35938,4.5 l -0.28125,0 c -2.44998,0 -4.35937,-2.007 -4.35937,-4.5 l 0,-4.50002 -4.64063,0 c -2.44998,0 -4.16799,-2.0144 -4.35937,-4.5 -0.2079,-2.701 2.65509,-4.5 4.35937,-4.5 l 4.64063,0 0,-4.5 c 0,-2.493 1.90939,-4.5 4.35937,-4.5 z"
         id="path5402"
         inkscape:connector-curvature="0"
         sodipodi:nodetypes="ssccsssssssssssscssscsssscssscss" />
    </g>
    <g
       id="g5416"
       transform="matrix(0.35842285,0,0,0.35842285,137.06094,650.82743)">
      <path
         style="fill:#000000;fill-opacity:1;stroke:none;filter:url(#filter5408)"
         d="m 32.5,950.36218 c -2.493,0 -4.5,2.007 -4.5,4.5 l 0,13.5 0,4.5 0,45.00002 c 0,2.493 2.007,4.5 4.5,4.5 l 63,0 c 2.493,0 4.5,-2.007 4.5,-4.5 l 0,-40.50002 c 0,-2.493 -2.007,-4.5 -4.5,-4.5 l -13.5,0 c -18,0 -9,-22.5 -27,-22.5 z m 31.35937,31.5 0.28125,0 c 2.44999,0 4.35938,2.007 4.35938,4.5 l 0,4.5 4.64062,0 c 2.44999,0 4.35938,2.007 4.35938,4.5 0,2.493 -1.90939,4.5 -4.35938,4.5 l -4.64062,0 0,4.50002 c 0,2.493 -1.90939,4.5 -4.35938,4.5 l -0.28125,0 c -2.44998,0 -4.35937,-2.007 -4.35937,-4.5 l 0,-4.50002 -4.64063,0 c -2.44998,0 -4.16799,-2.0144 -4.35937,-4.5 -0.2079,-2.701 2.65509,-4.5 4.35937,-4.5 l 4.64063,0 0,-4.5 c 0,-2.493 1.90939,-4.5 4.35937,-4.5 z"
         id="path5418"
         inkscape:connector-curvature="0"
         sodipodi:nodetypes="ssccsssssssssssscssscsssscssscss" />
      <path
         sodipodi:nodetypes="ssccsssssssssssscssscsssscssscss"
         inkscape:connector-curvature="0"
         id="path5420"
         d="m 32.5,950.36218 c -2.493,0 -4.5,2.007 -4.5,4.5 l 0,13.5 0,4.5 0,45.00002 c 0,2.493 2.007,4.5 4.5,4.5 l 63,0 c 2.493,0 4.5,-2.007 4.5,-4.5 l 0,-40.50002 c 0,-2.493 -2.007,-4.5 -4.5,-4.5 l -13.5,0 c -18,0 -9,-22.5 -27,-22.5 z m 31.35937,31.5 0.28125,0 c 2.44999,0 4.35938,2.007 4.35938,4.5 l 0,4.5 4.64062,0 c 2.44999,0 4.35938,2.007 4.35938,4.5 0,2.493 -1.90939,4.5 -4.35938,4.5 l -4.64062,0 0,4.50002 c 0,2.493 -1.90939,4.5 -4.35938,4.5 l -0.28125,0 c -2.44998,0 -4.35937,-2.007 -4.35937,-4.5 l 0,-4.50002 -4.64063,0 c -2.44998,0 -4.16799,-2.0144 -4.35937,-4.5 -0.2079,-2.701 2.65509,-4.5 4.35937,-4.5 l 4.64063,0 0,-4.5 c 0,-2.493 1.90939,-4.5 4.35937,-4.5 z"
         style="fill:url(#radialGradient5422);fill-opacity:1;stroke:#ffffff;stroke-width:2;stroke-miterlimit:4;stroke-opacity:0.31372549;stroke-dasharray:none" />
    </g>
  </g>
</svg>
