<?xml version="1.0" encoding="UTF-8" standalone="no"?>
<!-- Created with Inkscape (http://www.inkscape.org/) -->

<svg
   xmlns:dc="http://purl.org/dc/elements/1.1/"
   xmlns:cc="http://creativecommons.org/ns#"
   xmlns:rdf="http://www.w3.org/1999/02/22-rdf-syntax-ns#"
   xmlns:svg="http://www.w3.org/2000/svg"
   xmlns="http://www.w3.org/2000/svg"
   xmlns:xlink="http://www.w3.org/1999/xlink"
   xmlns:sodipodi="http://sodipodi.sourceforge.net/DTD/sodipodi-0.dtd"
   xmlns:inkscape="http://www.inkscape.org/namespaces/inkscape"
   width="128"
   height="128"
   id="svg3829"
   version="1.1"
   inkscape:version="0.48.4 r9939"
   sodipodi:docname="applications-other.svg">
  <defs
     id="defs3831">
    <linearGradient
       id="linearGradient5802">
      <stop
         id="stop5804"
         offset="0"
         style="stop-color:#ffffff;stop-opacity:1;" />
      <stop
         id="stop5806"
         offset="1"
         style="stop-color:#ededed;stop-opacity:1;" />
    </linearGradient>
    <filter
       inkscape:collect="always"
       id="filter6843"
       x="-0.12714286"
       width="1.2542857"
       y="-0.11361702"
       height="1.227234">
      <feGaussianBlur
         inkscape:collect="always"
         stdDeviation="1.1799844"
         id="feGaussianBlur6845" />
    </filter>
    <radialGradient
       inkscape:collect="always"
       xlink:href="#linearGradient7110"
       id="radialGradient6930"
       cx="152"
       cy="117"
       fx="152"
       fy="117"
       r="8"
       gradientUnits="userSpaceOnUse"
       gradientTransform="matrix(1.5,0,0,1.125,-76,-14.625)" />
    <radialGradient
       inkscape:collect="always"
       xlink:href="#linearGradient7110"
       id="radialGradient6946"
       gradientUnits="userSpaceOnUse"
       gradientTransform="matrix(2.4375,0,0,1.828125,-210.5,-218.76562)"
       cx="152"
       cy="117"
       fx="152"
       fy="117"
       r="8" />
    <filter
       inkscape:collect="always"
       id="filter6950"
       x="-0.12"
       width="1.24"
       y="-0.12"
       height="1.24">
      <feGaussianBlur
         inkscape:collect="always"
         stdDeviation="1.3"
         id="feGaussianBlur6952" />
    </filter>
    <linearGradient
       id="linearGradient7110">
      <stop
         style="stop-color:#5a5a5a;stop-opacity:1;"
         offset="0"
         id="stop7112" />
      <stop
         style="stop-color:#202020;stop-opacity:1;"
         offset="1"
         id="stop7114" />
    </linearGradient>
    <radialGradient
       r="8.0074568"
       fy="121.20335"
       fx="150.79701"
       cy="121.20335"
       cx="150.79701"
       gradientTransform="matrix(1.2488367,-6.1427845e-7,6.1427805e-7,1.2488359,-98.32091,-109.36299)"
       gradientUnits="userSpaceOnUse"
       id="radialGradient4136"
       xlink:href="#linearGradient7110"
       inkscape:collect="always" />
  </defs>
  <sodipodi:namedview
     id="base"
     pagecolor="#ffffff"
     bordercolor="#666666"
     borderopacity="1.0"
     inkscape:pageopacity="0.0"
     inkscape:pageshadow="2"
     inkscape:zoom="4.0000002"
     inkscape:cx="135.8961"
     inkscape:cy="39.852993"
     inkscape:current-layer="layer1"
     showgrid="true"
     inkscape:grid-bbox="true"
     inkscape:document-units="px"
     inkscape:window-width="1221"
     inkscape:window-height="1000"
     inkscape:window-x="59"
     inkscape:window-y="24"
     inkscape:window-maximized="1"
     showguides="true"
     inkscape:guide-bbox="true">
    <inkscape:grid
       type="xygrid"
       id="grid6879"
       empspacing="4"
       visible="true"
       enabled="true"
       snapvisiblegridlinesonly="true" />
  </sodipodi:namedview>
  <metadata
     id="metadata3834">
    <rdf:RDF>
      <cc:Work
         rdf:about="">
        <dc:format>image/svg+xml</dc:format>
        <dc:type
           rdf:resource="http://purl.org/dc/dcmitype/StillImage" />
        <dc:title></dc:title>
      </cc:Work>
    </rdf:RDF>
  </metadata>
  <g
     id="layer1"
     inkscape:label="Layer 1"
     inkscape:groupmode="layer"
     transform="translate(0,80)">
    <path
       id="path6932"
       d="m 160,-13 -3.25,3.2499999 3.25,3.25 3.25,-3.25 L 160,-13 z m -4.875,4.8749999 -3.25,3.25 3.25,3.2500001 3.25,-3.2500001 -3.25,-3.25 z m 9.75,0 -3.25,3.25 3.25,3.2500001 3.25,-3.2500001 -3.25,-3.25 z m -14.625,4.875 L 147,0 150.25,3.25 153.5,0 150.25,-3.2500001 z m 19.5,0 L 166.5,0 169.75,3.25 173,0 169.75,-3.2500001 z M 160,6.5 156.75,9.75 160,13 163.25,9.75 160,6.5 z"
       style="fill:url(#radialGradient6946);fill-opacity:1;stroke:#000000;stroke-opacity:0.18823529999999999;stroke-linejoin:round"
       inkscape:connector-curvature="0" />
    <text
       xml:space="preserve"
       style="font-size:24px;font-style:normal;font-weight:normal;line-height:125%;letter-spacing:0px;word-spacing:0px;fill:#000000;fill-opacity:1;stroke:none;font-family:Sans"
       x="-56"
       y="-56"
       id="text5893"
       sodipodi:linespacing="125%"><tspan
         sodipodi:role="line"
         id="tspan5895"
         x="-56"
         y="-56">128</tspan></text>
    <text
       sodipodi:linespacing="125%"
       id="text5901"
       y="-4"
       x="184"
       style="font-size:16px;font-style:normal;font-weight:normal;line-height:125%;letter-spacing:0px;word-spacing:0px;fill:#000000;fill-opacity:1;stroke:none;font-family:Sans"
       xml:space="preserve"><tspan
         y="-4"
         x="184"
         id="tspan5903"
         sodipodi:role="line">31 - 17</tspan></text>
    <text
       xml:space="preserve"
       style="font-size:16px;font-style:normal;font-weight:normal;line-height:125%;letter-spacing:0px;word-spacing:0px;fill:#000000;fill-opacity:1;stroke:none;font-family:Sans"
       x="172"
       y="44"
       id="text5905"
       sodipodi:linespacing="125%"><tspan
         sodipodi:role="line"
         id="tspan5907"
         x="172"
         y="44">16</tspan></text>
    <rect
       style="fill:none;stroke:#000000;stroke-width:1;stroke-linecap:round;stroke-linejoin:round;stroke-miterlimit:4;stroke-opacity:1;stroke-dasharray:none;stroke-dashoffset:0"
       id="rect5919"
       width="40"
       height="40"
       x="140"
       y="-20"
       rx="4.5902016e-07" />
    <rect
       style="fill:none;stroke:#000000;stroke-width:1;stroke-linecap:round;stroke-linejoin:round;stroke-miterlimit:4;stroke-opacity:1;stroke-dasharray:none;stroke-dashoffset:0"
       id="rect5921"
       width="24"
       height="24"
       x="140"
       y="28"
       rx="4.5902016e-07" />
    <rect
       style="fill:#b3b3b3;fill-opacity:1;stroke:none"
       id="rect6935"
       width="32"
       height="4"
       x="144"
       y="-24"
       rx="4.5902016e-07" />
    <rect
       style="fill:#b3b3b3;fill-opacity:1;stroke:none"
       id="rect6937"
       width="4"
       height="32"
       x="136"
       y="-16"
       rx="4.5902016e-07" />
    <rect
       style="fill:#b3b3b3;fill-opacity:1;stroke:none"
       id="rect6939"
       width="16"
       height="4"
       x="144"
       y="24"
       rx="4.5902016e-07" />
    <rect
       style="fill:#b3b3b3;fill-opacity:1;stroke:none"
       id="rect6941"
       width="4"
       height="16"
       x="136"
       y="32"
       rx="4.5902016e-07" />
    <g
       id="g5149"
       transform="translate(-1.11333,15.251893)" />
    <g
       transform="translate(-1.11333,15.251893)"
       id="g5165" />
    <path
       style="fill:#eeeeec;stroke:none"
       d="m 50.317571,-8.4282913 13.682433,7.8995628 0,-15.7991165 -13.682433,-7.899559 z"
       id="path5493"
       inkscape:connector-curvature="0"
       sodipodi:nodetypes="ccccc" />
    <path
       style="fill:#eeeeec;stroke:none"
       d="m 64.000004,-16.327845 13.682432,-7.899559 0,15.7991127 -13.682432,7.8995628 z"
       id="path5495"
       inkscape:connector-curvature="0"
       sodipodi:nodetypes="ccccc" />
    <path
       style="fill:#eeeeec;stroke:none"
       d="m 50.317571,-24.227404 13.682433,-7.899555 13.682432,7.899555 -13.682432,7.899559 z"
       id="path5497"
       inkscape:connector-curvature="0"
       sodipodi:nodetypes="ccccc" />
    <path
       sodipodi:nodetypes="ccccc"
       inkscape:connector-curvature="0"
       id="path5499"
       d="m 67.420611,1.4461565 13.682432,7.8995625 0,-15.7991159 -13.682432,-7.8995601 z"
       style="fill:#eeeeec;stroke:none" />
    <path
       sodipodi:nodetypes="ccccc"
       inkscape:connector-curvature="0"
       id="path5501"
       d="m 81.103043,-6.4533969 13.682432,-7.8995601 0,15.7991135 -13.682432,7.8995625 z"
       style="fill:#eeeeec;stroke:none" />
    <path
       sodipodi:nodetypes="ccccc"
       inkscape:connector-curvature="0"
       id="path5503"
       d="m 67.420611,-14.352957 13.682432,-7.899556 13.682432,7.899556 -13.682432,7.8995601 z"
       style="fill:#eeeeec;stroke:none" />
    <path
       style="fill:#3465a4;stroke:none"
       d="m 84.523651,11.320604 13.682437,7.899562 0,-15.7991131 -13.682437,-7.8995592 z"
       id="path5505"
       inkscape:connector-curvature="0"
       sodipodi:nodetypes="ccccc" />
    <path
       style="fill:#204a87;stroke:none"
       d="m 98.206088,3.4210529 13.682422,-7.8995592 0,15.7991103 -13.682422,7.899562 z"
       id="path5507"
       inkscape:connector-curvature="0"
       sodipodi:nodetypes="ccccc" />
    <path
       style="fill:#729fcf;stroke:none"
       d="M 84.523651,-4.4785063 98.206088,-12.378063 111.88851,-4.4785063 98.206088,3.4210529 z"
       id="path5509"
       inkscape:connector-curvature="0"
       sodipodi:nodetypes="ccccc" />
    <path
       sodipodi:nodetypes="ccccc"
       inkscape:connector-curvature="0"
       id="path5475"
       d="m 33.214532,1.4461536 13.682432,7.8995624 0,-15.7991157 -13.682432,-7.8995593 z"
       style="fill:#eeeeec;stroke:none" />
    <path
       sodipodi:nodetypes="ccccc"
       inkscape:connector-curvature="0"
       id="path5477"
       d="m 46.896964,-6.4533997 13.682433,-7.8995593 0,15.7991126 -13.682433,7.8995624 z"
       style="fill:#eeeeec;stroke:none" />
    <path
       sodipodi:nodetypes="ccccc"
       inkscape:connector-curvature="0"
       id="path5479"
       d="m 33.214532,-14.352959 13.682432,-7.899555 13.682433,7.899555 -13.682433,7.8995593 z"
       style="fill:#eeeeec;stroke:none" />
    <path
       style="fill:#eeeeec;stroke:none"
       d="m 50.317571,11.320601 13.682433,7.899563 0,-15.7991159 -13.682433,-7.8995594 z"
       id="path5481"
       inkscape:connector-curvature="0"
       sodipodi:nodetypes="ccccc" />
    <path
       style="fill:#eeeeec;stroke:none"
       d="m 64.000004,3.4210481 13.682432,-7.8995594 0,15.7991123 -13.682432,7.899563 z"
       id="path5483"
       inkscape:connector-curvature="0"
       sodipodi:nodetypes="ccccc" />
    <path
       style="fill:#eeeeec;stroke:none"
       d="M 50.317571,-4.4785113 64.000004,-12.378067 77.682436,-4.4785113 64.000004,3.4210481 z"
       id="path5485"
       inkscape:connector-curvature="0"
       sodipodi:nodetypes="ccccc" />
    <path
       transform="matrix(1.2658345,0,0,1.2658345,1.0196333,-67.293248)"
       inkscape:connector-curvature="0"
       id="path6877"
       d="m 64.169937,51.455695 -11.313708,6.36396 0.176777,12.197592 10.261894,3.291611 11.416235,-6.363961 0.0654,-9.302018 z"
       style="fill:#000000;fill-opacity:1;stroke:none;filter:url(#filter6843)"
       sodipodi:nodetypes="ccccccc" />
    <path
       sodipodi:nodetypes="ccccc"
       inkscape:connector-curvature="0"
       id="path5487"
       d="m 67.420612,21.195049 13.682432,7.899562 0,-15.799113 -13.682432,-7.8995594 z"
       style="fill:#edd400;stroke:none" />
    <path
       sodipodi:nodetypes="ccccc"
       inkscape:connector-curvature="0"
       id="path5489"
       d="m 81.103044,13.295498 13.682432,-7.8995594 0,15.7991104 -13.682432,7.899562 z"
       style="fill:#c4a000;stroke:none" />
    <path
       sodipodi:nodetypes="ccccc"
       inkscape:connector-curvature="0"
       id="path5491"
       d="m 67.420612,5.3959386 13.682432,-7.899556 13.682432,7.899556 -13.682432,7.8995594 z"
       style="fill:#fce94f;stroke:none" />
    <path
       style="fill:#75507b;stroke:none"
       d="m 16.111492,11.320599 13.682432,7.899562 0,-15.7991155 -13.682432,-7.8995589 z"
       id="path5453"
       inkscape:connector-curvature="0"
       sodipodi:nodetypes="ccccc" />
    <path
       style="fill:#5c3566;stroke:none"
       d="m 29.793924,3.4210455 13.682432,-7.8995589 0,15.7991124 -13.682432,7.899562 z"
       id="path5455"
       inkscape:connector-curvature="0"
       sodipodi:nodetypes="ccccc" />
    <path
       style="fill:#ad7fa8;stroke:none"
       d="M 16.111492,-4.4785134 29.793924,-12.378068 43.476356,-4.4785134 29.793924,3.4210455 z"
       id="path5457"
       inkscape:connector-curvature="0"
       sodipodi:nodetypes="ccccc" />
    <path
       transform="matrix(1.2658345,0,0,1.2658345,-35.042811,-67.470025)"
       inkscape:connector-curvature="0"
       id="path6873"
       d="m 64.169937,51.455695 -11.313708,6.36396 0.735386,9.264894 11.099807,7.062222 7.36632,-6.92257 2.718796,-9.581322 z"
       style="fill:#000000;fill-opacity:1;stroke:none;filter:url(#filter6843)"
       sodipodi:nodetypes="ccccccc" />
    <path
       sodipodi:nodetypes="ccccc"
       inkscape:connector-curvature="0"
       id="path5461"
       d="m 33.214531,21.195046 13.682432,7.899563 0,-15.799116 -13.682432,-7.8995589 z"
       style="fill:#73d216;stroke:none" />
    <path
       sodipodi:nodetypes="ccccc"
       inkscape:connector-curvature="0"
       id="path5463"
       d="m 46.896963,13.295493 13.682433,-7.8995589 0,15.7991119 -13.682433,7.899563 z"
       style="fill:#4e9a06;stroke:none" />
    <path
       sodipodi:nodetypes="ccccc"
       inkscape:connector-curvature="0"
       id="path5465"
       d="M 33.214531,5.3959341 46.896963,-2.5036216 60.579396,5.3959341 46.896963,13.295493 z"
       style="fill:#8ae234;stroke:none" />
    <path
       style="fill:#000000;fill-opacity:1;stroke:none;filter:url(#filter6843)"
       d="m 64.169937,51.455695 -11.313708,6.36396 0.176777,8.287328 11.099807,6.503613 10.578322,-5.526047 0.0654,-9.44167 z"
       id="path6875"
       inkscape:connector-curvature="0"
       transform="matrix(1.2658345,0,0,1.2658345,-16.834812,-56.686647)"
       sodipodi:nodetypes="ccccccc" />
    <path
       style="fill:#cc0000;stroke:none"
       d="m 50.317571,31.069494 13.682433,7.899562 0,-15.799113 -13.682433,-7.899559 z"
       id="path5469"
       inkscape:connector-curvature="0"
       sodipodi:nodetypes="ccccc" />
    <path
       style="fill:#a40000;stroke:none"
       d="m 64.000004,23.169943 13.682432,-7.899559 0,15.79911 -13.682432,7.899562 z"
       id="path5471"
       inkscape:connector-curvature="0"
       sodipodi:nodetypes="ccccc" />
    <path
       style="fill:#ef2929;stroke:none"
       d="M 50.317571,15.270384 64.000004,7.370828 77.682436,15.270384 64.000004,23.169943 z"
       id="path5473"
       inkscape:connector-curvature="0"
       sodipodi:nodetypes="ccccc" />
    <path
       sodipodi:nodetypes="ccccc"
       inkscape:connector-curvature="0"
       id="path5619"
       d="m 50.299661,-27.564824 13.682433,7.899563 0,-15.799116 -13.682433,-7.899559 z"
       style="fill:#eeeeec;stroke:none" />
    <path
       sodipodi:nodetypes="ccccc"
       inkscape:connector-curvature="0"
       id="path5621"
       d="m 63.982094,-35.464377 13.682432,-7.899559 0,15.799112 -13.682432,7.899563 z"
       style="fill:#eeeeec;stroke:none" />
    <path
       sodipodi:nodetypes="ccccc"
       inkscape:connector-curvature="0"
       id="path5623"
       d="m 50.299661,-43.363936 13.682433,-7.899555 13.682432,7.899555 -13.682432,7.899559 z"
       style="fill:#eeeeec;stroke:none" />
    <path
       style="fill:#eeeeec;stroke:none"
       d="m 67.4027,-17.690376 13.682433,7.8995621 0,-15.7991161 -13.682433,-7.899559 z"
       id="path5627"
       inkscape:connector-curvature="0"
       sodipodi:nodetypes="ccccc" />
    <path
       style="fill:#eeeeec;stroke:none"
       d="m 81.085133,-25.58993 13.682432,-7.899559 0,15.799113 -13.682432,7.8995621 z"
       id="path5629"
       inkscape:connector-curvature="0"
       sodipodi:nodetypes="ccccc" />
    <path
       style="fill:#eeeeec;stroke:none"
       d="m 67.4027,-33.489489 13.682433,-7.899555 13.682432,7.899555 -13.682432,7.899559 z"
       id="path5631"
       inkscape:connector-curvature="0"
       sodipodi:nodetypes="ccccc" />
    <path
       sodipodi:nodetypes="ccccc"
       inkscape:connector-curvature="0"
       id="path5635"
       d="m 84.505741,-7.8159289 13.682427,7.8995622 0,-15.7991133 -13.682427,-7.899559 z"
       style="fill:#cc0000;stroke:none" />
    <path
       sodipodi:nodetypes="ccccc"
       inkscape:connector-curvature="0"
       id="path5637"
       d="m 98.188168,-15.71548 13.682442,-7.899559 0,15.7991101 -13.682442,7.8995622 z"
       style="fill:#a40000;stroke:none" />
    <path
       sodipodi:nodetypes="ccccc"
       inkscape:connector-curvature="0"
       id="path5639"
       d="m 84.505741,-23.615039 13.682427,-7.899556 13.682442,7.899556 -13.682442,7.899559 z"
       style="fill:#ef2929;stroke:none" />
    <path
       style="fill:#eeeeec;stroke:none"
       d="m 33.352876,-18.007625 13.682432,7.899562 0,-15.799116 -13.682432,-7.899559 z"
       id="path5401"
       inkscape:connector-curvature="0"
       sodipodi:nodetypes="ccccc" />
    <path
       style="fill:#eeeeec;stroke:none"
       d="m 47.035308,-25.907179 13.682433,-7.899559 0,15.799113 -13.682433,7.899562 z"
       id="path5403"
       inkscape:connector-curvature="0"
       sodipodi:nodetypes="ccccc" />
    <path
       style="fill:#eeeeec;stroke:none"
       d="m 33.352876,-33.806738 13.682432,-7.899555 13.682433,7.899555 -13.682433,7.899559 z"
       id="path5405"
       inkscape:connector-curvature="0"
       sodipodi:nodetypes="ccccc" />
    <path
       sodipodi:nodetypes="ccccc"
       inkscape:connector-curvature="0"
       id="path5409"
       d="m 50.455915,-8.133178 13.682433,7.8995623 0,-15.7991153 -13.682433,-7.899559 z"
       style="fill:#eeeeec;stroke:none" />
    <path
       sodipodi:nodetypes="ccccc"
       inkscape:connector-curvature="0"
       id="path5411"
       d="m 64.138348,-16.032731 13.682432,-7.899559 0,15.799112 -13.682432,7.8995623 z"
       style="fill:#eeeeec;stroke:none" />
    <path
       sodipodi:nodetypes="ccccc"
       inkscape:connector-curvature="0"
       id="path5413"
       d="m 50.455915,-23.93229 13.682433,-7.899556 13.682432,7.899556 -13.682432,7.899559 z"
       style="fill:#eeeeec;stroke:none" />
    <path
       transform="matrix(1.2658345,0,0,1.2658345,1.5499634,-86.38513)"
       inkscape:connector-curvature="0"
       id="path6871"
       d="m 64.169937,51.455695 -11.313708,6.36396 0.176777,12.197592 10.960155,6.363961 11.136931,-6.363961 -0.353554,-12.374368 z"
       style="fill:#000000;fill-opacity:1;stroke:none;filter:url(#filter6843)" />
    <path
       style="fill:#3465a4;stroke:none"
       d="m 67.558956,1.7412693 13.682432,7.8995627 0,-15.7991138 -13.682432,-7.8995592 z"
       id="path5417"
       inkscape:connector-curvature="0"
       sodipodi:nodetypes="ccccc" />
    <path
       style="fill:#204a87;stroke:none"
       d="m 81.241388,-6.1582818 13.682432,-7.8995592 0,15.7991103 -13.682432,7.8995627 z"
       id="path5419"
       inkscape:connector-curvature="0"
       sodipodi:nodetypes="ccccc" />
    <path
       style="fill:#729fcf;stroke:none"
       d="m 67.558956,-14.057841 13.682432,-7.899555 13.682432,7.899555 -13.682432,7.8995592 z"
       id="path5421"
       inkscape:connector-curvature="0"
       sodipodi:nodetypes="ccccc" />
    <path
       transform="matrix(1.2658345,0,0,1.2658345,-51.836596,-96.284625)"
       inkscape:connector-curvature="0"
       id="path6867"
       d="m 65.985417,53.410827 -9.358576,4.827785 0.03713,13.31481 7.329195,4.827786 11.136931,-6.363961 -0.353554,-12.374368 z"
       style="fill:#000000;fill-opacity:1;stroke:none;filter:url(#filter6843)"
       sodipodi:nodetypes="ccccccc" />
    <path
       sodipodi:nodetypes="ccccc"
       inkscape:connector-curvature="0"
       id="path5427"
       d="m 16.210383,-8.1584653 13.682432,7.8995623 0,-15.799116 -13.682432,-7.899559 z"
       style="fill:#73d216;stroke:none" />
    <path
       sodipodi:nodetypes="ccccc"
       inkscape:connector-curvature="0"
       id="path5429"
       d="m 29.892815,-16.058019 13.682432,-7.899559 0,15.7991127 -13.682432,7.8995623 z"
       style="fill:#4e9a06;stroke:none" />
    <path
       sodipodi:nodetypes="ccccc"
       inkscape:connector-curvature="0"
       id="path5431"
       d="m 16.210383,-23.957578 13.682432,-7.899555 13.682432,7.899555 -13.682432,7.899559 z"
       style="fill:#8ae234;stroke:none" />
    <path
       transform="matrix(1.2658345,0,0,1.2658345,-33.982151,-86.561907)"
       inkscape:connector-curvature="0"
       id="path6869"
       d="m 64.169937,51.455695 -11.313708,6.36396 0.176777,12.197592 10.960155,6.363961 11.136931,-6.363961 -0.353554,-12.374368 z"
       style="fill:#000000;fill-opacity:1;stroke:none;filter:url(#filter6843)" />
    <path
       style="fill:#cc0000;stroke:none"
       d="m 33.313422,1.715982 13.682432,7.899562 0,-15.7991153 -13.682432,-7.8995587 z"
       id="path5435"
       inkscape:connector-curvature="0"
       sodipodi:nodetypes="ccccc" />
    <path
       style="fill:#a40000;stroke:none"
       d="m 46.995854,-6.1835713 13.682432,-7.8995587 0,15.799112 -13.682432,7.899562 z"
       id="path5437"
       inkscape:connector-curvature="0"
       sodipodi:nodetypes="ccccc" />
    <path
       style="fill:#ef2929;stroke:none"
       d="m 33.313422,-14.08313 13.682432,-7.899556 13.682432,7.899556 -13.682432,7.8995587 z"
       id="path5439"
       inkscape:connector-curvature="0"
       sodipodi:nodetypes="ccccc" />
    <path
       style="fill:#000000;fill-opacity:1;stroke:none;filter:url(#filter6843)"
       d="m 64.169937,51.455695 -11.313708,6.36396 0.176777,12.197592 10.960155,6.363961 11.136931,-6.363961 -0.353554,-12.374368 z"
       id="path6865"
       inkscape:connector-curvature="0"
       transform="matrix(1.2658345,0,0,1.2658345,-16.834812,-76.839189)" />
    <path
       sodipodi:nodetypes="ccccc"
       inkscape:connector-curvature="0"
       id="path5443"
       d="m 50.416462,11.590429 13.682432,7.899563 0,-15.7991138 -13.682432,-7.899559 z"
       style="fill:#edd400;stroke:none" />
    <path
       sodipodi:nodetypes="ccccc"
       inkscape:connector-curvature="0"
       id="path5445"
       d="m 64.098894,3.6908782 13.682433,-7.899559 0,15.7991098 -13.682433,7.899563 z"
       style="fill:#c4a000;stroke:none" />
    <path
       sodipodi:nodetypes="ccccc"
       inkscape:connector-curvature="0"
       id="path5447"
       d="m 50.416462,-4.2086808 13.682432,-7.8995552 13.682433,7.8995552 -13.682433,7.899559 z"
       style="fill:#fce94f;stroke:none" />
    <path
       style="fill:#75507b;stroke:none"
       d="m 50.201134,-47.270388 13.682432,7.899562 0,-15.799115 -13.682432,-7.899559 z"
       id="path5645"
       inkscape:connector-curvature="0"
       sodipodi:nodetypes="ccccc" />
    <path
       style="fill:#5c3566;stroke:none"
       d="m 63.883566,-55.169941 13.682432,-7.899559 0,15.799112 -13.682432,7.899562 z"
       id="path5647"
       inkscape:connector-curvature="0"
       sodipodi:nodetypes="ccccc" />
    <path
       style="fill:#ad7fa8;stroke:none"
       d="m 50.201134,-63.0695 13.682432,-7.899556 13.682432,7.899556 -13.682432,7.899559 z"
       id="path5649"
       inkscape:connector-curvature="0"
       sodipodi:nodetypes="ccccc" />
    <path
       transform="matrix(1.2658345,0,0,1.2658345,-0.39458072,-126.51344)"
       inkscape:connector-curvature="0"
       id="path6855"
       d="m 64.309589,54.947002 -11.45336,2.872653 0.176777,12.197592 10.960155,6.363961 11.136931,-6.363961 -2.867295,-10.000279 z"
       style="fill:#000000;fill-opacity:1;stroke:none;filter:url(#filter6843)"
       sodipodi:nodetypes="ccccccc" />
    <path
       sodipodi:nodetypes="ccccc"
       inkscape:connector-curvature="0"
       id="path5655"
       d="m 80.986605,-45.295494 13.682432,-7.899559 0,15.799112 -13.682432,7.899563 z"
       style="fill:#204a87;stroke:none" />
    <path
       sodipodi:nodetypes="ccccc"
       inkscape:connector-curvature="0"
       id="path5653"
       d="m 67.304173,-37.395941 13.682432,7.899563 0,-15.799116 -13.682432,-7.899559 z"
       style="fill:#3465a4;stroke:none" />
    <path
       sodipodi:nodetypes="ccccc"
       inkscape:connector-curvature="0"
       id="path5657"
       d="m 67.304173,-53.195053 13.682432,-7.899556 13.682432,7.899556 -13.682432,7.899559 z"
       style="fill:#729fcf;stroke:none" />
    <path
       style="fill:#000000;fill-opacity:1;stroke:none;filter:url(#filter6843)"
       d="m 59.282107,54.528045 -6.425878,3.29161 0.176777,12.197592 10.960155,6.363961 6.249101,-3.291611 -2.448338,-10.838192 z"
       id="path6857"
       inkscape:connector-curvature="0"
       transform="matrix(1.2658345,0,0,1.2658345,17.459865,-115.19973)"
       sodipodi:nodetypes="ccccccc" />
    <path
       style="fill:#c4a000;stroke:none"
       d="m 98.089648,-35.421045 13.682432,-7.899559 0,15.799111 -13.682432,7.899562 z"
       id="path5663"
       inkscape:connector-curvature="0"
       sodipodi:nodetypes="ccccc" />
    <path
       style="fill:#edd400;stroke:none"
       d="m 84.407213,-27.521493 13.682435,7.899562 0,-15.799114 -13.682435,-7.899559 z"
       id="path5661"
       inkscape:connector-curvature="0"
       sodipodi:nodetypes="ccccc" />
    <path
       style="fill:#fce94f;stroke:none"
       d="m 84.407213,-43.320604 13.682435,-7.899555 13.682432,7.899555 -13.682432,7.899559 z"
       id="path5665"
       inkscape:connector-curvature="0"
       sodipodi:nodetypes="ccccc" />
    <path
       transform="matrix(1.2658345,0,0,1.2658345,-34.335705,-127.39732)"
       inkscape:connector-curvature="0"
       id="path6851"
       d="M 66.683678,53.690132 56.207884,59.35583 55.826052,71.553422 63.993161,76.381208 75.130092,70.017247 74.776538,57.642879 z"
       style="fill:#000000;fill-opacity:1;stroke:none;filter:url(#filter6843)"
       sodipodi:nodetypes="ccccccc" />
    <path
       sodipodi:nodetypes="ccccc"
       inkscape:connector-curvature="0"
       id="path5671"
       d="m 33.254349,-37.71319 13.682432,7.899563 0,-15.799116 -13.682432,-7.899559 z"
       style="fill:#73d216;stroke:none" />
    <path
       sodipodi:nodetypes="ccccc"
       inkscape:connector-curvature="0"
       id="path5673"
       d="m 46.936781,-45.612743 13.682432,-7.899559 0,15.799112 -13.682432,7.899563 z"
       style="fill:#4e9a06;stroke:none" />
    <path
       sodipodi:nodetypes="ccccc"
       inkscape:connector-curvature="0"
       id="path5675"
       d="m 33.254349,-53.512302 13.682432,-7.899556 13.682432,7.899556 -13.682432,7.899559 z"
       style="fill:#8ae234;stroke:none" />
    <path
       style="fill:#eeeeec;stroke:none"
       d="m 50.357388,-27.838742 13.682432,7.899562 0,-15.799116 -13.682432,-7.899559 z"
       id="path5679"
       inkscape:connector-curvature="0"
       sodipodi:nodetypes="ccccc" />
    <path
       style="fill:#babdb6;stroke:none"
       d="m 64.03982,-35.738296 13.682432,-7.899559 0,15.799113 -13.682432,7.899562 z"
       id="path5681"
       inkscape:connector-curvature="0"
       sodipodi:nodetypes="ccccc" />
    <path
       style="fill:#ffffff;fill-opacity:1;stroke:none"
       d="m 50.357388,-43.637855 13.682432,-7.899555 13.682432,7.899555 -13.682432,7.899559 z"
       id="path5683"
       inkscape:connector-curvature="0"
       sodipodi:nodetypes="ccccc" />
    <path
       transform="matrix(1.2658345,0,0,1.2658345,0.13574934,-106.71445)"
       inkscape:connector-curvature="0"
       id="path6861"
       d="m 64.169937,51.455695 -11.313708,6.36396 0.176777,12.197592 10.960155,6.363961 11.136931,-6.363961 -0.353554,-12.374368 z"
       style="fill:#000000;fill-opacity:1;stroke:none;filter:url(#filter6843)" />
    <path
       sodipodi:nodetypes="ccccc"
       inkscape:connector-curvature="0"
       id="path5687"
       d="m 67.460428,-17.964295 13.682432,7.899562 0,-15.799113 -13.682432,-7.899559 z"
       style="fill:#cc0000;stroke:none" />
    <path
       sodipodi:nodetypes="ccccc"
       inkscape:connector-curvature="0"
       id="path5691"
       d="m 67.460428,-33.763405 13.682432,-7.899556 13.682433,7.899556 -13.682433,7.899559 z"
       style="fill:#ef2929;stroke:none" />
    <path
       style="fill:#000000;fill-opacity:1;stroke:none;filter:url(#filter6843)"
       d="m 67.800897,53.690132 -10.19649,5.80535 0.03712,12.895854 6.351629,3.989872 11.136931,-6.363961 -0.353554,-12.374368 z"
       id="path6849"
       inkscape:connector-curvature="0"
       transform="matrix(1.2658345,0,0,1.2658345,-51.12949,-116.08361)"
       sodipodi:nodetypes="ccccccc" />
    <path
       style="fill:#cc0000;stroke:none"
       d="m 16.111855,-27.86403 13.682433,7.899563 0,-15.799116 -13.682433,-7.899559 z"
       id="path5697"
       inkscape:connector-curvature="0"
       sodipodi:nodetypes="ccccc" />
    <path
       style="fill:#a40000;stroke:none"
       d="m 29.794288,-35.763583 13.682432,-7.899559 0,15.799112 -13.682432,7.899563 z"
       id="path5699"
       inkscape:connector-curvature="0"
       sodipodi:nodetypes="ccccc" />
    <path
       style="fill:#ef2929;stroke:none"
       d="m 16.111855,-43.663142 13.682433,-7.899556 13.682432,7.899556 -13.682432,7.899559 z"
       id="path5701"
       inkscape:connector-curvature="0"
       sodipodi:nodetypes="ccccc" />
    <path
       transform="matrix(1.2658345,0,0,1.2658345,-34.689258,-106.53767)"
       inkscape:connector-curvature="0"
       id="path6847"
       d="m 64.169937,51.455695 -11.313708,6.36396 0.176777,12.197592 10.960155,6.363961 11.136931,-6.363961 -0.353554,-12.374368 z"
       style="fill:#000000;fill-opacity:1;stroke:none;filter:url(#filter6843)" />
    <path
       sodipodi:nodetypes="ccccc"
       inkscape:connector-curvature="0"
       id="path5705"
       d="m 33.214895,-17.989582 13.682432,7.899562 0,-15.799116 -13.682432,-7.899559 z"
       style="fill:#edd400;stroke:none" />
    <path
       sodipodi:nodetypes="ccccc"
       inkscape:connector-curvature="0"
       id="path5707"
       d="m 46.897327,-25.889136 13.682432,-7.899559 0,15.799113 -13.682432,7.899562 z"
       style="fill:#c4a000;stroke:none" />
    <path
       sodipodi:nodetypes="ccccc"
       inkscape:connector-curvature="0"
       id="path5709"
       d="m 33.214895,-33.788695 13.682432,-7.899555 13.682432,7.899555 -13.682432,7.899559 z"
       style="fill:#fce94f;stroke:none" />
    <path
       style="fill:#000000;fill-opacity:1;stroke:none;filter:url(#filter6843)"
       d="m 64.169937,51.455695 -11.313708,6.36396 0.176777,12.197592 10.960155,6.363961 11.136931,-6.363961 -0.353554,-12.374368 z"
       id="path6841"
       inkscape:connector-curvature="0"
       transform="matrix(1.2658345,0,0,1.2658345,-17.011589,-96.991729)" />
    <path
       style="fill:#3465a4;stroke:none"
       d="m 50.317935,-8.1151352 13.682432,7.8995623 0,-15.7991131 -13.682432,-7.899559 z"
       id="path5713"
       inkscape:connector-curvature="0"
       sodipodi:nodetypes="ccccc" />
    <path
       style="fill:#204a87;stroke:none"
       d="m 64.000367,-16.014686 13.682432,-7.899559 0,15.7991098 -13.682432,7.8995623 z"
       id="path5715"
       inkscape:connector-curvature="0"
       sodipodi:nodetypes="ccccc" />
    <path
       style="fill:#729fcf;stroke:none"
       d="m 50.317935,-23.914245 13.682432,-7.899556 13.682432,7.899556 -13.682432,7.899559 z"
       id="path5717"
       inkscape:connector-curvature="0"
       sodipodi:nodetypes="ccccc" />
    <path
       sodipodi:nodetypes="ccccc"
       inkscape:connector-curvature="0"
       id="path5689"
       d="m 81.14286,-25.863846 13.682433,-7.899559 0,15.79911 -13.682433,7.899562 z"
       style="fill:#a40000;stroke:none" />
    <path
       style="fill:url(#radialGradient6930);stroke:none;stroke-width:1px;stroke-linecap:butt;stroke-linejoin:miter;stroke-opacity:1;fill-opacity:1.0"
       d="M 152 112 L 150 114 L 152 116 L 154 114 L 152 112 z M 149 115 L 147 117 L 149 119 L 151 117 L 149 115 z M 155 115 L 153 117 L 155 119 L 157 117 L 155 115 z M 146 118 L 144 120 L 146 122 L 148 120 L 146 118 z M 158 118 L 156 120 L 158 122 L 160 120 L 158 118 z M 152 124 L 150 126 L 152 128 L 154 126 L 152 124 z "
       transform="translate(0,-80)"
       id="path6902" />
    <path
       style="fill:#000000;stroke:none;stroke-width:1px;stroke-linecap:butt;stroke-linejoin:miter;stroke-opacity:1;fill-opacity:0.50196081"
       d="M 152 118 L 150 120 L 152 122 L 154 120 L 152 118 z M 149 121 L 147 123 L 149 125 L 151 123 L 149 121 z M 155 121 L 153 123 L 155 125 L 157 123 L 155 121 z "
       transform="translate(0,-80)"
       id="path6914" />
    <path
       id="path6934"
       d="M 160,-3.2500001 156.75,0 160,3.25 163.25,0 160,-3.2500001 z M 155.125,1.625 l -3.25,3.25 3.25,3.25 3.25,-3.25 -3.25,-3.25 z m 9.75,0 -3.25,3.25 3.25,3.25 3.25,-3.25 -3.25,-3.25 z"
       style="fill:#000000;fill-opacity:0.50196081000000004;stroke:#000000;stroke-opacity:0.1882353;stroke-linejoin:round"
       inkscape:connector-curvature="0" />
  </g>
</svg>
