<?xml version="1.0" encoding="UTF-8" standalone="no"?>
<!-- Created with Inkscape (http://www.inkscape.org/) -->

<svg
   xmlns:dc="http://purl.org/dc/elements/1.1/"
   xmlns:cc="http://creativecommons.org/ns#"
   xmlns:rdf="http://www.w3.org/1999/02/22-rdf-syntax-ns#"
   xmlns:svg="http://www.w3.org/2000/svg"
   xmlns="http://www.w3.org/2000/svg"
   xmlns:xlink="http://www.w3.org/1999/xlink"
   xmlns:sodipodi="http://sodipodi.sourceforge.net/DTD/sodipodi-0.dtd"
   xmlns:inkscape="http://www.inkscape.org/namespaces/inkscape"
   sodipodi:docname="document-send.svg"
   inkscape:version="0.48.4 r9939"
   version="1.1"
   id="svg2"
   height="128"
   width="128">
  <sodipodi:namedview
     id="base"
     pagecolor="#ffffff"
     bordercolor="#666666"
     borderopacity="1.0"
     inkscape:pageopacity="0.0"
     inkscape:pageshadow="2"
     inkscape:zoom="3.6203869"
     inkscape:cx="143.28835"
     inkscape:cy="38.518882"
     inkscape:document-units="px"
     inkscape:current-layer="layer1"
     showgrid="true"
     showguides="true"
     inkscape:guide-bbox="true"
     inkscape:window-width="1221"
     inkscape:window-height="1000"
     inkscape:window-x="59"
     inkscape:window-y="24"
     inkscape:window-maximized="1">
    <inkscape:grid
       snapvisiblegridlinesonly="true"
       enabled="true"
       visible="true"
       empspacing="4"
       id="grid2985"
       type="xygrid" />
  </sodipodi:namedview>
  <defs
     id="defs4">
    <linearGradient
       id="linearGradient4216-4-8-2-7">
      <stop
         style="stop-color:#ffffff;stop-opacity:1;"
         offset="0"
         id="stop4218-8-0-7-6" />
      <stop
         style="stop-color:#c6c6c6;stop-opacity:1;"
         offset="1"
         id="stop4220-1-6-4-0" />
    </linearGradient>
    <linearGradient
       id="linearGradient8794-2">
      <stop
         style="stop-color:#ffffff;stop-opacity:1;"
         offset="0"
         id="stop8796-6" />
      <stop
         id="stop4469-5"
         offset="0.5"
         style="stop-color:#e4e4e4;stop-opacity:1;" />
      <stop
         style="stop-color:#cacaca;stop-opacity:1;"
         offset="1"
         id="stop8798-1" />
    </linearGradient>
    <filter
       inkscape:collect="always"
       id="filter12927"
       x="-0.096666663"
       width="1.1933333"
       y="-0.15818183"
       height="1.3163637">
      <feGaussianBlur
         inkscape:collect="always"
         stdDeviation="0.783816"
         id="feGaussianBlur12929" />
    </filter>
    <radialGradient
       inkscape:collect="always"
       xlink:href="#linearGradient4216-4-8-2-7"
       id="radialGradient8756"
       gradientUnits="userSpaceOnUse"
       gradientTransform="matrix(0.32141572,8.8427256e-8,-8.0388384e-8,0.292196,138.20225,717.11685)"
       cx="88"
       cy="970.27521"
       fx="88"
       fy="970.27521"
       r="37" />
    <radialGradient
       inkscape:collect="always"
       xlink:href="#linearGradient7110-3"
       id="radialGradient10026"
       cx="156"
       cy="114.27779"
       fx="156"
       fy="114.27779"
       r="8"
       gradientTransform="translate(0,2.722215)"
       gradientUnits="userSpaceOnUse" />
    <radialGradient
       inkscape:collect="always"
       xlink:href="#linearGradient7110-3"
       id="radialGradient6761"
       gradientUnits="userSpaceOnUse"
       gradientTransform="matrix(0.76126091,0,0,1.0943125,15.279286,916.51481)"
       cx="84"
       cy="46.695652"
       fx="84"
       fy="46.695652"
       r="32" />
    <linearGradient
       id="linearGradient7110-3">
      <stop
         style="stop-color:#5a5a5a;stop-opacity:1;"
         offset="0"
         id="stop7112-7" />
      <stop
         style="stop-color:#202020;stop-opacity:1;"
         offset="1"
         id="stop7114-1" />
    </linearGradient>
    <radialGradient
       inkscape:collect="always"
       xlink:href="#linearGradient7006-8"
       id="radialGradient6053"
       gradientUnits="userSpaceOnUse"
       gradientTransform="translate(1.1814697e-6,924.36217)"
       cx="88"
       cy="36"
       fx="88"
       fy="36"
       r="51" />
    <linearGradient
       inkscape:collect="always"
       id="linearGradient7006-8">
      <stop
         style="stop-color:#ffffff;stop-opacity:1;"
         offset="0"
         id="stop7008-1" />
      <stop
         style="stop-color:#ffffff;stop-opacity:0;"
         offset="1"
         id="stop7010-1" />
    </linearGradient>
    <linearGradient
       inkscape:collect="always"
       xlink:href="#linearGradient6978-3"
       id="linearGradient6051"
       gradientUnits="userSpaceOnUse"
       gradientTransform="translate(1.1814697e-6,924.36217)"
       x1="64"
       y1="188"
       x2="64"
       y2="8" />
    <linearGradient
       inkscape:collect="always"
       id="linearGradient6978-3">
      <stop
         style="stop-color:#000000;stop-opacity:0.25"
         offset="0"
         id="stop6980-5" />
      <stop
         style="stop-color:#000000;stop-opacity:0;"
         offset="1"
         id="stop6982-7" />
    </linearGradient>
    <radialGradient
       inkscape:collect="always"
       xlink:href="#linearGradient4216-4-8-2-6"
       id="radialGradient6049"
       gradientUnits="userSpaceOnUse"
       gradientTransform="translate(1.1814697e-6,-3.1772461e-5)"
       cx="64"
       cy="1020.3622"
       fx="64"
       fy="1020.3622"
       r="52" />
    <linearGradient
       id="linearGradient4216-4-8-2-6">
      <stop
         id="stop4218-8-0-7-4"
         offset="0"
         style="stop-color:#ffffff;stop-opacity:1;" />
      <stop
         id="stop4220-1-6-4-0-5"
         offset="1"
         style="stop-color:#c6c6c6;stop-opacity:1;" />
    </linearGradient>
    <filter
       color-interpolation-filters="sRGB"
       inkscape:collect="always"
       id="filter6960">
      <feGaussianBlur
         inkscape:collect="always"
         stdDeviation="4.16"
         id="feGaussianBlur6962" />
    </filter>
    <radialGradient
       r="32"
       fy="46.695652"
       fx="84"
       cy="46.695652"
       cx="84"
       gradientTransform="matrix(0.76126091,0,0,1.0943125,15.279286,916.51481)"
       gradientUnits="userSpaceOnUse"
       id="radialGradient6895"
       xlink:href="#linearGradient7110-3"
       inkscape:collect="always" />
    <radialGradient
       inkscape:collect="always"
       xlink:href="#linearGradient7110-3"
       id="radialGradient9574"
       gradientUnits="userSpaceOnUse"
       gradientTransform="matrix(0.44290733,1.2185179e-7,-1.1077431e-7,0.40264287,129.96294,609.96332)"
       cx="88"
       cy="970.27521"
       fx="88"
       fy="970.27521"
       r="37" />
    <radialGradient
       inkscape:collect="always"
       xlink:href="#linearGradient7110-3"
       id="radialGradient9579"
       gradientUnits="userSpaceOnUse"
       gradientTransform="matrix(1.1782859,3.241677e-7,-2.9469779e-7,1.0711686,-15.90892,-64.874557)"
       cx="88"
       cy="970.27521"
       fx="88"
       fy="970.27521"
       r="37" />
  </defs>
  <metadata
     id="metadata7">
    <rdf:RDF>
      <cc:Work
         rdf:about="">
        <dc:format>image/svg+xml</dc:format>
        <dc:type
           rdf:resource="http://purl.org/dc/dcmitype/StillImage" />
        <dc:title />
      </cc:Work>
    </rdf:RDF>
  </metadata>
  <g
     transform="translate(0,-924.36218)"
     id="layer1"
     inkscape:groupmode="layer"
     inkscape:label="Layer 1">
    <path
       inkscape:connector-curvature="0"
       id="path12919"
       d="m 146.59199,996.1684 0.50047,1.48977 3.96887,0 c 0,-0.82533 0.66444,-1.48977 1.48977,-1.48977 l -5.95911,0 z m 7.4489,0 c -0.82535,0 -1.48979,0.66444 -1.48979,1.48977 l 0,1.48979 0,0.41899 8.97359,8.97355 c 0.80757,0.8076 2.10216,0.8076 2.90973,0 l 8.97359,-8.97355 0,-0.41899 0,-1.48979 c 0,-0.82533 -0.66444,-1.48977 -1.48977,-1.48977 l -17.87735,0 z m -6.4596,2.97956 0.50047,1.48974 2.97957,0 0,-1.48974 -3.48004,0 z m 4.96981,1.90884 0,10.0094 c 0,0.8253 0.66444,1.4898 1.48979,1.4898 l 17.87735,0 c 0.82533,0 1.48977,-0.6645 1.48977,-1.4898 l 0,-10.0094 -8.97359,8.9735 c -0.80757,0.8076 -2.10216,0.8076 -2.90973,0 l -8.97359,-8.9735 z m -3.96886,1.0707 0.48883,1.4897 1.99026,0 0,-1.4897 -2.47909,0 z m 0.9893,2.9796 0.50048,1.4898 0.98931,0 0,-1.4898 -1.48979,0 z"
       style="fill:url(#radialGradient9574);fill-opacity:1;stroke:#000000;stroke-width:1;stroke-miterlimit:4;stroke-opacity:0.18823529999999999;stroke-dasharray:none;stroke-linejoin:round" />
    <text
       xml:space="preserve"
       style="font-size:24px;font-style:normal;font-weight:normal;line-height:125%;letter-spacing:0px;word-spacing:0px;fill:#000000;fill-opacity:1;stroke:none;font-family:Sans"
       x="-56"
       y="948.36218"
       id="text5893"
       sodipodi:linespacing="125%"><tspan
         sodipodi:role="line"
         id="tspan5895"
         x="-56"
         y="948.36218">128</tspan></text>
    <text
       sodipodi:linespacing="125%"
       id="text5901"
       y="1000.3622"
       x="184"
       style="font-size:16px;font-style:normal;font-weight:normal;line-height:125%;letter-spacing:0px;word-spacing:0px;fill:#000000;fill-opacity:1;stroke:none;font-family:Sans"
       xml:space="preserve"><tspan
         y="1000.3622"
         x="184"
         id="tspan5903"
         sodipodi:role="line">31 - 17</tspan></text>
    <text
       xml:space="preserve"
       style="font-size:16px;font-style:normal;font-weight:normal;line-height:125%;letter-spacing:0px;word-spacing:0px;fill:#000000;fill-opacity:1;stroke:none;font-family:Sans"
       x="172"
       y="1048.3622"
       id="text5905"
       sodipodi:linespacing="125%"><tspan
         sodipodi:role="line"
         id="tspan5907"
         x="172"
         y="1048.3622">16</tspan></text>
    <rect
       style="fill:none;stroke:#000000;stroke-width:1;stroke-linecap:round;stroke-linejoin:round;stroke-miterlimit:4;stroke-opacity:1;stroke-dasharray:none;stroke-dashoffset:0"
       id="rect5919"
       width="40"
       height="40"
       x="140"
       y="60"
       transform="translate(0,924.36218)"
       rx="4.5902016e-07" />
    <rect
       style="fill:none;stroke:#000000;stroke-width:1;stroke-linecap:round;stroke-linejoin:round;stroke-miterlimit:4;stroke-opacity:1;stroke-dasharray:none;stroke-dashoffset:0"
       id="rect5921"
       width="24"
       height="24"
       x="140"
       y="1032.3622"
       rx="4.5902016e-07" />
    <rect
       style="fill:#b3b3b3;fill-opacity:1;stroke:none"
       id="rect6935"
       width="32"
       height="4"
       x="144"
       y="56"
       transform="translate(0,924.36218)"
       rx="4.5902016e-07" />
    <rect
       style="fill:#b3b3b3;fill-opacity:1;stroke:none"
       id="rect6937"
       width="4"
       height="32"
       x="136"
       y="64"
       transform="translate(0,924.36218)"
       rx="4.5902016e-07" />
    <rect
       style="fill:#b3b3b3;fill-opacity:1;stroke:none"
       id="rect6939"
       width="16"
       height="4"
       x="144"
       y="104"
       rx="4.5902016e-07"
       transform="translate(0,924.36218)" />
    <rect
       style="fill:#b3b3b3;fill-opacity:1;stroke:none"
       id="rect6941"
       width="4"
       height="16"
       x="136"
       y="112"
       transform="translate(0,924.36218)"
       rx="4.5902016e-07" />
    <path
       style="fill:url(#radialGradient10026);fill-opacity:1.0;stroke:none"
       d="M 149 116 C 148.446 116 148 116.446 148 117 L 148 118 L 154 122 L 160 118 L 160 117 C 160 116.446 159.554 116 159 116 L 149 116 z M 144 117 L 144 118 L 147 118 L 147 117 L 144 117 z M 145 119 L 145 120 L 147 120 L 147 119 L 145 119 z M 148 119 L 148 124 C 148 124.554 148.446 125 149 125 L 159 125 C 159.554 125 160 124.554 160 124 L 160 119 L 154 123 L 148 119 z M 146 121 L 146 122 L 147 122 L 147 121 L 146 121 z "
       transform="translate(0,924.36218)"
       id="rect8760" />
    <path
       style="fill:url(#radialGradient6895);fill-opacity:1;stroke:none"
       d="m 42.695436,949.33806 c -1.68696,0 -3.05214,1.3652 -3.05214,3.05216 l 0,63.94388 c 0,1.6871 1.36518,3.0522 3.05214,3.0522 l 42.6091,0 c 1.68697,0 3.05217,-1.3651 3.05217,-3.0522 l 0,-57.86982 -9.12622,-9.12622 -36.53505,0 z m 3.02192,6.1043 30.46099,0 6.10427,6.07406 0,51.76548 -36.56526,0 0,-57.83954 z m 9.54928,17.25519 -2.93127,2.93135 0,20.39788 8.03832,-8.0383 -5.10705,0 0,-10.90908 1.45053,-1.4505 14.56567,0 1.4505,1.4505 0,14.56558 -1.4505,1.4505 -12.3899,0 -2.90105,2.9313 16.74145,0 2.93127,-2.9313 0,-17.46658 -2.93127,-2.93135 -17.4667,0 z"
       id="path6759"
       inkscape:connector-curvature="0" />
    <rect
       ry="8"
       rx="8"
       y="936.36218"
       x="12"
       height="104"
       width="104"
       id="rect6938"
       style="fill:#000000;fill-opacity:1;stroke:none;filter:url(#filter6960)" />
    <rect
       style="fill:url(#radialGradient6049);fill-opacity:1;stroke:none"
       id="rect6936-6"
       width="104"
       height="104"
       x="12"
       y="936.36218"
       rx="8"
       ry="8" />
    <rect
       ry="8"
       rx="8"
       y="932.36218"
       x="12"
       height="104"
       width="104"
       id="rect6964-2"
       style="fill:#ffffff;fill-opacity:1;stroke:none" />
    <rect
       style="opacity:0.5;fill:url(#linearGradient6051);fill-opacity:1;stroke:none"
       id="rect6975"
       width="102"
       height="102"
       x="13"
       y="933.36218"
       rx="8"
       ry="8" />
    <rect
       ry="8"
       rx="8"
       y="933.36218"
       x="13"
       height="102"
       width="102"
       id="rect7002"
       style="opacity:0.5;fill:url(#radialGradient6053);fill-opacity:1;stroke:none" />
    <path
       style="fill:url(#radialGradient9579);fill-opacity:1;stroke:#000000;stroke-width:2.66034412;stroke-linejoin:round;stroke-miterlimit:4;stroke-opacity:0.18823529;stroke-dasharray:none"
       d="m 28.330079,962.56385 1.331422,3.9633 10.558561,0 c 0,-2.19566 1.767639,-3.9633 3.9633,-3.9633 l -15.853283,0 z m 19.816638,0 c -2.195715,0 -3.963355,1.76764 -3.963355,3.9633 l 0,3.96336 0,1.11465 23.872838,23.87274 c 2.148414,2.14849 5.592469,2.14849 7.740883,0 l 23.872838,-23.87274 0,-1.11465 0,-3.96336 c 0,-2.19566 -1.767639,-3.9633 -3.963301,-3.9633 l -47.559903,0 z m -17.18476,7.92666 1.331423,3.96322 7.926682,0 0,-3.96322 -9.258105,0 z m 13.221405,5.07817 0,26.62842 c 0,2.1956 1.76764,3.9634 3.963355,3.9634 l 47.559903,0 c 2.195662,0 3.963301,-1.7678 3.963301,-3.9634 l 0,-26.62842 -23.872838,23.8726 c -2.148414,2.14852 -5.592469,2.14852 -7.740883,0 l -23.872838,-23.8726 z m -10.558533,2.84843 1.300456,3.96311 5.294777,0 0,-3.96311 -6.595233,0 z m 2.631878,7.92676 1.331449,3.96338 2.631906,0 0,-3.96338 -3.963355,0 z"
       id="path9577"
       inkscape:connector-curvature="0" />
  </g>
</svg>
