<?xml version="1.0" encoding="UTF-8" standalone="no"?>
<!-- Created with Inkscape (http://www.inkscape.org/) -->

<svg
   xmlns:dc="http://purl.org/dc/elements/1.1/"
   xmlns:cc="http://creativecommons.org/ns#"
   xmlns:rdf="http://www.w3.org/1999/02/22-rdf-syntax-ns#"
   xmlns:svg="http://www.w3.org/2000/svg"
   xmlns="http://www.w3.org/2000/svg"
   xmlns:xlink="http://www.w3.org/1999/xlink"
   xmlns:sodipodi="http://sodipodi.sourceforge.net/DTD/sodipodi-0.dtd"
   xmlns:inkscape="http://www.inkscape.org/namespaces/inkscape"
   sodipodi:docname="document-properties.svg"
   inkscape:version="0.48.4 r9939"
   version="1.1"
   id="svg2"
   height="128"
   width="128">
  <sodipodi:namedview
     id="base"
     pagecolor="#ffffff"
     bordercolor="#666666"
     borderopacity="1.0"
     inkscape:pageopacity="0.0"
     inkscape:pageshadow="2"
     inkscape:zoom="3.6203868"
     inkscape:cx="135.38571"
     inkscape:cy="18.065997"
     inkscape:document-units="px"
     inkscape:current-layer="layer1"
     showgrid="true"
     showguides="true"
     inkscape:guide-bbox="true"
     inkscape:window-width="1221"
     inkscape:window-height="1000"
     inkscape:window-x="59"
     inkscape:window-y="24"
     inkscape:window-maximized="1">
    <inkscape:grid
       snapvisiblegridlinesonly="true"
       enabled="true"
       visible="true"
       empspacing="4"
       id="grid2985"
       type="xygrid" />
  </sodipodi:namedview>
  <defs
     id="defs4">
    <linearGradient
       id="linearGradient7110">
      <stop
         style="stop-color:#5a5a5a;stop-opacity:1;"
         offset="0"
         id="stop7112" />
      <stop
         style="stop-color:#202020;stop-opacity:1;"
         offset="1"
         id="stop7114" />
    </linearGradient>
    <linearGradient
       id="linearGradient8794-33">
      <stop
         style="stop-color:#ffffff;stop-opacity:1;"
         offset="0"
         id="stop8796-9" />
      <stop
         style="stop-color:#cacaca;stop-opacity:1;"
         offset="1"
         id="stop8798-6" />
    </linearGradient>
    <radialGradient
       inkscape:collect="always"
       xlink:href="#linearGradient8794-33"
       id="radialGradient7179"
       gradientUnits="userSpaceOnUse"
       gradientTransform="matrix(1.2570522,-2.707646e-8,1.0626256e-8,1.2570521,-26.352432,914.63201)"
       cx="84"
       cy="51.341217"
       fx="84"
       fy="51.341217"
       r="40.046875" />
    <radialGradient
       inkscape:collect="always"
       xlink:href="#linearGradient7110"
       id="radialGradient6978"
       cx="154"
       cy="117.9"
       fx="154"
       fy="117.9"
       r="8"
       gradientTransform="matrix(1.2499999,-3.1650952e-7,3.1650959e-7,1.2500002,-38.500029,-29.374973)"
       gradientUnits="userSpaceOnUse" />
    <linearGradient
       inkscape:collect="always"
       id="linearGradient7006-8">
      <stop
         style="stop-color:#ffffff;stop-opacity:1;"
         offset="0"
         id="stop7008-1" />
      <stop
         style="stop-color:#ffffff;stop-opacity:0;"
         offset="1"
         id="stop7010-1" />
    </linearGradient>
    <linearGradient
       inkscape:collect="always"
       id="linearGradient6978-3">
      <stop
         style="stop-color:#000000;stop-opacity:0.25"
         offset="0"
         id="stop6980-5" />
      <stop
         style="stop-color:#000000;stop-opacity:0;"
         offset="1"
         id="stop6982-7" />
    </linearGradient>
    <linearGradient
       id="linearGradient4216-4-8-2-6">
      <stop
         id="stop4218-8-0-7-4"
         offset="0"
         style="stop-color:#ffffff;stop-opacity:1;" />
      <stop
         id="stop4220-1-6-4-0"
         offset="1"
         style="stop-color:#c6c6c6;stop-opacity:1;" />
    </linearGradient>
    <filter
       color-interpolation-filters="sRGB"
       inkscape:collect="always"
       id="filter6960">
      <feGaussianBlur
         inkscape:collect="always"
         stdDeviation="4.16"
         id="feGaussianBlur6962" />
    </filter>
    <radialGradient
       inkscape:collect="always"
       xlink:href="#linearGradient4216-4-8-2-6"
       id="radialGradient6049"
       gradientUnits="userSpaceOnUse"
       gradientTransform="translate(3.8146973e-7,-1.1772461e-5)"
       cx="64"
       cy="1020.3622"
       fx="64"
       fy="1020.3622"
       r="52" />
    <linearGradient
       inkscape:collect="always"
       xlink:href="#linearGradient6978-3"
       id="linearGradient6051"
       gradientUnits="userSpaceOnUse"
       gradientTransform="translate(3.8146973e-7,924.36219)"
       x1="64"
       y1="188"
       x2="64"
       y2="8" />
    <radialGradient
       inkscape:collect="always"
       xlink:href="#linearGradient7006-8"
       id="radialGradient6053"
       gradientUnits="userSpaceOnUse"
       gradientTransform="translate(3.8146973e-7,924.36219)"
       cx="88"
       cy="36"
       fx="88"
       fy="36"
       r="51" />
    <linearGradient
       id="linearGradient4216-4-8-2-63">
      <stop
         id="stop4218-8-0-7-1"
         offset="0"
         style="stop-color:#494949;stop-opacity:1;" />
      <stop
         id="stop4220-1-6-4-7"
         offset="1"
         style="stop-color:#0f0f0f;stop-opacity:1;" />
    </linearGradient>
    <radialGradient
       r="8"
       fy="118"
       fx="154"
       cy="118"
       cx="154"
       gradientTransform="matrix(1.25,0,0,1.25,-68.638352,946.43212)"
       gradientUnits="userSpaceOnUse"
       id="radialGradient3583"
       xlink:href="#linearGradient4216-4-8-2-63"
       inkscape:collect="always" />
    <radialGradient
       inkscape:collect="always"
       xlink:href="#linearGradient7110"
       id="radialGradient6843"
       gradientUnits="userSpaceOnUse"
       gradientTransform="matrix(0.46561125,-1.0029102e-8,0,0.46561122,126.53352,977.79338)"
       cx="84"
       cy="51.341217"
       fx="84"
       fy="51.341217"
       r="40.046875" />
    <radialGradient
       inkscape:collect="always"
       xlink:href="#linearGradient7110"
       id="radialGradient6856"
       gradientUnits="userSpaceOnUse"
       gradientTransform="matrix(1.2527914,-2.6984685e-8,0,1.2527914,-26.04615,911.87553)"
       cx="84"
       cy="51.341217"
       fx="84"
       fy="51.341217"
       r="40.046875" />
    <radialGradient
       inkscape:collect="always"
       xlink:href="#linearGradient7110-0"
       id="radialGradient6861"
       cx="150.00002"
       cy="122.00002"
       fx="150.00002"
       fy="122.00002"
       r="8"
       gradientUnits="userSpaceOnUse"
       gradientTransform="matrix(-1,0,0,-1,304.00002,1164.3622)" />
    <linearGradient
       id="linearGradient7110-0">
      <stop
         style="stop-color:#5a5a5a;stop-opacity:1;"
         offset="0"
         id="stop7112-4" />
      <stop
         style="stop-color:#202020;stop-opacity:1;"
         offset="1"
         id="stop7114-0" />
    </linearGradient>
    <radialGradient
       r="8"
       fy="122.00002"
       fx="150.00002"
       cy="122.00002"
       cx="150.00002"
       gradientTransform="matrix(-1,0,0,-1,288.00002,1188.3622)"
       gradientUnits="userSpaceOnUse"
       id="radialGradient3224"
       xlink:href="#linearGradient7110-0"
       inkscape:collect="always" />
    <radialGradient
       inkscape:collect="always"
       xlink:href="#linearGradient7110"
       id="radialGradient3823"
       gradientUnits="userSpaceOnUse"
       gradientTransform="matrix(1.1932292,-2.5701735e-8,0,1.1932291,-21.765022,916.27429)"
       cx="84"
       cy="51.341217"
       fx="84"
       fy="51.341217"
       r="40.046875" />
  </defs>
  <metadata
     id="metadata7">
    <rdf:RDF>
      <cc:Work
         rdf:about="">
        <dc:format>image/svg+xml</dc:format>
        <dc:type
           rdf:resource="http://purl.org/dc/dcmitype/StillImage" />
        <dc:title />
      </cc:Work>
    </rdf:RDF>
  </metadata>
  <g
     transform="translate(0,-924.36218)"
     id="layer1"
     inkscape:groupmode="layer"
     inkscape:label="Layer 1">
    <path
       inkscape:connector-curvature="0"
       id="path7177"
       d="m 148.9964,992.37528 c -1.10336,0 -1.99781,0.89446 -1.99781,1.99782 0,1.10336 0.89445,1.99781 1.99781,1.99781 1.10337,0 1.99782,-0.89445 1.99782,-1.99781 0,-1.10336 -0.89445,-1.99782 -1.99782,-1.99782 z m 4.81765,0.14568 0,0.50986 0,2.73659 0,0.50985 0.50986,0 0.62432,0 0.21851,0 0.29135,0 0.2081,0 0.63473,0 0.50985,0 0,-0.21851 c 0.221,0.16592 0.49547,0.26014 0.77,0.26014 0.12028,0 0.23652,-0.01 0.35378,-0.0416 l 0.29134,0 0.63473,0 0.50985,0 0,-0.11445 c 0.19351,0.10913 0.42634,0.15608 0.64513,0.15608 0.12675,0 0.25188,-0.009 0.37459,-0.0416 l 0.29135,0 0.63472,0 0.50986,0 0,-0.2081 c 0.21551,0.16813 0.49245,0.24973 0.75959,0.24973 0.1168,0 0.22968,-0.0104 0.34337,-0.0416 l 0.30176,0 0.63472,0 0.50986,0 0.0936,0 0.63472,0 0.29135,0 c 0.11771,0.0318 0.24331,0.052 0.36418,0.052 0.37642,0 0.75162,-0.18654 0.9885,-0.47864 0.23717,-0.29423 0.34337,-0.68142 0.34338,-1.07175 -1e-5,-0.38948 -0.10638,-0.75763 -0.34338,-1.05093 -4.8e-4,-7.4e-4 4.8e-4,-0.0101 0,-0.0104 -0.23658,-0.29226 -0.6121,-0.47864 -0.9885,-0.47864 -0.0486,0 -0.10749,0.0158 -0.15608,0.0208 l 0,-0.22892 0,-0.50986 -0.49945,0 -0.63472,0 -0.49946,0 0,0.50986 0,0.26013 -0.10405,0 -0.63472,0 -0.20811,0 -0.29135,0 -0.21851,0 -0.62432,0 -0.50985,0 0,0.27054 c -0.29373,-0.24455 -0.66472,-0.32256 -1.07175,-0.32256 -0.15665,0 -0.31212,0.0112 -0.46824,0.0312 -0.15494,0.0189 -0.30497,0.0564 -0.45783,0.0937 l -0.0104,0 0,-0.33297 0,-0.50986 -0.50986,0 -0.63473,0 -0.49945,0 0,0.50986 0,0.22892 c -0.0476,-0.005 -0.0981,-0.0208 -0.14567,-0.0208 -0.37641,0 -0.75192,0.18639 -0.98851,0.47864 -3.1e-4,2.5e-4 3.2e-4,0.0101 0,0.0104 -0.003,0.004 -0.007,0.007 -0.0104,0.0104 -0.0232,-0.0347 -0.0453,-0.0715 -0.0728,-0.10405 -0.22111,-0.2617 -0.57508,-0.3954 -0.90526,-0.39541 -0.05,0 -0.0957,0.0151 -0.14567,0.0208 l 0,-0.22891 0,-0.50987 -0.50986,0 -0.62432,0 -0.50986,0 z m 13.9639,0.76999 0,0.50986 0,1.19661 c 0,0.34123 0.0805,0.67584 0.30175,0.93647 0.22283,0.25996 0.57428,0.385 0.90526,0.385 0.1168,0 0.22968,-0.0104 0.34337,-0.0416 l 0.30176,0 0.63472,0 0.46824,0 0.0416,0 1.71687,0 0.50986,0 0,-0.50985 0,-0.44743 0,-0.50986 -0.35378,0 0.20811,-0.21851 0.14567,-0.14567 0,-0.20811 0,-0.43702 0,-0.50986 -0.50986,0 -1.71687,0 -0.50986,0 -0.63472,0 -0.20811,0 -0.29135,0 -0.2081,0 -0.63472,0 -0.50986,0 z m -18.78155,0.0832 c 0.5534,0 0.99891,0.44551 0.99891,0.99891 0,0.55339 -0.44551,0.9989 -0.99891,0.9989 -0.55339,0 -0.9989,-0.44551 -0.9989,-0.9989 0,-0.5534 0.44551,-0.99891 0.9989,-0.99891 z m 0,5.66048 c -1.10336,0 -1.99781,0.89445 -1.99781,1.99787 0,1.1033 0.89445,1.9978 1.99781,1.9978 1.10337,0 1.99782,-0.8945 1.99782,-1.9978 0,-1.10342 -0.89445,-1.99787 -1.99782,-1.99787 z m 4.81765,0.14567 0,0.50986 0,2.73664 0,0.5099 0.50986,0 0.62432,0 0.21851,0 0.29135,0 0.2081,0 0.63473,0 0.50985,0 0,-0.2186 c 0.221,0.166 0.49547,0.2602 0.77,0.2602 0.12028,0 0.23652,-0.01 0.35378,-0.042 l 0.29134,0 0.63473,0 0.50985,0 0,-0.1145 c 0.19351,0.1091 0.42634,0.1561 0.64513,0.1561 0.12675,0 0.25188,-0.01 0.37459,-0.042 l 0.29135,0 0.63472,0 0.50986,0 0,-0.2082 c 0.21551,0.1682 0.49245,0.2498 0.75959,0.2498 0.1168,0 0.22968,-0.01 0.34337,-0.042 l 0.30176,0 0.63472,0 0.50986,0 0.0936,0 0.63472,0 0.29135,0 c 0.11771,0.032 0.24331,0.052 0.36418,0.052 0.37642,0 0.75162,-0.1866 0.9885,-0.4787 0.23717,-0.2942 0.34337,-0.6814 0.34338,-1.0717 -1e-5,-0.3895 -0.10638,-0.7576 -0.34338,-1.0509 -4.8e-4,-8e-4 4.8e-4,-0.01 0,-0.01 -0.23658,-0.2922 -0.6121,-0.47863 -0.9885,-0.47863 -0.0486,0 -0.10749,0.0158 -0.15608,0.0208 l 0,-0.22891 0,-0.50986 -0.49945,0 -0.63472,0 -0.49946,0 0,0.50986 0,0.26013 -0.10405,0 -0.63472,0 -0.20811,0 -0.29135,0 -0.21851,0 -0.62432,0 -0.50985,0 0,0.27051 c -0.29373,-0.24452 -0.66472,-0.32254 -1.07175,-0.32254 -0.15665,0 -0.31212,0.0112 -0.46824,0.0312 -0.15494,0.0189 -0.30497,0.0564 -0.45783,0.0937 l -0.0104,0 0,-0.33302 0,-0.50986 -0.50986,0 -0.63473,0 -0.49945,0 0,0.50986 0,0.22891 c -0.0476,-0.005 -0.0981,-0.0208 -0.14567,-0.0208 -0.37641,0 -0.75192,0.18641 -0.98851,0.47871 -3.1e-4,2e-4 3.2e-4,0.01 0,0.01 -0.003,0 -0.007,0.01 -0.0104,0.01 -0.0232,-0.035 -0.0453,-0.072 -0.0728,-0.1041 -0.22111,-0.2617 -0.57508,-0.39541 -0.90526,-0.39541 -0.05,0 -0.0957,0.0151 -0.14567,0.0208 l 0,-0.22892 0,-0.50986 -0.50986,0 -0.62432,0 -0.50986,0 z m 13.9639,0.76999 0,0.50991 0,1.1966 c 0,0.3412 0.0805,0.6758 0.30175,0.9365 0.22283,0.2599 0.57428,0.385 0.90526,0.385 0.1168,0 0.22968,-0.01 0.34337,-0.042 l 0.30176,0 0.63472,0 0.46824,0 0.0416,0 1.71687,0 0.50986,0 0,-0.5099 0,-0.4474 0,-0.5099 -0.35378,0 0.20811,-0.2185 0.14567,-0.1457 0,-0.2081 0,-0.437 0,-0.50991 -0.50986,0 -1.71687,0 -0.50986,0 -0.63472,0 -0.20811,0 -0.29135,0 -0.2081,0 -0.63472,0 -0.50986,0 z m -18.78155,0.0833 c 0.55169,0 0.99891,0.4472 0.99891,0.9989 0,0.5517 -0.44722,0.9989 -0.99891,0.9989 -0.55168,0 -0.9989,-0.4472 -0.9989,-0.9989 0,-0.5517 0.44722,-0.9989 0.9989,-0.9989 z m 0,5.6605 c -1.10336,0 -1.99781,0.8944 -1.99781,1.9978 0,1.1033 0.89445,1.9978 1.99781,1.9978 1.10337,0 1.99782,-0.8945 1.99782,-1.9978 0,-1.1034 -0.89445,-1.9978 -1.99782,-1.9978 z m 4.81765,0.1456 0,0.5099 0,2.7366 0,0.5098 0.50986,0 0.62432,0 0.21851,0 0.29135,0 0.2081,0 0.63473,0 0.50985,0 0,-0.2185 c 0.221,0.1659 0.49547,0.2601 0.77,0.2601 0.12028,0 0.23652,-0.01 0.35378,-0.042 l 0.29134,0 0.63473,0 0.50985,0 0,-0.1144 c 0.19351,0.1091 0.42634,0.156 0.64513,0.156 0.12675,0 0.25188,-0.01 0.37459,-0.042 l 0.29135,0 0.63472,0 0.50986,0 0,-0.2081 c 0.21551,0.1682 0.49245,0.2497 0.75959,0.2497 0.1168,0 0.22968,-0.01 0.34337,-0.042 l 0.30176,0 0.63472,0 0.50986,0 0.0936,0 0.63472,0 0.29135,0 c 0.11771,0.032 0.24331,0.052 0.36418,0.052 0.37642,0 0.75162,-0.1865 0.9885,-0.4786 0.23717,-0.2942 0.34337,-0.6814 0.34338,-1.0717 -1e-5,-0.3895 -0.10638,-0.7577 -0.34338,-1.051 -4.8e-4,0 4.8e-4,-0.01 0,-0.01 -0.23658,-0.2922 -0.6121,-0.4786 -0.9885,-0.4786 -0.0486,0 -0.10749,0.016 -0.15608,0.021 l 0,-0.2289 0,-0.5099 -0.49945,0 -0.63472,0 -0.49946,0 0,0.5099 0,0.2601 -0.10405,0 -0.63472,0 -0.20811,0 -0.29135,0 -0.21851,0 -0.62432,0 -0.50985,0 0,0.2706 c -0.29373,-0.2446 -0.66472,-0.3226 -1.07175,-0.3226 -0.15665,0 -0.31212,0.011 -0.46824,0.031 -0.15494,0.019 -0.30497,0.057 -0.45783,0.094 l -0.0104,0 0,-0.333 0,-0.5099 -0.50986,0 -0.63473,0 -0.49945,0 0,0.5099 0,0.2289 c -0.0476,0 -0.0981,-0.021 -0.14567,-0.021 -0.37641,0 -0.75192,0.1864 -0.98851,0.4786 -3.1e-4,3e-4 3.2e-4,0.01 0,0.01 -0.003,0 -0.007,0.01 -0.0104,0.01 -0.0232,-0.035 -0.0453,-0.072 -0.0728,-0.1041 -0.22111,-0.2617 -0.57508,-0.3954 -0.90526,-0.3954 -0.05,0 -0.0957,0.015 -0.14567,0.021 l 0,-0.2289 0,-0.5099 -0.50986,0 -0.62432,0 -0.50986,0 z m 13.9639,0.77 0,0.5099 0,1.1966 c 0,0.3412 0.0805,0.6758 0.30175,0.9365 0.22283,0.2599 0.57428,0.3849 0.90526,0.3849 0.1168,0 0.22968,-0.01 0.34337,-0.042 l 0.30176,0 0.63472,0 0.46824,0 0.0416,0 1.71687,0 0.50986,0 0,-0.5098 0,-0.4475 0,-0.5098 -0.35378,0 0.20811,-0.2185 0.14567,-0.1457 0,-0.2081 0,-0.437 0,-0.5099 -0.50986,0 -1.71687,0 -0.50986,0 -0.63472,0 -0.20811,0 -0.29135,0 -0.2081,0 -0.63472,0 -0.50986,0 z m -18.78155,0.083 c 0.55169,0 0.99891,0.4472 0.99891,0.9989 0,0.5516 -0.44722,0.9989 -0.99891,0.9989 -0.55168,0 -0.9989,-0.4473 -0.9989,-0.9989 0,-0.5517 0.44722,-0.9989 0.9989,-0.9989 z m 0,5.6604 c -1.10336,0 -1.99781,0.8945 -1.99781,1.9979 0,1.1033 0.89445,1.9978 1.99781,1.9978 1.10337,0 1.99782,-0.8945 1.99782,-1.9978 0,-1.1034 -0.89445,-1.9979 -1.99782,-1.9979 z m 4.81765,0.1457 0,0.5099 0,2.7366 0,0.5098 0.50986,0 0.62432,0 0.21851,0 0.29135,0 0.2081,0 0.63473,0 0.50985,0 0,-0.2185 c 0.221,0.1659 0.49547,0.2601 0.77,0.2601 0.12028,0 0.23652,-0.01 0.35378,-0.042 l 0.29134,0 0.63473,0 0.50985,0 0,-0.1144 c 0.19351,0.1091 0.42634,0.156 0.64513,0.156 0.12675,0 0.25188,-0.01 0.37459,-0.042 l 0.29135,0 0.63472,0 0.50986,0 0,-0.2081 c 0.21551,0.1682 0.49245,0.2497 0.75959,0.2497 0.1168,0 0.22968,-0.01 0.34337,-0.042 l 0.30176,0 0.63472,0 0.50986,0 0.0936,0 0.63472,0 0.29135,0 c 0.11771,0.031 0.24331,0.052 0.36418,0.052 0.37642,0 0.75162,-0.1866 0.9885,-0.4787 0.23717,-0.2942 0.34337,-0.6814 0.34338,-1.0717 -1e-5,-0.3895 -0.10638,-0.7577 -0.34338,-1.051 -4.8e-4,0 4.8e-4,-0.01 0,-0.01 -0.23658,-0.2923 -0.6121,-0.4787 -0.9885,-0.4787 -0.0486,0 -0.10749,0.016 -0.15608,0.021 l 0,-0.2289 0,-0.5098 -0.49945,0 -0.63472,0 -0.49946,0 0,0.5098 0,0.2602 -0.10405,0 -0.63472,0 -0.20811,0 -0.29135,0 -0.21851,0 -0.62432,0 -0.50985,0 0,0.2705 c -0.29373,-0.2445 -0.66472,-0.3226 -1.07175,-0.3226 -0.15665,0 -0.31212,0.011 -0.46824,0.031 -0.15494,0.019 -0.30497,0.057 -0.45783,0.094 l -0.0104,0 0,-0.333 0,-0.5098 -0.50986,0 -0.63473,0 -0.49945,0 0,0.5098 0,0.2289 c -0.0476,-0.01 -0.0981,-0.021 -0.14567,-0.021 -0.37641,0 -0.75192,0.1864 -0.98851,0.4787 -3.1e-4,2e-4 3.2e-4,0.01 0,0.01 -0.003,0 -0.007,0.01 -0.0104,0.01 -0.0232,-0.035 -0.0453,-0.072 -0.0728,-0.1041 -0.22111,-0.2616 -0.57508,-0.3954 -0.90526,-0.3954 -0.05,0 -0.0957,0.015 -0.14567,0.021 l 0,-0.2289 0,-0.5099 -0.50986,0 -0.62432,0 -0.50986,0 z m 13.9639,0.77 0,0.5099 0,1.1966 c 0,0.3412 0.0805,0.6758 0.30175,0.9365 0.22283,0.2599 0.57428,0.3849 0.90526,0.3849 0.1168,0 0.22968,-0.01 0.34337,-0.042 l 0.30176,0 0.63472,0 0.46824,0 0.0416,0 1.71687,0 0.50986,0 0,-0.5098 0,-0.4474 0,-0.5099 -0.35378,0 0.20811,-0.2185 0.14567,-0.1457 0,-0.2081 0,-0.437 0,-0.5099 -0.50986,0 -1.71687,0 -0.50986,0 -0.63472,0 -0.20811,0 -0.29135,0 -0.2081,0 -0.63472,0 -0.50986,0 z m -18.78155,0.083 c 0.55169,0 0.99891,0.4473 0.99891,0.999 0,0.5516 -0.44722,0.9989 -0.99891,0.9989 -0.55168,0 -0.9989,-0.4473 -0.9989,-0.9989 0,-0.5517 0.44722,-0.999 0.9989,-0.999 z"
       style="fill:url(#radialGradient6843);fill-opacity:1;stroke:#000000;stroke-width:1;stroke-linecap:round;stroke-linejoin:round;stroke-miterlimit:4;stroke-opacity:0.18823529999999999;stroke-dasharray:none;stroke-dashoffset:0" />
    <rect
       ry="8"
       rx="8"
       y="936.36218"
       x="12"
       height="104"
       width="104"
       id="rect6938"
       style="fill:#000000;fill-opacity:1;stroke:none;filter:url(#filter6960)" />
    <rect
       style="fill:url(#radialGradient6049);fill-opacity:1;stroke:none"
       id="rect6936-6"
       width="104"
       height="104"
       x="12"
       y="936.36218"
       rx="8"
       ry="8" />
    <rect
       ry="8"
       rx="8"
       y="932.36218"
       x="12"
       height="104"
       width="104"
       id="rect6964-2"
       style="fill:#ffffff;fill-opacity:1;stroke:none" />
    <rect
       style="opacity:0.5;fill:url(#linearGradient6051);fill-opacity:1;stroke:none"
       id="rect6975"
       width="102"
       height="102"
       x="13"
       y="933.36218"
       rx="8"
       ry="8" />
    <rect
       ry="8"
       rx="8"
       y="933.36218"
       x="13"
       height="102"
       width="102"
       id="rect7002"
       style="opacity:0.5;fill:url(#radialGradient6053);fill-opacity:1;stroke:none" />
    <text
       xml:space="preserve"
       style="font-size:24px;font-style:normal;font-weight:normal;line-height:125%;letter-spacing:0px;word-spacing:0px;fill:#000000;fill-opacity:1;stroke:none;font-family:Sans"
       x="-56"
       y="948.36218"
       id="text5893"
       sodipodi:linespacing="125%"><tspan
         sodipodi:role="line"
         id="tspan5895"
         x="-56"
         y="948.36218">128</tspan></text>
    <text
       sodipodi:linespacing="125%"
       id="text5901"
       y="1000.3622"
       x="184"
       style="font-size:16px;font-style:normal;font-weight:normal;line-height:125%;letter-spacing:0px;word-spacing:0px;fill:#000000;fill-opacity:1;stroke:none;font-family:Sans"
       xml:space="preserve"><tspan
         y="1000.3622"
         x="184"
         id="tspan5903"
         sodipodi:role="line">31 - 17</tspan></text>
    <text
       xml:space="preserve"
       style="font-size:16px;font-style:normal;font-weight:normal;line-height:125%;letter-spacing:0px;word-spacing:0px;fill:#000000;fill-opacity:1;stroke:none;font-family:Sans"
       x="172"
       y="1048.3622"
       id="text5905"
       sodipodi:linespacing="125%"><tspan
         sodipodi:role="line"
         id="tspan5907"
         x="172"
         y="1048.3622">16</tspan></text>
    <rect
       style="fill:none;stroke:#000000;stroke-width:1;stroke-linecap:round;stroke-linejoin:round;stroke-miterlimit:4;stroke-opacity:1;stroke-dasharray:none;stroke-dashoffset:0"
       id="rect5919"
       width="40"
       height="40"
       x="140"
       y="60"
       transform="translate(0,924.36218)"
       rx="4.5902016e-07" />
    <rect
       style="fill:none;stroke:#000000;stroke-width:1;stroke-linecap:round;stroke-linejoin:round;stroke-miterlimit:4;stroke-opacity:1;stroke-dasharray:none;stroke-dashoffset:0"
       id="rect5921"
       width="24"
       height="24"
       x="140"
       y="1032.3622"
       rx="4.5902016e-07" />
    <rect
       style="fill:#b3b3b3;fill-opacity:1;stroke:none"
       id="rect6935"
       width="32"
       height="4"
       x="144"
       y="56"
       transform="translate(0,924.36218)"
       rx="4.5902016e-07" />
    <rect
       style="fill:#b3b3b3;fill-opacity:1;stroke:none"
       id="rect6937"
       width="4"
       height="32"
       x="136"
       y="64"
       transform="translate(0,924.36218)"
       rx="4.5902016e-07" />
    <rect
       style="fill:#b3b3b3;fill-opacity:1;stroke:none"
       id="rect6939"
       width="16"
       height="4"
       x="144"
       y="104"
       rx="4.5902016e-07"
       transform="translate(0,924.36218)" />
    <rect
       style="fill:#b3b3b3;fill-opacity:1;stroke:none"
       id="rect6941"
       width="4"
       height="16"
       x="136"
       y="112"
       transform="translate(0,924.36218)"
       rx="4.5902016e-07" />
    <path
       style="fill:url(#radialGradient6978);fill-opacity:1.0;stroke:none"
       d="M 145.5 112 C 144.67157 112 144 112.67157 144 113.5 C 144 114.32843 144.67157 115 145.5 115 C 146.32843 115 147 114.32843 147 113.5 C 147 112.67157 146.32843 112 145.5 112 z M 150.09375 112 C 149.48544 112 149 112.48544 149 113.09375 L 149 113.90625 C 149 114.51456 149.48544 115 150.09375 115 L 158.90625 115 C 159.51456 115 160 114.51456 160 113.90625 L 160 113.09375 C 160 112.48544 159.51456 112 158.90625 112 L 150.09375 112 z M 145.5 116 C 144.67157 116 144 116.67157 144 117.5 C 144 118.32843 144.67157 119 145.5 119 C 146.32843 119 147 118.32843 147 117.5 C 147 116.67157 146.32843 116 145.5 116 z M 150.09375 116 C 149.48544 116 149 116.48544 149 117.09375 L 149 117.90625 C 149 118.51456 149.48544 119 150.09375 119 L 158.90625 119 C 159.51456 119 160 118.51456 160 117.90625 L 160 117.09375 C 160 116.48544 159.51456 116 158.90625 116 L 150.09375 116 z M 145.5 120 C 144.67157 120 144 120.67157 144 121.5 C 144 122.32843 144.67157 123 145.5 123 C 146.32843 123 147 122.32843 147 121.5 C 147 120.67157 146.32843 120 145.5 120 z M 150.09375 120 C 149.48544 120 149 120.48544 149 121.09375 L 149 121.90625 C 149 122.51456 149.48544 123 150.09375 123 L 158.90625 123 C 159.51456 123 160 122.51456 160 121.90625 L 160 121.09375 C 160 120.48544 159.51456 120 158.90625 120 L 150.09375 120 z M 145.5 124 C 144.67157 124 144 124.67157 144 125.5 C 144 126.32843 144.67157 127 145.5 127 C 146.32843 127 147 126.32843 147 125.5 C 147 124.67157 146.32843 124 145.5 124 z M 150.09375 124 C 149.48544 124 149 124.48544 149 125.09375 L 149 125.90625 C 149 126.51456 149.48544 127 150.09375 127 L 158.90625 127 C 159.51456 127 160 126.51456 160 125.90625 L 160 125.09375 C 160 124.48544 159.51456 124 158.90625 124 L 150.09375 124 z "
       transform="translate(0,924.36218)"
       id="path5944" />
    <path
       style="fill:url(#radialGradient3823);fill-opacity:1;stroke:#000000;stroke-width:2.56271553;stroke-linecap:round;stroke-linejoin:round;stroke-miterlimit:4;stroke-opacity:0.18823529;stroke-dasharray:none;stroke-dashoffset:0"
       d="m 35.800945,953.64353 c -2.8276,0 -5.11982,2.29225 -5.11982,5.11985 0,2.82759 2.29222,5.11982 5.11982,5.11982 2.82762,0 5.11984,-2.29223 5.11984,-5.11982 0,-2.8276 -2.29222,-5.11985 -5.11984,-5.11985 z m 12.34626,0.37334 0,1.30663 0,7.0131 0,1.3066 1.30663,0 1.59995,0 0.55998,0 0.74665,0 0.5333,0 1.62663,0 1.3066,0 0,-0.55998 c 0.56636,0.4252 1.26975,0.66666 1.9733,0.66666 0.30824,0 0.60613,-0.0256 0.90663,-0.10661 l 0.74662,0 1.62664,0 1.3066,0 0,-0.2933 c 0.49591,0.27967 1.09259,0.39999 1.65328,0.39999 0.32483,0 0.6455,-0.0231 0.95997,-0.10661 l 0.74665,0 1.6266,0 1.30663,0 0,-0.5333 c 0.55229,0.43087 1.26201,0.63999 1.94661,0.63999 0.29933,0 0.58861,-0.0267 0.87996,-0.10661 l 0.77333,0 1.6266,0 1.30663,0 0.23987,0 1.62661,0 0.74664,0 c 0.30166,0.0815 0.62354,0.13326 0.93329,0.13326 0.96466,0 1.92619,-0.47805 2.53325,-1.22662 0.6078,-0.75403 0.87996,-1.74628 0.87998,-2.74659 -2e-5,-0.99813 -0.27262,-1.94159 -0.87998,-2.69323 -10e-4,-0.002 0.001,-0.0259 0,-0.0267 -0.60629,-0.74898 -1.56864,-1.22661 -2.53325,-1.22661 -0.12454,0 -0.27546,0.0405 -0.39998,0.0533 l 0,-0.58666 0,-1.30662 -1.27995,0 -1.62661,0 -1.27997,0 0,1.30662 0,0.66664 -0.26665,0 -1.62661,0 -0.53333,0 -0.74664,0 -0.55998,0 -1.59996,0 -1.3066,0 0,0.69332 c -0.75275,-0.62671 -1.70349,-0.82663 -2.74659,-0.82663 -0.40145,0 -0.79987,0.0287 -1.19997,0.08 -0.39706,0.0484 -0.78155,0.14453 -1.17328,0.24012 l -0.0267,0 0,-0.8533 0,-1.30663 -1.30662,0 -1.62663,0 -1.27995,0 0,1.30663 0,0.58665 c -0.12199,-0.0128 -0.2514,-0.0533 -0.37331,-0.0533 -0.96463,0 -1.92696,0.47766 -2.53327,1.22662 -8e-4,6.4e-4 8.2e-4,0.0259 0,0.0267 -0.008,0.0102 -0.0179,0.0179 -0.0266,0.0266 -0.0595,-0.0889 -0.1161,-0.18323 -0.18657,-0.26665 -0.56664,-0.67066 -1.47377,-1.0133 -2.31992,-1.01332 -0.12814,0 -0.24526,0.0387 -0.37332,0.0533 l 0,-0.58663 0,-1.30665 -1.30662,0 -1.59996,0 -1.30662,0 z m 35.78551,1.97326 0,1.30663 0,3.06657 c 0,0.87448 0.20629,1.73199 0.7733,2.39991 0.57105,0.6662 1.47171,0.98664 2.31992,0.98664 0.29932,0 0.5886,-0.0267 0.87996,-0.10661 l 0.77332,0 1.62661,0 1.19997,0 0.10661,0 4.39984,0 1.30663,0 0,-1.3066 0,-1.14663 0,-1.30663 -0.90664,0 0.53333,-0.55998 0.37331,-0.37331 0,-0.53332 0,-1.11996 0,-1.30663 -1.30663,0 -4.39984,0 -1.30663,0 -1.62661,0 -0.53332,0 -0.74665,0 -0.5333,0 -1.62661,0 -1.30663,0 z m -48.13177,0.21322 c 1.4182,0 2.55992,1.14172 2.55992,2.55992 0,1.41819 -1.14172,2.5599 -2.55992,2.5599 -1.41818,0 -2.5599,-1.14171 -2.5599,-2.5599 0,-1.4182 1.14172,-2.55992 2.5599,-2.55992 z m 0,14.5062 c -2.8276,0 -5.11982,2.29222 -5.11982,5.11997 0,2.82745 2.29222,5.11982 5.11982,5.11982 2.82762,0 5.11984,-2.29237 5.11984,-5.11982 0,-2.82775 -2.29222,-5.11997 -5.11984,-5.11997 z m 12.34626,0.37331 0,1.30663 0,7.01323 0,1.30672 1.30663,0 1.59995,0 0.55998,0 0.74665,0 0.5333,0 1.62663,0 1.3066,0 0,-0.5602 c 0.56636,0.4254 1.26975,0.6668 1.9733,0.6668 0.30824,0 0.60613,-0.026 0.90663,-0.1076 l 0.74662,0 1.62664,0 1.3066,0 0,-0.2934 c 0.49591,0.2795 1.09259,0.4 1.65328,0.4 0.32483,0 0.6455,-0.026 0.95997,-0.1076 l 0.74665,0 1.6266,0 1.30663,0 0,-0.5336 c 0.55229,0.431 1.26201,0.6402 1.94661,0.6402 0.29933,0 0.58861,-0.026 0.87996,-0.1077 l 0.77333,0 1.6266,0 1.30663,0 0.23987,0 1.62661,0 0.74664,0 c 0.30166,0.082 0.62354,0.1333 0.93329,0.1333 0.96466,0 1.92619,-0.4782 2.53325,-1.22678 0.6078,-0.75395 0.87996,-1.74623 0.87998,-2.74646 -2e-5,-0.99818 -0.27262,-1.94151 -0.87998,-2.69316 -10e-4,-0.002 0.001,-0.0256 0,-0.0256 -0.60629,-0.74882 -1.56864,-1.22659 -2.53325,-1.22659 -0.12454,0 -0.27546,0.0405 -0.39998,0.0533 l 0,-0.58664 0,-1.30662 -1.27995,0 -1.62661,0 -1.27997,0 0,1.30662 0,0.66664 -0.26665,0 -1.62661,0 -0.53333,0 -0.74664,0 -0.55998,0 -1.59996,0 -1.3066,0 0,0.69324 c -0.75275,-0.62663 -1.70349,-0.82657 -2.74659,-0.82657 -0.40145,0 -0.79987,0.0287 -1.19997,0.08 -0.39706,0.0484 -0.78155,0.14454 -1.17328,0.24013 l -0.0267,0 0,-0.85344 0,-1.30662 -1.30662,0 -1.62663,0 -1.27995,0 0,1.30662 0,0.58663 c -0.12199,-0.0128 -0.2514,-0.0533 -0.37331,-0.0533 -0.96463,0 -1.92696,0.47772 -2.53327,1.2268 -8e-4,5.1e-4 8.2e-4,0.0256 0,0.0256 -0.008,0 -0.0179,0.0256 -0.0266,0.0256 -0.0595,-0.0897 -0.1161,-0.18451 -0.18657,-0.26678 -0.56664,-0.67066 -1.47377,-1.01332 -2.31992,-1.01332 -0.12814,0 -0.24526,0.0387 -0.37332,0.0533 l 0,-0.58665 0,-1.30663 -1.30662,0 -1.59996,0 -1.30662,0 z m 35.78551,1.97327 0,1.30675 0,3.06655 c 0,0.8744 0.20629,1.73188 0.7733,2.39998 0.57105,0.66603 1.47171,0.98663 2.31992,0.98663 0.29932,0 0.5886,-0.026 0.87996,-0.1076 l 0.77332,0 1.62661,0 1.19997,0 0.10661,0 4.39984,0 1.30663,0 0,-1.30675 0,-1.14656 0,-1.30672 -0.90664,0 0.53333,-0.55996 0.37331,-0.37339 0,-0.5333 0,-1.1199 0,-1.30676 -1.30663,0 -4.39984,0 -1.30663,0 -1.62661,0 -0.53332,0 -0.74665,0 -0.5333,0 -1.62661,0 -1.30663,0 z m -48.13177,0.21347 c 1.41382,0 2.55992,1.14605 2.55992,2.5599 0,1.41385 -1.1461,2.5599 -2.55992,2.5599 -1.4138,0 -2.5599,-1.14605 -2.5599,-2.5599 0,-1.41385 1.1461,-2.5599 2.5599,-2.5599 z m 0,14.50624 c -2.8276,0 -5.11982,2.2921 -5.11982,5.1198 0,2.8274 2.29222,5.1198 5.11982,5.1198 2.82762,0 5.11984,-2.2924 5.11984,-5.1198 0,-2.8277 -2.29222,-5.1198 -5.11984,-5.1198 z m 12.34626,0.3731 0,1.3068 0,7.0131 0,1.3065 1.30663,0 1.59995,0 0.55998,0 0.74665,0 0.5333,0 1.62663,0 1.3066,0 0,-0.56 c 0.56636,0.4252 1.26975,0.6666 1.9733,0.6666 0.30824,0 0.60613,-0.026 0.90663,-0.1077 l 0.74662,0 1.62664,0 1.3066,0 0,-0.2931 c 0.49591,0.2796 1.09259,0.3998 1.65328,0.3998 0.32483,0 0.6455,-0.026 0.95997,-0.1077 l 0.74665,0 1.6266,0 1.30663,0 0,-0.5333 c 0.55229,0.4311 1.26201,0.6399 1.94661,0.6399 0.29933,0 0.58861,-0.026 0.87996,-0.1076 l 0.77333,0 1.6266,0 1.30663,0 0.23987,0 1.62661,0 0.74664,0 c 0.30166,0.082 0.62354,0.1333 0.93329,0.1333 0.96466,0 1.92619,-0.478 2.53325,-1.2266 0.6078,-0.7539 0.87996,-1.7462 0.87998,-2.7464 -2e-5,-0.9982 -0.27262,-1.9418 -0.87998,-2.6934 -10e-4,0 0.001,-0.026 0,-0.026 -0.60629,-0.7488 -1.56864,-1.2265 -2.53325,-1.2265 -0.12454,0 -0.27546,0.041 -0.39998,0.054 l 0,-0.5866 0,-1.3067 -1.27995,0 -1.62661,0 -1.27997,0 0,1.3067 0,0.6666 -0.26665,0 -1.62661,0 -0.53333,0 -0.74664,0 -0.55998,0 -1.59996,0 -1.3066,0 0,0.6935 c -0.75275,-0.6269 -1.70349,-0.8268 -2.74659,-0.8268 -0.40145,0 -0.79987,0.028 -1.19997,0.079 -0.39706,0.049 -0.78155,0.1461 -1.17328,0.2409 l -0.0267,0 0,-0.8534 0,-1.3067 -1.30662,0 -1.62663,0 -1.27995,0 0,1.3067 0,0.5866 c -0.12199,0 -0.2514,-0.054 -0.37331,-0.054 -0.96463,0 -1.92696,0.4777 -2.53327,1.2265 -8e-4,8e-4 8.2e-4,0.026 0,0.026 -0.008,0 -0.0179,0.026 -0.0266,0.026 -0.0595,-0.09 -0.1161,-0.1846 -0.18657,-0.2668 -0.56664,-0.6707 -1.47377,-1.0133 -2.31992,-1.0133 -0.12814,0 -0.24526,0.038 -0.37332,0.054 l 0,-0.5866 0,-1.3067 -1.30662,0 -1.59996,0 -1.30662,0 z m 35.78551,1.9733 0,1.3068 0,3.0665 c 0,0.8744 0.20629,1.7319 0.7733,2.4 0.57105,0.666 1.47171,0.9864 2.31992,0.9864 0.29932,0 0.5886,-0.026 0.87996,-0.1077 l 0.77332,0 1.62661,0 1.19997,0 0.10661,0 4.39984,0 1.30663,0 0,-1.3064 0,-1.1468 0,-1.3065 -0.90664,0 0.53333,-0.56 0.37331,-0.3734 0,-0.5333 0,-1.1199 0,-1.3067 -1.30663,0 -4.39984,0 -1.30663,0 -1.62661,0 -0.53332,0 -0.74665,0 -0.5333,0 -1.62661,0 -1.30663,0 z m -48.13177,0.2127 c 1.41382,0 2.55992,1.1461 2.55992,2.5599 0,1.4136 -1.1461,2.5599 -2.55992,2.5599 -1.4138,0 -2.5599,-1.1463 -2.5599,-2.5599 0,-1.4138 1.1461,-2.5599 2.5599,-2.5599 z m 0,14.50596 c -2.8276,0 -5.11982,2.2924 -5.11982,5.1201 0,2.8274 2.29222,5.1198 5.11982,5.1198 2.82762,0 5.11984,-2.2924 5.11984,-5.1198 0,-2.8277 -2.29222,-5.1201 -5.11984,-5.1201 z m 12.34626,0.3734 0,1.3068 0,7.0131 0,1.3065 1.30663,0 1.59995,0 0.55998,0 0.74665,0 0.5333,0 1.62663,0 1.3066,0 0,-0.56 c 0.56636,0.4252 1.26975,0.6666 1.9733,0.6666 0.30824,0 0.60613,-0.026 0.90663,-0.1077 l 0.74662,0 1.62664,0 1.3066,0 0,-0.2931 c 0.49591,0.2795 1.09259,0.3997 1.65328,0.3997 0.32483,0 0.6455,-0.026 0.95997,-0.1076 l 0.74665,0 1.6266,0 1.30663,0 0,-0.5333 c 0.55229,0.431 1.26201,0.6399 1.94661,0.6399 0.29933,0 0.58861,-0.026 0.87996,-0.1076 l 0.77333,0 1.6266,0 1.30663,0 0.23987,0 1.62661,0 0.74664,0 c 0.30166,0.079 0.62354,0.1332 0.93329,0.1332 0.96466,0 1.92619,-0.4782 2.53325,-1.2267 0.6078,-0.754 0.87996,-1.7463 0.87998,-2.7465 -2e-5,-0.9982 -0.27262,-1.9418 -0.87998,-2.6934 -10e-4,0 0.001,-0.026 0,-0.026 -0.60629,-0.7491 -1.56864,-1.2268 -2.53325,-1.2268 -0.12454,0 -0.27546,0.041 -0.39998,0.054 l 0,-0.5866 0,-1.3065 -1.27995,0 -1.62661,0 -1.27997,0 0,1.3065 0,0.6668 -0.26665,0 -1.62661,0 -0.53333,0 -0.74664,0 -0.55998,0 -1.59996,0 -1.3066,0 0,0.6932 c -0.75275,-0.6265 -1.70349,-0.8267 -2.74659,-0.8267 -0.40145,0 -0.79987,0.028 -1.19997,0.079 -0.39706,0.049 -0.78155,0.1461 -1.17328,0.2409 l -0.0267,0 0,-0.8533 0,-1.3065 -1.30662,0 -1.62663,0 -1.27995,0 0,1.3065 0,0.5866 c -0.12199,-0.026 -0.2514,-0.054 -0.37331,-0.054 -0.96463,0 -1.92696,0.4777 -2.53327,1.2268 -8e-4,5e-4 8.2e-4,0.026 0,0.026 -0.008,0 -0.0179,0.026 -0.0266,0.026 -0.0595,-0.09 -0.1161,-0.1845 -0.18657,-0.2668 -0.56664,-0.6704 -1.47377,-1.0133 -2.31992,-1.0133 -0.12814,0 -0.24526,0.038 -0.37332,0.054 l 0,-0.5866 0,-1.3067 -1.30662,0 -1.59996,0 -1.30662,0 z m 35.78551,1.9733 0,1.3067 0,3.0666 c 0,0.8744 0.20629,1.7319 0.7733,2.4 0.57105,0.666 1.47171,0.9864 2.31992,0.9864 0.29932,0 0.5886,-0.026 0.87996,-0.1077 l 0.77332,0 1.62661,0 1.19997,0 0.10661,0 4.39984,0 1.30663,0 0,-1.3064 0,-1.1466 0,-1.3067 -0.90664,0 0.53333,-0.56 0.37331,-0.3734 0,-0.5333 0,-1.1199 0,-1.3067 -1.30663,0 -4.39984,0 -1.30663,0 -1.62661,0 -0.53332,0 -0.74665,0 -0.5333,0 -1.62661,0 -1.30663,0 z m -48.13177,0.2127 c 1.41382,0 2.55992,1.1463 2.55992,2.5602 0,1.4136 -1.1461,2.5599 -2.55992,2.5599 -1.4138,0 -2.5599,-1.1463 -2.5599,-2.5599 0,-1.4139 1.1461,-2.5602 2.5599,-2.5602 z"
       id="path3821"
       inkscape:connector-curvature="0" />
  </g>
</svg>
