<?xml version="1.0" encoding="UTF-8" standalone="no"?>
<!-- Created with Inkscape (http://www.inkscape.org/) -->

<svg
   xmlns:dc="http://purl.org/dc/elements/1.1/"
   xmlns:cc="http://creativecommons.org/ns#"
   xmlns:rdf="http://www.w3.org/1999/02/22-rdf-syntax-ns#"
   xmlns:svg="http://www.w3.org/2000/svg"
   xmlns="http://www.w3.org/2000/svg"
   xmlns:xlink="http://www.w3.org/1999/xlink"
   xmlns:sodipodi="http://sodipodi.sourceforge.net/DTD/sodipodi-0.dtd"
   xmlns:inkscape="http://www.inkscape.org/namespaces/inkscape"
   sodipodi:docname="edit-select-all.svg"
   inkscape:version="0.48.4 r9939"
   version="1.1"
   id="svg2"
   height="128"
   width="128">
  <sodipodi:namedview
     id="base"
     pagecolor="#ffffff"
     bordercolor="#666666"
     borderopacity="1.0"
     inkscape:pageopacity="0.0"
     inkscape:pageshadow="2"
     inkscape:zoom="3.6203869"
     inkscape:cx="140.91014"
     inkscape:cy="23.276868"
     inkscape:document-units="px"
     inkscape:current-layer="layer1"
     showgrid="true"
     showguides="true"
     inkscape:guide-bbox="true"
     inkscape:window-width="1221"
     inkscape:window-height="1000"
     inkscape:window-x="59"
     inkscape:window-y="24"
     inkscape:window-maximized="1">
    <inkscape:grid
       snapvisiblegridlinesonly="true"
       enabled="true"
       visible="true"
       empspacing="4"
       id="grid2985"
       type="xygrid" />
  </sodipodi:namedview>
  <defs
     id="defs4">
    <linearGradient
       id="linearGradient10061">
      <stop
         style="stop-color:#b3b3b3;stop-opacity:1;"
         offset="0"
         id="stop10063" />
      <stop
         style="stop-color:#b3b3b3;stop-opacity:0;"
         offset="1"
         id="stop10065" />
    </linearGradient>
    <linearGradient
       id="linearGradient7110">
      <stop
         style="stop-color:#5a5a5a;stop-opacity:1;"
         offset="0"
         id="stop7112" />
      <stop
         style="stop-color:#202020;stop-opacity:1;"
         offset="1"
         id="stop7114" />
    </linearGradient>
    <linearGradient
       id="linearGradient4216-4-8-2">
      <stop
         id="stop4218-8-0-7"
         offset="0"
         style="stop-color:#494949;stop-opacity:1;" />
      <stop
         id="stop4220-1-6-4"
         offset="1"
         style="stop-color:#0f0f0f;stop-opacity:1;" />
    </linearGradient>
    <radialGradient
       inkscape:collect="always"
       xlink:href="#linearGradient4216-4-8-2"
       id="radialGradient5899"
       gradientUnits="userSpaceOnUse"
       gradientTransform="translate(0,2)"
       cx="64"
       cy="1020.3622"
       fx="64"
       fy="1020.3622"
       r="52" />
    <radialGradient
       inkscape:collect="always"
       xlink:href="#linearGradient7110"
       id="radialGradient7116"
       cx="80"
       cy="972.36218"
       fx="80"
       fy="972.36218"
       r="52.5"
       gradientUnits="userSpaceOnUse" />
    <linearGradient
       id="linearGradient6964-4">
      <stop
         style="stop-color:#ffffff;stop-opacity:1;"
         offset="0"
         id="stop6966-4" />
      <stop
         style="stop-color:#cacaca;stop-opacity:1;"
         offset="1"
         id="stop6970-3" />
    </linearGradient>
    <radialGradient
       inkscape:collect="always"
       xlink:href="#linearGradient6964-4"
       id="radialGradient10192"
       cx="154"
       cy="118"
       fx="154"
       fy="118"
       r="8"
       gradientUnits="userSpaceOnUse"
       gradientTransform="matrix(1.25,0,0,1.25,-38.5,-29.5)" />
    <radialGradient
       inkscape:collect="always"
       xlink:href="#linearGradient6964-4"
       id="radialGradient10196"
       gradientUnits="userSpaceOnUse"
       gradientTransform="matrix(5.625,0,0,5.625,-793.25,313.61216)"
       cx="154"
       cy="118"
       fx="154"
       fy="118"
       r="8" />
    <radialGradient
       inkscape:collect="always"
       xlink:href="#linearGradient6964-4"
       id="radialGradient10212"
       gradientUnits="userSpaceOnUse"
       gradientTransform="matrix(5.625,0,0,5.625,-793.25,313.61216)"
       cx="154"
       cy="118"
       fx="154"
       fy="118"
       r="8" />
    <radialGradient
       inkscape:collect="always"
       xlink:href="#linearGradient8794-33"
       id="radialGradient6967"
       gradientUnits="userSpaceOnUse"
       gradientTransform="matrix(0.78722727,0,0,1.1316392,13.617455,-8.16161)"
       cx="84"
       cy="46.695652"
       fx="84"
       fy="46.695652"
       r="32" />
    <linearGradient
       id="linearGradient8794-33">
      <stop
         style="stop-color:#ffffff;stop-opacity:1;"
         offset="0"
         id="stop8796-9" />
      <stop
         style="stop-color:#cacaca;stop-opacity:1;"
         offset="1"
         id="stop8798-6" />
    </linearGradient>
    <radialGradient
       r="32"
       fy="46.695652"
       fx="84"
       cy="46.695652"
       cx="84"
       gradientTransform="matrix(0.78722727,0,0,1.1316392,13.617455,-8.16161)"
       gradientUnits="userSpaceOnUse"
       id="radialGradient5944"
       xlink:href="#linearGradient8794-33"
       inkscape:collect="always" />
    <filter
       inkscape:collect="always"
       id="filter10255"
       x="-0.14627792"
       width="1.2925558"
       y="-0.10172563"
       height="1.2034513">
      <feGaussianBlur
         inkscape:collect="always"
         stdDeviation="3.0703125"
         id="feGaussianBlur10257" />
    </filter>
    <radialGradient
       inkscape:collect="always"
       xlink:href="#linearGradient8794-33"
       id="radialGradient10267"
       gradientUnits="userSpaceOnUse"
       gradientTransform="matrix(0.78722727,0,0,1.1316392,13.617455,-8.16161)"
       cx="84"
       cy="46.695652"
       fx="84"
       fy="46.695652"
       r="32" />
    <radialGradient
       inkscape:collect="always"
       xlink:href="#linearGradient8794-33-9"
       id="radialGradient6997"
       cx="153"
       cy="118"
       fx="153"
       fy="118"
       r="4"
       gradientTransform="matrix(1,0,0,1.5,0,-60)"
       gradientUnits="userSpaceOnUse" />
    <linearGradient
       id="linearGradient8794-33-9">
      <stop
         style="stop-color:#ffffff;stop-opacity:1;"
         offset="0"
         id="stop8796-9-5" />
      <stop
         style="stop-color:#cacaca;stop-opacity:1;"
         offset="1"
         id="stop8798-6-9" />
    </linearGradient>
    <radialGradient
       r="4"
       fy="118"
       fx="153"
       cy="118"
       cx="153"
       gradientTransform="matrix(1.333375,0,0,2.0000625,-50.673,804.35467)"
       gradientUnits="userSpaceOnUse"
       id="radialGradient5961"
       xlink:href="#linearGradient8794-33-9"
       inkscape:collect="always" />
    <radialGradient
       inkscape:collect="always"
       xlink:href="#linearGradient4216-4-8-2"
       id="radialGradient3881"
       gradientUnits="userSpaceOnUse"
       gradientTransform="translate(0,150)"
       cx="64"
       cy="1020.3622"
       fx="64"
       fy="1020.3622"
       r="52" />
    <radialGradient
       inkscape:collect="always"
       xlink:href="#linearGradient7110"
       id="radialGradient3883"
       gradientUnits="userSpaceOnUse"
       cx="80"
       cy="972.36218"
       fx="80"
       fy="972.36218"
       r="52.5"
       gradientTransform="translate(0,148)" />
    <radialGradient
       inkscape:collect="always"
       xlink:href="#linearGradient7110"
       id="radialGradient3885"
       gradientUnits="userSpaceOnUse"
       cx="80"
       cy="972.36218"
       fx="80"
       fy="972.36218"
       r="52.5"
       gradientTransform="translate(0,148)" />
    <radialGradient
       inkscape:collect="always"
       xlink:href="#linearGradient8794-33"
       id="radialGradient3887"
       gradientUnits="userSpaceOnUse"
       gradientTransform="matrix(0.78722727,0,0,1.1316392,13.617455,1064.2006)"
       cx="84"
       cy="46.695652"
       fx="84"
       fy="46.695652"
       r="32" />
    <radialGradient
       inkscape:collect="always"
       xlink:href="#linearGradient8794-33"
       id="radialGradient3889"
       gradientUnits="userSpaceOnUse"
       gradientTransform="matrix(0.78722727,0,0,1.1316392,13.617455,-8.16161)"
       cx="84"
       cy="46.695652"
       fx="84"
       fy="46.695652"
       r="32" />
    <radialGradient
       inkscape:collect="always"
       xlink:href="#linearGradient7110-2"
       id="radialGradient6997-1"
       cx="153"
       cy="118"
       fx="153"
       fy="118"
       r="4"
       gradientTransform="matrix(1,0,0,1.5,0,-60)"
       gradientUnits="userSpaceOnUse" />
    <linearGradient
       id="linearGradient7110-2">
      <stop
         style="stop-color:#5a5a5a;stop-opacity:1;"
         offset="0"
         id="stop7112-5" />
      <stop
         style="stop-color:#202020;stop-opacity:1;"
         offset="1"
         id="stop7114-2" />
    </linearGradient>
    <radialGradient
       r="4"
       fy="118"
       fx="153"
       cy="118"
       cx="153"
       gradientTransform="matrix(1,0,0,1.5,0,-60)"
       gradientUnits="userSpaceOnUse"
       id="radialGradient3051"
       xlink:href="#linearGradient7110-2"
       inkscape:collect="always" />
    <radialGradient
       inkscape:collect="always"
       xlink:href="#linearGradient8794-33-9"
       id="radialGradient3862"
       gradientUnits="userSpaceOnUse"
       gradientTransform="matrix(1,0,0,1.5,0,-60)"
       cx="153"
       cy="118"
       fx="153"
       fy="118"
       r="4" />
  </defs>
  <metadata
     id="metadata7">
    <rdf:RDF>
      <cc:Work
         rdf:about="">
        <dc:format>image/svg+xml</dc:format>
        <dc:type
           rdf:resource="http://purl.org/dc/dcmitype/StillImage" />
        <dc:title />
      </cc:Work>
    </rdf:RDF>
  </metadata>
  <g
     transform="translate(0,-924.36218)"
     id="layer1"
     inkscape:groupmode="layer"
     inkscape:label="Layer 1">
    <rect
       ry="8"
       rx="8"
       y="940.36218"
       x="12"
       height="104"
       width="104"
       id="rect6981"
       style="opacity:0.10000000000000001;fill:#000000;fill-opacity:1;stroke:#000000;stroke-width:10;stroke-miterlimit:4;stroke-dasharray:none" />
    <rect
       style="opacity:0.1;fill:#000000;fill-opacity:1;stroke:#000000;stroke-width:6;stroke-miterlimit:4;stroke-dasharray:none"
       id="rect6979"
       width="104"
       height="104"
       x="12"
       y="940.36218"
       rx="8"
       ry="8" />
    <rect
       ry="8"
       rx="8"
       y="938.36218"
       x="12"
       height="104"
       width="104"
       id="rect5969"
       style="fill:#000000;fill-opacity:1;stroke:#000000;opacity:0.20000000000000001;stroke-width:3;stroke-miterlimit:4;stroke-dasharray:none" />
    <rect
       style="fill:url(#radialGradient5899);fill-opacity:1;stroke:#1a1a1a"
       id="rect6936"
       width="104"
       height="104"
       x="12"
       y="938.36218"
       rx="8"
       ry="8" />
    <rect
       ry="8"
       rx="8"
       y="934.36218"
       x="12"
       height="104"
       width="104"
       id="rect6964"
       style="fill:url(#radialGradient7116);fill-opacity:1;stroke:#1a1a1a" />
    <text
       xml:space="preserve"
       style="font-size:24px;font-style:normal;font-weight:normal;line-height:125%;letter-spacing:0px;word-spacing:0px;fill:#000000;fill-opacity:1;stroke:none;font-family:Sans"
       x="-56"
       y="948.36218"
       id="text5893"
       sodipodi:linespacing="125%"><tspan
         sodipodi:role="line"
         id="tspan5895"
         x="-56"
         y="948.36218">128</tspan></text>
    <text
       sodipodi:linespacing="125%"
       id="text5901"
       y="1000.3622"
       x="184"
       style="font-size:16px;font-style:normal;font-weight:normal;line-height:125%;letter-spacing:0px;word-spacing:0px;fill:#000000;fill-opacity:1;stroke:none;font-family:Sans"
       xml:space="preserve"><tspan
         y="1000.3622"
         x="184"
         id="tspan5903"
         sodipodi:role="line">31 - 17</tspan></text>
    <text
       xml:space="preserve"
       style="font-size:16px;font-style:normal;font-weight:normal;line-height:125%;letter-spacing:0px;word-spacing:0px;fill:#000000;fill-opacity:1;stroke:none;font-family:Sans"
       x="172"
       y="1048.3622"
       id="text5905"
       sodipodi:linespacing="125%"><tspan
         sodipodi:role="line"
         id="tspan5907"
         x="172"
         y="1048.3622">16</tspan></text>
    <rect
       style="fill:none;stroke:#000000;stroke-width:1;stroke-linecap:round;stroke-linejoin:round;stroke-miterlimit:4;stroke-opacity:1;stroke-dasharray:none;stroke-dashoffset:0"
       id="rect5919"
       width="40"
       height="40"
       x="140"
       y="60"
       transform="translate(0,924.36218)"
       rx="4.5902016e-07" />
    <rect
       style="fill:none;stroke:#000000;stroke-width:1;stroke-linecap:round;stroke-linejoin:round;stroke-miterlimit:4;stroke-opacity:1;stroke-dasharray:none;stroke-dashoffset:0"
       id="rect5921"
       width="24"
       height="24"
       x="140"
       y="1032.3622"
       rx="4.5902016e-07" />
    <rect
       style="fill:#b3b3b3;fill-opacity:1;stroke:none"
       id="rect6935"
       width="32"
       height="4"
       x="144"
       y="56"
       transform="translate(0,924.36218)"
       rx="4.5902016e-07" />
    <rect
       style="fill:#b3b3b3;fill-opacity:1;stroke:none"
       id="rect6937"
       width="4"
       height="32"
       x="136"
       y="64"
       transform="translate(0,924.36218)"
       rx="4.5902016e-07" />
    <rect
       style="fill:#b3b3b3;fill-opacity:1;stroke:none"
       id="rect6939"
       width="16"
       height="4"
       x="144"
       y="104"
       rx="4.5902016e-07"
       transform="translate(0,924.36218)" />
    <rect
       style="fill:#b3b3b3;fill-opacity:1;stroke:none"
       id="rect6941"
       width="4"
       height="16"
       x="136"
       y="112"
       transform="translate(0,924.36218)"
       rx="4.5902016e-07" />
    <rect
       style="fill:url(#radialGradient7116);fill-opacity:1;stroke:#1a1a1a"
       id="rect12711"
       width="104"
       height="104"
       x="12"
       y="934.36218"
       rx="8"
       ry="8" />
    <path
       id="path10253"
       transform="translate(0,924.36218)"
       d="M 41.96875 25.78125 C 40.224255 25.78125 38.8125 27.19301 38.8125 28.9375 L 38.8125 95.0625 C 38.8125 96.807 40.224255 98.21875 41.96875 98.21875 L 86.03125 98.21875 C 87.775745 98.21875 89.1875 96.807 89.1875 95.0625 L 89.1875 35.21875 L 79.75 25.78125 L 41.96875 25.78125 z M 45.09375 32.09375 L 76.59375 32.09375 L 82.90625 38.375 L 82.90625 91.90625 L 45.09375 91.90625 L 45.09375 32.09375 z M 50 40 L 50 84 L 76 84 L 76 80 L 72 80 L 72 76 L 68 76 L 68 72 L 74 72 L 74 64 L 76 64 L 76 56 L 74 56 L 74 52 L 64 52 L 64 48 L 74 48 L 74 44 L 76 44 L 76 40 L 50 40 z "
       style="fill:#000000;fill-opacity:1;stroke:none;stroke-width:1.57445455000000001;stroke-miterlimit:4;stroke-opacity:0.32026145000000000;stroke-dasharray:none;filter:url(#filter10255)" />
    <path
       style="fill:url(#radialGradient5944);fill-opacity:1;stroke:#ffffff;stroke-width:1.57445455000000001;stroke-miterlimit:4;stroke-opacity:0.32026145;stroke-dasharray:none"
       d="M 41.96875 25.78125 C 40.224255 25.78125 38.8125 27.19301 38.8125 28.9375 L 38.8125 95.0625 C 38.8125 96.807 40.224255 98.21875 41.96875 98.21875 L 86.03125 98.21875 C 87.775745 98.21875 89.1875 96.807 89.1875 95.0625 L 89.1875 35.21875 L 79.75 25.78125 L 41.96875 25.78125 z M 45.09375 32.09375 L 76.59375 32.09375 L 82.90625 38.375 L 82.90625 91.90625 L 45.09375 91.90625 L 45.09375 32.09375 z M 50 40 L 50 84 L 76 84 L 76 80 L 72 80 L 72 76 L 68 76 L 68 72 L 74 72 L 74 64 L 76 64 L 76 56 L 74 56 L 74 52 L 64 52 L 64 48 L 74 48 L 74 44 L 76 44 L 76 40 L 50 40 z "
       transform="translate(0,924.36218)"
       id="rect5941" />
    <g
       id="g10263"
       transform="matrix(0.36707237,0,0,0.36707237,136.50737,642.29588)">
      <path
         id="path10259"
         transform="translate(0,924.36218)"
         d="m 41.96875,25.78125 c -1.744495,0 -3.15625,1.41176 -3.15625,3.15625 l 0,66.125 c 0,1.7445 1.411755,3.15625 3.15625,3.15625 l 44.0625,0 c 1.744495,0 3.15625,-1.41175 3.15625,-3.15625 l 0,-59.84375 -9.4375,-9.4375 -37.78125,0 z m 3.125,6.3125 31.5,0 6.3125,6.28125 0,53.53125 -37.8125,0 0,-59.8125 z M 50,40 l 0,44 26,0 0,-4 -4,0 0,-4 -4,0 0,-4 6,0 0,-8 2,0 0,-8 -2,0 0,-4 -10,0 0,-4 10,0 0,-4 2,0 0,-4 -26,0 z"
         style="fill:#000000;fill-opacity:1;stroke:none;filter:url(#filter10255)"
         inkscape:connector-curvature="0" />
      <path
         style="fill:url(#radialGradient10267);fill-opacity:1;stroke:#ffffff;stroke-width:1.57445455;stroke-miterlimit:4;stroke-opacity:0.32026146;stroke-dasharray:none"
         d="m 41.96875,25.78125 c -1.744495,0 -3.15625,1.41176 -3.15625,3.15625 l 0,66.125 c 0,1.7445 1.411755,3.15625 3.15625,3.15625 l 44.0625,0 c 1.744495,0 3.15625,-1.41175 3.15625,-3.15625 l 0,-59.84375 -9.4375,-9.4375 -37.78125,0 z m 3.125,6.3125 31.5,0 6.3125,6.28125 0,53.53125 -37.8125,0 0,-59.8125 z M 50,40 l 0,44 26,0 0,-4 -4,0 0,-4 -4,0 0,-4 6,0 0,-8 2,0 0,-8 -2,0 0,-4 -10,0 0,-4 10,0 0,-4 2,0 0,-4 -26,0 z"
         transform="translate(0,924.36218)"
         id="path10261"
         inkscape:connector-curvature="0" />
    </g>
    <path
       style="fill:url(#radialGradient3862);fill-opacity:1;stroke:none"
       d="m 146,112 0,16 12,0 0,-13 -3,-3 z m 2,3 8,0 0,1 -1,0 0,1 -3,0 0,1 -4,0 z m 0,4 6,0 0,1 2,0 0,1 -1,0 0,1 1,0 0,1 -3,0 0,1 1,0 0,1 2,0 0,1 -4,0 0,1 -4,0 z"
       transform="translate(0,924.36218)"
       id="path6989"
       inkscape:connector-curvature="0"
       sodipodi:nodetypes="cccccccccccccccccccccccccccccccccc" />
  </g>
</svg>
