<?xml version="1.0" encoding="UTF-8" standalone="no"?>
<!-- Created with Inkscape (http://www.inkscape.org/) -->

<svg
   xmlns:dc="http://purl.org/dc/elements/1.1/"
   xmlns:cc="http://creativecommons.org/ns#"
   xmlns:rdf="http://www.w3.org/1999/02/22-rdf-syntax-ns#"
   xmlns:svg="http://www.w3.org/2000/svg"
   xmlns="http://www.w3.org/2000/svg"
   xmlns:xlink="http://www.w3.org/1999/xlink"
   xmlns:sodipodi="http://sodipodi.sourceforge.net/DTD/sodipodi-0.dtd"
   xmlns:inkscape="http://www.inkscape.org/namespaces/inkscape"
   sodipodi:docname="zoom-out.svg"
   inkscape:version="0.48.4 r9939"
   version="1.1"
   id="svg2"
   height="128"
   width="128">
  <sodipodi:namedview
     id="base"
     pagecolor="#ffffff"
     bordercolor="#666666"
     borderopacity="1.0"
     inkscape:pageopacity="0.0"
     inkscape:pageshadow="2"
     inkscape:zoom="3.6203868"
     inkscape:cx="193.82663"
     inkscape:cy="28.344062"
     inkscape:document-units="px"
     inkscape:current-layer="layer1"
     showgrid="true"
     showguides="true"
     inkscape:guide-bbox="true"
     inkscape:window-width="1221"
     inkscape:window-height="1000"
     inkscape:window-x="59"
     inkscape:window-y="24"
     inkscape:window-maximized="1">
    <inkscape:grid
       snapvisiblegridlinesonly="true"
       enabled="true"
       visible="true"
       empspacing="4"
       id="grid2985"
       type="xygrid" />
  </sodipodi:namedview>
  <defs
     id="defs4">
    <linearGradient
       id="linearGradient7110">
      <stop
         style="stop-color:#5a5a5a;stop-opacity:1;"
         offset="0"
         id="stop7112" />
      <stop
         style="stop-color:#202020;stop-opacity:1;"
         offset="1"
         id="stop7114" />
    </linearGradient>
    <linearGradient
       id="linearGradient4216-4-8-2">
      <stop
         id="stop4218-8-0-7"
         offset="0"
         style="stop-color:#494949;stop-opacity:1;" />
      <stop
         id="stop4220-1-6-4"
         offset="1"
         style="stop-color:#0f0f0f;stop-opacity:1;" />
    </linearGradient>
    <radialGradient
       inkscape:collect="always"
       xlink:href="#linearGradient4216-4-8-2"
       id="radialGradient5899"
       gradientUnits="userSpaceOnUse"
       gradientTransform="translate(0,2)"
       cx="64"
       cy="1020.3622"
       fx="64"
       fy="1020.3622"
       r="52" />
    <radialGradient
       inkscape:collect="always"
       xlink:href="#linearGradient7110"
       id="radialGradient7116"
       cx="80"
       cy="972.36218"
       fx="80"
       fy="972.36218"
       r="52.5"
       gradientUnits="userSpaceOnUse" />
    <linearGradient
       id="linearGradient8794-33">
      <stop
         style="stop-color:#ffffff;stop-opacity:1;"
         offset="0"
         id="stop8796-9" />
      <stop
         style="stop-color:#cacaca;stop-opacity:1;"
         offset="1"
         id="stop8798-6" />
    </linearGradient>
    <radialGradient
       inkscape:collect="always"
       xlink:href="#linearGradient8794-33"
       id="radialGradient4305"
       cx="154.00002"
       cy="1046.1122"
       fx="154.00002"
       fy="1046.1122"
       r="7"
       gradientTransform="matrix(-1.6312602e-5,1.4285802,-1.4285787,-1.6312585e-5,1648.4561,826.37783)"
       gradientUnits="userSpaceOnUse" />
    <radialGradient
       inkscape:collect="always"
       xlink:href="#linearGradient8794-33"
       id="radialGradient4317"
       gradientUnits="userSpaceOnUse"
       gradientTransform="matrix(-1.6312602e-5,1.4285802,-1.4285787,-1.6312585e-5,1648.4561,826.37783)"
       cx="154.00002"
       cy="1046.1122"
       fx="154.00002"
       fy="1046.1122"
       r="7" />
    <filter
       inkscape:collect="always"
       id="filter4325"
       x="-0.1125"
       width="1.225"
       y="-0.12857143"
       height="1.2571429">
      <feGaussianBlur
         inkscape:collect="always"
         stdDeviation="0.75"
         id="feGaussianBlur4327" />
    </filter>
    <radialGradient
       inkscape:collect="always"
       xlink:href="#linearGradient8794-33"
       id="radialGradient4355"
       gradientUnits="userSpaceOnUse"
       gradientTransform="matrix(-1.6312602e-5,1.4285802,-1.4285787,-1.6312585e-5,1648.4561,826.37783)"
       cx="154.00002"
       cy="1046.1122"
       fx="154.00002"
       fy="1046.1122"
       r="7" />
    <radialGradient
       inkscape:collect="always"
       xlink:href="#linearGradient8794-33"
       id="radialGradient5526"
       cx="80"
       cy="970.07642"
       fx="80"
       fy="970.07642"
       r="64"
       gradientTransform="matrix(1.2500001,5.3481301e-7,-5.3481281e-7,1.2499996,-19.999491,-240.23307)"
       gradientUnits="userSpaceOnUse" />
    <radialGradient
       inkscape:collect="always"
       xlink:href="#linearGradient8794-33"
       id="radialGradient6238"
       cx="154"
       cy="1042.3622"
       fx="154"
       fy="1042.3622"
       r="7.9998708"
       gradientTransform="matrix(1.2500213,1.5724107e-6,-1.5724e-6,1.2500127,-38.501638,-260.6041)"
       gradientUnits="userSpaceOnUse" />
    <radialGradient
       inkscape:collect="always"
       xlink:href="#linearGradient8794-33"
       id="radialGradient6242"
       gradientUnits="userSpaceOnUse"
       gradientTransform="matrix(5.6251865,7.0759622e-6,-7.075914e-6,5.6251478,-793.27057,-4886.0611)"
       cx="154"
       cy="1042.3622"
       fx="154"
       fy="1042.3622"
       r="7.9998708" />
    <radialGradient
       inkscape:collect="always"
       xlink:href="#linearGradient8794-33"
       id="radialGradient6260"
       gradientUnits="userSpaceOnUse"
       gradientTransform="matrix(5.6251865,7.0759622e-6,-7.075914e-6,5.6251478,-793.27057,-4886.0611)"
       cx="154"
       cy="1042.3622"
       fx="154"
       fy="1042.3622"
       r="7.9998708" />
    <radialGradient
       inkscape:collect="always"
       xlink:href="#linearGradient8794-33"
       id="radialGradient6312"
       cx="154"
       cy="118"
       fx="154"
       fy="118"
       r="8.0264664"
       gradientUnits="userSpaceOnUse"
       gradientTransform="matrix(1.2458771,-1.1001182e-6,1.1001193e-6,1.2458783,-37.865191,-29.013466)" />
    <radialGradient
       inkscape:collect="always"
       xlink:href="#linearGradient8794-33"
       id="radialGradient6316"
       gradientUnits="userSpaceOnUse"
       gradientTransform="matrix(5.58796,-4.9342078e-6,4.9342127e-6,5.5879654,-787.69482,317.89396)"
       cx="154"
       cy="118"
       fx="154"
       fy="118"
       r="8.0264664" />
    <filter
       inkscape:collect="always"
       id="filter6320"
       x="-0.12000007"
       width="1.2400001"
       y="-0.11999993"
       height="1.2399999">
      <feGaussianBlur
         inkscape:collect="always"
         stdDeviation="3.6000091"
         id="feGaussianBlur6322" />
    </filter>
    <radialGradient
       inkscape:collect="always"
       xlink:href="#linearGradient8794-33"
       id="radialGradient6334"
       gradientUnits="userSpaceOnUse"
       gradientTransform="matrix(5.58796,-4.9342078e-6,4.9342127e-6,5.5879654,-787.69482,317.89396)"
       cx="154"
       cy="118"
       fx="154"
       fy="118"
       r="8.0264664" />
  </defs>
  <metadata
     id="metadata7">
    <rdf:RDF>
      <cc:Work
         rdf:about="">
        <dc:format>image/svg+xml</dc:format>
        <dc:type
           rdf:resource="http://purl.org/dc/dcmitype/StillImage" />
        <dc:title></dc:title>
      </cc:Work>
    </rdf:RDF>
  </metadata>
  <g
     transform="translate(0,-924.36218)"
     id="layer1"
     inkscape:groupmode="layer"
     inkscape:label="Layer 1">
    <rect
       ry="8"
       rx="8"
       y="940.36218"
       x="12"
       height="104"
       width="104"
       id="rect6981"
       style="opacity:0.10000000000000001;fill:#000000;fill-opacity:1;stroke:#000000;stroke-width:10;stroke-miterlimit:4;stroke-dasharray:none" />
    <rect
       style="opacity:0.1;fill:#000000;fill-opacity:1;stroke:#000000;stroke-width:6;stroke-miterlimit:4;stroke-dasharray:none"
       id="rect6979"
       width="104"
       height="104"
       x="12"
       y="940.36218"
       rx="8"
       ry="8" />
    <rect
       ry="8"
       rx="8"
       y="938.36218"
       x="12"
       height="104"
       width="104"
       id="rect5969"
       style="fill:#000000;fill-opacity:1;stroke:#000000;opacity:0.20000000000000001;stroke-width:3;stroke-miterlimit:4;stroke-dasharray:none" />
    <rect
       style="fill:url(#radialGradient5899);fill-opacity:1;stroke:#1a1a1a"
       id="rect6936"
       width="104"
       height="104"
       x="12"
       y="938.36218"
       rx="8"
       ry="8" />
    <rect
       ry="8"
       rx="8"
       y="934.36218"
       x="12"
       height="104"
       width="104"
       id="rect6964"
       style="fill:url(#radialGradient7116);fill-opacity:1;stroke:#1a1a1a" />
    <text
       xml:space="preserve"
       style="font-size:24px;font-style:normal;font-weight:normal;line-height:125%;letter-spacing:0px;word-spacing:0px;fill:#000000;fill-opacity:1;stroke:none;font-family:Sans"
       x="-56"
       y="948.36218"
       id="text5893"
       sodipodi:linespacing="125%"><tspan
         sodipodi:role="line"
         id="tspan5895"
         x="-56"
         y="948.36218">128</tspan></text>
    <text
       sodipodi:linespacing="125%"
       id="text5901"
       y="1000.3622"
       x="184"
       style="font-size:16px;font-style:normal;font-weight:normal;line-height:125%;letter-spacing:0px;word-spacing:0px;fill:#000000;fill-opacity:1;stroke:none;font-family:Sans"
       xml:space="preserve"><tspan
         y="1000.3622"
         x="184"
         id="tspan5903"
         sodipodi:role="line">31 - 17</tspan></text>
    <text
       xml:space="preserve"
       style="font-size:16px;font-style:normal;font-weight:normal;line-height:125%;letter-spacing:0px;word-spacing:0px;fill:#000000;fill-opacity:1;stroke:none;font-family:Sans"
       x="172"
       y="1048.3622"
       id="text5905"
       sodipodi:linespacing="125%"><tspan
         sodipodi:role="line"
         id="tspan5907"
         x="172"
         y="1048.3622">16</tspan></text>
    <rect
       style="fill:none;stroke:#000000;stroke-width:1;stroke-linecap:round;stroke-linejoin:round;stroke-miterlimit:4;stroke-opacity:1;stroke-dasharray:none;stroke-dashoffset:0"
       id="rect5919"
       width="40"
       height="40"
       x="140"
       y="60"
       transform="translate(0,924.36218)"
       rx="4.5902016e-07" />
    <rect
       style="fill:none;stroke:#000000;stroke-width:1;stroke-linecap:round;stroke-linejoin:round;stroke-miterlimit:4;stroke-opacity:1;stroke-dasharray:none;stroke-dashoffset:0"
       id="rect5921"
       width="24"
       height="24"
       x="140"
       y="1032.3622"
       rx="4.5902016e-07" />
    <rect
       style="fill:#b3b3b3;fill-opacity:1;stroke:none"
       id="rect6935"
       width="32"
       height="4"
       x="144"
       y="56"
       transform="translate(0,924.36218)"
       rx="4.5902016e-07" />
    <rect
       style="fill:#b3b3b3;fill-opacity:1;stroke:none"
       id="rect6937"
       width="4"
       height="32"
       x="136"
       y="64"
       transform="translate(0,924.36218)"
       rx="4.5902016e-07" />
    <rect
       style="fill:#b3b3b3;fill-opacity:1;stroke:none"
       id="rect6939"
       width="16"
       height="4"
       x="144"
       y="104"
       rx="4.5902016e-07"
       transform="translate(0,924.36218)" />
    <rect
       style="fill:#b3b3b3;fill-opacity:1;stroke:none"
       id="rect6941"
       width="4"
       height="16"
       x="136"
       y="112"
       transform="translate(0,924.36218)"
       rx="4.5902016e-07" />
    <rect
       style="fill:url(#radialGradient7116);fill-opacity:1;stroke:#1a1a1a"
       id="rect12711"
       width="104"
       height="104"
       x="12"
       y="934.36218"
       rx="8"
       ry="8" />
    <path
       style="fill:url(#radialGradient6312);fill-opacity:1;stroke:none"
       d="m 149.5,112 c -3.03482,0 -5.5,2.4652 -5.5,5.5 0,3.0348 2.46518,5.5 5.5,5.5 1.16707,0 2.23512,-0.3796 3.125,-1 0.0442,0.0686 0.0968,0.13169 0.15625,0.1875 l 5.5,5.5 c 0.35261,0.42979 1.08592,0.46588 1.47903,0.0728 0.3931,-0.39311 0.35701,-1.12642 -0.0728,-1.47903 l -5.5,-5.5 c -0.0558,-0.0595 -0.11894,-0.11208 -0.1875,-0.15625 0.62043,-0.8899 1,-1.9579 1,-3.125 0,-3.0348 -2.46518,-5.5 -5.5,-5.5 z m 0,1 c 2.48303,0 4.5,2.017 4.5,4.5 0,2.4831 -2.01697,4.5 -4.5,4.5 -2.48304,0 -4.5,-2.0169 -4.5,-4.5 0,-2.483 2.01696,-4.5 4.5,-4.5 z m -0.5,1 0,7 1,0 0,-7 z"
       transform="translate(0,924.36218)"
       id="path5843"
       inkscape:connector-curvature="0"
       sodipodi:nodetypes="ssscccscccsssssssccccc" />
    <g
       id="g6324">
      <path
         id="path6318"
         d="m 52.66832,950.36208 c -13.61166,0 -24.66839,11.0569 -24.66839,24.6684 0,13.6116 11.05673,24.6684 24.66839,24.6684 5.23449,0 10.02487,-1.7025 14.01612,-4.4851 0.198117,0.3075 0.434057,0.5906 0.70081,0.8409 l 24.66839,24.66842 c 1.581459,1.9278 4.870619,2.0898 6.633795,0.3266 1.763175,-1.7632 1.601275,-5.0523 -0.326535,-6.6338 L 73.69251,989.74748 c -0.250319,-0.26675 -0.533447,-0.50269 -0.84097,-0.7008 2.78273,-3.9914 4.48516,-8.7815 4.48516,-14.0162 0,-13.6115 -11.05673,-24.6684 -24.66838,-24.6684 z m 0,4.4852 c 11.13679,0 20.18322,9.0466 20.18322,20.1832 0,11.1371 -9.04643,20.1833 -20.18322,20.1833 -11.13684,0 -20.18323,-9.0462 -20.18323,-20.1833 0,-11.1366 9.04639,-20.1832 20.18323,-20.1832 z m -2.24259,4.4852 0,31.3961 4.48517,0 0,-31.3961 z"
         style="fill:#000000;fill-opacity:1;stroke:none;filter:url(#filter6320)"
         inkscape:connector-curvature="0"
         sodipodi:nodetypes="ssscccscccsssssssccccc" />
      <path
         inkscape:connector-curvature="0"
         style="fill:url(#radialGradient6316);fill-opacity:1;stroke:#ffffff;stroke-width:2;stroke-miterlimit:4;stroke-opacity:0.31372549;stroke-dasharray:none"
         d="m 52.66832,950.36208 c -13.61166,0 -24.66839,11.0569 -24.66839,24.6684 0,13.6116 11.05673,24.6684 24.66839,24.6684 5.23449,0 10.02487,-1.7025 14.01612,-4.4851 0.198117,0.3075 0.434057,0.5906 0.70081,0.8409 l 24.66839,24.66842 c 1.581459,1.9278 4.870619,2.0898 6.633795,0.3266 1.763175,-1.7632 1.601275,-5.0523 -0.326535,-6.6338 L 73.69251,989.74748 c -0.250319,-0.26675 -0.533447,-0.50269 -0.84097,-0.7008 2.78273,-3.9914 4.48516,-8.7815 4.48516,-14.0162 0,-13.6115 -11.05673,-24.6684 -24.66838,-24.6684 z m 0,4.4852 c 11.13679,0 20.18322,9.0466 20.18322,20.1832 0,11.1371 -9.04643,20.1833 -20.18322,20.1833 -11.13684,0 -20.18323,-9.0462 -20.18323,-20.1833 0,-11.1366 9.04639,-20.1832 20.18323,-20.1832 z m -2.24259,4.4852 0,31.3961 4.48517,0 0,-31.3961 z"
         id="path6314"
         sodipodi:nodetypes="ssscccscccsssssssccccc" />
    </g>
    <g
       id="g6328"
       transform="matrix(0.35842187,0,0,0.35842187,137.061,650.8284)">
      <path
         inkscape:connector-curvature="0"
         style="fill:#000000;fill-opacity:1;stroke:none;filter:url(#filter6320)"
         d="m 52.66832,950.36208 c -13.61166,0 -24.66839,11.0569 -24.66839,24.6684 0,13.6116 11.05673,24.6684 24.66839,24.6684 5.23449,0 10.02487,-1.7025 14.01612,-4.4851 0.198117,0.3075 0.434057,0.5906 0.70081,0.8409 l 24.66839,24.66842 c 1.581459,1.9278 4.870619,2.0898 6.633795,0.3266 1.763175,-1.7632 1.601275,-5.0523 -0.326535,-6.6338 L 73.69251,989.74748 c -0.250319,-0.26675 -0.533447,-0.50269 -0.84097,-0.7008 2.78273,-3.9914 4.48516,-8.7815 4.48516,-14.0162 0,-13.6115 -11.05673,-24.6684 -24.66838,-24.6684 z m 0,4.4852 c 11.13679,0 20.18322,9.0466 20.18322,20.1832 0,11.1371 -9.04643,20.1833 -20.18322,20.1833 -11.13684,0 -20.18323,-9.0462 -20.18323,-20.1833 0,-11.1366 9.04639,-20.1832 20.18323,-20.1832 z m -2.24259,4.4852 0,31.3961 4.48517,0 0,-31.3961 z"
         id="path6330"
         sodipodi:nodetypes="ssscccscccsssssssccccc" />
      <path
         id="path6332"
         d="m 52.66832,950.36208 c -13.61166,0 -24.66839,11.0569 -24.66839,24.6684 0,13.6116 11.05673,24.6684 24.66839,24.6684 5.23449,0 10.02487,-1.7025 14.01612,-4.4851 0.198117,0.3075 0.434057,0.5906 0.70081,0.8409 l 24.66839,24.66842 c 1.581459,1.9278 4.870619,2.0898 6.633795,0.3266 1.763175,-1.7632 1.601275,-5.0523 -0.326535,-6.6338 L 73.69251,989.74748 c -0.250319,-0.26675 -0.533447,-0.50269 -0.84097,-0.7008 2.78273,-3.9914 4.48516,-8.7815 4.48516,-14.0162 0,-13.6115 -11.05673,-24.6684 -24.66838,-24.6684 z m 0,4.4852 c 11.13679,0 20.18322,9.0466 20.18322,20.1832 0,11.1371 -9.04643,20.1833 -20.18322,20.1833 -11.13684,0 -20.18323,-9.0462 -20.18323,-20.1833 0,-11.1366 9.04639,-20.1832 20.18323,-20.1832 z m -2.24259,4.4852 0,31.3961 4.48517,0 0,-31.3961 z"
         style="fill:url(#radialGradient6334);fill-opacity:1;stroke:#ffffff;stroke-width:2;stroke-miterlimit:4;stroke-opacity:0.31372549;stroke-dasharray:none"
         inkscape:connector-curvature="0"
         sodipodi:nodetypes="ssscccscccsssssssccccc" />
    </g>
  </g>
</svg>
