<?xml version="1.0" encoding="UTF-8" standalone="no"?>
<!-- Created with Inkscape (http://www.inkscape.org/) -->

<svg
   xmlns:dc="http://purl.org/dc/elements/1.1/"
   xmlns:cc="http://creativecommons.org/ns#"
   xmlns:rdf="http://www.w3.org/1999/02/22-rdf-syntax-ns#"
   xmlns:svg="http://www.w3.org/2000/svg"
   xmlns="http://www.w3.org/2000/svg"
   xmlns:xlink="http://www.w3.org/1999/xlink"
   xmlns:sodipodi="http://sodipodi.sourceforge.net/DTD/sodipodi-0.dtd"
   xmlns:inkscape="http://www.inkscape.org/namespaces/inkscape"
   sodipodi:docname="format-indent-more.svg"
   inkscape:version="0.48.4 r9939"
   version="1.1"
   id="svg2"
   height="128"
   width="128">
  <sodipodi:namedview
     id="base"
     pagecolor="#ffffff"
     bordercolor="#666666"
     borderopacity="1.0"
     inkscape:pageopacity="0.0"
     inkscape:pageshadow="2"
     inkscape:zoom="1.8101934"
     inkscape:cx="120.42562"
     inkscape:cy="-37.097076"
     inkscape:document-units="px"
     inkscape:current-layer="layer1"
     showgrid="true"
     showguides="true"
     inkscape:guide-bbox="true"
     inkscape:window-width="1221"
     inkscape:window-height="1000"
     inkscape:window-x="59"
     inkscape:window-y="24"
     inkscape:window-maximized="1">
    <inkscape:grid
       snapvisiblegridlinesonly="true"
       enabled="true"
       visible="true"
       empspacing="4"
       id="grid2985"
       type="xygrid" />
  </sodipodi:namedview>
  <defs
     id="defs4">
    <linearGradient
       id="linearGradient7110">
      <stop
         style="stop-color:#5a5a5a;stop-opacity:1;"
         offset="0"
         id="stop7112" />
      <stop
         style="stop-color:#202020;stop-opacity:1;"
         offset="1"
         id="stop7114" />
    </linearGradient>
    <linearGradient
       id="linearGradient4216-4-8-2">
      <stop
         id="stop4218-8-0-7"
         offset="0"
         style="stop-color:#494949;stop-opacity:1;" />
      <stop
         id="stop4220-1-6-4"
         offset="1"
         style="stop-color:#0f0f0f;stop-opacity:1;" />
    </linearGradient>
    <radialGradient
       inkscape:collect="always"
       xlink:href="#linearGradient4216-4-8-2"
       id="radialGradient5899"
       gradientUnits="userSpaceOnUse"
       gradientTransform="translate(0,2)"
       cx="64"
       cy="1020.3622"
       fx="64"
       fy="1020.3622"
       r="52" />
    <radialGradient
       inkscape:collect="always"
       xlink:href="#linearGradient7110"
       id="radialGradient7116"
       cx="80"
       cy="972.36218"
       fx="80"
       fy="972.36218"
       r="52.5"
       gradientUnits="userSpaceOnUse" />
    <linearGradient
       id="linearGradient6964-4">
      <stop
         style="stop-color:#ffffff;stop-opacity:1;"
         offset="0"
         id="stop6966-4" />
      <stop
         style="stop-color:#cacaca;stop-opacity:1;"
         offset="1"
         id="stop6970-3" />
    </linearGradient>
    <linearGradient
       id="linearGradient6964-4-3">
      <stop
         style="stop-color:#ffffff;stop-opacity:1;"
         offset="0"
         id="stop6966-4-3" />
      <stop
         style="stop-color:#cacaca;stop-opacity:1;"
         offset="1"
         id="stop6970-3-7" />
    </linearGradient>
    <linearGradient
       id="linearGradient8794-33">
      <stop
         style="stop-color:#ffffff;stop-opacity:1;"
         offset="0"
         id="stop8796-9" />
      <stop
         style="stop-color:#cacaca;stop-opacity:1;"
         offset="1"
         id="stop8798-6" />
    </linearGradient>
    <filter
       inkscape:collect="always"
       id="filter3961"
       x="-0.1125"
       width="1.225"
       y="-0.12857143"
       height="1.2571429">
      <feGaussianBlur
         inkscape:collect="always"
         stdDeviation="5.9999999"
         id="feGaussianBlur3963" />
    </filter>
    <radialGradient
       inkscape:collect="always"
       xlink:href="#linearGradient6964-4"
       id="radialGradient3971"
       cx="85.333328"
       cy="959.91772"
       fx="85.333328"
       fy="959.91772"
       r="64"
       gradientTransform="matrix(1.4444444,1.2726828e-8,0,0.87499998,-37.925914,123.54529)"
       gradientUnits="userSpaceOnUse" />
    <radialGradient
       inkscape:collect="always"
       xlink:href="#linearGradient8794-33"
       id="radialGradient4053"
       cx="80"
       cy="970.07642"
       fx="80"
       fy="970.07642"
       r="64"
       gradientTransform="matrix(1.2499999,5.4263281e-7,-5.4263267e-7,1.2499996,-19.999462,-240.23307)"
       gradientUnits="userSpaceOnUse" />
    <radialGradient
       inkscape:collect="always"
       xlink:href="#linearGradient8794-33"
       id="radialGradient4097"
       cx="64"
       cy="988.36218"
       fx="64"
       fy="988.36218"
       r="64"
       gradientTransform="matrix(1,0,0,0.87499998,0,123.54529)"
       gradientUnits="userSpaceOnUse" />
    <radialGradient
       inkscape:collect="always"
       xlink:href="#linearGradient8794-33"
       id="radialGradient4127"
       cx="80"
       cy="50.57143"
       fx="80"
       fy="50.57143"
       r="36"
       gradientTransform="matrix(1.3333333,3.3554939e-8,-3.6351187e-8,1.4444445,-26.666665,-21.047624)"
       gradientUnits="userSpaceOnUse" />
    <filter
       inkscape:collect="always"
       id="filter4131"
       x="-0.1125"
       width="1.225"
       y="-0.12857143"
       height="1.2571429">
      <feGaussianBlur
         inkscape:collect="always"
         stdDeviation="3.375"
         id="feGaussianBlur4133" />
    </filter>
    <radialGradient
       inkscape:collect="always"
       xlink:href="#linearGradient8794-33"
       id="radialGradient4143"
       gradientUnits="userSpaceOnUse"
       gradientTransform="matrix(1.3333333,3.3554939e-8,-3.6351187e-8,1.4444445,-26.666665,-21.047624)"
       cx="80"
       cy="50.57143"
       fx="80"
       fy="50.57143"
       r="36" />
    <radialGradient
       inkscape:collect="always"
       xlink:href="#linearGradient8794-33"
       id="radialGradient4174"
       cx="154"
       cy="117.71429"
       fx="154"
       fy="117.71429"
       r="8"
       gradientTransform="matrix(1.2500001,-3.6428852e-7,3.6428853e-7,1.2500001,-38.500052,-29.14281)"
       gradientUnits="userSpaceOnUse" />
    <radialGradient
       inkscape:collect="always"
       xlink:href="#linearGradient8794-33"
       id="radialGradient4224"
       cx="76"
       cy="51.333332"
       fx="76"
       fy="51.333332"
       r="36"
       gradientTransform="matrix(1.2222222,4.0029742e-8,-4.0029741e-8,1.2222222,-16.888886,-10.740742)"
       gradientUnits="userSpaceOnUse" />
    <filter
       inkscape:collect="always"
       id="filter4228"
       x="-0.11625"
       width="1.2325"
       y="-0.124"
       height="1.248">
      <feGaussianBlur
         inkscape:collect="always"
         stdDeviation="3.4875"
         id="feGaussianBlur4230" />
    </filter>
    <radialGradient
       inkscape:collect="always"
       xlink:href="#linearGradient8794-33"
       id="radialGradient4240"
       gradientUnits="userSpaceOnUse"
       gradientTransform="matrix(1.2222222,4.0029742e-8,-4.0029741e-8,1.2222222,-16.888886,-10.740742)"
       cx="76"
       cy="51.333332"
       fx="76"
       fy="51.333332"
       r="36" />
    <radialGradient
       inkscape:collect="always"
       xlink:href="#linearGradient8794-33"
       id="radialGradient4271"
       cx="154"
       cy="117.83334"
       fx="154"
       fy="117.83334"
       r="8"
       gradientTransform="matrix(1.25,-1.0227341e-7,1.0227348e-7,1.2500012,-38.500015,-29.291795)"
       gradientUnits="userSpaceOnUse" />
  </defs>
  <metadata
     id="metadata7">
    <rdf:RDF>
      <cc:Work
         rdf:about="">
        <dc:format>image/svg+xml</dc:format>
        <dc:type
           rdf:resource="http://purl.org/dc/dcmitype/StillImage" />
        <dc:title></dc:title>
      </cc:Work>
    </rdf:RDF>
  </metadata>
  <g
     transform="translate(0,-924.36218)"
     id="layer1"
     inkscape:groupmode="layer"
     inkscape:label="Layer 1">
    <rect
       ry="8"
       rx="8"
       y="940.36218"
       x="12"
       height="104"
       width="104"
       id="rect6981"
       style="opacity:0.10000000000000001;fill:#000000;fill-opacity:1;stroke:#000000;stroke-width:10;stroke-miterlimit:4;stroke-dasharray:none" />
    <rect
       style="opacity:0.1;fill:#000000;fill-opacity:1;stroke:#000000;stroke-width:6;stroke-miterlimit:4;stroke-dasharray:none"
       id="rect6979"
       width="104"
       height="104"
       x="12"
       y="940.36218"
       rx="8"
       ry="8" />
    <rect
       ry="8"
       rx="8"
       y="938.36218"
       x="12"
       height="104"
       width="104"
       id="rect5969"
       style="fill:#000000;fill-opacity:1;stroke:#000000;opacity:0.20000000000000001;stroke-width:3;stroke-miterlimit:4;stroke-dasharray:none" />
    <rect
       style="fill:url(#radialGradient5899);fill-opacity:1;stroke:#1a1a1a"
       id="rect6936"
       width="104"
       height="104"
       x="12"
       y="938.36218"
       rx="8"
       ry="8" />
    <rect
       ry="8"
       rx="8"
       y="934.36218"
       x="12"
       height="104"
       width="104"
       id="rect6964"
       style="fill:url(#radialGradient7116);fill-opacity:1;stroke:#1a1a1a" />
    <text
       xml:space="preserve"
       style="font-size:24px;font-style:normal;font-weight:normal;line-height:125%;letter-spacing:0px;word-spacing:0px;fill:#000000;fill-opacity:1;stroke:none;font-family:Sans"
       x="-56"
       y="948.36218"
       id="text5893"
       sodipodi:linespacing="125%"><tspan
         sodipodi:role="line"
         id="tspan5895"
         x="-56"
         y="948.36218">128</tspan></text>
    <text
       sodipodi:linespacing="125%"
       id="text5901"
       y="1000.3622"
       x="184"
       style="font-size:16px;font-style:normal;font-weight:normal;line-height:125%;letter-spacing:0px;word-spacing:0px;fill:#000000;fill-opacity:1;stroke:none;font-family:Sans"
       xml:space="preserve"><tspan
         y="1000.3622"
         x="184"
         id="tspan5903"
         sodipodi:role="line">31 - 17</tspan></text>
    <text
       xml:space="preserve"
       style="font-size:16px;font-style:normal;font-weight:normal;line-height:125%;letter-spacing:0px;word-spacing:0px;fill:#000000;fill-opacity:1;stroke:none;font-family:Sans"
       x="172"
       y="1048.3622"
       id="text5905"
       sodipodi:linespacing="125%"><tspan
         sodipodi:role="line"
         id="tspan5907"
         x="172"
         y="1048.3622">16</tspan></text>
    <rect
       style="fill:none;stroke:#000000;stroke-width:1;stroke-linecap:round;stroke-linejoin:round;stroke-miterlimit:4;stroke-opacity:1;stroke-dasharray:none;stroke-dashoffset:0"
       id="rect5919"
       width="40"
       height="40"
       x="140"
       y="60"
       rx="4.5902016e-07"
       transform="translate(0,924.36218)" />
    <rect
       style="fill:none;stroke:#000000;stroke-width:1;stroke-linecap:round;stroke-linejoin:round;stroke-miterlimit:4;stroke-opacity:1;stroke-dasharray:none;stroke-dashoffset:0"
       id="rect5921"
       width="24"
       height="24"
       x="140"
       y="1032.3622"
       rx="4.5902016e-07" />
    <rect
       style="fill:#b3b3b3;fill-opacity:1;stroke:none"
       id="rect6935"
       width="32"
       height="4"
       x="144"
       y="56"
       transform="translate(0,924.36218)"
       rx="4.5902016e-07" />
    <rect
       style="fill:#b3b3b3;fill-opacity:1;stroke:none"
       id="rect6937"
       width="4"
       height="32"
       x="136"
       y="64"
       transform="translate(0,924.36218)"
       rx="4.5902016e-07" />
    <rect
       style="fill:#b3b3b3;fill-opacity:1;stroke:none"
       id="rect6939"
       width="16"
       height="4"
       x="144"
       y="104"
       rx="4.5902016e-07"
       transform="translate(0,924.36218)" />
    <rect
       style="fill:#b3b3b3;fill-opacity:1;stroke:none"
       id="rect6941"
       width="4"
       height="16"
       x="136"
       y="112"
       transform="translate(0,924.36218)"
       rx="4.5902016e-07" />
    <rect
       style="fill:url(#radialGradient7116);fill-opacity:1;stroke:#1a1a1a"
       id="rect12711"
       width="104"
       height="104"
       x="12"
       y="934.36218"
       rx="8"
       ry="8" />
    <path
       id="path4226"
       transform="translate(0,924.36218)"
       d="M 37 28.25 L 37 37.25 L 91 37.25 L 91 28.25 L 37 28.25 z M 28 46.25 L 28 55.25 L 100 55.25 L 100 46.25 L 28 46.25 z M 41.5 64.25 L 41.5 73.25 L 86.5 73.25 L 86.5 64.25 L 41.5 64.25 z M 32.5 82.25 L 32.5 86.75 L 50.5 86.75 L 50.5 95.75 L 64 82.25 L 32.5 82.25 z M 64 82.25 L 77.5 95.75 L 77.5 86.75 L 95.5 86.75 L 95.5 82.25 L 64 82.25 z "
       style="fill:#000000;fill-opacity:1;stroke:none;stroke-opacity:0.31372549999999999;filter:url(#filter4228)" />
    <path
       style="fill:url(#radialGradient4224);fill-opacity:1;stroke:#ffffff;stroke-opacity:0.31372549999999999;stroke-width:2;stroke-miterlimit:4;stroke-dasharray:none;stroke-linejoin:round"
       d="M 37 28.25 L 37 37.25 L 91 37.25 L 91 28.25 L 37 28.25 z M 28 46.25 L 28 55.25 L 100 55.25 L 100 46.25 L 28 46.25 z M 41.5 64.25 L 41.5 73.25 L 86.5 73.25 L 86.5 64.25 L 41.5 64.25 z M 32.5 82.25 L 32.5 86.75 L 50.5 86.75 L 50.5 95.75 L 64 82.25 L 32.5 82.25 z M 64 82.25 L 77.5 95.75 L 77.5 86.75 L 95.5 86.75 L 95.5 82.25 L 64 82.25 z "
       transform="translate(0,924.36218)"
       id="rect7064" />
    <g
       id="g4236"
       transform="matrix(0.36060067,0,0,0.36060067,136.92156,648.67932)">
      <path
         id="path4232"
         transform="translate(0,924.36218)"
         d="m 37,28.25 0,9 54,0 0,-9 -54,0 z m -9,18 0,9 72,0 0,-9 -72,0 z m 13.5,18 0,9 45,0 0,-9 -45,0 z m -9,18 0,4.5 18,0 0,9 13.5,-13.5 -31.5,0 z m 31.5,0 13.5,13.5 0,-9 18,0 0,-4.5 -31.5,0 z"
         style="fill:#000000;fill-opacity:1;stroke:none;filter:url(#filter4228)"
         inkscape:connector-curvature="0" />
      <path
         style="fill:url(#radialGradient4240);fill-opacity:1;stroke:#ffffff;stroke-width:2;stroke-linejoin:round;stroke-miterlimit:4;stroke-opacity:0.31372549;stroke-dasharray:none"
         d="m 37,28.25 0,9 54,0 0,-9 -54,0 z m -9,18 0,9 72,0 0,-9 -72,0 z m 13.5,18 0,9 45,0 0,-9 -45,0 z m -9,18 0,4.5 18,0 0,9 13.5,-13.5 -31.5,0 z m 31.5,0 13.5,13.5 0,-9 18,0 0,-4.5 -31.5,0 z"
         transform="translate(0,924.36218)"
         id="path4234"
         inkscape:connector-curvature="0" />
    </g>
    <path
       style="fill:url(#radialGradient4271);fill-opacity:1;stroke:none"
       d="M 146 113 L 146 115 L 158 115 L 158 113 L 146 113 z M 144 117 L 144 119 L 160 119 L 160 117 L 144 117 z M 147 121 L 147 123 L 157 123 L 157 121 L 147 121 z M 145 125 L 145 126 L 149 126 L 149 128 L 152 125 L 145 125 z M 152 125 L 155 128 L 155 126 L 159 126 L 159 125 L 152 125 z "
       transform="translate(0,924.36218)"
       id="rect6010" />
  </g>
</svg>
