<?xml version="1.0" encoding="UTF-8" standalone="no"?>
<!-- Created with Inkscape (http://www.inkscape.org/) -->

<svg
   xmlns:dc="http://purl.org/dc/elements/1.1/"
   xmlns:cc="http://creativecommons.org/ns#"
   xmlns:rdf="http://www.w3.org/1999/02/22-rdf-syntax-ns#"
   xmlns:svg="http://www.w3.org/2000/svg"
   xmlns="http://www.w3.org/2000/svg"
   xmlns:xlink="http://www.w3.org/1999/xlink"
   xmlns:sodipodi="http://sodipodi.sourceforge.net/DTD/sodipodi-0.dtd"
   xmlns:inkscape="http://www.inkscape.org/namespaces/inkscape"
   sodipodi:docname="format-indent-less.svg"
   inkscape:version="0.48.4 r9939"
   version="1.1"
   id="svg2"
   height="128"
   width="128">
  <sodipodi:namedview
     id="base"
     pagecolor="#ffffff"
     bordercolor="#666666"
     borderopacity="1.0"
     inkscape:pageopacity="0.0"
     inkscape:pageshadow="2"
     inkscape:zoom="3.6203868"
     inkscape:cx="138.58557"
     inkscape:cy="70.734722"
     inkscape:document-units="px"
     inkscape:current-layer="layer1"
     showgrid="true"
     showguides="true"
     inkscape:guide-bbox="true"
     inkscape:window-width="1221"
     inkscape:window-height="1000"
     inkscape:window-x="59"
     inkscape:window-y="24"
     inkscape:window-maximized="1">
    <inkscape:grid
       snapvisiblegridlinesonly="true"
       enabled="true"
       visible="true"
       empspacing="4"
       id="grid2985"
       type="xygrid" />
  </sodipodi:namedview>
  <defs
     id="defs4">
    <linearGradient
       id="linearGradient7110">
      <stop
         style="stop-color:#5a5a5a;stop-opacity:1;"
         offset="0"
         id="stop7112" />
      <stop
         style="stop-color:#202020;stop-opacity:1;"
         offset="1"
         id="stop7114" />
    </linearGradient>
    <linearGradient
       id="linearGradient4216-4-8-2">
      <stop
         id="stop4218-8-0-7"
         offset="0"
         style="stop-color:#494949;stop-opacity:1;" />
      <stop
         id="stop4220-1-6-4"
         offset="1"
         style="stop-color:#0f0f0f;stop-opacity:1;" />
    </linearGradient>
    <radialGradient
       inkscape:collect="always"
       xlink:href="#linearGradient4216-4-8-2"
       id="radialGradient5899"
       gradientUnits="userSpaceOnUse"
       gradientTransform="translate(0,2)"
       cx="64"
       cy="1020.3622"
       fx="64"
       fy="1020.3622"
       r="52" />
    <radialGradient
       inkscape:collect="always"
       xlink:href="#linearGradient7110"
       id="radialGradient7116"
       cx="80"
       cy="972.36218"
       fx="80"
       fy="972.36218"
       r="52.5"
       gradientUnits="userSpaceOnUse" />
    <linearGradient
       id="linearGradient6964-4">
      <stop
         style="stop-color:#ffffff;stop-opacity:1;"
         offset="0"
         id="stop6966-4" />
      <stop
         style="stop-color:#cacaca;stop-opacity:1;"
         offset="1"
         id="stop6970-3" />
    </linearGradient>
    <linearGradient
       id="linearGradient6964-4-3">
      <stop
         style="stop-color:#ffffff;stop-opacity:1;"
         offset="0"
         id="stop6966-4-3" />
      <stop
         style="stop-color:#cacaca;stop-opacity:1;"
         offset="1"
         id="stop6970-3-7" />
    </linearGradient>
    <linearGradient
       id="linearGradient8794-33">
      <stop
         style="stop-color:#ffffff;stop-opacity:1;"
         offset="0"
         id="stop8796-9" />
      <stop
         style="stop-color:#cacaca;stop-opacity:1;"
         offset="1"
         id="stop8798-6" />
    </linearGradient>
    <filter
       inkscape:collect="always"
       id="filter3961"
       x="-0.1125"
       width="1.225"
       y="-0.12857143"
       height="1.2571429">
      <feGaussianBlur
         inkscape:collect="always"
         stdDeviation="5.9999999"
         id="feGaussianBlur3963" />
    </filter>
    <radialGradient
       inkscape:collect="always"
       xlink:href="#linearGradient6964-4"
       id="radialGradient3971"
       cx="85.333328"
       cy="959.91772"
       fx="85.333328"
       fy="959.91772"
       r="64"
       gradientTransform="matrix(1.4444444,1.2726828e-8,0,0.87499998,-37.925914,123.54529)"
       gradientUnits="userSpaceOnUse" />
    <radialGradient
       inkscape:collect="always"
       xlink:href="#linearGradient6964-4-3"
       id="radialGradient4003"
       cx="76"
       cy="50.57143"
       fx="76"
       fy="50.57143"
       r="36"
       gradientTransform="matrix(1.4444444,6.7593803e-8,-6.7593809e-8,1.4444445,-33.777774,-21.047627)"
       gradientUnits="userSpaceOnUse" />
    <radialGradient
       inkscape:collect="always"
       xlink:href="#linearGradient6964-4-3"
       id="radialGradient4028"
       gradientUnits="userSpaceOnUse"
       gradientTransform="matrix(1.4444444,6.7593803e-8,-6.7593809e-8,1.4444445,-33.777774,-21.047627)"
       cx="76"
       cy="50.57143"
       fx="76"
       fy="50.57143"
       r="36" />
    <radialGradient
       inkscape:collect="always"
       xlink:href="#linearGradient8794-33"
       id="radialGradient4053"
       cx="80"
       cy="970.07642"
       fx="80"
       fy="970.07642"
       r="64"
       gradientTransform="matrix(1.2499999,5.4263281e-7,-5.4263267e-7,1.2499996,-19.999462,-240.23307)"
       gradientUnits="userSpaceOnUse" />
    <radialGradient
       inkscape:collect="always"
       xlink:href="#linearGradient8794-33"
       id="radialGradient4097"
       cx="64"
       cy="988.36218"
       fx="64"
       fy="988.36218"
       r="64"
       gradientTransform="matrix(1,0,0,0.87499998,0,123.54529)"
       gradientUnits="userSpaceOnUse" />
    <radialGradient
       inkscape:collect="always"
       xlink:href="#linearGradient8794-33"
       id="radialGradient4099"
       gradientUnits="userSpaceOnUse"
       gradientTransform="matrix(1,0,0,0.87499998,0,123.54529)"
       cx="64"
       cy="988.36218"
       fx="64"
       fy="988.36218"
       r="64" />
    <radialGradient
       inkscape:collect="always"
       xlink:href="#linearGradient8794-33"
       id="radialGradient4101"
       gradientUnits="userSpaceOnUse"
       gradientTransform="matrix(1,0,0,0.87499998,0,123.54529)"
       cx="64"
       cy="988.36218"
       fx="64"
       fy="988.36218"
       r="64" />
    <radialGradient
       inkscape:collect="always"
       xlink:href="#linearGradient8794-33"
       id="radialGradient4103"
       gradientUnits="userSpaceOnUse"
       gradientTransform="matrix(1,0,0,0.87499998,0,123.54529)"
       cx="64"
       cy="988.36218"
       fx="64"
       fy="988.36218"
       r="64" />
    <radialGradient
       inkscape:collect="always"
       xlink:href="#linearGradient8794-33"
       id="radialGradient4105"
       gradientUnits="userSpaceOnUse"
       gradientTransform="matrix(1,0,0,0.87499998,0,123.54529)"
       cx="64"
       cy="988.36218"
       fx="64"
       fy="988.36218"
       r="64" />
    <radialGradient
       inkscape:collect="always"
       xlink:href="#linearGradient8794-33"
       id="radialGradient4107"
       gradientUnits="userSpaceOnUse"
       gradientTransform="matrix(1,0,0,0.87499998,0,123.54529)"
       cx="64"
       cy="988.36218"
       fx="64"
       fy="988.36218"
       r="64" />
    <radialGradient
       inkscape:collect="always"
       xlink:href="#linearGradient8794-33"
       id="radialGradient4110"
       gradientUnits="userSpaceOnUse"
       gradientTransform="matrix(0.56250001,0,0,0.4921875,27.999999,1019.8564)"
       cx="64"
       cy="988.36218"
       fx="64"
       fy="988.36218"
       r="64" />
    <radialGradient
       inkscape:collect="always"
       xlink:href="#linearGradient8794-33"
       id="radialGradient4113"
       gradientUnits="userSpaceOnUse"
       gradientTransform="matrix(0.56250001,0,0,0.4921875,-27.999999,499.90268)"
       cx="64"
       cy="988.36218"
       fx="64"
       fy="988.36218"
       r="64" />
    <radialGradient
       inkscape:collect="always"
       xlink:href="#linearGradient8794-33"
       id="radialGradient4116"
       gradientUnits="userSpaceOnUse"
       gradientTransform="matrix(0.56250001,0,0,0.4921875,-27.999999,499.90268)"
       cx="64"
       cy="988.36218"
       fx="64"
       fy="988.36218"
       r="64" />
    <radialGradient
       inkscape:collect="always"
       xlink:href="#linearGradient8794-33"
       id="radialGradient4119"
       gradientUnits="userSpaceOnUse"
       gradientTransform="matrix(0.56250001,0,0,0.4921875,-27.999999,499.90268)"
       cx="64"
       cy="988.36218"
       fx="64"
       fy="988.36218"
       r="64" />
    <radialGradient
       inkscape:collect="always"
       xlink:href="#linearGradient8794-33"
       id="radialGradient4122"
       gradientUnits="userSpaceOnUse"
       gradientTransform="matrix(-0.56250001,0,0,0.4921875,27.999999,-424.4595)"
       cx="64"
       cy="988.36218"
       fx="64"
       fy="988.36218"
       r="64" />
    <radialGradient
       inkscape:collect="always"
       xlink:href="#linearGradient8794-33"
       id="radialGradient4127"
       cx="80"
       cy="50.57143"
       fx="80"
       fy="50.57143"
       r="36"
       gradientTransform="matrix(1.3333333,3.3554939e-8,-3.6351187e-8,1.4444445,-26.666665,-21.047624)"
       gradientUnits="userSpaceOnUse" />
    <filter
       inkscape:collect="always"
       id="filter4131"
       x="-0.1125"
       width="1.225"
       y="-0.12857143"
       height="1.2571429">
      <feGaussianBlur
         inkscape:collect="always"
         stdDeviation="3.375"
         id="feGaussianBlur4133" />
    </filter>
    <radialGradient
       inkscape:collect="always"
       xlink:href="#linearGradient8794-33"
       id="radialGradient4143"
       gradientUnits="userSpaceOnUse"
       gradientTransform="matrix(1.3333333,3.3554939e-8,-3.6351187e-8,1.4444445,-26.666665,-21.047624)"
       cx="80"
       cy="50.57143"
       fx="80"
       fy="50.57143"
       r="36" />
    <radialGradient
       inkscape:collect="always"
       xlink:href="#linearGradient8794-33"
       id="radialGradient4174"
       cx="154"
       cy="117.71429"
       fx="154"
       fy="117.71429"
       r="8"
       gradientTransform="matrix(1.2500001,-3.6428852e-7,3.6428853e-7,1.2500001,-38.500052,-29.14281)"
       gradientUnits="userSpaceOnUse" />
  </defs>
  <metadata
     id="metadata7">
    <rdf:RDF>
      <cc:Work
         rdf:about="">
        <dc:format>image/svg+xml</dc:format>
        <dc:type
           rdf:resource="http://purl.org/dc/dcmitype/StillImage" />
        <dc:title></dc:title>
      </cc:Work>
    </rdf:RDF>
  </metadata>
  <g
     transform="translate(0,-924.36218)"
     id="layer1"
     inkscape:groupmode="layer"
     inkscape:label="Layer 1">
    <rect
       ry="8"
       rx="8"
       y="940.36218"
       x="12"
       height="104"
       width="104"
       id="rect6981"
       style="opacity:0.10000000000000001;fill:#000000;fill-opacity:1;stroke:#000000;stroke-width:10;stroke-miterlimit:4;stroke-dasharray:none" />
    <rect
       style="opacity:0.1;fill:#000000;fill-opacity:1;stroke:#000000;stroke-width:6;stroke-miterlimit:4;stroke-dasharray:none"
       id="rect6979"
       width="104"
       height="104"
       x="12"
       y="940.36218"
       rx="8"
       ry="8" />
    <rect
       ry="8"
       rx="8"
       y="938.36218"
       x="12"
       height="104"
       width="104"
       id="rect5969"
       style="fill:#000000;fill-opacity:1;stroke:#000000;opacity:0.20000000000000001;stroke-width:3;stroke-miterlimit:4;stroke-dasharray:none" />
    <rect
       style="fill:url(#radialGradient5899);fill-opacity:1;stroke:#1a1a1a"
       id="rect6936"
       width="104"
       height="104"
       x="12"
       y="938.36218"
       rx="8"
       ry="8" />
    <rect
       ry="8"
       rx="8"
       y="934.36218"
       x="12"
       height="104"
       width="104"
       id="rect6964"
       style="fill:url(#radialGradient7116);fill-opacity:1;stroke:#1a1a1a" />
    <text
       xml:space="preserve"
       style="font-size:24px;font-style:normal;font-weight:normal;line-height:125%;letter-spacing:0px;word-spacing:0px;fill:#000000;fill-opacity:1;stroke:none;font-family:Sans"
       x="-56"
       y="948.36218"
       id="text5893"
       sodipodi:linespacing="125%"><tspan
         sodipodi:role="line"
         id="tspan5895"
         x="-56"
         y="948.36218">128</tspan></text>
    <text
       sodipodi:linespacing="125%"
       id="text5901"
       y="1000.3622"
       x="184"
       style="font-size:16px;font-style:normal;font-weight:normal;line-height:125%;letter-spacing:0px;word-spacing:0px;fill:#000000;fill-opacity:1;stroke:none;font-family:Sans"
       xml:space="preserve"><tspan
         y="1000.3622"
         x="184"
         id="tspan5903"
         sodipodi:role="line">31 - 17</tspan></text>
    <text
       xml:space="preserve"
       style="font-size:16px;font-style:normal;font-weight:normal;line-height:125%;letter-spacing:0px;word-spacing:0px;fill:#000000;fill-opacity:1;stroke:none;font-family:Sans"
       x="172"
       y="1048.3622"
       id="text5905"
       sodipodi:linespacing="125%"><tspan
         sodipodi:role="line"
         id="tspan5907"
         x="172"
         y="1048.3622">16</tspan></text>
    <rect
       style="fill:none;stroke:#000000;stroke-width:1;stroke-linecap:round;stroke-linejoin:round;stroke-miterlimit:4;stroke-opacity:1;stroke-dasharray:none;stroke-dashoffset:0"
       id="rect5919"
       width="40"
       height="40"
       x="140"
       y="60"
       rx="4.5902016e-07"
       transform="translate(0,924.36218)" />
    <rect
       style="fill:none;stroke:#000000;stroke-width:1;stroke-linecap:round;stroke-linejoin:round;stroke-miterlimit:4;stroke-opacity:1;stroke-dasharray:none;stroke-dashoffset:0"
       id="rect5921"
       width="24"
       height="24"
       x="140"
       y="1032.3622"
       rx="4.5902016e-07" />
    <rect
       style="fill:#b3b3b3;fill-opacity:1;stroke:none"
       id="rect6935"
       width="32"
       height="4"
       x="144"
       y="56"
       transform="translate(0,924.36218)"
       rx="4.5902016e-07" />
    <rect
       style="fill:#b3b3b3;fill-opacity:1;stroke:none"
       id="rect6937"
       width="4"
       height="32"
       x="136"
       y="64"
       transform="translate(0,924.36218)"
       rx="4.5902016e-07" />
    <rect
       style="fill:#b3b3b3;fill-opacity:1;stroke:none"
       id="rect6939"
       width="16"
       height="4"
       x="144"
       y="104"
       rx="4.5902016e-07"
       transform="translate(0,924.36218)" />
    <rect
       style="fill:#b3b3b3;fill-opacity:1;stroke:none"
       id="rect6941"
       width="4"
       height="16"
       x="136"
       y="112"
       transform="translate(0,924.36218)"
       rx="4.5902016e-07" />
    <rect
       style="fill:url(#radialGradient7116);fill-opacity:1;stroke:#1a1a1a"
       id="rect12711"
       width="104"
       height="104"
       x="12"
       y="934.36218"
       rx="8"
       ry="8" />
    <path
       id="path4129"
       transform="translate(0,924.36218)"
       d="M 28 30.5 L 28 39.5 L 91 39.5 L 91 30.5 L 28 30.5 z M 28 48.5 L 28 75.5 L 37 75.5 L 50.5 62 L 37 48.5 L 28 48.5 z M 59.5 48.5 L 59.5 57.5 L 100 57.5 L 100 48.5 L 59.5 48.5 z M 59.5 66.5 L 59.5 75.5 L 91 75.5 L 91 66.5 L 59.5 66.5 z M 28 84.5 L 28 93.5 L 91 93.5 L 91 84.5 L 28 84.5 z "
       style="fill:#000000;fill-opacity:1;stroke:none;filter:url(#filter4131)" />
    <path
       style="fill:url(#radialGradient4127);fill-opacity:1;stroke:#ffffff;stroke-opacity:0.31372549999999999;stroke-width:2;stroke-miterlimit:4;stroke-dasharray:none;stroke-linejoin:round"
       d="M 28 30.5 L 28 39.5 L 91 39.5 L 91 30.5 L 28 30.5 z M 28 48.5 L 28 75.5 L 37 75.5 L 50.5 62 L 37 48.5 L 28 48.5 z M 59.5 48.5 L 59.5 57.5 L 100 57.5 L 100 48.5 L 59.5 48.5 z M 59.5 66.5 L 59.5 75.5 L 91 75.5 L 91 66.5 L 59.5 66.5 z M 28 84.5 L 28 93.5 L 91 93.5 L 91 84.5 L 28 84.5 z "
       transform="translate(0,924.36218)"
       id="rect7064" />
    <g
       id="g4139"
       transform="matrix(0.36281566,0,0,0.36281566,136.7798,646.49453)">
      <path
         id="path4135"
         transform="translate(0,924.36218)"
         d="m 28,30.5 0,9 63,0 0,-9 -63,0 z m 0,18 0,27 9,0 L 50.5,62 37,48.5 l -9,0 z m 31.5,0 0,9 40.5,0 0,-9 -40.5,0 z m 0,18 0,9 31.5,0 0,-9 -31.5,0 z m -31.5,18 0,9 63,0 0,-9 -63,0 z"
         style="fill:#000000;fill-opacity:1;stroke:none;filter:url(#filter4131)"
         inkscape:connector-curvature="0" />
      <path
         style="fill:url(#radialGradient4143);fill-opacity:1;stroke:#ffffff;stroke-width:2;stroke-linejoin:round;stroke-miterlimit:4;stroke-opacity:0.31372549;stroke-dasharray:none"
         d="m 28,30.5 0,9 63,0 0,-9 -63,0 z m 0,18 0,27 9,0 L 50.5,62 37,48.5 l -9,0 z m 31.5,0 0,9 40.5,0 0,-9 -40.5,0 z m 0,18 0,9 31.5,0 0,-9 -31.5,0 z m -31.5,18 0,9 63,0 0,-9 -63,0 z"
         transform="translate(0,924.36218)"
         id="path4137"
         inkscape:connector-curvature="0" />
    </g>
    <path
       style="fill:url(#radialGradient4174);fill-opacity:1;stroke:none"
       d="M 144 113 L 144 115 L 158 115 L 158 113 L 144 113 z M 144 117 L 144 123 L 146 123 L 149 120 L 146 117 L 144 117 z M 151 117 L 151 119 L 160 119 L 160 117 L 151 117 z M 151 121 L 151 123 L 158 123 L 158 121 L 151 121 z M 144 125 L 144 127 L 158 127 L 158 125 L 144 125 z "
       transform="translate(0,924.36218)"
       id="rect6083" />
  </g>
</svg>
