<?xml version="1.0" encoding="UTF-8" standalone="no"?>
<!-- Created with Inkscape (http://www.inkscape.org/) -->

<svg
   xmlns:dc="http://purl.org/dc/elements/1.1/"
   xmlns:cc="http://creativecommons.org/ns#"
   xmlns:rdf="http://www.w3.org/1999/02/22-rdf-syntax-ns#"
   xmlns:svg="http://www.w3.org/2000/svg"
   xmlns="http://www.w3.org/2000/svg"
   xmlns:xlink="http://www.w3.org/1999/xlink"
   xmlns:sodipodi="http://sodipodi.sourceforge.net/DTD/sodipodi-0.dtd"
   xmlns:inkscape="http://www.inkscape.org/namespaces/inkscape"
   sodipodi:docname="insert-text.svg"
   inkscape:version="0.48.4 r9939"
   version="1.1"
   id="svg2"
   height="128"
   width="128">
  <sodipodi:namedview
     id="base"
     pagecolor="#ffffff"
     bordercolor="#666666"
     borderopacity="1.0"
     inkscape:pageopacity="0.0"
     inkscape:pageshadow="2"
     inkscape:zoom="5.1200002"
     inkscape:cx="118.09914"
     inkscape:cy="56.879814"
     inkscape:document-units="px"
     inkscape:current-layer="layer1"
     showgrid="true"
     showguides="true"
     inkscape:guide-bbox="true"
     inkscape:window-width="1221"
     inkscape:window-height="1000"
     inkscape:window-x="59"
     inkscape:window-y="24"
     inkscape:window-maximized="1">
    <inkscape:grid
       snapvisiblegridlinesonly="true"
       enabled="true"
       visible="true"
       empspacing="4"
       id="grid2985"
       type="xygrid" />
  </sodipodi:namedview>
  <defs
     id="defs4">
    <linearGradient
       id="linearGradient7110">
      <stop
         style="stop-color:#5a5a5a;stop-opacity:1;"
         offset="0"
         id="stop7112" />
      <stop
         style="stop-color:#202020;stop-opacity:1;"
         offset="1"
         id="stop7114" />
    </linearGradient>
    <linearGradient
       id="linearGradient4216-4-8-2">
      <stop
         id="stop4218-8-0-7"
         offset="0"
         style="stop-color:#494949;stop-opacity:1;" />
      <stop
         id="stop4220-1-6-4"
         offset="1"
         style="stop-color:#0f0f0f;stop-opacity:1;" />
    </linearGradient>
    <radialGradient
       inkscape:collect="always"
       xlink:href="#linearGradient4216-4-8-2"
       id="radialGradient5899"
       gradientUnits="userSpaceOnUse"
       gradientTransform="translate(0,2)"
       cx="64"
       cy="1020.3622"
       fx="64"
       fy="1020.3622"
       r="52" />
    <radialGradient
       inkscape:collect="always"
       xlink:href="#linearGradient7110"
       id="radialGradient7116"
       cx="80"
       cy="972.36218"
       fx="80"
       fy="972.36218"
       r="52.5"
       gradientUnits="userSpaceOnUse" />
    <linearGradient
       id="linearGradient6964-4">
      <stop
         style="stop-color:#ffffff;stop-opacity:1;"
         offset="0"
         id="stop6966-4" />
      <stop
         style="stop-color:#cacaca;stop-opacity:1;"
         offset="1"
         id="stop6970-3" />
    </linearGradient>
    <linearGradient
       id="linearGradient8794-33">
      <stop
         style="stop-color:#ffffff;stop-opacity:1;"
         offset="0"
         id="stop8796-9" />
      <stop
         style="stop-color:#cacaca;stop-opacity:1;"
         offset="1"
         id="stop8798-6" />
    </linearGradient>
    <radialGradient
       r="32"
       fy="46.695652"
       fx="84"
       cy="46.695652"
       cx="84"
       gradientTransform="matrix(0.78722727,0,0,1.1316392,13.617455,-8.16161)"
       gradientUnits="userSpaceOnUse"
       id="radialGradient5944"
       xlink:href="#linearGradient8794-33"
       inkscape:collect="always" />
    <radialGradient
       inkscape:collect="always"
       xlink:href="#linearGradient8794-33"
       id="radialGradient10267"
       gradientUnits="userSpaceOnUse"
       gradientTransform="matrix(0.78722727,0,0,1.1316392,13.617455,-8.16161)"
       cx="84"
       cy="46.695652"
       fx="84"
       fy="46.695652"
       r="32" />
    <radialGradient
       inkscape:collect="always"
       xlink:href="#linearGradient6964-4"
       id="radialGradient10297"
       cx="154"
       cy="118.5"
       fx="154"
       fy="118.5"
       r="6"
       gradientTransform="matrix(1.6666671,-2.1327557e-6,2.1327544e-6,1.6666661,-102.66697,-79.499605)"
       gradientUnits="userSpaceOnUse" />
    <radialGradient
       inkscape:collect="always"
       xlink:href="#linearGradient8794-33"
       id="radialGradient3924"
       gradientUnits="userSpaceOnUse"
       gradientTransform="matrix(5.625,0,0,5.625,-793.25,304.61216)"
       cx="154"
       cy="118"
       fx="154"
       fy="118"
       r="8" />
    <radialGradient
       inkscape:collect="always"
       xlink:href="#linearGradient8794-33"
       id="radialGradient3944"
       gradientUnits="userSpaceOnUse"
       gradientTransform="matrix(5.625,0,0,5.625,-793.25,304.61216)"
       cx="154"
       cy="118"
       fx="154"
       fy="118"
       r="8" />
    <radialGradient
       inkscape:collect="always"
       xlink:href="#linearGradient8794-33"
       id="radialGradient4048"
       gradientUnits="userSpaceOnUse"
       gradientTransform="matrix(1.25,0,0,1.25,-38.5,-29.5)"
       cx="154"
       cy="118"
       fx="154"
       fy="118"
       r="8" />
    <radialGradient
       inkscape:collect="always"
       xlink:href="#linearGradient8794-33"
       id="radialGradient4053"
       gradientUnits="userSpaceOnUse"
       gradientTransform="matrix(5.625,0,0,5.625,-793.25,309.11216)"
       cx="154"
       cy="118"
       fx="154"
       fy="118"
       r="8" />
    <filter
       inkscape:collect="always"
       id="filter4057"
       x="-0.11250002"
       width="1.225"
       y="-0.12857141"
       height="1.2571428">
      <feGaussianBlur
         inkscape:collect="always"
         stdDeviation="3.3750005"
         id="feGaussianBlur4059" />
    </filter>
    <radialGradient
       inkscape:collect="always"
       xlink:href="#linearGradient8794-33"
       id="radialGradient4071"
       gradientUnits="userSpaceOnUse"
       gradientTransform="matrix(5.625,0,0,5.625,-793.25,309.11216)"
       cx="154"
       cy="118"
       fx="154"
       fy="118"
       r="8" />
    <radialGradient
       inkscape:collect="always"
       xlink:href="#linearGradient8794-33"
       id="radialGradient4128"
       cx="152"
       cy="118.5"
       fx="152"
       fy="118.5"
       r="8"
       gradientTransform="matrix(1,0,0,0.8125,0,22.21875)"
       gradientUnits="userSpaceOnUse" />
    <radialGradient
       inkscape:collect="always"
       xlink:href="#linearGradient8794-33"
       id="radialGradient4131"
       gradientUnits="userSpaceOnUse"
       gradientTransform="matrix(1.25,3.7150963e-7,-3.7150956e-7,1.2499997,-38.49995,-29.355793)"
       cx="154"
       cy="117.88461"
       fx="154"
       fy="117.88461"
       r="8" />
    <radialGradient
       inkscape:collect="always"
       xlink:href="#linearGradient8794-33"
       id="radialGradient4135"
       gradientUnits="userSpaceOnUse"
       gradientTransform="matrix(5.625,1.6717933e-6,-1.671793e-6,5.6249987,-793.24977,318.76109)"
       cx="154"
       cy="117.88461"
       fx="154"
       fy="117.88461"
       r="8" />
    <filter
       inkscape:collect="always"
       id="filter4139"
       x="-0.11250002"
       width="1.225"
       y="-0.12857141"
       height="1.2571428">
      <feGaussianBlur
         inkscape:collect="always"
         stdDeviation="3.3750005"
         id="feGaussianBlur4141" />
    </filter>
    <radialGradient
       inkscape:collect="always"
       xlink:href="#linearGradient8794-33"
       id="radialGradient4153"
       gradientUnits="userSpaceOnUse"
       gradientTransform="matrix(5.625,1.6717933e-6,-1.671793e-6,5.6249987,-793.24977,318.76109)"
       cx="154"
       cy="117.88461"
       fx="154"
       fy="117.88461"
       r="8" />
  </defs>
  <metadata
     id="metadata7">
    <rdf:RDF>
      <cc:Work
         rdf:about="">
        <dc:format>image/svg+xml</dc:format>
        <dc:type
           rdf:resource="http://purl.org/dc/dcmitype/StillImage" />
        <dc:title></dc:title>
      </cc:Work>
    </rdf:RDF>
  </metadata>
  <g
     transform="translate(0,-924.36218)"
     id="layer1"
     inkscape:groupmode="layer"
     inkscape:label="Layer 1">
    <rect
       ry="8"
       rx="8"
       y="940.36218"
       x="12"
       height="104"
       width="104"
       id="rect6981"
       style="opacity:0.10000000000000001;fill:#000000;fill-opacity:1;stroke:#000000;stroke-width:10;stroke-miterlimit:4;stroke-dasharray:none" />
    <rect
       style="opacity:0.1;fill:#000000;fill-opacity:1;stroke:#000000;stroke-width:6;stroke-miterlimit:4;stroke-dasharray:none"
       id="rect6979"
       width="104"
       height="104"
       x="12"
       y="940.36218"
       rx="8"
       ry="8" />
    <rect
       ry="8"
       rx="8"
       y="938.36218"
       x="12"
       height="104"
       width="104"
       id="rect5969"
       style="fill:#000000;fill-opacity:1;stroke:#000000;opacity:0.20000000000000001;stroke-width:3;stroke-miterlimit:4;stroke-dasharray:none" />
    <rect
       style="fill:url(#radialGradient5899);fill-opacity:1;stroke:#1a1a1a"
       id="rect6936"
       width="104"
       height="104"
       x="12"
       y="938.36218"
       rx="8"
       ry="8" />
    <rect
       ry="8"
       rx="8"
       y="934.36218"
       x="12"
       height="104"
       width="104"
       id="rect6964"
       style="fill:url(#radialGradient7116);fill-opacity:1;stroke:#1a1a1a" />
    <text
       xml:space="preserve"
       style="font-size:24px;font-style:normal;font-weight:normal;line-height:125%;letter-spacing:0px;word-spacing:0px;fill:#000000;fill-opacity:1;stroke:none;font-family:Sans"
       x="-56"
       y="948.36218"
       id="text5893"
       sodipodi:linespacing="125%"><tspan
         sodipodi:role="line"
         id="tspan5895"
         x="-56"
         y="948.36218">128</tspan></text>
    <text
       sodipodi:linespacing="125%"
       id="text5901"
       y="1000.3622"
       x="184"
       style="font-size:16px;font-style:normal;font-weight:normal;line-height:125%;letter-spacing:0px;word-spacing:0px;fill:#000000;fill-opacity:1;stroke:none;font-family:Sans"
       xml:space="preserve"><tspan
         y="1000.3622"
         x="184"
         id="tspan5903"
         sodipodi:role="line">31 - 17</tspan></text>
    <text
       xml:space="preserve"
       style="font-size:16px;font-style:normal;font-weight:normal;line-height:125%;letter-spacing:0px;word-spacing:0px;fill:#000000;fill-opacity:1;stroke:none;font-family:Sans"
       x="172"
       y="1048.3622"
       id="text5905"
       sodipodi:linespacing="125%"><tspan
         sodipodi:role="line"
         id="tspan5907"
         x="172"
         y="1048.3622">16</tspan></text>
    <rect
       style="fill:none;stroke:#000000;stroke-width:1;stroke-linecap:round;stroke-linejoin:round;stroke-miterlimit:4;stroke-opacity:1;stroke-dasharray:none;stroke-dashoffset:0"
       id="rect5919"
       width="40"
       height="40"
       x="140"
       y="60"
       transform="translate(0,924.36218)"
       rx="4.5902016e-07" />
    <rect
       style="fill:none;stroke:#000000;stroke-width:1;stroke-linecap:round;stroke-linejoin:round;stroke-miterlimit:4;stroke-opacity:1;stroke-dasharray:none;stroke-dashoffset:0"
       id="rect5921"
       width="24"
       height="24"
       x="140"
       y="1032.3622"
       rx="4.5902016e-07" />
    <rect
       style="fill:#b3b3b3;fill-opacity:1;stroke:none"
       id="rect6935"
       width="32"
       height="4"
       x="144"
       y="56"
       transform="translate(0,924.36218)"
       rx="4.5902016e-07" />
    <rect
       style="fill:#b3b3b3;fill-opacity:1;stroke:none"
       id="rect6937"
       width="4"
       height="32"
       x="136"
       y="64"
       transform="translate(0,924.36218)"
       rx="4.5902016e-07" />
    <rect
       style="fill:#b3b3b3;fill-opacity:1;stroke:none"
       id="rect6939"
       width="16"
       height="4"
       x="144"
       y="104"
       rx="4.5902016e-07"
       transform="translate(0,924.36218)" />
    <rect
       style="fill:#b3b3b3;fill-opacity:1;stroke:none"
       id="rect6941"
       width="4"
       height="16"
       x="136"
       y="112"
       transform="translate(0,924.36218)"
       rx="4.5902016e-07" />
    <rect
       style="fill:url(#radialGradient7116);fill-opacity:1;stroke:#1a1a1a"
       id="rect12711"
       width="104"
       height="104"
       x="12"
       y="934.36218"
       rx="8"
       ry="8" />
    <path
       style="fill:url(#radialGradient4131);fill-opacity:1;stroke:none"
       d="M 144 112 L 144 121 C 144 122 144 122 145 122 L 145 124 C 145 124.554 145.446 125 146 125 L 147 125 L 147 126 L 150 126 L 150 125 L 155 125 L 155 126 L 158 126 L 158 125 L 159 125 C 159.554 125 160 124.554 160 124 L 160 116 C 160 115.446 159.554 115 159 115 L 146 115 C 145.446 115 145 115.446 145 116 L 145 112 L 144 112 z M 147.5 116 C 148.32843 116 149 116.67157 149 117.5 C 149 118.32843 148.32843 119 147.5 119 C 146.67157 119 146 118.32843 146 117.5 C 146 116.67157 146.67157 116 147.5 116 z M 152 116 L 159 116 L 159 117 L 152 117 L 152 116 z M 152 118 L 159 118 L 159 119 L 152 119 L 152 118 z M 147 120 C 147.55228 120 148 120.44772 148 121 C 148 121.55228 147.55228 122 147 122 C 146.44772 122 146 121.55228 146 121 C 146 120.44772 146.44772 120 147 120 z M 149 120 L 151 120 L 151 121 L 149 121 L 149 120 z M 152 120 L 159 120 L 159 121 L 152 121 L 152 120 z M 149 122 L 151 122 L 151 123 L 149 123 L 149 122 z M 152 122 L 159 122 L 159 123 L 152 123 L 152 122 z "
       transform="translate(0,924.36218)"
       id="rect4092" />
    <g
       id="g4143">
      <path
         id="path4137"
         d="m 28,954.86218 0,40.5 c 0,4.5 0,4.5 4.5,4.5 l 0,9.00002 c 0,2.493 2.007,4.5 4.5,4.5 l 4.5,0 0,4.5 13.5,0 0,-4.5 22.5,0 0,4.5 13.5,0 0,-4.5 4.5,0 c 2.493,0 4.5,-2.007 4.5,-4.5 l 0,-36.00002 c 0,-2.493 -2.007,-4.5 -4.5,-4.5 l -58.5,0 c -2.493,0 -4.5,2.007 -4.5,4.5 l 0,-18 -4.5,0 z m 15.75,18 c 3.72793,0 6.75,3.022 6.75,6.75 0,3.7279 -3.02207,6.75 -6.75,6.75 -3.72794,0 -6.75,-3.0221 -6.75,-6.75 0,-3.728 3.02206,-6.75 6.75,-6.75 z m 20.25,0 31.5,0 0,4.5 -31.5,0 0,-4.5 z m 0,9 31.5,0 0,4.5 -31.5,0 0,-4.5 z m -22.5,9 c 2.48526,0 4.5,2.0147 4.5,4.5 0,2.4852 -2.01474,4.5 -4.5,4.5 -2.48526,0 -4.5,-2.0148 -4.5,-4.5 0,-2.4853 2.01474,-4.5 4.5,-4.5 z m 9,0 9,0 0,4.5 -9,0 0,-4.5 z m 13.5,0 31.5,0 0,4.5 -31.5,0 0,-4.5 z m -13.5,9 9,0 0,4.50002 -9,0 0,-4.50002 z m 13.5,0 31.5,0 0,4.50002 -31.5,0 0,-4.50002 z"
         style="fill:#000000;fill-opacity:1;stroke:none;filter:url(#filter4139)"
         inkscape:connector-curvature="0" />
      <path
         inkscape:connector-curvature="0"
         style="fill:url(#radialGradient4135);fill-opacity:1;stroke:#ffffff;stroke-opacity:0.31372549999999999;stroke-width:2;stroke-miterlimit:4;stroke-dasharray:none"
         d="m 28,954.86218 0,40.5 c 0,4.5 0,4.5 4.5,4.5 l 0,9.00002 c 0,2.493 2.007,4.5 4.5,4.5 l 4.5,0 0,4.5 13.5,0 0,-4.5 22.5,0 0,4.5 13.5,0 0,-4.5 4.5,0 c 2.493,0 4.5,-2.007 4.5,-4.5 l 0,-36.00002 c 0,-2.493 -2.007,-4.5 -4.5,-4.5 l -58.5,0 c -2.493,0 -4.5,2.007 -4.5,4.5 l 0,-18 -4.5,0 z m 15.75,18 c 3.72793,0 6.75,3.022 6.75,6.75 0,3.7279 -3.02207,6.75 -6.75,6.75 -3.72794,0 -6.75,-3.0221 -6.75,-6.75 0,-3.728 3.02206,-6.75 6.75,-6.75 z m 20.25,0 31.5,0 0,4.5 -31.5,0 0,-4.5 z m 0,9 31.5,0 0,4.5 -31.5,0 0,-4.5 z m -22.5,9 c 2.48526,0 4.5,2.0147 4.5,4.5 0,2.4852 -2.01474,4.5 -4.5,4.5 -2.48526,0 -4.5,-2.0148 -4.5,-4.5 0,-2.4853 2.01474,-4.5 4.5,-4.5 z m 9,0 9,0 0,4.5 -9,0 0,-4.5 z m 13.5,0 31.5,0 0,4.5 -31.5,0 0,-4.5 z m -13.5,9 9,0 0,4.50002 -9,0 0,-4.50002 z m 13.5,0 31.5,0 0,4.50002 -31.5,0 0,-4.50002 z"
         id="path4133" />
    </g>
    <g
       id="g4147"
       transform="matrix(0.36281555,0,0,0.36281555,136.7798,646.49464)">
      <path
         inkscape:connector-curvature="0"
         style="fill:#000000;fill-opacity:1;stroke:none;filter:url(#filter4139)"
         d="m 28,954.86218 0,40.5 c 0,4.5 0,4.5 4.5,4.5 l 0,9.00002 c 0,2.493 2.007,4.5 4.5,4.5 l 4.5,0 0,4.5 13.5,0 0,-4.5 22.5,0 0,4.5 13.5,0 0,-4.5 4.5,0 c 2.493,0 4.5,-2.007 4.5,-4.5 l 0,-36.00002 c 0,-2.493 -2.007,-4.5 -4.5,-4.5 l -58.5,0 c -2.493,0 -4.5,2.007 -4.5,4.5 l 0,-18 -4.5,0 z m 15.75,18 c 3.72793,0 6.75,3.022 6.75,6.75 0,3.7279 -3.02207,6.75 -6.75,6.75 -3.72794,0 -6.75,-3.0221 -6.75,-6.75 0,-3.728 3.02206,-6.75 6.75,-6.75 z m 20.25,0 31.5,0 0,4.5 -31.5,0 0,-4.5 z m 0,9 31.5,0 0,4.5 -31.5,0 0,-4.5 z m -22.5,9 c 2.48526,0 4.5,2.0147 4.5,4.5 0,2.4852 -2.01474,4.5 -4.5,4.5 -2.48526,0 -4.5,-2.0148 -4.5,-4.5 0,-2.4853 2.01474,-4.5 4.5,-4.5 z m 9,0 9,0 0,4.5 -9,0 0,-4.5 z m 13.5,0 31.5,0 0,4.5 -31.5,0 0,-4.5 z m -13.5,9 9,0 0,4.50002 -9,0 0,-4.50002 z m 13.5,0 31.5,0 0,4.50002 -31.5,0 0,-4.50002 z"
         id="path4149" />
      <path
         id="path4151"
         d="m 28,954.86218 0,40.5 c 0,4.5 0,4.5 4.5,4.5 l 0,9.00002 c 0,2.493 2.007,4.5 4.5,4.5 l 4.5,0 0,4.5 13.5,0 0,-4.5 22.5,0 0,4.5 13.5,0 0,-4.5 4.5,0 c 2.493,0 4.5,-2.007 4.5,-4.5 l 0,-36.00002 c 0,-2.493 -2.007,-4.5 -4.5,-4.5 l -58.5,0 c -2.493,0 -4.5,2.007 -4.5,4.5 l 0,-18 -4.5,0 z m 15.75,18 c 3.72793,0 6.75,3.022 6.75,6.75 0,3.7279 -3.02207,6.75 -6.75,6.75 -3.72794,0 -6.75,-3.0221 -6.75,-6.75 0,-3.728 3.02206,-6.75 6.75,-6.75 z m 20.25,0 31.5,0 0,4.5 -31.5,0 0,-4.5 z m 0,9 31.5,0 0,4.5 -31.5,0 0,-4.5 z m -22.5,9 c 2.48526,0 4.5,2.0147 4.5,4.5 0,2.4852 -2.01474,4.5 -4.5,4.5 -2.48526,0 -4.5,-2.0148 -4.5,-4.5 0,-2.4853 2.01474,-4.5 4.5,-4.5 z m 9,0 9,0 0,4.5 -9,0 0,-4.5 z m 13.5,0 31.5,0 0,4.5 -31.5,0 0,-4.5 z m -13.5,9 9,0 0,4.50002 -9,0 0,-4.50002 z m 13.5,0 31.5,0 0,4.50002 -31.5,0 0,-4.50002 z"
         style="fill:url(#radialGradient4153);fill-opacity:1;stroke:#ffffff;stroke-width:2;stroke-miterlimit:4;stroke-opacity:0.31372549;stroke-dasharray:none"
         inkscape:connector-curvature="0" />
    </g>
  </g>
</svg>
