<?xml version="1.0" encoding="UTF-8" standalone="no"?>
<!-- Created with Inkscape (http://www.inkscape.org/) -->

<svg
   xmlns:dc="http://purl.org/dc/elements/1.1/"
   xmlns:cc="http://creativecommons.org/ns#"
   xmlns:rdf="http://www.w3.org/1999/02/22-rdf-syntax-ns#"
   xmlns:svg="http://www.w3.org/2000/svg"
   xmlns="http://www.w3.org/2000/svg"
   xmlns:xlink="http://www.w3.org/1999/xlink"
   xmlns:sodipodi="http://sodipodi.sourceforge.net/DTD/sodipodi-0.dtd"
   xmlns:inkscape="http://www.inkscape.org/namespaces/inkscape"
   width="128"
   height="128"
   id="svg3829"
   version="1.1"
   inkscape:version="0.48.4 r9939"
   sodipodi:docname="applications-system.svg">
  <defs
     id="defs3831">
    <linearGradient
       inkscape:collect="always"
       id="linearGradient4363">
      <stop
         style="stop-color:#ffffff;stop-opacity:1;"
         offset="0"
         id="stop4365" />
      <stop
         style="stop-color:#ffffff;stop-opacity:0;"
         offset="1"
         id="stop4367" />
    </linearGradient>
    <linearGradient
       inkscape:collect="always"
       id="linearGradient4250">
      <stop
         style="stop-color:#000000;stop-opacity:1;"
         offset="0"
         id="stop4252" />
      <stop
         style="stop-color:#000000;stop-opacity:0;"
         offset="1"
         id="stop4254" />
    </linearGradient>
    <linearGradient
       id="linearGradient5802">
      <stop
         id="stop5804"
         offset="0"
         style="stop-color:#ffffff;stop-opacity:1;" />
      <stop
         id="stop5806"
         offset="1"
         style="stop-color:#ededed;stop-opacity:1;" />
    </linearGradient>
    <linearGradient
       id="linearGradient4270-9-2">
      <stop
         style="stop-color:#f9f9f9;stop-opacity:0.50196081;"
         offset="0"
         id="stop4272-5-3" />
      <stop
         id="stop5033-1"
         offset="0.25"
         style="stop-color:#7d7d7d;stop-opacity:0.50196081;" />
      <stop
         id="stop4278-7-5"
         offset="0.5"
         style="stop-color:#808080;stop-opacity:0.50196081;" />
      <stop
         style="stop-color:#ffffff;stop-opacity:0.50196081;"
         offset="0.75"
         id="stop5035-7" />
      <stop
         style="stop-color:#000000;stop-opacity:0.50196081;"
         offset="1"
         id="stop4274-4-7" />
    </linearGradient>
    <linearGradient
       id="linearGradient4133">
      <stop
         id="stop4135"
         offset="0"
         stop-color="#6f7269" />
      <stop
         id="stop4137"
         offset="0.03125"
         stop-color="#777a71" />
      <stop
         id="stop4139"
         offset="0.041736"
         stop-color="#7f827a" />
      <stop
         id="stop4141"
         offset="0.066308"
         stop-color="#83867e" />
      <stop
         id="stop4143"
         offset="0.072621"
         stop-color="#878982" />
      <stop
         id="stop4145"
         offset="0.072621"
         stop-color="#8c8e87" />
      <stop
         id="stop4147"
         offset="0.081803"
         stop-color="#8e9089" />
      <stop
         id="stop4149"
         offset="0.125"
         stop-color="#8f918b" />
      <stop
         id="stop4151"
         offset="0.130217"
         stop-color="#979993" />
      <stop
         id="stop4153"
         offset="0.154946"
         stop-color="#9fa19b" />
      <stop
         id="stop4155"
         offset="0.186196"
         stop-color="#a7a9a4" />
      <stop
         id="stop4157"
         offset="0.203255"
         stop-color="#afb1ac" />
      <stop
         id="stop4159"
         offset="0.278798"
         stop-color="#b7b8b4" />
      <stop
         id="stop4161"
         offset="0.285476"
         stop-color="#bfc0bd" />
      <stop
         id="stop4163"
         offset="0.320534"
         stop-color="#c7c8c5" />
      <stop
         id="stop4165"
         offset="0.33389"
         stop-color="#cfd0ce" />
      <stop
         id="stop4167"
         offset="0.33389"
         stop-color="#c1c1c1" />
      <stop
         id="stop4169"
         offset="0.33389"
         stop-color="#cccccb" />
      <stop
         id="stop4171"
         offset="0.365609"
         stop-color="#d7d8d6" />
      <stop
         id="stop4173"
         offset="0.39399"
         stop-color="#d2d1cb" />
      <stop
         id="stop4175-7"
         offset="0.399833"
         stop-color="#cccbc1" />
      <stop
         id="stop4177-5"
         offset="0.485392"
         stop-color="#deddd8" />
      <stop
         id="stop4179"
         offset="0.517529"
         stop-color="#efefef" />
      <stop
         id="stop4181"
         offset="0.53125"
         stop-color="#dadada" />
      <stop
         id="stop4183"
         offset="0.552483"
         stop-color="#c5c5c5" />
      <stop
         id="stop4185"
         offset="0.552483"
         stop-color="#a8a8a8" />
      <stop
         id="stop4187"
         offset="0.563439"
         stop-color="#b8b8ba" />
      <stop
         id="stop4189"
         offset="0.569282"
         stop-color="#c8c8cc" />
      <stop
         id="stop4191"
         offset="0.577629"
         stop-color="#cdccce" />
      <stop
         id="stop4193"
         offset="0.586394"
         stop-color="#d2cfcf" />
      <stop
         id="stop4195"
         offset="0.618322"
         stop-color="#c6c4c5" />
      <stop
         id="stop4197"
         offset="0.626043"
         stop-color="#b9babb" />
      <stop
         id="stop4199"
         offset="0.641068"
         stop-color="#bbbeb9" />
      <stop
         id="stop4201"
         offset="0.663606"
         stop-color="#bcc2b8" />
      <stop
         id="stop4203"
         offset="0.675292"
         stop-color="#adb1aa" />
      <stop
         id="stop4205"
         offset="0.682805"
         stop-color="#9ea09c" />
      <stop
         id="stop4207"
         offset="0.703673"
         stop-color="#939492" />
      <stop
         id="stop4209"
         offset="0.722473"
         stop-color="#878787" />
      <stop
         id="stop4211"
         offset="0.74668"
         stop-color="#838280" />
      <stop
         id="stop4213"
         offset="0.758765"
         stop-color="#7f7e78" />
      <stop
         id="stop4215"
         offset="0.758765"
         stop-color="#72716d" />
      <stop
         id="stop4217"
         offset="0.763773"
         stop-color="#807d7d" />
      <stop
         id="stop4219"
         offset="0.770451"
         stop-color="#8f898c" />
      <stop
         id="stop4221"
         offset="0.770451"
         stop-color="#838480" />
      <stop
         id="stop4223"
         offset="0.827838"
         stop-color="#7c7a7a" />
      <stop
         id="stop4225"
         offset="0.83389"
         stop-color="#7b7979" />
      <stop
         id="stop4227"
         offset="0.851419"
         stop-color="#7a7778" />
      <stop
         id="stop4229"
         offset="0.876461"
         stop-color="#797677" />
      <stop
         id="stop4231"
         offset="0.892321"
         stop-color="#787476" />
      <stop
         id="stop4233"
         offset="0.934474"
         stop-color="#797577" />
      <stop
         id="stop4235"
         offset="0.941569"
         stop-color="#7a7678" />
      <stop
         id="stop4237"
         offset="0.941569"
         stop-color="#777375" />
      <stop
         id="stop4239"
         offset="0.965776"
         stop-color="#827e81" />
      <stop
         id="stop4241"
         offset="1"
         stop-color="#8e898d" />
    </linearGradient>
    <linearGradient
       id="linearGradient4709">
      <stop
         id="stop4711"
         offset="0"
         stop-color="#000000" />
      <stop
         id="stop4713"
         offset="0.15512"
         stop-color="#6b6b6b" />
      <stop
         id="stop4715"
         offset="0.238453"
         stop-color="#d6d6d6" />
      <stop
         id="stop4717"
         offset="0.287145"
         stop-color="#969696" />
      <stop
         id="stop4719"
         offset="0.288815"
         stop-color="#555555" />
      <stop
         id="stop4721"
         offset="0.317195"
         stop-color="#9d9d9d" />
      <stop
         id="stop4723"
         offset="0.388982"
         stop-color="#e6e6e6" />
      <stop
         id="stop4725"
         offset="0.583333"
         stop-color="#9d9d9d" />
      <stop
         id="stop4727"
         offset="0.713411"
         stop-color="#555555" />
      <stop
         id="stop4729"
         offset="0.796745"
         stop-color="#aaaaaa" />
      <stop
         id="stop4731"
         offset="0.878408"
         stop-color="#ffffff" />
      <stop
         id="stop4733"
         offset="0.949917"
         stop-color="#808080" />
      <stop
         id="stop4735"
         offset="1"
         stop-color="#000000" />
    </linearGradient>
    <radialGradient
       inkscape:collect="always"
       xlink:href="#linearGradient5802"
       id="radialGradient6930"
       cx="152"
       cy="117"
       fx="152"
       fy="117"
       r="8"
       gradientUnits="userSpaceOnUse"
       gradientTransform="matrix(1.5,0,0,1.125,-48.125001,-71.312501)" />
    <radialGradient
       inkscape:collect="always"
       xlink:href="#linearGradient5802"
       id="radialGradient6946"
       gradientUnits="userSpaceOnUse"
       gradientTransform="matrix(2.4375,0,0,1.828125,-210.5,-218.76562)"
       cx="152"
       cy="117"
       fx="152"
       fy="117"
       r="8" />
    <filter
       inkscape:collect="always"
       id="filter6950"
       x="-0.12"
       width="1.24"
       y="-0.12"
       height="1.24">
      <feGaussianBlur
         inkscape:collect="always"
         stdDeviation="1.3"
         id="feGaussianBlur6952" />
    </filter>
    <radialGradient
       inkscape:collect="always"
       xlink:href="#linearGradient4133"
       id="radialGradient4182"
       cx="42.142857"
       cy="42"
       fx="42.142857"
       fy="42"
       r="52"
       gradientUnits="userSpaceOnUse"
       gradientTransform="matrix(2.1538462,-4.4196638e-8,4.1039734e-8,2,-50.769234,-51.999998)" />
    <radialGradient
       inkscape:collect="always"
       xlink:href="#linearGradient4709"
       id="radialGradient4198"
       cx="29.628572"
       cy="71.391304"
       fx="29.628572"
       fy="71.391304"
       r="53"
       gradientUnits="userSpaceOnUse"
       gradientTransform="matrix(2.6415094,-3.7030044e-8,2.433403e-8,1.7358491,-26.264153,-55.924528)" />
    <filter
       inkscape:collect="always"
       id="filter4216"
       x="-0.13224645"
       width="1.2644929"
       y="-0.13224645"
       height="1.2644929">
      <feGaussianBlur
         inkscape:collect="always"
         stdDeviation="5.7306795"
         id="feGaussianBlur4218" />
    </filter>
    <linearGradient
       inkscape:collect="always"
       xlink:href="#linearGradient4270-9-2"
       id="linearGradient4246"
       x1="0"
       y1="128"
       x2="128"
       y2="0"
       gradientUnits="userSpaceOnUse" />
    <linearGradient
       inkscape:collect="always"
       xlink:href="#linearGradient4250"
       id="linearGradient4256"
       x1="63"
       y1="8"
       x2="63"
       y2="21"
       gradientUnits="userSpaceOnUse"
       gradientTransform="matrix(0.96592583,-0.25881905,0.25881905,0.96592583,-14.383672,-61.254834)" />
    <linearGradient
       inkscape:collect="always"
       xlink:href="#linearGradient4250"
       id="linearGradient4260"
       gradientUnits="userSpaceOnUse"
       gradientTransform="matrix(0.86602541,-0.50000001,0.50000001,0.86602541,-23.425626,-39.425626)"
       x1="63"
       y1="8"
       x2="63"
       y2="21" />
    <linearGradient
       inkscape:collect="always"
       xlink:href="#linearGradient4250"
       id="linearGradient4264"
       gradientUnits="userSpaceOnUse"
       gradientTransform="matrix(0.70710678,-0.70710679,0.70710679,0.70710678,-26.509668,-16)"
       x1="63"
       y1="8"
       x2="63"
       y2="21" />
    <linearGradient
       inkscape:collect="always"
       xlink:href="#linearGradient4250"
       id="linearGradient4268"
       gradientUnits="userSpaceOnUse"
       gradientTransform="matrix(0.5,-0.86602541,0.86602541,0.5,-23.425626,7.4256257)"
       x1="63"
       y1="8"
       x2="63"
       y2="21" />
    <linearGradient
       inkscape:collect="always"
       xlink:href="#linearGradient4250"
       id="linearGradient4272"
       gradientUnits="userSpaceOnUse"
       gradientTransform="matrix(0.25881904,-0.96592583,0.96592583,0.25881904,-14.383672,29.254834)"
       x1="63"
       y1="8"
       x2="63"
       y2="21" />
    <linearGradient
       inkscape:collect="always"
       xlink:href="#linearGradient4250"
       id="linearGradient4276"
       gradientUnits="userSpaceOnUse"
       gradientTransform="matrix(0,-1,1,0,-2.560924e-7,48)"
       x1="63"
       y1="8"
       x2="63"
       y2="21" />
    <linearGradient
       inkscape:collect="always"
       xlink:href="#linearGradient4250"
       id="linearGradient4280"
       gradientUnits="userSpaceOnUse"
       gradientTransform="matrix(-0.25881905,-0.96592583,0.96592583,-0.25881905,18.745166,62.383672)"
       x1="63"
       y1="8"
       x2="63"
       y2="21" />
    <linearGradient
       inkscape:collect="always"
       xlink:href="#linearGradient4250"
       id="linearGradient4284"
       gradientUnits="userSpaceOnUse"
       gradientTransform="matrix(-0.50000001,-0.86602541,0.86602541,-0.50000001,40.574374,71.425626)"
       x1="63"
       y1="8"
       x2="63"
       y2="21" />
    <linearGradient
       inkscape:collect="always"
       xlink:href="#linearGradient4250"
       id="linearGradient4288"
       gradientUnits="userSpaceOnUse"
       gradientTransform="matrix(-0.70710679,-0.70710678,0.70710678,-0.70710679,64,74.509668)"
       x1="63"
       y1="8"
       x2="63"
       y2="21" />
    <linearGradient
       inkscape:collect="always"
       xlink:href="#linearGradient4250"
       id="linearGradient4292"
       gradientUnits="userSpaceOnUse"
       gradientTransform="matrix(-0.86602541,-0.5,0.5,-0.86602541,87.425626,71.425626)"
       x1="63"
       y1="8"
       x2="63"
       y2="21" />
    <linearGradient
       inkscape:collect="always"
       xlink:href="#linearGradient4250"
       id="linearGradient4296"
       gradientUnits="userSpaceOnUse"
       gradientTransform="matrix(-0.96592583,-0.25881904,0.25881904,-0.96592583,109.25483,62.383672)"
       x1="63"
       y1="8"
       x2="63"
       y2="21" />
    <linearGradient
       inkscape:collect="always"
       xlink:href="#linearGradient4250"
       id="linearGradient4300"
       gradientUnits="userSpaceOnUse"
       gradientTransform="matrix(-1,0,0,-1,128,48.000001)"
       x1="63"
       y1="8"
       x2="63"
       y2="21" />
    <linearGradient
       inkscape:collect="always"
       xlink:href="#linearGradient4250"
       id="linearGradient4304"
       gradientUnits="userSpaceOnUse"
       gradientTransform="matrix(-0.96592583,0.25881905,-0.25881905,-0.96592583,142.38367,29.254835)"
       x1="63"
       y1="8"
       x2="63"
       y2="21" />
    <linearGradient
       inkscape:collect="always"
       xlink:href="#linearGradient4250"
       id="linearGradient4308"
       gradientUnits="userSpaceOnUse"
       gradientTransform="matrix(-0.86602541,0.50000001,-0.50000001,-0.86602541,151.42562,7.4256271)"
       x1="63"
       y1="8"
       x2="63"
       y2="21" />
    <linearGradient
       inkscape:collect="always"
       xlink:href="#linearGradient4250"
       id="linearGradient4312"
       gradientUnits="userSpaceOnUse"
       gradientTransform="matrix(-0.70710678,0.70710679,-0.70710679,-0.70710678,154.50966,-15.999997)"
       x1="63"
       y1="8"
       x2="63"
       y2="21" />
    <linearGradient
       inkscape:collect="always"
       xlink:href="#linearGradient4250"
       id="linearGradient4316"
       gradientUnits="userSpaceOnUse"
       gradientTransform="matrix(-0.5,0.86602541,-0.86602541,-0.5,151.42562,-39.425621)"
       x1="63"
       y1="8"
       x2="63"
       y2="21" />
    <linearGradient
       inkscape:collect="always"
       xlink:href="#linearGradient4250"
       id="linearGradient4320"
       gradientUnits="userSpaceOnUse"
       gradientTransform="matrix(-0.25881904,0.96592583,-0.96592583,-0.25881904,142.38367,-61.254828)"
       x1="63"
       y1="8"
       x2="63"
       y2="21" />
    <linearGradient
       inkscape:collect="always"
       xlink:href="#linearGradient4250"
       id="linearGradient4324"
       gradientUnits="userSpaceOnUse"
       gradientTransform="matrix(0,1,-1,0,128,-79.999994)"
       x1="63"
       y1="8"
       x2="63"
       y2="21" />
    <linearGradient
       inkscape:collect="always"
       xlink:href="#linearGradient4250"
       id="linearGradient4328"
       gradientUnits="userSpaceOnUse"
       gradientTransform="matrix(0.25881905,0.96592583,-0.96592583,0.25881905,109.25484,-94.383666)"
       x1="63"
       y1="8"
       x2="63"
       y2="21" />
    <linearGradient
       inkscape:collect="always"
       xlink:href="#linearGradient4250"
       id="linearGradient4332"
       gradientUnits="userSpaceOnUse"
       gradientTransform="matrix(0.50000001,0.86602541,-0.86602541,0.50000001,87.425633,-103.42562)"
       x1="63"
       y1="8"
       x2="63"
       y2="21" />
    <linearGradient
       inkscape:collect="always"
       xlink:href="#linearGradient4250"
       id="linearGradient4336"
       gradientUnits="userSpaceOnUse"
       gradientTransform="matrix(0.70710679,0.70710678,-0.70710678,0.70710679,64.000008,-106.50966)"
       x1="63"
       y1="8"
       x2="63"
       y2="21" />
    <linearGradient
       inkscape:collect="always"
       xlink:href="#linearGradient4250"
       id="linearGradient4340"
       gradientUnits="userSpaceOnUse"
       gradientTransform="matrix(0.86602541,0.5,-0.5,0.86602541,40.574384,-103.42562)"
       x1="63"
       y1="8"
       x2="63"
       y2="21" />
    <linearGradient
       inkscape:collect="always"
       xlink:href="#linearGradient4250"
       id="linearGradient4344"
       gradientUnits="userSpaceOnUse"
       gradientTransform="matrix(0.96592583,0.25881904,-0.25881904,0.96592583,18.745177,-94.383669)"
       x1="63"
       y1="8"
       x2="63"
       y2="21" />
    <linearGradient
       inkscape:collect="always"
       xlink:href="#linearGradient4250"
       id="linearGradient4348"
       gradientUnits="userSpaceOnUse"
       gradientTransform="translate(1.132091e-5,-80)"
       x1="63"
       y1="8"
       x2="63"
       y2="21" />
    <linearGradient
       inkscape:collect="always"
       xlink:href="#linearGradient4270-9-2"
       id="linearGradient4352"
       gradientUnits="userSpaceOnUse"
       x1="0"
       y1="128"
       x2="128"
       y2="0" />
    <linearGradient
       inkscape:collect="always"
       xlink:href="#linearGradient4270-9-2"
       id="linearGradient4356"
       gradientUnits="userSpaceOnUse"
       x1="0"
       y1="128"
       x2="128"
       y2="0" />
    <linearGradient
       inkscape:collect="always"
       xlink:href="#linearGradient4363"
       id="linearGradient4369"
       x1="64"
       y1="76"
       x2="40"
       y2="24"
       gradientUnits="userSpaceOnUse" />
    <radialGradient
       inkscape:collect="always"
       xlink:href="#linearGradient5802"
       id="radialGradient4385"
       cx="154"
       cy="118.25001"
       fx="154"
       fy="118.25001"
       r="7"
       gradientTransform="matrix(1.4285714,6.6714063e-7,-6.6714088e-7,1.4285719,-4.3048554,-147.19219)"
       gradientUnits="userSpaceOnUse" />
    <radialGradient
       inkscape:collect="always"
       xlink:href="#linearGradient5802"
       id="radialGradient4389"
       gradientUnits="userSpaceOnUse"
       gradientTransform="matrix(2.3214285,1.0841035e-6,-1.0841039e-6,2.3214293,-192.62487,-277.7592)"
       cx="154"
       cy="118.25001"
       fx="154"
       fy="118.25001"
       r="7" />
    <filter
       inkscape:collect="always"
       id="filter4393"
       x="-0.12857143"
       width="1.2571429"
       y="-0.1125"
       height="1.225">
      <feGaussianBlur
         inkscape:collect="always"
         stdDeviation="1.21875"
         id="feGaussianBlur4395" />
    </filter>
    <radialGradient
       inkscape:collect="always"
       xlink:href="#linearGradient5802"
       id="radialGradient4401"
       gradientUnits="userSpaceOnUse"
       gradientTransform="matrix(2.3214285,1.0841035e-6,-1.0841039e-6,2.3214293,-192.62487,-277.7592)"
       cx="154"
       cy="118.25001"
       fx="154"
       fy="118.25001"
       r="7" />
    <radialGradient
       inkscape:collect="always"
       xlink:href="#linearGradient5802"
       id="radialGradient4448"
       cx="154"
       cy="118"
       fx="154"
       fy="118"
       r="8"
       gradientUnits="userSpaceOnUse"
       gradientTransform="matrix(1.25,0,0,1.25,-38.5,-29.5)" />
    <radialGradient
       inkscape:collect="always"
       xlink:href="#linearGradient5802"
       id="radialGradient4452"
       gradientUnits="userSpaceOnUse"
       gradientTransform="matrix(2.03125,0,0,2.03125,-149.5625,-242.9375)"
       cx="154"
       cy="118"
       fx="154"
       fy="118"
       r="8" />
    <filter
       inkscape:collect="always"
       id="filter4456"
       x="-0.12"
       width="1.24"
       y="-0.12"
       height="1.24">
      <feGaussianBlur
         inkscape:collect="always"
         stdDeviation="1.3"
         id="feGaussianBlur4458" />
    </filter>
  </defs>
  <sodipodi:namedview
     id="base"
     pagecolor="#ffffff"
     bordercolor="#666666"
     borderopacity="1.0"
     inkscape:pageopacity="0.0"
     inkscape:pageshadow="2"
     inkscape:zoom="4.0000002"
     inkscape:cx="164.36749"
     inkscape:cy="25.343241"
     inkscape:current-layer="layer1"
     showgrid="true"
     inkscape:grid-bbox="true"
     inkscape:document-units="px"
     inkscape:window-width="1381"
     inkscape:window-height="876"
     inkscape:window-x="1339"
     inkscape:window-y="24"
     inkscape:window-maximized="1"
     showguides="true"
     inkscape:guide-bbox="true">
    <inkscape:grid
       type="xygrid"
       id="grid6879"
       empspacing="4"
       visible="true"
       enabled="true"
       snapvisiblegridlinesonly="true"
       color="#0000ff"
       opacity="0.07843137" />
  </sodipodi:namedview>
  <metadata
     id="metadata3834">
    <rdf:RDF>
      <cc:Work
         rdf:about="">
        <dc:format>image/svg+xml</dc:format>
        <dc:type
           rdf:resource="http://purl.org/dc/dcmitype/StillImage" />
        <dc:title></dc:title>
      </cc:Work>
    </rdf:RDF>
  </metadata>
  <g
     id="layer1"
     inkscape:label="Layer 1"
     inkscape:groupmode="layer"
     transform="translate(0,80)">
    <path
       inkscape:connector-curvature="0"
       style="fill:#000000;fill-opacity:1;stroke:none;filter:url(#filter4456)"
       d="m 158.375,-13 -1.01563,3.097656 -2.4375,-2.183594 -2.84375,1.625 0.66016,3.199219 -3.19922,-0.660156 -1.625,2.84375 2.1836,2.4375 L 147,-1.625 l 0,3.25 3.09766,1.015625 -2.1836,2.4375 1.625,2.84375 3.19922,-0.660156 -0.66016,3.199218 2.84375,1.625 2.4375,-2.183593 L 158.375,13 l 3.25,0 1.01562,-3.097656 2.4375,2.183593 2.84375,-1.625 -0.66015,-3.199218 3.19922,0.660156 1.625,-2.84375 -2.1836,-2.4375 L 173,1.625 l 0,-3.25 -3.09766,-1.015625 2.1836,-2.4375 -1.625,-2.84375 -3.19922,0.660156 0.66015,-3.199219 -2.84375,-1.625 -2.4375,2.183594 L 161.625,-13 l -3.25,0 z M 160,-8.125 c 4.48731,0 8.125,3.637692 8.125,8.125 0,4.487308 -3.63769,8.125 -8.125,8.125 -4.48731,0 -8.125,-3.637692 -8.125,-8.125 0,-4.487308 3.63769,-8.125 8.125,-8.125 z m 0,1.625 c -3.58985,0 -6.5,2.910147 -6.5,6.5 0,3.589853 2.91015,6.5 6.5,6.5 3.58985,0 6.5,-2.910147 6.5,-6.5 0,-3.589853 -2.91015,-6.5 -6.5,-6.5 z m 0,4.875 c 0.89745,0 1.625,0.727545 1.625,1.625 0,0.897455 -0.72755,1.625 -1.625,1.625 -0.89745,0 -1.625,-0.727545 -1.625,-1.625 0,-0.897455 0.72755,-1.625 1.625,-1.625 z"
       id="path4454" />
    <path
       id="path4210"
       transform="matrix(0.9728598,0,0,0.3970999,2.2369726,-8.789395)"
       d="m 60,12 -2.84375,8.53125 c -0.6333,0.0991 -1.28221,0.217935 -1.90625,0.34375 l -4.71875,-7.09375 -3.84375,1.03125 -0.5625,9 c -0.581875,0.259253 -1.150533,0.529056 -1.71875,0.8125 L 38,18.96875 l -3.46875,2 1.8125,8.84375 c -0.495049,0.400708 -0.99178,0.797331 -1.46875,1.21875 l -7.65625,-3.8125 -2.8125,2.84375 4.03125,8.0625 c -0.382319,0.524354 -0.765661,1.052207 -1.125,1.59375 L 18.96875,38 l -2,3.46875 5.96875,6.71875 c -0.235952,0.612084 -0.47848,1.218814 -0.6875,1.84375 l -8.46875,0.5 -1.03125,3.875 7.5,4.96875 c -0.06669,0.638116 -0.117131,1.291565 -0.15625,1.9375 L 12,64 l 0,4 8.53125,2.84375 c 0.0991,0.6333 0.217935,1.28221 0.34375,1.90625 l -7.09375,4.71875 1.03125,3.84375 9,0.5625 c 0.259253,0.581875 0.529056,1.150533 0.8125,1.71875 L 18.96875,90 l 2,3.46875 8.84375,-1.8125 c 0.400708,0.495049 0.797331,0.99178 1.21875,1.46875 l -3.8125,7.65625 2.84375,2.8125 8.0625,-4.03125 c 0.524354,0.382319 1.052207,0.76566 1.59375,1.125 L 38,109.03125 l 3.46875,2 6.71875,-5.96875 c 0.612084,0.23595 1.218814,0.47848 1.84375,0.6875 l 0.5,8.46875 3.875,1.03125 4.96875,-7.5 c 0.638116,0.0667 1.291565,0.11713 1.9375,0.15625 L 64,116 l 4,0 2.84375,-8.53125 c 0.6333,-0.0991 1.28221,-0.21794 1.90625,-0.34375 l 4.71875,7.09375 3.84375,-1.03125 0.5625,-9 c 0.581875,-0.25925 1.150533,-0.52906 1.71875,-0.8125 L 90,109.03125 l 3.46875,-2 -1.8125,-8.84375 c 0.495049,-0.400708 0.99178,-0.797331 1.46875,-1.21875 l 7.65625,3.8125 2.8125,-2.84375 -4.03125,-8.0625 c 0.382319,-0.524354 0.76566,-1.052207 1.125,-1.59375 L 109.03125,90 l 2,-3.46875 -5.96875,-6.71875 c 0.23595,-0.612084 0.47848,-1.218814 0.6875,-1.84375 l 8.46875,-0.5 1.03125,-3.875 -7.5,-4.96875 c 0.0667,-0.638116 0.11713,-1.291565 0.15625,-1.9375 L 116,64 l 0,-4 -8.53125,-2.84375 c -0.0991,-0.6333 -0.21794,-1.28221 -0.34375,-1.90625 l 7.09375,-4.71875 -1.03125,-3.84375 -9,-0.5625 c -0.25925,-0.581875 -0.52906,-1.150533 -0.8125,-1.71875 L 109.03125,38 l -2,-3.46875 -8.84375,1.8125 C 97.786792,35.848701 97.390169,35.35197 96.96875,34.875 l 3.8125,-7.65625 -2.84375,-2.8125 -8.0625,4.03125 c -0.524354,-0.382319 -1.052207,-0.765661 -1.59375,-1.125 L 90,18.96875 l -3.46875,-2 -6.71875,5.96875 C 79.200416,22.701548 78.593686,22.45902 77.96875,22.25 l -0.5,-8.46875 -3.875,-1.03125 -4.96875,7.5 C 67.986884,20.18331 67.333435,20.132869 66.6875,20.09375 L 64,12 60,12 z m 10.78125,12.71875 c 0.301554,-0.02424 0.631405,-0.01503 1,0.03125 8.578126,1.69092 16.155075,6.119197 21.8125,12.34375 1.203804,1.962461 -4.002475,4.653187 -9.65625,1.875 C 81.06832,36.679862 77.800724,34.887199 74.25,33.6875 68.661005,31.309505 66.739888,25.043545 70.78125,24.71875 z M 55.5,24.90625 c 2.280811,-0.03931 2.020706,5.776809 -3.15625,9.28125 -3.524965,1.379272 -6.743677,3.378793 -9.53125,5.84375 -0.123248,0.09123 -0.249992,0.196566 -0.375,0.28125 C 37.371653,43.74426 31.000325,41.839574 33.75,37.84375 39.314865,31.412515 46.885852,26.770438 55.5,24.90625 z M 62.9375,37 c 0.615939,-0.02495 1.227426,-0.01778 1.84375,0 3.834906,0.110654 7.648465,1.062637 11.1875,2.8125 A 3.0003,3.0003 0 1 1 73.3125,45.15625 C 67.015288,42.042616 59.583765,42.300037 53.5,45.8125 A 3.0003,3.0003 0 0 1 49.53125,45.03125 3.0003,3.0003 0 0 1 50.5,40.625 C 54.346462,38.404244 58.625926,37.174679 62.9375,37 z M 99.625,49.125 c 0.8123,0.01265 1.588,0.564398 2.15625,1.75 C 103.20892,54.986605 104,59.402311 104,64 c 0,4.271811 -0.69747,8.390238 -1.9375,12.25 -1.17755,1.865578 -6.00943,-1.281362 -6.4375,-7.46875 C 95.858704,67.221396 96,65.624968 96,64 96,61.856981 95.776738,59.775037 95.375,57.75 95.36261,57.68752 95.35651,57.624848 95.34375,57.5625 94.853657,52.956683 97.390926,49.090203 99.625,49.125 z m -72.53125,2.09375 c 1.862556,0.124583 4.943234,3.114257 5.28125,8 C 32.141296,60.778604 32,62.375032 32,64 c 0,2.143019 0.223262,4.224963 0.625,6.25 0.01239,0.06248 0.01849,0.125152 0.03125,0.1875 0.668287,6.280464 -4.306367,11.133889 -6.4375,6.6875 C 24.79108,73.013395 24,68.597689 24,64 c 0,-4.257758 0.67404,-8.37001 1.90625,-12.21875 0.244813,-0.420323 0.675052,-0.596777 1.1875,-0.5625 z M 64,60 c 2.209139,0 4,1.790861 4,4 0,2.209139 -1.790861,4 -4,4 -2.209139,0 -4,-1.790861 -4,-4 0,-2.209139 1.790861,-4 4,-4 z m 23.96875,0.9375 A 3.0003,3.0003 0 0 1 91,64 c 0,9.024024 -4.522808,17.463121 -12.03125,22.46875 a 3.0003,3.0003 0 1 1 -3.3125,-5 C 81.501342,77.572021 85,71.024927 85,64 a 3.0003,3.0003 0 0 1 2.65625,-3.03125 3.0003,3.0003 0 0 1 0.3125,-0.03125 z M 39.875,62.46875 A 3.0003,3.0003 0 0 1 43.03125,65.375 C 43.48337,72.385363 47.416235,78.675037 53.5,82.1875 A 3.0003,3.0003 0 0 1 54.8125,86 3.0003,3.0003 0 0 1 50.5,87.375 C 42.684966,82.862988 37.643281,74.724067 37.0625,65.71875 a 3.0003,3.0003 0 0 1 2.8125,-3.25 z m 51.21875,23.4375 c 2.953647,0.0112 4.906044,1.707203 3.15625,4.25 -5.571293,6.438664 -13.154763,11.07758 -21.78125,12.9375 -2.25074,-0.009 -1.968269,-5.791152 3.1875,-9.28125 3.524965,-1.379272 6.743677,-3.378793 9.53125,-5.84375 0.115363,-0.102012 0.261129,-0.177608 0.375,-0.28125 1.842126,-1.247912 3.843452,-1.787648 5.53125,-1.78125 z m -52.5625,1.9375 c 1.620766,-0.110201 3.543589,0.210791 5.53125,1.1875 2.86918,2.288888 6.136776,4.081551 9.6875,5.28125 5.957136,2.53463 7.74531,9.47443 2.59375,8.9375 -0.04025,-0.008 -0.08479,0.008 -0.125,0 -0.08535,-0.0107 -0.192248,-0.0477 -0.28125,-0.0625 -8.477413,-1.73473 -15.963928,-6.139326 -21.5625,-12.3125 -0.72481,-1.26653 1.194088,-2.829843 4.15625,-3.03125 z"
       style="fill:#000000;fill-opacity:1;stroke:none;filter:url(#filter4216);opacity:0.5"
       inkscape:connector-curvature="0" />
    <path
       style="fill:url(#radialGradient4198);fill-opacity:1;stroke:none"
       d="m 62,10 -2,2 -2.25,6.78125 c -0.166585,0.03185 -0.336112,0.06071 -0.5,0.09375 l -4.71875,-7.09375 -3.84375,1.03125 -2,2 -0.46875,7.625 L 40,16.96875 l -3.46875,2 -2,2 1.5625,7.6875 -6.875,-3.4375 -2,2 -0.8125,0.84375 -2,2 L 28.125,37.46875 20.96875,36 l -2,2 -2,3.46875 5.90625,6.65625 -7.09375,0.40625 -2,2 -1.03125,3.875 7.5,4.96875 c -0.01932,0.184887 -0.01454,0.375594 -0.03125,0.5625 L 14,62 l -2,2 0,4 8.53125,2.84375 c 0.06836,0.436815 0.167055,0.874115 0.25,1.3125 l -5,3.3125 -2,2 1.03125,3.84375 9,0.5625 c 0.259253,0.581875 0.529056,1.150533 0.8125,1.71875 L 18.96875,90 l 2,3.46875 8.84375,-1.8125 c 0.400708,0.495049 0.797331,0.99178 1.21875,1.46875 l -3.8125,7.65625 2.84375,2.8125 8.0625,-4.03125 c 0.524354,0.382319 1.052207,0.76566 1.59375,1.125 L 38,109.03125 l 3.46875,2 6.71875,-5.96875 c 0.612084,0.23595 1.218814,0.47848 1.84375,0.6875 l 0.5,8.46875 3.875,1.03125 2,-2 3.625,-5.4375 c 0.426864,0.0372 0.854355,0.0679 1.28125,0.0937 L 64,116 l 4,0 2,-2 2.25,-6.78125 c 0.166585,-0.0319 0.336112,-0.0607 0.5,-0.0937 l 4.71875,7.09375 3.84375,-1.03125 2,-2 0.46875,-7.625 6.21875,5.46875 3.46875,-2 2,-2 -1.5625,-7.6875 6.875,3.4375 2,-2 0.8125,-0.84375 2,-2 -3.71875,-7.40625 7.15625,1.46875 2,-2 2,-3.46875 -5.90625,-6.65625 7.09375,-0.40625 2,-2 1.03125,-3.875 -7.5,-4.96875 c 0.0193,-0.184887 0.0145,-0.375594 0.0312,-0.5625 L 116,64 l 2,-2 0,-4 -8.53125,-2.84375 c -0.0683,-0.436815 -0.16705,-0.874115 -0.25,-1.3125 l 5,-3.3125 2,-2 -1.03125,-3.84375 -9,-0.5625 c -0.25925,-0.581875 -0.52906,-1.150533 -0.8125,-1.71875 L 111.03125,36 l -2,-3.46875 -8.84375,1.8125 C 99.786792,33.848701 99.390169,33.35197 98.96875,32.875 l 3.8125,-7.65625 -2.84375,-2.8125 -8.0625,4.03125 c -0.524354,-0.382319 -1.052207,-0.765661 -1.59375,-1.125 L 92,16.96875 l -3.46875,-2 -6.71875,5.96875 C 81.200416,20.701548 80.593686,20.45902 79.96875,20.25 l -0.5,-8.46875 -3.875,-1.03125 -2,2 -3.625,5.4375 c -0.426864,-0.03717 -0.854355,-0.0679 -1.28125,-0.09375 L 66,10 z m 8.78125,14.71875 c 0.301554,-0.02424 0.631405,-0.01503 1,0.03125 8.578126,1.69092 16.155075,6.119197 21.8125,12.34375 0.112857,0.183981 0.151158,0.370824 0.15625,0.5625 -1.853817,0.708857 -4.766599,0.809214 -7.8125,-0.6875 C 83.06832,34.679862 79.800724,32.887199 76.25,31.6875 72.572573,30.122835 70.504146,26.881198 70.65625,24.75 c 0.0449,-0.0053 0.07852,-0.02752 0.125,-0.03125 z M 55.5,24.90625 c 1.788679,-0.03083 2.013921,3.548822 -0.46875,6.78125 -0.220552,0.172901 -0.445746,0.336349 -0.6875,0.5 -3.524965,1.379272 -6.743677,3.378793 -9.53125,5.84375 -0.123248,0.09123 -0.249992,0.196566 -0.375,0.28125 -5.065847,3.43176 -11.437175,1.527074 -8.6875,-2.46875 0.294563,-0.340423 0.600588,-0.66975 0.90625,-1 0.140462,-0.15176 0.294739,-0.287933 0.4375,-0.4375 5.105187,-4.652002 11.407255,-7.985347 18.40625,-9.5 z M 62.9375,37 c 0.615939,-0.02495 1.227426,-0.01778 1.84375,0 3.834906,0.110654 7.648465,1.062637 11.1875,2.8125 1.40977,0.518911 2.26465,2.214181 1.84375,3.65625 -0.01034,0.01049 -0.02076,0.02091 -0.03125,0.03125 -0.821039,0.245023 -1.745879,0.116248 -2.46875,-0.34375 C 69.015288,40.042616 61.583765,40.300037 55.5,43.8125 54.235031,44.580006 52.410945,44.220934 51.53125,43.03125 50.964939,42.251822 50.808246,41.191131 51.125,40.28125 54.808162,38.280221 58.856985,37.165318 62.9375,37 z M 99.625,49.125 c 0.8123,0.01265 1.588,0.564398 2.15625,1.75 C 103.20892,54.986605 104,59.402311 104,64 c 0,3.71378 -0.51624,7.306003 -1.46875,10.71875 C 100.65721,74.258322 97.941006,71.348852 97.625,66.78125 97.858704,65.221396 98,63.624968 98,62 c 0,-2.143019 -0.223262,-4.224963 -0.625,-6.25 -0.01239,-0.06248 -0.01849,-0.125152 -0.03125,-0.1875 -0.258046,-2.425075 0.34691,-4.633894 1.28125,-6.1875 0.333599,-0.15595 0.668878,-0.255157 1,-0.25 z m -72.15625,2.15625 c 1.87439,0.449001 4.58936,3.357116 4.90625,7.9375 C 32.141296,60.778604 32,62.375032 32,64 c 0,2.143019 0.223262,4.224963 0.625,6.25 0.01239,0.06248 0.01849,0.125152 0.03125,0.1875 0.258443,2.428808 -0.342655,4.640872 -1.28125,6.1875 -1.151387,0.533011 -2.357075,0.167396 -3.15625,-1.5 C 26.79108,71.013395 26,66.597689 26,62 26,58.285093 26.519469,54.696241 27.46875,51.28125 z M 64,60 c 2.209139,0 4,1.790861 4,4 0,0.586583 -0.116921,1.154343 -0.34375,1.65625 C 67.154343,65.883079 66.586583,66 66,66 63.790861,66 62,64.209139 62,62 62,61.413417 62.116921,60.845657 62.34375,60.34375 62.845657,60.116921 63.413417,60 64,60 z m 23.96875,0.9375 C 89.570938,60.920625 91.033306,62.39807 91,64 c 0,6.700226 -2.486214,13.079427 -6.84375,17.96875 -0.991353,0.901413 -2.055037,1.745024 -3.1875,2.5 -1.048503,0.725128 -2.569369,0.675999 -3.568888,-0.115286 -0.999518,-0.791286 -1.396308,-2.260301 -0.931112,-3.447214 1.211179,-0.893044 2.304681,-1.923314 3.28125,-3.03125 0.03384,-0.02922 0.06012,-0.06433 0.09375,-0.09375 C 84.367349,73.824165 87,68.101445 87,62 c 0.0019,-0.318144 0.0549,-0.635924 0.15625,-0.9375 0.163614,-0.04532 0.331081,-0.07672 0.5,-0.09375 0.103526,-0.01586 0.207883,-0.0263 0.3125,-0.03125 z M 39.875,62.46875 c 1.59124,-0.08354 3.108492,1.313535 3.15625,2.90625 0.45212,7.010363 4.384985,13.300037 10.46875,16.8125 1.198381,0.652845 1.831075,2.193316 1.4375,3.5 C 54.129848,85.932419 53.219747,85.815739 52.5,85.375 44.684966,80.862988 39.643281,72.724067 39.0625,63.71875 c -0.03,-0.378395 0.01267,-0.76242 0.125,-1.125 0.223262,-0.06822 0.454512,-0.11027 0.6875,-0.125 z m 51.21875,23.4375 c 2.953647,0.0112 4.906044,1.707203 3.15625,4.25 -0.319278,0.368985 -0.636438,0.736771 -0.96875,1.09375 -0.03011,0.03234 -0.06354,0.06151 -0.09375,0.09375 -5.160099,4.787993 -11.582319,8.211345 -18.71875,9.75 -1.756964,-0.007 -1.974697,-3.543445 0.46875,-6.75 0.229944,-0.181477 0.465582,-0.359873 0.71875,-0.53125 3.524965,-1.379272 6.743677,-3.378793 9.53125,-5.84375 0.115363,-0.102012 0.261129,-0.177608 0.375,-0.28125 1.842126,-1.247912 3.843452,-1.787648 5.53125,-1.78125 z m -52.5625,1.9375 c 1.620766,-0.110201 3.543589,0.210791 5.53125,1.1875 2.86918,2.288888 6.136776,4.081551 9.6875,5.28125 3.687751,1.569057 5.758572,4.810905 5.59375,6.9375 -0.303189,0.0359 -0.623919,0.0392 -1,0 -0.04025,-0.008 -0.08479,0.008 -0.125,0 -0.08535,-0.0107 -0.192248,-0.0477 -0.28125,-0.0625 C 49.460087,99.45277 41.973572,95.048174 36.375,88.875 c -0.09694,-0.169398 -0.150064,-0.355202 -0.15625,-0.53125 0.654663,-0.257566 1.430727,-0.440045 2.3125,-0.5 z"
       transform="translate(0,-80)"
       id="path4184"
       inkscape:connector-curvature="0"
       sodipodi:nodetypes="cccccccccccccccccccccccccccccccccccccccccccccccccccccccccccccccccccccccccccccccccccccccccccccccccccccccccccccsccccccsccccscsccsscccccccsscsccscccsccsscccscsscsscsccccsccsccccccccccccscsccccscssccccccccs" />
    <text
       xml:space="preserve"
       style="font-size:24px;font-style:normal;font-weight:normal;line-height:125%;letter-spacing:0px;word-spacing:0px;fill:#000000;fill-opacity:1;stroke:none;font-family:Sans"
       x="-56"
       y="-56"
       id="text5893"
       sodipodi:linespacing="125%"><tspan
         sodipodi:role="line"
         id="tspan5895"
         x="-56"
         y="-56">128</tspan></text>
    <text
       sodipodi:linespacing="125%"
       id="text5901"
       y="-4"
       x="184"
       style="font-size:16px;font-style:normal;font-weight:normal;line-height:125%;letter-spacing:0px;word-spacing:0px;fill:#000000;fill-opacity:1;stroke:none;font-family:Sans"
       xml:space="preserve"><tspan
         y="-4"
         x="184"
         id="tspan5903"
         sodipodi:role="line">31 - 17</tspan></text>
    <text
       xml:space="preserve"
       style="font-size:16px;font-style:normal;font-weight:normal;line-height:125%;letter-spacing:0px;word-spacing:0px;fill:#000000;fill-opacity:1;stroke:none;font-family:Sans"
       x="172"
       y="44"
       id="text5905"
       sodipodi:linespacing="125%"><tspan
         sodipodi:role="line"
         id="tspan5907"
         x="172"
         y="44">16</tspan></text>
    <rect
       style="fill:none;stroke:#000000;stroke-width:1;stroke-linecap:round;stroke-linejoin:round;stroke-miterlimit:4;stroke-opacity:1;stroke-dasharray:none;stroke-dashoffset:0"
       id="rect5919"
       width="40"
       height="40"
       x="140"
       y="-20"
       rx="4.5902016e-07" />
    <rect
       style="fill:none;stroke:#000000;stroke-width:1;stroke-linecap:round;stroke-linejoin:round;stroke-miterlimit:4;stroke-opacity:1;stroke-dasharray:none;stroke-dashoffset:0"
       id="rect5921"
       width="24"
       height="24"
       x="140"
       y="28"
       rx="4.5902016e-07" />
    <rect
       style="fill:#b3b3b3;fill-opacity:1;stroke:none"
       id="rect6935"
       width="32"
       height="4"
       x="144"
       y="-24"
       rx="4.5902016e-07" />
    <rect
       style="fill:#b3b3b3;fill-opacity:1;stroke:none"
       id="rect6937"
       width="4"
       height="32"
       x="136"
       y="-16"
       rx="4.5902016e-07" />
    <rect
       style="fill:#b3b3b3;fill-opacity:1;stroke:none"
       id="rect6939"
       width="16"
       height="4"
       x="144"
       y="24"
       rx="4.5902016e-07" />
    <rect
       style="fill:#b3b3b3;fill-opacity:1;stroke:none"
       id="rect6941"
       width="4"
       height="16"
       x="136"
       y="32"
       rx="4.5902016e-07" />
    <g
       id="g5149"
       transform="translate(-1.11333,15.251893)" />
    <g
       transform="translate(-1.11333,15.251893)"
       id="g5165" />
    <path
       style="fill:url(#radialGradient6930);fill-opacity:1;stroke:none"
       d="m 179.875,55.312499 -2,2 2,2 2,-2 -2,-2 z m -3,3 -2,2 2,2 2,-2 -2,-2 z m 6,0 -2,2 2,2 2,-2 -2,-2 z m -9,3 -2,2 2,2 2,-2 -2,-2 z m 12,0 -2,2 2,2 2,-2 -2,-2 z m -6,6 -2,2 2,2 2,-2 -2,-2 z"
       id="path6902"
       inkscape:connector-curvature="0" />
    <path
       style="fill:url(#radialGradient4182);fill-opacity:1;stroke:url(#linearGradient4246);stroke-width:0.50000000000000000;stroke-linejoin:round;stroke-miterlimit:4;stroke-opacity:1;stroke-dasharray:none"
       d="M 60 12 L 57.15625 20.53125 C 56.52295 20.630353 55.87404 20.749185 55.25 20.875 L 50.53125 13.78125 L 46.6875 14.8125 L 46.125 23.8125 C 45.543125 24.071753 44.974467 24.341556 44.40625 24.625 L 38 18.96875 L 34.53125 20.96875 L 36.34375 29.8125 C 35.848701 30.213208 35.35197 30.609831 34.875 31.03125 L 27.21875 27.21875 L 24.40625 30.0625 L 28.4375 38.125 C 28.055181 38.649354 27.671839 39.177207 27.3125 39.71875 L 18.96875 38 L 16.96875 41.46875 L 22.9375 48.1875 C 22.701548 48.799584 22.45902 49.406314 22.25 50.03125 L 13.78125 50.53125 L 12.75 54.40625 L 20.25 59.375 C 20.183306 60.013116 20.132869 60.666565 20.09375 61.3125 L 12 64 L 12 68 L 20.53125 70.84375 C 20.630353 71.47705 20.749185 72.12596 20.875 72.75 L 13.78125 77.46875 L 14.8125 81.3125 L 23.8125 81.875 C 24.071753 82.456875 24.341556 83.025533 24.625 83.59375 L 18.96875 90 L 20.96875 93.46875 L 29.8125 91.65625 C 30.213208 92.151299 30.609831 92.64803 31.03125 93.125 L 27.21875 100.78125 L 30.0625 103.59375 L 38.125 99.5625 C 38.649354 99.944819 39.177207 100.32816 39.71875 100.6875 L 38 109.03125 L 41.46875 111.03125 L 48.1875 105.0625 C 48.799584 105.29845 49.406314 105.54098 50.03125 105.75 L 50.53125 114.21875 L 54.40625 115.25 L 59.375 107.75 C 60.013116 107.81669 60.666565 107.86713 61.3125 107.90625 L 64 116 L 68 116 L 70.84375 107.46875 C 71.47705 107.36965 72.12596 107.25081 72.75 107.125 L 77.46875 114.21875 L 81.3125 113.1875 L 81.875 104.1875 C 82.456875 103.92825 83.025533 103.65844 83.59375 103.375 L 90 109.03125 L 93.46875 107.03125 L 91.65625 98.1875 C 92.151299 97.786792 92.64803 97.390169 93.125 96.96875 L 100.78125 100.78125 L 103.59375 97.9375 L 99.5625 89.875 C 99.944819 89.350646 100.32816 88.822793 100.6875 88.28125 L 109.03125 90 L 111.03125 86.53125 L 105.0625 79.8125 C 105.29845 79.200416 105.54098 78.593686 105.75 77.96875 L 114.21875 77.46875 L 115.25 73.59375 L 107.75 68.625 C 107.81669 67.986884 107.86713 67.333435 107.90625 66.6875 L 116 64 L 116 60 L 107.46875 57.15625 C 107.36965 56.52295 107.25081 55.87404 107.125 55.25 L 114.21875 50.53125 L 113.1875 46.6875 L 104.1875 46.125 C 103.92825 45.543125 103.65844 44.974467 103.375 44.40625 L 109.03125 38 L 107.03125 34.53125 L 98.1875 36.34375 C 97.786792 35.848701 97.390169 35.35197 96.96875 34.875 L 100.78125 27.21875 L 97.9375 24.40625 L 89.875 28.4375 C 89.350646 28.055181 88.822793 27.671839 88.28125 27.3125 L 90 18.96875 L 86.53125 16.96875 L 79.8125 22.9375 C 79.200416 22.701548 78.593686 22.45902 77.96875 22.25 L 77.46875 13.78125 L 73.59375 12.75 L 68.625 20.25 C 67.986884 20.183306 67.333435 20.132869 66.6875 20.09375 L 64 12 L 60 12 z M 70.78125 24.71875 C 71.082804 24.694515 71.412655 24.70372 71.78125 24.75 C 80.359376 26.44092 87.936325 30.869197 93.59375 37.09375 C 94.797554 39.056211 89.591275 41.746937 83.9375 38.96875 C 81.06832 36.679862 77.800724 34.887199 74.25 33.6875 C 68.661005 31.309505 66.739888 25.043545 70.78125 24.71875 z M 55.5 24.90625 C 57.780811 24.86694 57.520706 30.683059 52.34375 34.1875 C 48.818785 35.566772 45.600073 37.566293 42.8125 40.03125 C 42.689252 40.122475 42.562508 40.227816 42.4375 40.3125 C 37.371653 43.74426 31.000325 41.839574 33.75 37.84375 C 39.314865 31.412515 46.885852 26.770438 55.5 24.90625 z M 62.9375 37 C 63.553439 36.975046 64.164926 36.982216 64.78125 37 C 68.616156 37.110654 72.429715 38.062637 75.96875 39.8125 A 3.0003 3.0003 0 1 1 73.3125 45.15625 C 67.015288 42.042616 59.583765 42.300037 53.5 45.8125 A 3.0003 3.0003 0 0 1 49.53125 45.03125 A 3.0003 3.0003 0 0 1 50.5 40.625 C 54.346462 38.404244 58.625926 37.174679 62.9375 37 z M 99.625 49.125 C 100.4373 49.137652 101.213 49.689398 101.78125 50.875 C 103.20892 54.986605 104 59.402311 104 64 C 104 68.271811 103.30253 72.390238 102.0625 76.25 C 100.88495 78.115578 96.05307 74.968638 95.625 68.78125 C 95.858704 67.221396 96 65.624968 96 64 C 96 61.856981 95.776738 59.775037 95.375 57.75 C 95.362605 57.68752 95.356508 57.624848 95.34375 57.5625 C 94.853657 52.956683 97.390926 49.090203 99.625 49.125 z M 27.09375 51.21875 C 28.956306 51.343333 32.036984 54.333007 32.375 59.21875 C 32.141296 60.778604 32 62.375032 32 64 C 32 66.143019 32.223262 68.224963 32.625 70.25 C 32.637395 70.31248 32.643492 70.375152 32.65625 70.4375 C 33.324537 76.717964 28.349883 81.571389 26.21875 77.125 C 24.79108 73.013395 24 68.597689 24 64 C 24 59.742242 24.67404 55.62999 25.90625 51.78125 C 26.151063 51.360927 26.581302 51.184473 27.09375 51.21875 z M 64 60 C 66.209139 60 68 61.790861 68 64 C 68 66.209139 66.209139 68 64 68 C 61.790861 68 60 66.209139 60 64 C 60 61.790861 61.790861 60 64 60 z M 87.96875 60.9375 A 3.0003 3.0003 0 0 1 91 64 C 91 73.024024 86.477192 81.463121 78.96875 86.46875 A 3.0003 3.0003 0 1 1 75.65625 81.46875 C 81.501342 77.572021 85 71.024927 85 64 A 3.0003 3.0003 0 0 1 87.65625 60.96875 A 3.0003 3.0003 0 0 1 87.96875 60.9375 z M 39.875 62.46875 A 3.0003 3.0003 0 0 1 43.03125 65.375 C 43.48337 72.385363 47.416235 78.675037 53.5 82.1875 A 3.0003 3.0003 0 0 1 54.8125 86 A 3.0003 3.0003 0 0 1 50.5 87.375 C 42.684966 82.862988 37.643281 74.724067 37.0625 65.71875 A 3.0003 3.0003 0 0 1 39.875 62.46875 z M 91.09375 85.90625 C 94.047397 85.917446 95.999794 87.613453 94.25 90.15625 C 88.678707 96.594914 81.095237 101.23383 72.46875 103.09375 C 70.21801 103.08517 70.500481 97.302598 75.65625 93.8125 C 79.181215 92.433228 82.399927 90.433707 85.1875 87.96875 C 85.302863 87.866738 85.448629 87.791142 85.5625 87.6875 C 87.404626 86.439588 89.405952 85.899852 91.09375 85.90625 z M 38.53125 87.84375 C 40.152016 87.733549 42.074839 88.054541 44.0625 89.03125 C 46.93168 91.320138 50.199276 93.112801 53.75 94.3125 C 59.707136 96.84713 61.49531 103.78693 56.34375 103.25 C 56.303496 103.24219 56.258961 103.25793 56.21875 103.25 C 56.133403 103.23928 56.026502 103.20227 55.9375 103.1875 C 47.460087 101.45277 39.973572 97.048174 34.375 90.875 C 33.65019 89.60847 35.569088 88.045157 38.53125 87.84375 z "
       transform="translate(0,-80)"
       id="path3322" />
    <path
       sodipodi:type="arc"
       style="fill:none;fill-opacity:1;stroke:#000000;stroke-opacity:1;opacity:0.25"
       id="path4208"
       sodipodi:cx="64"
       sodipodi:cy="64"
       sodipodi:rx="16"
       sodipodi:ry="16"
       d="m 80,64 a 16,16 0 1 1 -32,0 16,16 0 1 1 32,0 z"
       transform="translate(0,-80)" />
    <path
       style="fill:url(#linearGradient4256);fill-opacity:1;stroke:none"
       d="m 46.1093,-55.723077 9.659259,-2.588191 -5.227149,-7.916875 -3.863704,1.035276 z"
       id="path4248"
       inkscape:connector-curvature="0"
       inkscape:transform-center-x="13.06107"
       inkscape:transform-center-y="-44.97561" />
    <path
       inkscape:transform-center-y="-39.386207"
       inkscape:transform-center-x="24.183012"
       inkscape:connector-curvature="0"
       id="path4258"
       d="M 36.437822,-49.739092 45.098077,-54.739093 38,-61.033321 l -3.464102,2 z"
       style="fill:url(#linearGradient4260);fill-opacity:1;stroke:none" />
    <path
       style="fill:url(#linearGradient4264);fill-opacity:1;stroke:none"
       d="m 28.644661,-41.455844 7.071068,-7.071069 -8.485282,-4.24264 -2.828427,2.828427 z"
       id="path4262"
       inkscape:connector-curvature="0"
       inkscape:transform-center-x="33.941125"
       inkscape:transform-center-y="-31.112699" />
    <path
       inkscape:transform-center-y="-20.718911"
       inkscape:transform-center-x="41.386207"
       inkscape:connector-curvature="0"
       id="path4266"
       d="M 23.260908,-31.437822 28.260907,-40.098077 18.966678,-42 l -2,3.464101 z"
       style="fill:url(#linearGradient4268);fill-opacity:1;stroke:none" />
    <path
       style="fill:url(#linearGradient4272);fill-opacity:1;stroke:none"
       d="m 20.653457,-20.367738 2.588189,-9.659259 -9.46979,0.568407 -1.035276,3.863702 z"
       id="path4270"
       inkscape:connector-curvature="0"
       inkscape:transform-center-x="46.010886"
       inkscape:transform-center-y="-9.1973675" />
    <path
       inkscape:transform-center-y="1.9999994"
       inkscape:transform-center-x="47.499999"
       inkscape:connector-curvature="0"
       id="path4274"
       d="m 21.000001,-9.0000003 -2e-6,-10.0000007 -9,3.000001 0,3.999999 z"
       style="fill:url(#linearGradient4276);fill-opacity:1;stroke:none" />
    <path
       style="fill:url(#linearGradient4280);fill-opacity:1;stroke:none"
       d="m 24.276924,1.8906989 -2.588193,-9.6592584 -7.916875,5.2271498 1.035276,3.8637024 z"
       id="path4278"
       inkscape:connector-curvature="0"
       inkscape:transform-center-x="44.975609"
       inkscape:transform-center-y="13.06107" />
    <path
       inkscape:transform-center-y="24.183012"
       inkscape:transform-center-x="39.386206"
       inkscape:connector-curvature="0"
       id="path4282"
       d="M 30.260909,11.562176 25.260906,2.9019229 18.966678,10 l 2,3.464101 z"
       style="fill:url(#linearGradient4284);fill-opacity:1;stroke:none" />
    <path
       style="fill:url(#linearGradient4288);fill-opacity:1;stroke:none"
       d="m 38.544157,19.355337 -7.071071,-7.071066 -4.24264,8.485282 2.828427,2.828426 z"
       id="path4286"
       inkscape:connector-curvature="0"
       inkscape:transform-center-x="31.112698"
       inkscape:transform-center-y="33.941125" />
    <path
       inkscape:transform-center-y="41.386207"
       inkscape:transform-center-x="20.718911"
       inkscape:connector-curvature="0"
       id="path4290"
       d="m 48.562178,24.73909 -8.660256,-4.999997 -1.901923,9.294229 3.464101,1.999999 z"
       style="fill:url(#linearGradient4292);fill-opacity:1;stroke:none" />
    <path
       style="fill:url(#linearGradient4296);fill-opacity:1;stroke:none"
       d="m 59.632261,27.346541 -9.659259,-2.588187 0.568407,9.46979 3.863702,1.035275 z"
       id="path4294"
       inkscape:connector-curvature="0"
       inkscape:transform-center-x="9.197368"
       inkscape:transform-center-y="46.010886" />
    <path
       inkscape:transform-center-y="47.499999"
       inkscape:transform-center-x="-1.9999985"
       inkscape:connector-curvature="0"
       id="path4298"
       d="m 70.999998,26.999997 -10,4e-6 3.000001,9 L 67.999998,36 z"
       style="fill:url(#linearGradient4300);fill-opacity:1;stroke:none" />
    <path
       style="fill:url(#linearGradient4304);fill-opacity:1;stroke:none"
       d="m 81.890697,23.723075 -9.659257,2.588194 5.22715,7.916875 3.863702,-1.035277 z"
       id="path4302"
       inkscape:connector-curvature="0"
       inkscape:transform-center-x="-13.061069"
       inkscape:transform-center-y="44.97561" />
    <path
       inkscape:transform-center-y="39.386207"
       inkscape:transform-center-x="-24.183012"
       inkscape:connector-curvature="0"
       id="path4306"
       d="M 91.562175,17.739091 82.901923,22.739094 90,29.033322 93.4641,27.033321 z"
       style="fill:url(#linearGradient4308);fill-opacity:1;stroke:none" />
    <path
       style="fill:url(#linearGradient4312);fill-opacity:1;stroke:none"
       d="m 99.355336,9.4558434 -7.071065,7.0710706 8.485279,4.242639 2.82843,-2.828427 z"
       id="path4310"
       inkscape:connector-curvature="0"
       inkscape:transform-center-x="-33.941126"
       inkscape:transform-center-y="31.112699" />
    <path
       inkscape:transform-center-y="20.718912"
       inkscape:transform-center-x="-41.386207"
       inkscape:connector-curvature="0"
       id="path4314"
       d="m 104.73909,-0.56217789 -4.999997,8.66025599 9.294227,1.9019229 2,-3.4641024 z"
       style="fill:url(#linearGradient4316);fill-opacity:1;stroke:none" />
    <path
       style="fill:url(#linearGradient4320);fill-opacity:1;stroke:none"
       d="m 107.34654,-11.632261 -2.58819,9.6592589 9.46979,-0.5684065 1.03528,-3.863704 z"
       id="path4318"
       inkscape:connector-curvature="0"
       inkscape:transform-center-x="-46.010885"
       inkscape:transform-center-y="9.1973689" />
    <path
       inkscape:transform-center-y="-1.9999976"
       inkscape:transform-center-x="-47.5"
       inkscape:connector-curvature="0"
       id="path4322"
       d="m 107,-22.999998 0,10 9,-3 L 116,-20 z"
       style="fill:url(#linearGradient4324);fill-opacity:1;stroke:none" />
    <path
       style="fill:url(#linearGradient4328);fill-opacity:1;stroke:none"
       d="m 103.72308,-33.890698 2.58819,9.659258 7.91687,-5.227148 -1.03527,-3.863706 z"
       id="path4326"
       inkscape:connector-curvature="0"
       inkscape:transform-center-x="-44.97561"
       inkscape:transform-center-y="-13.061069" />
    <path
       inkscape:transform-center-y="-24.183013"
       inkscape:transform-center-x="-39.386208"
       inkscape:connector-curvature="0"
       id="path4330"
       d="m 97.739095,-43.562177 4.999995,8.660254 6.29423,-7.098074 -2,-3.464106 z"
       style="fill:url(#linearGradient4332);fill-opacity:1;stroke:none" />
    <path
       style="fill:url(#linearGradient4336);fill-opacity:1;stroke:none"
       d="m 89.455847,-51.355339 7.071063,7.071069 4.24264,-8.48528 -2.828426,-2.828431 z"
       id="path4334"
       inkscape:connector-curvature="0"
       inkscape:transform-center-x="-31.112699"
       inkscape:transform-center-y="-33.941126" />
    <path
       inkscape:transform-center-y="-41.386207"
       inkscape:transform-center-x="-20.718912"
       inkscape:connector-curvature="0"
       id="path4338"
       d="m 79.437825,-56.739093 8.66025,5.000002 1.901923,-9.294227 -3.464102,-2.000004 z"
       style="fill:url(#linearGradient4340);fill-opacity:1;stroke:none" />
    <path
       style="fill:url(#linearGradient4344);fill-opacity:1;stroke:none"
       d="m 68.367741,-59.346545 9.659254,2.588193 -0.568406,-9.469788 -3.863705,-1.03528 z"
       id="path4342"
       inkscape:connector-curvature="0"
       inkscape:transform-center-x="-9.1973685"
       inkscape:transform-center-y="-46.010886" />
    <path
       inkscape:transform-center-y="-47.499999"
       inkscape:transform-center-x="1.999999"
       inkscape:connector-curvature="0"
       id="path4346"
       d="m 57.000002,-59.000002 9.999997,4e-6 -3,-8.999999 -4.000002,-3e-6 z"
       style="fill:url(#linearGradient4348);fill-opacity:1;stroke:none" />
    <path
       style="fill:url(#linearGradient4369);fill-opacity:1;stroke:none;stroke-width:0.50000000000000000;stroke-linejoin:round;stroke-miterlimit:4;stroke-opacity:1;stroke-dasharray:none"
       d="M 62.125 14 C 60.070944 14.407587 60.274839 19.609803 59.0625 21.15625 C 54.357606 26.884549 51.888879 16.818866 48.59375 16.375 C 49.362727 20.986211 44.65671 28.295719 51.6875 23.8125 C 55.133331 21.428562 60.075094 23.90053 58.75 28.21875 C 57.403356 36.353584 47.874033 37.193378 42.9375 42.375 C 39.086012 45.5478 29.359503 44.510664 31.46875 37.875 C 32.436277 34.714066 39.065661 32.207161 33.0625 32.375 C 24.405437 26.404938 28.564862 33.60551 30.28125 38.875 C 29.670485 45.514921 16.98432 36.814038 20.75 42.6875 C 26.33761 45.508588 25.696844 54.02169 18.375 52.25 C 9.6564763 51.267275 23.315386 59.645079 22.375 58.25 C 22.502012 54.229613 24.498044 46.362095 29.875 50.25 C 36.920449 55.197341 32.747017 64.064991 34.6875 70.9375 C 34.909941 72.081588 34.782923 73.40652 34.40625 74.71875 C 35.222641 74.616639 36.034177 74.520308 36.84375 74.40625 C 35.425124 70.777305 34.881675 66.890474 35.65625 63.09375 C 36.438769 61.557129 38.151051 60.511595 39.875 60.46875 C 46.562276 60.55853 44.365166 68.624097 47.03125 72.59375 C 51.699427 71.612193 56.236551 70.432565 60.59375 69.0625 C 56.929719 66.351168 57.158242 58.877473 62.875 58.125 C 63.299009 58.05524 63.723755 57.973834 64.15625 58 C 68.67193 57.879998 70.554564 62.38722 69.59375 65.90625 C 78.712417 62.295556 86.897515 57.813162 93.90625 52.65625 C 94.875472 49.445136 96.987208 46.897357 100.46875 47.34375 C 100.95007 46.909064 101.44059 46.473424 101.90625 46.03125 C 101.19972 43.467221 104.09483 39.383692 106.59375 37.75 C 103.85944 35.610612 94.701475 41.514853 95.1875 33.96875 C 100.93722 25.95778 95.994945 26.885381 89.78125 30.25 C 87.912639 30.139951 93.707055 33.529463 94.5625 35.15625 C 98.548147 39.595244 91.093311 43.293477 87.28125 42.0625 C 81.681559 41.057308 77.792653 36.341508 72.28125 34.9375 C 67.734736 33.230892 63.534401 24.651987 70.0625 22.8125 C 72.542316 22.424608 74.927509 23.519677 77.28125 24.125 C 74.974998 19.515317 76.031506 10.305851 71.125 20.0625 C 67.132494 26.032717 62.760955 18.378948 62.5625 14 C 62.40436 13.982195 62.261937 13.972828 62.125 14 z M 86.5625 19.78125 C 86.246289 19.822377 85.826932 20.137613 85.3125 20.75 L 81.15625 24.4375 C 76.660497 24.886013 84.200971 26.351632 85.5 27.90625 C 86.530666 31.273036 88.775975 19.493364 86.5625 19.78125 z M 37.75 21.4375 C 37.462291 21.439049 37.153886 21.655027 36.78125 21.96875 C 38.930812 25.712956 35.969596 34.395218 40.96875 28.875 C 47.724575 26.312136 41.842826 26.078939 38.59375 22.15625 C 38.302216 21.65155 38.037709 21.435951 37.75 21.4375 z M 63.90625 34.96875 C 69.348356 35.532963 77.439222 35.736888 79.8125 41.59375 C 80.96236 46.704797 74.382975 49.357358 70.75 46.21875 C 64.523879 43.412595 57.905303 45.864952 52.09375 48.25 C 46.020801 48.588638 45.251475 39.272588 51.0625 38.0625 C 55.053986 36.064002 59.433718 34.977424 63.90625 34.96875 z M 22.03125 61.5625 C 21.948524 61.617809 21.743922 61.995366 21.3125 62.90625 C 13.191465 64.267833 12.623807 67.691711 21.15625 68.9375 C 24.072211 73.619269 21.21141 65.506322 22 63.15625 C 21.977556 62.29064 22.169127 61.470319 22.03125 61.5625 z M 22.875 73.125 C 22.79362 73.090644 22.719777 73.155114 22.625 73.34375 C 21.293158 74.222791 20.115617 75.097763 19.1875 75.90625 C 20.699312 75.859619 22.192948 75.8056 23.6875 75.71875 C 23.362727 74.404599 23.139725 73.236758 22.875 73.125 z "
       transform="translate(0,-80)"
       id="path4350" />
    <path
       style="fill:url(#radialGradient4448);fill-opacity:1;stroke:none;stroke-width:0.50000000000000000;stroke-linecap:round;stroke-linejoin:round;stroke-miterlimit:4;stroke-opacity:0.31372549000000000;stroke-dasharray:none"
       d="M 151 112 L 150.375 113.90625 L 148.875 112.5625 L 147.125 113.5625 L 147.53125 115.53125 L 145.5625 115.125 L 144.5625 116.875 L 145.90625 118.375 L 144 119 L 144 121 L 145.90625 121.625 L 144.5625 123.125 L 145.5625 124.875 L 147.53125 124.46875 L 147.125 126.4375 L 148.875 127.4375 L 150.375 126.09375 L 151 128 L 153 128 L 153.625 126.09375 L 155.125 127.4375 L 156.875 126.4375 L 156.46875 124.46875 L 158.4375 124.875 L 159.4375 123.125 L 158.09375 121.625 L 160 121 L 160 119 L 158.09375 118.375 L 159.4375 116.875 L 158.4375 115.125 L 156.46875 115.53125 L 156.875 113.5625 L 155.125 112.5625 L 153.625 113.90625 L 153 112 L 151 112 z M 152 115 C 154.76142 115 157 117.23858 157 120 C 157 122.76142 154.76142 125 152 125 C 149.23858 125 147 122.76142 147 120 C 147 117.23858 149.23858 115 152 115 z M 152 116 C 149.79086 116 148 117.79086 148 120 C 148 122.20914 149.79086 124 152 124 C 154.20914 124 156 122.20914 156 120 C 156 117.79086 154.20914 116 152 116 z M 152 119 C 152.55228 119 153 119.44772 153 120 C 153 120.55228 152.55228 121 152 121 C 151.44772 121 151 120.55228 151 120 C 151 119.44772 151.44772 119 152 119 z "
       transform="translate(0,-80)"
       id="path4405" />
    <path
       id="path4450"
       d="m 158.375,-13 -1.01563,3.097656 -2.4375,-2.183594 -2.84375,1.625 0.66016,3.199219 -3.19922,-0.660156 -1.625,2.84375 2.1836,2.4375 L 147,-1.625 l 0,3.25 3.09766,1.015625 -2.1836,2.4375 1.625,2.84375 3.19922,-0.660156 -0.66016,3.199218 2.84375,1.625 2.4375,-2.183593 L 158.375,13 l 3.25,0 1.01562,-3.097656 2.4375,2.183593 2.84375,-1.625 -0.66015,-3.199218 3.19922,0.660156 1.625,-2.84375 -2.1836,-2.4375 L 173,1.625 l 0,-3.25 -3.09766,-1.015625 2.1836,-2.4375 -1.625,-2.84375 -3.19922,0.660156 0.66015,-3.199219 -2.84375,-1.625 -2.4375,2.183594 L 161.625,-13 l -3.25,0 z M 160,-8.125 c 4.48731,0 8.125,3.637692 8.125,8.125 0,4.487308 -3.63769,8.125 -8.125,8.125 -4.48731,0 -8.125,-3.637692 -8.125,-8.125 0,-4.487308 3.63769,-8.125 8.125,-8.125 z m 0,1.625 c -3.58985,0 -6.5,2.910147 -6.5,6.5 0,3.589853 2.91015,6.5 6.5,6.5 3.58985,0 6.5,-2.910147 6.5,-6.5 0,-3.589853 -2.91015,-6.5 -6.5,-6.5 z m 0,4.875 c 0.89745,0 1.625,0.727545 1.625,1.625 0,0.897455 -0.72755,1.625 -1.625,1.625 -0.89745,0 -1.625,-0.727545 -1.625,-1.625 0,-0.897455 0.72755,-1.625 1.625,-1.625 z"
       style="fill:url(#radialGradient4452);fill-opacity:1;stroke:#ffffff;stroke-opacity:0.3137255"
       inkscape:connector-curvature="0" />
  </g>
</svg>
