<?xml version="1.0" encoding="UTF-8" standalone="no"?>
<!-- Created with Inkscape (http://www.inkscape.org/) -->

<svg
   xmlns:dc="http://purl.org/dc/elements/1.1/"
   xmlns:cc="http://creativecommons.org/ns#"
   xmlns:rdf="http://www.w3.org/1999/02/22-rdf-syntax-ns#"
   xmlns:svg="http://www.w3.org/2000/svg"
   xmlns="http://www.w3.org/2000/svg"
   xmlns:xlink="http://www.w3.org/1999/xlink"
   xmlns:sodipodi="http://sodipodi.sourceforge.net/DTD/sodipodi-0.dtd"
   xmlns:inkscape="http://www.inkscape.org/namespaces/inkscape"
   sodipodi:docname="folder-new.svg"
   inkscape:version="0.48.4 r9939"
   version="1.1"
   id="svg2"
   height="128"
   width="128">
  <sodipodi:namedview
     id="base"
     pagecolor="#ffffff"
     bordercolor="#666666"
     borderopacity="1.0"
     inkscape:pageopacity="0.0"
     inkscape:pageshadow="2"
     inkscape:zoom="5.1200002"
     inkscape:cx="101.97411"
     inkscape:cy="71.491721"
     inkscape:document-units="px"
     inkscape:current-layer="layer1"
     showgrid="true"
     showguides="true"
     inkscape:guide-bbox="true"
     inkscape:window-width="1221"
     inkscape:window-height="1000"
     inkscape:window-x="59"
     inkscape:window-y="24"
     inkscape:window-maximized="1">
    <inkscape:grid
       snapvisiblegridlinesonly="true"
       enabled="true"
       visible="true"
       empspacing="4"
       id="grid2985"
       type="xygrid" />
  </sodipodi:namedview>
  <defs
     id="defs4">
    <linearGradient
       id="linearGradient10061">
      <stop
         style="stop-color:#b3b3b3;stop-opacity:1;"
         offset="0"
         id="stop10063" />
      <stop
         style="stop-color:#b3b3b3;stop-opacity:0;"
         offset="1"
         id="stop10065" />
    </linearGradient>
    <linearGradient
       id="linearGradient7110">
      <stop
         style="stop-color:#5a5a5a;stop-opacity:1;"
         offset="0"
         id="stop7112" />
      <stop
         style="stop-color:#202020;stop-opacity:1;"
         offset="1"
         id="stop7114" />
    </linearGradient>
    <linearGradient
       id="linearGradient4216-4-8-2">
      <stop
         id="stop4218-8-0-7"
         offset="0"
         style="stop-color:#494949;stop-opacity:1;" />
      <stop
         id="stop4220-1-6-4"
         offset="1"
         style="stop-color:#0f0f0f;stop-opacity:1;" />
    </linearGradient>
    <radialGradient
       inkscape:collect="always"
       xlink:href="#linearGradient4216-4-8-2"
       id="radialGradient5899"
       gradientUnits="userSpaceOnUse"
       gradientTransform="translate(0,2)"
       cx="64"
       cy="1020.3622"
       fx="64"
       fy="1020.3622"
       r="52" />
    <radialGradient
       inkscape:collect="always"
       xlink:href="#linearGradient7110"
       id="radialGradient7116"
       cx="80"
       cy="972.36218"
       fx="80"
       fy="972.36218"
       r="52.5"
       gradientUnits="userSpaceOnUse" />
    <linearGradient
       id="linearGradient6964-4">
      <stop
         style="stop-color:#ffffff;stop-opacity:1;"
         offset="0"
         id="stop6966-4" />
      <stop
         style="stop-color:#cacaca;stop-opacity:1;"
         offset="1"
         id="stop6970-3" />
    </linearGradient>
    <radialGradient
       inkscape:collect="always"
       xlink:href="#linearGradient6964-4"
       id="radialGradient10067"
       cx="80"
       cy="974.11218"
       fx="80"
       fy="974.11218"
       r="31.5"
       gradientTransform="matrix(1.5238095,1.1927547e-6,-1.1927556e-6,1.5238107,-41.9036,-512.00048)"
       gradientUnits="userSpaceOnUse" />
    <radialGradient
       inkscape:collect="always"
       xlink:href="#linearGradient6964-4"
       id="radialGradient10083"
       gradientUnits="userSpaceOnUse"
       gradientTransform="matrix(1.5238095,1.1927547e-6,-1.1927556e-6,1.5238107,-41.9036,-512.00048)"
       cx="80"
       cy="974.11218"
       fx="80"
       fy="974.11218"
       r="31.5" />
    <radialGradient
       inkscape:collect="always"
       xlink:href="#linearGradient6964-4"
       id="radialGradient10098"
       cx="154"
       cy="1042.6122"
       fx="154"
       fy="1042.6122"
       r="7"
       gradientTransform="matrix(1.4285711,4.2426579e-6,-4.2426398e-6,1.428565,-65.99553,-447.07772)"
       gradientUnits="userSpaceOnUse" />
    <linearGradient
       id="linearGradient6964-4-3">
      <stop
         style="stop-color:#ffffff;stop-opacity:1;"
         offset="0"
         id="stop6966-4-3" />
      <stop
         style="stop-color:#cacaca;stop-opacity:1;"
         offset="1"
         id="stop6970-3-7" />
    </linearGradient>
    <linearGradient
       id="linearGradient3089">
      <stop
         style="stop-color:#ffffff;stop-opacity:1;"
         offset="0"
         id="stop3091" />
      <stop
         style="stop-color:#cacaca;stop-opacity:1;"
         offset="1"
         id="stop3093" />
    </linearGradient>
    <linearGradient
       id="linearGradient3096">
      <stop
         style="stop-color:#ffffff;stop-opacity:1;"
         offset="0"
         id="stop3098" />
      <stop
         style="stop-color:#cacaca;stop-opacity:1;"
         offset="1"
         id="stop3100" />
    </linearGradient>
    <radialGradient
       inkscape:collect="always"
       xlink:href="#linearGradient6964-4-3"
       id="radialGradient3950"
       gradientUnits="userSpaceOnUse"
       gradientTransform="matrix(1.4758471,-7.8524481e-7,7.8524448e-7,1.4758464,-42.165151,-474.91232)"
       cx="76"
       cy="976.57489"
       fx="76"
       fy="976.57489"
       r="35.234001" />
    <linearGradient
       id="linearGradient3103">
      <stop
         style="stop-color:#ffffff;stop-opacity:1;"
         offset="0"
         id="stop3105" />
      <stop
         style="stop-color:#cacaca;stop-opacity:1;"
         offset="1"
         id="stop3107" />
    </linearGradient>
    <radialGradient
       r="32"
       fy="46.695652"
       fx="84"
       cy="46.695652"
       cx="84"
       gradientTransform="matrix(0.78722727,0,0,1.1316392,30.22683,919.73185)"
       gradientUnits="userSpaceOnUse"
       id="radialGradient5943"
       xlink:href="#linearGradient8794-33"
       inkscape:collect="always" />
    <linearGradient
       id="linearGradient8794-33">
      <stop
         style="stop-color:#ffffff;stop-opacity:1;"
         offset="0"
         id="stop8796-9" />
      <stop
         style="stop-color:#cacaca;stop-opacity:1;"
         offset="1"
         id="stop8798-6" />
    </linearGradient>
    <radialGradient
       inkscape:collect="always"
       xlink:href="#linearGradient6964-4-3"
       id="radialGradient3100"
       gradientUnits="userSpaceOnUse"
       gradientTransform="matrix(1.8593725,-9.8930481e-7,9.8930439e-7,1.8593717,-48.684812,-1777.0293)"
       cx="76"
       cy="976.57489"
       fx="76"
       fy="976.57489"
       r="35.234001" />
    <filter
       inkscape:collect="always"
       id="filter3873"
       x="-0.12753036"
       width="1.2550607"
       y="-0.11330935"
       height="1.2266187">
      <feGaussianBlur
         inkscape:collect="always"
         stdDeviation="3.28125"
         id="feGaussianBlur3875" />
    </filter>
    <radialGradient
       inkscape:collect="always"
       xlink:href="#linearGradient6964-4-3"
       id="radialGradient3885"
       gradientUnits="userSpaceOnUse"
       gradientTransform="matrix(1.8593725,-9.8930481e-7,9.8930439e-7,1.8593717,-48.684812,-1777.0293)"
       cx="76"
       cy="976.57489"
       fx="76"
       fy="976.57489"
       r="35.234001" />
    <radialGradient
       inkscape:collect="always"
       xlink:href="#linearGradient6964-4"
       id="radialGradient3911"
       cx="154"
       cy="118.125"
       fx="154"
       fy="118.125"
       r="7.5"
       gradientTransform="matrix(1.3333333,9.6123168e-8,-9.6123217e-8,1.3333339,-51.333329,-39.500073)"
       gradientUnits="userSpaceOnUse" />
    <filter
       inkscape:collect="always"
       id="filter3853"
       x="-0.12753036"
       width="1.2550607"
       y="-0.11330935"
       height="1.2266187">
      <feGaussianBlur
         inkscape:collect="always"
         stdDeviation="3.28125"
         id="feGaussianBlur3855" />
    </filter>
    <radialGradient
       inkscape:collect="always"
       xlink:href="#linearGradient6964-4-3"
       id="radialGradient3867"
       gradientUnits="userSpaceOnUse"
       gradientTransform="matrix(1.8593725,-9.8930481e-7,9.8930439e-7,1.8593717,-48.684812,-1777.0293)"
       cx="76"
       cy="976.57489"
       fx="76"
       fy="976.57489"
       r="35.234001" />
  </defs>
  <metadata
     id="metadata7">
    <rdf:RDF>
      <cc:Work
         rdf:about="">
        <dc:format>image/svg+xml</dc:format>
        <dc:type
           rdf:resource="http://purl.org/dc/dcmitype/StillImage" />
        <dc:title></dc:title>
      </cc:Work>
    </rdf:RDF>
  </metadata>
  <g
     transform="translate(0,-924.36218)"
     id="layer1"
     inkscape:groupmode="layer"
     inkscape:label="Layer 1">
    <rect
       ry="8"
       rx="8"
       y="940.36218"
       x="12"
       height="104"
       width="104"
       id="rect6981"
       style="opacity:0.10000000000000001;fill:#000000;fill-opacity:1;stroke:#000000;stroke-width:10;stroke-miterlimit:4;stroke-dasharray:none" />
    <rect
       style="opacity:0.1;fill:#000000;fill-opacity:1;stroke:#000000;stroke-width:6;stroke-miterlimit:4;stroke-dasharray:none"
       id="rect6979"
       width="104"
       height="104"
       x="12"
       y="940.36218"
       rx="8"
       ry="8" />
    <rect
       ry="8"
       rx="8"
       y="938.36218"
       x="12"
       height="104"
       width="104"
       id="rect5969"
       style="fill:#000000;fill-opacity:1;stroke:#000000;opacity:0.20000000000000001;stroke-width:3;stroke-miterlimit:4;stroke-dasharray:none" />
    <rect
       style="fill:url(#radialGradient5899);fill-opacity:1;stroke:#1a1a1a"
       id="rect6936"
       width="104"
       height="104"
       x="12"
       y="938.36218"
       rx="8"
       ry="8" />
    <rect
       ry="8"
       rx="8"
       y="934.36218"
       x="12"
       height="104"
       width="104"
       id="rect6964"
       style="fill:url(#radialGradient7116);fill-opacity:1;stroke:#1a1a1a" />
    <text
       xml:space="preserve"
       style="font-size:24px;font-style:normal;font-weight:normal;line-height:125%;letter-spacing:0px;word-spacing:0px;fill:#000000;fill-opacity:1;stroke:none;font-family:Sans"
       x="-56"
       y="948.36218"
       id="text5893"
       sodipodi:linespacing="125%"><tspan
         sodipodi:role="line"
         id="tspan5895"
         x="-56"
         y="948.36218">128</tspan></text>
    <text
       sodipodi:linespacing="125%"
       id="text5901"
       y="1000.3622"
       x="184"
       style="font-size:16px;font-style:normal;font-weight:normal;line-height:125%;letter-spacing:0px;word-spacing:0px;fill:#000000;fill-opacity:1;stroke:none;font-family:Sans"
       xml:space="preserve"><tspan
         y="1000.3622"
         x="184"
         id="tspan5903"
         sodipodi:role="line">31 - 17</tspan></text>
    <text
       xml:space="preserve"
       style="font-size:16px;font-style:normal;font-weight:normal;line-height:125%;letter-spacing:0px;word-spacing:0px;fill:#000000;fill-opacity:1;stroke:none;font-family:Sans"
       x="172"
       y="1048.3622"
       id="text5905"
       sodipodi:linespacing="125%"><tspan
         sodipodi:role="line"
         id="tspan5907"
         x="172"
         y="1048.3622">16</tspan></text>
    <rect
       style="fill:none;stroke:#000000;stroke-width:1;stroke-linecap:round;stroke-linejoin:round;stroke-miterlimit:4;stroke-opacity:1;stroke-dasharray:none;stroke-dashoffset:0"
       id="rect5919"
       width="40"
       height="40"
       x="140"
       y="60"
       transform="translate(0,924.36218)"
       rx="4.5902016e-07" />
    <rect
       style="fill:none;stroke:#000000;stroke-width:1;stroke-linecap:round;stroke-linejoin:round;stroke-miterlimit:4;stroke-opacity:1;stroke-dasharray:none;stroke-dashoffset:0"
       id="rect5921"
       width="24"
       height="24"
       x="140"
       y="1032.3622"
       rx="4.5902016e-07" />
    <rect
       style="fill:#b3b3b3;fill-opacity:1;stroke:none"
       id="rect6935"
       width="32"
       height="4"
       x="144"
       y="56"
       transform="translate(0,924.36218)"
       rx="4.5902016e-07" />
    <rect
       style="fill:#b3b3b3;fill-opacity:1;stroke:none"
       id="rect6937"
       width="4"
       height="32"
       x="136"
       y="64"
       transform="translate(0,924.36218)"
       rx="4.5902016e-07" />
    <rect
       style="fill:#b3b3b3;fill-opacity:1;stroke:none"
       id="rect6939"
       width="16"
       height="4"
       x="144"
       y="104"
       rx="4.5902016e-07"
       transform="translate(0,924.36218)" />
    <rect
       style="fill:#b3b3b3;fill-opacity:1;stroke:none"
       id="rect6941"
       width="4"
       height="16"
       x="136"
       y="112"
       transform="translate(0,924.36218)"
       rx="4.5902016e-07" />
    <rect
       style="fill:url(#radialGradient7116);fill-opacity:1;stroke:#1a1a1a"
       id="rect12711"
       width="104"
       height="104"
       x="12"
       y="934.36218"
       rx="8"
       ry="8" />
    <g
       id="g3857">
      <path
         style="fill:#000000;fill-opacity:1;stroke:none;stroke-width:2.51973605000000012;stroke-miterlimit:4;stroke-opacity:0.31372549000000000;stroke-dasharray:none;filter:url(#filter3853)"
         d="M 36.96875 27.25 C 34.830301 27.25 33.125 28.98655 33.125 31.125 L 33.125 92.875 C 33.125 95.0135 34.830301 96.75 36.96875 96.75 L 87.15625 96.75 C 89.294699 96.75 91.03125 95.0135 91.03125 92.875 L 91.03125 58.125 C 93.169699 58.125 94.875 56.41969 94.875 54.28125 L 94.875 38.84375 C 94.875 36.70531 93.169699 34.96875 91.03125 34.96875 L 91.03125 31.125 C 91.03125 28.98655 89.294699 27.25 87.15625 27.25 L 36.96875 27.25 z M 53.96875 49.15625 L 70.03125 49.15625 C 71.780209 49.15625 73.21875 50.62604 73.21875 52.375 L 73.21875 71.59375 C 73.21875 73.34271 71.780209 74.8125 70.03125 74.8125 L 53.96875 74.8125 C 52.219791 74.8125 50.78125 73.34271 50.78125 71.59375 L 50.78125 52.375 C 50.78125 50.62604 52.219791 49.15625 53.96875 49.15625 z M 53.96875 52.375 L 53.96875 71.59375 L 70.03125 71.59375 L 70.03125 52.375 L 53.96875 52.375 z M 60.40625 53.96875 L 63.59375 53.96875 L 63.59375 62 L 63.59375 63.59375 L 62 63.59375 L 55.59375 63.59375 L 55.59375 60.375 L 60.40625 60.375 L 60.40625 53.96875 z "
         id="path3083"
         transform="translate(0,924.36218)" />
      <path
         transform="translate(0,924.36218)"
         id="path3908"
         d="M 36.96875 27.25 C 34.830301 27.25 33.125 28.98655 33.125 31.125 L 33.125 92.875 C 33.125 95.0135 34.830301 96.75 36.96875 96.75 L 87.15625 96.75 C 89.294699 96.75 91.03125 95.0135 91.03125 92.875 L 91.03125 58.125 C 93.169699 58.125 94.875 56.41969 94.875 54.28125 L 94.875 38.84375 C 94.875 36.70531 93.169699 34.96875 91.03125 34.96875 L 91.03125 31.125 C 91.03125 28.98655 89.294699 27.25 87.15625 27.25 L 36.96875 27.25 z M 53.96875 49.15625 L 70.03125 49.15625 C 71.780209 49.15625 73.21875 50.62604 73.21875 52.375 L 73.21875 71.59375 C 73.21875 73.34271 71.780209 74.8125 70.03125 74.8125 L 53.96875 74.8125 C 52.219791 74.8125 50.78125 73.34271 50.78125 71.59375 L 50.78125 52.375 C 50.78125 50.62604 52.219791 49.15625 53.96875 49.15625 z M 53.96875 52.375 L 53.96875 71.59375 L 70.03125 71.59375 L 70.03125 52.375 L 53.96875 52.375 z M 60.40625 53.96875 L 63.59375 53.96875 L 63.59375 62 L 63.59375 63.59375 L 62 63.59375 L 55.59375 63.59375 L 55.59375 60.375 L 60.40625 60.375 L 60.40625 53.96875 z "
         style="fill:url(#radialGradient3100);fill-opacity:1;stroke:#ffffff;stroke-width:2.51973605000000012;stroke-miterlimit:4;stroke-opacity:0.31372549000000000;stroke-dasharray:none" />
    </g>
    <path
       style="opacity:1;fill:url(#radialGradient3911);fill-opacity:1;stroke:none"
       d="M 146 112 C 145.446 112 145 112.446 145 113 L 145 127 C 145 127.554 145.446 128 146 128 L 158 128 C 158.554 128 159 127.554 159 127 L 159 119 C 159.554 119 160 118.554 160 118 L 160 115 C 160 114.446 159.554 114 159 114 L 159 113 C 159 112.446 158.554 112 158 112 L 146 112 z M 152 114 C 155.31371 114 158 116.68629 158 120 C 158 123.31371 155.31371 126 152 126 C 148.68629 126 146 123.31371 146 120 C 146 116.68629 148.68629 114 152 114 z M 152 115 C 149.23858 115 147 117.23858 147 120 C 147 122.76142 149.23858 125 152 125 C 154.76142 125 157 122.76142 157 120 C 157 117.23858 154.76142 115 152 115 z M 151 116 L 153 116 L 153 118.28125 C 153.30235 118.45653 153.54347 118.69765 153.71875 119 L 155 119 L 155 121 L 153.71875 121 C 153.37271 121.5969 152.7396 122 152 122 C 150.89543 122 150 121.10457 150 120 C 150 119.2604 150.4031 118.62729 151 118.28125 L 151 116 z "
       transform="translate(0,924.36218)"
       id="rect3887" />
    <g
       id="g3861"
       transform="matrix(0.37536774,0,0,0.37536774,135.97646,634.11364)">
      <path
         transform="translate(0,924.36218)"
         id="path3863"
         d="m 36.96875,27.25 c -2.138449,0 -3.84375,1.73655 -3.84375,3.875 l 0,61.75 c 0,2.1385 1.705301,3.875 3.84375,3.875 l 50.1875,0 c 2.138449,0 3.875,-1.7365 3.875,-3.875 l 0,-34.75 c 2.138449,0 3.84375,-1.70531 3.84375,-3.84375 l 0,-15.4375 c 0,-2.13844 -1.705301,-3.875 -3.84375,-3.875 l 0,-3.84375 c 0,-2.13845 -1.736551,-3.875 -3.875,-3.875 l -50.1875,0 z m 17,21.90625 16.0625,0 c 1.748959,0 3.1875,1.46979 3.1875,3.21875 l 0,19.21875 c 0,1.74896 -1.438541,3.21875 -3.1875,3.21875 l -16.0625,0 c -1.748959,0 -3.1875,-1.46979 -3.1875,-3.21875 l 0,-19.21875 c 0,-1.74896 1.438541,-3.21875 3.1875,-3.21875 z m 0,3.21875 0,19.21875 16.0625,0 0,-19.21875 -16.0625,0 z m 6.4375,1.59375 3.1875,0 0,8.03125 0,1.59375 -1.59375,0 -6.40625,0 0,-3.21875 4.8125,0 0,-6.40625 z"
         style="fill:#000000;fill-opacity:1;stroke:none;filter:url(#filter3853)"
         inkscape:connector-curvature="0" />
      <path
         style="fill:url(#radialGradient3867);fill-opacity:1;stroke:#ffffff;stroke-width:2.51973605;stroke-miterlimit:4;stroke-opacity:0.31372549;stroke-dasharray:none"
         d="m 36.96875,27.25 c -2.138449,0 -3.84375,1.73655 -3.84375,3.875 l 0,61.75 c 0,2.1385 1.705301,3.875 3.84375,3.875 l 50.1875,0 c 2.138449,0 3.875,-1.7365 3.875,-3.875 l 0,-34.75 c 2.138449,0 3.84375,-1.70531 3.84375,-3.84375 l 0,-15.4375 c 0,-2.13844 -1.705301,-3.875 -3.84375,-3.875 l 0,-3.84375 c 0,-2.13845 -1.736551,-3.875 -3.875,-3.875 l -50.1875,0 z m 17,21.90625 16.0625,0 c 1.748959,0 3.1875,1.46979 3.1875,3.21875 l 0,19.21875 c 0,1.74896 -1.438541,3.21875 -3.1875,3.21875 l -16.0625,0 c -1.748959,0 -3.1875,-1.46979 -3.1875,-3.21875 l 0,-19.21875 c 0,-1.74896 1.438541,-3.21875 3.1875,-3.21875 z m 0,3.21875 0,19.21875 16.0625,0 0,-19.21875 -16.0625,0 z m 6.4375,1.59375 3.1875,0 0,8.03125 0,1.59375 -1.59375,0 -6.40625,0 0,-3.21875 4.8125,0 0,-6.40625 z"
         id="path3865"
         transform="translate(0,924.36218)"
         inkscape:connector-curvature="0" />
    </g>
  </g>
</svg>
