<?xml version="1.0" encoding="UTF-8" standalone="no"?>
<!-- Created with Inkscape (http://www.inkscape.org/) -->

<svg
   xmlns:dc="http://purl.org/dc/elements/1.1/"
   xmlns:cc="http://creativecommons.org/ns#"
   xmlns:rdf="http://www.w3.org/1999/02/22-rdf-syntax-ns#"
   xmlns:svg="http://www.w3.org/2000/svg"
   xmlns="http://www.w3.org/2000/svg"
   xmlns:xlink="http://www.w3.org/1999/xlink"
   xmlns:sodipodi="http://sodipodi.sourceforge.net/DTD/sodipodi-0.dtd"
   xmlns:inkscape="http://www.inkscape.org/namespaces/inkscape"
   width="128"
   height="128"
   id="svg2"
   version="1.1"
   inkscape:version="0.48.4 r9939"
   sodipodi:docname="folder.svg">
  <defs
     id="defs4">
    <linearGradient
       inkscape:collect="always"
       id="linearGradient3786">
      <stop
         style="stop-color:#ffffff;stop-opacity:1;"
         offset="0"
         id="stop3788" />
      <stop
         style="stop-color:#ffffff;stop-opacity:0;"
         offset="1"
         id="stop3790" />
    </linearGradient>
    <linearGradient
       id="linearGradient3802">
      <stop
         style="stop-color:#f8ff00;stop-opacity:1;"
         offset="0"
         id="stop3804" />
      <stop
         style="stop-color:#dc9500;stop-opacity:1;"
         offset="1"
         id="stop3806" />
    </linearGradient>
    <linearGradient
       id="linearGradient3785">
      <stop
         style="stop-color:#ffffff;stop-opacity:1;"
         offset="0"
         id="stop3787" />
      <stop
         style="stop-color:#d6d6d6;stop-opacity:1;"
         offset="1"
         id="stop3789" />
    </linearGradient>
    <radialGradient
       inkscape:collect="always"
       xlink:href="#linearGradient3785"
       id="radialGradient3791"
       cx="120"
       cy="217.06807"
       fx="120"
       fy="217.06807"
       r="366"
       gradientTransform="matrix(0.3723091,0,0,0.327632,-19.527241,892.69492)"
       gradientUnits="userSpaceOnUse" />
    <radialGradient
       inkscape:collect="always"
       xlink:href="#linearGradient3802"
       id="radialGradient3808"
       cx="548"
       cy="726.62531"
       fx="548"
       fy="726.62531"
       r="364"
       gradientTransform="matrix(0.19466446,0,0,0.19466446,-23.569618,882.32189)"
       gradientUnits="userSpaceOnUse" />
    <radialGradient
       inkscape:collect="always"
       xlink:href="#linearGradient3786"
       id="radialGradient3792"
       cx="69.103531"
       cy="1007.5928"
       fx="69.103531"
       fy="1007.5928"
       r="49.080518"
       gradientTransform="matrix(1.222481,2.9627286e-6,-3.21361e-6,1.3243539,-10.902227,-318.9127)"
       gradientUnits="userSpaceOnUse" />
    <radialGradient
       inkscape:collect="always"
       xlink:href="#linearGradient4161"
       id="radialGradient4167"
       cx="160"
       cy="88.781929"
       fx="160"
       fy="88.781929"
       r="13.90625"
       gradientTransform="matrix(1.4382022,6.1779722e-7,-4.6334786e-7,1.0786515,-70.112319,-12.764858)"
       gradientUnits="userSpaceOnUse" />
    <linearGradient
       inkscape:collect="always"
       id="linearGradient4161">
      <stop
         style="stop-color:#ffffff;stop-opacity:1;"
         offset="0"
         id="stop4163" />
      <stop
         style="stop-color:#ffffff;stop-opacity:0;"
         offset="1"
         id="stop4165" />
    </linearGradient>
    <radialGradient
       inkscape:collect="always"
       xlink:href="#linearGradient3785-5"
       id="radialGradient3791-8"
       cx="120"
       cy="217.06807"
       fx="120"
       fy="217.06807"
       r="366"
       gradientTransform="matrix(0.3723091,0,0,0.327632,-19.527241,892.69492)"
       gradientUnits="userSpaceOnUse" />
    <linearGradient
       id="linearGradient3785-5">
      <stop
         style="stop-color:#ffffff;stop-opacity:1;"
         offset="0"
         id="stop3787-8" />
      <stop
         style="stop-color:#d6d6d6;stop-opacity:1;"
         offset="1"
         id="stop3789-0" />
    </linearGradient>
    <radialGradient
       inkscape:collect="always"
       xlink:href="#linearGradient3802-5"
       id="radialGradient3808-0"
       cx="548"
       cy="726.62531"
       fx="548"
       fy="726.62531"
       r="364"
       gradientTransform="matrix(0.19466446,0,0,0.19466446,-23.569618,882.32189)"
       gradientUnits="userSpaceOnUse" />
    <linearGradient
       id="linearGradient3802-5">
      <stop
         style="stop-color:#b5ff00;stop-opacity:1;"
         offset="0"
         id="stop3804-1" />
      <stop
         style="stop-color:#205900;stop-opacity:1;"
         offset="1"
         id="stop3806-8" />
    </linearGradient>
    <radialGradient
       inkscape:collect="always"
       xlink:href="#linearGradient3786-1"
       id="radialGradient3792-5"
       cx="69.103531"
       cy="1007.5928"
       fx="69.103531"
       fy="1007.5928"
       r="49.080517"
       gradientTransform="matrix(1.222481,2.9627286e-6,-3.21361e-6,1.3243539,-10.902227,-318.9127)"
       gradientUnits="userSpaceOnUse" />
    <linearGradient
       inkscape:collect="always"
       id="linearGradient3786-1">
      <stop
         style="stop-color:#ffffff;stop-opacity:1;"
         offset="0"
         id="stop3788-0" />
      <stop
         style="stop-color:#ffffff;stop-opacity:0;"
         offset="1"
         id="stop3790-6" />
    </linearGradient>
    <radialGradient
       inkscape:collect="always"
       xlink:href="#linearGradient3786-1"
       id="radialGradient3052"
       gradientUnits="userSpaceOnUse"
       gradientTransform="matrix(1.222481,2.9627286e-6,-3.21361e-6,1.3243539,-10.902227,-318.9127)"
       cx="69.103531"
       cy="1007.5928"
       fx="69.103531"
       fy="1007.5928"
       r="49.080517" />
    <radialGradient
       inkscape:collect="always"
       xlink:href="#linearGradient3802-5"
       id="radialGradient3055"
       gradientUnits="userSpaceOnUse"
       gradientTransform="matrix(0.19466446,0,0,0.19466446,-23.569618,882.32189)"
       cx="548"
       cy="726.62531"
       fx="548"
       fy="726.62531"
       r="364" />
    <radialGradient
       inkscape:collect="always"
       xlink:href="#linearGradient3785-5"
       id="radialGradient3069"
       gradientUnits="userSpaceOnUse"
       gradientTransform="matrix(0.3723091,0,0,0.327632,-19.527241,892.69492)"
       cx="120"
       cy="217.06807"
       fx="120"
       fy="217.06807"
       r="366" />
    <linearGradient
       id="linearGradient3785-0">
      <stop
         style="stop-color:#ffffff;stop-opacity:1;"
         offset="0"
         id="stop3787-7" />
      <stop
         style="stop-color:#d6d6d6;stop-opacity:1;"
         offset="1"
         id="stop3789-1" />
    </linearGradient>
    <linearGradient
       id="linearGradient3802-56">
      <stop
         style="stop-color:#ff8400;stop-opacity:1;"
         offset="0"
         id="stop3804-16" />
      <stop
         style="stop-color:#4b2700;stop-opacity:1;"
         offset="1"
         id="stop3806-83" />
    </linearGradient>
    <radialGradient
       inkscape:collect="always"
       xlink:href="#linearGradient3785-6"
       id="radialGradient3791-6"
       cx="120"
       cy="217.06807"
       fx="120"
       fy="217.06807"
       r="366"
       gradientTransform="matrix(0.3723091,0,0,0.327632,-19.527241,892.69492)"
       gradientUnits="userSpaceOnUse" />
    <linearGradient
       id="linearGradient3785-6">
      <stop
         style="stop-color:#ffffff;stop-opacity:1;"
         offset="0"
         id="stop3787-4" />
      <stop
         style="stop-color:#d6d6d6;stop-opacity:1;"
         offset="1"
         id="stop3789-3" />
    </linearGradient>
    <radialGradient
       inkscape:collect="always"
       xlink:href="#linearGradient3802-3"
       id="radialGradient3808-9"
       cx="548"
       cy="726.62531"
       fx="548"
       fy="726.62531"
       r="364"
       gradientTransform="matrix(0.19466446,0,0,0.19466446,-23.569618,882.32189)"
       gradientUnits="userSpaceOnUse" />
    <linearGradient
       id="linearGradient3802-3">
      <stop
         style="stop-color:#ff00ac;stop-opacity:1;"
         offset="0"
         id="stop3804-4" />
      <stop
         style="stop-color:#390044;stop-opacity:1;"
         offset="1"
         id="stop3806-1" />
    </linearGradient>
    <radialGradient
       inkscape:collect="always"
       xlink:href="#linearGradient3786-12"
       id="radialGradient3792-6"
       cx="69.103531"
       cy="1007.5928"
       fx="69.103531"
       fy="1007.5928"
       r="49.080517"
       gradientTransform="matrix(1.222481,2.9627286e-6,-3.21361e-6,1.3243539,-10.902227,-318.9127)"
       gradientUnits="userSpaceOnUse" />
    <linearGradient
       inkscape:collect="always"
       id="linearGradient3786-12">
      <stop
         style="stop-color:#ffffff;stop-opacity:1;"
         offset="0"
         id="stop3788-4" />
      <stop
         style="stop-color:#ffffff;stop-opacity:0;"
         offset="1"
         id="stop3790-4" />
    </linearGradient>
    <radialGradient
       inkscape:collect="always"
       xlink:href="#linearGradient4161"
       id="radialGradient3135"
       gradientUnits="userSpaceOnUse"
       gradientTransform="matrix(1.4382022,6.1779722e-7,-4.6334786e-7,1.0786515,-70.112319,911.59732)"
       cx="160"
       cy="88.781929"
       fx="160"
       fy="88.781929"
       r="13.90625" />
  </defs>
  <sodipodi:namedview
     id="base"
     pagecolor="#ffffff"
     bordercolor="#666666"
     borderopacity="1.0"
     inkscape:pageopacity="0.0"
     inkscape:pageshadow="2"
     inkscape:zoom="2.4377909"
     inkscape:cx="78.715034"
     inkscape:cy="92.473706"
     inkscape:document-units="px"
     inkscape:current-layer="layer1"
     showgrid="true"
     inkscape:window-width="1280"
     inkscape:window-height="968"
     inkscape:window-x="0"
     inkscape:window-y="27"
     inkscape:window-maximized="1">
    <inkscape:grid
       type="xygrid"
       id="grid3000"
       empspacing="5"
       visible="true"
       enabled="true"
       snapvisiblegridlinesonly="true" />
  </sodipodi:namedview>
  <metadata
     id="metadata7">
    <rdf:RDF>
      <cc:Work
         rdf:about="">
        <dc:format>image/svg+xml</dc:format>
        <dc:type
           rdf:resource="http://purl.org/dc/dcmitype/StillImage" />
        <dc:title></dc:title>
      </cc:Work>
    </rdf:RDF>
  </metadata>
  <g
     inkscape:label="Ebene 1"
     inkscape:groupmode="layer"
     id="layer1"
     transform="translate(0,-924.36218)">
    <text
       sodipodi:linespacing="125%"
       style="font-size:24px;font-style:normal;font-weight:normal;line-height:125%;letter-spacing:0px;word-spacing:0px;fill:#000000;fill-opacity:1;stroke:none;font-family:Sans"
       xml:space="preserve"
       id="text5893-3"
       y="948.36218"
       x="-56"><tspan
         id="tspan5895-8"
         y="948.36218"
         x="-56">128</tspan></text>
    <text
       sodipodi:linespacing="125%"
       style="font-size:16px;font-style:normal;font-weight:normal;line-height:125%;letter-spacing:0px;word-spacing:0px;fill:#000000;fill-opacity:1;stroke:none;font-family:Sans"
       xml:space="preserve"
       id="text5901"
       y="1000.3622"
       x="184"><tspan
         id="tspan5903"
         y="1000.3622"
         x="184">31 - 17</tspan></text>
    <text
       sodipodi:linespacing="125%"
       style="font-size:16px;font-style:normal;font-weight:normal;line-height:125%;letter-spacing:0px;word-spacing:0px;fill:#000000;fill-opacity:1;stroke:none;font-family:Sans"
       xml:space="preserve"
       id="text5905"
       y="1048.3622"
       x="172"><tspan
         id="tspan5907"
         y="1048.3622"
         x="172">16</tspan></text>
    <rect
       style="fill:none;stroke:#000000;stroke-width:1;stroke-linecap:round;stroke-linejoin:round;stroke-miterlimit:4;stroke-opacity:1;stroke-dasharray:none;stroke-dashoffset:0"
       id="rect5919"
       y="984.36218"
       x="140"
       rx="4.5902016e-07"
       height="40"
       width="40" />
    <rect
       style="fill:none;stroke:#000000;stroke-width:1;stroke-linecap:round;stroke-linejoin:round;stroke-miterlimit:4;stroke-opacity:1;stroke-dasharray:none;stroke-dashoffset:0"
       id="rect5921"
       y="1032.3622"
       x="140"
       rx="4.5902016e-07"
       height="24"
       width="24" />
    <rect
       style="fill:#b3b3b3;fill-opacity:1;stroke:none"
       id="rect6935"
       y="980.36218"
       x="144"
       rx="4.5902016e-07"
       height="4"
       width="32" />
    <rect
       style="fill:#b3b3b3;fill-opacity:1;stroke:none"
       id="rect6937"
       y="988.36218"
       x="136"
       rx="4.5902016e-07"
       height="32"
       width="4" />
    <rect
       style="fill:#b3b3b3;fill-opacity:1;stroke:none"
       id="rect6939"
       y="1028.3622"
       x="144"
       rx="4.5902016e-07"
       height="4"
       width="16" />
    <rect
       style="fill:#b3b3b3;fill-opacity:1;stroke:none"
       id="rect6941"
       y="1036.3622"
       x="136"
       rx="4.5902016e-07"
       height="16"
       width="4" />
    <path
       id="path3151"
       d="m 171.13029,1009.9273 c 1.54154,0 2.78257,-1.241 2.78257,-2.7825 l 0,-2.7826 c 0,-1.5415 -1.24103,-2.7826 -2.78257,-2.7826 -8.34772,-4.17381 -5.56515,15.3042 0,8.3477 z"
       style="fill:#666666;fill-rule:evenodd;stroke:#999999;stroke-width:1.39128566;stroke-linecap:butt;stroke-linejoin:miter;stroke-miterlimit:4;stroke-opacity:1;stroke-dasharray:none"
       inkscape:connector-curvature="0"
       sodipodi:nodetypes="csscc"
       inkscape:export-filename="/home/georg/.icons/Kawaiki-Only/places/scalable/rect3146.png"
       inkscape:export-xdpi="32.142857"
       inkscape:export-ydpi="32.142857" />
    <path
       inkscape:connector-curvature="0"
       style="fill:#a125a8;fill-opacity:1;fill-rule:evenodd;stroke:#b3b3b3;stroke-width:1.39128566000000009;stroke-linecap:butt;stroke-linejoin:miter;stroke-miterlimit:4;stroke-opacity:1;stroke-dasharray:none"
       d="m 148.86971,989.05809 c -1.54154,0 -2.78257,1.241 -2.78257,2.7825 l 0,25.04321 c 0,1.5415 1.24103,2.7825 2.78257,2.7825 l 19.478,0 c 1.54155,0 2.78258,-1.241 2.78258,-2.7825 l 0,-16.6955 c 1.54154,0 2.78257,-1.24101 2.78257,-2.78251 l 0,-2.7826 c 0,-1.5415 -1.24103,-2.7826 -2.78257,-2.7826 0,-1.5415 -1.24103,-2.7825 -2.78258,-2.7825 l -19.478,0 z"
       id="rect3144"
       inkscape:export-filename="/home/georg/.icons/Kawaiki-Only/places/scalable/rect3146.png"
       inkscape:export-xdpi="32.142857"
       inkscape:export-ydpi="32.142857" />
    <rect
       style="fill:none;stroke:#eeeeec;stroke-width:1.39128566;stroke-miterlimit:4;stroke-dasharray:none"
       id="rect3146"
       width="19.478001"
       height="25.043142"
       x="148.86972"
       y="991.84058"
       rx="1.3912857"
       ry="1.3912857"
       inkscape:export-xdpi="32.142857"
       inkscape:export-ydpi="32.142857" />
    <path
       style="opacity:0.5;fill:url(#radialGradient3135);fill-opacity:1;fill-rule:evenodd;stroke:none"
       d="m 148.875,989.04968 c -1.54154,0 -2.78125,1.23975 -2.78125,2.78125 l 0,14.59377 c 6.87691,-2.9814 15.55072,-4.8132 25.03125,-5.0313 l 0,-1.2187 c 1.54154,0 2.78125,-1.23977 2.78125,-2.78127 l 0,-2.78125 c 0,-1.5415 -1.23971,-2.78125 -2.78125,-2.78125 0,-1.5415 -1.2397,-2.78125 -2.78125,-2.78125 l -19.46875,0 z"
       id="path4154"
       inkscape:connector-curvature="0" />
    <path
       style="fill:#b3b3b3;fill-opacity:1;stroke:#b3b3b3"
       d="m 146,1036.3622 c -1.108,0 -2,0.892 -2,2 l 0,12 c 0,1.108 0.892,2 2,2 l 10,0 c 1.108,0 2,-0.892 2,-2 l 0,-4 c 0.554,0 1,-0.446 1,-1 l 0,-2 c 0,-0.554 -0.446,-1 -1,-1 0.554,0 1,-0.446 1,-1 l 0,-2 c 0,-0.554 -0.446,-1 -1,-1 0,-1.108 -0.892,-2 -2,-2 l -10,0 z"
       id="path3883"
       inkscape:connector-curvature="0" />
    <path
       style="fill:#a125a8;fill-opacity:1;stroke:none"
       d="m 146,1036.3622 c -1.108,0 -2,0.892 -2,2 l 0,12 c 0,1.108 0.892,2 2,2 l 10,0 c 1.108,0 2,-0.892 2,-2 l 0,-8 c 0.554,0 1,-0.446 1,-1 l 0,-2 c 0,-0.554 -0.446,-1 -1,-1 0,-1.108 -0.892,-2 -2,-2 l -10,0 z"
       id="rect3874"
       inkscape:connector-curvature="0" />
    <path
       style="fill:#eeeeec;fill-opacity:1;stroke:none"
       d="m 147,1037.3622 c -1.108,0 -2,0.892 -2,2 l 0,10 c 0,1.108 0.892,2 2,2 l 8,0 c 1.108,0 2,-0.892 2,-2 l 0,-10 c 0,-1.108 -0.892,-2 -2,-2 l -8,0 z m 0,1 8,0 c 0.554,0 1,0.446 1,1 l 0,10 c 0,0.554 -0.446,1 -1,1 l -8,0 c -0.554,0 -1,-0.446 -1,-1 l 0,-10 c 0,-0.554 0.446,-1 1,-1 z"
       id="rect3893"
       inkscape:connector-curvature="0" />
    <g
       id="g3013">
      <rect
         ry="2.3894534"
         rx="2.7253025"
         transform="translate(0,924.36218)"
         y="101"
         x="5"
         height="11.999998"
         width="115.00002"
         id="rect3806"
         style="opacity:0.1;fill:#000000;fill-opacity:1;stroke:none" />
      <rect
         ry="2.3894534"
         rx="2.7253025"
         transform="translate(0,924.36218)"
         y="102"
         x="7"
         height="8.0000296"
         width="111"
         id="rect3804"
         style="opacity:0.12000002;fill:#000000;stroke:none" />
      <rect
         ry="2.3894534"
         rx="2.7253025"
         transform="translate(0,924.36218)"
         y="103"
         x="10"
         height="4.999999"
         width="105"
         id="rect3802"
         style="opacity:0.25;fill:#000000;stroke:none" />
      <path
         sodipodi:nodetypes="cscscccccccccccccc"
         inkscape:connector-curvature="0"
         id="rect3002"
         d="m 22.424554,950.18686 0,5.45061 c 0,1.36265 -1.362653,2.72531 -2.725305,2.72531 -0.69976,0 -1.398545,0 -2.725294,0 -1.362653,0 -2.725306,1.36264 -2.725306,2.72529 l 0,62.68193 c 0,2.7253 2.725306,5.4506 5.4506,5.4506 l 87.209691,0 c 2.72531,0 5.45061,-2.7253 5.45061,-5.398 l 0,-62.73453 c 0,-1.36265 -1.36265,-2.72529 -2.7253,-2.72529 l -43.604849,0 c -1.362652,0 -2.725305,-1.36266 -2.725305,-2.72531 l 0,-5.45061 c 0,-2.7253 -1.362652,-2.7253 -2.725305,-2.7253 l -35.428932,1e-5 c -1.362653,0 -2.725305,1.36265 -2.725305,2.72529 z"
         style="fill:url(#radialGradient3791-6);fill-opacity:1;stroke:#505050;stroke-width:1.09012103;stroke-miterlimit:4;stroke-opacity:1;stroke-dasharray:none" />
      <g
         transform="matrix(0.13626513,0,0,0.13626513,6.7980396,929.42521)"
         id="g3867">
        <rect
           style="opacity:0.2;fill:#000000;fill-opacity:1;stroke:none"
           id="rect3847"
           width="40"
           height="420"
           x="80"
           y="252.36218"
           rx="20"
           ry="20" />
        <rect
           ry="20"
           rx="20"
           y="252.36218"
           x="160"
           height="420"
           width="40"
           id="rect3849"
           style="opacity:0.2;fill:#000000;fill-opacity:1;stroke:none" />
        <rect
           style="opacity:0.2;fill:#000000;fill-opacity:1;stroke:none"
           id="rect3851"
           width="40"
           height="420"
           x="240"
           y="252.36218"
           rx="20"
           ry="20" />
        <rect
           ry="20"
           rx="20"
           y="252.36218"
           x="320"
           height="420"
           width="40"
           id="rect3853"
           style="opacity:0.2;fill:#000000;fill-opacity:1;stroke:none" />
        <rect
           style="opacity:0.2;fill:#000000;fill-opacity:1;stroke:none"
           id="rect3855"
           width="40"
           height="420"
           x="400"
           y="252.36218"
           rx="20"
           ry="20" />
        <rect
           ry="20"
           rx="20"
           y="252.36218"
           x="460"
           height="420"
           width="40"
           id="rect3857"
           style="opacity:0.2;fill:#000000;fill-opacity:1;stroke:none" />
        <rect
           style="opacity:0.2;fill:#000000;fill-opacity:1;stroke:none"
           id="rect3859"
           width="40"
           height="420"
           x="540"
           y="252.36218"
           rx="20"
           ry="20" />
        <rect
           ry="20"
           rx="20"
           y="252.36218"
           x="620"
           height="420"
           width="40"
           id="rect3861"
           style="opacity:0.2;fill:#000000;fill-opacity:1;stroke:none" />
        <rect
           style="opacity:0.2;fill:#000000;fill-opacity:1;stroke:none"
           id="rect3863"
           width="40"
           height="420"
           x="700"
           y="252.36218"
           rx="20"
           ry="20" />
      </g>
      <path
         inkscape:connector-curvature="0"
         id="path3797"
         d="m 98.08201,961.30027 c -56.630838,0.21628 -35.932141,6.92853 -82.653534,8.12047 -1.237475,0 -2.459726,1.25596 -2.459726,2.49342 l 0,0.60651 c 49.801725,-1.86733 26.411612,-9.68562 99.93901,-9.40087 -0.22042,-1.77415 -1.31853,-1.78583 -2.42603,-1.78583 -4.50572,-0.047 -8.62432,-0.0481 -12.39972,-0.0336 z"
         style="opacity:0.25;fill:#000000;fill-opacity:1;stroke:none" />
      <path
         style="opacity:0.85;fill:url(#radialGradient3808-9);fill-opacity:1;stroke:#505050;stroke-width:1.09012103;stroke-miterlimit:4;stroke-opacity:1;stroke-dasharray:none"
         d="m 11.694916,971.897 c -1.362653,0 -2.7252954,1.36265 -2.7252954,2.72529 l 0,49.14771 c -0.397333,4.727 1.6026674,5.727 4.7296284,5.4506 l 99.930661,0 c 2.72531,0 5.45061,-2.7253 5.45061,-5.398 l 0,-58.10151 c 0,-2.7253 -1.36265,-2.7253 -2.7253,-2.7253 C 36.971094,962.16807 66.572288,970.497 11.694916,971.897 z"
         id="path3798"
         inkscape:connector-curvature="0"
         sodipodi:nodetypes="ccccccccc" />
      <path
         sodipodi:nodetypes="scscscscs"
         inkscape:connector-curvature="0"
         id="path3015"
         d="m 102.82229,962.9345 c -61.041028,0.23815 -39.677466,7.65625 -91.125002,8.96875 -1.362653,0 -2.7187504,1.35611 -2.7187504,2.71875 l 0,23.65625 c 25.7810454,-4.31192 70.3149154,-6.875 105.7187524,-6.875 1.46301,0 2.92197,0.0225 4.375,0.0313 l 0,-25.71875 c 0,-2.7253 -1.3561,-2.71875 -2.71875,-2.71875 -4.96151,-0.0517 -9.46185,-0.0784 -13.53125,-0.0625 z"
         style="opacity:0.75;fill:url(#radialGradient3792-6);fill-opacity:1;stroke:none" />
      <rect
         ry="2.7253025"
         rx="2.7253025"
         y="950.18689"
         x="25.149862"
         height="6.1319308"
         width="25.890375"
         id="rect3828"
         style="opacity:0.85;fill:#800080;fill-opacity:1;stroke:none" />
    </g>
  </g>
</svg>
