<?xml version="1.0" encoding="UTF-8" standalone="no"?>
<!-- Created with Inkscape (http://www.inkscape.org/) -->

<svg
   xmlns:dc="http://purl.org/dc/elements/1.1/"
   xmlns:cc="http://creativecommons.org/ns#"
   xmlns:rdf="http://www.w3.org/1999/02/22-rdf-syntax-ns#"
   xmlns:svg="http://www.w3.org/2000/svg"
   xmlns="http://www.w3.org/2000/svg"
   xmlns:xlink="http://www.w3.org/1999/xlink"
   xmlns:sodipodi="http://sodipodi.sourceforge.net/DTD/sodipodi-0.dtd"
   xmlns:inkscape="http://www.inkscape.org/namespaces/inkscape"
   width="800"
   height="600"
   id="svg2"
   version="1.1"
   inkscape:version="0.48.4 r9939"
   sodipodi:docname="actions-overview.svg">
  <defs
     id="defs4">
    <linearGradient
       id="linearGradient4068">
      <stop
         id="stop4070"
         offset="0"
         style="stop-color:#ffffff;stop-opacity:1;" />
      <stop
         id="stop4072"
         offset="1"
         style="stop-color:#7a7a7a;stop-opacity:1;" />
    </linearGradient>
    <linearGradient
       id="linearGradient3755">
      <stop
         style="stop-color:#464646;stop-opacity:1;"
         offset="0"
         id="stop3757" />
      <stop
         style="stop-color:#000000;stop-opacity:1;"
         offset="1"
         id="stop3759" />
    </linearGradient>
    <radialGradient
       inkscape:collect="always"
       xlink:href="#linearGradient3755"
       id="radialGradient3761"
       cx="400.00647"
       cy="299.98556"
       fx="400.00647"
       fy="299.98556"
       r="400.00647"
       gradientTransform="matrix(1,0,0,0.7500283,0,74.9879)"
       gradientUnits="userSpaceOnUse" />
    <filter
       color-interpolation-filters="sRGB"
       inkscape:collect="always"
       id="filter3908"
       x="-0.12000002"
       width="1.24"
       y="-0.11999998"
       height="1.24">
      <feGaussianBlur
         inkscape:collect="always"
         stdDeviation="3.6000005"
         id="feGaussianBlur3910" />
    </filter>
    <linearGradient
       id="linearGradient8794-33">
      <stop
         style="stop-color:#ffffff;stop-opacity:1;"
         offset="0"
         id="stop8796-9" />
      <stop
         style="stop-color:#cacaca;stop-opacity:1;"
         offset="1"
         id="stop8798-6" />
    </linearGradient>
    <linearGradient
       id="linearGradient7110">
      <stop
         style="stop-color:#5a5a5a;stop-opacity:1;"
         offset="0"
         id="stop7112" />
      <stop
         style="stop-color:#202020;stop-opacity:1;"
         offset="1"
         id="stop7114" />
    </linearGradient>
    <radialGradient
       inkscape:collect="always"
       xlink:href="#linearGradient7110"
       id="radialGradient3054"
       cx="80"
       cy="972.36218"
       fx="80"
       fy="972.36218"
       r="52.5"
       gradientUnits="userSpaceOnUse" />
    <linearGradient
       id="linearGradient3056">
      <stop
         style="stop-color:#5a5a5a;stop-opacity:1;"
         offset="0"
         id="stop3058" />
      <stop
         style="stop-color:#202020;stop-opacity:1;"
         offset="1"
         id="stop3060" />
    </linearGradient>
    <linearGradient
       id="linearGradient4216-4-8-2">
      <stop
         id="stop4218-8-0-7"
         offset="0"
         style="stop-color:#494949;stop-opacity:1;" />
      <stop
         id="stop4220-1-6-4"
         offset="1"
         style="stop-color:#0f0f0f;stop-opacity:1;" />
    </linearGradient>
    <radialGradient
       inkscape:collect="always"
       xlink:href="#linearGradient4216-4-8-2"
       id="radialGradient3835"
       gradientUnits="userSpaceOnUse"
       gradientTransform="translate(339,-229.25)"
       cx="64"
       cy="1020.3622"
       fx="64"
       fy="1020.3622"
       r="52" />
    <radialGradient
       inkscape:collect="always"
       xlink:href="#linearGradient7110"
       id="radialGradient3837"
       gradientUnits="userSpaceOnUse"
       gradientTransform="translate(339,-231.25)"
       cx="80"
       cy="972.36218"
       fx="80"
       fy="972.36218"
       r="52.5" />
    <radialGradient
       inkscape:collect="always"
       xlink:href="#linearGradient7110"
       id="radialGradient3839"
       gradientUnits="userSpaceOnUse"
       gradientTransform="translate(339,-231.25)"
       cx="80"
       cy="972.36218"
       fx="80"
       fy="972.36218"
       r="52.5" />
    <radialGradient
       inkscape:collect="always"
       xlink:href="#linearGradient8794-33"
       id="radialGradient3841"
       gradientUnits="userSpaceOnUse"
       gradientTransform="matrix(5.625,0,0,5.625,-793.25,313.61216)"
       cx="154"
       cy="118"
       fx="154"
       fy="118"
       r="8" />
    <filter
       color-interpolation-filters="sRGB"
       inkscape:collect="always"
       id="filter6040"
       x="-0.091875017"
       width="1.18375"
       y="-0.17294112"
       height="1.3458822">
      <feGaussianBlur
         inkscape:collect="always"
         stdDeviation="2.7562505"
         id="feGaussianBlur6042" />
    </filter>
    <linearGradient
       id="linearGradient8794-33-9">
      <stop
         style="stop-color:#ffffff;stop-opacity:1;"
         offset="0"
         id="stop8796-9-7" />
      <stop
         style="stop-color:#cacaca;stop-opacity:1;"
         offset="1"
         id="stop8798-6-6" />
    </linearGradient>
    <linearGradient
       id="linearGradient7110-4">
      <stop
         style="stop-color:#5a5a5a;stop-opacity:1;"
         offset="0"
         id="stop7112-5" />
      <stop
         style="stop-color:#202020;stop-opacity:1;"
         offset="1"
         id="stop7114-2" />
    </linearGradient>
    <radialGradient
       inkscape:collect="always"
       xlink:href="#linearGradient7110-4"
       id="radialGradient3055"
       cx="80"
       cy="972.36218"
       fx="80"
       fy="972.36218"
       r="52.5"
       gradientUnits="userSpaceOnUse" />
    <linearGradient
       id="linearGradient3057">
      <stop
         style="stop-color:#5a5a5a;stop-opacity:1;"
         offset="0"
         id="stop3059" />
      <stop
         style="stop-color:#202020;stop-opacity:1;"
         offset="1"
         id="stop3061" />
    </linearGradient>
    <linearGradient
       id="linearGradient4216-4-8-2-3">
      <stop
         id="stop4218-8-0-7-5"
         offset="0"
         style="stop-color:#494949;stop-opacity:1;" />
      <stop
         id="stop4220-1-6-4-4"
         offset="1"
         style="stop-color:#0f0f0f;stop-opacity:1;" />
    </linearGradient>
    <radialGradient
       inkscape:collect="always"
       xlink:href="#linearGradient4216-4-8-2-3"
       id="radialGradient3915"
       gradientUnits="userSpaceOnUse"
       gradientTransform="translate(834,-466.25)"
       cx="64"
       cy="1020.3622"
       fx="64"
       fy="1020.3622"
       r="52" />
    <radialGradient
       inkscape:collect="always"
       xlink:href="#linearGradient7110-4"
       id="radialGradient3917"
       gradientUnits="userSpaceOnUse"
       gradientTransform="translate(834,-468.25)"
       cx="80"
       cy="972.36218"
       fx="80"
       fy="972.36218"
       r="52.5" />
    <radialGradient
       inkscape:collect="always"
       xlink:href="#linearGradient7110-4"
       id="radialGradient3919"
       gradientUnits="userSpaceOnUse"
       gradientTransform="translate(834,-468.25)"
       cx="80"
       cy="972.36218"
       fx="80"
       fy="972.36218"
       r="52.5" />
    <radialGradient
       inkscape:collect="always"
       xlink:href="#linearGradient8794-33-9"
       id="radialGradient3921"
       gradientUnits="userSpaceOnUse"
       gradientTransform="matrix(5.6250004,1.7578649e-6,-1.5820785e-6,5.0625004,-793.24986,393.95832)"
       cx="154"
       cy="114.57353"
       fx="154"
       fy="114.57353"
       r="8" />
    <linearGradient
       id="linearGradient8794-2">
      <stop
         style="stop-color:#ffffff;stop-opacity:1;"
         offset="0"
         id="stop8796-6" />
      <stop
         id="stop4469-5"
         offset="0.5"
         style="stop-color:#e4e4e4;stop-opacity:1;" />
      <stop
         style="stop-color:#cacaca;stop-opacity:1;"
         offset="1"
         id="stop8798-1" />
    </linearGradient>
    <filter
       color-interpolation-filters="sRGB"
       inkscape:collect="always"
       id="filter10104"
       x="-0.11404331"
       width="1.2280866"
       y="-0.12661324"
       height="1.2532265">
      <feGaussianBlur
         inkscape:collect="always"
         stdDeviation="3.4212807"
         id="feGaussianBlur10106" />
    </filter>
    <linearGradient
       id="linearGradient7110-9">
      <stop
         style="stop-color:#5a5a5a;stop-opacity:1;"
         offset="0"
         id="stop7112-3" />
      <stop
         style="stop-color:#202020;stop-opacity:1;"
         offset="1"
         id="stop7114-3" />
    </linearGradient>
    <radialGradient
       inkscape:collect="always"
       xlink:href="#linearGradient7110-9"
       id="radialGradient3045"
       cx="80"
       cy="972.36218"
       fx="80"
       fy="972.36218"
       r="52.5"
       gradientUnits="userSpaceOnUse" />
    <linearGradient
       id="linearGradient3047">
      <stop
         style="stop-color:#5a5a5a;stop-opacity:1;"
         offset="0"
         id="stop3049" />
      <stop
         style="stop-color:#202020;stop-opacity:1;"
         offset="1"
         id="stop3051" />
    </linearGradient>
    <linearGradient
       id="linearGradient4216-4-8-2-1">
      <stop
         id="stop4218-8-0-7-3"
         offset="0"
         style="stop-color:#494949;stop-opacity:1;" />
      <stop
         id="stop4220-1-6-4-9"
         offset="1"
         style="stop-color:#0f0f0f;stop-opacity:1;" />
    </linearGradient>
    <radialGradient
       inkscape:collect="always"
       xlink:href="#linearGradient4216-4-8-2-1"
       id="radialGradient3994"
       gradientUnits="userSpaceOnUse"
       gradientTransform="translate(587,-634.25)"
       cx="64"
       cy="1020.3622"
       fx="64"
       fy="1020.3622"
       r="52" />
    <radialGradient
       inkscape:collect="always"
       xlink:href="#linearGradient7110-9"
       id="radialGradient3996"
       gradientUnits="userSpaceOnUse"
       gradientTransform="translate(587,-636.25)"
       cx="80"
       cy="972.36218"
       fx="80"
       fy="972.36218"
       r="52.5" />
    <radialGradient
       inkscape:collect="always"
       xlink:href="#linearGradient7110-9"
       id="radialGradient3998"
       gradientUnits="userSpaceOnUse"
       gradientTransform="translate(587,-636.25)"
       cx="80"
       cy="972.36218"
       fx="80"
       fy="972.36218"
       r="52.5" />
    <radialGradient
       inkscape:collect="always"
       xlink:href="#linearGradient8794-2"
       id="radialGradient4000"
       gradientUnits="userSpaceOnUse"
       gradientTransform="matrix(1.6666757,-5.2203794e-7,4.5243285e-7,1.4444519,530.9988,-1063.7746)"
       cx="84"
       cy="966.37817"
       fx="84"
       fy="966.37817"
       r="35.999805" />
    <linearGradient
       id="linearGradient8794-33-95">
      <stop
         style="stop-color:#ffffff;stop-opacity:1;"
         offset="0"
         id="stop8796-9-9" />
      <stop
         style="stop-color:#cacaca;stop-opacity:1;"
         offset="1"
         id="stop8798-6-3" />
    </linearGradient>
    <filter
       color-interpolation-filters="sRGB"
       inkscape:collect="always"
       id="filter7305"
       x="-0.12"
       width="1.24"
       y="-0.12"
       height="1.24">
      <feGaussianBlur
         inkscape:collect="always"
         stdDeviation="3.6000006"
         id="feGaussianBlur7307" />
    </filter>
    <linearGradient
       id="linearGradient7110-1">
      <stop
         style="stop-color:#5a5a5a;stop-opacity:1;"
         offset="0"
         id="stop7112-2" />
      <stop
         style="stop-color:#202020;stop-opacity:1;"
         offset="1"
         id="stop7114-39" />
    </linearGradient>
    <linearGradient
       id="linearGradient4216-4-8-2-8">
      <stop
         id="stop4218-8-0-7-6"
         offset="0"
         style="stop-color:#494949;stop-opacity:1;" />
      <stop
         id="stop4220-1-6-4-7"
         offset="1"
         style="stop-color:#0f0f0f;stop-opacity:1;" />
    </linearGradient>
    <radialGradient
       inkscape:collect="always"
       xlink:href="#linearGradient4216-4-8-2-8"
       id="radialGradient4058"
       gradientUnits="userSpaceOnUse"
       gradientTransform="translate(426,-556.25)"
       cx="64"
       cy="1020.3622"
       fx="64"
       fy="1020.3622"
       r="52" />
    <radialGradient
       inkscape:collect="always"
       xlink:href="#linearGradient7110-1"
       id="radialGradient4060"
       gradientUnits="userSpaceOnUse"
       gradientTransform="translate(426,-558.25)"
       cx="80"
       cy="972.36218"
       fx="80"
       fy="972.36218"
       r="52.5" />
    <radialGradient
       inkscape:collect="always"
       xlink:href="#linearGradient8794-33-95"
       id="radialGradient4062"
       gradientUnits="userSpaceOnUse"
       gradientTransform="matrix(1.222222,4.3990857e-7,-4.3990876e-7,1.2222226,408.22267,-776.99752)"
       cx="80"
       cy="984.36212"
       fx="80"
       fy="984.36212"
       r="36.000008" />
    <radialGradient
       inkscape:collect="always"
       xlink:href="#linearGradient6964-4"
       id="radialGradient10139"
       gradientUnits="userSpaceOnUse"
       gradientTransform="matrix(3.1578896,0,0,3.1578896,-84.262377,-16.268789)"
       cx="154"
       cy="118"
       fx="154"
       fy="118"
       r="8" />
    <linearGradient
       id="linearGradient6964-4">
      <stop
         style="stop-color:#ffffff;stop-opacity:1;"
         offset="0"
         id="stop6966-4" />
      <stop
         style="stop-color:#cacaca;stop-opacity:1;"
         offset="1"
         id="stop6970-3" />
    </linearGradient>
    <filter
       color-interpolation-filters="sRGB"
       inkscape:collect="always"
       id="filter10143"
       x="-0.12000002"
       width="1.24"
       y="-0.11999998"
       height="1.24">
      <feGaussianBlur
         inkscape:collect="always"
         stdDeviation="3.6000005"
         id="feGaussianBlur10145" />
    </filter>
    <radialGradient
       gradientTransform="matrix(0.5614026,0,0,0.5614026,361.07024,-192.33147)"
       inkscape:collect="always"
       xlink:href="#linearGradient7110-3"
       id="radialGradient7116"
       cx="80"
       cy="972.36218"
       fx="80"
       fy="972.36218"
       r="52.5"
       gradientUnits="userSpaceOnUse" />
    <linearGradient
       id="linearGradient7110-3">
      <stop
         style="stop-color:#5a5a5a;stop-opacity:1;"
         offset="0"
         id="stop7112-21" />
      <stop
         style="stop-color:#202020;stop-opacity:1;"
         offset="1"
         id="stop7114-22" />
    </linearGradient>
    <radialGradient
       inkscape:collect="always"
       xlink:href="#linearGradient7110-3"
       id="radialGradient3051"
       cx="80"
       cy="972.36218"
       fx="80"
       fy="972.36218"
       r="52.5"
       gradientUnits="userSpaceOnUse" />
    <linearGradient
       id="linearGradient3053">
      <stop
         style="stop-color:#5a5a5a;stop-opacity:1;"
         offset="0"
         id="stop3055" />
      <stop
         style="stop-color:#202020;stop-opacity:1;"
         offset="1"
         id="stop3057" />
    </linearGradient>
    <radialGradient
       inkscape:collect="always"
       xlink:href="#linearGradient4216-4-8-2-5"
       id="radialGradient5899"
       gradientUnits="userSpaceOnUse"
       gradientTransform="matrix(0.5614026,0,0,0.5614026,361.07024,-191.20867)"
       cx="64"
       cy="1020.3622"
       fx="64"
       fy="1020.3622"
       r="52" />
    <linearGradient
       id="linearGradient4216-4-8-2-5">
      <stop
         id="stop4218-8-0-7-57"
         offset="0"
         style="stop-color:#494949;stop-opacity:1;" />
      <stop
         id="stop4220-1-6-4-74"
         offset="1"
         style="stop-color:#0f0f0f;stop-opacity:1;" />
    </linearGradient>
    <radialGradient
       gradientTransform="matrix(0.5614026,0,0,0.5614026,361.07024,-192.33147)"
       r="52.5"
       fy="972.36218"
       fx="80"
       cy="972.36218"
       cx="80"
       gradientUnits="userSpaceOnUse"
       id="radialGradient3071"
       xlink:href="#linearGradient7110-3"
       inkscape:collect="always" />
    <radialGradient
       inkscape:collect="always"
       xlink:href="#linearGradient4216-4-8-2-5"
       id="radialGradient4133"
       gradientUnits="userSpaceOnUse"
       gradientTransform="matrix(0.5614026,0,0,0.5614026,361.07024,-191.20867)"
       cx="64"
       cy="1020.3622"
       fx="64"
       fy="1020.3622"
       r="52" />
    <radialGradient
       inkscape:collect="always"
       xlink:href="#linearGradient7110-3"
       id="radialGradient4135"
       gradientUnits="userSpaceOnUse"
       gradientTransform="matrix(0.5614026,0,0,0.5614026,361.07024,-192.33147)"
       cx="80"
       cy="972.36218"
       fx="80"
       fy="972.36218"
       r="52.5" />
    <radialGradient
       inkscape:collect="always"
       xlink:href="#linearGradient7110-3"
       id="radialGradient4137"
       gradientUnits="userSpaceOnUse"
       gradientTransform="matrix(0.5614026,0,0,0.5614026,361.07024,-192.33147)"
       cx="80"
       cy="972.36218"
       fx="80"
       fy="972.36218"
       r="52.5" />
    <radialGradient
       inkscape:collect="always"
       xlink:href="#linearGradient6964-4"
       id="radialGradient4139"
       gradientUnits="userSpaceOnUse"
       gradientTransform="matrix(3.1578896,0,0,3.1578896,-84.262377,-16.268789)"
       cx="154"
       cy="118"
       fx="154"
       fy="118"
       r="8" />
    <filter
       color-interpolation-filters="sRGB"
       inkscape:collect="always"
       id="filter6736"
       x="-0.12000002"
       width="1.24"
       y="-0.11999998"
       height="1.24">
      <feGaussianBlur
         inkscape:collect="always"
         stdDeviation="3.6000005"
         id="feGaussianBlur6738" />
    </filter>
    <radialGradient
       inkscape:collect="always"
       xlink:href="#linearGradient8794-33-7"
       id="radialGradient6732"
       gradientUnits="userSpaceOnUse"
       gradientTransform="matrix(5.625,0,0,5.625,-793.25,313.61216)"
       cx="154.17778"
       cy="121.37778"
       fx="154.17778"
       fy="121.37778"
       r="8" />
    <linearGradient
       id="linearGradient8794-33-7">
      <stop
         style="stop-color:#ffffff;stop-opacity:1;"
         offset="0"
         id="stop8796-9-4" />
      <stop
         style="stop-color:#cacaca;stop-opacity:1;"
         offset="1"
         id="stop8798-6-36" />
    </linearGradient>
    <radialGradient
       gradientTransform="matrix(0.5614026,0,0,0.5614026,322.07023,-191.33148)"
       inkscape:collect="always"
       xlink:href="#linearGradient7110-2"
       id="radialGradient7116-2"
       cx="80"
       cy="972.36218"
       fx="80"
       fy="972.36218"
       r="52.5"
       gradientUnits="userSpaceOnUse" />
    <linearGradient
       id="linearGradient7110-2">
      <stop
         style="stop-color:#5a5a5a;stop-opacity:1;"
         offset="0"
         id="stop7112-33" />
      <stop
         style="stop-color:#202020;stop-opacity:1;"
         offset="1"
         id="stop7114-9" />
    </linearGradient>
    <radialGradient
       inkscape:collect="always"
       xlink:href="#linearGradient4216-4-8-2-6"
       id="radialGradient5899-7"
       gradientUnits="userSpaceOnUse"
       gradientTransform="matrix(0.5614026,0,0,0.5614026,322.07023,-190.20867)"
       cx="64"
       cy="1020.3622"
       fx="64"
       fy="1020.3622"
       r="52" />
    <linearGradient
       id="linearGradient4216-4-8-2-6">
      <stop
         id="stop4218-8-0-7-0"
         offset="0"
         style="stop-color:#494949;stop-opacity:1;" />
      <stop
         id="stop4220-1-6-4-5"
         offset="1"
         style="stop-color:#0f0f0f;stop-opacity:1;" />
    </linearGradient>
    <radialGradient
       inkscape:collect="always"
       xlink:href="#linearGradient4216-4-8-2-6"
       id="radialGradient4200"
       gradientUnits="userSpaceOnUse"
       gradientTransform="matrix(0.5614026,0,0,0.5614026,322.07023,-190.20867)"
       cx="64"
       cy="1020.3622"
       fx="64"
       fy="1020.3622"
       r="52" />
    <radialGradient
       inkscape:collect="always"
       xlink:href="#linearGradient7110-2"
       id="radialGradient4202"
       gradientUnits="userSpaceOnUse"
       gradientTransform="matrix(0.5614026,0,0,0.5614026,322.07023,-191.33148)"
       cx="80"
       cy="972.36218"
       fx="80"
       fy="972.36218"
       r="52.5" />
    <radialGradient
       inkscape:collect="always"
       xlink:href="#linearGradient8794-33-7"
       id="radialGradient4204"
       gradientUnits="userSpaceOnUse"
       gradientTransform="matrix(5.625,0,0,5.625,-793.25,313.61216)"
       cx="154.17778"
       cy="121.37778"
       fx="154.17778"
       fy="121.37778"
       r="8" />
    <radialGradient
       inkscape:collect="always"
       xlink:href="#linearGradient8794-33-6"
       id="radialGradient4650"
       cx="64"
       cy="986.36218"
       fx="64"
       fy="986.36218"
       r="34.483002"
       gradientTransform="matrix(1,0,0,1.0439987,332,-658.6487)"
       gradientUnits="userSpaceOnUse" />
    <linearGradient
       id="linearGradient8794-33-6">
      <stop
         style="stop-color:#ffffff;stop-opacity:1;"
         offset="0"
         id="stop8796-9-8" />
      <stop
         style="stop-color:#cacaca;stop-opacity:1;"
         offset="1"
         id="stop8798-6-65" />
    </linearGradient>
    <filter
       color-interpolation-filters="sRGB"
       inkscape:collect="always"
       id="filter4654"
       x="-0.12263992"
       width="1.2452798"
       y="-0.11747133"
       height="1.2349427">
      <feGaussianBlur
         inkscape:collect="always"
         stdDeviation="3.5241604"
         id="feGaussianBlur4656" />
    </filter>
    <radialGradient
       gradientTransform="translate(332,-615.25)"
       inkscape:collect="always"
       xlink:href="#linearGradient7110-7"
       id="radialGradient7116-4"
       cx="80"
       cy="972.36218"
       fx="80"
       fy="972.36218"
       r="52.5"
       gradientUnits="userSpaceOnUse" />
    <linearGradient
       id="linearGradient7110-7">
      <stop
         style="stop-color:#5a5a5a;stop-opacity:1;"
         offset="0"
         id="stop7112-36" />
      <stop
         style="stop-color:#202020;stop-opacity:1;"
         offset="1"
         id="stop7114-96" />
    </linearGradient>
    <radialGradient
       inkscape:collect="always"
       xlink:href="#linearGradient7110-7"
       id="radialGradient3061"
       cx="80"
       cy="972.36218"
       fx="80"
       fy="972.36218"
       r="52.5"
       gradientUnits="userSpaceOnUse" />
    <linearGradient
       id="linearGradient3063">
      <stop
         style="stop-color:#5a5a5a;stop-opacity:1;"
         offset="0"
         id="stop3065" />
      <stop
         style="stop-color:#202020;stop-opacity:1;"
         offset="1"
         id="stop3067" />
    </linearGradient>
    <radialGradient
       inkscape:collect="always"
       xlink:href="#linearGradient4216-4-8-2-4"
       id="radialGradient5899-0"
       gradientUnits="userSpaceOnUse"
       gradientTransform="translate(332,-613.25)"
       cx="64"
       cy="1020.3622"
       fx="64"
       fy="1020.3622"
       r="52" />
    <linearGradient
       id="linearGradient4216-4-8-2-4">
      <stop
         id="stop4218-8-0-7-1"
         offset="0"
         style="stop-color:#494949;stop-opacity:1;" />
      <stop
         id="stop4220-1-6-4-79"
         offset="1"
         style="stop-color:#0f0f0f;stop-opacity:1;" />
    </linearGradient>
    <radialGradient
       gradientTransform="translate(332,-615.25)"
       r="52.5"
       fy="972.36218"
       fx="80"
       cy="972.36218"
       cx="80"
       gradientUnits="userSpaceOnUse"
       id="radialGradient3081"
       xlink:href="#linearGradient7110-7"
       inkscape:collect="always" />
    <radialGradient
       inkscape:collect="always"
       xlink:href="#linearGradient4216-4-8-2-4"
       id="radialGradient4275"
       gradientUnits="userSpaceOnUse"
       gradientTransform="translate(332,-613.25)"
       cx="64"
       cy="1020.3622"
       fx="64"
       fy="1020.3622"
       r="52" />
    <radialGradient
       inkscape:collect="always"
       xlink:href="#linearGradient7110-7"
       id="radialGradient4277"
       gradientUnits="userSpaceOnUse"
       gradientTransform="translate(332,-615.25)"
       cx="80"
       cy="972.36218"
       fx="80"
       fy="972.36218"
       r="52.5" />
    <radialGradient
       inkscape:collect="always"
       xlink:href="#linearGradient7110-7"
       id="radialGradient4279"
       gradientUnits="userSpaceOnUse"
       gradientTransform="translate(332,-615.25)"
       cx="80"
       cy="972.36218"
       fx="80"
       fy="972.36218"
       r="52.5" />
    <radialGradient
       inkscape:collect="always"
       xlink:href="#linearGradient8794-33-6"
       id="radialGradient4281"
       gradientUnits="userSpaceOnUse"
       gradientTransform="matrix(1,0,0,1.0439987,332,-658.6487)"
       cx="64"
       cy="986.36218"
       fx="64"
       fy="986.36218"
       r="34.483002" />
    <radialGradient
       inkscape:collect="always"
       xlink:href="#linearGradient6964-4-3"
       id="radialGradient3100"
       gradientUnits="userSpaceOnUse"
       gradientTransform="matrix(1.8593725,-9.8930481e-7,9.8930439e-7,1.8593717,408.31519,-1483.9171)"
       cx="76"
       cy="976.57489"
       fx="76"
       fy="976.57489"
       r="35.234001" />
    <linearGradient
       id="linearGradient6964-4-3">
      <stop
         style="stop-color:#ffffff;stop-opacity:1;"
         offset="0"
         id="stop6966-4-3" />
      <stop
         style="stop-color:#cacaca;stop-opacity:1;"
         offset="1"
         id="stop6970-3-7" />
    </linearGradient>
    <filter
       color-interpolation-filters="sRGB"
       inkscape:collect="always"
       id="filter3873"
       x="-0.12753037"
       width="1.2550607"
       y="-0.11330935"
       height="1.2266186">
      <feGaussianBlur
         inkscape:collect="always"
         stdDeviation="3.28125"
         id="feGaussianBlur3875" />
    </filter>
    <radialGradient
       gradientTransform="translate(457,-631.25)"
       inkscape:collect="always"
       xlink:href="#linearGradient7110-31"
       id="radialGradient7116-8"
       cx="80"
       cy="972.36218"
       fx="80"
       fy="972.36218"
       r="52.5"
       gradientUnits="userSpaceOnUse" />
    <linearGradient
       id="linearGradient7110-31">
      <stop
         style="stop-color:#5a5a5a;stop-opacity:1;"
         offset="0"
         id="stop7112-54" />
      <stop
         style="stop-color:#202020;stop-opacity:1;"
         offset="1"
         id="stop7114-6" />
    </linearGradient>
    <radialGradient
       inkscape:collect="always"
       xlink:href="#linearGradient7110-31"
       id="radialGradient3066"
       cx="80"
       cy="972.36218"
       fx="80"
       fy="972.36218"
       r="52.5"
       gradientUnits="userSpaceOnUse" />
    <linearGradient
       id="linearGradient3068">
      <stop
         style="stop-color:#5a5a5a;stop-opacity:1;"
         offset="0"
         id="stop3070" />
      <stop
         style="stop-color:#202020;stop-opacity:1;"
         offset="1"
         id="stop3072" />
    </linearGradient>
    <radialGradient
       inkscape:collect="always"
       xlink:href="#linearGradient4216-4-8-2-0"
       id="radialGradient5899-6"
       gradientUnits="userSpaceOnUse"
       gradientTransform="translate(457,-629.25)"
       cx="64"
       cy="1020.3622"
       fx="64"
       fy="1020.3622"
       r="52" />
    <linearGradient
       id="linearGradient4216-4-8-2-0">
      <stop
         id="stop4218-8-0-7-53"
         offset="0"
         style="stop-color:#494949;stop-opacity:1;" />
      <stop
         id="stop4220-1-6-4-8"
         offset="1"
         style="stop-color:#0f0f0f;stop-opacity:1;" />
    </linearGradient>
    <radialGradient
       gradientTransform="translate(457,-631.25)"
       r="52.5"
       fy="972.36218"
       fx="80"
       cy="972.36218"
       cx="80"
       gradientUnits="userSpaceOnUse"
       id="radialGradient3086"
       xlink:href="#linearGradient7110-31"
       inkscape:collect="always" />
    <radialGradient
       inkscape:collect="always"
       xlink:href="#linearGradient4216-4-8-2-0"
       id="radialGradient4352"
       gradientUnits="userSpaceOnUse"
       gradientTransform="translate(457,-629.25)"
       cx="64"
       cy="1020.3622"
       fx="64"
       fy="1020.3622"
       r="52" />
    <radialGradient
       inkscape:collect="always"
       xlink:href="#linearGradient7110-31"
       id="radialGradient4354"
       gradientUnits="userSpaceOnUse"
       gradientTransform="translate(457,-631.25)"
       cx="80"
       cy="972.36218"
       fx="80"
       fy="972.36218"
       r="52.5" />
    <radialGradient
       inkscape:collect="always"
       xlink:href="#linearGradient7110-31"
       id="radialGradient4356"
       gradientUnits="userSpaceOnUse"
       gradientTransform="translate(457,-631.25)"
       cx="80"
       cy="972.36218"
       fx="80"
       fy="972.36218"
       r="52.5" />
    <radialGradient
       inkscape:collect="always"
       xlink:href="#linearGradient6964-4-3"
       id="radialGradient4358"
       gradientUnits="userSpaceOnUse"
       gradientTransform="matrix(1.8593725,-9.8930481e-7,9.8930439e-7,1.8593717,408.31519,-1483.9171)"
       cx="76"
       cy="976.57489"
       fx="76"
       fy="976.57489"
       r="35.234001" />
    <radialGradient
       inkscape:collect="always"
       xlink:href="#linearGradient4068"
       id="radialGradient4066"
       cx="400"
       cy="112.5625"
       fx="400"
       fy="112.5625"
       r="239.03125"
       gradientTransform="matrix(0.60948906,0.00721484,-0.00485327,0.40999018,156.75067,63.527046)"
       gradientUnits="userSpaceOnUse" />
  </defs>
  <sodipodi:namedview
     id="base"
     pagecolor="#ffffff"
     bordercolor="#666666"
     borderopacity="1.0"
     inkscape:pageopacity="0.0"
     inkscape:pageshadow="2"
     inkscape:zoom="0.70710678"
     inkscape:cx="564.06828"
     inkscape:cy="319.42355"
     inkscape:document-units="px"
     inkscape:current-layer="layer1"
     showgrid="false"
     inkscape:window-width="1221"
     inkscape:window-height="1000"
     inkscape:window-x="59"
     inkscape:window-y="24"
     inkscape:window-maximized="1" />
  <metadata
     id="metadata7">
    <rdf:RDF>
      <cc:Work
         rdf:about="">
        <dc:format>image/svg+xml</dc:format>
        <dc:type
           rdf:resource="http://purl.org/dc/dcmitype/StillImage" />
        <dc:title />
      </cc:Work>
    </rdf:RDF>
  </metadata>
  <g
     inkscape:label="Ebene 1"
     inkscape:groupmode="layer"
     id="layer1"
     transform="translate(0,-452.36218)">
    <rect
       style="fill:url(#radialGradient3761);fill-opacity:1;stroke:none"
       id="rect2985"
       width="800.01294"
       height="600.03235"
       x="0"
       y="-0.03061194"
       transform="translate(0,452.36218)"
       rx="4.5902016e-07" />
    <g
       id="g3824"
       transform="translate(-3,-8.0000026)">
      <rect
         style="opacity:0.1;fill:#000000;fill-opacity:1;stroke:#000000;stroke-width:10;stroke-miterlimit:4;stroke-dasharray:none"
         id="rect6981"
         width="104"
         height="104"
         x="351"
         y="709.11218"
         rx="8"
         ry="8" />
      <rect
         ry="8"
         rx="8"
         y="709.11218"
         x="351"
         height="104"
         width="104"
         id="rect6979"
         style="opacity:0.1;fill:#000000;fill-opacity:1;stroke:#000000;stroke-width:6;stroke-miterlimit:4;stroke-dasharray:none" />
      <rect
         style="opacity:0.2;fill:#000000;fill-opacity:1;stroke:#000000;stroke-width:3;stroke-miterlimit:4;stroke-dasharray:none"
         id="rect5969"
         width="104"
         height="104"
         x="351"
         y="707.11218"
         rx="8"
         ry="8" />
      <rect
         ry="8"
         rx="8"
         y="707.11218"
         x="351"
         height="104"
         width="104"
         id="rect6936"
         style="fill:url(#radialGradient3835);fill-opacity:1;stroke:#1a1a1a" />
      <rect
         style="fill:url(#radialGradient3837);fill-opacity:1;stroke:#1a1a1a"
         id="rect6964"
         width="104"
         height="104"
         x="351"
         y="703.11218"
         rx="8"
         ry="8" />
      <rect
         ry="8"
         rx="8"
         y="703.11218"
         x="351"
         height="104"
         width="104"
         id="rect12711"
         style="fill:url(#radialGradient3839);fill-opacity:1;stroke:#1a1a1a" />
      <g
         id="g3912"
         transform="translate(339,-231.25)">
        <path
           inkscape:connector-curvature="0"
           style="fill:#000000;fill-opacity:1;stroke:none;filter:url(#filter3908)"
           d="m 64,950.36218 -36,36 0,18.00002 9,-9.00002 0,-4.5 27,-27 27,27 0,4.5 9,9.00002 0,-18.00002 -36,-36 z m 0,18 -22.5,22.5 0,4.5 -4.5,4.5 -9,9.00002 0,13.5 9,-9 0,-4.5 27,-27.00002 27,27.00002 0,4.5 9,9 0,-13.5 -9,-9.00002 -4.5,-4.5 0,-4.5 -22.5,-22.5 z m 0,27 -18,18.00002 0,4.5 -4.5,4.5 13.5,0 9,-9 9,9 13.5,0 -4.5,-4.5 0,-4.5 -18,-18.00002 z"
           id="path3906" />
        <path
           id="path3902"
           d="m 64,950.36218 -36,36 0,18.00002 9,-9.00002 0,-4.5 27,-27 27,27 0,4.5 9,9.00002 0,-18.00002 -36,-36 z m 0,18 -22.5,22.5 0,4.5 -4.5,4.5 -9,9.00002 0,13.5 9,-9 0,-4.5 27,-27.00002 27,27.00002 0,4.5 9,9 0,-13.5 -9,-9.00002 -4.5,-4.5 0,-4.5 -22.5,-22.5 z m 0,27 -18,18.00002 0,4.5 -4.5,4.5 13.5,0 9,-9 9,9 13.5,0 -4.5,-4.5 0,-4.5 -18,-18.00002 z"
           style="fill:url(#radialGradient3841);fill-opacity:1;stroke:#ffffff;stroke-width:2;stroke-miterlimit:4;stroke-opacity:0.31372549;stroke-dasharray:none"
           inkscape:connector-curvature="0" />
      </g>
    </g>
    <g
       id="g3904"
       transform="matrix(0.5614026,0,0,0.5614026,-388.63954,652.5453)">
      <rect
         style="opacity:0.1;fill:#000000;fill-opacity:1;stroke:#000000;stroke-width:10;stroke-miterlimit:4;stroke-dasharray:none"
         id="rect6981-3"
         width="104"
         height="104"
         x="846"
         y="472.11218"
         rx="8"
         ry="8" />
      <rect
         ry="8"
         rx="8"
         y="472.11218"
         x="846"
         height="104"
         width="104"
         id="rect6979-7"
         style="opacity:0.1;fill:#000000;fill-opacity:1;stroke:#000000;stroke-width:6;stroke-miterlimit:4;stroke-dasharray:none" />
      <rect
         style="opacity:0.2;fill:#000000;fill-opacity:1;stroke:#000000;stroke-width:3;stroke-miterlimit:4;stroke-dasharray:none"
         id="rect5969-8"
         width="104"
         height="104"
         x="846"
         y="470.11218"
         rx="8"
         ry="8" />
      <rect
         ry="8"
         rx="8"
         y="470.11218"
         x="846"
         height="104"
         width="104"
         id="rect6936-6"
         style="fill:url(#radialGradient3915);fill-opacity:1;stroke:#1a1a1a" />
      <rect
         style="fill:url(#radialGradient3917);fill-opacity:1;stroke:#1a1a1a"
         id="rect6964-2"
         width="104"
         height="104"
         x="846"
         y="466.11218"
         rx="8"
         ry="8" />
      <rect
         ry="8"
         rx="8"
         y="466.11218"
         x="846"
         height="104"
         width="104"
         id="rect12711-9"
         style="fill:url(#radialGradient3919);fill-opacity:1;stroke:#1a1a1a" />
      <g
         id="g6052"
         transform="translate(834,-468.25)">
        <path
           inkscape:connector-curvature="0"
           style="fill:#000000;fill-opacity:1;stroke:none;filter:url(#filter6040)"
           d="m 64,967.23718 c -12.375,0 -24.75,6.75 -36,20.25 6.41084,-3.8465 13.17605,-6.5017 20.10937,-8.1563 -1.25973,2.4585 -2.10937,5.204 -2.10937,8.1563 0,9.9411 8.05887,18.00002 18,18.00002 9.94113,0 18,-8.05892 18,-18.00002 0,-2.9523 -0.84965,-5.6978 -2.10938,-8.1563 6.93333,1.6546 13.69854,4.3098 20.10938,8.1563 -11.25,-13.5 -23.625,-20.25 -36,-20.25 z m 6.04687,10.4062 c 1.16568,0.1038 2.35418,0.1173 3.51563,0.2813 2.443,2.443 3.9375,5.8346 3.9375,9.5625 0,7.4558 -6.04418,13.50002 -13.5,13.50002 -7.45583,0 -13.5,-6.04422 -13.5,-13.50002 0,-0.4417 0.0991,-0.8348 0.14062,-1.2656 0.51089,5.7398 5.2367,10.2656 11.10938,10.2656 6.21319,0 11.25,-5.0368 11.25,-11.25 0,-2.9364 -1.10421,-5.6144 -2.95313,-7.5938 z M 64,982.98718 c 2.48526,0 4.5,2.0147 4.5,4.5 0,2.4852 -2.01474,4.5 -4.5,4.5 -2.48526,0 -4.5,-2.0148 -4.5,-4.5 0,-2.4853 2.01474,-4.5 4.5,-4.5 z"
           id="path6038" />
        <path
           id="path6034"
           d="m 64,967.23718 c -12.375,0 -24.75,6.75 -36,20.25 6.41084,-3.8465 13.17605,-6.5017 20.10937,-8.1563 -1.25973,2.4585 -2.10937,5.204 -2.10937,8.1563 0,9.9411 8.05887,18.00002 18,18.00002 9.94113,0 18,-8.05892 18,-18.00002 0,-2.9523 -0.84965,-5.6978 -2.10938,-8.1563 6.93333,1.6546 13.69854,4.3098 20.10938,8.1563 -11.25,-13.5 -23.625,-20.25 -36,-20.25 z m 6.04687,10.4062 c 1.16568,0.1038 2.35418,0.1173 3.51563,0.2813 2.443,2.443 3.9375,5.8346 3.9375,9.5625 0,7.4558 -6.04418,13.50002 -13.5,13.50002 -7.45583,0 -13.5,-6.04422 -13.5,-13.50002 0,-0.4417 0.0991,-0.8348 0.14062,-1.2656 0.51089,5.7398 5.2367,10.2656 11.10938,10.2656 6.21319,0 11.25,-5.0368 11.25,-11.25 0,-2.9364 -1.10421,-5.6144 -2.95313,-7.5938 z M 64,982.98718 c 2.48526,0 4.5,2.0147 4.5,4.5 0,2.4852 -2.01474,4.5 -4.5,4.5 -2.48526,0 -4.5,-2.0148 -4.5,-4.5 0,-2.4853 2.01474,-4.5 4.5,-4.5 z"
           style="fill:url(#radialGradient3921);fill-opacity:1;stroke:#ffffff;stroke-width:2;stroke-miterlimit:4;stroke-opacity:0.31372549;stroke-dasharray:none"
           inkscape:connector-curvature="0" />
      </g>
    </g>
    <g
       id="g3984"
       transform="matrix(0.5614026,0,0,0.5614026,-155.13976,746.86093)">
      <rect
         style="opacity:0.1;fill:#000000;fill-opacity:1;stroke:#000000;stroke-width:10;stroke-miterlimit:4;stroke-dasharray:none"
         id="rect6981-0"
         width="104"
         height="104"
         x="599"
         y="304.11218"
         rx="8"
         ry="8" />
      <rect
         ry="8"
         rx="8"
         y="304.11218"
         x="599"
         height="104"
         width="104"
         id="rect6979-2"
         style="opacity:0.1;fill:#000000;fill-opacity:1;stroke:#000000;stroke-width:6;stroke-miterlimit:4;stroke-dasharray:none" />
      <rect
         style="opacity:0.2;fill:#000000;fill-opacity:1;stroke:#000000;stroke-width:3;stroke-miterlimit:4;stroke-dasharray:none"
         id="rect5969-3"
         width="104"
         height="104"
         x="599"
         y="302.11218"
         rx="8"
         ry="8" />
      <rect
         ry="8"
         rx="8"
         y="302.11218"
         x="599"
         height="104"
         width="104"
         id="rect6936-2"
         style="fill:url(#radialGradient3994);fill-opacity:1;stroke:#1a1a1a" />
      <rect
         style="fill:url(#radialGradient3996);fill-opacity:1;stroke:#1a1a1a"
         id="rect6964-1"
         width="104"
         height="104"
         x="599"
         y="298.11218"
         rx="8"
         ry="8" />
      <rect
         ry="8"
         rx="8"
         y="298.11218"
         x="599"
         height="104"
         width="104"
         id="rect12711-93"
         style="fill:url(#radialGradient3998);fill-opacity:1;stroke:#1a1a1a" />
      <path
         style="fill:#000000;fill-opacity:1;stroke:none;filter:url(#filter10104)"
         d="m 615.00019,381.5255 c 4.16991,4.1699 20.08456,-4.9038 36.72175,-20.53182 l 0.0879,0.07 2.77742,-2.7774 2.97079,2.9708 c -0.31789,4.56372 1.98492,10.17652 6.52167,14.71332 6.77595,6.776 15.92665,8.5955 20.44394,4.0782 4.51734,-4.5173 2.68008,-13.668 -4.09582,-20.44392 -4.53675,-4.5368 -10.13198,-6.8396 -14.69573,-6.5217 l -2.97079,-2.9708 2.97079,-2.9707 c 4.56375,0.3178 10.15898,-1.985 14.69573,-6.5217 6.7759,-6.776 8.61316,-15.9267 4.09582,-20.444 -4.51729,-4.5173 -13.66799,-2.6977 -20.44394,4.0783 -4.53675,4.5367 -6.83956,10.1496 -6.52167,14.7133 l -2.97079,2.9708 -2.77742,-2.7774 -0.0879,0.07 c -16.63719,-15.6281 -32.55184,-24.7018 -36.72175,-20.5319 l 28.63559,28.6356 2.77742,2.7774 -2.77742,2.7774 -28.63559,28.63562 z m 36.00103,-31.41302 c 0,-2.4854 2.01478,-4.5001 4.50013,-4.5001 2.48535,0 4.50013,2.0147 4.50013,4.5001 0,2.4854 -2.01478,4.5001 -4.50013,4.5001 -0.31067,0 -0.62114,-0.028 -0.91409,-0.088 -0.14647,-0.03 -0.28098,-0.079 -0.42189,-0.1231 -1.83186,-0.5698 -3.16415,-2.2698 -3.16415,-4.2892 z m 12.11167,12.4281 c -0.0501,-1.209 0.26099,-2.2298 0.96683,-2.9356 2.25867,-2.2586 7.75254,-0.4215 12.26988,4.0958 4.51728,4.51732 6.33691,10.01122 4.07824,12.26992 -2.25867,2.2586 -7.75254,0.4214 -12.26988,-4.0959 -3.10564,-3.1056 -4.93483,-6.6743 -5.04507,-9.33422 z m 0,-24.4167 c -0.005,-0.145 -0.006,-0.2884 0,-0.4394 0.11024,-2.66 1.93943,-6.2287 5.04507,-9.3343 4.51734,-4.5173 10.01121,-6.3545 12.26988,-4.0958 2.25867,2.2586 0.43904,7.7525 -4.07824,12.2699 -4.51734,4.5172 -10.01121,6.3544 -12.26988,4.0958 -0.61761,-0.6176 -0.9312,-1.4812 -0.96683,-2.4962 z"
         id="path10102"
         inkscape:connector-curvature="0" />
      <path
         inkscape:connector-curvature="0"
         id="path7046"
         d="m 615.00019,381.5255 c 4.16991,4.1699 20.08456,-4.9038 36.72175,-20.53182 l 0.0879,0.07 2.77742,-2.7774 2.97079,2.9708 c -0.31789,4.56372 1.98492,10.17652 6.52167,14.71332 6.77595,6.776 15.92665,8.5955 20.44394,4.0782 4.51734,-4.5173 2.68008,-13.668 -4.09582,-20.44392 -4.53675,-4.5368 -10.13198,-6.8396 -14.69573,-6.5217 l -2.97079,-2.9708 2.97079,-2.9707 c 4.56375,0.3178 10.15898,-1.985 14.69573,-6.5217 6.7759,-6.776 8.61316,-15.9267 4.09582,-20.444 -4.51729,-4.5173 -13.66799,-2.6977 -20.44394,4.0783 -4.53675,4.5367 -6.83956,10.1496 -6.52167,14.7133 l -2.97079,2.9708 -2.77742,-2.7774 -0.0879,0.07 c -16.63719,-15.6281 -32.55184,-24.7018 -36.72175,-20.5319 l 28.63559,28.6356 2.77742,2.7774 -2.77742,2.7774 -28.63559,28.63562 z m 36.00103,-31.41302 c 0,-2.4854 2.01478,-4.5001 4.50013,-4.5001 2.48535,0 4.50013,2.0147 4.50013,4.5001 0,2.4854 -2.01478,4.5001 -4.50013,4.5001 -0.31067,0 -0.62114,-0.028 -0.91409,-0.088 -0.14647,-0.03 -0.28098,-0.079 -0.42189,-0.1231 -1.83186,-0.5698 -3.16415,-2.2698 -3.16415,-4.2892 z m 12.11167,12.4281 c -0.0501,-1.209 0.26099,-2.2298 0.96683,-2.9356 2.25867,-2.2586 7.75254,-0.4215 12.26988,4.0958 4.51728,4.51732 6.33691,10.01122 4.07824,12.26992 -2.25867,2.2586 -7.75254,0.4214 -12.26988,-4.0959 -3.10564,-3.1056 -4.93483,-6.6743 -5.04507,-9.33422 z m 0,-24.4167 c -0.005,-0.145 -0.006,-0.2884 0,-0.4394 0.11024,-2.66 1.93943,-6.2287 5.04507,-9.3343 4.51734,-4.5173 10.01121,-6.3545 12.26988,-4.0958 2.25867,2.2586 0.43904,7.7525 -4.07824,12.2699 -4.51734,4.5172 -10.01121,6.3544 -12.26988,4.0958 -0.61761,-0.6176 -0.9312,-1.4812 -0.96683,-2.4962 z"
         style="fill:url(#radialGradient4000);fill-opacity:1;stroke:#ffffff;stroke-width:2;stroke-miterlimit:4;stroke-opacity:0.31372549;stroke-dasharray:none" />
    </g>
    <g
       id="g4049"
       transform="matrix(0.5614026,0,0,0.5614026,30.079387,703.07153)">
      <rect
         style="opacity:0.1;fill:#000000;fill-opacity:1;stroke:#000000;stroke-width:10;stroke-miterlimit:4;stroke-dasharray:none"
         id="rect6981-5"
         width="104"
         height="104"
         x="438"
         y="382.11218"
         rx="8"
         ry="8" />
      <rect
         ry="8"
         rx="8"
         y="382.11218"
         x="438"
         height="104"
         width="104"
         id="rect6979-0"
         style="opacity:0.1;fill:#000000;fill-opacity:1;stroke:#000000;stroke-width:6;stroke-miterlimit:4;stroke-dasharray:none" />
      <rect
         style="opacity:0.2;fill:#000000;fill-opacity:1;stroke:#000000;stroke-width:3;stroke-miterlimit:4;stroke-dasharray:none"
         id="rect5969-6"
         width="104"
         height="104"
         x="438"
         y="380.11218"
         rx="8"
         ry="8" />
      <rect
         ry="8"
         rx="8"
         y="380.11218"
         x="438"
         height="104"
         width="104"
         id="rect6936-21"
         style="fill:url(#radialGradient4058);fill-opacity:1;stroke:#1a1a1a" />
      <rect
         style="fill:url(#radialGradient4060);fill-opacity:1;stroke:#1a1a1a"
         id="rect6964-18"
         width="104"
         height="104"
         x="438"
         y="376.11218"
         rx="8"
         ry="8" />
      <path
         inkscape:connector-curvature="0"
         style="color:#000000;fill:#000000;fill-opacity:1;fill-rule:nonzero;stroke:none;stroke-width:2;marker:none;visibility:visible;display:inline;overflow:visible;filter:url(#filter7305);enable-background:accumulate"
         d="m 474.39062,392.11219 0,1.2654 0,2.95335 c -1.61763,0.5013 -2.94239,1.1142 -3.65625,1.8279 l 0,15.6096 -4.78125,0 -7.17188,0 c -2.6592,0 -4.78125,2.1222 -4.78125,4.78126 l 0,19.125 0,12.0938 c 0,2.659 2.12205,4.7812 4.78125,4.7812 0,0.6647 0.60082,1.125 1.26563,1.125 l 4.78125,0 c 0.6648,0 1.125,-0.4603 1.125,-1.125 l 2.39062,0 0,2.3904 0,2.3909 c 0,1.3297 1.06103,2.3904 2.39063,2.3904 l 3.65625,0 0,1.125 0,1.2658 31.21876,0 0,-2.3908 3.65625,0 c 1.3296,0 2.39062,-1.0607 2.39062,-2.3904 l 0,-4.7813 2.39063,0 c 0,0.6647 0.4602,1.125 1.125,1.125 l 4.78125,0 c 0.6648,0 1.26562,-0.4603 1.26562,-1.125 2.65921,0 4.78126,-2.1222 4.78126,-4.7812 l 0,-19.2659 0,-11.9529 c 0,-2.65906 -2.12205,-4.78126 -4.78126,-4.78126 l -9.5625,0 -2.39062,0 0,-15.6096 c -0.71386,-0.7137 -2.03862,-1.3266 -3.65625,-1.8279 l 0,-2.95335 0,-1.2654 -31.21876,0 z m 0.98438,2.25 29.25,0 0,28.96876 -29.25,0 0,-28.96876 z m 36,29.25001 c 1.86397,0 3.375,1.5111 3.375,3.375 0,1.8639 -1.51103,3.375 -3.375,3.375 -1.86396,0 -3.375,-1.5111 -3.375,-3.375 0,-1.8639 1.51104,-3.375 3.375,-3.375 z m 9,0 c 1.86397,0 3.375,1.5111 3.375,3.375 0,1.8639 -1.51103,3.375 -3.375,3.375 -1.86396,0 -3.375,-1.5111 -3.375,-3.375 0,-1.8639 1.51104,-3.375 3.375,-3.375 z m -45,23.625 29.25,0 0,13.3592 -29.25,0 0,-13.3592 z"
         id="path7303" />
      <path
         id="path3162"
         d="m 474.39062,392.11219 0,1.2654 0,2.95335 c -1.61763,0.5013 -2.94239,1.1142 -3.65625,1.8279 l 0,15.6096 -4.78125,0 -7.17188,0 c -2.6592,0 -4.78125,2.1222 -4.78125,4.78126 l 0,19.125 0,12.0938 c 0,2.659 2.12205,4.7812 4.78125,4.7812 0,0.6647 0.60082,1.125 1.26563,1.125 l 4.78125,0 c 0.6648,0 1.125,-0.4603 1.125,-1.125 l 2.39062,0 0,2.3904 0,2.3909 c 0,1.3297 1.06103,2.3904 2.39063,2.3904 l 3.65625,0 0,1.125 0,1.2658 31.21876,0 0,-2.3908 3.65625,0 c 1.3296,0 2.39062,-1.0607 2.39062,-2.3904 l 0,-4.7813 2.39063,0 c 0,0.6647 0.4602,1.125 1.125,1.125 l 4.78125,0 c 0.6648,0 1.26562,-0.4603 1.26562,-1.125 2.65921,0 4.78126,-2.1222 4.78126,-4.7812 l 0,-19.2659 0,-11.9529 c 0,-2.65906 -2.12205,-4.78126 -4.78126,-4.78126 l -9.5625,0 -2.39062,0 0,-15.6096 c -0.71386,-0.7137 -2.03862,-1.3266 -3.65625,-1.8279 l 0,-2.95335 0,-1.2654 -31.21876,0 z m 0.98438,2.25 29.25,0 0,28.96876 -29.25,0 0,-28.96876 z m 36,29.25001 c 1.86397,0 3.375,1.5111 3.375,3.375 0,1.8639 -1.51103,3.375 -3.375,3.375 -1.86396,0 -3.375,-1.5111 -3.375,-3.375 0,-1.8639 1.51104,-3.375 3.375,-3.375 z m 9,0 c 1.86397,0 3.375,1.5111 3.375,3.375 0,1.8639 -1.51103,3.375 -3.375,3.375 -1.86396,0 -3.375,-1.5111 -3.375,-3.375 0,-1.8639 1.51104,-3.375 3.375,-3.375 z m -45,23.625 29.25,0 0,13.3592 -29.25,0 0,-13.3592 z"
         style="color:#000000;fill:url(#radialGradient4062);fill-opacity:1;fill-rule:nonzero;stroke:#ffffff;stroke-width:2;stroke-miterlimit:4;stroke-opacity:0.32352941;stroke-dasharray:none;marker:none;visibility:visible;display:inline;overflow:visible;enable-background:accumulate"
         inkscape:connector-curvature="0" />
    </g>
    <g
       id="g4123"
       transform="translate(3.0000003,582)">
      <rect
         style="opacity:0.1;fill:#000000;fill-opacity:1;stroke:#000000;stroke-width:5.61402607;stroke-miterlimit:4;stroke-dasharray:none"
         id="rect6981-08"
         width="58.385872"
         height="58.385872"
         x="367.80707"
         y="335.5903"
         rx="4.491221"
         ry="4.491221" />
      <rect
         ry="4.491221"
         rx="4.491221"
         y="335.5903"
         x="367.80707"
         height="58.385872"
         width="58.385872"
         id="rect6979-9"
         style="opacity:0.1;fill:#000000;fill-opacity:1;stroke:#000000;stroke-width:3.36841559;stroke-miterlimit:4;stroke-dasharray:none" />
      <rect
         style="opacity:0.2;fill:#000000;fill-opacity:1;stroke:#000000;stroke-width:1.6842078;stroke-miterlimit:4;stroke-dasharray:none"
         id="rect5969-0"
         width="58.385872"
         height="58.385872"
         x="367.80707"
         y="334.4675"
         rx="4.491221"
         ry="4.491221" />
      <rect
         ry="4.491221"
         rx="4.491221"
         y="334.4675"
         x="367.80707"
         height="58.385872"
         width="58.385872"
         id="rect6936-1"
         style="fill:url(#radialGradient4133);fill-opacity:1;stroke:#1a1a1a;stroke-width:0.56140262" />
      <rect
         style="fill:url(#radialGradient4135);fill-opacity:1;stroke:#1a1a1a;stroke-width:0.56140262"
         id="rect6964-23"
         width="58.385872"
         height="58.385872"
         x="367.80707"
         y="332.22189"
         rx="4.491221"
         ry="4.491221" />
      <rect
         ry="4.491221"
         rx="4.491221"
         y="332.22189"
         x="367.80707"
         height="58.385872"
         width="58.385872"
         id="rect12711-5"
         style="fill:url(#radialGradient4137);fill-opacity:1;stroke:#1a1a1a;stroke-width:0.56140262" />
      <path
         transform="matrix(0.5614026,0,0,0.5614026,174.12317,159.80831)"
         id="path10141"
         d="m 370,323.11218 -9,9 0,54.00002 9,9 54,0 -9,-9 -40.5,0 -4.5,-4.5 0,-45.00002 4.5,-4.5 45,0 4.5,4.5 0,31.5 -18,0 27,27.00002 0,-63.00002 -9,-9 -54,0 z m 22.5,13.5 0,18 -18,0 0,9 18,0 0,18.42192 9,-0.4219 0,-18.00002 18,0 0,-9 -18,0 0,-18 -9,0 z"
         style="fill:#000000;fill-opacity:1;stroke:none;filter:url(#filter10143)"
         inkscape:connector-curvature="0" />
      <path
         inkscape:connector-curvature="0"
         style="fill:url(#radialGradient4139);fill-opacity:1;stroke:#ffffff;stroke-width:1.12280524;stroke-miterlimit:4;stroke-opacity:0.31372549;stroke-dasharray:none"
         d="m 381.84213,341.20432 -5.05262,5.05263 0,30.31575 5.05262,5.05262 30.31574,0 -5.05262,-5.05262 -22.73681,0 -2.52631,-2.52631 0,-25.26313 2.52631,-2.52631 25.26312,0 2.52631,2.52631 0,17.68418 -10.10525,0 15.15787,15.15788 0,-35.36837 -5.05262,-5.05263 -30.31574,0 z m 12.63156,7.57894 0,10.10525 -10.10525,0 0,5.05262 10.10525,0 0,10.34211 5.05262,-0.23685 0,-10.10526 10.10525,0 0,-5.05262 -10.10525,0 0,-10.10525 -5.05262,0 z"
         id="path10137" />
    </g>
    <g
       id="g4190"
       transform="translate(136.83334,581)">
      <rect
         style="opacity:0.1;fill:#000000;fill-opacity:1;stroke:#000000;stroke-width:5.61402607;stroke-miterlimit:4;stroke-dasharray:none"
         id="rect6981-9"
         width="58.385872"
         height="58.385872"
         x="328.80707"
         y="336.5903"
         rx="4.491221"
         ry="4.491221" />
      <rect
         ry="4.491221"
         rx="4.491221"
         y="336.5903"
         x="328.80707"
         height="58.385872"
         width="58.385872"
         id="rect6979-5"
         style="opacity:0.1;fill:#000000;fill-opacity:1;stroke:#000000;stroke-width:3.36841559;stroke-miterlimit:4;stroke-dasharray:none" />
      <rect
         style="opacity:0.2;fill:#000000;fill-opacity:1;stroke:#000000;stroke-width:1.6842078;stroke-miterlimit:4;stroke-dasharray:none"
         id="rect5969-9"
         width="58.385872"
         height="58.385872"
         x="328.80707"
         y="335.4675"
         rx="4.491221"
         ry="4.491221" />
      <rect
         ry="4.491221"
         rx="4.491221"
         y="335.4675"
         x="328.80707"
         height="58.385872"
         width="58.385872"
         id="rect6936-3"
         style="fill:url(#radialGradient4200);fill-opacity:1;stroke:#1a1a1a;stroke-width:0.56140262" />
      <rect
         style="fill:url(#radialGradient4202);fill-opacity:1;stroke:#1a1a1a;stroke-width:0.56140262"
         id="rect6964-9"
         width="58.385872"
         height="58.385872"
         x="328.80707"
         y="333.22189"
         rx="4.491221"
         ry="4.491221" />
      <g
         transform="matrix(0,-0.5614026,0.5614026,0,-195.74629,398.34459)"
         id="g6740">
        <path
           inkscape:connector-curvature="0"
           style="fill:#000000;fill-opacity:1;stroke:none;filter:url(#filter6736)"
           d="m 64,950.36218 c -19.88226,0 -36,16.1176 -36,36 0,19.88232 16.11774,36.00002 36,36.00002 19.88222,0 36,-16.1177 36,-36.00002 0,-19.8824 -16.11778,-36 -36,-36 z m 0,4.5 c 10.69033,0 20.18034,5.3574 25.875,13.5 l -51.75,0 c 5.69466,-8.1426 15.18471,-13.5 25.875,-13.5 z m -26.4375,14.4844 14.20312,26.0156 24.46875,0 14.20313,-26.0156 c 3.18019,4.9199 5.0625,10.7214 5.0625,17.0156 0,17.39702 -14.103,31.50002 -31.5,31.50002 -17.39696,0 -31.5,-14.103 -31.5,-31.50002 0,-6.2942 1.88231,-12.0957 5.0625,-17.0156 z M 64,1017.8622 l 9.84375,-18.00002 -19.6875,0 L 64,1017.8622 z"
           id="path6734" />
        <path
           id="path6730"
           d="m 64,950.36218 c -19.88226,0 -36,16.1176 -36,36 0,19.88232 16.11774,36.00002 36,36.00002 19.88222,0 36,-16.1177 36,-36.00002 0,-19.8824 -16.11778,-36 -36,-36 z m 0,4.5 c 10.69033,0 20.18034,5.3574 25.875,13.5 l -51.75,0 c 5.69466,-8.1426 15.18471,-13.5 25.875,-13.5 z m -26.4375,14.4844 14.20312,26.0156 24.46875,0 14.20313,-26.0156 c 3.18019,4.9199 5.0625,10.7214 5.0625,17.0156 0,17.39702 -14.103,31.50002 -31.5,31.50002 -17.39696,0 -31.5,-14.103 -31.5,-31.50002 0,-6.2942 1.88231,-12.0957 5.0625,-17.0156 z M 64,1017.8622 l 9.84375,-18.00002 -19.6875,0 L 64,1017.8622 z"
           style="fill:url(#radialGradient4204);fill-opacity:1;stroke:#ffffff;stroke-width:2;stroke-linejoin:miter;stroke-miterlimit:4;stroke-opacity:0.31372549;stroke-dasharray:none"
           inkscape:connector-curvature="0" />
      </g>
    </g>
    <g
       id="g4265"
       transform="matrix(0.5614026,0,0,0.5614026,367.35126,735.07148)">
      <rect
         style="opacity:0.1;fill:#000000;fill-opacity:1;stroke:#000000;stroke-width:10;stroke-miterlimit:4;stroke-dasharray:none"
         id="rect6981-55"
         width="104"
         height="104"
         x="344"
         y="325.11218"
         rx="8"
         ry="8" />
      <rect
         ry="8"
         rx="8"
         y="325.11218"
         x="344"
         height="104"
         width="104"
         id="rect6979-1"
         style="opacity:0.1;fill:#000000;fill-opacity:1;stroke:#000000;stroke-width:6;stroke-miterlimit:4;stroke-dasharray:none" />
      <rect
         style="opacity:0.2;fill:#000000;fill-opacity:1;stroke:#000000;stroke-width:3;stroke-miterlimit:4;stroke-dasharray:none"
         id="rect5969-7"
         width="104"
         height="104"
         x="344"
         y="323.11218"
         rx="8"
         ry="8" />
      <rect
         ry="8"
         rx="8"
         y="323.11218"
         x="344"
         height="104"
         width="104"
         id="rect6936-8"
         style="fill:url(#radialGradient4275);fill-opacity:1;stroke:#1a1a1a" />
      <rect
         style="fill:url(#radialGradient4277);fill-opacity:1;stroke:#1a1a1a"
         id="rect6964-6"
         width="104"
         height="104"
         x="344"
         y="319.11218"
         rx="8"
         ry="8" />
      <rect
         ry="8"
         rx="8"
         y="319.11218"
         x="344"
         height="104"
         width="104"
         id="rect12711-8"
         style="fill:url(#radialGradient4279);fill-opacity:1;stroke:#1a1a1a" />
      <path
         id="path4652"
         d="m 376.29543,335.11198 -9.85229,9.8522 54.18757,49.26152 9.85229,0 0,-9.85232 -54.18757,-49.2614 z M 430.483,394.2257 c -39.54215,3.5279 -57.85371,14.4986 -68.966,0 16.59884,28.1989 57.41415,1.5597 68.966,0 z"
         style="fill:#000000;fill-opacity:1;stroke:none;filter:url(#filter4654)"
         inkscape:connector-curvature="0" />
      <path
         inkscape:connector-curvature="0"
         style="fill:url(#radialGradient4281);fill-opacity:1;stroke:#ffffff;stroke-width:2;stroke-linejoin:round;stroke-miterlimit:4;stroke-opacity:0.31372549;stroke-dasharray:none"
         d="m 376.29543,335.11198 -9.85229,9.8522 54.18757,49.26152 9.85229,0 0,-9.85232 -54.18757,-49.2614 z M 430.483,394.2257 c -39.54215,3.5279 -57.85371,14.4986 -68.966,0 16.59884,28.1989 57.41415,1.5597 68.966,0 z"
         id="path4642" />
    </g>
    <g
       id="g4342"
       transform="matrix(0.5614026,0,0,0.5614026,392.00925,744.05392)">
      <rect
         style="opacity:0.1;fill:#000000;fill-opacity:1;stroke:#000000;stroke-width:10;stroke-miterlimit:4;stroke-dasharray:none"
         id="rect6981-4"
         width="104"
         height="104"
         x="469"
         y="309.11218"
         rx="8"
         ry="8" />
      <rect
         ry="8"
         rx="8"
         y="309.11218"
         x="469"
         height="104"
         width="104"
         id="rect6979-8"
         style="opacity:0.1;fill:#000000;fill-opacity:1;stroke:#000000;stroke-width:6;stroke-miterlimit:4;stroke-dasharray:none" />
      <rect
         style="opacity:0.2;fill:#000000;fill-opacity:1;stroke:#000000;stroke-width:3;stroke-miterlimit:4;stroke-dasharray:none"
         id="rect5969-5"
         width="104"
         height="104"
         x="469"
         y="307.11218"
         rx="8"
         ry="8" />
      <rect
         ry="8"
         rx="8"
         y="307.11218"
         x="469"
         height="104"
         width="104"
         id="rect6936-32"
         style="fill:url(#radialGradient4352);fill-opacity:1;stroke:#1a1a1a" />
      <rect
         style="fill:url(#radialGradient4354);fill-opacity:1;stroke:#1a1a1a"
         id="rect6964-12"
         width="104"
         height="104"
         x="469"
         y="303.11218"
         rx="8"
         ry="8" />
      <rect
         ry="8"
         rx="8"
         y="303.11218"
         x="469"
         height="104"
         width="104"
         id="rect12711-83"
         style="fill:url(#radialGradient4356);fill-opacity:1;stroke:#1a1a1a" />
      <path
         style="fill:#000000;fill-opacity:1;stroke:none;filter:url(#filter3873)"
         d="m 493.96875,320.36218 c -2.13845,0 -3.84375,1.73655 -3.84375,3.875 l 0,61.75 c 0,2.1385 1.7053,3.875 3.84375,3.875 l 50.1875,0 c 2.13845,0 3.875,-1.7365 3.875,-3.875 l 0,-34.75 c 2.13845,0 3.84375,-1.70531 3.84375,-3.84375 l 0,-15.4375 c 0,-2.13844 -1.7053,-3.875 -3.84375,-3.875 l 0,-3.84375 c 0,-2.13845 -1.73655,-3.875 -3.875,-3.875 l -50.1875,0 z M 519,342.51843 c 1.7445,0 3.15625,1.41175 3.15625,3.15625 l 0,6.28125 6.28125,0 c 1.74449,0 3.15625,1.41175 3.15625,3.15625 0,1.7445 -1.41176,3.15625 -3.15625,3.15625 l -6.28125,0 0,6.28125 c 0,1.74449 -1.41175,3.15625 -3.15625,3.15625 -1.74449,0 -3.15625,-1.41176 -3.15625,-3.15625 l 0,-6.28125 -6.28125,0 c -1.74449,0 -3.15625,-1.41175 -3.15625,-3.15625 0,-1.7445 1.41176,-3.15625 3.15625,-3.15625 l 6.28125,0 0,-6.28125 c 0,-1.7445 1.41176,-3.15625 3.15625,-3.15625 z"
         id="path3103"
         inkscape:connector-curvature="0" />
      <path
         id="path3908"
         d="m 493.96875,320.36218 c -2.13845,0 -3.84375,1.73655 -3.84375,3.875 l 0,61.75 c 0,2.1385 1.7053,3.875 3.84375,3.875 l 50.1875,0 c 2.13845,0 3.875,-1.7365 3.875,-3.875 l 0,-34.75 c 2.13845,0 3.84375,-1.70531 3.84375,-3.84375 l 0,-15.4375 c 0,-2.13844 -1.7053,-3.875 -3.84375,-3.875 l 0,-3.84375 c 0,-2.13845 -1.73655,-3.875 -3.875,-3.875 l -50.1875,0 z M 519,342.51843 c 1.7445,0 3.15625,1.41175 3.15625,3.15625 l 0,6.28125 6.28125,0 c 1.74449,0 3.15625,1.41175 3.15625,3.15625 0,1.7445 -1.41176,3.15625 -3.15625,3.15625 l -6.28125,0 0,6.28125 c 0,1.74449 -1.41175,3.15625 -3.15625,3.15625 -1.74449,0 -3.15625,-1.41176 -3.15625,-3.15625 l 0,-6.28125 -6.28125,0 c -1.74449,0 -3.15625,-1.41175 -3.15625,-3.15625 0,-1.7445 1.41176,-3.15625 3.15625,-3.15625 l 6.28125,0 0,-6.28125 c 0,-1.7445 1.41176,-3.15625 3.15625,-3.15625 z"
         style="fill:url(#radialGradient4358);fill-opacity:1;stroke:#ffffff;stroke-width:2.51973605;stroke-miterlimit:4;stroke-opacity:0.31372549;stroke-dasharray:none"
         inkscape:connector-curvature="0" />
    </g>
    <path
       style="font-size:42.31663131999999905px;font-style:normal;font-variant:normal;font-weight:normal;font-stretch:normal;line-height:125%;letter-spacing:0px;word-spacing:0px;fill:url(#radialGradient4066);fill-opacity:1.0;stroke:none;font-family:Ubuntu;-inkscape-font-specification:Ubuntu"
       d="M 223.96875 95.875 L 220.03125 96.53125 L 220.03125 122.9375 C 220.03124 125.02513 220.5469 126.57512 221.5625 127.5625 C 222.5781 128.54989 224.29259 129.0686 226.71875 129.125 L 227.28125 125.8125 C 226.6606 125.72787 226.14191 125.64409 225.71875 125.53125 C 225.29558 125.39019 224.9414 125.19141 224.6875 124.9375 C 224.4336 124.68361 224.23784 124.32943 224.125 123.90625 C 224.01213 123.48309 223.96874 122.96136 223.96875 122.3125 L 223.96875 95.875 z M 417.6875 95.875 L 413.78125 96.53125 L 413.78125 128.6875 L 417.6875 128.6875 L 417.6875 110.40625 C 417.82855 110.34985 418.06467 110.30345 418.375 110.21875 C 418.71353 110.13413 419.07378 110.0564 419.46875 110 C 419.8919 109.91539 420.32986 109.83765 420.78125 109.78125 C 421.23262 109.72485 421.67057 109.68752 422.09375 109.6875 C 423.13754 109.68752 424.01346 109.84291 424.71875 110.125 C 425.42401 110.37892 425.98307 110.81384 426.40625 111.40625 C 426.8294 111.9987 427.14322 112.75959 427.3125 113.71875 C 427.50992 114.67794 427.59373 115.83338 427.59375 117.1875 L 427.59375 128.6875 L 431.53125 128.6875 L 431.53125 116.34375 C 431.53122 114.84857 431.40709 113.49131 431.125 112.25 C 430.84287 111.00873 430.33025 109.93706 429.625 109.0625 C 428.94791 108.15976 428.03163 107.47961 426.875 107 C 425.71833 106.49222 424.28033 106.21878 422.53125 106.21875 C 421.71312 106.21878 420.87757 106.29951 420.03125 106.46875 C 419.21312 106.60983 418.42098 106.84291 417.6875 107.125 L 417.6875 95.875 z M 489.4375 95.875 L 485.5 96.53125 L 485.5 107.65625 C 485.0204 107.34595 484.29987 107.02605 483.3125 106.6875 C 482.35331 106.34898 481.23824 106.18752 479.96875 106.1875 C 478.38892 106.18752 476.99128 106.46705 475.75 107.03125 C 474.53692 107.59549 473.50257 108.39067 472.65625 109.40625 C 471.80991 110.42187 471.13888 111.62071 470.6875 113.03125 C 470.26433 114.44182 470.0625 115.99485 470.0625 117.6875 C 470.0625 119.46481 470.3047 121.09249 470.8125 122.53125 C 471.34851 123.9418 472.10332 125.13761 473.0625 126.125 C 474.02167 127.11239 475.17711 127.87024 476.53125 128.40625 C 477.88537 128.94226 479.40108 129.21875 481.09375 129.21875 C 482.92746 129.21875 484.55818 129.0664 485.96875 128.8125 C 487.37928 128.5586 488.53472 128.3164 489.4375 128.0625 L 489.4375 95.875 z M 538.625 95.875 L 534.6875 96.53125 L 534.6875 128.6875 L 538.625 128.6875 L 538.625 118.125 C 539.4149 118.66102 540.25044 119.30385 541.125 120.09375 C 541.99953 120.88367 542.84116 121.75958 543.6875 122.71875 C 544.53382 123.64972 545.33204 124.6437 546.09375 125.6875 C 546.88364 126.7031 547.59506 127.70012 548.1875 128.6875 L 552.78125 128.6875 C 552.217 127.70012 551.53685 126.65969 550.71875 125.53125 C 549.90061 124.3746 549.0247 123.22523 548.09375 122.125 C 547.19098 120.99656 546.27167 119.95918 545.3125 119 C 544.38152 118.04083 543.47132 117.24261 542.625 116.59375 C 543.35847 115.83206 544.15062 115.03385 544.96875 114.1875 C 545.81507 113.31297 546.65061 112.4401 547.46875 111.59375 C 548.28686 110.71923 549.08204 109.8776 549.84375 109.03125 C 550.60543 108.18494 551.28863 107.39279 551.9375 106.6875 L 547.34375 106.6875 C 546.83594 107.27995 546.23651 107.99136 545.53125 108.78125 C 544.82596 109.54297 544.07115 110.34118 543.28125 111.1875 C 542.49133 112.03385 541.69311 112.86939 540.875 113.6875 L 538.625 115.90625 L 538.625 95.875 z M 614.25 95.875 L 610.3125 96.53125 L 610.3125 107.65625 C 609.83289 107.34595 609.11238 107.02605 608.125 106.6875 C 607.16581 106.34898 606.05074 106.18752 604.78125 106.1875 C 603.20142 106.18752 601.77253 106.46705 600.53125 107.03125 C 599.31816 107.59549 598.28383 108.39067 597.4375 109.40625 C 596.59117 110.42187 595.95137 111.62071 595.5 113.03125 C 595.07683 114.44182 594.875 115.99485 594.875 117.6875 C 594.875 119.46481 595.1172 121.09249 595.625 122.53125 C 596.161 123.9418 596.91582 125.13761 597.875 126.125 C 598.83417 127.11239 599.98961 127.87024 601.34375 128.40625 C 602.69788 128.94226 604.21357 129.21875 605.90625 129.21875 C 607.73995 129.21875 609.37068 129.0664 610.78125 128.8125 C 612.19179 128.5586 613.34722 128.3164 614.25 128.0625 L 614.25 95.875 z M 587.28125 97.5625 C 586.57597 97.56253 585.97655 97.80169 585.46875 98.28125 C 584.98916 98.73265 584.75 99.33512 584.75 100.125 C 584.75 100.91494 584.98916 101.55168 585.46875 102.03125 C 585.97655 102.48265 586.57597 102.71878 587.28125 102.71875 C 587.98652 102.71878 588.5829 102.48265 589.0625 102.03125 C 589.57029 101.55168 589.84374 100.91494 589.84375 100.125 C 589.84374 99.33512 589.57029 98.73265 589.0625 98.28125 C 588.5829 97.80169 587.98652 97.56253 587.28125 97.5625 z M 349.25 99.875 L 345.3125 100.5625 L 345.3125 120.1875 C 345.31249 121.65448 345.43056 122.96531 345.65625 124.09375 C 345.91015 125.19399 346.34506 126.1133 346.9375 126.875 C 347.52993 127.6367 348.29082 128.23005 349.25 128.625 C 350.23738 128.99174 351.5048 129.15625 353 129.15625 C 354.26948 129.15625 355.3876 128.99783 356.375 128.6875 C 357.36237 128.40539 358.04253 128.16623 358.4375 127.96875 L 357.6875 124.71875 C 357.40538 124.8316 356.88973 125.0304 356.15625 125.3125 C 355.45096 125.56641 354.49735 125.68751 353.3125 125.6875 C 352.63542 125.68751 352.07029 125.60677 351.5625 125.4375 C 351.05469 125.26824 350.61978 124.98871 350.28125 124.59375 C 349.94271 124.17059 349.70051 123.61153 349.53125 122.90625 C 349.36195 122.17276 349.25 121.25649 349.25 120.15625 L 349.25 110 L 357.59375 110 L 357.59375 106.6875 L 349.25 106.6875 L 349.25 99.875 z M 400.4375 99.875 L 396.5 100.5625 L 396.5 120.1875 C 396.49999 121.65448 396.58681 122.96531 396.8125 124.09375 C 397.0664 125.19399 397.50131 126.1133 398.09375 126.875 C 398.68618 127.6367 399.47832 128.23005 400.4375 128.625 C 401.42488 128.99174 402.66105 129.15625 404.15625 129.15625 C 405.42573 129.15625 406.54385 128.99783 407.53125 128.6875 C 408.51862 128.40539 409.19878 128.16623 409.59375 127.96875 L 408.84375 124.71875 C 408.56163 124.8316 408.04597 125.0304 407.3125 125.3125 C 406.6072 125.56641 405.68485 125.68751 404.5 125.6875 C 403.82292 125.68751 403.22654 125.60677 402.71875 125.4375 C 402.21094 125.26824 401.77603 124.98871 401.4375 124.59375 C 401.09896 124.17059 400.85676 123.61153 400.6875 122.90625 C 400.5182 122.17276 400.4375 121.25649 400.4375 120.15625 L 400.4375 110 L 408.75 110 L 408.75 106.6875 L 400.4375 106.6875 L 400.4375 99.875 z M 205.28125 106.15625 C 204.01174 106.15627 202.77557 106.39544 201.5625 106.875 C 200.34941 107.35461 199.27471 108.07209 198.34375 109.03125 C 197.41278 109.99045 196.65797 111.18929 196.09375 112.65625 C 195.52953 114.09503 195.25 115.80344 195.25 117.75 C 195.25 119.41446 195.45183 120.9332 195.875 122.34375 C 196.32637 123.7261 197.00349 124.92191 197.90625 125.9375 C 198.809 126.9531 199.9614 127.78257 201.34375 128.375 C 202.75429 128.93922 204.42538 129.21875 206.34375 129.21875 C 207.86713 129.21875 209.22137 129.06336 210.40625 128.78125 C 211.61931 128.49914 212.45789 128.22265 212.9375 127.96875 L 212.40625 124.6875 C 211.92664 124.9132 211.17791 125.15235 210.21875 125.40625 C 209.28777 125.63194 208.13233 125.75 206.75 125.75 C 204.29563 125.75 202.50039 125.15362 201.34375 123.96875 C 200.18708 122.78389 199.51301 121.0351 199.34375 118.75 L 214.4375 118.75 C 214.4657 118.52432 214.46873 118.28516 214.46875 118.03125 C 214.46873 117.74915 214.46873 117.51302 214.46875 117.34375 C 214.46873 113.56348 213.67355 110.77124 212.09375 108.9375 C 210.51391 107.07559 208.2434 106.15627 205.28125 106.15625 z M 241 106.15625 C 239.39196 106.15627 237.91966 106.43884 236.59375 107.03125 C 235.29603 107.59549 234.21525 108.39371 233.3125 109.4375 C 232.40974 110.45311 231.69529 111.68321 231.1875 113.09375 C 230.70791 114.50432 230.46875 116.05734 230.46875 117.75 C 230.46875 119.44267 230.67362 120.9957 231.125 122.40625 C 231.57637 123.78859 232.25349 124.9844 233.15625 126 C 234.08721 127.0156 235.23657 127.81078 236.5625 128.375 C 237.91662 128.93922 239.47269 129.21875 241.25 129.21875 C 241.81421 129.21875 242.40755 129.17835 243 129.09375 C 243.62063 129.03733 244.18272 128.92535 244.71875 128.8125 C 245.25474 128.72787 245.73307 128.64409 246.15625 128.53125 C 246.5794 128.39019 246.89929 128.23481 247.125 128.09375 L 246.59375 124.8125 C 246.11414 125.0382 245.44006 125.24003 244.59375 125.4375 C 243.7474 125.63502 242.7938 125.75 241.75 125.75 C 240.45228 125.75 239.37149 125.55425 238.46875 125.1875 C 237.56598 124.79255 236.81117 124.23654 236.21875 123.53125 C 235.65452 122.82598 235.2196 121.98739 234.9375 121 C 234.68359 120.01262 234.56249 118.93487 234.5625 117.75 C 234.56249 115.09817 235.15584 113.06986 236.3125 111.6875 C 237.49736 110.30517 239.17453 109.62502 241.375 109.625 C 242.24953 109.62502 243.08203 109.70576 243.84375 109.875 C 244.63364 110.04429 245.3138 110.24916 245.90625 110.53125 L 246.8125 107.1875 C 245.90973 106.82077 244.95612 106.57554 243.96875 106.40625 C 242.98135 106.23705 241.98738 106.15627 241 106.15625 z M 259.875 106.15625 C 258.3798 106.15627 256.98824 106.4358 255.71875 107 C 254.44925 107.53603 253.36846 108.29692 252.4375 109.3125 C 251.53474 110.32811 250.8203 111.56126 250.3125 113 C 249.8047 114.41057 249.56249 115.96664 249.5625 117.6875 C 249.56249 119.4366 249.8047 121.02696 250.3125 122.4375 C 250.8203 123.84806 251.53474 125.04691 252.4375 126.0625 C 253.36846 127.0781 254.44925 127.87328 255.71875 128.4375 C 256.98824 128.97351 258.3798 129.25 259.875 129.25 C 261.37018 129.25 262.76174 128.97351 264.03125 128.4375 C 265.30073 127.87328 266.37848 127.0781 267.28125 126.0625 C 268.2122 125.04691 268.92968 123.84806 269.4375 122.4375 C 269.94528 121.02696 270.21873 119.4366 270.21875 117.6875 C 270.21873 115.96664 269.94528 114.41057 269.4375 113 C 268.92968 111.56126 268.2122 110.32811 267.28125 109.3125 C 266.37848 108.29692 265.30073 107.53603 264.03125 107 C 262.76174 106.4358 261.37018 106.15627 259.875 106.15625 z M 321 106.15625 C 319.73049 106.15627 318.49432 106.39544 317.28125 106.875 C 316.06817 107.35461 314.99346 108.07209 314.0625 109.03125 C 313.13153 109.99045 312.37672 111.18929 311.8125 112.65625 C 311.24828 114.09503 310.96875 115.80344 310.96875 117.75 C 310.96875 119.41446 311.17058 120.9332 311.59375 122.34375 C 312.04513 123.7261 312.72224 124.92191 313.625 125.9375 C 314.52775 126.9531 315.68015 127.78257 317.0625 128.375 C 318.47304 128.93922 320.14413 129.21875 322.0625 129.21875 C 323.58588 129.21875 324.94011 129.06336 326.125 128.78125 C 327.33805 128.49914 328.17665 128.22265 328.65625 127.96875 L 328.09375 124.6875 C 327.61414 124.9132 326.89666 125.15235 325.9375 125.40625 C 325.00652 125.63194 323.85107 125.75 322.46875 125.75 C 320.01437 125.75 318.21914 125.15362 317.0625 123.96875 C 315.90584 122.78389 315.23176 121.0351 315.0625 118.75 L 330.125 118.75 C 330.1532 118.52432 330.18748 118.28516 330.1875 118.03125 C 330.18748 117.74915 330.18748 117.51302 330.1875 117.34375 C 330.18748 113.56348 329.3923 110.77124 327.8125 108.9375 C 326.23266 107.07559 323.96215 106.15627 321 106.15625 z M 371.125 106.15625 C 369.6298 106.15627 368.23824 106.4358 366.96875 107 C 365.69925 107.53603 364.61846 108.29692 363.6875 109.3125 C 362.78474 110.32811 362.0703 111.56126 361.5625 113 C 361.0547 114.41057 360.81249 115.96664 360.8125 117.6875 C 360.81249 119.4366 361.0547 121.02696 361.5625 122.4375 C 362.0703 123.84806 362.78474 125.04691 363.6875 126.0625 C 364.61846 127.0781 365.69925 127.87328 366.96875 128.4375 C 368.23824 128.97351 369.6298 129.25 371.125 129.25 C 372.62018 129.25 374.01174 128.97351 375.28125 128.4375 C 376.55073 127.87328 377.62848 127.0781 378.53125 126.0625 C 379.4622 125.04691 380.17968 123.84806 380.6875 122.4375 C 381.19528 121.02696 381.43748 119.4366 381.4375 117.6875 C 381.43748 115.96664 381.19528 114.41057 380.6875 113 C 380.17968 111.56126 379.4622 110.32811 378.53125 109.3125 C 377.62848 108.29692 376.55073 107.53603 375.28125 107 C 374.01174 106.4358 372.62018 106.15627 371.125 106.15625 z M 446.6875 106.15625 C 445.41799 106.15627 444.18182 106.39544 442.96875 106.875 C 441.75567 107.35461 440.68095 108.07209 439.75 109.03125 C 438.81903 109.99045 438.09547 111.18929 437.53125 112.65625 C 436.96703 114.09503 436.6875 115.80344 436.6875 117.75 C 436.6875 119.41446 436.88933 120.9332 437.3125 122.34375 C 437.76387 123.7261 438.44099 124.92191 439.34375 125.9375 C 440.2465 126.9531 441.3989 127.78257 442.78125 128.375 C 444.19179 128.93922 445.83163 129.21875 447.75 129.21875 C 449.27338 129.21875 450.62761 129.06336 451.8125 128.78125 C 453.02555 128.49914 453.8954 128.22265 454.375 127.96875 L 453.8125 124.6875 C 453.33289 124.9132 452.61541 125.15235 451.65625 125.40625 C 450.72527 125.63194 449.56983 125.75 448.1875 125.75 C 445.73313 125.75 443.93789 125.15362 442.78125 123.96875 C 441.62458 122.78389 440.95051 121.0351 440.78125 118.75 L 455.84375 118.75 C 455.87195 118.52432 455.87498 118.28516 455.875 118.03125 C 455.87498 117.74915 455.87498 117.51302 455.875 117.34375 C 455.87498 113.56348 455.11105 110.77124 453.53125 108.9375 C 451.95141 107.07559 449.64965 106.15627 446.6875 106.15625 z M 503.375 106.15625 C 501.99265 106.15627 500.68486 106.24309 499.5 106.46875 C 498.31513 106.66625 497.47655 106.89933 496.96875 107.125 L 497.4375 110.375 C 497.91708 110.17754 498.63457 109.98178 499.59375 109.8125 C 500.58113 109.61508 501.73353 109.53127 503.03125 109.53125 C 504.04684 109.53127 504.84809 109.6897 505.46875 110 C 506.11759 110.28213 506.63325 110.67972 507 111.1875 C 507.36673 111.6671 507.60893 112.22617 507.75 112.875 C 507.89109 113.49566 507.96873 114.13241 507.96875 114.78125 L 507.96875 115.875 C 507.85589 115.84685 507.6571 115.8064 507.375 115.75 C 507.09288 115.6936 506.76994 115.65015 506.375 115.59375 C 506.00824 115.50918 505.61065 115.43445 505.1875 115.40625 C 504.76432 115.34985 504.33244 115.31251 503.9375 115.3125 C 502.6962 115.31251 501.53469 115.46486 500.40625 115.71875 C 499.2778 115.97266 498.28382 116.37026 497.4375 116.90625 C 496.59116 117.44228 495.91404 118.12546 495.40625 119 C 494.92666 119.87455 494.68749 120.91193 494.6875 122.125 C 494.68749 123.3945 494.88934 124.5035 495.3125 125.40625 C 495.73567 126.309 496.33205 127.02953 497.09375 127.59375 C 497.85545 128.12976 498.76868 128.52735 499.8125 128.78125 C 500.8563 129.03515 501.97746 129.15625 503.21875 129.15625 C 504.09329 129.15625 504.96919 129.11585 505.84375 129.03125 C 506.74649 128.97482 507.58203 128.8971 508.34375 128.8125 C 509.10543 128.72787 509.78255 128.6471 510.375 128.5625 C 510.99562 128.44966 511.47395 128.3689 511.8125 128.3125 L 511.8125 114.5625 C 511.81248 113.32123 511.68835 112.20311 511.40625 111.1875 C 511.12413 110.14371 510.6458 109.23351 509.96875 108.5 C 509.31988 107.73832 508.44396 107.17623 507.34375 106.78125 C 506.27171 106.3581 504.95481 106.15627 503.375 106.15625 z M 572.28125 106.15625 C 570.22315 106.28277 568.57142 106.86295 567.3125 107.875 C 565.87374 109.00346 565.15624 110.55346 565.15625 112.5 C 565.15624 113.48741 565.31771 114.32294 565.65625 115 C 565.99478 115.67707 566.43577 116.23917 567 116.71875 C 567.56422 117.19835 568.23829 117.63326 569 118 C 569.7899 118.33854 570.62241 118.66147 571.46875 119 C 573.21783 119.70528 574.45704 120.34204 575.21875 120.90625 C 575.98044 121.47048 576.37499 122.22833 576.375 123.1875 C 576.37499 124.11847 575.9774 124.79559 575.1875 125.21875 C 574.42579 125.64192 573.23302 125.875 571.625 125.875 C 569.98875 125.875 568.67489 125.68229 567.6875 125.34375 C 566.70011 125.00522 565.98262 124.76302 565.53125 124.59375 L 564.8125 127.96875 C 565.20746 128.13802 565.96227 128.37718 567.0625 128.6875 C 568.16273 129.02604 569.67843 129.21875 571.625 129.21875 C 574.41789 129.21875 576.5673 128.66881 578.0625 127.625 C 579.58588 126.58119 580.34373 125.06245 580.34375 123.03125 C 580.34373 121.98744 580.18531 121.11154 579.875 120.40625 C 579.56467 119.67277 579.12367 119.03906 578.53125 118.53125 C 577.96701 118.02346 577.2556 117.5855 576.4375 117.21875 C 575.61936 116.8238 574.70005 116.42622 573.65625 116.03125 C 572.86633 115.74915 572.18921 115.50391 571.625 115.25 C 571.06077 114.99611 570.58244 114.71962 570.1875 114.4375 C 569.82074 114.12719 569.54122 113.80426 569.34375 113.4375 C 569.17445 113.07077 569.09375 112.63586 569.09375 112.15625 C 569.09375 111.2253 569.49437 110.54819 570.3125 110.125 C 571.13061 109.67364 572.08725 109.43752 573.1875 109.4375 C 574.45698 109.43752 575.53473 109.55862 576.4375 109.8125 C 577.34024 110.0382 578.01432 110.27433 578.4375 110.5 L 579.15625 107.125 C 578.93055 107.04039 578.61065 106.92536 578.1875 106.8125 C 577.79253 106.69967 577.31725 106.61595 576.78125 106.53125 C 576.24523 106.41843 575.68313 106.33765 575.0625 106.28125 C 574.44184 106.1966 573.80813 106.15627 573.1875 106.15625 C 572.87718 106.15625 572.57526 106.13818 572.28125 106.15625 z M 629.84375 106.15625 C 628.57424 106.15627 627.33807 106.39544 626.125 106.875 C 624.91192 107.35461 623.83721 108.07209 622.90625 109.03125 C 621.97528 109.99045 621.22046 111.18929 620.65625 112.65625 C 620.09202 114.09503 619.8125 115.80344 619.8125 117.75 C 619.8125 119.41446 620.04558 120.9332 620.46875 122.34375 C 620.92013 123.7261 621.59724 124.92191 622.5 125.9375 C 623.40275 126.9531 624.5239 127.78257 625.90625 128.375 C 627.31679 128.93922 628.98789 129.21875 630.90625 129.21875 C 632.42963 129.21875 633.78387 129.06336 634.96875 128.78125 C 636.18181 128.49914 637.02039 128.22265 637.5 127.96875 L 636.96875 124.6875 C 636.48914 124.9132 635.77166 125.15235 634.8125 125.40625 C 633.88152 125.63194 632.72608 125.75 631.34375 125.75 C 628.88937 125.75 627.06289 125.15362 625.90625 123.96875 C 624.74959 122.78389 624.10676 121.0351 623.9375 118.75 L 639 118.75 C 639.0282 118.52432 639.03123 118.28516 639.03125 118.03125 C 639.03123 117.74915 639.03123 117.51302 639.03125 117.34375 C 639.03123 113.56348 638.23605 110.77124 636.65625 108.9375 C 635.07641 107.07559 632.80589 106.15627 629.84375 106.15625 z M 284.46875 106.21875 C 282.52218 106.21878 280.77643 106.33987 279.28125 106.59375 C 277.81427 106.84767 276.65276 107.11809 275.75 107.34375 L 275.75 128.6875 L 279.6875 128.6875 L 279.6875 110.125 C 279.80034 110.09685 280.00521 110.0564 280.34375 110 C 280.68227 109.94365 281.07379 109.9032 281.46875 109.875 C 281.89191 109.81855 282.32986 109.7782 282.78125 109.75 C 283.23261 109.7218 283.63629 109.68752 284.03125 109.6875 C 284.96221 109.68752 285.72006 109.84595 286.3125 110.15625 C 286.93313 110.43838 287.41145 110.91063 287.75 111.53125 C 288.11673 112.15191 288.39018 112.9128 288.53125 113.84375 C 288.67233 114.77473 288.71873 115.8898 288.71875 117.1875 L 288.71875 128.6875 L 292.65625 128.6875 L 292.65625 116.34375 C 292.65623 115.38458 292.61283 114.4683 292.5 113.59375 C 292.38714 112.71922 292.22567 111.921 292 111.1875 C 292.3103 110.90541 292.8724 110.58855 293.71875 110.25 C 294.59327 109.88328 295.70531 109.68752 297.03125 109.6875 C 297.9904 109.68752 298.75129 109.84595 299.34375 110.15625 C 299.96436 110.43838 300.44269 110.91063 300.78125 111.53125 C 301.14797 112.15191 301.38713 112.9128 301.5 113.84375 C 301.64099 114.77473 301.71872 115.8898 301.71875 117.1875 L 301.71875 128.6875 L 305.65625 128.6875 L 305.65625 116.34375 C 305.65622 114.87678 305.53816 113.52255 305.3125 112.28125 C 305.11499 111.03998 304.71436 109.96527 304.09375 109.0625 C 303.50128 108.15976 302.66574 107.47961 301.59375 107 C 300.5217 106.49222 299.13014 106.21878 297.4375 106.21875 C 296.56293 106.21878 295.76168 106.33379 295 106.53125 C 294.23828 106.70054 293.55812 106.90237 292.9375 107.15625 C 292.31683 107.38196 291.7669 107.62112 291.34375 107.875 C 290.92057 108.12892 290.63496 108.32772 290.4375 108.46875 C 289.78862 107.73529 288.95916 107.17926 288 106.8125 C 287.04081 106.41756 285.87929 106.21878 284.46875 106.21875 z M 526.4375 106.21875 C 524.71661 106.21878 523.16358 106.3772 521.78125 106.6875 C 520.3989 106.96963 519.24347 107.28649 518.3125 107.625 L 518.3125 128.6875 L 522.25 128.6875 L 522.25 110.21875 C 522.47568 110.16234 522.95097 110.04732 523.65625 109.90625 C 524.38973 109.73705 525.11025 109.65627 525.84375 109.65625 C 526.97218 109.65627 527.88846 109.737 528.59375 109.90625 C 529.32722 110.04732 529.84591 110.16842 530.15625 110.28125 L 530.84375 106.875 C 530.67447 106.8186 530.39798 106.7439 530.03125 106.6875 C 529.6927 106.60288 529.3294 106.52525 528.90625 106.46875 C 528.48307 106.38409 528.04511 106.3407 527.59375 106.3125 C 527.17057 106.2561 526.77602 106.21878 526.4375 106.21875 z M 160.96875 106.6875 C 162.06898 111.00381 163.22746 115.02615 164.46875 118.75 C 165.71004 122.47387 166.98353 125.78176 168.28125 128.6875 L 171.71875 128.6875 C 172.50864 126.65631 173.34419 124.34542 174.21875 121.75 C 175.09328 119.12637 175.89149 116.41487 176.625 113.59375 C 177.35847 116.41487 178.15669 119.12637 179.03125 121.75 C 179.93399 124.34542 180.77257 126.65631 181.5625 128.6875 L 185 128.6875 C 186.29768 125.78176 187.57118 122.47387 188.8125 118.75 C 190.05375 115.02615 191.21223 111.00381 192.3125 106.6875 L 188.25 106.6875 C 187.96786 108.01344 187.64493 109.44841 187.25 111 C 186.85502 112.55163 186.4201 114.10466 185.96875 115.65625 C 185.51735 117.20787 185.04207 118.7175 184.5625 120.15625 C 184.1111 121.59503 183.67314 122.83424 183.25 123.90625 C 182.77039 122.58034 182.29207 121.18573 181.8125 119.71875 C 181.3611 118.22357 180.92314 116.74519 180.5 115.25 C 180.07681 113.72661 179.71047 112.25128 179.34375 110.8125 C 178.97699 109.34554 178.66014 107.95702 178.40625 106.6875 L 175.125 106.6875 C 174.84288 107.95702 174.51995 109.34554 174.125 110.8125 C 173.75825 112.25128 173.36065 113.72661 172.9375 115.25 C 172.51432 116.74519 172.07332 118.22357 171.59375 119.71875 C 171.14236 121.18573 170.66708 122.58034 170.1875 123.90625 C 169.76432 122.83424 169.32333 121.59503 168.84375 120.15625 C 168.36415 118.7175 167.88887 117.20787 167.4375 115.65625 C 167.01432 114.10466 166.6137 112.55163 166.21875 111 C 165.82379 109.44841 165.4696 108.01344 165.1875 106.6875 L 160.96875 106.6875 z M 585.34375 106.6875 L 585.34375 128.6875 L 589.28125 128.6875 L 589.28125 106.6875 L 585.34375 106.6875 z M 205.25 109.5 C 206.85801 109.50002 208.09723 110.06211 209 111.21875 C 209.93094 112.3472 210.4032 113.81646 210.375 115.59375 L 199.4375 115.59375 C 199.52212 114.83206 199.68359 114.07725 199.9375 113.34375 C 200.2196 112.61027 200.61415 111.97049 201.09375 111.40625 C 201.57333 110.84205 202.16667 110.3698 202.84375 110.03125 C 203.54901 109.66452 204.34723 109.50002 205.25 109.5 z M 320.9375 109.5 C 322.54552 109.50002 323.81598 110.06211 324.71875 111.21875 C 325.6497 112.3472 326.0907 113.81646 326.0625 115.59375 L 315.15625 115.59375 C 315.24088 114.83206 315.40234 114.07725 315.65625 113.34375 C 315.93835 112.61027 316.3329 111.97049 316.8125 111.40625 C 317.29208 110.84205 317.85417 110.3698 318.53125 110.03125 C 319.23652 109.66452 320.03473 109.50002 320.9375 109.5 z M 446.65625 109.5 C 448.26426 109.50002 449.53473 110.06211 450.4375 111.21875 C 451.36845 112.3472 451.80945 113.81646 451.78125 115.59375 L 440.875 115.59375 C 440.95962 114.83206 441.12109 114.07725 441.375 113.34375 C 441.6571 112.61027 442.0204 111.97049 442.5 111.40625 C 442.97958 110.84205 443.57292 110.3698 444.25 110.03125 C 444.95526 109.66452 445.75348 109.50002 446.65625 109.5 z M 629.8125 109.5 C 631.42052 109.50002 632.69098 110.06211 633.59375 111.21875 C 634.5247 112.3472 634.9657 113.81646 634.9375 115.59375 L 624 115.59375 C 624.08463 114.83206 624.27734 114.07725 624.53125 113.34375 C 624.81335 112.61027 625.17665 111.97049 625.65625 111.40625 C 626.13583 110.84205 626.72918 110.3698 627.40625 110.03125 C 628.11152 109.66452 628.90973 109.50002 629.8125 109.5 z M 259.875 109.625 C 261.79334 109.62502 263.306 110.34554 264.40625 111.8125 C 265.53468 113.25128 266.09373 115.20494 266.09375 117.6875 C 266.09373 120.17008 265.53468 122.15803 264.40625 123.625 C 263.306 125.06377 261.79334 125.78125 259.875 125.78125 C 257.95664 125.78125 256.44093 125.06377 255.3125 123.625 C 254.21226 122.15803 253.65624 120.17008 253.65625 117.6875 C 253.65624 115.20494 254.21226 113.25128 255.3125 111.8125 C 256.44093 110.34554 257.95664 109.62502 259.875 109.625 z M 371.125 109.625 C 373.04334 109.62502 374.556 110.34554 375.65625 111.8125 C 376.78468 113.25128 377.34373 115.20494 377.34375 117.6875 C 377.34373 120.17008 376.78468 122.15803 375.65625 123.625 C 374.556 125.06377 373.04334 125.78125 371.125 125.78125 C 369.20664 125.78125 367.69093 125.06377 366.5625 123.625 C 365.46226 122.15803 364.90624 120.17008 364.90625 117.6875 C 364.90624 115.20494 365.46226 113.25128 366.5625 111.8125 C 367.69093 110.34554 369.20664 109.62502 371.125 109.625 z M 480.46875 109.65625 C 481.54076 109.65627 482.53473 109.85202 483.4375 110.21875 C 484.34024 110.58551 485.0204 110.94882 485.5 111.34375 L 485.5 125.28125 C 485.10503 125.39409 484.54597 125.48091 483.8125 125.59375 C 483.10721 125.6784 482.22826 125.75 481.15625 125.75 C 479.04041 125.75 477.33199 125.0386 476.0625 123.65625 C 474.793 122.24571 474.15624 120.25472 474.15625 117.6875 C 474.15624 116.55907 474.2743 115.51865 474.5 114.53125 C 474.72568 113.54388 475.08594 112.67405 475.59375 111.96875 C 476.10154 111.23528 476.77258 110.67622 477.5625 110.28125 C 478.38061 109.8581 479.3403 109.65627 480.46875 109.65625 z M 605.28125 109.65625 C 606.35326 109.65627 607.34723 109.85202 608.25 110.21875 C 609.15274 110.58551 609.83289 110.94882 610.3125 111.34375 L 610.3125 125.28125 C 609.91753 125.39409 609.35848 125.48091 608.625 125.59375 C 607.91971 125.6784 607.0095 125.75 605.9375 125.75 C 603.82165 125.75 602.14449 125.0386 600.875 123.65625 C 599.60549 122.24571 598.96875 120.25472 598.96875 117.6875 C 598.96875 116.55907 599.08681 115.51865 599.3125 114.53125 C 599.53819 113.54388 599.89844 112.67405 600.40625 111.96875 C 600.91404 111.23528 601.55383 110.67622 602.34375 110.28125 C 603.16186 109.8581 604.15279 109.65627 605.28125 109.65625 z M 504.28125 118.5 C 505.18399 118.50001 505.94184 118.54342 506.5625 118.65625 C 507.21134 118.7409 507.68662 118.85895 507.96875 119 L 507.96875 125.5625 C 507.48914 125.67535 506.88973 125.7561 506.15625 125.8125 C 505.45096 125.8407 504.61845 125.875 503.6875 125.875 C 502.13588 125.875 500.934 125.59852 500.03125 125.0625 C 499.12849 124.49829 498.65624 123.50431 498.65625 122.09375 C 498.65624 121.33206 498.852 120.73264 499.21875 120.28125 C 499.58549 119.80167 500.02648 119.44141 500.5625 119.1875 C 501.12671 118.9054 501.72614 118.7096 502.375 118.625 C 503.05206 118.54035 503.68881 118.50001 504.28125 118.5 z "
       transform="translate(0,452.36218)"
       id="path3231" />
  </g>
</svg>
