<?xml version="1.0" encoding="UTF-8" standalone="no"?>
<!-- Created with Inkscape (http://www.inkscape.org/) -->

<svg
   xmlns:dc="http://purl.org/dc/elements/1.1/"
   xmlns:cc="http://creativecommons.org/ns#"
   xmlns:rdf="http://www.w3.org/1999/02/22-rdf-syntax-ns#"
   xmlns:svg="http://www.w3.org/2000/svg"
   xmlns="http://www.w3.org/2000/svg"
   xmlns:sodipodi="http://sodipodi.sourceforge.net/DTD/sodipodi-0.dtd"
   xmlns:inkscape="http://www.inkscape.org/namespaces/inkscape"
   version="1.1"
   width="16"
   height="16.000057"
   id="svg7384"
   inkscape:version="0.48.4 r9939"
   sodipodi:docname="battery-full-symbolic.svg">
  <title
     id="title4176">Kawaiki Icon Theme</title>
  <sodipodi:namedview
     pagecolor="#4a4a4a"
     bordercolor="#e50000"
     borderopacity="1"
     objecttolerance="10"
     gridtolerance="10000"
     guidetolerance="10"
     inkscape:pageopacity="1"
     inkscape:pageshadow="2"
     inkscape:window-width="1366"
     inkscape:window-height="743"
     id="namedview16"
     showgrid="true"
     inkscape:showpageshadow="true"
     borderlayer="false"
     inkscape:zoom="16"
     inkscape:cx="-11.494462"
     inkscape:cy="0.52076242"
     inkscape:window-x="0"
     inkscape:window-y="25"
     inkscape:window-maximized="1"
     inkscape:current-layer="svg7384"
     showguides="true"
     inkscape:guide-bbox="true">
    <inkscape:grid
       type="xygrid"
       id="grid2993"
       empspacing="4"
       visible="true"
       enabled="true"
       snapvisiblegridlinesonly="true" />
  </sodipodi:namedview>
  <metadata
     id="metadata90">
    <rdf:RDF>
      <cc:Work
         rdf:about="">
        <dc:format>image/svg+xml</dc:format>
        <dc:type
           rdf:resource="http://purl.org/dc/dcmitype/StillImage" />
        <dc:title>Kawaiki Icon Theme</dc:title>
        <dc:date>2014-01-31</dc:date>
        <dc:creator>
          <cc:Agent>
            <dc:title>Georg Eckert</dc:title>
          </cc:Agent>
        </dc:creator>
        <dc:language>German</dc:language>
        <cc:license
           rdf:resource="http://creativecommons.org/licenses/by-nc-sa/3.0/" />
      </cc:Work>
      <cc:License
         rdf:about="http://creativecommons.org/licenses/by-nc-sa/3.0/">
        <cc:permits
           rdf:resource="http://creativecommons.org/ns#Reproduction" />
        <cc:permits
           rdf:resource="http://creativecommons.org/ns#Distribution" />
        <cc:requires
           rdf:resource="http://creativecommons.org/ns#Notice" />
        <cc:requires
           rdf:resource="http://creativecommons.org/ns#Attribution" />
        <cc:prohibits
           rdf:resource="http://creativecommons.org/ns#CommercialUse" />
        <cc:permits
           rdf:resource="http://creativecommons.org/ns#DerivativeWorks" />
        <cc:requires
           rdf:resource="http://creativecommons.org/ns#ShareAlike" />
      </cc:License>
    </rdf:RDF>
  </metadata>
  <defs
     id="defs7386" />
  <g
     transform="matrix(0.75,0,0,0.75,-73.75015,-160.75)"
     id="layer10" />
  <g
     transform="matrix(0.75,0,0,0.75,-73.75015,-160.75)"
     id="layer11" />
  <g
     transform="matrix(0.75,0,0,0.75,-73.75015,-160.75)"
     id="layer13" />
  <g
     transform="matrix(0.75,0,0,0.75,-73.75015,-160.75)"
     id="layer14" />
  <g
     transform="matrix(0.75,0,0,0.75,-73.75015,-160.75)"
     id="layer15"
     style="display:inline" />
  <g
     transform="matrix(0.75,0,0,0.75,-73.75015,-160.75)"
     id="g71291"
     style="display:inline" />
  <g
     transform="matrix(0.75,0,0,0.75,-73.75015,-160.75)"
     id="g4953"
     style="display:inline" />
  <g
     transform="matrix(0.75,0,0,0.75,-73.75015,-160.75)"
     id="layer12"
     style="display:inline" />
  <g
     style="display:inline"
     id="g3791"
     transform="matrix(0.75,0,0,0.75,-73.75015,-160.75)" />
  <path
     style="fill:#d3d7cf;fill-opacity:1;stroke:none"
     d="M 8,2 C 4.6862915,2 2,4.6862915 2,8 c 0,3.313709 2.6862915,6 6,6 3.313709,0 6,-2.686291 6,-6 C 14,4.6862915 11.313709,2 8,2 z m 0,1.5 c 2.485281,0 4.5,2.0147186 4.5,4.5 0,2.485281 -2.014719,4.5 -4.5,4.5 C 5.5147186,12.5 3.5,10.485281 3.5,8 3.5,5.5147186 5.5147186,3.5 8,3.5 z"
     id="path3044"
     inkscape:connector-curvature="0" />
</svg>
