<?xml version="1.0" encoding="UTF-8" standalone="no"?>
<!-- Created with Inkscape (http://www.inkscape.org/) -->

<svg
   xmlns:dc="http://purl.org/dc/elements/1.1/"
   xmlns:cc="http://creativecommons.org/ns#"
   xmlns:rdf="http://www.w3.org/1999/02/22-rdf-syntax-ns#"
   xmlns:svg="http://www.w3.org/2000/svg"
   xmlns="http://www.w3.org/2000/svg"
   xmlns:sodipodi="http://sodipodi.sourceforge.net/DTD/sodipodi-0.dtd"
   xmlns:inkscape="http://www.inkscape.org/namespaces/inkscape"
   version="1.1"
   width="16"
   height="16.000057"
   id="svg7384"
   inkscape:version="0.48.4 r9939"
   sodipodi:docname="battery-low-symbolic.svg">
  <title
     id="title4176">Kawaiki Icon Theme</title>
  <sodipodi:namedview
     pagecolor="#4a4a4a"
     bordercolor="#e50000"
     borderopacity="1"
     objecttolerance="10"
     gridtolerance="10000"
     guidetolerance="10"
     inkscape:pageopacity="1"
     inkscape:pageshadow="2"
     inkscape:window-width="1366"
     inkscape:window-height="743"
     id="namedview16"
     showgrid="true"
     inkscape:showpageshadow="true"
     borderlayer="false"
     inkscape:zoom="16"
     inkscape:cx="-13.869462"
     inkscape:cy="0.52076242"
     inkscape:window-x="0"
     inkscape:window-y="25"
     inkscape:window-maximized="1"
     inkscape:current-layer="svg7384"
     showguides="true"
     inkscape:guide-bbox="true">
    <inkscape:grid
       type="xygrid"
       id="grid2993"
       empspacing="4"
       visible="true"
       enabled="true"
       snapvisiblegridlinesonly="true" />
  </sodipodi:namedview>
  <metadata
     id="metadata90">
    <rdf:RDF>
      <cc:Work
         rdf:about="">
        <dc:format>image/svg+xml</dc:format>
        <dc:type
           rdf:resource="http://purl.org/dc/dcmitype/StillImage" />
        <dc:title>Kawaiki Icon Theme</dc:title>
        <dc:date>2014-01-31</dc:date>
        <dc:creator>
          <cc:Agent>
            <dc:title>Georg Eckert</dc:title>
          </cc:Agent>
        </dc:creator>
        <dc:language>German</dc:language>
        <cc:license
           rdf:resource="http://creativecommons.org/licenses/by-nc-sa/3.0/" />
      </cc:Work>
      <cc:License
         rdf:about="http://creativecommons.org/licenses/by-nc-sa/3.0/">
        <cc:permits
           rdf:resource="http://creativecommons.org/ns#Reproduction" />
        <cc:permits
           rdf:resource="http://creativecommons.org/ns#Distribution" />
        <cc:requires
           rdf:resource="http://creativecommons.org/ns#Notice" />
        <cc:requires
           rdf:resource="http://creativecommons.org/ns#Attribution" />
        <cc:prohibits
           rdf:resource="http://creativecommons.org/ns#CommercialUse" />
        <cc:permits
           rdf:resource="http://creativecommons.org/ns#DerivativeWorks" />
        <cc:requires
           rdf:resource="http://creativecommons.org/ns#ShareAlike" />
      </cc:License>
    </rdf:RDF>
  </metadata>
  <defs
     id="defs7386" />
  <g
     transform="matrix(0.74999531,0,0,0.74999531,-73.749639,-160.74896)"
     id="layer10" />
  <g
     transform="matrix(0.74999531,0,0,0.74999531,-73.749639,-160.74896)"
     id="layer11" />
  <g
     transform="matrix(0.74999531,0,0,0.74999531,-73.749639,-160.74896)"
     id="layer13" />
  <g
     transform="matrix(0.74999531,0,0,0.74999531,-73.749639,-160.74896)"
     id="layer14" />
  <g
     transform="matrix(0.74999531,0,0,0.74999531,-73.749639,-160.74896)"
     id="layer15"
     style="display:inline" />
  <g
     transform="matrix(0.74999531,0,0,0.74999531,-73.749639,-160.74896)"
     id="g71291"
     style="display:inline" />
  <g
     transform="matrix(0.74999531,0,0,0.74999531,-73.749639,-160.74896)"
     id="g4953"
     style="display:inline" />
  <g
     transform="matrix(0.74999531,0,0,0.74999531,-73.749639,-160.74896)"
     id="layer12"
     style="display:inline" />
  <g
     style="display:inline"
     id="g3791"
     transform="matrix(0.74999531,0,0,0.74999531,-73.749639,-160.74896)" />
  <path
     style="opacity:0.2;fill:#d3d7cf;fill-opacity:1;stroke:none"
     d="m 8,2.000025 c -3.3136878,0 -5.9999625,2.6862747 -5.9999625,5.9999625 0,3.3136875 2.6862747,5.9999625 5.9999625,5.9999625 3.313688,0 5.999963,-2.686275 5.999963,-5.9999625 C 13.999963,4.6862997 11.313688,2.000025 8,2.000025 z m 0,1.4999906 c 2.485265,0 4.499972,2.0147061 4.499972,4.4999719 0,2.4852655 -2.014707,4.4999715 -4.499972,4.4999715 -2.4852658,0 -4.4999719,-2.014706 -4.4999719,-4.4999715 C 3.5000281,5.5147217 5.5147342,3.5000156 8,3.5000156 z"
     id="path3044"
     inkscape:connector-curvature="0" />
  <path
     style="font-size:medium;font-style:normal;font-variant:normal;font-weight:normal;font-stretch:normal;text-indent:0;text-align:start;text-decoration:none;line-height:normal;letter-spacing:normal;word-spacing:normal;text-transform:none;direction:ltr;block-progression:tb;writing-mode:lr-tb;text-anchor:start;baseline-shift:baseline;color:#000000;fill:#d3d7cf;fill-opacity:1;stroke:none;stroke-width:2;marker:none;visibility:visible;display:inline;overflow:visible;enable-background:accumulate;font-family:Sans;-inkscape-font-specification:Sans"
     d="m 7.9765626,2.000025 c -1.5841373,0.00544 -3.0987129,0.6374905 -4.2187236,1.7578015 -2.3365362,2.3371629 -2.3371629,6.1477858 0,8.4843215 a 0.75007031,0.75007031 0 1 0 1.0546809,-1.05468 c -1.7638663,-1.7633938 -1.7633933,-4.6110942 0,-6.3749606 C 5.652877,3.9719249 6.7879659,3.5040975 7.9765626,3.5000156 a 0.75007031,0.75007031 0 1 0 0,-1.4999906 z"
     id="path3087"
     inkscape:connector-curvature="0" />
</svg>
