<?xml version="1.0" encoding="UTF-8" standalone="no"?>
<!-- Created with Inkscape (http://www.inkscape.org/) -->

<svg
   xmlns:dc="http://purl.org/dc/elements/1.1/"
   xmlns:cc="http://creativecommons.org/ns#"
   xmlns:rdf="http://www.w3.org/1999/02/22-rdf-syntax-ns#"
   xmlns:svg="http://www.w3.org/2000/svg"
   xmlns="http://www.w3.org/2000/svg"
   xmlns:sodipodi="http://sodipodi.sourceforge.net/DTD/sodipodi-0.dtd"
   xmlns:inkscape="http://www.inkscape.org/namespaces/inkscape"
   version="1.1"
   width="16"
   height="16.000057"
   id="svg7384"
   inkscape:version="0.48.4 r9939"
   sodipodi:docname="battery-good-symbolic.svg">
  <title
     id="title4176">Kawaiki Icon Theme</title>
  <sodipodi:namedview
     pagecolor="#4a4a4a"
     bordercolor="#e50000"
     borderopacity="1"
     objecttolerance="10"
     gridtolerance="10000"
     guidetolerance="10"
     inkscape:pageopacity="1"
     inkscape:pageshadow="2"
     inkscape:window-width="1366"
     inkscape:window-height="743"
     id="namedview16"
     showgrid="true"
     inkscape:showpageshadow="true"
     borderlayer="false"
     inkscape:zoom="16"
     inkscape:cx="12.220297"
     inkscape:cy="2.9405879"
     inkscape:window-x="0"
     inkscape:window-y="25"
     inkscape:window-maximized="1"
     inkscape:current-layer="svg7384"
     showguides="true"
     inkscape:guide-bbox="true">
    <inkscape:grid
       type="xygrid"
       id="grid2993"
       empspacing="4"
       visible="true"
       enabled="true"
       snapvisiblegridlinesonly="true" />
  </sodipodi:namedview>
  <metadata
     id="metadata90">
    <rdf:RDF>
      <cc:Work
         rdf:about="">
        <dc:format>image/svg+xml</dc:format>
        <dc:type
           rdf:resource="http://purl.org/dc/dcmitype/StillImage" />
        <dc:title>Kawaiki Icon Theme</dc:title>
        <dc:date>2014-01-31</dc:date>
        <dc:creator>
          <cc:Agent>
            <dc:title>Georg Eckert</dc:title>
          </cc:Agent>
        </dc:creator>
        <dc:language>German</dc:language>
        <cc:license
           rdf:resource="http://creativecommons.org/licenses/by-nc-sa/3.0/" />
      </cc:Work>
      <cc:License
         rdf:about="http://creativecommons.org/licenses/by-nc-sa/3.0/">
        <cc:permits
           rdf:resource="http://creativecommons.org/ns#Reproduction" />
        <cc:permits
           rdf:resource="http://creativecommons.org/ns#Distribution" />
        <cc:requires
           rdf:resource="http://creativecommons.org/ns#Notice" />
        <cc:requires
           rdf:resource="http://creativecommons.org/ns#Attribution" />
        <cc:prohibits
           rdf:resource="http://creativecommons.org/ns#CommercialUse" />
        <cc:permits
           rdf:resource="http://creativecommons.org/ns#DerivativeWorks" />
        <cc:requires
           rdf:resource="http://creativecommons.org/ns#ShareAlike" />
      </cc:License>
    </rdf:RDF>
  </metadata>
  <defs
     id="defs7386" />
  <g
     transform="matrix(0.74981308,0,0,0.74981308,-73.730262,-160.70747)"
     id="layer10" />
  <g
     transform="matrix(0.74981308,0,0,0.74981308,-73.730262,-160.70747)"
     id="layer11" />
  <g
     transform="matrix(0.74981308,0,0,0.74981308,-73.730262,-160.70747)"
     id="layer13" />
  <g
     transform="matrix(0.74981308,0,0,0.74981308,-73.730262,-160.70747)"
     id="layer14" />
  <g
     transform="matrix(0.74981308,0,0,0.74981308,-73.730262,-160.70747)"
     id="layer15"
     style="display:inline" />
  <g
     transform="matrix(0.74981308,0,0,0.74981308,-73.730262,-160.70747)"
     id="g71291"
     style="display:inline" />
  <g
     transform="matrix(0.74981308,0,0,0.74981308,-73.730262,-160.70747)"
     id="g4953"
     style="display:inline" />
  <g
     transform="matrix(0.74981308,0,0,0.74981308,-73.730262,-160.70747)"
     id="layer12"
     style="display:inline" />
  <g
     style="display:inline"
     id="g3791"
     transform="matrix(0.74981308,0,0,0.74981308,-73.730262,-160.70747)" />
  <path
     style="opacity:0.2;fill:#d3d7cf;fill-opacity:1;stroke:none"
     d="m 7.9995136,2.0019693 c -3.3128827,0 -5.9985047,2.685622 -5.9985047,5.9985046 0,3.3128831 2.685622,5.9985051 5.9985047,5.9985051 3.3128824,0 5.9985044,-2.685622 5.9985044,-5.9985051 0,-3.3128826 -2.685622,-5.9985046 -5.9985044,-5.9985046 z m 0,1.4996261 c 2.4846614,0 4.4988784,2.0142165 4.4988784,4.4988785 0,2.4846621 -2.014217,4.4988781 -4.4988784,4.4988781 -2.484662,0 -4.4988785,-2.014216 -4.4988785,-4.4988781 0,-2.484662 2.0142165,-4.4988785 4.4988785,-4.4988785 z"
     id="path3044"
     inkscape:connector-curvature="0" />
  <path
     style="font-size:medium;font-style:normal;font-variant:normal;font-weight:normal;font-stretch:normal;text-indent:0;text-align:start;text-decoration:none;line-height:normal;letter-spacing:normal;word-spacing:normal;text-transform:none;direction:ltr;block-progression:tb;writing-mode:lr-tb;text-anchor:start;baseline-shift:baseline;color:#000000;fill:#d3d7cf;fill-opacity:1;stroke:none;stroke-width:2;marker:none;visibility:visible;display:inline;overflow:visible;enable-background:accumulate;font-family:Sans;-inkscape-font-specification:Sans"
     d="M 7.9760819,2.0019693 C 6.0292299,2.0086551 4.1971938,2.9624019 3.0788652,4.5560201 1.1809618,7.2605325 1.8505473,11.023219 4.5550597,12.921122 7.2595722,14.819026 11.022258,14.149441 12.920162,11.444928 A 0.75728137,0.75728137 0 1 0 11.678284,10.577956 C 10.245929,12.619063 7.4631377,13.1116 5.4220311,11.679244 3.3809246,10.246889 2.8883878,7.464098 4.3207432,5.4229915 5.1602565,4.226685 6.5146078,3.5066144 7.9760819,3.5015954 a 0.74988806,0.74988806 0 1 0 0,-1.4996261 z"
     id="path3087"
     inkscape:connector-curvature="0" />
</svg>
