<?xml version="1.0" encoding="UTF-8" standalone="no"?>
<!-- Created with Inkscape (http://www.inkscape.org/) -->

<svg
   xmlns:dc="http://purl.org/dc/elements/1.1/"
   xmlns:cc="http://creativecommons.org/ns#"
   xmlns:rdf="http://www.w3.org/1999/02/22-rdf-syntax-ns#"
   xmlns:svg="http://www.w3.org/2000/svg"
   xmlns="http://www.w3.org/2000/svg"
   xmlns:xlink="http://www.w3.org/1999/xlink"
   xmlns:sodipodi="http://sodipodi.sourceforge.net/DTD/sodipodi-0.dtd"
   xmlns:inkscape="http://www.inkscape.org/namespaces/inkscape"
   sodipodi:docname="document-properties.svg"
   inkscape:version="0.48.4 r9939"
   version="1.1"
   id="svg2"
   height="128"
   width="128">
  <sodipodi:namedview
     id="base"
     pagecolor="#ffffff"
     bordercolor="#666666"
     borderopacity="1.0"
     inkscape:pageopacity="0.0"
     inkscape:pageshadow="2"
     inkscape:zoom="3.6203868"
     inkscape:cx="130.50352"
     inkscape:cy="59.604145"
     inkscape:document-units="px"
     inkscape:current-layer="layer1"
     showgrid="true"
     showguides="true"
     inkscape:guide-bbox="true"
     inkscape:window-width="1221"
     inkscape:window-height="1000"
     inkscape:window-x="59"
     inkscape:window-y="24"
     inkscape:window-maximized="1">
    <inkscape:grid
       snapvisiblegridlinesonly="true"
       enabled="true"
       visible="true"
       empspacing="4"
       id="grid2985"
       type="xygrid" />
  </sodipodi:namedview>
  <defs
     id="defs4">
    <linearGradient
       id="linearGradient7110">
      <stop
         style="stop-color:#5a5a5a;stop-opacity:1;"
         offset="0"
         id="stop7112" />
      <stop
         style="stop-color:#202020;stop-opacity:1;"
         offset="1"
         id="stop7114" />
    </linearGradient>
    <linearGradient
       id="linearGradient8794-33">
      <stop
         style="stop-color:#ffffff;stop-opacity:1;"
         offset="0"
         id="stop8796-9" />
      <stop
         style="stop-color:#cacaca;stop-opacity:1;"
         offset="1"
         id="stop8798-6" />
    </linearGradient>
    <filter
       inkscape:collect="always"
       id="filter7163"
       x="-0.11531819"
       width="1.2306364"
       y="-0.12507806"
       height="1.2501561">
      <feGaussianBlur
         inkscape:collect="always"
         stdDeviation="3.3731582"
         id="feGaussianBlur7165" />
    </filter>
    <radialGradient
       inkscape:collect="always"
       xlink:href="#linearGradient8794-33"
       id="radialGradient7179"
       gradientUnits="userSpaceOnUse"
       gradientTransform="matrix(1.2570522,-2.707646e-8,1.0626256e-8,1.2570521,-26.352432,914.63201)"
       cx="84"
       cy="51.341217"
       fx="84"
       fy="51.341217"
       r="40.046875" />
    <radialGradient
       inkscape:collect="always"
       xlink:href="#linearGradient7110"
       id="radialGradient6978"
       cx="154"
       cy="117.9"
       fx="154"
       fy="117.9"
       r="8"
       gradientTransform="matrix(1.2499999,-3.1650952e-7,3.1650959e-7,1.2500002,-38.500029,-29.374973)"
       gradientUnits="userSpaceOnUse" />
    <linearGradient
       inkscape:collect="always"
       id="linearGradient7006-8">
      <stop
         style="stop-color:#ffffff;stop-opacity:1;"
         offset="0"
         id="stop7008-1" />
      <stop
         style="stop-color:#ffffff;stop-opacity:0;"
         offset="1"
         id="stop7010-1" />
    </linearGradient>
    <linearGradient
       inkscape:collect="always"
       id="linearGradient6978-3">
      <stop
         style="stop-color:#000000;stop-opacity:0.25"
         offset="0"
         id="stop6980-5" />
      <stop
         style="stop-color:#000000;stop-opacity:0;"
         offset="1"
         id="stop6982-7" />
    </linearGradient>
    <linearGradient
       id="linearGradient4216-4-8-2-6">
      <stop
         id="stop4218-8-0-7-4"
         offset="0"
         style="stop-color:#ffffff;stop-opacity:1;" />
      <stop
         id="stop4220-1-6-4-0"
         offset="1"
         style="stop-color:#c6c6c6;stop-opacity:1;" />
    </linearGradient>
    <filter
       color-interpolation-filters="sRGB"
       inkscape:collect="always"
       id="filter6960">
      <feGaussianBlur
         inkscape:collect="always"
         stdDeviation="4.16"
         id="feGaussianBlur6962" />
    </filter>
    <radialGradient
       inkscape:collect="always"
       xlink:href="#linearGradient4216-4-8-2-6"
       id="radialGradient6049"
       gradientUnits="userSpaceOnUse"
       gradientTransform="translate(3.8146973e-7,-1.1772461e-5)"
       cx="64"
       cy="1020.3622"
       fx="64"
       fy="1020.3622"
       r="52" />
    <linearGradient
       inkscape:collect="always"
       xlink:href="#linearGradient6978-3"
       id="linearGradient6051"
       gradientUnits="userSpaceOnUse"
       gradientTransform="translate(3.8146973e-7,924.36219)"
       x1="64"
       y1="188"
       x2="64"
       y2="8" />
    <radialGradient
       inkscape:collect="always"
       xlink:href="#linearGradient7006-8"
       id="radialGradient6053"
       gradientUnits="userSpaceOnUse"
       gradientTransform="translate(3.8146973e-7,924.36219)"
       cx="88"
       cy="36"
       fx="88"
       fy="36"
       r="51" />
    <linearGradient
       id="linearGradient4216-4-8-2-63">
      <stop
         id="stop4218-8-0-7-1"
         offset="0"
         style="stop-color:#494949;stop-opacity:1;" />
      <stop
         id="stop4220-1-6-4-7"
         offset="1"
         style="stop-color:#0f0f0f;stop-opacity:1;" />
    </linearGradient>
    <radialGradient
       r="8"
       fy="118"
       fx="154"
       cy="118"
       cx="154"
       gradientTransform="matrix(1.25,0,0,1.25,-68.638352,946.43212)"
       gradientUnits="userSpaceOnUse"
       id="radialGradient3583"
       xlink:href="#linearGradient4216-4-8-2-63"
       inkscape:collect="always" />
    <radialGradient
       inkscape:collect="always"
       xlink:href="#linearGradient7110"
       id="radialGradient6843"
       gradientUnits="userSpaceOnUse"
       gradientTransform="matrix(0.46561125,-1.0029102e-8,0,0.46561122,126.53352,977.79338)"
       cx="84"
       cy="51.341217"
       fx="84"
       fy="51.341217"
       r="40.046875" />
    <radialGradient
       inkscape:collect="always"
       xlink:href="#linearGradient7110"
       id="radialGradient6856"
       gradientUnits="userSpaceOnUse"
       gradientTransform="matrix(1.2527914,-2.6984685e-8,0,1.2527914,-26.04615,911.87553)"
       cx="84"
       cy="51.341217"
       fx="84"
       fy="51.341217"
       r="40.046875" />
  </defs>
  <metadata
     id="metadata7">
    <rdf:RDF>
      <cc:Work
         rdf:about="">
        <dc:format>image/svg+xml</dc:format>
        <dc:type
           rdf:resource="http://purl.org/dc/dcmitype/StillImage" />
        <dc:title />
      </cc:Work>
    </rdf:RDF>
  </metadata>
  <g
     transform="translate(0,-924.36218)"
     id="layer1"
     inkscape:groupmode="layer"
     inkscape:label="Layer 1">
    <path
       style="fill:none;fill-opacity:1;stroke:#000000;stroke-width:1.5;stroke-linecap:round;stroke-linejoin:round;stroke-miterlimit:4;stroke-opacity:0.18823529999999999;stroke-dasharray:none;stroke-dashoffset:0"
       d="m 148.9964,992.37528 c -1.10336,0 -1.99781,0.89446 -1.99781,1.99782 0,1.10336 0.89445,1.99781 1.99781,1.99781 1.10337,0 1.99782,-0.89445 1.99782,-1.99781 0,-1.10336 -0.89445,-1.99782 -1.99782,-1.99782 z m 4.81765,0.14568 0,0.50986 0,2.73659 0,0.50985 0.50986,0 0.62432,0 0.21851,0 0.29135,0 0.2081,0 0.63473,0 0.50985,0 0,-0.21851 c 0.221,0.16592 0.49547,0.26014 0.77,0.26014 0.12028,0 0.23652,-0.01 0.35378,-0.0416 l 0.29134,0 0.63473,0 0.50985,0 0,-0.11445 c 0.19351,0.10913 0.42634,0.15608 0.64513,0.15608 0.12675,0 0.25188,-0.009 0.37459,-0.0416 l 0.29135,0 0.63472,0 0.50986,0 0,-0.2081 c 0.21551,0.16813 0.49245,0.24973 0.75959,0.24973 0.1168,0 0.22968,-0.0104 0.34337,-0.0416 l 0.30176,0 0.63472,0 0.50986,0 0.0936,0 0.63472,0 0.29135,0 c 0.11771,0.0318 0.24331,0.052 0.36418,0.052 0.37642,0 0.75162,-0.18654 0.9885,-0.47864 0.23717,-0.29423 0.34337,-0.68142 0.34338,-1.07175 -1e-5,-0.38948 -0.10638,-0.75763 -0.34338,-1.05093 -4.8e-4,-7.4e-4 4.8e-4,-0.0101 0,-0.0104 -0.23658,-0.29226 -0.6121,-0.47864 -0.9885,-0.47864 -0.0486,0 -0.10749,0.0158 -0.15608,0.0208 l 0,-0.22892 0,-0.50986 -0.49945,0 -0.63472,0 -0.49946,0 0,0.50986 0,0.26013 -0.10405,0 -0.63472,0 -0.20811,0 -0.29135,0 -0.21851,0 -0.62432,0 -0.50985,0 0,0.27054 c -0.29373,-0.24455 -0.66472,-0.32256 -1.07175,-0.32256 -0.15665,0 -0.31212,0.0112 -0.46824,0.0312 -0.15494,0.0189 -0.30497,0.0564 -0.45783,0.0937 l -0.0104,0 0,-0.33297 0,-0.50986 -0.50986,0 -0.63473,0 -0.49945,0 0,0.50986 0,0.22892 c -0.0476,-0.005 -0.0981,-0.0208 -0.14567,-0.0208 -0.37641,0 -0.75192,0.18639 -0.98851,0.47864 -3.1e-4,2.5e-4 3.2e-4,0.0101 0,0.0104 -0.003,0.004 -0.007,0.007 -0.0104,0.0104 -0.0232,-0.0347 -0.0453,-0.0715 -0.0728,-0.10405 -0.22111,-0.2617 -0.57508,-0.3954 -0.90526,-0.39541 -0.05,0 -0.0957,0.0151 -0.14567,0.0208 l 0,-0.22891 0,-0.50987 -0.50986,0 -0.62432,0 -0.50986,0 z m 13.9639,0.76999 0,0.50986 0,1.19661 c 0,0.34123 0.0805,0.67584 0.30175,0.93647 0.22283,0.25996 0.57428,0.385 0.90526,0.385 0.1168,0 0.22968,-0.0104 0.34337,-0.0416 l 0.30176,0 0.63472,0 0.46824,0 0.0416,0 1.71687,0 0.50986,0 0,-0.50985 0,-0.44743 0,-0.50986 -0.35378,0 0.20811,-0.21851 0.14567,-0.14567 0,-0.20811 0,-0.43702 0,-0.50986 -0.50986,0 -1.71687,0 -0.50986,0 -0.63472,0 -0.20811,0 -0.29135,0 -0.2081,0 -0.63472,0 -0.50986,0 z m -18.78155,0.0832 c 0.5534,0 0.99891,0.44551 0.99891,0.99891 0,0.55339 -0.44551,0.9989 -0.99891,0.9989 -0.55339,0 -0.9989,-0.44551 -0.9989,-0.9989 0,-0.5534 0.44551,-0.99891 0.9989,-0.99891 z m 0,5.66048 c -1.10336,0 -1.99781,0.89445 -1.99781,1.99787 0,1.1033 0.89445,1.9978 1.99781,1.9978 1.10337,0 1.99782,-0.8945 1.99782,-1.9978 0,-1.10342 -0.89445,-1.99787 -1.99782,-1.99787 z m 4.81765,0.14567 0,0.50986 0,2.73664 0,0.5099 0.50986,0 0.62432,0 0.21851,0 0.29135,0 0.2081,0 0.63473,0 0.50985,0 0,-0.2186 c 0.221,0.166 0.49547,0.2602 0.77,0.2602 0.12028,0 0.23652,-0.01 0.35378,-0.042 l 0.29134,0 0.63473,0 0.50985,0 0,-0.1145 c 0.19351,0.1091 0.42634,0.1561 0.64513,0.1561 0.12675,0 0.25188,-0.01 0.37459,-0.042 l 0.29135,0 0.63472,0 0.50986,0 0,-0.2082 c 0.21551,0.1682 0.49245,0.2498 0.75959,0.2498 0.1168,0 0.22968,-0.01 0.34337,-0.042 l 0.30176,0 0.63472,0 0.50986,0 0.0936,0 0.63472,0 0.29135,0 c 0.11771,0.032 0.24331,0.052 0.36418,0.052 0.37642,0 0.75162,-0.1866 0.9885,-0.4787 0.23717,-0.2942 0.34337,-0.6814 0.34338,-1.0717 -1e-5,-0.3895 -0.10638,-0.7576 -0.34338,-1.0509 -4.8e-4,-8e-4 4.8e-4,-0.01 0,-0.01 -0.23658,-0.2922 -0.6121,-0.47863 -0.9885,-0.47863 -0.0486,0 -0.10749,0.0158 -0.15608,0.0208 l 0,-0.22891 0,-0.50986 -0.49945,0 -0.63472,0 -0.49946,0 0,0.50986 0,0.26013 -0.10405,0 -0.63472,0 -0.20811,0 -0.29135,0 -0.21851,0 -0.62432,0 -0.50985,0 0,0.27051 c -0.29373,-0.24452 -0.66472,-0.32254 -1.07175,-0.32254 -0.15665,0 -0.31212,0.0112 -0.46824,0.0312 -0.15494,0.0189 -0.30497,0.0564 -0.45783,0.0937 l -0.0104,0 0,-0.33302 0,-0.50986 -0.50986,0 -0.63473,0 -0.49945,0 0,0.50986 0,0.22891 c -0.0476,-0.005 -0.0981,-0.0208 -0.14567,-0.0208 -0.37641,0 -0.75192,0.18641 -0.98851,0.47871 -3.1e-4,2e-4 3.2e-4,0.01 0,0.01 -0.003,0 -0.007,0.01 -0.0104,0.01 -0.0232,-0.035 -0.0453,-0.072 -0.0728,-0.1041 -0.22111,-0.2617 -0.57508,-0.39541 -0.90526,-0.39541 -0.05,0 -0.0957,0.0151 -0.14567,0.0208 l 0,-0.22892 0,-0.50986 -0.50986,0 -0.62432,0 -0.50986,0 z m 13.9639,0.76999 0,0.50991 0,1.1966 c 0,0.3412 0.0805,0.6758 0.30175,0.9365 0.22283,0.2599 0.57428,0.385 0.90526,0.385 0.1168,0 0.22968,-0.01 0.34337,-0.042 l 0.30176,0 0.63472,0 0.46824,0 0.0416,0 1.71687,0 0.50986,0 0,-0.5099 0,-0.4474 0,-0.5099 -0.35378,0 0.20811,-0.2185 0.14567,-0.1457 0,-0.2081 0,-0.437 0,-0.50991 -0.50986,0 -1.71687,0 -0.50986,0 -0.63472,0 -0.20811,0 -0.29135,0 -0.2081,0 -0.63472,0 -0.50986,0 z m -18.78155,0.0833 c 0.55169,0 0.99891,0.4472 0.99891,0.9989 0,0.5517 -0.44722,0.9989 -0.99891,0.9989 -0.55168,0 -0.9989,-0.4472 -0.9989,-0.9989 0,-0.5517 0.44722,-0.9989 0.9989,-0.9989 z m 0,5.6605 c -1.10336,0 -1.99781,0.8944 -1.99781,1.9978 0,1.1033 0.89445,1.9978 1.99781,1.9978 1.10337,0 1.99782,-0.8945 1.99782,-1.9978 0,-1.1034 -0.89445,-1.9978 -1.99782,-1.9978 z m 4.81765,0.1456 0,0.5099 0,2.7366 0,0.5098 0.50986,0 0.62432,0 0.21851,0 0.29135,0 0.2081,0 0.63473,0 0.50985,0 0,-0.2185 c 0.221,0.1659 0.49547,0.2601 0.77,0.2601 0.12028,0 0.23652,-0.01 0.35378,-0.042 l 0.29134,0 0.63473,0 0.50985,0 0,-0.1144 c 0.19351,0.1091 0.42634,0.156 0.64513,0.156 0.12675,0 0.25188,-0.01 0.37459,-0.042 l 0.29135,0 0.63472,0 0.50986,0 0,-0.2081 c 0.21551,0.1682 0.49245,0.2497 0.75959,0.2497 0.1168,0 0.22968,-0.01 0.34337,-0.042 l 0.30176,0 0.63472,0 0.50986,0 0.0936,0 0.63472,0 0.29135,0 c 0.11771,0.032 0.24331,0.052 0.36418,0.052 0.37642,0 0.75162,-0.1865 0.9885,-0.4786 0.23717,-0.2942 0.34337,-0.6814 0.34338,-1.0717 -1e-5,-0.3895 -0.10638,-0.7577 -0.34338,-1.051 -4.8e-4,0 4.8e-4,-0.01 0,-0.01 -0.23658,-0.2922 -0.6121,-0.4786 -0.9885,-0.4786 -0.0486,0 -0.10749,0.016 -0.15608,0.021 l 0,-0.2289 0,-0.5099 -0.49945,0 -0.63472,0 -0.49946,0 0,0.5099 0,0.2601 -0.10405,0 -0.63472,0 -0.20811,0 -0.29135,0 -0.21851,0 -0.62432,0 -0.50985,0 0,0.2706 c -0.29373,-0.2446 -0.66472,-0.3226 -1.07175,-0.3226 -0.15665,0 -0.31212,0.011 -0.46824,0.031 -0.15494,0.019 -0.30497,0.057 -0.45783,0.094 l -0.0104,0 0,-0.333 0,-0.5099 -0.50986,0 -0.63473,0 -0.49945,0 0,0.5099 0,0.2289 c -0.0476,0 -0.0981,-0.021 -0.14567,-0.021 -0.37641,0 -0.75192,0.1864 -0.98851,0.4786 -3.1e-4,3e-4 3.2e-4,0.01 0,0.01 -0.003,0 -0.007,0.01 -0.0104,0.01 -0.0232,-0.035 -0.0453,-0.072 -0.0728,-0.1041 -0.22111,-0.2617 -0.57508,-0.3954 -0.90526,-0.3954 -0.05,0 -0.0957,0.015 -0.14567,0.021 l 0,-0.2289 0,-0.5099 -0.50986,0 -0.62432,0 -0.50986,0 z m 13.9639,0.77 0,0.5099 0,1.1966 c 0,0.3412 0.0805,0.6758 0.30175,0.9365 0.22283,0.2599 0.57428,0.3849 0.90526,0.3849 0.1168,0 0.22968,-0.01 0.34337,-0.042 l 0.30176,0 0.63472,0 0.46824,0 0.0416,0 1.71687,0 0.50986,0 0,-0.5098 0,-0.4475 0,-0.5098 -0.35378,0 0.20811,-0.2185 0.14567,-0.1457 0,-0.2081 0,-0.437 0,-0.5099 -0.50986,0 -1.71687,0 -0.50986,0 -0.63472,0 -0.20811,0 -0.29135,0 -0.2081,0 -0.63472,0 -0.50986,0 z m -18.78155,0.083 c 0.55169,0 0.99891,0.4472 0.99891,0.9989 0,0.5516 -0.44722,0.9989 -0.99891,0.9989 -0.55168,0 -0.9989,-0.4473 -0.9989,-0.9989 0,-0.5517 0.44722,-0.9989 0.9989,-0.9989 z m 0,5.6604 c -1.10336,0 -1.99781,0.8945 -1.99781,1.9979 0,1.1033 0.89445,1.9978 1.99781,1.9978 1.10337,0 1.99782,-0.8945 1.99782,-1.9978 0,-1.1034 -0.89445,-1.9979 -1.99782,-1.9979 z m 4.81765,0.1457 0,0.5099 0,2.7366 0,0.5098 0.50986,0 0.62432,0 0.21851,0 0.29135,0 0.2081,0 0.63473,0 0.50985,0 0,-0.2185 c 0.221,0.1659 0.49547,0.2601 0.77,0.2601 0.12028,0 0.23652,-0.01 0.35378,-0.042 l 0.29134,0 0.63473,0 0.50985,0 0,-0.1144 c 0.19351,0.1091 0.42634,0.156 0.64513,0.156 0.12675,0 0.25188,-0.01 0.37459,-0.042 l 0.29135,0 0.63472,0 0.50986,0 0,-0.2081 c 0.21551,0.1682 0.49245,0.2497 0.75959,0.2497 0.1168,0 0.22968,-0.01 0.34337,-0.042 l 0.30176,0 0.63472,0 0.50986,0 0.0936,0 0.63472,0 0.29135,0 c 0.11771,0.031 0.24331,0.052 0.36418,0.052 0.37642,0 0.75162,-0.1866 0.9885,-0.4787 0.23717,-0.2942 0.34337,-0.6814 0.34338,-1.0717 -1e-5,-0.3895 -0.10638,-0.7577 -0.34338,-1.051 -4.8e-4,0 4.8e-4,-0.01 0,-0.01 -0.23658,-0.2923 -0.6121,-0.4787 -0.9885,-0.4787 -0.0486,0 -0.10749,0.016 -0.15608,0.021 l 0,-0.2289 0,-0.5098 -0.49945,0 -0.63472,0 -0.49946,0 0,0.5098 0,0.2602 -0.10405,0 -0.63472,0 -0.20811,0 -0.29135,0 -0.21851,0 -0.62432,0 -0.50985,0 0,0.2705 c -0.29373,-0.2445 -0.66472,-0.3226 -1.07175,-0.3226 -0.15665,0 -0.31212,0.011 -0.46824,0.031 -0.15494,0.019 -0.30497,0.057 -0.45783,0.094 l -0.0104,0 0,-0.333 0,-0.5098 -0.50986,0 -0.63473,0 -0.49945,0 0,0.5098 0,0.2289 c -0.0476,-0.01 -0.0981,-0.021 -0.14567,-0.021 -0.37641,0 -0.75192,0.1864 -0.98851,0.4787 -3.1e-4,2e-4 3.2e-4,0.01 0,0.01 -0.003,0 -0.007,0.01 -0.0104,0.01 -0.0232,-0.035 -0.0453,-0.072 -0.0728,-0.1041 -0.22111,-0.2616 -0.57508,-0.3954 -0.90526,-0.3954 -0.05,0 -0.0957,0.015 -0.14567,0.021 l 0,-0.2289 0,-0.5099 -0.50986,0 -0.62432,0 -0.50986,0 z m 13.9639,0.77 0,0.5099 0,1.1966 c 0,0.3412 0.0805,0.6758 0.30175,0.9365 0.22283,0.2599 0.57428,0.3849 0.90526,0.3849 0.1168,0 0.22968,-0.01 0.34337,-0.042 l 0.30176,0 0.63472,0 0.46824,0 0.0416,0 1.71687,0 0.50986,0 0,-0.5098 0,-0.4474 0,-0.5099 -0.35378,0 0.20811,-0.2185 0.14567,-0.1457 0,-0.2081 0,-0.437 0,-0.5099 -0.50986,0 -1.71687,0 -0.50986,0 -0.63472,0 -0.20811,0 -0.29135,0 -0.2081,0 -0.63472,0 -0.50986,0 z m -18.78155,0.083 c 0.55169,0 0.99891,0.4473 0.99891,0.999 0,0.5516 -0.44722,0.9989 -0.99891,0.9989 -0.55168,0 -0.9989,-0.4473 -0.9989,-0.9989 0,-0.5517 0.44722,-0.999 0.9989,-0.999 z"
       id="path6846"
       inkscape:connector-curvature="0" />
    <path
       inkscape:connector-curvature="0"
       id="path7177"
       d="m 148.9964,992.37528 c -1.10336,0 -1.99781,0.89446 -1.99781,1.99782 0,1.10336 0.89445,1.99781 1.99781,1.99781 1.10337,0 1.99782,-0.89445 1.99782,-1.99781 0,-1.10336 -0.89445,-1.99782 -1.99782,-1.99782 z m 4.81765,0.14568 0,0.50986 0,2.73659 0,0.50985 0.50986,0 0.62432,0 0.21851,0 0.29135,0 0.2081,0 0.63473,0 0.50985,0 0,-0.21851 c 0.221,0.16592 0.49547,0.26014 0.77,0.26014 0.12028,0 0.23652,-0.01 0.35378,-0.0416 l 0.29134,0 0.63473,0 0.50985,0 0,-0.11445 c 0.19351,0.10913 0.42634,0.15608 0.64513,0.15608 0.12675,0 0.25188,-0.009 0.37459,-0.0416 l 0.29135,0 0.63472,0 0.50986,0 0,-0.2081 c 0.21551,0.16813 0.49245,0.24973 0.75959,0.24973 0.1168,0 0.22968,-0.0104 0.34337,-0.0416 l 0.30176,0 0.63472,0 0.50986,0 0.0936,0 0.63472,0 0.29135,0 c 0.11771,0.0318 0.24331,0.052 0.36418,0.052 0.37642,0 0.75162,-0.18654 0.9885,-0.47864 0.23717,-0.29423 0.34337,-0.68142 0.34338,-1.07175 -1e-5,-0.38948 -0.10638,-0.75763 -0.34338,-1.05093 -4.8e-4,-7.4e-4 4.8e-4,-0.0101 0,-0.0104 -0.23658,-0.29226 -0.6121,-0.47864 -0.9885,-0.47864 -0.0486,0 -0.10749,0.0158 -0.15608,0.0208 l 0,-0.22892 0,-0.50986 -0.49945,0 -0.63472,0 -0.49946,0 0,0.50986 0,0.26013 -0.10405,0 -0.63472,0 -0.20811,0 -0.29135,0 -0.21851,0 -0.62432,0 -0.50985,0 0,0.27054 c -0.29373,-0.24455 -0.66472,-0.32256 -1.07175,-0.32256 -0.15665,0 -0.31212,0.0112 -0.46824,0.0312 -0.15494,0.0189 -0.30497,0.0564 -0.45783,0.0937 l -0.0104,0 0,-0.33297 0,-0.50986 -0.50986,0 -0.63473,0 -0.49945,0 0,0.50986 0,0.22892 c -0.0476,-0.005 -0.0981,-0.0208 -0.14567,-0.0208 -0.37641,0 -0.75192,0.18639 -0.98851,0.47864 -3.1e-4,2.5e-4 3.2e-4,0.0101 0,0.0104 -0.003,0.004 -0.007,0.007 -0.0104,0.0104 -0.0232,-0.0347 -0.0453,-0.0715 -0.0728,-0.10405 -0.22111,-0.2617 -0.57508,-0.3954 -0.90526,-0.39541 -0.05,0 -0.0957,0.0151 -0.14567,0.0208 l 0,-0.22891 0,-0.50987 -0.50986,0 -0.62432,0 -0.50986,0 z m 13.9639,0.76999 0,0.50986 0,1.19661 c 0,0.34123 0.0805,0.67584 0.30175,0.93647 0.22283,0.25996 0.57428,0.385 0.90526,0.385 0.1168,0 0.22968,-0.0104 0.34337,-0.0416 l 0.30176,0 0.63472,0 0.46824,0 0.0416,0 1.71687,0 0.50986,0 0,-0.50985 0,-0.44743 0,-0.50986 -0.35378,0 0.20811,-0.21851 0.14567,-0.14567 0,-0.20811 0,-0.43702 0,-0.50986 -0.50986,0 -1.71687,0 -0.50986,0 -0.63472,0 -0.20811,0 -0.29135,0 -0.2081,0 -0.63472,0 -0.50986,0 z m -18.78155,0.0832 c 0.5534,0 0.99891,0.44551 0.99891,0.99891 0,0.55339 -0.44551,0.9989 -0.99891,0.9989 -0.55339,0 -0.9989,-0.44551 -0.9989,-0.9989 0,-0.5534 0.44551,-0.99891 0.9989,-0.99891 z m 0,5.66048 c -1.10336,0 -1.99781,0.89445 -1.99781,1.99787 0,1.1033 0.89445,1.9978 1.99781,1.9978 1.10337,0 1.99782,-0.8945 1.99782,-1.9978 0,-1.10342 -0.89445,-1.99787 -1.99782,-1.99787 z m 4.81765,0.14567 0,0.50986 0,2.73664 0,0.5099 0.50986,0 0.62432,0 0.21851,0 0.29135,0 0.2081,0 0.63473,0 0.50985,0 0,-0.2186 c 0.221,0.166 0.49547,0.2602 0.77,0.2602 0.12028,0 0.23652,-0.01 0.35378,-0.042 l 0.29134,0 0.63473,0 0.50985,0 0,-0.1145 c 0.19351,0.1091 0.42634,0.1561 0.64513,0.1561 0.12675,0 0.25188,-0.01 0.37459,-0.042 l 0.29135,0 0.63472,0 0.50986,0 0,-0.2082 c 0.21551,0.1682 0.49245,0.2498 0.75959,0.2498 0.1168,0 0.22968,-0.01 0.34337,-0.042 l 0.30176,0 0.63472,0 0.50986,0 0.0936,0 0.63472,0 0.29135,0 c 0.11771,0.032 0.24331,0.052 0.36418,0.052 0.37642,0 0.75162,-0.1866 0.9885,-0.4787 0.23717,-0.2942 0.34337,-0.6814 0.34338,-1.0717 -1e-5,-0.3895 -0.10638,-0.7576 -0.34338,-1.0509 -4.8e-4,-8e-4 4.8e-4,-0.01 0,-0.01 -0.23658,-0.2922 -0.6121,-0.47863 -0.9885,-0.47863 -0.0486,0 -0.10749,0.0158 -0.15608,0.0208 l 0,-0.22891 0,-0.50986 -0.49945,0 -0.63472,0 -0.49946,0 0,0.50986 0,0.26013 -0.10405,0 -0.63472,0 -0.20811,0 -0.29135,0 -0.21851,0 -0.62432,0 -0.50985,0 0,0.27051 c -0.29373,-0.24452 -0.66472,-0.32254 -1.07175,-0.32254 -0.15665,0 -0.31212,0.0112 -0.46824,0.0312 -0.15494,0.0189 -0.30497,0.0564 -0.45783,0.0937 l -0.0104,0 0,-0.33302 0,-0.50986 -0.50986,0 -0.63473,0 -0.49945,0 0,0.50986 0,0.22891 c -0.0476,-0.005 -0.0981,-0.0208 -0.14567,-0.0208 -0.37641,0 -0.75192,0.18641 -0.98851,0.47871 -3.1e-4,2e-4 3.2e-4,0.01 0,0.01 -0.003,0 -0.007,0.01 -0.0104,0.01 -0.0232,-0.035 -0.0453,-0.072 -0.0728,-0.1041 -0.22111,-0.2617 -0.57508,-0.39541 -0.90526,-0.39541 -0.05,0 -0.0957,0.0151 -0.14567,0.0208 l 0,-0.22892 0,-0.50986 -0.50986,0 -0.62432,0 -0.50986,0 z m 13.9639,0.76999 0,0.50991 0,1.1966 c 0,0.3412 0.0805,0.6758 0.30175,0.9365 0.22283,0.2599 0.57428,0.385 0.90526,0.385 0.1168,0 0.22968,-0.01 0.34337,-0.042 l 0.30176,0 0.63472,0 0.46824,0 0.0416,0 1.71687,0 0.50986,0 0,-0.5099 0,-0.4474 0,-0.5099 -0.35378,0 0.20811,-0.2185 0.14567,-0.1457 0,-0.2081 0,-0.437 0,-0.50991 -0.50986,0 -1.71687,0 -0.50986,0 -0.63472,0 -0.20811,0 -0.29135,0 -0.2081,0 -0.63472,0 -0.50986,0 z m -18.78155,0.0833 c 0.55169,0 0.99891,0.4472 0.99891,0.9989 0,0.5517 -0.44722,0.9989 -0.99891,0.9989 -0.55168,0 -0.9989,-0.4472 -0.9989,-0.9989 0,-0.5517 0.44722,-0.9989 0.9989,-0.9989 z m 0,5.6605 c -1.10336,0 -1.99781,0.8944 -1.99781,1.9978 0,1.1033 0.89445,1.9978 1.99781,1.9978 1.10337,0 1.99782,-0.8945 1.99782,-1.9978 0,-1.1034 -0.89445,-1.9978 -1.99782,-1.9978 z m 4.81765,0.1456 0,0.5099 0,2.7366 0,0.5098 0.50986,0 0.62432,0 0.21851,0 0.29135,0 0.2081,0 0.63473,0 0.50985,0 0,-0.2185 c 0.221,0.1659 0.49547,0.2601 0.77,0.2601 0.12028,0 0.23652,-0.01 0.35378,-0.042 l 0.29134,0 0.63473,0 0.50985,0 0,-0.1144 c 0.19351,0.1091 0.42634,0.156 0.64513,0.156 0.12675,0 0.25188,-0.01 0.37459,-0.042 l 0.29135,0 0.63472,0 0.50986,0 0,-0.2081 c 0.21551,0.1682 0.49245,0.2497 0.75959,0.2497 0.1168,0 0.22968,-0.01 0.34337,-0.042 l 0.30176,0 0.63472,0 0.50986,0 0.0936,0 0.63472,0 0.29135,0 c 0.11771,0.032 0.24331,0.052 0.36418,0.052 0.37642,0 0.75162,-0.1865 0.9885,-0.4786 0.23717,-0.2942 0.34337,-0.6814 0.34338,-1.0717 -1e-5,-0.3895 -0.10638,-0.7577 -0.34338,-1.051 -4.8e-4,0 4.8e-4,-0.01 0,-0.01 -0.23658,-0.2922 -0.6121,-0.4786 -0.9885,-0.4786 -0.0486,0 -0.10749,0.016 -0.15608,0.021 l 0,-0.2289 0,-0.5099 -0.49945,0 -0.63472,0 -0.49946,0 0,0.5099 0,0.2601 -0.10405,0 -0.63472,0 -0.20811,0 -0.29135,0 -0.21851,0 -0.62432,0 -0.50985,0 0,0.2706 c -0.29373,-0.2446 -0.66472,-0.3226 -1.07175,-0.3226 -0.15665,0 -0.31212,0.011 -0.46824,0.031 -0.15494,0.019 -0.30497,0.057 -0.45783,0.094 l -0.0104,0 0,-0.333 0,-0.5099 -0.50986,0 -0.63473,0 -0.49945,0 0,0.5099 0,0.2289 c -0.0476,0 -0.0981,-0.021 -0.14567,-0.021 -0.37641,0 -0.75192,0.1864 -0.98851,0.4786 -3.1e-4,3e-4 3.2e-4,0.01 0,0.01 -0.003,0 -0.007,0.01 -0.0104,0.01 -0.0232,-0.035 -0.0453,-0.072 -0.0728,-0.1041 -0.22111,-0.2617 -0.57508,-0.3954 -0.90526,-0.3954 -0.05,0 -0.0957,0.015 -0.14567,0.021 l 0,-0.2289 0,-0.5099 -0.50986,0 -0.62432,0 -0.50986,0 z m 13.9639,0.77 0,0.5099 0,1.1966 c 0,0.3412 0.0805,0.6758 0.30175,0.9365 0.22283,0.2599 0.57428,0.3849 0.90526,0.3849 0.1168,0 0.22968,-0.01 0.34337,-0.042 l 0.30176,0 0.63472,0 0.46824,0 0.0416,0 1.71687,0 0.50986,0 0,-0.5098 0,-0.4475 0,-0.5098 -0.35378,0 0.20811,-0.2185 0.14567,-0.1457 0,-0.2081 0,-0.437 0,-0.5099 -0.50986,0 -1.71687,0 -0.50986,0 -0.63472,0 -0.20811,0 -0.29135,0 -0.2081,0 -0.63472,0 -0.50986,0 z m -18.78155,0.083 c 0.55169,0 0.99891,0.4472 0.99891,0.9989 0,0.5516 -0.44722,0.9989 -0.99891,0.9989 -0.55168,0 -0.9989,-0.4473 -0.9989,-0.9989 0,-0.5517 0.44722,-0.9989 0.9989,-0.9989 z m 0,5.6604 c -1.10336,0 -1.99781,0.8945 -1.99781,1.9979 0,1.1033 0.89445,1.9978 1.99781,1.9978 1.10337,0 1.99782,-0.8945 1.99782,-1.9978 0,-1.1034 -0.89445,-1.9979 -1.99782,-1.9979 z m 4.81765,0.1457 0,0.5099 0,2.7366 0,0.5098 0.50986,0 0.62432,0 0.21851,0 0.29135,0 0.2081,0 0.63473,0 0.50985,0 0,-0.2185 c 0.221,0.1659 0.49547,0.2601 0.77,0.2601 0.12028,0 0.23652,-0.01 0.35378,-0.042 l 0.29134,0 0.63473,0 0.50985,0 0,-0.1144 c 0.19351,0.1091 0.42634,0.156 0.64513,0.156 0.12675,0 0.25188,-0.01 0.37459,-0.042 l 0.29135,0 0.63472,0 0.50986,0 0,-0.2081 c 0.21551,0.1682 0.49245,0.2497 0.75959,0.2497 0.1168,0 0.22968,-0.01 0.34337,-0.042 l 0.30176,0 0.63472,0 0.50986,0 0.0936,0 0.63472,0 0.29135,0 c 0.11771,0.031 0.24331,0.052 0.36418,0.052 0.37642,0 0.75162,-0.1866 0.9885,-0.4787 0.23717,-0.2942 0.34337,-0.6814 0.34338,-1.0717 -1e-5,-0.3895 -0.10638,-0.7577 -0.34338,-1.051 -4.8e-4,0 4.8e-4,-0.01 0,-0.01 -0.23658,-0.2923 -0.6121,-0.4787 -0.9885,-0.4787 -0.0486,0 -0.10749,0.016 -0.15608,0.021 l 0,-0.2289 0,-0.5098 -0.49945,0 -0.63472,0 -0.49946,0 0,0.5098 0,0.2602 -0.10405,0 -0.63472,0 -0.20811,0 -0.29135,0 -0.21851,0 -0.62432,0 -0.50985,0 0,0.2705 c -0.29373,-0.2445 -0.66472,-0.3226 -1.07175,-0.3226 -0.15665,0 -0.31212,0.011 -0.46824,0.031 -0.15494,0.019 -0.30497,0.057 -0.45783,0.094 l -0.0104,0 0,-0.333 0,-0.5098 -0.50986,0 -0.63473,0 -0.49945,0 0,0.5098 0,0.2289 c -0.0476,-0.01 -0.0981,-0.021 -0.14567,-0.021 -0.37641,0 -0.75192,0.1864 -0.98851,0.4787 -3.1e-4,2e-4 3.2e-4,0.01 0,0.01 -0.003,0 -0.007,0.01 -0.0104,0.01 -0.0232,-0.035 -0.0453,-0.072 -0.0728,-0.1041 -0.22111,-0.2616 -0.57508,-0.3954 -0.90526,-0.3954 -0.05,0 -0.0957,0.015 -0.14567,0.021 l 0,-0.2289 0,-0.5099 -0.50986,0 -0.62432,0 -0.50986,0 z m 13.9639,0.77 0,0.5099 0,1.1966 c 0,0.3412 0.0805,0.6758 0.30175,0.9365 0.22283,0.2599 0.57428,0.3849 0.90526,0.3849 0.1168,0 0.22968,-0.01 0.34337,-0.042 l 0.30176,0 0.63472,0 0.46824,0 0.0416,0 1.71687,0 0.50986,0 0,-0.5098 0,-0.4474 0,-0.5099 -0.35378,0 0.20811,-0.2185 0.14567,-0.1457 0,-0.2081 0,-0.437 0,-0.5099 -0.50986,0 -1.71687,0 -0.50986,0 -0.63472,0 -0.20811,0 -0.29135,0 -0.2081,0 -0.63472,0 -0.50986,0 z m -18.78155,0.083 c 0.55169,0 0.99891,0.4473 0.99891,0.999 0,0.5516 -0.44722,0.9989 -0.99891,0.9989 -0.55168,0 -0.9989,-0.4473 -0.9989,-0.9989 0,-0.5517 0.44722,-0.999 0.9989,-0.999 z"
       style="fill:url(#radialGradient6843);fill-opacity:1;stroke:none;stroke-width:0.66593831999999997;stroke-linecap:round;stroke-linejoin:round;stroke-miterlimit:4;stroke-opacity:0.31764705999999998;stroke-dasharray:none;stroke-dashoffset:0" />
    <rect
       ry="8"
       rx="8"
       y="936.36218"
       x="12"
       height="104"
       width="104"
       id="rect6938"
       style="fill:#000000;fill-opacity:1;stroke:none;filter:url(#filter6960)" />
    <rect
       style="fill:url(#radialGradient6049);fill-opacity:1;stroke:none"
       id="rect6936-6"
       width="104"
       height="104"
       x="12"
       y="936.36218"
       rx="8"
       ry="8" />
    <rect
       ry="8"
       rx="8"
       y="932.36218"
       x="12"
       height="104"
       width="104"
       id="rect6964-2"
       style="fill:#ffffff;fill-opacity:1;stroke:none" />
    <rect
       style="opacity:0.5;fill:url(#linearGradient6051);fill-opacity:1;stroke:none"
       id="rect6975"
       width="102"
       height="102"
       x="13"
       y="933.36218"
       rx="8"
       ry="8" />
    <rect
       ry="8"
       rx="8"
       y="933.36218"
       x="13"
       height="102"
       width="102"
       id="rect7002"
       style="opacity:0.5;fill:url(#radialGradient6053);fill-opacity:1;stroke:none" />
    <text
       xml:space="preserve"
       style="font-size:24px;font-style:normal;font-weight:normal;line-height:125%;letter-spacing:0px;word-spacing:0px;fill:#000000;fill-opacity:1;stroke:none;font-family:Sans"
       x="-56"
       y="948.36218"
       id="text5893"
       sodipodi:linespacing="125%"><tspan
         sodipodi:role="line"
         id="tspan5895"
         x="-56"
         y="948.36218">128</tspan></text>
    <text
       sodipodi:linespacing="125%"
       id="text5901"
       y="1000.3622"
       x="184"
       style="font-size:16px;font-style:normal;font-weight:normal;line-height:125%;letter-spacing:0px;word-spacing:0px;fill:#000000;fill-opacity:1;stroke:none;font-family:Sans"
       xml:space="preserve"><tspan
         y="1000.3622"
         x="184"
         id="tspan5903"
         sodipodi:role="line">31 - 17</tspan></text>
    <text
       xml:space="preserve"
       style="font-size:16px;font-style:normal;font-weight:normal;line-height:125%;letter-spacing:0px;word-spacing:0px;fill:#000000;fill-opacity:1;stroke:none;font-family:Sans"
       x="172"
       y="1048.3622"
       id="text5905"
       sodipodi:linespacing="125%"><tspan
         sodipodi:role="line"
         id="tspan5907"
         x="172"
         y="1048.3622">16</tspan></text>
    <rect
       style="fill:none;stroke:#000000;stroke-width:1;stroke-linecap:round;stroke-linejoin:round;stroke-miterlimit:4;stroke-opacity:1;stroke-dasharray:none;stroke-dashoffset:0"
       id="rect5919"
       width="40"
       height="40"
       x="140"
       y="60"
       transform="translate(0,924.36218)"
       rx="4.5902016e-07" />
    <rect
       style="fill:none;stroke:#000000;stroke-width:1;stroke-linecap:round;stroke-linejoin:round;stroke-miterlimit:4;stroke-opacity:1;stroke-dasharray:none;stroke-dashoffset:0"
       id="rect5921"
       width="24"
       height="24"
       x="140"
       y="1032.3622"
       rx="4.5902016e-07" />
    <rect
       style="fill:#b3b3b3;fill-opacity:1;stroke:none"
       id="rect6935"
       width="32"
       height="4"
       x="144"
       y="56"
       transform="translate(0,924.36218)"
       rx="4.5902016e-07" />
    <rect
       style="fill:#b3b3b3;fill-opacity:1;stroke:none"
       id="rect6937"
       width="4"
       height="32"
       x="136"
       y="64"
       transform="translate(0,924.36218)"
       rx="4.5902016e-07" />
    <rect
       style="fill:#b3b3b3;fill-opacity:1;stroke:none"
       id="rect6939"
       width="16"
       height="4"
       x="144"
       y="104"
       rx="4.5902016e-07"
       transform="translate(0,924.36218)" />
    <rect
       style="fill:#b3b3b3;fill-opacity:1;stroke:none"
       id="rect6941"
       width="4"
       height="16"
       x="136"
       y="112"
       transform="translate(0,924.36218)"
       rx="4.5902016e-07" />
    <path
       style="fill:url(#radialGradient6978);fill-opacity:1.0;stroke:none"
       d="M 145.5 112 C 144.67157 112 144 112.67157 144 113.5 C 144 114.32843 144.67157 115 145.5 115 C 146.32843 115 147 114.32843 147 113.5 C 147 112.67157 146.32843 112 145.5 112 z M 150.09375 112 C 149.48544 112 149 112.48544 149 113.09375 L 149 113.90625 C 149 114.51456 149.48544 115 150.09375 115 L 158.90625 115 C 159.51456 115 160 114.51456 160 113.90625 L 160 113.09375 C 160 112.48544 159.51456 112 158.90625 112 L 150.09375 112 z M 145.5 116 C 144.67157 116 144 116.67157 144 117.5 C 144 118.32843 144.67157 119 145.5 119 C 146.32843 119 147 118.32843 147 117.5 C 147 116.67157 146.32843 116 145.5 116 z M 150.09375 116 C 149.48544 116 149 116.48544 149 117.09375 L 149 117.90625 C 149 118.51456 149.48544 119 150.09375 119 L 158.90625 119 C 159.51456 119 160 118.51456 160 117.90625 L 160 117.09375 C 160 116.48544 159.51456 116 158.90625 116 L 150.09375 116 z M 145.5 120 C 144.67157 120 144 120.67157 144 121.5 C 144 122.32843 144.67157 123 145.5 123 C 146.32843 123 147 122.32843 147 121.5 C 147 120.67157 146.32843 120 145.5 120 z M 150.09375 120 C 149.48544 120 149 120.48544 149 121.09375 L 149 121.90625 C 149 122.51456 149.48544 123 150.09375 123 L 158.90625 123 C 159.51456 123 160 122.51456 160 121.90625 L 160 121.09375 C 160 120.48544 159.51456 120 158.90625 120 L 150.09375 120 z M 145.5 124 C 144.67157 124 144 124.67157 144 125.5 C 144 126.32843 144.67157 127 145.5 127 C 146.32843 127 147 126.32843 147 125.5 C 147 124.67157 146.32843 124 145.5 124 z M 150.09375 124 C 149.48544 124 149 124.48544 149 125.09375 L 149 125.90625 C 149 126.51456 149.48544 127 150.09375 127 L 158.90625 127 C 159.51456 127 160 126.51456 160 125.90625 L 160 125.09375 C 160 124.48544 159.51456 124 158.90625 124 L 150.09375 124 z "
       transform="translate(0,924.36218)"
       id="path5944" />
    <path
       inkscape:connector-curvature="0"
       id="path6848"
       d="m 34.393335,952.11014 c -2.96874,0 -5.37539,2.40667 -5.37539,5.37541 0,2.96875 2.40665,5.37539 5.37539,5.37539 2.96877,0 5.37541,-2.40664 5.37541,-5.37539 0,-2.96874 -2.40664,-5.37541 -5.37541,-5.37541 z m 12.96255,0.39198 0,1.37184 0,7.36318 0,1.37182 1.37185,0 1.67982,0 0.58793,0 0.78392,0 0.55992,0 1.70783,0 1.37182,0 0,-0.58793 c 0.59463,0.44643 1.33313,0.69994 2.07179,0.69994 0.32363,0 0.63639,-0.0269 0.9519,-0.11193 l 0.78389,0 1.70783,0 1.37182,0 0,-0.30794 c 0.52066,0.29363 1.14712,0.41995 1.73581,0.41995 0.34104,0 0.67772,-0.0242 1.00789,-0.11193 l 0.78391,0 1.7078,0 1.37185,0 0,-0.55992 c 0.57986,0.45238 1.32501,0.67193 2.04379,0.67193 0.31426,0 0.61798,-0.028 0.92388,-0.11193 l 0.81193,0 1.7078,0 1.37185,0 0.25184,0 1.7078,0 0.78392,0 c 0.31672,0.0856 0.65466,0.13992 0.97988,0.13992 1.01281,0 2.02233,-0.50192 2.65969,-1.28785 0.63814,-0.79167 0.92389,-1.83346 0.92391,-2.88369 -2e-5,-1.04795 -0.28623,-2.03851 -0.92391,-2.82768 -0.001,-0.002 0.001,-0.0272 0,-0.028 -0.63655,-0.78636 -1.64694,-1.28785 -2.65969,-1.28785 -0.13077,0 -0.28922,0.0425 -0.41996,0.056 l 0,-0.61594 0,-1.37185 -1.34384,0 -1.7078,0 -1.34386,0 0,1.37185 0,0.69991 -0.27997,0 -1.7078,0 -0.55995,0 -0.78391,0 -0.58794,0 -1.67981,0 -1.37183,0 0,0.72793 c -0.79032,-0.658 -1.78852,-0.86789 -2.88369,-0.86789 -0.42149,0 -0.8398,0.0301 -1.25986,0.084 -0.41689,0.0508 -0.82057,0.15175 -1.23186,0.25211 l -0.028,0 0,-0.8959 0,-1.37185 -1.37185,0 -1.70783,0 -1.34384,0 0,1.37185 0,0.61594 c -0.12807,-0.0135 -0.26395,-0.056 -0.39194,-0.056 -1.01279,0 -2.02315,0.50151 -2.65972,1.28785 -8.4e-4,6.7e-4 8.6e-4,0.0272 0,0.028 -0.008,0.0108 -0.0188,0.0188 -0.028,0.028 -0.0624,-0.0934 -0.12188,-0.19238 -0.19588,-0.27996 -0.59492,-0.70414 -1.54733,-1.06387 -2.43572,-1.0639 -0.13453,0 -0.2575,0.0406 -0.39195,0.056 l 0,-0.61591 0,-1.37188 -1.37185,0 -1.67982,0 -1.37185,0 z m 37.57181,2.07176 0,1.37185 0,3.21964 c 0,0.91813 0.21659,1.81844 0.8119,2.51971 0.59955,0.69945 1.54517,1.03589 2.43572,1.03589 0.31427,0 0.61799,-0.028 0.92389,-0.11193 l 0.81192,0 1.70781,0 1.25986,0 0.11193,0 4.61948,0 1.37185,0 0,-1.37182 0,-1.20387 0,-1.37185 -0.9519,0 0.55995,-0.58793 0.39195,-0.39195 0,-0.55995 0,-1.17586 0,-1.37185 -1.37185,0 -4.61948,0 -1.37185,0 -1.7078,0 -0.55995,0 -0.78392,0 -0.55992,0 -1.7078,0 -1.37185,0 z m -50.53436,0.22386 c 1.489,0 2.6877,1.19871 2.6877,2.68771 0,1.48897 -1.1987,2.68768 -2.6877,2.68768 -1.48897,0 -2.68768,-1.19871 -2.68768,-2.68768 0,-1.489 1.19871,-2.68771 2.68768,-2.68771 z m 0,15.23031 c -2.96874,0 -5.37539,2.40664 -5.37539,5.37554 0,2.96858 2.40665,5.37534 5.37539,5.37534 2.96877,0 5.37541,-2.40676 5.37541,-5.37534 0,-2.9689 -2.40664,-5.37554 -5.37541,-5.37554 z m 12.96255,0.39194 0,1.37185 0,7.36331 0,1.37198 1.37185,0 1.67982,0 0.58793,0 0.78392,0 0.55992,0 1.70783,0 1.37182,0 0,-0.5882 c 0.59463,0.4466 1.33313,0.7001 2.07179,0.7001 0.32363,0 0.63639,-0.027 0.9519,-0.113 l 0.78389,0 1.70783,0 1.37182,0 0,-0.3081 c 0.52066,0.2936 1.14712,0.42 1.73581,0.42 0.34104,0 0.67772,-0.027 1.00789,-0.113 l 0.78391,0 1.7078,0 1.37185,0 0,-0.56017 c 0.57986,0.45257 1.32501,0.67217 2.04379,0.67217 0.31426,0 0.61798,-0.027 0.92388,-0.1131 l 0.81193,0 1.7078,0 1.37185,0 0.25184,0 1.7078,0 0.78392,0 c 0.31672,0.086 0.65466,0.14 0.97988,0.14 1.01281,0 2.02233,-0.5021 2.65969,-1.28805 0.63814,-0.79159 0.92389,-1.8334 0.92391,-2.88356 -2e-5,-1.048 -0.28623,-2.03842 -0.92391,-2.82759 -0.001,-0.002 0.001,-0.0269 0,-0.0269 -0.63655,-0.7862 -1.64694,-1.28782 -2.65969,-1.28782 -0.13077,0 -0.28922,0.0425 -0.41996,0.056 l 0,-0.61591 0,-1.37185 -1.34384,0 -1.7078,0 -1.34386,0 0,1.37185 0,0.69991 -0.27997,0 -1.7078,0 -0.55995,0 -0.78391,0 -0.58794,0 -1.67981,0 -1.37183,0 0,0.72785 c -0.79032,-0.65792 -1.78852,-0.86784 -2.88369,-0.86784 -0.42149,0 -0.8398,0.0301 -1.25986,0.084 -0.41689,0.0508 -0.82057,0.15175 -1.23186,0.25211 l -0.028,0 0,-0.89604 0,-1.37185 -1.37185,0 -1.70783,0 -1.34384,0 0,1.37185 0,0.61592 c -0.12807,-0.0135 -0.26395,-0.056 -0.39194,-0.056 -1.01279,0 -2.02315,0.50156 -2.65972,1.28804 -8.4e-4,5.3e-4 8.6e-4,0.0269 0,0.0269 -0.008,0 -0.0188,0.0269 -0.028,0.0269 -0.0624,-0.0942 -0.12188,-0.19373 -0.19588,-0.2801 -0.59492,-0.70414 -1.54733,-1.0639 -2.43572,-1.0639 -0.13453,0 -0.2575,0.0406 -0.39195,0.056 l 0,-0.61594 0,-1.37185 -1.37185,0 -1.67982,0 -1.37185,0 z m 37.57181,2.07177 0,1.37198 0,3.21962 c 0,0.91804 0.21659,1.81833 0.8119,2.51978 0.59955,0.69929 1.54517,1.03589 2.43572,1.03589 0.31427,0 0.61799,-0.027 0.92389,-0.113 l 0.81192,0 1.70781,0 1.25986,0 0.11193,0 4.61948,0 1.37185,0 0,-1.37196 0,-1.20379 0,-1.37196 -0.9519,0 0.55995,-0.5879 0.39195,-0.39203 0,-0.55992 0,-1.17581 0,-1.37198 -1.37185,0 -4.61948,0 -1.37185,0 -1.7078,0 -0.55995,0 -0.78392,0 -0.55992,0 -1.7078,0 -1.37185,0 z m -50.53436,0.22413 c 1.4844,0 2.6877,1.20325 2.6877,2.68767 0,1.48443 -1.2033,2.68768 -2.6877,2.68768 -1.48437,0 -2.68768,-1.20325 -2.68768,-2.68768 0,-1.48442 1.20331,-2.68767 2.68768,-2.68767 z m 0,15.23034 c -2.96874,0 -5.37539,2.4065 -5.37539,5.3754 0,2.9686 2.40665,5.3753 5.37539,5.3753 2.96877,0 5.37541,-2.4067 5.37541,-5.3753 0,-2.9689 -2.40664,-5.3754 -5.37541,-5.3754 z m 12.96255,0.3918 0,1.3719 0,7.3632 0,1.3717 1.37185,0 1.67982,0 0.58793,0 0.78392,0 0.55992,0 1.70783,0 1.37182,0 0,-0.5879 c 0.59463,0.4464 1.33313,0.6998 2.07179,0.6998 0.32363,0 0.63639,-0.027 0.9519,-0.113 l 0.78389,0 1.70783,0 1.37182,0 0,-0.3078 c 0.52066,0.2936 1.14712,0.4198 1.73581,0.4198 0.34104,0 0.67772,-0.027 1.00789,-0.113 l 0.78391,0 1.7078,0 1.37185,0 0,-0.56 c 0.57986,0.4526 1.32501,0.6719 2.04379,0.6719 0.31426,0 0.61798,-0.027 0.92388,-0.113 l 0.81193,0 1.7078,0 1.37185,0 0.25184,0 1.7078,0 0.78392,0 c 0.31672,0.086 0.65466,0.1399 0.97988,0.1399 1.01281,0 2.02233,-0.5018 2.65969,-1.2877 0.63814,-0.7916 0.92389,-1.8334 0.92391,-2.8836 -2e-5,-1.048 -0.28623,-2.0387 -0.92391,-2.8279 -0.001,0 0.001,-0.027 0,-0.027 -0.63655,-0.7862 -1.64694,-1.2877 -2.65969,-1.2877 -0.13077,0 -0.28922,0.043 -0.41996,0.057 l 0,-0.6159 0,-1.3719 -1.34384,0 -1.7078,0 -1.34386,0 0,1.3719 0,0.6998 -0.27997,0 -1.7078,0 -0.55995,0 -0.78391,0 -0.58794,0 -1.67981,0 -1.37183,0 0,0.7281 c -0.79032,-0.6581 -1.78852,-0.868 -2.88369,-0.868 -0.42149,0 -0.8398,0.03 -1.25986,0.083 -0.41689,0.051 -0.82057,0.1534 -1.23186,0.253 l -0.028,0 0,-0.896 0,-1.372 -1.37185,0 -1.70783,0 -1.34384,0 0,1.372 0,0.6159 c -0.12807,0 -0.26395,-0.056 -0.39194,-0.056 -1.01279,0 -2.02315,0.5015 -2.65972,1.2877 -8.4e-4,8e-4 8.6e-4,0.027 0,0.027 -0.008,0 -0.0188,0.027 -0.028,0.027 -0.0624,-0.094 -0.12188,-0.1937 -0.19588,-0.2801 -0.59492,-0.7041 -1.54733,-1.0639 -2.43572,-1.0639 -0.13453,0 -0.2575,0.04 -0.39195,0.057 l 0,-0.6158 0,-1.372 -1.37185,0 -1.67982,0 -1.37185,0 z m 37.57181,2.0718 0,1.3719 0,3.2196 c 0,0.9181 0.21659,1.8184 0.8119,2.5198 0.59955,0.6993 1.54517,1.0356 2.43572,1.0356 0.31427,0 0.61799,-0.027 0.92389,-0.113 l 0.81192,0 1.70781,0 1.25986,0 0.11193,0 4.61948,0 1.37185,0 0,-1.3716 0,-1.2041 0,-1.3717 -0.9519,0 0.55995,-0.5879 0.39195,-0.392 0,-0.5599 0,-1.1759 0,-1.3719 -1.37185,0 -4.61948,0 -1.37185,0 -1.7078,0 -0.55995,0 -0.78392,0 -0.55992,0 -1.7078,0 -1.37185,0 z m -50.53436,0.2233 c 1.4844,0 2.6877,1.2032 2.6877,2.6877 0,1.4841 -1.2033,2.6876 -2.6877,2.6876 -1.48437,0 -2.68768,-1.2035 -2.68768,-2.6876 0,-1.4845 1.20331,-2.6877 2.68768,-2.6877 z m 0,15.23007 c -2.96874,0 -5.37539,2.4067 -5.37539,5.3756 0,2.9686 2.40665,5.3754 5.37539,5.3754 2.96877,0 5.37541,-2.4068 5.37541,-5.3754 0,-2.9689 -2.40664,-5.3756 -5.37541,-5.3756 z m 12.96255,0.392 0,1.372 0,7.3632 0,1.3716 1.37185,0 1.67982,0 0.58793,0 0.78392,0 0.55992,0 1.70783,0 1.37182,0 0,-0.5879 c 0.59463,0.4464 1.33313,0.6999 2.07179,0.6999 0.32363,0 0.63639,-0.027 0.9519,-0.113 l 0.78389,0 1.70783,0 1.37182,0 0,-0.3078 c 0.52066,0.2935 1.14712,0.4197 1.73581,0.4197 0.34104,0 0.67772,-0.027 1.00789,-0.113 l 0.78391,0 1.7078,0 1.37185,0 0,-0.5599 c 0.57986,0.4525 1.32501,0.6718 2.04379,0.6718 0.31426,0 0.61798,-0.027 0.92388,-0.113 l 0.81193,0 1.7078,0 1.37185,0 0.25184,0 1.7078,0 0.78392,0 c 0.31672,0.083 0.65466,0.1399 0.97988,0.1399 1.01281,0 2.02233,-0.502 2.65969,-1.288 0.63814,-0.7916 0.92389,-1.8334 0.92391,-2.8835 -2e-5,-1.048 -0.28623,-2.0387 -0.92391,-2.8279 -0.001,0 0.001,-0.027 0,-0.027 -0.63655,-0.7865 -1.64694,-1.288 -2.65969,-1.288 -0.13077,0 -0.28922,0.043 -0.41996,0.057 l 0,-0.6159 0,-1.3717 -1.34384,0 -1.7078,0 -1.34386,0 0,1.3717 0,0.7001 -0.27997,0 -1.7078,0 -0.55995,0 -0.78391,0 -0.58794,0 -1.67981,0 -1.37183,0 0,0.7278 c -0.79032,-0.6578 -1.78852,-0.868 -2.88369,-0.868 -0.42149,0 -0.8398,0.03 -1.25986,0.083 -0.41689,0.051 -0.82057,0.1534 -1.23186,0.253 l -0.028,0 0,-0.896 0,-1.3717 -1.37185,0 -1.70783,0 -1.34384,0 0,1.3717 0,0.6159 c -0.12807,-0.027 -0.26395,-0.056 -0.39194,-0.056 -1.01279,0 -2.02315,0.5015 -2.65972,1.288 -8.4e-4,5e-4 8.6e-4,0.027 0,0.027 -0.008,0 -0.0188,0.027 -0.028,0.027 -0.0624,-0.094 -0.12188,-0.1937 -0.19588,-0.2801 -0.59492,-0.7039 -1.54733,-1.0639 -2.43572,-1.0639 -0.13453,0 -0.2575,0.04 -0.39195,0.057 l 0,-0.6159 0,-1.3719 -1.37185,0 -1.67982,0 -1.37185,0 z m 37.57181,2.0718 0,1.3719 0,3.2197 c 0,0.918 0.21659,1.8183 0.8119,2.5197 0.59955,0.6993 1.54517,1.0357 2.43572,1.0357 0.31427,0 0.61799,-0.027 0.92389,-0.113 l 0.81192,0 1.70781,0 1.25986,0 0.11193,0 4.61948,0 1.37185,0 0,-1.3717 0,-1.2038 0,-1.372 -0.9519,0 0.55995,-0.5879 0.39195,-0.392 0,-0.5599 0,-1.1758 0,-1.372 -1.37185,0 -4.61948,0 -1.37185,0 -1.7078,0 -0.55995,0 -0.78392,0 -0.55992,0 -1.7078,0 -1.37185,0 z m -50.53436,0.2233 c 1.4844,0 2.6877,1.2035 2.6877,2.688 0,1.4841 -1.2033,2.6876 -2.6877,2.6876 -1.48437,0 -2.68768,-1.2035 -2.68768,-2.6876 0,-1.4845 1.20331,-2.688 2.68768,-2.688 z"
       style="fill:none;stroke:#000000;stroke-width:4.03595734;stroke-linecap:round;stroke-linejoin:round;stroke-miterlimit:4;stroke-opacity:0.18823529;stroke-dasharray:none;stroke-dashoffset:0" />
    <path
       style="fill:#555753;fill-opacity:1;stroke:none"
       d="m 34.393335,952.11014 c -2.96874,0 -5.37539,2.40667 -5.37539,5.37541 0,2.96875 2.40665,5.37539 5.37539,5.37539 2.96877,0 5.37541,-2.40664 5.37541,-5.37539 0,-2.96874 -2.40664,-5.37541 -5.37541,-5.37541 z m 12.96255,0.39198 0,1.37184 0,7.36318 0,1.37182 1.37185,0 1.67982,0 0.58793,0 0.78392,0 0.55992,0 1.70783,0 1.37182,0 0,-0.58793 c 0.59463,0.44643 1.33313,0.69994 2.07179,0.69994 0.32363,0 0.63639,-0.0269 0.9519,-0.11193 l 0.78389,0 1.70783,0 1.37182,0 0,-0.30794 c 0.52066,0.29363 1.14712,0.41995 1.73581,0.41995 0.34104,0 0.67772,-0.0242 1.00789,-0.11193 l 0.78391,0 1.7078,0 1.37185,0 0,-0.55992 c 0.57986,0.45238 1.32501,0.67193 2.04379,0.67193 0.31426,0 0.61798,-0.028 0.92388,-0.11193 l 0.81193,0 1.7078,0 1.37185,0 0.25184,0 1.7078,0 0.78392,0 c 0.31672,0.0856 0.65466,0.13992 0.97988,0.13992 1.01281,0 2.02233,-0.50192 2.65969,-1.28785 0.63814,-0.79167 0.92389,-1.83346 0.92391,-2.88369 -2e-5,-1.04795 -0.28623,-2.03851 -0.92391,-2.82768 -0.001,-0.002 0.001,-0.0272 0,-0.028 -0.63655,-0.78636 -1.64694,-1.28785 -2.65969,-1.28785 -0.13077,0 -0.28922,0.0425 -0.41996,0.056 l 0,-0.61594 0,-1.37185 -1.34384,0 -1.7078,0 -1.34386,0 0,1.37185 0,0.69991 -0.27997,0 -1.7078,0 -0.55995,0 -0.78391,0 -0.58794,0 -1.67981,0 -1.37183,0 0,0.72793 c -0.79032,-0.658 -1.78852,-0.86789 -2.88369,-0.86789 -0.42149,0 -0.8398,0.0301 -1.25986,0.084 -0.41689,0.0508 -0.82057,0.15175 -1.23186,0.25211 l -0.028,0 0,-0.8959 0,-1.37185 -1.37185,0 -1.70783,0 -1.34384,0 0,1.37185 0,0.61594 c -0.12807,-0.0135 -0.26395,-0.056 -0.39194,-0.056 -1.01279,0 -2.02315,0.50151 -2.65972,1.28785 -8.4e-4,6.7e-4 8.6e-4,0.0272 0,0.028 -0.008,0.0108 -0.0188,0.0188 -0.028,0.028 -0.0624,-0.0934 -0.12188,-0.19238 -0.19588,-0.27996 -0.59492,-0.70414 -1.54733,-1.06387 -2.43572,-1.0639 -0.13453,0 -0.2575,0.0406 -0.39195,0.056 l 0,-0.61591 0,-1.37188 -1.37185,0 -1.67982,0 -1.37185,0 z m 37.57181,2.07176 0,1.37185 0,3.21964 c 0,0.91813 0.21659,1.81844 0.8119,2.51971 0.59955,0.69945 1.54517,1.03589 2.43572,1.03589 0.31427,0 0.61799,-0.028 0.92389,-0.11193 l 0.81192,0 1.70781,0 1.25986,0 0.11193,0 4.61948,0 1.37185,0 0,-1.37182 0,-1.20387 0,-1.37185 -0.9519,0 0.55995,-0.58793 0.39195,-0.39195 0,-0.55995 0,-1.17586 0,-1.37185 -1.37185,0 -4.61948,0 -1.37185,0 -1.7078,0 -0.55995,0 -0.78392,0 -0.55992,0 -1.7078,0 -1.37185,0 z m -50.53436,0.22386 c 1.489,0 2.6877,1.19871 2.6877,2.68771 0,1.48897 -1.1987,2.68768 -2.6877,2.68768 -1.48897,0 -2.68768,-1.19871 -2.68768,-2.68768 0,-1.489 1.19871,-2.68771 2.68768,-2.68771 z m 0,15.23031 c -2.96874,0 -5.37539,2.40664 -5.37539,5.37554 0,2.96858 2.40665,5.37534 5.37539,5.37534 2.96877,0 5.37541,-2.40676 5.37541,-5.37534 0,-2.9689 -2.40664,-5.37554 -5.37541,-5.37554 z m 12.96255,0.39194 0,1.37185 0,7.36331 0,1.37198 1.37185,0 1.67982,0 0.58793,0 0.78392,0 0.55992,0 1.70783,0 1.37182,0 0,-0.5882 c 0.59463,0.4466 1.33313,0.7001 2.07179,0.7001 0.32363,0 0.63639,-0.027 0.9519,-0.113 l 0.78389,0 1.70783,0 1.37182,0 0,-0.3081 c 0.52066,0.2936 1.14712,0.42 1.73581,0.42 0.34104,0 0.67772,-0.027 1.00789,-0.113 l 0.78391,0 1.7078,0 1.37185,0 0,-0.56017 c 0.57986,0.45257 1.32501,0.67217 2.04379,0.67217 0.31426,0 0.61798,-0.027 0.92388,-0.1131 l 0.81193,0 1.7078,0 1.37185,0 0.25184,0 1.7078,0 0.78392,0 c 0.31672,0.086 0.65466,0.14 0.97988,0.14 1.01281,0 2.02233,-0.5021 2.65969,-1.28805 0.63814,-0.79159 0.92389,-1.8334 0.92391,-2.88356 -2e-5,-1.048 -0.28623,-2.03842 -0.92391,-2.82759 -0.001,-0.002 0.001,-0.0269 0,-0.0269 -0.63655,-0.7862 -1.64694,-1.28782 -2.65969,-1.28782 -0.13077,0 -0.28922,0.0425 -0.41996,0.056 l 0,-0.61591 0,-1.37185 -1.34384,0 -1.7078,0 -1.34386,0 0,1.37185 0,0.69991 -0.27997,0 -1.7078,0 -0.55995,0 -0.78391,0 -0.58794,0 -1.67981,0 -1.37183,0 0,0.72785 c -0.79032,-0.65792 -1.78852,-0.86784 -2.88369,-0.86784 -0.42149,0 -0.8398,0.0301 -1.25986,0.084 -0.41689,0.0508 -0.82057,0.15175 -1.23186,0.25211 l -0.028,0 0,-0.89604 0,-1.37185 -1.37185,0 -1.70783,0 -1.34384,0 0,1.37185 0,0.61592 c -0.12807,-0.0135 -0.26395,-0.056 -0.39194,-0.056 -1.01279,0 -2.02315,0.50156 -2.65972,1.28804 -8.4e-4,5.3e-4 8.6e-4,0.0269 0,0.0269 -0.008,0 -0.0188,0.0269 -0.028,0.0269 -0.0624,-0.0942 -0.12188,-0.19373 -0.19588,-0.2801 -0.59492,-0.70414 -1.54733,-1.0639 -2.43572,-1.0639 -0.13453,0 -0.2575,0.0406 -0.39195,0.056 l 0,-0.61594 0,-1.37185 -1.37185,0 -1.67982,0 -1.37185,0 z m 37.57181,2.07177 0,1.37198 0,3.21962 c 0,0.91804 0.21659,1.81833 0.8119,2.51978 0.59955,0.69929 1.54517,1.03589 2.43572,1.03589 0.31427,0 0.61799,-0.027 0.92389,-0.113 l 0.81192,0 1.70781,0 1.25986,0 0.11193,0 4.61948,0 1.37185,0 0,-1.37196 0,-1.20379 0,-1.37196 -0.9519,0 0.55995,-0.5879 0.39195,-0.39203 0,-0.55992 0,-1.17581 0,-1.37198 -1.37185,0 -4.61948,0 -1.37185,0 -1.7078,0 -0.55995,0 -0.78392,0 -0.55992,0 -1.7078,0 -1.37185,0 z m -50.53436,0.22413 c 1.4844,0 2.6877,1.20325 2.6877,2.68767 0,1.48443 -1.2033,2.68768 -2.6877,2.68768 -1.48437,0 -2.68768,-1.20325 -2.68768,-2.68768 0,-1.48442 1.20331,-2.68767 2.68768,-2.68767 z m 0,15.23034 c -2.96874,0 -5.37539,2.4065 -5.37539,5.3754 0,2.9686 2.40665,5.3753 5.37539,5.3753 2.96877,0 5.37541,-2.4067 5.37541,-5.3753 0,-2.9689 -2.40664,-5.3754 -5.37541,-5.3754 z m 12.96255,0.3918 0,1.3719 0,7.3632 0,1.3717 1.37185,0 1.67982,0 0.58793,0 0.78392,0 0.55992,0 1.70783,0 1.37182,0 0,-0.5879 c 0.59463,0.4464 1.33313,0.6998 2.07179,0.6998 0.32363,0 0.63639,-0.027 0.9519,-0.113 l 0.78389,0 1.70783,0 1.37182,0 0,-0.3078 c 0.52066,0.2936 1.14712,0.4198 1.73581,0.4198 0.34104,0 0.67772,-0.027 1.00789,-0.113 l 0.78391,0 1.7078,0 1.37185,0 0,-0.56 c 0.57986,0.4526 1.32501,0.6719 2.04379,0.6719 0.31426,0 0.61798,-0.027 0.92388,-0.113 l 0.81193,0 1.7078,0 1.37185,0 0.25184,0 1.7078,0 0.78392,0 c 0.31672,0.086 0.65466,0.1399 0.97988,0.1399 1.01281,0 2.02233,-0.5018 2.65969,-1.2877 0.63814,-0.7916 0.92389,-1.8334 0.92391,-2.8836 -2e-5,-1.048 -0.28623,-2.0387 -0.92391,-2.8279 -0.001,0 0.001,-0.027 0,-0.027 -0.63655,-0.7862 -1.64694,-1.2877 -2.65969,-1.2877 -0.13077,0 -0.28922,0.043 -0.41996,0.057 l 0,-0.6159 0,-1.3719 -1.34384,0 -1.7078,0 -1.34386,0 0,1.3719 0,0.6998 -0.27997,0 -1.7078,0 -0.55995,0 -0.78391,0 -0.58794,0 -1.67981,0 -1.37183,0 0,0.7281 c -0.79032,-0.6581 -1.78852,-0.868 -2.88369,-0.868 -0.42149,0 -0.8398,0.03 -1.25986,0.083 -0.41689,0.051 -0.82057,0.1534 -1.23186,0.253 l -0.028,0 0,-0.896 0,-1.372 -1.37185,0 -1.70783,0 -1.34384,0 0,1.372 0,0.6159 c -0.12807,0 -0.26395,-0.056 -0.39194,-0.056 -1.01279,0 -2.02315,0.5015 -2.65972,1.2877 -8.4e-4,8e-4 8.6e-4,0.027 0,0.027 -0.008,0 -0.0188,0.027 -0.028,0.027 -0.0624,-0.094 -0.12188,-0.1937 -0.19588,-0.2801 -0.59492,-0.7041 -1.54733,-1.0639 -2.43572,-1.0639 -0.13453,0 -0.2575,0.04 -0.39195,0.057 l 0,-0.6158 0,-1.372 -1.37185,0 -1.67982,0 -1.37185,0 z m 37.57181,2.0718 0,1.3719 0,3.2196 c 0,0.9181 0.21659,1.8184 0.8119,2.5198 0.59955,0.6993 1.54517,1.0356 2.43572,1.0356 0.31427,0 0.61799,-0.027 0.92389,-0.113 l 0.81192,0 1.70781,0 1.25986,0 0.11193,0 4.61948,0 1.37185,0 0,-1.3716 0,-1.2041 0,-1.3717 -0.9519,0 0.55995,-0.5879 0.39195,-0.392 0,-0.5599 0,-1.1759 0,-1.3719 -1.37185,0 -4.61948,0 -1.37185,0 -1.7078,0 -0.55995,0 -0.78392,0 -0.55992,0 -1.7078,0 -1.37185,0 z m -50.53436,0.2233 c 1.4844,0 2.6877,1.2032 2.6877,2.6877 0,1.4841 -1.2033,2.6876 -2.6877,2.6876 -1.48437,0 -2.68768,-1.2035 -2.68768,-2.6876 0,-1.4845 1.20331,-2.6877 2.68768,-2.6877 z m 0,15.23007 c -2.96874,0 -5.37539,2.4067 -5.37539,5.3756 0,2.9686 2.40665,5.3754 5.37539,5.3754 2.96877,0 5.37541,-2.4068 5.37541,-5.3754 0,-2.9689 -2.40664,-5.3756 -5.37541,-5.3756 z m 12.96255,0.392 0,1.372 0,7.3632 0,1.3716 1.37185,0 1.67982,0 0.58793,0 0.78392,0 0.55992,0 1.70783,0 1.37182,0 0,-0.5879 c 0.59463,0.4464 1.33313,0.6999 2.07179,0.6999 0.32363,0 0.63639,-0.027 0.9519,-0.113 l 0.78389,0 1.70783,0 1.37182,0 0,-0.3078 c 0.52066,0.2935 1.14712,0.4197 1.73581,0.4197 0.34104,0 0.67772,-0.027 1.00789,-0.113 l 0.78391,0 1.7078,0 1.37185,0 0,-0.5599 c 0.57986,0.4525 1.32501,0.6718 2.04379,0.6718 0.31426,0 0.61798,-0.027 0.92388,-0.113 l 0.81193,0 1.7078,0 1.37185,0 0.25184,0 1.7078,0 0.78392,0 c 0.31672,0.083 0.65466,0.1399 0.97988,0.1399 1.01281,0 2.02233,-0.502 2.65969,-1.288 0.63814,-0.7916 0.92389,-1.8334 0.92391,-2.8835 -2e-5,-1.048 -0.28623,-2.0387 -0.92391,-2.8279 -0.001,0 0.001,-0.027 0,-0.027 -0.63655,-0.7865 -1.64694,-1.288 -2.65969,-1.288 -0.13077,0 -0.28922,0.043 -0.41996,0.057 l 0,-0.6159 0,-1.3717 -1.34384,0 -1.7078,0 -1.34386,0 0,1.3717 0,0.7001 -0.27997,0 -1.7078,0 -0.55995,0 -0.78391,0 -0.58794,0 -1.67981,0 -1.37183,0 0,0.7278 c -0.79032,-0.6578 -1.78852,-0.868 -2.88369,-0.868 -0.42149,0 -0.8398,0.03 -1.25986,0.083 -0.41689,0.051 -0.82057,0.1534 -1.23186,0.253 l -0.028,0 0,-0.896 0,-1.3717 -1.37185,0 -1.70783,0 -1.34384,0 0,1.3717 0,0.6159 c -0.12807,-0.027 -0.26395,-0.056 -0.39194,-0.056 -1.01279,0 -2.02315,0.5015 -2.65972,1.288 -8.4e-4,5e-4 8.6e-4,0.027 0,0.027 -0.008,0 -0.0188,0.027 -0.028,0.027 -0.0624,-0.094 -0.12188,-0.1937 -0.19588,-0.2801 -0.59492,-0.7039 -1.54733,-1.0639 -2.43572,-1.0639 -0.13453,0 -0.2575,0.04 -0.39195,0.057 l 0,-0.6159 0,-1.3719 -1.37185,0 -1.67982,0 -1.37185,0 z m 37.57181,2.0718 0,1.3719 0,3.2197 c 0,0.918 0.21659,1.8183 0.8119,2.5197 0.59955,0.6993 1.54517,1.0357 2.43572,1.0357 0.31427,0 0.61799,-0.027 0.92389,-0.113 l 0.81192,0 1.70781,0 1.25986,0 0.11193,0 4.61948,0 1.37185,0 0,-1.3717 0,-1.2038 0,-1.372 -0.9519,0 0.55995,-0.5879 0.39195,-0.392 0,-0.5599 0,-1.1758 0,-1.372 -1.37185,0 -4.61948,0 -1.37185,0 -1.7078,0 -0.55995,0 -0.78392,0 -0.55992,0 -1.7078,0 -1.37185,0 z m -50.53436,0.2233 c 1.4844,0 2.6877,1.2035 2.6877,2.688 0,1.4841 -1.2033,2.6876 -2.6877,2.6876 -1.48437,0 -2.68768,-1.2035 -2.68768,-2.6876 0,-1.4845 1.20331,-2.688 2.68768,-2.688 z"
       id="path6850"
       inkscape:connector-curvature="0" />
    <path
       inkscape:connector-curvature="0"
       id="path6854"
       d="m 34.393335,951.11014 c -2.96874,0 -5.37539,2.40667 -5.37539,5.37541 0,2.96875 2.40665,5.37539 5.37539,5.37539 2.96877,0 5.37541,-2.40664 5.37541,-5.37539 0,-2.96874 -2.40664,-5.37541 -5.37541,-5.37541 z m 12.96255,0.39198 0,1.37184 0,7.36318 0,1.37182 1.37185,0 1.67982,0 0.58793,0 0.78392,0 0.55992,0 1.70783,0 1.37182,0 0,-0.58793 c 0.59463,0.44643 1.33313,0.69994 2.07179,0.69994 0.32363,0 0.63639,-0.0269 0.9519,-0.11193 l 0.78389,0 1.70783,0 1.37182,0 0,-0.30794 c 0.52066,0.29363 1.14712,0.41995 1.73581,0.41995 0.34104,0 0.67772,-0.0242 1.00789,-0.11193 l 0.78391,0 1.7078,0 1.37185,0 0,-0.55992 c 0.57986,0.45238 1.32501,0.67193 2.04379,0.67193 0.31426,0 0.61798,-0.028 0.92388,-0.11193 l 0.81193,0 1.7078,0 1.37185,0 0.25184,0 1.7078,0 0.78392,0 c 0.31672,0.0856 0.65466,0.13992 0.97988,0.13992 1.01281,0 2.02233,-0.50192 2.65969,-1.28785 0.63814,-0.79167 0.92389,-1.83346 0.92391,-2.88369 -2e-5,-1.04795 -0.28623,-2.03851 -0.92391,-2.82768 -0.001,-0.002 0.001,-0.0272 0,-0.028 -0.63655,-0.78636 -1.64694,-1.28785 -2.65969,-1.28785 -0.13077,0 -0.28922,0.0425 -0.41996,0.056 l 0,-0.61594 0,-1.37185 -1.34384,0 -1.7078,0 -1.34386,0 0,1.37185 0,0.69991 -0.27997,0 -1.7078,0 -0.55995,0 -0.78391,0 -0.58794,0 -1.67981,0 -1.37183,0 0,0.72793 c -0.79032,-0.658 -1.78852,-0.86789 -2.88369,-0.86789 -0.42149,0 -0.8398,0.0301 -1.25986,0.084 -0.41689,0.0508 -0.82057,0.15175 -1.23186,0.25211 l -0.028,0 0,-0.8959 0,-1.37185 -1.37185,0 -1.70783,0 -1.34384,0 0,1.37185 0,0.61594 c -0.12807,-0.0135 -0.26395,-0.056 -0.39194,-0.056 -1.01279,0 -2.02315,0.50151 -2.65972,1.28785 -8.4e-4,6.7e-4 8.6e-4,0.0272 0,0.028 -0.008,0.0108 -0.0188,0.0188 -0.028,0.028 -0.0624,-0.0934 -0.12188,-0.19238 -0.19588,-0.27996 -0.59492,-0.70414 -1.54733,-1.06387 -2.43572,-1.0639 -0.13453,0 -0.2575,0.0406 -0.39195,0.056 l 0,-0.61591 0,-1.37188 -1.37185,0 -1.67982,0 -1.37185,0 z m 37.57181,2.07176 0,1.37185 0,3.21964 c 0,0.91813 0.21659,1.81844 0.8119,2.51971 0.59955,0.69945 1.54517,1.03589 2.43572,1.03589 0.31427,0 0.61799,-0.028 0.92389,-0.11193 l 0.81192,0 1.70781,0 1.25986,0 0.11193,0 4.61948,0 1.37185,0 0,-1.37182 0,-1.20387 0,-1.37185 -0.9519,0 0.55995,-0.58793 0.39195,-0.39195 0,-0.55995 0,-1.17586 0,-1.37185 -1.37185,0 -4.61948,0 -1.37185,0 -1.7078,0 -0.55995,0 -0.78392,0 -0.55992,0 -1.7078,0 -1.37185,0 z m -50.53436,0.22386 c 1.489,0 2.6877,1.19871 2.6877,2.68771 0,1.48897 -1.1987,2.68768 -2.6877,2.68768 -1.48897,0 -2.68768,-1.19871 -2.68768,-2.68768 0,-1.489 1.19871,-2.68771 2.68768,-2.68771 z m 0,15.23031 c -2.96874,0 -5.37539,2.40664 -5.37539,5.37554 0,2.96858 2.40665,5.37534 5.37539,5.37534 2.96877,0 5.37541,-2.40676 5.37541,-5.37534 0,-2.9689 -2.40664,-5.37554 -5.37541,-5.37554 z m 12.96255,0.39194 0,1.37185 0,7.36331 0,1.37198 1.37185,0 1.67982,0 0.58793,0 0.78392,0 0.55992,0 1.70783,0 1.37182,0 0,-0.5882 c 0.59463,0.4466 1.33313,0.7001 2.07179,0.7001 0.32363,0 0.63639,-0.027 0.9519,-0.113 l 0.78389,0 1.70783,0 1.37182,0 0,-0.3081 c 0.52066,0.2936 1.14712,0.42 1.73581,0.42 0.34104,0 0.67772,-0.027 1.00789,-0.113 l 0.78391,0 1.7078,0 1.37185,0 0,-0.56017 c 0.57986,0.45257 1.32501,0.67217 2.04379,0.67217 0.31426,0 0.61798,-0.027 0.92388,-0.1131 l 0.81193,0 1.7078,0 1.37185,0 0.25184,0 1.7078,0 0.78392,0 c 0.31672,0.086 0.65466,0.14 0.97988,0.14 1.01281,0 2.02233,-0.5021 2.65969,-1.28805 0.63814,-0.79159 0.92389,-1.8334 0.92391,-2.88356 -2e-5,-1.048 -0.28623,-2.03842 -0.92391,-2.82759 -0.001,-0.002 0.001,-0.0269 0,-0.0269 -0.63655,-0.7862 -1.64694,-1.28782 -2.65969,-1.28782 -0.13077,0 -0.28922,0.0425 -0.41996,0.056 l 0,-0.61591 0,-1.37185 -1.34384,0 -1.7078,0 -1.34386,0 0,1.37185 0,0.69991 -0.27997,0 -1.7078,0 -0.55995,0 -0.78391,0 -0.58794,0 -1.67981,0 -1.37183,0 0,0.72785 c -0.79032,-0.65792 -1.78852,-0.86784 -2.88369,-0.86784 -0.42149,0 -0.8398,0.0301 -1.25986,0.084 -0.41689,0.0508 -0.82057,0.15175 -1.23186,0.25211 l -0.028,0 0,-0.89604 0,-1.37185 -1.37185,0 -1.70783,0 -1.34384,0 0,1.37185 0,0.61592 c -0.12807,-0.0135 -0.26395,-0.056 -0.39194,-0.056 -1.01279,0 -2.02315,0.50156 -2.65972,1.28804 -8.4e-4,5.3e-4 8.6e-4,0.0269 0,0.0269 -0.008,0 -0.0188,0.0269 -0.028,0.0269 -0.0624,-0.0942 -0.12188,-0.19373 -0.19588,-0.2801 -0.59492,-0.70414 -1.54733,-1.0639 -2.43572,-1.0639 -0.13453,0 -0.2575,0.0406 -0.39195,0.056 l 0,-0.61594 0,-1.37185 -1.37185,0 -1.67982,0 -1.37185,0 z m 37.57181,2.07177 0,1.37198 0,3.21962 c 0,0.91804 0.21659,1.81833 0.8119,2.51978 0.59955,0.69929 1.54517,1.03589 2.43572,1.03589 0.31427,0 0.61799,-0.027 0.92389,-0.113 l 0.81192,0 1.70781,0 1.25986,0 0.11193,0 4.61948,0 1.37185,0 0,-1.37196 0,-1.20379 0,-1.37196 -0.9519,0 0.55995,-0.5879 0.39195,-0.39203 0,-0.55992 0,-1.17581 0,-1.37198 -1.37185,0 -4.61948,0 -1.37185,0 -1.7078,0 -0.55995,0 -0.78392,0 -0.55992,0 -1.7078,0 -1.37185,0 z m -50.53436,0.22413 c 1.4844,0 2.6877,1.20325 2.6877,2.68767 0,1.48443 -1.2033,2.68768 -2.6877,2.68768 -1.48437,0 -2.68768,-1.20325 -2.68768,-2.68768 0,-1.48442 1.20331,-2.68767 2.68768,-2.68767 z m 0,15.23034 c -2.96874,0 -5.37539,2.4065 -5.37539,5.3754 0,2.9686 2.40665,5.3753 5.37539,5.3753 2.96877,0 5.37541,-2.4067 5.37541,-5.3753 0,-2.9689 -2.40664,-5.3754 -5.37541,-5.3754 z m 12.96255,0.3918 0,1.3719 0,7.3632 0,1.3717 1.37185,0 1.67982,0 0.58793,0 0.78392,0 0.55992,0 1.70783,0 1.37182,0 0,-0.5879 c 0.59463,0.4464 1.33313,0.6998 2.07179,0.6998 0.32363,0 0.63639,-0.027 0.9519,-0.113 l 0.78389,0 1.70783,0 1.37182,0 0,-0.3078 c 0.52066,0.2936 1.14712,0.4198 1.73581,0.4198 0.34104,0 0.67772,-0.027 1.00789,-0.113 l 0.78391,0 1.7078,0 1.37185,0 0,-0.56 c 0.57986,0.4526 1.32501,0.6719 2.04379,0.6719 0.31426,0 0.61798,-0.027 0.92388,-0.113 l 0.81193,0 1.7078,0 1.37185,0 0.25184,0 1.7078,0 0.78392,0 c 0.31672,0.086 0.65466,0.1399 0.97988,0.1399 1.01281,0 2.02233,-0.5018 2.65969,-1.2877 0.63814,-0.7916 0.92389,-1.8334 0.92391,-2.8836 -2e-5,-1.048 -0.28623,-2.0387 -0.92391,-2.8279 -0.001,0 0.001,-0.027 0,-0.027 -0.63655,-0.7862 -1.64694,-1.2877 -2.65969,-1.2877 -0.13077,0 -0.28922,0.043 -0.41996,0.057 l 0,-0.6159 0,-1.3719 -1.34384,0 -1.7078,0 -1.34386,0 0,1.3719 0,0.6998 -0.27997,0 -1.7078,0 -0.55995,0 -0.78391,0 -0.58794,0 -1.67981,0 -1.37183,0 0,0.7281 c -0.79032,-0.6581 -1.78852,-0.868 -2.88369,-0.868 -0.42149,0 -0.8398,0.03 -1.25986,0.083 -0.41689,0.051 -0.82057,0.1534 -1.23186,0.253 l -0.028,0 0,-0.896 0,-1.372 -1.37185,0 -1.70783,0 -1.34384,0 0,1.372 0,0.6159 c -0.12807,0 -0.26395,-0.056 -0.39194,-0.056 -1.01279,0 -2.02315,0.5015 -2.65972,1.2877 -8.4e-4,8e-4 8.6e-4,0.027 0,0.027 -0.008,0 -0.0188,0.027 -0.028,0.027 -0.0624,-0.094 -0.12188,-0.1937 -0.19588,-0.2801 -0.59492,-0.7041 -1.54733,-1.0639 -2.43572,-1.0639 -0.13453,0 -0.2575,0.04 -0.39195,0.057 l 0,-0.6158 0,-1.372 -1.37185,0 -1.67982,0 -1.37185,0 z m 37.57181,2.0718 0,1.3719 0,3.2196 c 0,0.9181 0.21659,1.8184 0.8119,2.5198 0.59955,0.6993 1.54517,1.0356 2.43572,1.0356 0.31427,0 0.61799,-0.027 0.92389,-0.113 l 0.81192,0 1.70781,0 1.25986,0 0.11193,0 4.61948,0 1.37185,0 0,-1.3716 0,-1.2041 0,-1.3717 -0.9519,0 0.55995,-0.5879 0.39195,-0.392 0,-0.5599 0,-1.1759 0,-1.3719 -1.37185,0 -4.61948,0 -1.37185,0 -1.7078,0 -0.55995,0 -0.78392,0 -0.55992,0 -1.7078,0 -1.37185,0 z m -50.53436,0.2233 c 1.4844,0 2.6877,1.2032 2.6877,2.6877 0,1.4841 -1.2033,2.6876 -2.6877,2.6876 -1.48437,0 -2.68768,-1.2035 -2.68768,-2.6876 0,-1.4845 1.20331,-2.6877 2.68768,-2.6877 z m 0,15.23007 c -2.96874,0 -5.37539,2.4067 -5.37539,5.3756 0,2.9686 2.40665,5.3754 5.37539,5.3754 2.96877,0 5.37541,-2.4068 5.37541,-5.3754 0,-2.9689 -2.40664,-5.3756 -5.37541,-5.3756 z m 12.96255,0.392 0,1.372 0,7.3632 0,1.3716 1.37185,0 1.67982,0 0.58793,0 0.78392,0 0.55992,0 1.70783,0 1.37182,0 0,-0.5879 c 0.59463,0.4464 1.33313,0.6999 2.07179,0.6999 0.32363,0 0.63639,-0.027 0.9519,-0.113 l 0.78389,0 1.70783,0 1.37182,0 0,-0.3078 c 0.52066,0.2935 1.14712,0.4197 1.73581,0.4197 0.34104,0 0.67772,-0.027 1.00789,-0.113 l 0.78391,0 1.7078,0 1.37185,0 0,-0.5599 c 0.57986,0.4525 1.32501,0.6718 2.04379,0.6718 0.31426,0 0.61798,-0.027 0.92388,-0.113 l 0.81193,0 1.7078,0 1.37185,0 0.25184,0 1.7078,0 0.78392,0 c 0.31672,0.083 0.65466,0.1399 0.97988,0.1399 1.01281,0 2.02233,-0.502 2.65969,-1.288 0.63814,-0.7916 0.92389,-1.8334 0.92391,-2.8835 -2e-5,-1.048 -0.28623,-2.0387 -0.92391,-2.8279 -0.001,0 0.001,-0.027 0,-0.027 -0.63655,-0.7865 -1.64694,-1.288 -2.65969,-1.288 -0.13077,0 -0.28922,0.043 -0.41996,0.057 l 0,-0.6159 0,-1.3717 -1.34384,0 -1.7078,0 -1.34386,0 0,1.3717 0,0.7001 -0.27997,0 -1.7078,0 -0.55995,0 -0.78391,0 -0.58794,0 -1.67981,0 -1.37183,0 0,0.7278 c -0.79032,-0.6578 -1.78852,-0.868 -2.88369,-0.868 -0.42149,0 -0.8398,0.03 -1.25986,0.083 -0.41689,0.051 -0.82057,0.1534 -1.23186,0.253 l -0.028,0 0,-0.896 0,-1.3717 -1.37185,0 -1.70783,0 -1.34384,0 0,1.3717 0,0.6159 c -0.12807,-0.027 -0.26395,-0.056 -0.39194,-0.056 -1.01279,0 -2.02315,0.5015 -2.65972,1.288 -8.4e-4,5e-4 8.6e-4,0.027 0,0.027 -0.008,0 -0.0188,0.027 -0.028,0.027 -0.0624,-0.094 -0.12188,-0.1937 -0.19588,-0.2801 -0.59492,-0.7039 -1.54733,-1.0639 -2.43572,-1.0639 -0.13453,0 -0.2575,0.04 -0.39195,0.057 l 0,-0.6159 0,-1.3719 -1.37185,0 -1.67982,0 -1.37185,0 z m 37.57181,2.0718 0,1.3719 0,3.2197 c 0,0.918 0.21659,1.8183 0.8119,2.5197 0.59955,0.6993 1.54517,1.0357 2.43572,1.0357 0.31427,0 0.61799,-0.027 0.92389,-0.113 l 0.81192,0 1.70781,0 1.25986,0 0.11193,0 4.61948,0 1.37185,0 0,-1.3717 0,-1.2038 0,-1.372 -0.9519,0 0.55995,-0.5879 0.39195,-0.392 0,-0.5599 0,-1.1758 0,-1.372 -1.37185,0 -4.61948,0 -1.37185,0 -1.7078,0 -0.55995,0 -0.78392,0 -0.55992,0 -1.7078,0 -1.37185,0 z m -50.53436,0.2233 c 1.4844,0 2.6877,1.2035 2.6877,2.688 0,1.4841 -1.2033,2.6876 -2.6877,2.6876 -1.48437,0 -2.68768,-1.2035 -2.68768,-2.6876 0,-1.4845 1.20331,-2.688 2.68768,-2.688 z"
       style="fill:url(#radialGradient6856);fill-opacity:1;stroke:none" />
  </g>
</svg>
