<?xml version="1.0" encoding="UTF-8" standalone="no"?>
<!-- Created with Inkscape (http://www.inkscape.org/) -->

<svg
   xmlns:dc="http://purl.org/dc/elements/1.1/"
   xmlns:cc="http://creativecommons.org/ns#"
   xmlns:rdf="http://www.w3.org/1999/02/22-rdf-syntax-ns#"
   xmlns:svg="http://www.w3.org/2000/svg"
   xmlns="http://www.w3.org/2000/svg"
   xmlns:sodipodi="http://sodipodi.sourceforge.net/DTD/sodipodi-0.dtd"
   xmlns:inkscape="http://www.inkscape.org/namespaces/inkscape"
   version="1.1"
   width="16"
   height="16.000057"
   id="svg7384"
   inkscape:version="0.48.4 r9939"
   sodipodi:docname="audio-volume-muted-symbolic.svg">
  <sodipodi:namedview
     pagecolor="#ffffff"
     bordercolor="#666666"
     borderopacity="1"
     objecttolerance="10"
     gridtolerance="10"
     guidetolerance="10"
     inkscape:pageopacity="0"
     inkscape:pageshadow="2"
     inkscape:window-width="640"
     inkscape:window-height="480"
     id="namedview18"
     showgrid="false"
     inkscape:zoom="14.749947"
     inkscape:cx="8"
     inkscape:cy="8.0000286"
     inkscape:window-x="0"
     inkscape:window-y="27"
     inkscape:window-maximized="0"
     inkscape:current-layer="svg7384" />
  <title
     id="title9167">Gnome Symbolic Icon Theme</title>
  <metadata
     id="metadata90">
    <rdf:RDF>
      <cc:Work
         rdf:about="">
        <dc:format>image/svg+xml</dc:format>
        <dc:type
           rdf:resource="http://purl.org/dc/dcmitype/StillImage" />
        <dc:title>Gnome Symbolic Icon Theme</dc:title>
      </cc:Work>
    </rdf:RDF>
  </metadata>
  <defs
     id="defs7386" />
  <path
     inkscape:connector-curvature="0"
     style="opacity:0.5;fill:#d3d7cf;fill-opacity:1;stroke:none"
     id="path8759"
     d="m 8,6e-5 c -4.41828,0 -8,3.58172 -8,8 0,4.41828 3.58172,8 8,8 4.41828,0 8,-3.58172 8,-8 0,-4.41828 -3.58172,-8 -8,-8 z m 0,2 c 3.31371,0 6,2.68629 6,6 0,3.31371 -2.68629,6 -6,6 -3.31371,0 -6,-2.68629 -6,-6 0,-3.31371 2.68629,-6 6,-6 z" />
  <path
     inkscape:connector-curvature="0"
     style="opacity:0.5;fill:#d3d7cf;fill-opacity:1;stroke:none"
     id="path8764"
     d="m 8,3.00006 c -2.76142,0 -5,2.23858 -5,5 0,2.76142 2.23858,5 5,5 2.76142,0 5,-2.23858 5,-5 0,-2.76142 -2.23858,-5 -5,-5 z m 0,2 c 1.65685,0 3,1.34315 3,3 0,1.65685 -1.34315,3 -3,3 -1.65685,0 -3,-1.34315 -3,-3 0,-1.65685 1.34315,-3 3,-3 z" />
  <path
     inkscape:connector-curvature="0"
     style="fill:#cc0000;fill-opacity:1;stroke:none"
     id="path8769"
     d="m 10,8.00006 a 2,2 0 0 1 -4,0 2,2 0 1 1 4,0 z"
     class="error" />
  <g
     transform="translate(-101.0002,-217)"
     id="layer10" />
  <g
     transform="translate(-101.0002,-217)"
     id="layer11" />
  <g
     transform="translate(-101.0002,-217)"
     id="layer13" />
  <g
     transform="translate(-101.0002,-217)"
     id="layer14" />
  <g
     transform="translate(-101.0002,-217)"
     id="layer15"
     style="display:inline" />
  <g
     transform="translate(-101.0002,-217)"
     id="g71291"
     style="display:inline" />
  <g
     transform="translate(-101.0002,-217)"
     id="g4953"
     style="display:inline" />
  <g
     transform="translate(-101.0002,-217)"
     id="layer12"
     style="display:inline" />
</svg>
