<?xml version="1.0" encoding="UTF-8" standalone="no"?>
<!-- Created with Inkscape (http://www.inkscape.org/) -->

<svg
   xmlns:dc="http://purl.org/dc/elements/1.1/"
   xmlns:cc="http://creativecommons.org/ns#"
   xmlns:rdf="http://www.w3.org/1999/02/22-rdf-syntax-ns#"
   xmlns:svg="http://www.w3.org/2000/svg"
   xmlns="http://www.w3.org/2000/svg"
   xmlns:xlink="http://www.w3.org/1999/xlink"
   xmlns:sodipodi="http://sodipodi.sourceforge.net/DTD/sodipodi-0.dtd"
   xmlns:inkscape="http://www.inkscape.org/namespaces/inkscape"
   width="128"
   height="128"
   id="svg2"
   version="1.1"
   inkscape:version="0.48.4 r9939"
   sodipodi:docname="folder_wine.svg">
  <defs
     id="defs4">
    <linearGradient
       inkscape:collect="always"
       id="linearGradient3834">
      <stop
         style="stop-color:#ffffff;stop-opacity:1;"
         offset="0"
         id="stop3836" />
      <stop
         style="stop-color:#ffffff;stop-opacity:0;"
         offset="1"
         id="stop3838" />
    </linearGradient>
    <linearGradient
       id="linearGradient3802">
      <stop
         style="stop-color:#ff2424;stop-opacity:1;"
         offset="0"
         id="stop3804" />
      <stop
         style="stop-color:#800000;stop-opacity:1;"
         offset="1"
         id="stop3806" />
    </linearGradient>
    <linearGradient
       id="linearGradient3785">
      <stop
         style="stop-color:#ffffff;stop-opacity:1;"
         offset="0"
         id="stop3787" />
      <stop
         style="stop-color:#d6d6d6;stop-opacity:1;"
         offset="1"
         id="stop3789" />
    </linearGradient>
    <radialGradient
       inkscape:collect="always"
       xlink:href="#linearGradient3785"
       id="radialGradient3791"
       cx="120"
       cy="217.06807"
       fx="120"
       fy="217.06807"
       r="366"
       gradientTransform="matrix(0.3723091,0,0,0.327632,-25.099529,889.5601)"
       gradientUnits="userSpaceOnUse" />
    <radialGradient
       inkscape:collect="always"
       xlink:href="#linearGradient3802"
       id="radialGradient3808"
       cx="548"
       cy="726.62531"
       fx="548"
       fy="726.62531"
       r="364"
       gradientTransform="matrix(0.19466446,0,0,0.19466446,-27.141906,879.18707)"
       gradientUnits="userSpaceOnUse" />
    <filter
       inkscape:collect="always"
       id="filter3824"
       x="-0.0504"
       width="1.1008"
       y="-1.008"
       height="3.016"
       color-interpolation-filters="sRGB">
      <feGaussianBlur
         inkscape:collect="always"
         stdDeviation="16.8"
         id="feGaussianBlur3826" />
    </filter>
    <radialGradient
       inkscape:collect="always"
       xlink:href="#linearGradient3834"
       id="radialGradient3842"
       cx="480.06296"
       cy="546.70325"
       fx="480.06296"
       fy="546.70325"
       r="364"
       gradientTransform="matrix(0.20963868,0,0,0.19466448,-32.006745,897.85969)"
       gradientUnits="userSpaceOnUse" />
  </defs>
  <sodipodi:namedview
     id="base"
     pagecolor="#ffffff"
     bordercolor="#666666"
     borderopacity="1.0"
     inkscape:pageopacity="0.0"
     inkscape:pageshadow="2"
     inkscape:zoom="2.4377909"
     inkscape:cx="34.962627"
     inkscape:cy="59.074054"
     inkscape:document-units="px"
     inkscape:current-layer="layer1"
     showgrid="true"
     inkscape:window-width="1280"
     inkscape:window-height="743"
     inkscape:window-x="-2"
     inkscape:window-y="-3"
     inkscape:window-maximized="1">
    <inkscape:grid
       type="xygrid"
       id="grid3000"
       empspacing="5"
       visible="true"
       enabled="true"
       snapvisiblegridlinesonly="true" />
  </sodipodi:namedview>
  <metadata
     id="metadata7">
    <rdf:RDF>
      <cc:Work
         rdf:about="">
        <dc:format>image/svg+xml</dc:format>
        <dc:type
           rdf:resource="http://purl.org/dc/dcmitype/StillImage" />
        <dc:title />
      </cc:Work>
    </rdf:RDF>
  </metadata>
  <g
     inkscape:label="Ebene 1"
     inkscape:groupmode="layer"
     id="layer1"
     transform="translate(0,-924.36218)">
    <rect
       ry="3.6640246"
       rx="2.8241155"
       y="1020.3622"
       x="6.5496974"
       height="10.755574"
       width="111.91582"
       id="rect3799"
       style="opacity:0.1;fill:#000000;fill-opacity:1;stroke:none" />
    <rect
       style="opacity:0.25;fill:#000000;fill-opacity:1;stroke:none"
       id="rect3797"
       width="108"
       height="8"
       x="8"
       y="96"
       transform="translate(0,924.36218)"
       rx="2.7253027"
       ry="2.7253027" />
    <rect
       style="opacity:0.1;fill:#000000;fill-opacity:1;stroke:none"
       id="rect3801"
       width="115.39655"
       height="12.785997"
       x="4.8093348"
       y="1020.3622"
       rx="2.9119489"
       ry="4.3557143" />
    <path
       style="fill:url(#radialGradient3791);fill-opacity:1;stroke:#505050;stroke-width:1.09012103;stroke-miterlimit:4;stroke-opacity:1;stroke-dasharray:none"
       d="m 16.852266,947.05204 0,5.45061 c 0,1.36265 -1.362653,2.72531 -2.725305,2.72531 -0.69976,0 -1.398545,0 -2.725294,0 -1.362653,0 -2.7253052,1.36264 -2.7253052,2.72529 l 0,62.68195 c 0,2.7253 2.7253052,5.4506 5.4505992,5.4506 l 87.209689,0 c 2.72531,0 5.45061,-2.7253 5.45061,-5.398 l 0,-62.73455 c 0,-1.36265 -1.36265,-2.72529 -2.7253,-2.72529 l -43.604847,0 c -1.362652,0 -2.725305,-1.36266 -2.725305,-2.72531 l 0,-5.45061 c 0,-2.7253 -1.362652,-2.7253 -2.725305,-2.7253 l -35.428932,10e-6 c -1.362653,0 -2.725305,1.36265 -2.725305,2.72529 z"
       id="rect3002"
       inkscape:connector-curvature="0"
       sodipodi:nodetypes="cscscccccccccccccc" />
    <g
       id="g3867"
       transform="matrix(0.13626513,0,0,0.13626513,3.225752,926.29039)">
      <rect
         ry="20"
         rx="20"
         y="252.36218"
         x="80"
         height="420"
         width="40"
         id="rect3847"
         style="opacity:0.2;fill:#000000;fill-opacity:1;stroke:none" />
      <rect
         style="opacity:0.2;fill:#000000;fill-opacity:1;stroke:none"
         id="rect3849"
         width="40"
         height="420"
         x="160"
         y="252.36218"
         rx="20"
         ry="20" />
      <rect
         ry="20"
         rx="20"
         y="252.36218"
         x="240"
         height="420"
         width="40"
         id="rect3851"
         style="opacity:0.2;fill:#000000;fill-opacity:1;stroke:none" />
      <rect
         style="opacity:0.2;fill:#000000;fill-opacity:1;stroke:none"
         id="rect3853"
         width="40"
         height="420"
         x="320"
         y="252.36218"
         rx="20"
         ry="20" />
      <rect
         ry="20"
         rx="20"
         y="252.36218"
         x="400"
         height="420"
         width="40"
         id="rect3855"
         style="opacity:0.2;fill:#000000;fill-opacity:1;stroke:none" />
      <rect
         style="opacity:0.2;fill:#000000;fill-opacity:1;stroke:none"
         id="rect3857"
         width="40"
         height="420"
         x="460"
         y="252.36218"
         rx="20"
         ry="20" />
      <rect
         ry="20"
         rx="20"
         y="252.36218"
         x="540"
         height="420"
         width="40"
         id="rect3859"
         style="opacity:0.2;fill:#000000;fill-opacity:1;stroke:none" />
      <rect
         style="opacity:0.2;fill:#000000;fill-opacity:1;stroke:none"
         id="rect3861"
         width="40"
         height="420"
         x="620"
         y="252.36218"
         rx="20"
         ry="20" />
      <rect
         ry="20"
         rx="20"
         y="252.36218"
         x="700"
         height="420"
         width="40"
         id="rect3863"
         style="opacity:0.2;fill:#000000;fill-opacity:1;stroke:none" />
    </g>
    <path
       style="opacity:0.2;fill:#000000;fill-opacity:1;stroke:none"
       d="M 68.53125 33.5 C 67.168597 33.5 65.8125 34.85609 65.8125 36.21875 L 65.8125 41.6875 C 65.8125 43.05015 64.456403 44.40625 63.09375 44.40625 L 18.125 44.40625 C 16.762347 44.40625 15.40625 45.76236 15.40625 47.125 L 15.40625 94.28125 C 15.496766 97.449344 11.614395 98.478826 9 97.4375 L 9 97.6875 C 9.517115 98.770502 10.624857 99.423815 11.875 99.6875 C 11.960413 99.69278 12.039503 99.71875 12.125 99.71875 L 14.21875 99.71875 C 15.970208 99.374466 17.462459 98.248586 17.40625 96.28125 L 17.40625 49.125 C 17.40625 47.76236 18.762347 46.40625 20.125 46.40625 L 65.09375 46.40625 C 66.456403 46.40625 67.8125 45.05015 67.8125 43.6875 L 67.8125 38.21875 C 67.8125 36.85609 69.168597 35.5 70.53125 35.5 L 107 35.5 L 107 33.5 L 68.53125 33.5 z M 9 97.78125 L 9 98.53125 C 9.164548 98.659524 9.3246664 98.796144 9.5 98.90625 C 9.278086 98.552872 9.1327379 98.167514 9 97.78125 z "
       transform="translate(0,924.36218)"
       id="path3783" />
    <path
       sodipodi:nodetypes="cscsccccccccccc"
       inkscape:connector-curvature="0"
       id="path3798"
       d="m 67.815422,962.58627 0,5.45061 c 0,1.36265 -1.362642,2.7253 -2.725295,2.7253 -0.69976,0 -43.64074,0 -44.967499,0 -1.362653,0 -2.725295,1.36265 -2.725295,2.72529 l 0,47.14773 c 0.136265,4.7693 -8.7209712,4.7693 -8.7209712,0 0,2.7253 2.7253052,5.4506 5.4505992,5.4506 l 95.930659,0 c 2.72531,0 5.45061,-2.7253 5.45061,-5.398 l 0,-58.10153 c 0,-2.7253 -1.36265,-2.7253 -2.7253,-2.7253 l -42.242203,0 c -1.362653,0 -2.725305,1.36265 -2.725305,2.72531 z"
       style="opacity:0.85;fill:url(#radialGradient3808);fill-opacity:1;stroke:#505050;stroke-width:1.09012103;stroke-miterlimit:4;stroke-opacity:1;stroke-dasharray:none" />
    <path
       style="opacity:0.5;fill:url(#radialGradient3842);fill-opacity:1;stroke:none"
       d="m 70.540727,959.86272 c -1.362653,0 -2.725305,1.36264 -2.725305,2.72529 l 0,5.45061 c 0,1.36265 -1.362642,2.72531 -2.725295,2.72531 l -44.967499,0 c -1.362653,0 -2.725295,1.36265 -2.725295,2.72529 l 0,28.76898 c 28.659674,-5.25539 62.172722,-8.43551 98.110897,-8.83168 l 0,-30.83851 c 0,-2.72529 -1.36265,-2.72529 -2.7253,-2.72529 l -42.242203,0 z"
       id="path3830"
       inkscape:connector-curvature="0" />
    <rect
       style="opacity:0.85;fill:#aa0000;fill-opacity:1;stroke:none"
       id="rect3828"
       width="25.890375"
       height="6.1319308"
       x="19.577574"
       y="947.05206"
       rx="2.7253025"
       ry="2.7253025" />
  </g>
</svg>
