<?xml version="1.0" encoding="UTF-8" standalone="no"?>
<!-- Created with Inkscape (http://www.inkscape.org/) -->

<svg
   xmlns:dc="http://purl.org/dc/elements/1.1/"
   xmlns:cc="http://creativecommons.org/ns#"
   xmlns:rdf="http://www.w3.org/1999/02/22-rdf-syntax-ns#"
   xmlns:svg="http://www.w3.org/2000/svg"
   xmlns="http://www.w3.org/2000/svg"
   xmlns:sodipodi="http://sodipodi.sourceforge.net/DTD/sodipodi-0.dtd"
   xmlns:inkscape="http://www.inkscape.org/namespaces/inkscape"
   version="1.1"
   width="16"
   height="16.000057"
   id="svg7384"
   inkscape:version="0.48.4 r9939"
   sodipodi:docname="folder-documents-symbolic.svg">
  <title
     id="title4176">Kawaiki Icon Theme</title>
  <sodipodi:namedview
     pagecolor="#4a4a4a"
     bordercolor="#e50000"
     borderopacity="1"
     objecttolerance="10"
     gridtolerance="10000"
     guidetolerance="10"
     inkscape:pageopacity="1"
     inkscape:pageshadow="2"
     inkscape:window-width="1280"
     inkscape:window-height="968"
     id="namedview16"
     showgrid="true"
     inkscape:showpageshadow="true"
     borderlayer="false"
     inkscape:zoom="32"
     inkscape:cx="6.286348"
     inkscape:cy="10.88767"
     inkscape:window-x="0"
     inkscape:window-y="27"
     inkscape:window-maximized="1"
     inkscape:current-layer="svg7384">
    <inkscape:grid
       type="xygrid"
       id="grid2993"
       empspacing="4"
       visible="true"
       enabled="true"
       snapvisiblegridlinesonly="true" />
  </sodipodi:namedview>
  <metadata
     id="metadata90">
    <rdf:RDF>
      <cc:Work
         rdf:about="">
        <dc:format>image/svg+xml</dc:format>
        <dc:type
           rdf:resource="http://purl.org/dc/dcmitype/StillImage" />
        <dc:title>Kawaiki Icon Theme</dc:title>
        <dc:date>2014-01-31</dc:date>
        <dc:creator>
          <cc:Agent>
            <dc:title>Georg Eckert</dc:title>
          </cc:Agent>
        </dc:creator>
        <dc:language>German</dc:language>
        <cc:license
           rdf:resource="http://creativecommons.org/licenses/by-nc-sa/3.0/" />
      </cc:Work>
      <cc:License
         rdf:about="http://creativecommons.org/licenses/by-nc-sa/3.0/">
        <cc:permits
           rdf:resource="http://creativecommons.org/ns#Reproduction" />
        <cc:permits
           rdf:resource="http://creativecommons.org/ns#Distribution" />
        <cc:requires
           rdf:resource="http://creativecommons.org/ns#Notice" />
        <cc:requires
           rdf:resource="http://creativecommons.org/ns#Attribution" />
        <cc:prohibits
           rdf:resource="http://creativecommons.org/ns#CommercialUse" />
        <cc:permits
           rdf:resource="http://creativecommons.org/ns#DerivativeWorks" />
        <cc:requires
           rdf:resource="http://creativecommons.org/ns#ShareAlike" />
      </cc:License>
    </rdf:RDF>
  </metadata>
  <defs
     id="defs7386" />
  <g
     transform="translate(-101.0002,-217)"
     id="layer10" />
  <g
     transform="translate(-101.0002,-217)"
     id="layer11" />
  <g
     transform="translate(-101.0002,-217)"
     id="layer13" />
  <g
     transform="translate(-101.0002,-217)"
     id="layer14" />
  <g
     transform="translate(-101.0002,-217)"
     id="layer15"
     style="display:inline" />
  <g
     transform="translate(-101.0002,-217)"
     id="g71291"
     style="display:inline" />
  <g
     transform="translate(-101.0002,-217)"
     id="g4953"
     style="display:inline" />
  <g
     transform="translate(-101.0002,-217)"
     id="layer12"
     style="display:inline" />
  <g
     style="display:inline"
     id="g3791"
     transform="translate(-101.0002,-217)" />
  <path
     style="fill:#d3d7cf;stroke:none"
     d="M 2 0 L 2 16 L 7 16 L 8 16 L 14 16 L 14 4 L 10 0 L 2 0 z M 3 1 L 9 1 L 9 5 L 13 5 L 13 15 L 12 15 L 12 14 L 11 14 L 11 15 L 10 15 L 10 14 L 9 14 L 9 15 L 8 15 L 8 14 L 7 14 L 7 15 L 6 15 L 6 14 L 5 14 L 5 15 L 3 15 L 3 13 L 4 13 L 4 12 L 3 12 L 3 11 L 4 11 L 4 10 L 3 10 L 3 9 L 4 9 L 4 8 L 3 8 L 3 7 L 4 7 L 4 6 L 3 6 L 3 5 L 4 5 L 4 4 L 3 4 L 3 3 L 4 3 L 4 2 L 3 2 L 3 1 z M 10 2 L 12 4 L 10 4 L 10 2 z M 5 7 L 5 13 L 12 13 L 5 7 z "
     id="path4199" />
</svg>
