<?xml version="1.0" encoding="UTF-8" standalone="no"?>
<!-- Created with Inkscape (http://www.inkscape.org/) -->

<svg
   xmlns:dc="http://purl.org/dc/elements/1.1/"
   xmlns:cc="http://creativecommons.org/ns#"
   xmlns:rdf="http://www.w3.org/1999/02/22-rdf-syntax-ns#"
   xmlns:svg="http://www.w3.org/2000/svg"
   xmlns="http://www.w3.org/2000/svg"
   xmlns:xlink="http://www.w3.org/1999/xlink"
   xmlns:sodipodi="http://sodipodi.sourceforge.net/DTD/sodipodi-0.dtd"
   xmlns:inkscape="http://www.inkscape.org/namespaces/inkscape"
   sodipodi:docname="insert-object.svg"
   inkscape:version="0.48.4 r9939"
   version="1.1"
   id="svg2"
   height="128"
   width="128">
  <sodipodi:namedview
     id="base"
     pagecolor="#ffffff"
     bordercolor="#666666"
     borderopacity="1.0"
     inkscape:pageopacity="0.0"
     inkscape:pageshadow="2"
     inkscape:zoom="3.6203869"
     inkscape:cx="109.2773"
     inkscape:cy="23.292163"
     inkscape:document-units="px"
     inkscape:current-layer="layer1"
     showgrid="true"
     showguides="true"
     inkscape:guide-bbox="true"
     inkscape:window-width="1221"
     inkscape:window-height="1000"
     inkscape:window-x="59"
     inkscape:window-y="24"
     inkscape:window-maximized="1">
    <inkscape:grid
       snapvisiblegridlinesonly="true"
       enabled="true"
       visible="true"
       empspacing="4"
       id="grid2985"
       type="xygrid" />
  </sodipodi:namedview>
  <defs
     id="defs4">
    <linearGradient
       id="linearGradient7110">
      <stop
         style="stop-color:#5a5a5a;stop-opacity:1;"
         offset="0"
         id="stop7112" />
      <stop
         style="stop-color:#202020;stop-opacity:1;"
         offset="1"
         id="stop7114" />
    </linearGradient>
    <linearGradient
       id="linearGradient4216-4-8-2">
      <stop
         id="stop4218-8-0-7"
         offset="0"
         style="stop-color:#494949;stop-opacity:1;" />
      <stop
         id="stop4220-1-6-4"
         offset="1"
         style="stop-color:#0f0f0f;stop-opacity:1;" />
    </linearGradient>
    <radialGradient
       inkscape:collect="always"
       xlink:href="#linearGradient4216-4-8-2"
       id="radialGradient5899"
       gradientUnits="userSpaceOnUse"
       gradientTransform="translate(0,2)"
       cx="64"
       cy="1020.3622"
       fx="64"
       fy="1020.3622"
       r="52" />
    <radialGradient
       inkscape:collect="always"
       xlink:href="#linearGradient7110"
       id="radialGradient7116"
       cx="80"
       cy="972.36218"
       fx="80"
       fy="972.36218"
       r="52.5"
       gradientUnits="userSpaceOnUse" />
    <linearGradient
       id="linearGradient6964-4">
      <stop
         style="stop-color:#ffffff;stop-opacity:1;"
         offset="0"
         id="stop6966-4" />
      <stop
         style="stop-color:#cacaca;stop-opacity:1;"
         offset="1"
         id="stop6970-3" />
    </linearGradient>
    <linearGradient
       id="linearGradient8794-33">
      <stop
         style="stop-color:#ffffff;stop-opacity:1;"
         offset="0"
         id="stop8796-9" />
      <stop
         style="stop-color:#cacaca;stop-opacity:1;"
         offset="1"
         id="stop8798-6" />
    </linearGradient>
    <radialGradient
       r="32"
       fy="46.695652"
       fx="84"
       cy="46.695652"
       cx="84"
       gradientTransform="matrix(0.78722727,0,0,1.1316392,13.617455,-8.16161)"
       gradientUnits="userSpaceOnUse"
       id="radialGradient5944"
       xlink:href="#linearGradient8794-33"
       inkscape:collect="always" />
    <radialGradient
       inkscape:collect="always"
       xlink:href="#linearGradient8794-33"
       id="radialGradient10267"
       gradientUnits="userSpaceOnUse"
       gradientTransform="matrix(0.78722727,0,0,1.1316392,13.617455,-8.16161)"
       cx="84"
       cy="46.695652"
       fx="84"
       fy="46.695652"
       r="32" />
    <radialGradient
       inkscape:collect="always"
       xlink:href="#linearGradient6964-4"
       id="radialGradient10297"
       cx="154"
       cy="118.5"
       fx="154"
       fy="118.5"
       r="6"
       gradientTransform="matrix(1.6666671,-2.1327557e-6,2.1327544e-6,1.6666661,-102.66697,-79.499605)"
       gradientUnits="userSpaceOnUse" />
    <radialGradient
       inkscape:collect="always"
       xlink:href="#linearGradient8794-33"
       id="radialGradient3919"
       gradientUnits="userSpaceOnUse"
       gradientTransform="matrix(1.25,0,0,1.25,-38.5,-29.5)"
       cx="154"
       cy="118"
       fx="154"
       fy="118"
       r="8" />
    <radialGradient
       inkscape:collect="always"
       xlink:href="#linearGradient8794-33"
       id="radialGradient3924"
       gradientUnits="userSpaceOnUse"
       gradientTransform="matrix(5.625,0,0,5.625,-793.25,304.61216)"
       cx="154"
       cy="118"
       fx="154"
       fy="118"
       r="8" />
    <radialGradient
       inkscape:collect="always"
       xlink:href="#linearGradient8794-33"
       id="radialGradient3944"
       gradientUnits="userSpaceOnUse"
       gradientTransform="matrix(5.625,0,0,5.625,-793.25,304.61216)"
       cx="154"
       cy="118"
       fx="154"
       fy="118"
       r="8" />
    <radialGradient
       inkscape:collect="always"
       xlink:href="#linearGradient8794-33"
       id="radialGradient3973"
       gradientUnits="userSpaceOnUse"
       gradientTransform="matrix(5.625,0,0,5.625,-793.25,313.61216)"
       cx="154"
       cy="118"
       fx="154"
       fy="118"
       r="8" />
    <filter
       inkscape:collect="always"
       id="filter3977"
       x="-0.14000002"
       width="1.28"
       y="-0.10499999"
       height="1.21">
      <feGaussianBlur
         inkscape:collect="always"
         stdDeviation="3.1500005"
         id="feGaussianBlur3979" />
    </filter>
    <radialGradient
       inkscape:collect="always"
       xlink:href="#linearGradient8794-33"
       id="radialGradient3991"
       gradientUnits="userSpaceOnUse"
       gradientTransform="matrix(5.625,0,0,5.625,-793.25,313.61216)"
       cx="154"
       cy="118"
       fx="154"
       fy="118"
       r="8" />
    <radialGradient
       inkscape:collect="always"
       xlink:href="#linearGradient8794-33"
       id="radialGradient4030"
       gradientUnits="userSpaceOnUse"
       gradientTransform="matrix(1.25,0,0,1.25,-38.5,-29.5)"
       cx="154"
       cy="118"
       fx="154"
       fy="118"
       r="8" />
    <radialGradient
       inkscape:collect="always"
       xlink:href="#linearGradient8794-33"
       id="radialGradient4048"
       gradientUnits="userSpaceOnUse"
       gradientTransform="matrix(1.25,0,0,1.25,-38.5,-29.5)"
       cx="154"
       cy="118"
       fx="154"
       fy="118"
       r="8" />
    <radialGradient
       inkscape:collect="always"
       xlink:href="#linearGradient8794-33"
       id="radialGradient4053"
       gradientUnits="userSpaceOnUse"
       gradientTransform="matrix(5.625,0,0,5.625,-793.25,309.11216)"
       cx="154"
       cy="118"
       fx="154"
       fy="118"
       r="8" />
    <filter
       inkscape:collect="always"
       id="filter4057"
       x="-0.11250002"
       width="1.225"
       y="-0.12857141"
       height="1.2571428">
      <feGaussianBlur
         inkscape:collect="always"
         stdDeviation="3.3750005"
         id="feGaussianBlur4059" />
    </filter>
    <radialGradient
       inkscape:collect="always"
       xlink:href="#linearGradient8794-33"
       id="radialGradient4071"
       gradientUnits="userSpaceOnUse"
       gradientTransform="matrix(5.625,0,0,5.625,-793.25,309.11216)"
       cx="154"
       cy="118"
       fx="154"
       fy="118"
       r="8" />
  </defs>
  <metadata
     id="metadata7">
    <rdf:RDF>
      <cc:Work
         rdf:about="">
        <dc:format>image/svg+xml</dc:format>
        <dc:type
           rdf:resource="http://purl.org/dc/dcmitype/StillImage" />
        <dc:title></dc:title>
      </cc:Work>
    </rdf:RDF>
  </metadata>
  <g
     transform="translate(0,-924.36218)"
     id="layer1"
     inkscape:groupmode="layer"
     inkscape:label="Layer 1">
    <rect
       ry="8"
       rx="8"
       y="940.36218"
       x="12"
       height="104"
       width="104"
       id="rect6981"
       style="opacity:0.10000000000000001;fill:#000000;fill-opacity:1;stroke:#000000;stroke-width:10;stroke-miterlimit:4;stroke-dasharray:none" />
    <rect
       style="opacity:0.1;fill:#000000;fill-opacity:1;stroke:#000000;stroke-width:6;stroke-miterlimit:4;stroke-dasharray:none"
       id="rect6979"
       width="104"
       height="104"
       x="12"
       y="940.36218"
       rx="8"
       ry="8" />
    <rect
       ry="8"
       rx="8"
       y="938.36218"
       x="12"
       height="104"
       width="104"
       id="rect5969"
       style="fill:#000000;fill-opacity:1;stroke:#000000;opacity:0.20000000000000001;stroke-width:3;stroke-miterlimit:4;stroke-dasharray:none" />
    <rect
       style="fill:url(#radialGradient5899);fill-opacity:1;stroke:#1a1a1a"
       id="rect6936"
       width="104"
       height="104"
       x="12"
       y="938.36218"
       rx="8"
       ry="8" />
    <rect
       ry="8"
       rx="8"
       y="934.36218"
       x="12"
       height="104"
       width="104"
       id="rect6964"
       style="fill:url(#radialGradient7116);fill-opacity:1;stroke:#1a1a1a" />
    <text
       xml:space="preserve"
       style="font-size:24px;font-style:normal;font-weight:normal;line-height:125%;letter-spacing:0px;word-spacing:0px;fill:#000000;fill-opacity:1;stroke:none;font-family:Sans"
       x="-56"
       y="948.36218"
       id="text5893"
       sodipodi:linespacing="125%"><tspan
         sodipodi:role="line"
         id="tspan5895"
         x="-56"
         y="948.36218">128</tspan></text>
    <text
       sodipodi:linespacing="125%"
       id="text5901"
       y="1000.3622"
       x="184"
       style="font-size:16px;font-style:normal;font-weight:normal;line-height:125%;letter-spacing:0px;word-spacing:0px;fill:#000000;fill-opacity:1;stroke:none;font-family:Sans"
       xml:space="preserve"><tspan
         y="1000.3622"
         x="184"
         id="tspan5903"
         sodipodi:role="line">31 - 17</tspan></text>
    <text
       xml:space="preserve"
       style="font-size:16px;font-style:normal;font-weight:normal;line-height:125%;letter-spacing:0px;word-spacing:0px;fill:#000000;fill-opacity:1;stroke:none;font-family:Sans"
       x="172"
       y="1048.3622"
       id="text5905"
       sodipodi:linespacing="125%"><tspan
         sodipodi:role="line"
         id="tspan5907"
         x="172"
         y="1048.3622">16</tspan></text>
    <rect
       style="fill:none;stroke:#000000;stroke-width:1;stroke-linecap:round;stroke-linejoin:round;stroke-miterlimit:4;stroke-opacity:1;stroke-dasharray:none;stroke-dashoffset:0"
       id="rect5919"
       width="40"
       height="40"
       x="140"
       y="60"
       transform="translate(0,924.36218)"
       rx="4.5902016e-07" />
    <rect
       style="fill:none;stroke:#000000;stroke-width:1;stroke-linecap:round;stroke-linejoin:round;stroke-miterlimit:4;stroke-opacity:1;stroke-dasharray:none;stroke-dashoffset:0"
       id="rect5921"
       width="24"
       height="24"
       x="140"
       y="1032.3622"
       rx="4.5902016e-07" />
    <rect
       style="fill:#b3b3b3;fill-opacity:1;stroke:none"
       id="rect6935"
       width="32"
       height="4"
       x="144"
       y="56"
       transform="translate(0,924.36218)"
       rx="4.5902016e-07" />
    <rect
       style="fill:#b3b3b3;fill-opacity:1;stroke:none"
       id="rect6937"
       width="4"
       height="32"
       x="136"
       y="64"
       transform="translate(0,924.36218)"
       rx="4.5902016e-07" />
    <rect
       style="fill:#b3b3b3;fill-opacity:1;stroke:none"
       id="rect6939"
       width="16"
       height="4"
       x="144"
       y="104"
       rx="4.5902016e-07"
       transform="translate(0,924.36218)" />
    <rect
       style="fill:#b3b3b3;fill-opacity:1;stroke:none"
       id="rect6941"
       width="4"
       height="16"
       x="136"
       y="112"
       transform="translate(0,924.36218)"
       rx="4.5902016e-07" />
    <rect
       style="fill:url(#radialGradient7116);fill-opacity:1;stroke:#1a1a1a"
       id="rect12711"
       width="104"
       height="104"
       x="12"
       y="934.36218"
       rx="8"
       ry="8" />
    <path
       style="fill:url(#radialGradient4048);fill-opacity:1;stroke:none"
       d="M 144 114 L 144 115.375 L 146.375 115.375 L 146.375 121.9375 L 148.03125 121.9375 L 148.03125 115.375 L 150.34375 115.375 L 150.34375 114 L 144 114 z M 157.65625 114.59375 L 157.65625 116.1875 L 156.90625 116.1875 L 156.90625 117.15625 L 157.65625 117.15625 L 157.65625 120.8125 C 157.65625 121.7347 158.16133 122.15625 159.15625 122.15625 C 159.49758 122.15625 159.75308 122.1416 160 122.0625 L 160 120.96875 C 159.84749 120.99075 159.73609 121 159.65625 121 C 159.4529 121 159.31536 120.98545 159.25 120.90625 C 159.1846 120.81925 159.1523 120.66765 159.15625 120.40625 L 159.15625 117.15625 L 160 117.15625 L 160 116.1875 L 159.15625 116.1875 L 159.15625 114.59375 L 157.65625 114.59375 z M 150.875 116.03125 L 152.8125 118.96875 L 150.84375 121.9375 L 152.6875 121.9375 L 153.65625 120.09375 L 154.65625 121.9375 L 156.5 121.9375 L 154.5625 118.96875 L 156.46875 116.03125 L 154.625 116.03125 L 153.65625 117.8125 L 152.71875 116.03125 L 150.875 116.03125 z M 150 124 L 150 126 L 148 126 L 152 128 L 156 126 L 154 126 L 154 124 L 150 124 z "
       transform="translate(0,924.36218)"
       id="rect3040" />
    <g
       id="g4061">
      <path
         id="path4055"
         d="m 28,954.86218 0,6.1875 10.6875,0 0,29.5312 7.45312,0 0,-29.5312 10.40625,0 0,-6.1875 -28.54687,0 z m 61.45312,2.6719 0,7.1718 -3.375,0 0,4.3594 3.375,0 0,16.4531 c 0,4.1499 2.27286,6.0469 6.75,6.0469 1.53599,0 2.68574,-0.066 3.79688,-0.4219 l 0,-4.9218 c -0.68629,0.099 -1.1876,0.1406 -1.54688,0.1406 -0.91507,0 -1.534,-0.065 -1.82812,-0.4219 -0.2943,-0.3915 -0.43965,-1.0737 -0.42188,-2.25 l 0,-14.625 3.79688,0 0,-4.3594 -3.79688,0 0,-7.1718 -6.75,0 z m -30.51562,6.4687 8.71875,13.2188 -8.85938,13.3593 8.29688,0 4.35937,-8.2968 4.5,8.2968 8.29688,0 -8.71875,-13.3593 8.57812,-13.2188 -8.29687,0 -4.35938,8.0156 -4.21875,-8.0156 -8.29687,0 z M 55,999.86218 l 0,9.00002 -9,0 18,9 18,-9 -9,0 0,-9.00002 -18,0 z"
         style="fill:#000000;fill-opacity:1;stroke:none;filter:url(#filter4057)"
         inkscape:connector-curvature="0" />
      <path
         inkscape:connector-curvature="0"
         style="fill:url(#radialGradient4053);fill-opacity:1;stroke:#ffffff;stroke-opacity:0.31372549999999999;stroke-width:2;stroke-miterlimit:4;stroke-dasharray:none"
         d="m 28,954.86218 0,6.1875 10.6875,0 0,29.5312 7.45312,0 0,-29.5312 10.40625,0 0,-6.1875 -28.54687,0 z m 61.45312,2.6719 0,7.1718 -3.375,0 0,4.3594 3.375,0 0,16.4531 c 0,4.1499 2.27286,6.0469 6.75,6.0469 1.53599,0 2.68574,-0.066 3.79688,-0.4219 l 0,-4.9218 c -0.68629,0.099 -1.1876,0.1406 -1.54688,0.1406 -0.91507,0 -1.534,-0.065 -1.82812,-0.4219 -0.2943,-0.3915 -0.43965,-1.0737 -0.42188,-2.25 l 0,-14.625 3.79688,0 0,-4.3594 -3.79688,0 0,-7.1718 -6.75,0 z m -30.51562,6.4687 8.71875,13.2188 -8.85938,13.3593 8.29688,0 4.35937,-8.2968 4.5,8.2968 8.29688,0 -8.71875,-13.3593 8.57812,-13.2188 -8.29687,0 -4.35938,8.0156 -4.21875,-8.0156 -8.29687,0 z M 55,999.86218 l 0,9.00002 -9,0 18,9 18,-9 -9,0 0,-9.00002 -18,0 z"
         id="path4051" />
    </g>
    <g
       id="g4065"
       transform="matrix(0.36281555,0,0,0.36281555,136.7798,646.49464)">
      <path
         inkscape:connector-curvature="0"
         style="fill:#000000;fill-opacity:1;stroke:none;filter:url(#filter4057)"
         d="m 28,954.86218 0,6.1875 10.6875,0 0,29.5312 7.45312,0 0,-29.5312 10.40625,0 0,-6.1875 -28.54687,0 z m 61.45312,2.6719 0,7.1718 -3.375,0 0,4.3594 3.375,0 0,16.4531 c 0,4.1499 2.27286,6.0469 6.75,6.0469 1.53599,0 2.68574,-0.066 3.79688,-0.4219 l 0,-4.9218 c -0.68629,0.099 -1.1876,0.1406 -1.54688,0.1406 -0.91507,0 -1.534,-0.065 -1.82812,-0.4219 -0.2943,-0.3915 -0.43965,-1.0737 -0.42188,-2.25 l 0,-14.625 3.79688,0 0,-4.3594 -3.79688,0 0,-7.1718 -6.75,0 z m -30.51562,6.4687 8.71875,13.2188 -8.85938,13.3593 8.29688,0 4.35937,-8.2968 4.5,8.2968 8.29688,0 -8.71875,-13.3593 8.57812,-13.2188 -8.29687,0 -4.35938,8.0156 -4.21875,-8.0156 -8.29687,0 z M 55,999.86218 l 0,9.00002 -9,0 18,9 18,-9 -9,0 0,-9.00002 -18,0 z"
         id="path4067" />
      <path
         id="path4069"
         d="m 28,954.86218 0,6.1875 10.6875,0 0,29.5312 7.45312,0 0,-29.5312 10.40625,0 0,-6.1875 -28.54687,0 z m 61.45312,2.6719 0,7.1718 -3.375,0 0,4.3594 3.375,0 0,16.4531 c 0,4.1499 2.27286,6.0469 6.75,6.0469 1.53599,0 2.68574,-0.066 3.79688,-0.4219 l 0,-4.9218 c -0.68629,0.099 -1.1876,0.1406 -1.54688,0.1406 -0.91507,0 -1.534,-0.065 -1.82812,-0.4219 -0.2943,-0.3915 -0.43965,-1.0737 -0.42188,-2.25 l 0,-14.625 3.79688,0 0,-4.3594 -3.79688,0 0,-7.1718 -6.75,0 z m -30.51562,6.4687 8.71875,13.2188 -8.85938,13.3593 8.29688,0 4.35937,-8.2968 4.5,8.2968 8.29688,0 -8.71875,-13.3593 8.57812,-13.2188 -8.29687,0 -4.35938,8.0156 -4.21875,-8.0156 -8.29687,0 z M 55,999.86218 l 0,9.00002 -9,0 18,9 18,-9 -9,0 0,-9.00002 -18,0 z"
         style="fill:url(#radialGradient4071);fill-opacity:1;stroke:#ffffff;stroke-width:2;stroke-miterlimit:4;stroke-opacity:0.31372549;stroke-dasharray:none"
         inkscape:connector-curvature="0" />
    </g>
  </g>
</svg>
