<?xml version="1.0" encoding="UTF-8" standalone="no"?>
<!-- Created with Inkscape (http://www.inkscape.org/) -->

<svg
   xmlns:dc="http://purl.org/dc/elements/1.1/"
   xmlns:cc="http://creativecommons.org/ns#"
   xmlns:rdf="http://www.w3.org/1999/02/22-rdf-syntax-ns#"
   xmlns:svg="http://www.w3.org/2000/svg"
   xmlns="http://www.w3.org/2000/svg"
   xmlns:sodipodi="http://sodipodi.sourceforge.net/DTD/sodipodi-0.dtd"
   xmlns:inkscape="http://www.inkscape.org/namespaces/inkscape"
   version="1.1"
   width="16"
   height="16.000057"
   id="svg7384"
   inkscape:version="0.48.4 r9939"
   sodipodi:docname="network-wireless-signal-excellent-symbolic.svg">
  <sodipodi:namedview
     pagecolor="#ffffff"
     bordercolor="#e50000"
     borderopacity="1"
     objecttolerance="10"
     gridtolerance="10000"
     guidetolerance="10"
     inkscape:pageopacity="0"
     inkscape:pageshadow="2"
     inkscape:window-width="1366"
     inkscape:window-height="744"
     id="namedview16"
     showgrid="true"
     inkscape:showpageshadow="true"
     borderlayer="false"
     inkscape:zoom="22.627417"
     inkscape:cx="2.1543879"
     inkscape:cy="6.2980288"
     inkscape:window-x="0"
     inkscape:window-y="24"
     inkscape:window-maximized="1"
     inkscape:current-layer="svg7384">
    <inkscape:grid
       type="xygrid"
       id="grid2993"
       empspacing="4"
       visible="true"
       enabled="true"
       snapvisiblegridlinesonly="true" />
  </sodipodi:namedview>
  <title
     id="title9167">Gnome Symbolic Icon Theme</title>
  <metadata
     id="metadata90">
    <rdf:RDF>
      <cc:Work
         rdf:about="">
        <dc:format>image/svg+xml</dc:format>
        <dc:type
           rdf:resource="http://purl.org/dc/dcmitype/StillImage" />
        <dc:title>Gnome Symbolic Icon Theme</dc:title>
      </cc:Work>
    </rdf:RDF>
  </metadata>
  <defs
     id="defs7386" />
  <path
     style="color:#000000;fill:#555753;fill-opacity:1;fill-rule:nonzero;stroke:none;stroke-width:1;marker:none;visibility:visible;display:inline;overflow:visible;enable-background:accumulate"
     d="M 8 3 C 5.2385763 3 3 5.2385763 3 8 C 3 9.8173155 3.9874526 11.405867 5.4375 12.28125 L 5.71875 11.28125 C 4.6754947 10.559372 4 9.36469 4 8 C 4 5.790861 5.790861 4 8 4 C 10.209139 4 12 5.790861 12 8 C 12 9.3397146 11.354876 10.524077 10.34375 11.25 C 10.446948 11.596867 10.535858 11.921693 10.625 12.25 C 12.041475 11.367233 13 9.7919403 13 8 C 13 5.2385763 10.761424 3 8 3 z M 8.40625 11.9375 C 8.2712101 11.951274 8.1386759 12 8 12 C 7.8730148 12 7.7489604 11.980324 7.625 11.96875 L 7.34375 12.9375 C 7.56275 12.966807 7.7729791 13 8 13 C 8.2376418 13 8.4586961 12.969564 8.6875 12.9375 C 8.5953852 12.616795 8.5202239 12.306164 8.40625 11.9375 z "
     id="path3006" />
  <path
     style="fill:#555753;fill-opacity:1;stroke:none"
     d="M 8 7 C 7.4477153 7 7 7.4477153 7 8 C 7 8.3500149 7.1964483 8.6338328 7.46875 8.8125 L 6 14 C 5.908923 14.546462 6.446 15 7 15 L 9 15 C 9.6585454 15 10.04253 14.255163 10 14 C 9.8034032 12.820497 9.0582469 10.493027 8.53125 8.8125 C 8.8035517 8.6338328 9 8.3500149 9 8 C 9 7.4477153 8.5522847 7 8 7 z "
     id="path8769" />
  <g
     transform="translate(-101.0002,-217)"
     id="layer10" />
  <g
     transform="translate(-101.0002,-217)"
     id="layer11" />
  <g
     transform="translate(-101.0002,-217)"
     id="layer13" />
  <g
     transform="translate(-101.0002,-217)"
     id="layer14" />
  <g
     transform="translate(-101.0002,-217)"
     id="layer15"
     style="display:inline" />
  <g
     transform="translate(-101.0002,-217)"
     id="g71291"
     style="display:inline" />
  <g
     transform="translate(-101.0002,-217)"
     id="g4953"
     style="display:inline" />
  <g
     transform="translate(-101.0002,-217)"
     id="layer12"
     style="display:inline" />
  <g
     style="display:inline"
     id="g3791"
     transform="translate(-101.0002,-217)" />
  <path
     style="color:#000000;fill:#555753;fill-opacity:1;fill-rule:nonzero;stroke:none;stroke-width:1;marker:none;visibility:visible;display:inline;overflow:visible;enable-background:accumulate"
     d="M 8 5 C 6.3431458 5 5 6.3431458 5 8 C 5 8.8917774 5.3823041 9.7004988 6 10.25 L 6.34375 9.125 C 6.3387136 9.1175452 6.348688 9.1012759 6.34375 9.09375 C 6.2376832 8.9320965 6.1496625 8.7521763 6.09375 8.5625 C 6.0665957 8.4703824 6.0449739 8.3783762 6.03125 8.28125 C 6.0149871 8.1861541 6 8.1013779 6 8 C 6 7.8619288 6.0046082 7.7239452 6.03125 7.59375 C 6.2198477 6.6880516 7.0438657 6 8 6 C 9.0927249 6 10 6.9072751 10 8 C 10 8.099125 9.9856101 8.1892052 9.96875 8.28125 C 9.9550261 8.3783762 9.9334043 8.4703824 9.90625 8.5625 C 9.8517573 8.7473596 9.7897422 8.9353978 9.6875 9.09375 C 9.8005681 9.4515929 9.9125434 9.8378167 10.03125 10.21875 C 10.629951 9.6702867 11 8.8759398 11 8 C 11 6.3431458 9.6568542 5 8 5 z M 8 10.65625 L 7.90625 11 C 7.938346 11.001016 7.9676573 11 8 11 C 8.0323427 11 8.061654 11.001016 8.09375 11 C 8.0578123 10.883828 8.0352807 10.771585 8 10.65625 z "
     id="path2999" />
  <path
     style="color:#000000;fill:#555753;fill-opacity:1;fill-rule:nonzero;stroke:none;stroke-width:1;marker:none;visibility:visible;display:inline;overflow:visible;enable-background:accumulate"
     d="M 8 1 C 4.1340068 1 1 4.1340068 1 8 C 1 10.79099 2.6369784 13.188306 5 14.3125 C 4.9822437 14.161874 4.9736708 14.001725 5 13.84375 L 5.03125 13.78125 L 5.03125 13.71875 L 5.15625 13.28125 C 3.2724407 12.269271 2 10.288148 2 8 C 2 4.6862915 4.6862915 2 8 2 C 11.313708 2 14 4.6862915 14 8 C 14 10.278174 12.745351 12.265214 10.875 13.28125 C 10.916076 13.468819 10.972639 13.679597 11 13.84375 C 11.031863 14.034912 11.029281 14.191033 11 14.3125 C 13.363022 13.188306 15 10.79099 15 8 C 15 4.1340068 11.865993 1 8 1 z M 8.9375 13.90625 C 8.6339523 13.953561 8.3168174 14 8 14 L 8.96875 14 C 8.9644514 13.976888 8.9424507 13.930706 8.9375 13.90625 z M 8 14 C 7.6954971 14 7.3860594 13.981269 7.09375 13.9375 L 7.0625 14 L 8 14 z "
     id="path3011" />
</svg>
