<?xml version="1.0" encoding="UTF-8" standalone="no"?>
<!-- Created with Inkscape (http://www.inkscape.org/) -->

<svg
   xmlns:dc="http://purl.org/dc/elements/1.1/"
   xmlns:cc="http://creativecommons.org/ns#"
   xmlns:rdf="http://www.w3.org/1999/02/22-rdf-syntax-ns#"
   xmlns:svg="http://www.w3.org/2000/svg"
   xmlns="http://www.w3.org/2000/svg"
   xmlns:sodipodi="http://sodipodi.sourceforge.net/DTD/sodipodi-0.dtd"
   xmlns:inkscape="http://www.inkscape.org/namespaces/inkscape"
   version="1.1"
   width="16"
   height="16.000057"
   id="svg7384"
   inkscape:version="0.48.4 r9939"
   sodipodi:docname="network-cellular-signal-ok-symbolic.svg">
  <sodipodi:namedview
     pagecolor="#4a4a4a"
     bordercolor="#e50000"
     borderopacity="1"
     objecttolerance="10"
     gridtolerance="10000"
     guidetolerance="10"
     inkscape:pageopacity="1"
     inkscape:pageshadow="2"
     inkscape:window-width="1280"
     inkscape:window-height="968"
     id="namedview16"
     showgrid="true"
     inkscape:showpageshadow="true"
     borderlayer="false"
     inkscape:zoom="16"
     inkscape:cx="4.9756219"
     inkscape:cy="2.0678563"
     inkscape:window-x="0"
     inkscape:window-y="27"
     inkscape:window-maximized="1"
     inkscape:current-layer="svg7384">
    <inkscape:grid
       type="xygrid"
       id="grid2993"
       empspacing="4"
       visible="true"
       enabled="true"
       snapvisiblegridlinesonly="true" />
  </sodipodi:namedview>
  <title
     id="title9167">Gnome Symbolic Icon Theme</title>
  <metadata
     id="metadata90">
    <rdf:RDF>
      <cc:Work
         rdf:about="">
        <dc:format>image/svg+xml</dc:format>
        <dc:type
           rdf:resource="http://purl.org/dc/dcmitype/StillImage" />
        <dc:title>Gnome Symbolic Icon Theme</dc:title>
      </cc:Work>
    </rdf:RDF>
  </metadata>
  <defs
     id="defs7386" />
  <path
     style="fill:#d3d7cf;fill-opacity:1;stroke:none"
     d="M 7.84375,6 C 6.8496956,6.0778939 5.9969528,7.0029031 6,8 5.9991376,8.6498115 6.3377368,9.2907313 6.875,9.65625 L 6,15 c -0.091077,0.546462 0.446,1 1,1 l 2,0 c 0.6585454,0 1.04253,-0.744837 1,-1 C 9.7049359,13.229733 9.2488792,10.430798 9.125,9.6875 9.6709808,9.3161868 10.01113,8.6601853 10,8 10.003367,6.8986301 8.9417583,5.9139499 7.84375,6 z"
     id="path8769"
     inkscape:connector-curvature="0"
     sodipodi:nodetypes="scccsssccs" />
  <g
     transform="translate(-101.0002,-217)"
     id="layer10" />
  <g
     transform="translate(-101.0002,-217)"
     id="layer11" />
  <g
     transform="translate(-101.0002,-217)"
     id="layer13" />
  <g
     transform="translate(-101.0002,-217)"
     id="layer14" />
  <g
     transform="translate(-101.0002,-217)"
     id="layer15"
     style="display:inline" />
  <g
     transform="translate(-101.0002,-217)"
     id="g71291"
     style="display:inline" />
  <g
     transform="translate(-101.0002,-217)"
     id="g4953"
     style="display:inline" />
  <g
     transform="translate(-101.0002,-217)"
     id="layer12"
     style="display:inline" />
  <g
     style="display:inline"
     id="g3791"
     transform="translate(-101.0002,-217)" />
  <path
     style="opacity:0.5;fill:#d3d7cf;fill-opacity:1;stroke:none"
     d="M 8 0 C 3.581722 2.3684758e-15 0 3.581722 0 8 C 0 11.427617 2.1579778 14.329773 5.1875 15.46875 L 5.34375 14.46875 C 2.7967277 13.42179 1 10.92449 1 8 C 1 4.1340068 4.1340068 1 8 1 C 11.865993 1 15 4.1340068 15 8 C 15 10.92449 13.203272 13.42179 10.65625 14.46875 C 10.719929 14.854533 10.753431 15.112853 10.8125 15.46875 C 13.842022 14.329773 16 11.427617 16 8 C 16 3.581722 12.418278 -1.1842379e-15 8 0 z "
     id="path3844" />
  <path
     style="opacity:0.5;fill:#d3d7cf;fill-opacity:1;stroke:none"
     d="M 8 2 C 4.6862915 2 2 4.6862915 2 8 C 2 10.411356 3.4171437 12.483983 5.46875 13.4375 L 5.65625 12.375 C 4.0908285 11.530342 3 9.9035167 3 8 C 3 5.2385763 5.2385763 3 8 3 C 10.761424 3 13 5.2385763 13 8 C 13 9.9035167 11.909172 11.530342 10.34375 12.375 C 10.411102 12.785321 10.430684 13.016076 10.5 13.4375 C 12.565305 12.489403 14 10.42133 14 8 C 14 4.6862915 11.313708 2 8 2 z "
     id="path3847" />
  <path
     style="opacity:1;fill:#d3d7cf;fill-opacity:1;stroke:none"
     d="M 8 4 C 5.790861 4 4 5.790861 4 8 C 4 9.405336 4.7163943 10.630307 5.8125 11.34375 L 6 10.25 C 5.3823041 9.7004988 5 8.8917774 5 8 C 5 6.3431458 6.3431458 5 8 5 C 9.6568542 5 11 6.3431458 11 8 C 11 8.8917774 10.617696 9.7004988 10 10.25 C 10.054026 10.579098 10.092525 10.955239 10.15625 11.34375 C 11.265032 10.632658 12 9.4150098 12 8 C 12 5.790861 10.209139 4 8 4 z "
     id="path3860" />
</svg>
