<?xml version="1.0" encoding="UTF-8" standalone="no"?>
<!-- Created with Inkscape (http://www.inkscape.org/) -->

<svg
   xmlns:dc="http://purl.org/dc/elements/1.1/"
   xmlns:cc="http://creativecommons.org/ns#"
   xmlns:rdf="http://www.w3.org/1999/02/22-rdf-syntax-ns#"
   xmlns:svg="http://www.w3.org/2000/svg"
   xmlns="http://www.w3.org/2000/svg"
   xmlns:xlink="http://www.w3.org/1999/xlink"
   xmlns:sodipodi="http://sodipodi.sourceforge.net/DTD/sodipodi-0.dtd"
   xmlns:inkscape="http://www.inkscape.org/namespaces/inkscape"
   width="128"
   height="128"
   id="svg3829"
   version="1.1"
   inkscape:version="0.48.4 r9939"
   sodipodi:docname="applications-multimedia.svg">
  <defs
     id="defs3831">
    <linearGradient
       id="linearGradient5802">
      <stop
         id="stop5804"
         offset="0"
         style="stop-color:#ffffff;stop-opacity:1;" />
      <stop
         id="stop5806"
         offset="1"
         style="stop-color:#ededed;stop-opacity:1;" />
    </linearGradient>
    <linearGradient
       id="linearGradient5719">
      <stop
         style="stop-color:#000000;stop-opacity:1;"
         offset="0"
         id="stop5721" />
      <stop
         style="stop-color:#000000;stop-opacity:0.44541484;"
         offset="1"
         id="stop5723" />
    </linearGradient>
    <linearGradient
       id="linearGradient8794">
      <stop
         style="stop-color:#ffffff;stop-opacity:1;"
         offset="0"
         id="stop8796" />
      <stop
         style="stop-color:#cacaca;stop-opacity:1;"
         offset="1"
         id="stop8798" />
    </linearGradient>
    <linearGradient
       id="linearGradient4270-9">
      <stop
         style="stop-color:#f9f9f9;stop-opacity:0.50196081;"
         offset="0"
         id="stop4272-5" />
      <stop
         id="stop5033"
         offset="0.25"
         style="stop-color:#7d7d7d;stop-opacity:0.50196081;" />
      <stop
         id="stop4278-7"
         offset="0.5"
         style="stop-color:#808080;stop-opacity:0.50196081;" />
      <stop
         style="stop-color:#ffffff;stop-opacity:0.50196081;"
         offset="0.75"
         id="stop5035" />
      <stop
         style="stop-color:#000000;stop-opacity:0.50196081;"
         offset="1"
         id="stop4274-4" />
    </linearGradient>
    <linearGradient
       id="linearGradient4317-9">
      <stop
         id="stop4609"
         offset="0"
         style="stop-color:#e4e4e4;stop-opacity:1;" />
      <stop
         style="stop-color:#7a7a7a;stop-opacity:1;"
         offset="1"
         id="stop4321-9" />
    </linearGradient>
    <linearGradient
       id="linearGradient4270-9-2">
      <stop
         style="stop-color:#f9f9f9;stop-opacity:0.50196081;"
         offset="0"
         id="stop4272-5-3" />
      <stop
         id="stop5033-1"
         offset="0.25"
         style="stop-color:#7d7d7d;stop-opacity:0.50196081;" />
      <stop
         id="stop4278-7-5"
         offset="0.5"
         style="stop-color:#808080;stop-opacity:0.50196081;" />
      <stop
         style="stop-color:#ffffff;stop-opacity:0.50196081;"
         offset="0.75"
         id="stop5035-7" />
      <stop
         style="stop-color:#000000;stop-opacity:0.50196081;"
         offset="1"
         id="stop4274-4-7" />
    </linearGradient>
    <linearGradient
       id="linearGradient4133">
      <stop
         id="stop4135"
         offset="0"
         stop-color="#6f7269" />
      <stop
         id="stop4137"
         offset="0.03125"
         stop-color="#777a71" />
      <stop
         id="stop4139"
         offset="0.041736"
         stop-color="#7f827a" />
      <stop
         id="stop4141"
         offset="0.066308"
         stop-color="#83867e" />
      <stop
         id="stop4143"
         offset="0.072621"
         stop-color="#878982" />
      <stop
         id="stop4145"
         offset="0.072621"
         stop-color="#8c8e87" />
      <stop
         id="stop4147"
         offset="0.081803"
         stop-color="#8e9089" />
      <stop
         id="stop4149"
         offset="0.125"
         stop-color="#8f918b" />
      <stop
         id="stop4151"
         offset="0.130217"
         stop-color="#979993" />
      <stop
         id="stop4153"
         offset="0.154946"
         stop-color="#9fa19b" />
      <stop
         id="stop4155"
         offset="0.186196"
         stop-color="#a7a9a4" />
      <stop
         id="stop4157"
         offset="0.203255"
         stop-color="#afb1ac" />
      <stop
         id="stop4159"
         offset="0.278798"
         stop-color="#b7b8b4" />
      <stop
         id="stop4161"
         offset="0.285476"
         stop-color="#bfc0bd" />
      <stop
         id="stop4163"
         offset="0.320534"
         stop-color="#c7c8c5" />
      <stop
         id="stop4165"
         offset="0.33389"
         stop-color="#cfd0ce" />
      <stop
         id="stop4167"
         offset="0.33389"
         stop-color="#c1c1c1" />
      <stop
         id="stop4169"
         offset="0.33389"
         stop-color="#cccccb" />
      <stop
         id="stop4171"
         offset="0.365609"
         stop-color="#d7d8d6" />
      <stop
         id="stop4173"
         offset="0.39399"
         stop-color="#d2d1cb" />
      <stop
         id="stop4175-7"
         offset="0.399833"
         stop-color="#cccbc1" />
      <stop
         id="stop4177-5"
         offset="0.485392"
         stop-color="#deddd8" />
      <stop
         id="stop4179"
         offset="0.517529"
         stop-color="#efefef" />
      <stop
         id="stop4181"
         offset="0.53125"
         stop-color="#dadada" />
      <stop
         id="stop4183"
         offset="0.552483"
         stop-color="#c5c5c5" />
      <stop
         id="stop4185"
         offset="0.552483"
         stop-color="#a8a8a8" />
      <stop
         id="stop4187"
         offset="0.563439"
         stop-color="#b8b8ba" />
      <stop
         id="stop4189"
         offset="0.569282"
         stop-color="#c8c8cc" />
      <stop
         id="stop4191"
         offset="0.577629"
         stop-color="#cdccce" />
      <stop
         id="stop4193"
         offset="0.586394"
         stop-color="#d2cfcf" />
      <stop
         id="stop4195"
         offset="0.618322"
         stop-color="#c6c4c5" />
      <stop
         id="stop4197"
         offset="0.626043"
         stop-color="#b9babb" />
      <stop
         id="stop4199"
         offset="0.641068"
         stop-color="#bbbeb9" />
      <stop
         id="stop4201"
         offset="0.663606"
         stop-color="#bcc2b8" />
      <stop
         id="stop4203"
         offset="0.675292"
         stop-color="#adb1aa" />
      <stop
         id="stop4205"
         offset="0.682805"
         stop-color="#9ea09c" />
      <stop
         id="stop4207"
         offset="0.703673"
         stop-color="#939492" />
      <stop
         id="stop4209"
         offset="0.722473"
         stop-color="#878787" />
      <stop
         id="stop4211"
         offset="0.74668"
         stop-color="#838280" />
      <stop
         id="stop4213"
         offset="0.758765"
         stop-color="#7f7e78" />
      <stop
         id="stop4215"
         offset="0.758765"
         stop-color="#72716d" />
      <stop
         id="stop4217"
         offset="0.763773"
         stop-color="#807d7d" />
      <stop
         id="stop4219"
         offset="0.770451"
         stop-color="#8f898c" />
      <stop
         id="stop4221"
         offset="0.770451"
         stop-color="#838480" />
      <stop
         id="stop4223"
         offset="0.827838"
         stop-color="#7c7a7a" />
      <stop
         id="stop4225"
         offset="0.83389"
         stop-color="#7b7979" />
      <stop
         id="stop4227"
         offset="0.851419"
         stop-color="#7a7778" />
      <stop
         id="stop4229"
         offset="0.876461"
         stop-color="#797677" />
      <stop
         id="stop4231"
         offset="0.892321"
         stop-color="#787476" />
      <stop
         id="stop4233"
         offset="0.934474"
         stop-color="#797577" />
      <stop
         id="stop4235"
         offset="0.941569"
         stop-color="#7a7678" />
      <stop
         id="stop4237"
         offset="0.941569"
         stop-color="#777375" />
      <stop
         id="stop4239"
         offset="0.965776"
         stop-color="#827e81" />
      <stop
         id="stop4241"
         offset="1"
         stop-color="#8e898d" />
    </linearGradient>
    <linearGradient
       id="linearGradient4709">
      <stop
         id="stop4711"
         offset="0"
         stop-color="#000000" />
      <stop
         id="stop4713"
         offset="0.15512"
         stop-color="#6b6b6b" />
      <stop
         id="stop4715"
         offset="0.238453"
         stop-color="#d6d6d6" />
      <stop
         id="stop4717"
         offset="0.287145"
         stop-color="#969696" />
      <stop
         id="stop4719"
         offset="0.288815"
         stop-color="#555555" />
      <stop
         id="stop4721"
         offset="0.317195"
         stop-color="#9d9d9d" />
      <stop
         id="stop4723"
         offset="0.388982"
         stop-color="#e6e6e6" />
      <stop
         id="stop4725"
         offset="0.583333"
         stop-color="#9d9d9d" />
      <stop
         id="stop4727"
         offset="0.713411"
         stop-color="#555555" />
      <stop
         id="stop4729"
         offset="0.796745"
         stop-color="#aaaaaa" />
      <stop
         id="stop4731"
         offset="0.878408"
         stop-color="#ffffff" />
      <stop
         id="stop4733"
         offset="0.949917"
         stop-color="#808080" />
      <stop
         id="stop4735"
         offset="1"
         stop-color="#000000" />
    </linearGradient>
    <linearGradient
       id="linearGradient3165">
      <stop
         id="stop3167"
         offset="0"
         style="stop-color:#ffffff;stop-opacity:1;" />
      <stop
         id="stop3169"
         offset="1"
         style="stop-color:#c6c6c6;stop-opacity:1;" />
    </linearGradient>
    <radialGradient
       inkscape:collect="always"
       xlink:href="#linearGradient8794"
       id="radialGradient5778"
       cx="154"
       cy="118"
       fx="154"
       fy="118"
       r="8"
       gradientUnits="userSpaceOnUse"
       gradientTransform="matrix(1.25,0,0,1.25,-38.5,-29.5)" />
    <radialGradient
       inkscape:collect="always"
       xlink:href="#linearGradient8794"
       id="radialGradient5800"
       gradientUnits="userSpaceOnUse"
       gradientTransform="matrix(2.1875,0,0,2.1875,-173.375,-261.625)"
       cx="154"
       cy="118"
       fx="154"
       fy="118"
       r="8" />
    <radialGradient
       inkscape:collect="always"
       xlink:href="#linearGradient4133"
       id="radialGradient5835"
       gradientUnits="userSpaceOnUse"
       gradientTransform="matrix(-1.9237177,-2.0782756,0.79933675,-0.73989135,87.109484,-24.439207)"
       cx="-20"
       cy="-20.205746"
       fx="-20"
       fy="-20.205746"
       r="10.488047" />
    <linearGradient
       inkscape:collect="always"
       xlink:href="#linearGradient4709"
       id="linearGradient5841"
       gradientUnits="userSpaceOnUse"
       gradientTransform="matrix(0.57118429,0,0,0.57118429,-72.211192,-86.467174)"
       x1="4.7689013"
       y1="65.167458"
       x2="27.141033"
       y2="65.167458" />
    <radialGradient
       inkscape:collect="always"
       xlink:href="#linearGradient4133"
       id="radialGradient5921"
       gradientUnits="userSpaceOnUse"
       gradientTransform="matrix(-1.9237177,-2.0782756,0.79933675,-0.73989135,87.109484,-24.439207)"
       cx="-20"
       cy="-20.205746"
       fx="-20"
       fy="-20.205746"
       r="10.488047" />
    <radialGradient
       inkscape:collect="always"
       xlink:href="#linearGradient8794"
       id="radialGradient5958"
       cx="154"
       cy="118"
       fx="154"
       fy="118"
       r="8"
       gradientUnits="userSpaceOnUse"
       gradientTransform="matrix(1.25,0,0,1.25,-38.5,-29.5)" />
    <radialGradient
       inkscape:collect="always"
       xlink:href="#linearGradient8794"
       id="radialGradient5962"
       gradientUnits="userSpaceOnUse"
       gradientTransform="matrix(2.1875,0,0,2.1875,-173.375,-261.625)"
       cx="154"
       cy="118"
       fx="154"
       fy="118"
       r="8" />
    <filter
       inkscape:collect="always"
       id="filter5966"
       x="-0.12"
       width="1.24"
       y="-0.12"
       height="1.24">
      <feGaussianBlur
         inkscape:collect="always"
         stdDeviation="1.4"
         id="feGaussianBlur5968" />
    </filter>
    <radialGradient
       inkscape:collect="always"
       xlink:href="#linearGradient8794"
       id="radialGradient5974"
       gradientUnits="userSpaceOnUse"
       gradientTransform="matrix(2.1875,0,0,2.1875,-173.375,-261.625)"
       cx="154"
       cy="118"
       fx="154"
       fy="118"
       r="8" />
    <linearGradient
       gradientTransform="translate(-1.9073486e-7,-80)"
       inkscape:collect="always"
       xlink:href="#linearGradient5685"
       id="linearGradient5757"
       x1="64"
       y1="-24"
       x2="64"
       y2="100"
       gradientUnits="userSpaceOnUse" />
    <linearGradient
       id="linearGradient5685">
      <stop
         id="stop5687"
         offset="0"
         style="stop-color:#ffffff;stop-opacity:0.69868994;" />
      <stop
         style="stop-color:#ffffff;stop-opacity:0.12227074;"
         offset="0.5"
         id="stop5691" />
      <stop
         id="stop5689"
         offset="1"
         style="stop-color:#ffffff;stop-opacity:0.79912663;" />
    </linearGradient>
    <radialGradient
       inkscape:collect="always"
       xlink:href="#linearGradient5765"
       id="radialGradient5771"
       cx="76"
       cy="54.222221"
       fx="76"
       fy="54.222221"
       r="44"
       gradientTransform="matrix(1.6363636,0,0,0.81818182,-48.363636,-68.363636)"
       gradientUnits="userSpaceOnUse" />
    <linearGradient
       id="linearGradient5765">
      <stop
         style="stop-color:#9b1b9f;stop-opacity:1;"
         offset="0"
         id="stop5767" />
      <stop
         style="stop-color:#2b0b43;stop-opacity:1;"
         offset="1"
         id="stop5769" />
    </linearGradient>
    <linearGradient
       gradientTransform="translate(-1.9073486e-7,-80)"
       inkscape:collect="always"
       xlink:href="#linearGradient5685"
       id="linearGradient5683"
       x1="4"
       y1="124"
       x2="124"
       y2="4"
       gradientUnits="userSpaceOnUse" />
    <linearGradient
       id="linearGradient3844">
      <stop
         id="stop3846"
         offset="0"
         style="stop-color:#ffffff;stop-opacity:0.69868994;" />
      <stop
         style="stop-color:#ffffff;stop-opacity:0.12227074;"
         offset="0.5"
         id="stop3848" />
      <stop
         id="stop3850"
         offset="1"
         style="stop-color:#ffffff;stop-opacity:0.79912663;" />
    </linearGradient>
    <linearGradient
       gradientTransform="translate(-1.9073486e-7,-80)"
       inkscape:collect="always"
       xlink:href="#linearGradient5661"
       id="linearGradient5669"
       x1="60"
       y1="32"
       x2="60"
       y2="96"
       gradientUnits="userSpaceOnUse" />
    <linearGradient
       id="linearGradient5661">
      <stop
         style="stop-color:#ffffff;stop-opacity:0;"
         offset="0"
         id="stop5663" />
      <stop
         style="stop-color:#ffffff;stop-opacity:1;"
         offset="1"
         id="stop5665" />
    </linearGradient>
    <radialGradient
       inkscape:collect="always"
       xlink:href="#linearGradient5633"
       id="radialGradient5641"
       cx="64"
       cy="1011.0288"
       fx="64"
       fy="1011.0288"
       r="56"
       gradientTransform="matrix(1.2142857,4.4551995e-8,-2.6207029e-8,0.71428508,-13.71426,-718.16283)"
       gradientUnits="userSpaceOnUse" />
    <linearGradient
       id="linearGradient5633">
      <stop
         style="stop-color:#000000;stop-opacity:1;"
         offset="0"
         id="stop5635" />
      <stop
         id="stop5643"
         offset="0.5"
         style="stop-color:#8a8a8a;stop-opacity:1;" />
      <stop
         style="stop-color:#000000;stop-opacity:1;"
         offset="1"
         id="stop5637" />
    </linearGradient>
    <filter
       color-interpolation-filters="sRGB"
       inkscape:collect="always"
       id="filter5715">
      <feGaussianBlur
         inkscape:collect="always"
         stdDeviation="3.12"
         id="feGaussianBlur5717" />
    </filter>
    <radialGradient
       inkscape:collect="always"
       xlink:href="#linearGradient8794"
       id="radialGradient4039"
       cx="154"
       cy="38.25"
       fx="154"
       fy="38.25"
       r="7"
       gradientTransform="matrix(1.4285713,6.3571324e-7,-6.3571318e-7,1.4285712,-65.999964,-16.642948)"
       gradientUnits="userSpaceOnUse" />
    <radialGradient
       inkscape:collect="always"
       xlink:href="#linearGradient8794"
       id="radialGradient4045"
       gradientUnits="userSpaceOnUse"
       gradientTransform="matrix(2.4999998,1.1124982e-6,-1.112498e-6,2.4999996,-221.49994,-99.12516)"
       cx="154"
       cy="38.25"
       fx="154"
       fy="38.25"
       r="7" />
    <filter
       inkscape:collect="always"
       id="filter4049"
       x="-0.12857143"
       width="1.2571429"
       y="-0.1125"
       height="1.225">
      <feGaussianBlur
         inkscape:collect="always"
         stdDeviation="1.21875"
         id="feGaussianBlur4051" />
    </filter>
    <filter
       inkscape:collect="always"
       id="filter4055"
       x="-0.12857143"
       width="1.2571429"
       y="-0.1125"
       height="1.225">
      <feGaussianBlur
         inkscape:collect="always"
         stdDeviation="1.3125"
         id="feGaussianBlur4057" />
    </filter>
    <radialGradient
       inkscape:collect="always"
       xlink:href="#linearGradient8794"
       id="radialGradient4064"
       gradientUnits="userSpaceOnUse"
       gradientTransform="matrix(2.4999998,1.1124982e-6,-1.112498e-6,2.4999996,-221.49994,-99.12516)"
       cx="154"
       cy="38.25"
       fx="154"
       fy="38.25"
       r="7" />
  </defs>
  <sodipodi:namedview
     id="base"
     pagecolor="#ffffff"
     bordercolor="#666666"
     borderopacity="1.0"
     inkscape:pageopacity="0.0"
     inkscape:pageshadow="2"
     inkscape:zoom="5.6568546"
     inkscape:cx="84.029602"
     inkscape:cy="39.435597"
     inkscape:current-layer="layer1"
     showgrid="true"
     inkscape:grid-bbox="true"
     inkscape:document-units="px"
     inkscape:window-width="1381"
     inkscape:window-height="876"
     inkscape:window-x="1339"
     inkscape:window-y="24"
     inkscape:window-maximized="1"
     showguides="true"
     inkscape:guide-bbox="true">
    <inkscape:grid
       type="xygrid"
       id="grid3837"
       empspacing="4"
       visible="true"
       enabled="true"
       snapvisiblegridlinesonly="true" />
  </sodipodi:namedview>
  <metadata
     id="metadata3834">
    <rdf:RDF>
      <cc:Work
         rdf:about="">
        <dc:format>image/svg+xml</dc:format>
        <dc:type
           rdf:resource="http://purl.org/dc/dcmitype/StillImage" />
        <dc:title></dc:title>
      </cc:Work>
    </rdf:RDF>
  </metadata>
  <g
     id="layer1"
     inkscape:label="Layer 1"
     inkscape:groupmode="layer"
     transform="translate(0,80)">
    <g
       id="g4059"
       transform="matrix(0.93295455,0,0,0.93295455,10.727273,0)">
      <path
         id="path4053"
         d="m 147.75,-14 0,28 5.25,0 c 0,-0.9695 0.7805,-1.75 1.75,-1.75 l 10.5,0 c 0.9695,0 1.75,0.7805 1.75,1.75 l 5.25,0 0,-28 -1.75,0 0,1.75 -1.75,0 0,-1.75 -1.75,0 0,7 c 0,0.9695 -0.7805,1.75 -1.75,1.75 l -10.5,0 C 153.7805,-5.25 153,-6.0305 153,-7 l 0,-7 -1.75,0 0,1.75 -1.75,0 0,-1.75 -1.75,0 z m 1.75,3.5 1.75,0 0,1.75 -1.75,0 0,-1.75 z m 19.25,0 1.75,0 0,1.75 -1.75,0 0,-1.75 z m -19.25,3.5 1.75,0 0,1.75 -1.75,0 0,-1.75 z m 19.25,0 1.75,0 0,1.75 -1.75,0 0,-1.75 z m -19.25,3.5 1.75,0 0,1.75 -1.75,0 0,-1.75 z m 5.25,0 10.5,0 c 0.9695,0 1.75,0.7805 1.75,1.75 l 0,10.5 c 0,0.9695 -0.7805,1.75 -1.75,1.75 l -10.5,0 C 153.7805,10.5 153,9.7195 153,8.75 l 0,-10.5 c 0,-0.9695 0.7805,-1.75 1.75,-1.75 z m 14,0 1.75,0 0,1.75 -1.75,0 0,-1.75 z M 149.5,0 l 1.75,0 0,1.75 -1.75,0 0,-1.75 z m 19.25,0 1.75,0 0,1.75 -1.75,0 0,-1.75 z m -19.25,3.5 1.75,0 0,1.75 -1.75,0 0,-1.75 z m 19.25,0 1.75,0 0,1.75 -1.75,0 0,-1.75 z M 149.5,7 l 1.75,0 0,1.75 -1.75,0 0,-1.75 z m 19.25,0 1.75,0 0,1.75 -1.75,0 0,-1.75 z m -19.25,3.5 1.75,0 0,1.75 -1.75,0 0,-1.75 z m 19.25,0 1.75,0 0,1.75 -1.75,0 0,-1.75 z"
         style="fill:#000000;fill-opacity:1;stroke:none;filter:url(#filter4055)"
         inkscape:connector-curvature="0" />
      <rect
         style="opacity:0.15;fill:#ffffff;fill-opacity:1;stroke:none"
         id="rect4041"
         width="17.5"
         height="28"
         x="151.25"
         y="-14"
         rx="0"
         ry="0" />
      <path
         inkscape:connector-curvature="0"
         style="fill:url(#radialGradient4064);fill-opacity:1;stroke:#ffffff;stroke-opacity:0.31372549"
         d="m 147.75,-14 0,28 5.25,0 c 0,-0.9695 0.7805,-1.75 1.75,-1.75 l 10.5,0 c 0.9695,0 1.75,0.7805 1.75,1.75 l 5.25,0 0,-28 -1.75,0 0,1.75 -1.75,0 0,-1.75 -1.75,0 0,7 c 0,0.9695 -0.7805,1.75 -1.75,1.75 l -10.5,0 C 153.7805,-5.25 153,-6.0305 153,-7 l 0,-7 -1.75,0 0,1.75 -1.75,0 0,-1.75 -1.75,0 z m 1.75,3.5 1.75,0 0,1.75 -1.75,0 0,-1.75 z m 19.25,0 1.75,0 0,1.75 -1.75,0 0,-1.75 z m -19.25,3.5 1.75,0 0,1.75 -1.75,0 0,-1.75 z m 19.25,0 1.75,0 0,1.75 -1.75,0 0,-1.75 z m -19.25,3.5 1.75,0 0,1.75 -1.75,0 0,-1.75 z m 5.25,0 10.5,0 c 0.9695,0 1.75,0.7805 1.75,1.75 l 0,10.5 c 0,0.9695 -0.7805,1.75 -1.75,1.75 l -10.5,0 C 153.7805,10.5 153,9.7195 153,8.75 l 0,-10.5 c 0,-0.9695 0.7805,-1.75 1.75,-1.75 z m 14,0 1.75,0 0,1.75 -1.75,0 0,-1.75 z M 149.5,0 l 1.75,0 0,1.75 -1.75,0 0,-1.75 z m 19.25,0 1.75,0 0,1.75 -1.75,0 0,-1.75 z m -19.25,3.5 1.75,0 0,1.75 -1.75,0 0,-1.75 z m 19.25,0 1.75,0 0,1.75 -1.75,0 0,-1.75 z M 149.5,7 l 1.75,0 0,1.75 -1.75,0 0,-1.75 z m 19.25,0 1.75,0 0,1.75 -1.75,0 0,-1.75 z m -19.25,3.5 1.75,0 0,1.75 -1.75,0 0,-1.75 z m 19.25,0 1.75,0 0,1.75 -1.75,0 0,-1.75 z"
         id="path4043" />
    </g>
    <rect
       style="opacity:0.14999999999999999;fill:#ffffff;fill-opacity:1;stroke:none"
       id="rect3011-4"
       width="10"
       height="16"
       x="147"
       y="32"
       rx="0"
       ry="0" />
    <text
       xml:space="preserve"
       style="font-size:24px;font-style:normal;font-weight:normal;line-height:125%;letter-spacing:0px;word-spacing:0px;fill:#000000;fill-opacity:1;stroke:none;font-family:Sans"
       x="-56"
       y="-56"
       id="text5893"
       sodipodi:linespacing="125%"><tspan
         sodipodi:role="line"
         id="tspan5895"
         x="-56"
         y="-56">128</tspan></text>
    <text
       sodipodi:linespacing="125%"
       id="text5901"
       y="-4"
       x="184"
       style="font-size:16px;font-style:normal;font-weight:normal;line-height:125%;letter-spacing:0px;word-spacing:0px;fill:#000000;fill-opacity:1;stroke:none;font-family:Sans"
       xml:space="preserve"><tspan
         y="-4"
         x="184"
         id="tspan5903"
         sodipodi:role="line">31 - 17</tspan></text>
    <text
       xml:space="preserve"
       style="font-size:16px;font-style:normal;font-weight:normal;line-height:125%;letter-spacing:0px;word-spacing:0px;fill:#000000;fill-opacity:1;stroke:none;font-family:Sans"
       x="172"
       y="44"
       id="text5905"
       sodipodi:linespacing="125%"><tspan
         sodipodi:role="line"
         id="tspan5907"
         x="172"
         y="44">16</tspan></text>
    <rect
       style="fill:none;stroke:#000000;stroke-width:1;stroke-linecap:round;stroke-linejoin:round;stroke-miterlimit:4;stroke-opacity:1;stroke-dasharray:none;stroke-dashoffset:0"
       id="rect5919"
       width="40"
       height="40"
       x="140"
       y="-20"
       rx="4.5902016e-07" />
    <rect
       style="fill:none;stroke:#000000;stroke-width:1;stroke-linecap:round;stroke-linejoin:round;stroke-miterlimit:4;stroke-opacity:1;stroke-dasharray:none;stroke-dashoffset:0"
       id="rect5921"
       width="24"
       height="24"
       x="140"
       y="28"
       rx="4.5902016e-07" />
    <rect
       style="fill:#b3b3b3;fill-opacity:1;stroke:none"
       id="rect6935"
       width="32"
       height="4"
       x="144"
       y="-24"
       rx="4.5902016e-07" />
    <rect
       style="fill:#b3b3b3;fill-opacity:1;stroke:none"
       id="rect6937"
       width="4"
       height="32"
       x="136"
       y="-16"
       rx="4.5902016e-07" />
    <rect
       style="fill:#b3b3b3;fill-opacity:1;stroke:none"
       id="rect6939"
       width="16"
       height="4"
       x="144"
       y="24"
       rx="4.5902016e-07" />
    <rect
       style="fill:#b3b3b3;fill-opacity:1;stroke:none"
       id="rect6941"
       width="4"
       height="16"
       x="136"
       y="32"
       rx="4.5902016e-07" />
    <rect
       style="fill:#000000;fill-opacity:1;stroke:none;filter:url(#filter5715)"
       id="rect5693"
       width="112"
       height="96"
       x="8"
       y="-56"
       rx="8"
       ry="8" />
    <rect
       ry="8"
       rx="8"
       y="-60"
       x="8"
       height="96"
       width="112"
       id="rect5631"
       style="fill:url(#radialGradient5641);fill-opacity:1;stroke:none" />
    <rect
       style="fill:#000000;fill-opacity:1;stroke:none"
       id="rect5629"
       width="112"
       height="96"
       x="8"
       y="-64"
       rx="8"
       ry="8" />
    <path
       inkscape:connector-curvature="0"
       style="opacity:0.75;fill:url(#linearGradient5669);fill-opacity:1;stroke:none"
       d="m 16,-64 c -4.432,0 -8.0000002,3.568 -8.0000002,8 l 0,60.90625 C 10.577978,6.045542 13.249033,7.112654 16,8.09375 L 16,-48 c 0,-4.432 3.568,-8 8,-8 l 80,0 c 4.432,0 8,3.568 8,8 l 0,56.09375 c 2.75097,-0.981096 5.42202,-2.048208 8,-3.1875 L 120,-56 c 0,-4.432 -3.568,-8 -8,-8 l -96,0 z"
       id="rect5645" />
    <rect
       style="opacity:0.75;fill:none;stroke:url(#linearGradient5683);stroke-width:1;stroke-linecap:round;stroke-linejoin:round;stroke-miterlimit:4;stroke-opacity:1;stroke-dasharray:none;stroke-dashoffset:0"
       id="rect5675"
       width="92"
       height="76"
       x="17.999998"
       y="-54"
       rx="8"
       ry="8" />
    <rect
       style="fill:url(#radialGradient5771);fill-opacity:1;stroke:none"
       id="rect5763"
       width="88"
       height="72"
       x="19.999998"
       y="-52"
       rx="8"
       ry="8" />
    <path
       inkscape:connector-curvature="0"
       style="opacity:0.75;fill:url(#linearGradient5757);fill-opacity:1;stroke:none"
       d="m 26,-54 c -4.432,0 -8,3.568 -8,8 L 18,0.15625 C 31.216186,5.109888 47.013726,8 64,8 80.986274,8 96.783814,5.109888 110,0.15625 L 110,-46 c 0,-4.432 -3.568,-8 -8,-8 l -76,0 z"
       id="path5738" />
    <path
       style="fill:#ffffff;fill-opacity:1;stroke:none;opacity:0.85"
       d="M 59.03125 32.40625 L 56.625 33.53125 L 57.75 35.9375 L 55.34375 37.0625 L 54.21875 34.625 L 51.8125 35.75 L 56.28125 45.40625 C 56.899512 46.741629 56.304124 48.287987 54.96875 48.90625 L 40.5 55.625 C 39.164621 56.243263 37.618262 55.647884 37 54.3125 L 32.53125 44.6875 L 30.125 45.78125 L 31.21875 48.21875 L 28.8125 49.3125 L 27.6875 46.90625 L 25.28125 48.03125 L 43.15625 86.59375 L 50.375 83.25 C 49.756737 81.914621 50.352121 80.337013 51.6875 79.71875 L 66.125 73.03125 C 67.460379 72.412987 69.037987 72.977121 69.65625 74.3125 L 76.90625 70.96875 L 59.03125 32.40625 z M 58.875 38.34375 L 59.96875 40.75 L 57.5625 41.875 L 56.4375 39.46875 L 58.875 38.34375 z M 87.625 42.25 L 87.625 45.625 L 87.625 55.75 L 87.625 82.21875 C 85.151023 80.462174 81.538592 79.375 77.5 79.375 C 70.044153 79.375 64 83.152597 64 87.8125 C 64 92.472404 70.044153 96.25 77.5 96.25 C 84.955848 96.25 91 92.472404 91 87.8125 L 91 57.4375 L 94.375 59.125 L 97.75 55.75 L 91 52.375 L 91 47.3125 L 101.125 52.375 L 104.5 49 L 91 42.25 L 87.625 42.25 z M 61.09375 43.15625 L 62.21875 45.5625 L 59.8125 46.6875 L 58.6875 44.28125 L 61.09375 43.15625 z M 63.3125 47.96875 L 64.4375 50.40625 L 62.03125 51.5 L 60.90625 49.09375 L 63.3125 47.96875 z M 32.34375 50.625 L 33.46875 53.03125 L 31.0625 54.15625 L 29.9375 51.71875 L 32.34375 50.625 z M 57.125 51.09375 C 58.15969 51.057886 59.161303 51.623462 59.625 52.625 L 66.3125 67.09375 C 66.930763 68.429129 66.366634 70.006738 65.03125 70.625 L 50.5625 77.3125 C 49.227121 77.930763 47.649513 77.366629 47.03125 76.03125 L 40.34375 61.5625 C 39.725487 60.22712 40.289616 58.649512 41.625 58.03125 L 56.09375 51.34375 C 56.427595 51.189184 56.780103 51.105705 57.125 51.09375 z M 65.5625 52.8125 L 66.6875 55.21875 L 64.25 56.34375 L 63.15625 53.90625 L 65.5625 52.8125 z M 34.5625 55.4375 L 35.6875 57.84375 L 33.28125 58.96875 L 32.15625 56.5625 L 34.5625 55.4375 z M 67.78125 57.625 L 68.90625 60.03125 L 66.5 61.15625 L 65.375 58.75 L 67.78125 57.625 z M 36.8125 60.25 L 37.9375 62.65625 L 35.5 63.78125 L 34.40625 61.375 L 36.8125 60.25 z M 70.03125 62.4375 L 71.125 64.84375 L 68.71875 65.96875 L 67.625 63.5625 L 70.03125 62.4375 z M 39.03125 65.09375 L 40.15625 67.5 L 37.75 68.59375 L 36.625 66.1875 L 39.03125 65.09375 z M 72.25 67.28125 L 73.375 69.6875 L 70.96875 70.78125 L 69.84375 68.375 L 72.25 67.28125 z M 41.28125 69.90625 L 42.375 72.3125 L 39.96875 73.4375 L 38.875 71.03125 L 41.28125 69.90625 z M 43.5 74.71875 L 44.625 77.125 L 42.21875 78.25 L 41.09375 75.84375 L 43.5 74.71875 z M 45.75 79.53125 L 46.84375 81.9375 L 44.4375 83.0625 L 43.3125 80.65625 L 45.75 79.53125 z M 77.5 82.75 C 83.091869 82.75 87.625 85.016559 87.625 87.8125 C 87.625 90.608441 83.091869 92.875 77.5 92.875 C 71.908132 92.875 67.375 90.608441 67.375 87.8125 C 67.375 85.016559 71.908132 82.75 77.5 82.75 z "
       transform="translate(0,-80)"
       id="rect3000" />
    <rect
       style="opacity:0.15;fill:#ffffff;fill-opacity:1;stroke:none"
       id="rect3011"
       width="26.562437"
       height="42.499897"
       x="41.697117"
       y="-18.386223"
       rx="0"
       ry="0"
       transform="matrix(0.90745874,-0.42014121,0.42014121,0.90745874,0,0)" />
    <path
       inkscape:connector-curvature="0"
       style="fill:url(#radialGradient4039);fill-opacity:1;stroke:none"
       d="m 145,32 0,16 3,0 c 0,-0.554 0.446,-1 1,-1 l 6,0 c 0.554,0 1,0.446 1,1 l 3,0 0,-16 -1,0 0,1 -1,0 0,-1 -1,0 0,4 c 0,0.554 -0.446,1 -1,1 l -6,0 c -0.554,0 -1,-0.446 -1,-1 l 0,-4 -1,0 0,1 -1,0 0,-1 -1,0 z m 1,2 1,0 0,1 -1,0 0,-1 z m 11,0 1,0 0,1 -1,0 0,-1 z m -11,2 1,0 0,1 -1,0 0,-1 z m 11,0 1,0 0,1 -1,0 0,-1 z m -11,2 1,0 0,1 -1,0 0,-1 z m 3,0 6,0 c 0.554,0 1,0.446 1,1 l 0,6 c 0,0.554 -0.446,1 -1,1 l -6,0 c -0.554,0 -1,-0.446 -1,-1 l 0,-6 c 0,-0.554 0.446,-1 1,-1 z m 8,0 1,0 0,1 -1,0 0,-1 z m -11,2 1,0 0,1 -1,0 0,-1 z m 11,0 1,0 0,1 -1,0 0,-1 z m -11,2 1,0 0,1 -1,0 0,-1 z m 11,0 1,0 0,1 -1,0 0,-1 z m -11,2 1,0 0,1 -1,0 0,-1 z m 11,0 1,0 0,1 -1,0 0,-1 z m -11,2 1,0 0,1 -1,0 0,-1 z m 11,0 1,0 0,1 -1,0 0,-1 z"
       id="rect3000-3" />
  </g>
</svg>
