<?xml version="1.0" encoding="UTF-8" standalone="no"?>
<!-- Created with Inkscape (http://www.inkscape.org/) -->

<svg
   xmlns:dc="http://purl.org/dc/elements/1.1/"
   xmlns:cc="http://creativecommons.org/ns#"
   xmlns:rdf="http://www.w3.org/1999/02/22-rdf-syntax-ns#"
   xmlns:svg="http://www.w3.org/2000/svg"
   xmlns="http://www.w3.org/2000/svg"
   xmlns:sodipodi="http://sodipodi.sourceforge.net/DTD/sodipodi-0.dtd"
   xmlns:inkscape="http://www.inkscape.org/namespaces/inkscape"
   version="1.1"
   width="16"
   height="16.000057"
   id="svg7384"
   inkscape:version="0.48.4 r9939"
   sodipodi:docname="display-projector-symbolic.svg">
  <title
     id="title4176">Kawaiki Icon Theme</title>
  <sodipodi:namedview
     pagecolor="#4a4a4a"
     bordercolor="#e50000"
     borderopacity="1"
     objecttolerance="10"
     gridtolerance="10000"
     guidetolerance="10"
     inkscape:pageopacity="1"
     inkscape:pageshadow="2"
     inkscape:window-width="1280"
     inkscape:window-height="968"
     id="namedview16"
     showgrid="true"
     inkscape:showpageshadow="false"
     borderlayer="false"
     inkscape:zoom="32"
     inkscape:cx="8.3143617"
     inkscape:cy="6.6361451"
     inkscape:window-x="0"
     inkscape:window-y="27"
     inkscape:window-maximized="1"
     inkscape:current-layer="svg7384">
    <inkscape:grid
       type="xygrid"
       id="grid2993"
       empspacing="4"
       visible="true"
       enabled="true"
       snapvisiblegridlinesonly="true" />
  </sodipodi:namedview>
  <metadata
     id="metadata90">
    <rdf:RDF>
      <cc:Work
         rdf:about="">
        <dc:format>image/svg+xml</dc:format>
        <dc:type
           rdf:resource="http://purl.org/dc/dcmitype/StillImage" />
        <dc:title>Kawaiki Icon Theme</dc:title>
        <dc:date>2014-01-31</dc:date>
        <dc:creator>
          <cc:Agent>
            <dc:title>Georg Eckert</dc:title>
          </cc:Agent>
        </dc:creator>
        <dc:language>German</dc:language>
        <cc:license
           rdf:resource="http://creativecommons.org/licenses/by-nc-sa/3.0/" />
      </cc:Work>
      <cc:License
         rdf:about="http://creativecommons.org/licenses/by-nc-sa/3.0/">
        <cc:permits
           rdf:resource="http://creativecommons.org/ns#Reproduction" />
        <cc:permits
           rdf:resource="http://creativecommons.org/ns#Distribution" />
        <cc:requires
           rdf:resource="http://creativecommons.org/ns#Notice" />
        <cc:requires
           rdf:resource="http://creativecommons.org/ns#Attribution" />
        <cc:prohibits
           rdf:resource="http://creativecommons.org/ns#CommercialUse" />
        <cc:permits
           rdf:resource="http://creativecommons.org/ns#DerivativeWorks" />
        <cc:requires
           rdf:resource="http://creativecommons.org/ns#ShareAlike" />
      </cc:License>
    </rdf:RDF>
  </metadata>
  <defs
     id="defs7386">
    <inkscape:perspective
       sodipodi:type="inkscape:persp3d"
       inkscape:vp_x="0 : 8.0000286 : 1"
       inkscape:vp_y="0 : 1000 : 0"
       inkscape:vp_z="16 : 8.0000286 : 1"
       inkscape:persp3d-origin="8 : 5.3333524 : 1"
       id="perspective3079" />
  </defs>
  <path
     style="fill:#d3d7cf;fill-opacity:1;stroke:none"
     d="M 1 6.5 L 1 7.5 C 1 8.8807119 4.1340068 10 8 10 C 11.865993 10 15 8.8807119 15 7.5 L 15 6.5 C 15 7.8807119 11.865993 9 8 9 C 4.1340068 9 1 7.8807119 1 6.5 z "
     id="path3168" />
  <path
     style="fill:#d3d7cf;fill-opacity:1;stroke:none"
     d="M 1 8.5 L 1 9.5 C 1 10.880712 4.1340068 12 8 12 C 11.865993 12 15 10.880712 15 9.5 L 15 8.5 C 15 9.8807119 11.865993 11 8 11 C 4.1340068 11 1 9.8807119 1 8.5 z "
     id="path3170" />
  <path
     style="fill:#d3d7cf;fill-opacity:1;stroke:none"
     d="M 1 10.5 L 1 11.5 C 1 12.880712 4.1340068 14 8 14 C 11.865993 14 15 12.880712 15 11.5 L 15 10.5 C 15 11.880712 11.865993 13 8 13 C 4.1340068 13 1 11.880712 1 10.5 z "
     id="path3172" />
  <path
     style="fill:#d3d7cf;fill-opacity:1;stroke:none"
     d="M 1 12.5 L 1 13.5 C 1 14.880712 4.1340068 16 8 16 C 11.865993 16 15 14.880712 15 13.5 L 15 12.5 C 15 13.880712 11.865993 15 8 15 C 4.1340068 15 1 13.880712 1 12.5 z "
     id="path3174" />
  <path
     style="fill:#d3d7cf;fill-opacity:1;stroke:none"
     d="M 8,0 C 4.1340068,0 1,1.1192881 1,2.5 l 0,1 C 1,4.8807119 4.1340068,6 8,6 11.865993,6 15,4.8807119 15,3.5 l 0,-1 C 15,1.1192881 11.865993,0 8,0 z"
     id="path3161"
     inkscape:connector-curvature="0"
     sodipodi:nodetypes="sccsccs" />
  <path
     style="fill:#d3d7cf;fill-opacity:1;stroke:none"
     d="M 1 4.5 L 1 5.5 C 1 6.8807119 4.1340068 8 8 8 C 11.865993 8 15 6.8807119 15 5.5 L 15 4.5 C 15 5.8807119 11.865993 7 8 7 C 4.1340068 7 1 5.8807119 1 4.5 z "
     id="path3166" />
</svg>
