<?xml version="1.0" encoding="UTF-8" standalone="no"?>
<!-- Created with Inkscape (http://www.inkscape.org/) -->

<svg
   xmlns:dc="http://purl.org/dc/elements/1.1/"
   xmlns:cc="http://creativecommons.org/ns#"
   xmlns:rdf="http://www.w3.org/1999/02/22-rdf-syntax-ns#"
   xmlns:svg="http://www.w3.org/2000/svg"
   xmlns="http://www.w3.org/2000/svg"
   xmlns:xlink="http://www.w3.org/1999/xlink"
   xmlns:sodipodi="http://sodipodi.sourceforge.net/DTD/sodipodi-0.dtd"
   xmlns:inkscape="http://www.inkscape.org/namespaces/inkscape"
   sodipodi:docname="folder-copy.svg"
   inkscape:version="0.48.4 r9939"
   version="1.1"
   id="svg2"
   height="128"
   width="128">
  <sodipodi:namedview
     id="base"
     pagecolor="#ffffff"
     bordercolor="#666666"
     borderopacity="1.0"
     inkscape:pageopacity="0.0"
     inkscape:pageshadow="2"
     inkscape:zoom="2.5600001"
     inkscape:cx="110.09781"
     inkscape:cy="67.917522"
     inkscape:document-units="px"
     inkscape:current-layer="layer1"
     showgrid="true"
     showguides="true"
     inkscape:guide-bbox="true"
     inkscape:window-width="1221"
     inkscape:window-height="1000"
     inkscape:window-x="59"
     inkscape:window-y="24"
     inkscape:window-maximized="1">
    <inkscape:grid
       snapvisiblegridlinesonly="true"
       enabled="true"
       visible="true"
       empspacing="4"
       id="grid2985"
       type="xygrid" />
  </sodipodi:namedview>
  <defs
     id="defs4">
    <linearGradient
       id="linearGradient10061">
      <stop
         style="stop-color:#b3b3b3;stop-opacity:1;"
         offset="0"
         id="stop10063" />
      <stop
         style="stop-color:#b3b3b3;stop-opacity:0;"
         offset="1"
         id="stop10065" />
    </linearGradient>
    <linearGradient
       id="linearGradient7110">
      <stop
         style="stop-color:#5a5a5a;stop-opacity:1;"
         offset="0"
         id="stop7112" />
      <stop
         style="stop-color:#202020;stop-opacity:1;"
         offset="1"
         id="stop7114" />
    </linearGradient>
    <linearGradient
       id="linearGradient4216-4-8-2">
      <stop
         id="stop4218-8-0-7"
         offset="0"
         style="stop-color:#494949;stop-opacity:1;" />
      <stop
         id="stop4220-1-6-4"
         offset="1"
         style="stop-color:#0f0f0f;stop-opacity:1;" />
    </linearGradient>
    <radialGradient
       inkscape:collect="always"
       xlink:href="#linearGradient4216-4-8-2"
       id="radialGradient5899"
       gradientUnits="userSpaceOnUse"
       gradientTransform="translate(0,2)"
       cx="64"
       cy="1020.3622"
       fx="64"
       fy="1020.3622"
       r="52" />
    <radialGradient
       inkscape:collect="always"
       xlink:href="#linearGradient7110"
       id="radialGradient7116"
       cx="80"
       cy="972.36218"
       fx="80"
       fy="972.36218"
       r="52.5"
       gradientUnits="userSpaceOnUse" />
    <linearGradient
       id="linearGradient6964-4">
      <stop
         style="stop-color:#ffffff;stop-opacity:1;"
         offset="0"
         id="stop6966-4" />
      <stop
         style="stop-color:#cacaca;stop-opacity:1;"
         offset="1"
         id="stop6970-3" />
    </linearGradient>
    <radialGradient
       inkscape:collect="always"
       xlink:href="#linearGradient6964-4"
       id="radialGradient10067"
       cx="80"
       cy="974.11218"
       fx="80"
       fy="974.11218"
       r="31.5"
       gradientTransform="matrix(1.5238095,1.1927547e-6,-1.1927556e-6,1.5238107,-41.9036,-512.00048)"
       gradientUnits="userSpaceOnUse" />
    <radialGradient
       inkscape:collect="always"
       xlink:href="#linearGradient6964-4"
       id="radialGradient10083"
       gradientUnits="userSpaceOnUse"
       gradientTransform="matrix(1.5238095,1.1927547e-6,-1.1927556e-6,1.5238107,-41.9036,-512.00048)"
       cx="80"
       cy="974.11218"
       fx="80"
       fy="974.11218"
       r="31.5" />
    <radialGradient
       inkscape:collect="always"
       xlink:href="#linearGradient6964-4"
       id="radialGradient10098"
       cx="154"
       cy="1042.6122"
       fx="154"
       fy="1042.6122"
       r="7"
       gradientTransform="matrix(1.4285711,4.2426579e-6,-4.2426398e-6,1.428565,-65.99553,-447.07772)"
       gradientUnits="userSpaceOnUse" />
    <radialGradient
       inkscape:collect="always"
       xlink:href="#linearGradient6964-4"
       id="radialGradient3830"
       cx="76"
       cy="976.57489"
       fx="76"
       fy="976.57489"
       r="35.234001"
       gradientTransform="matrix(1.4758471,-7.8524481e-7,7.8524448e-7,1.4758464,-36.165151,-474.91229)"
       gradientUnits="userSpaceOnUse" />
    <filter
       inkscape:collect="always"
       id="filter3834"
       x="-0.1213043"
       width="1.2426086"
       y="-0.11872345"
       height="1.2374469">
      <feGaussianBlur
         inkscape:collect="always"
         stdDeviation="3.5616965"
         id="feGaussianBlur3836" />
    </filter>
    <radialGradient
       inkscape:collect="always"
       xlink:href="#linearGradient6964-4"
       id="radialGradient3846"
       gradientUnits="userSpaceOnUse"
       gradientTransform="matrix(1.4758471,-7.8524481e-7,7.8524448e-7,1.4758464,-36.165151,-464.91229)"
       cx="76"
       cy="976.57489"
       fx="76"
       fy="976.57489"
       r="35.234001" />
    <radialGradient
       inkscape:collect="always"
       xlink:href="#linearGradient6964-4"
       id="radialGradient3875"
       cx="154"
       cy="118"
       fx="154"
       fy="118"
       r="8"
       gradientUnits="userSpaceOnUse"
       gradientTransform="matrix(1.25,0,0,1.25,-38.5,-29.5)" />
    <radialGradient
       inkscape:collect="always"
       xlink:href="#linearGradient6964-4"
       id="radialGradient3898"
       gradientUnits="userSpaceOnUse"
       gradientTransform="matrix(1.4758471,-7.8524481e-7,7.8524448e-7,1.4758464,-28.165151,-474.91229)"
       cx="76"
       cy="976.57489"
       fx="76"
       fy="976.57489"
       r="35.234001" />
    <radialGradient
       inkscape:collect="always"
       xlink:href="#linearGradient6964-4"
       id="radialGradient3902"
       gradientUnits="userSpaceOnUse"
       gradientTransform="matrix(1.4758471,-7.8524481e-7,7.8524448e-7,1.4758464,-24.165151,-474.91229)"
       cx="76"
       cy="976.57489"
       fx="76"
       fy="976.57489"
       r="35.234001" />
    <radialGradient
       inkscape:collect="always"
       xlink:href="#linearGradient6964-4"
       id="radialGradient3906"
       gradientUnits="userSpaceOnUse"
       gradientTransform="matrix(1.4758471,-7.8524481e-7,7.8524448e-7,1.4758464,-12.165151,-1399.2745)"
       cx="76"
       cy="976.57489"
       fx="76"
       fy="976.57489"
       r="35.234001" />
    <radialGradient
       inkscape:collect="always"
       xlink:href="#linearGradient6964-4"
       id="radialGradient3910"
       gradientUnits="userSpaceOnUse"
       gradientTransform="matrix(1.4758471,-7.8524481e-7,7.8524448e-7,1.4758464,-6.165151,-474.91229)"
       cx="76"
       cy="976.57489"
       fx="76"
       fy="976.57489"
       r="35.234001" />
    <radialGradient
       inkscape:collect="always"
       xlink:href="#linearGradient6964-4"
       id="radialGradient3914"
       gradientUnits="userSpaceOnUse"
       gradientTransform="matrix(1.4758471,-7.8524481e-7,7.8524448e-7,1.4758464,-10.165151,-464.91229)"
       cx="76"
       cy="976.57489"
       fx="76"
       fy="976.57489"
       r="35.234001" />
    <radialGradient
       inkscape:collect="always"
       xlink:href="#linearGradient6964-4"
       id="radialGradient3918"
       gradientUnits="userSpaceOnUse"
       gradientTransform="matrix(1.4758471,-7.8524481e-7,7.8524448e-7,1.4758464,-6.165151,-464.91229)"
       cx="76"
       cy="976.57489"
       fx="76"
       fy="976.57489"
       r="35.234001" />
    <radialGradient
       inkscape:collect="always"
       xlink:href="#linearGradient6964-4"
       id="radialGradient3922"
       gradientUnits="userSpaceOnUse"
       gradientTransform="matrix(1.4758471,-7.8524481e-7,7.8524448e-7,1.4758464,-2.165151,-1389.2745)"
       cx="76"
       cy="976.57489"
       fx="76"
       fy="976.57489"
       r="35.234001" />
    <radialGradient
       inkscape:collect="always"
       xlink:href="#linearGradient6964-4"
       id="radialGradient3928"
       gradientUnits="userSpaceOnUse"
       gradientTransform="matrix(1.4758471,-7.8524481e-7,7.8524448e-7,1.4758464,-18.165151,-474.91232)"
       cx="76"
       cy="976.57489"
       fx="76"
       fy="976.57489"
       r="35.234001" />
    <radialGradient
       inkscape:collect="always"
       xlink:href="#linearGradient6964-4"
       id="radialGradient3932"
       gradientUnits="userSpaceOnUse"
       gradientTransform="matrix(1.4758471,-7.8524481e-7,7.8524448e-7,1.4758464,-30.165151,-474.91232)"
       cx="76"
       cy="976.57489"
       fx="76"
       fy="976.57489"
       r="35.234001" />
    <radialGradient
       inkscape:collect="always"
       xlink:href="#linearGradient6964-4"
       id="radialGradient3936"
       gradientUnits="userSpaceOnUse"
       gradientTransform="matrix(1.4758471,-7.8524481e-7,7.8524448e-7,1.4758464,-42.165151,-474.91232)"
       cx="76"
       cy="976.57489"
       fx="76"
       fy="976.57489"
       r="35.234001" />
    <radialGradient
       inkscape:collect="always"
       xlink:href="#linearGradient6964-4"
       id="radialGradient3944"
       gradientUnits="userSpaceOnUse"
       gradientTransform="matrix(1.4758471,-7.8524481e-7,7.8524448e-7,1.4758464,-18.165151,-474.91232)"
       cx="76"
       cy="976.57489"
       fx="76"
       fy="976.57489"
       r="35.234001" />
    <radialGradient
       inkscape:collect="always"
       xlink:href="#linearGradient6964-4"
       id="radialGradient3946"
       gradientUnits="userSpaceOnUse"
       gradientTransform="matrix(1.4758471,-7.8524481e-7,7.8524448e-7,1.4758464,-6.165151,-474.91229)"
       cx="76"
       cy="976.57489"
       fx="76"
       fy="976.57489"
       r="35.234001" />
    <radialGradient
       inkscape:collect="always"
       xlink:href="#linearGradient6964-4"
       id="radialGradient3948"
       gradientUnits="userSpaceOnUse"
       gradientTransform="matrix(1.4758471,-7.8524481e-7,7.8524448e-7,1.4758464,-30.165151,-474.91232)"
       cx="76"
       cy="976.57489"
       fx="76"
       fy="976.57489"
       r="35.234001" />
    <radialGradient
       inkscape:collect="always"
       xlink:href="#linearGradient6964-4"
       id="radialGradient3950"
       gradientUnits="userSpaceOnUse"
       gradientTransform="matrix(1.4758471,-7.8524481e-7,7.8524448e-7,1.4758464,-42.165151,-474.91232)"
       cx="76"
       cy="976.57489"
       fx="76"
       fy="976.57489"
       r="35.234001" />
    <filter
       inkscape:collect="always"
       id="filter3962"
       x="-0.098931103"
       width="1.1978622"
       y="-0.15247105"
       height="1.3049421">
      <feGaussianBlur
         inkscape:collect="always"
         stdDeviation="3.504056"
         id="feGaussianBlur3964" />
    </filter>
    <radialGradient
       inkscape:collect="always"
       xlink:href="#linearGradient6964-4"
       id="radialGradient3998"
       gradientUnits="userSpaceOnUse"
       gradientTransform="matrix(1.4758471,-7.8524481e-7,7.8524448e-7,1.4758464,-18.165151,-474.91232)"
       cx="76"
       cy="976.57489"
       fx="76"
       fy="976.57489"
       r="35.234001" />
    <radialGradient
       inkscape:collect="always"
       xlink:href="#linearGradient6964-4"
       id="radialGradient4000"
       gradientUnits="userSpaceOnUse"
       gradientTransform="matrix(1.4758471,-7.8524481e-7,7.8524448e-7,1.4758464,-6.165151,-474.91229)"
       cx="76"
       cy="976.57489"
       fx="76"
       fy="976.57489"
       r="35.234001" />
    <radialGradient
       inkscape:collect="always"
       xlink:href="#linearGradient6964-4"
       id="radialGradient4002"
       gradientUnits="userSpaceOnUse"
       gradientTransform="matrix(1.4758471,-7.8524481e-7,7.8524448e-7,1.4758464,-30.165151,-474.91232)"
       cx="76"
       cy="976.57489"
       fx="76"
       fy="976.57489"
       r="35.234001" />
    <radialGradient
       inkscape:collect="always"
       xlink:href="#linearGradient6964-4"
       id="radialGradient4004"
       gradientUnits="userSpaceOnUse"
       gradientTransform="matrix(1.4758471,-7.8524481e-7,7.8524448e-7,1.4758464,-42.165151,-474.91232)"
       cx="76"
       cy="976.57489"
       fx="76"
       fy="976.57489"
       r="35.234001" />
    <radialGradient
       inkscape:collect="always"
       xlink:href="#linearGradient6964-4"
       id="radialGradient4006"
       gradientUnits="userSpaceOnUse"
       gradientTransform="matrix(1.25,0,0,1.25,-33.5,892.86218)"
       cx="154"
       cy="118"
       fx="154"
       fy="118"
       r="8" />
    <radialGradient
       inkscape:collect="always"
       xlink:href="#linearGradient6964-4"
       id="radialGradient4010"
       gradientUnits="userSpaceOnUse"
       gradientTransform="matrix(1.25,0,0,1.25,-35.5,892.86218)"
       cx="154"
       cy="118"
       fx="154"
       fy="118"
       r="8" />
    <radialGradient
       inkscape:collect="always"
       xlink:href="#linearGradient6964-4"
       id="radialGradient4019"
       gradientUnits="userSpaceOnUse"
       gradientTransform="matrix(1.25,0,0,1.25,-33.5,892.86218)"
       cx="154"
       cy="118"
       fx="154"
       fy="118"
       r="8" />
    <radialGradient
       inkscape:collect="always"
       xlink:href="#linearGradient6964-4"
       id="radialGradient4025"
       gradientUnits="userSpaceOnUse"
       gradientTransform="matrix(1.25,0,0,1.25,-34.5,-31.5)"
       cx="154"
       cy="118"
       fx="154"
       fy="118"
       r="8" />
    <radialGradient
       inkscape:collect="always"
       xlink:href="#linearGradient6964-4"
       id="radialGradient4028"
       gradientUnits="userSpaceOnUse"
       gradientTransform="matrix(1.25,0,0,1.25,-35.5,892.86218)"
       cx="154"
       cy="118"
       fx="154"
       fy="118"
       r="8" />
    <radialGradient
       inkscape:collect="always"
       xlink:href="#linearGradient6964-4"
       id="radialGradient4032"
       gradientUnits="userSpaceOnUse"
       gradientTransform="matrix(1.25,0,0,1.25,-37.5,892.86218)"
       cx="154"
       cy="118"
       fx="154"
       fy="118"
       r="8" />
    <radialGradient
       inkscape:collect="always"
       xlink:href="#linearGradient6964-4"
       id="radialGradient4036"
       gradientUnits="userSpaceOnUse"
       gradientTransform="matrix(1.25,0,0,1.25,-39.5,892.86218)"
       cx="154"
       cy="118"
       fx="154"
       fy="118"
       r="8" />
  </defs>
  <metadata
     id="metadata7">
    <rdf:RDF>
      <cc:Work
         rdf:about="">
        <dc:format>image/svg+xml</dc:format>
        <dc:type
           rdf:resource="http://purl.org/dc/dcmitype/StillImage" />
        <dc:title></dc:title>
      </cc:Work>
    </rdf:RDF>
  </metadata>
  <g
     transform="translate(0,-924.36218)"
     id="layer1"
     inkscape:groupmode="layer"
     inkscape:label="Layer 1">
    <rect
       ry="8"
       rx="8"
       y="940.36218"
       x="12"
       height="104"
       width="104"
       id="rect6981"
       style="opacity:0.10000000000000001;fill:#000000;fill-opacity:1;stroke:#000000;stroke-width:10;stroke-miterlimit:4;stroke-dasharray:none" />
    <rect
       style="opacity:0.1;fill:#000000;fill-opacity:1;stroke:#000000;stroke-width:6;stroke-miterlimit:4;stroke-dasharray:none"
       id="rect6979"
       width="104"
       height="104"
       x="12"
       y="940.36218"
       rx="8"
       ry="8" />
    <rect
       ry="8"
       rx="8"
       y="938.36218"
       x="12"
       height="104"
       width="104"
       id="rect5969"
       style="fill:#000000;fill-opacity:1;stroke:#000000;opacity:0.20000000000000001;stroke-width:3;stroke-miterlimit:4;stroke-dasharray:none" />
    <rect
       style="fill:url(#radialGradient5899);fill-opacity:1;stroke:#1a1a1a"
       id="rect6936"
       width="104"
       height="104"
       x="12"
       y="938.36218"
       rx="8"
       ry="8" />
    <rect
       ry="8"
       rx="8"
       y="934.36218"
       x="12"
       height="104"
       width="104"
       id="rect6964"
       style="fill:url(#radialGradient7116);fill-opacity:1;stroke:#1a1a1a" />
    <text
       xml:space="preserve"
       style="font-size:24px;font-style:normal;font-weight:normal;line-height:125%;letter-spacing:0px;word-spacing:0px;fill:#000000;fill-opacity:1;stroke:none;font-family:Sans"
       x="-56"
       y="948.36218"
       id="text5893"
       sodipodi:linespacing="125%"><tspan
         sodipodi:role="line"
         id="tspan5895"
         x="-56"
         y="948.36218">128</tspan></text>
    <text
       sodipodi:linespacing="125%"
       id="text5901"
       y="1000.3622"
       x="184"
       style="font-size:16px;font-style:normal;font-weight:normal;line-height:125%;letter-spacing:0px;word-spacing:0px;fill:#000000;fill-opacity:1;stroke:none;font-family:Sans"
       xml:space="preserve"><tspan
         y="1000.3622"
         x="184"
         id="tspan5903"
         sodipodi:role="line">31 - 17</tspan></text>
    <text
       xml:space="preserve"
       style="font-size:16px;font-style:normal;font-weight:normal;line-height:125%;letter-spacing:0px;word-spacing:0px;fill:#000000;fill-opacity:1;stroke:none;font-family:Sans"
       x="172"
       y="1048.3622"
       id="text5905"
       sodipodi:linespacing="125%"><tspan
         sodipodi:role="line"
         id="tspan5907"
         x="172"
         y="1048.3622">16</tspan></text>
    <rect
       style="fill:none;stroke:#000000;stroke-width:1;stroke-linecap:round;stroke-linejoin:round;stroke-miterlimit:4;stroke-opacity:1;stroke-dasharray:none;stroke-dashoffset:0"
       id="rect5919"
       width="40"
       height="40"
       x="140"
       y="60"
       rx="4.5902016e-07"
       transform="translate(0,924.36218)" />
    <rect
       style="fill:none;stroke:#000000;stroke-width:1;stroke-linecap:round;stroke-linejoin:round;stroke-miterlimit:4;stroke-opacity:1;stroke-dasharray:none;stroke-dashoffset:0"
       id="rect5921"
       width="24"
       height="24"
       x="140"
       y="1032.3622"
       rx="4.5902016e-07" />
    <rect
       style="fill:#b3b3b3;fill-opacity:1;stroke:none"
       id="rect6935"
       width="32"
       height="4"
       x="144"
       y="56"
       transform="translate(0,924.36218)"
       rx="4.5902016e-07" />
    <rect
       style="fill:#b3b3b3;fill-opacity:1;stroke:none"
       id="rect6937"
       width="4"
       height="32"
       x="136"
       y="64"
       transform="translate(0,924.36218)"
       rx="4.5902016e-07" />
    <rect
       style="fill:#b3b3b3;fill-opacity:1;stroke:none"
       id="rect6939"
       width="16"
       height="4"
       x="144"
       y="104"
       rx="4.5902016e-07"
       transform="translate(0,924.36218)" />
    <rect
       style="fill:#b3b3b3;fill-opacity:1;stroke:none"
       id="rect6941"
       width="4"
       height="16"
       x="136"
       y="112"
       transform="translate(0,924.36218)"
       rx="4.5902016e-07" />
    <rect
       style="fill:url(#radialGradient7116);fill-opacity:1;stroke:#1a1a1a"
       id="rect12711"
       width="104"
       height="104"
       x="12"
       y="934.36218"
       rx="8"
       ry="8" />
    <path
       style="fill:url(#radialGradient4006);fill-opacity:1;stroke:none"
       d="m 150,1038.3622 c -0.554,0 -1,0.446 -1,1 l 0,10 c 0,0.554 0.446,1 1,1 l 8,0 c 0.554,0 1,-0.446 1,-1 l 0,-6 c 0.554,0 1,-0.446 1,-1 l 0,-2 c 0,-0.554 -0.446,-1 -1,-1 0,-0.554 -0.446,-1 -1,-1 z"
       id="rect3852"
       inkscape:connector-curvature="0"
       sodipodi:nodetypes="sssssscsscss" />
    <g
       transform="translate(-1.284235,1.5781176)"
       id="g3952"
       style="stroke:none;fill:#000000;filter:url(#filter3962)">
      <path
         style="opacity:0.75000000000000000;fill:#000000;fill-opacity:1;stroke:none;stroke-width:2;stroke-miterlimit:4;stroke-opacity:0.31372549000000000;stroke-dasharray:none"
         d="m 49.84375,957.20593 c -1.69736,0 -3.0625,1.36514 -3.0625,3.0625 l 0,49.03127 c 0,1.6974 1.36514,3.0625 3.0625,3.0625 l 6,0 c -1.69736,0 -3.0625,-1.3651 -3.0625,-3.0625 l 0,-49.03127 c 0,-1.69736 1.36514,-3.0625 3.0625,-3.0625 l -6,0 z"
         id="path3954"
         inkscape:connector-curvature="0" />
      <path
         style="fill:#000000;fill-opacity:1;stroke:none;stroke-width:2;stroke-miterlimit:4;stroke-opacity:0.31372549000000000;stroke-dasharray:none"
         d="m 61.829826,957.21329 c -1.69736,0 -3.063826,1.36646 -3.063826,3.06382 l 0,49.02119 c 0,1.6974 1.366466,3.0638 3.063826,3.0638 l 39.829734,0 c 1.69736,0 3.06383,-1.3664 3.06383,-3.0638 l 0,-27.5744 c 1.69736,0 3.06383,-1.36647 3.06383,-3.06383 l 0,-12.2553 c 0,-1.69736 -1.36647,-3.06383 -3.06383,-3.06383 l 0,-3.06383 c 0,-1.69736 -1.36647,-3.06382 -3.06383,-3.06382 z"
         id="path3956"
         inkscape:connector-curvature="0"
         sodipodi:nodetypes="sssssscsscsss" />
      <path
         inkscape:connector-curvature="0"
         id="path3958"
         d="m 37.84375,957.20593 c -1.69736,0 -3.0625,1.36514 -3.0625,3.0625 l 0,49.03127 c 0,1.6974 1.36514,3.0625 3.0625,3.0625 l 6,0 c -1.69736,0 -3.0625,-1.3651 -3.0625,-3.0625 l 0,-49.03127 c 0,-1.69736 1.36514,-3.0625 3.0625,-3.0625 l -6,0 z"
         style="opacity:0.50000000000000000;fill:#000000;fill-opacity:1;stroke:none;stroke-width:2;stroke-miterlimit:4;stroke-opacity:0.31372549000000000;stroke-dasharray:none" />
      <path
         style="opacity:0.25000000000000000;fill:#000000;fill-opacity:1;stroke:none;stroke-width:2;stroke-miterlimit:4;stroke-opacity:0.31372549000000000;stroke-dasharray:none"
         d="m 25.84375,957.20593 c -1.69736,0 -3.0625,1.36514 -3.0625,3.0625 l 0,49.03127 c 0,1.6974 1.36514,3.0625 3.0625,3.0625 l 6,0 c -1.69736,0 -3.0625,-1.3651 -3.0625,-3.0625 l 0,-49.03127 c 0,-1.69736 1.36514,-3.0625 3.0625,-3.0625 l -6,0 z"
         id="path3960"
         inkscape:connector-curvature="0" />
    </g>
    <g
       id="g3938"
       transform="translate(-1.284235,1.5781176)">
      <path
         inkscape:connector-curvature="0"
         id="path3904"
         d="m 49.84375,957.20593 c -1.69736,0 -3.0625,1.36514 -3.0625,3.0625 l 0,49.03127 c 0,1.6974 1.36514,3.0625 3.0625,3.0625 l 6,0 c -1.69736,0 -3.0625,-1.3651 -3.0625,-3.0625 l 0,-49.03127 c 0,-1.69736 1.36514,-3.0625 3.0625,-3.0625 l -6,0 z"
         style="opacity:0.75;fill:url(#radialGradient3944);fill-opacity:1;stroke:#ffffff;stroke-width:2;stroke-miterlimit:4;stroke-opacity:0.31372549;stroke-dasharray:none" />
      <path
         sodipodi:nodetypes="sssssscsscsss"
         inkscape:connector-curvature="0"
         id="path3908"
         d="m 61.829826,957.21329 c -1.69736,0 -3.063826,1.36646 -3.063826,3.06382 l 0,49.02119 c 0,1.6974 1.366466,3.0638 3.063826,3.0638 l 39.829734,0 c 1.69736,0 3.06383,-1.3664 3.06383,-3.0638 l 0,-27.5744 c 1.69736,0 3.06383,-1.36647 3.06383,-3.06383 l 0,-12.2553 c 0,-1.69736 -1.36647,-3.06383 -3.06383,-3.06383 l 0,-3.06383 c 0,-1.69736 -1.36647,-3.06382 -3.06383,-3.06382 z"
         style="fill:url(#radialGradient3946);fill-opacity:1;stroke:#ffffff;stroke-width:2;stroke-miterlimit:4;stroke-opacity:0.31372549;stroke-dasharray:none" />
      <path
         style="opacity:0.5;fill:url(#radialGradient3948);fill-opacity:1;stroke:#ffffff;stroke-width:2;stroke-miterlimit:4;stroke-opacity:0.31372549;stroke-dasharray:none"
         d="m 37.84375,957.20593 c -1.69736,0 -3.0625,1.36514 -3.0625,3.0625 l 0,49.03127 c 0,1.6974 1.36514,3.0625 3.0625,3.0625 l 6,0 c -1.69736,0 -3.0625,-1.3651 -3.0625,-3.0625 l 0,-49.03127 c 0,-1.69736 1.36514,-3.0625 3.0625,-3.0625 l -6,0 z"
         id="path3930"
         inkscape:connector-curvature="0" />
      <path
         inkscape:connector-curvature="0"
         id="path3934"
         d="m 25.84375,957.20593 c -1.69736,0 -3.0625,1.36514 -3.0625,3.0625 l 0,49.03127 c 0,1.6974 1.36514,3.0625 3.0625,3.0625 l 6,0 c -1.69736,0 -3.0625,-1.3651 -3.0625,-3.0625 l 0,-49.03127 c 0,-1.69736 1.36514,-3.0625 3.0625,-3.0625 l -6,0 z"
         style="opacity:0.25;fill:url(#radialGradient3950);fill-opacity:1;stroke:#ffffff;stroke-width:2;stroke-miterlimit:4;stroke-opacity:0.31372549;stroke-dasharray:none" />
    </g>
    <g
       id="g3986"
       transform="matrix(0.31425867,0,0,0.31425867,139.88745,694.38931)">
      <g
         transform="translate(-1.284235,1.5781176)"
         id="g3966"
         style="fill:#000000;stroke:none;filter:url(#filter3962)">
        <path
           style="opacity:0.75;fill:#000000;fill-opacity:1;stroke:none"
           d="m 49.84375,957.20593 c -1.69736,0 -3.0625,1.36514 -3.0625,3.0625 l 0,49.03127 c 0,1.6974 1.36514,3.0625 3.0625,3.0625 l 6,0 c -1.69736,0 -3.0625,-1.3651 -3.0625,-3.0625 l 0,-49.03127 c 0,-1.69736 1.36514,-3.0625 3.0625,-3.0625 l -6,0 z"
           id="path3968"
           inkscape:connector-curvature="0" />
        <path
           style="fill:#000000;fill-opacity:1;stroke:none"
           d="m 61.829826,957.21329 c -1.69736,0 -3.063826,1.36646 -3.063826,3.06382 l 0,49.02119 c 0,1.6974 1.366466,3.0638 3.063826,3.0638 l 39.829734,0 c 1.69736,0 3.06383,-1.3664 3.06383,-3.0638 l 0,-27.5744 c 1.69736,0 3.06383,-1.36647 3.06383,-3.06383 l 0,-12.2553 c 0,-1.69736 -1.36647,-3.06383 -3.06383,-3.06383 l 0,-3.06383 c 0,-1.69736 -1.36647,-3.06382 -3.06383,-3.06382 z"
           id="path3970"
           inkscape:connector-curvature="0"
           sodipodi:nodetypes="sssssscsscsss" />
        <path
           inkscape:connector-curvature="0"
           id="path3972"
           d="m 37.84375,957.20593 c -1.69736,0 -3.0625,1.36514 -3.0625,3.0625 l 0,49.03127 c 0,1.6974 1.36514,3.0625 3.0625,3.0625 l 6,0 c -1.69736,0 -3.0625,-1.3651 -3.0625,-3.0625 l 0,-49.03127 c 0,-1.69736 1.36514,-3.0625 3.0625,-3.0625 l -6,0 z"
           style="opacity:0.5;fill:#000000;fill-opacity:1;stroke:none" />
        <path
           style="opacity:0.25;fill:#000000;fill-opacity:1;stroke:none"
           d="m 25.84375,957.20593 c -1.69736,0 -3.0625,1.36514 -3.0625,3.0625 l 0,49.03127 c 0,1.6974 1.36514,3.0625 3.0625,3.0625 l 6,0 c -1.69736,0 -3.0625,-1.3651 -3.0625,-3.0625 l 0,-49.03127 c 0,-1.69736 1.36514,-3.0625 3.0625,-3.0625 l -6,0 z"
           id="path3974"
           inkscape:connector-curvature="0" />
      </g>
      <g
         id="g3976"
         transform="translate(-1.284235,1.5781176)">
        <path
           inkscape:connector-curvature="0"
           id="path3978"
           d="m 49.84375,957.20593 c -1.69736,0 -3.0625,1.36514 -3.0625,3.0625 l 0,49.03127 c 0,1.6974 1.36514,3.0625 3.0625,3.0625 l 6,0 c -1.69736,0 -3.0625,-1.3651 -3.0625,-3.0625 l 0,-49.03127 c 0,-1.69736 1.36514,-3.0625 3.0625,-3.0625 l -6,0 z"
           style="opacity:0.75;fill:url(#radialGradient3998);fill-opacity:1;stroke:#ffffff;stroke-width:2;stroke-miterlimit:4;stroke-opacity:0.31372549;stroke-dasharray:none" />
        <path
           sodipodi:nodetypes="sssssscsscsss"
           inkscape:connector-curvature="0"
           id="path3980"
           d="m 61.829826,957.21329 c -1.69736,0 -3.063826,1.36646 -3.063826,3.06382 l 0,49.02119 c 0,1.6974 1.366466,3.0638 3.063826,3.0638 l 39.829734,0 c 1.69736,0 3.06383,-1.3664 3.06383,-3.0638 l 0,-27.5744 c 1.69736,0 3.06383,-1.36647 3.06383,-3.06383 l 0,-12.2553 c 0,-1.69736 -1.36647,-3.06383 -3.06383,-3.06383 l 0,-3.06383 c 0,-1.69736 -1.36647,-3.06382 -3.06383,-3.06382 z"
           style="fill:url(#radialGradient4000);fill-opacity:1;stroke:#ffffff;stroke-width:2;stroke-miterlimit:4;stroke-opacity:0.31372549;stroke-dasharray:none" />
        <path
           style="opacity:0.5;fill:url(#radialGradient4002);fill-opacity:1;stroke:#ffffff;stroke-width:2;stroke-miterlimit:4;stroke-opacity:0.31372549;stroke-dasharray:none"
           d="m 37.84375,957.20593 c -1.69736,0 -3.0625,1.36514 -3.0625,3.0625 l 0,49.03127 c 0,1.6974 1.36514,3.0625 3.0625,3.0625 l 6,0 c -1.69736,0 -3.0625,-1.3651 -3.0625,-3.0625 l 0,-49.03127 c 0,-1.69736 1.36514,-3.0625 3.0625,-3.0625 l -6,0 z"
           id="path3982"
           inkscape:connector-curvature="0" />
        <path
           inkscape:connector-curvature="0"
           id="path3984"
           d="m 25.84375,957.20593 c -1.69736,0 -3.0625,1.36514 -3.0625,3.0625 l 0,49.03127 c 0,1.6974 1.36514,3.0625 3.0625,3.0625 l 6,0 c -1.69736,0 -3.0625,-1.3651 -3.0625,-3.0625 l 0,-49.03127 c 0,-1.69736 1.36514,-3.0625 3.0625,-3.0625 l -6,0 z"
           style="opacity:0.25;fill:url(#radialGradient4004);fill-opacity:1;stroke:#ffffff;stroke-width:2;stroke-miterlimit:4;stroke-opacity:0.31372549;stroke-dasharray:none" />
      </g>
    </g>
    <path
       style="fill:url(#radialGradient4028);fill-opacity:1;stroke:none;opacity:0.75"
       d="m 148,1038.3622 c -0.554,0 -1,0.446 -1,1 l 0,10 c 0,0.554 0.446,1 1,1 l 1,0 c -0.554,0 -1,-0.446 -1,-1 l 0,-10 c 0,-0.554 0.446,-1 1,-1 l -1,0 z"
       id="path4021"
       inkscape:connector-curvature="0" />
    <path
       inkscape:connector-curvature="0"
       id="path4030"
       d="m 146,1038.3622 c -0.554,0 -1,0.446 -1,1 l 0,10 c 0,0.554 0.446,1 1,1 l 1,0 c -0.554,0 -1,-0.446 -1,-1 l 0,-10 c 0,-0.554 0.446,-1 1,-1 l -1,0 z"
       style="fill:url(#radialGradient4032);fill-opacity:1;stroke:none;opacity:0.5" />
  </g>
</svg>
