<?xml version="1.0" encoding="UTF-8" standalone="no"?>
<!-- Created with Inkscape (http://www.inkscape.org/) -->

<svg
   xmlns:dc="http://purl.org/dc/elements/1.1/"
   xmlns:cc="http://creativecommons.org/ns#"
   xmlns:rdf="http://www.w3.org/1999/02/22-rdf-syntax-ns#"
   xmlns:svg="http://www.w3.org/2000/svg"
   xmlns="http://www.w3.org/2000/svg"
   xmlns:xlink="http://www.w3.org/1999/xlink"
   xmlns:sodipodi="http://sodipodi.sourceforge.net/DTD/sodipodi-0.dtd"
   xmlns:inkscape="http://www.inkscape.org/namespaces/inkscape"
   sodipodi:docname="document-save.svg"
   inkscape:version="0.48.4 r9939"
   version="1.1"
   id="svg2"
   height="128"
   width="128">
  <sodipodi:namedview
     id="base"
     pagecolor="#ffffff"
     bordercolor="#666666"
     borderopacity="1.0"
     inkscape:pageopacity="0.0"
     inkscape:pageshadow="2"
     inkscape:zoom="2.56"
     inkscape:cx="1.8573154"
     inkscape:cy="14.709835"
     inkscape:document-units="px"
     inkscape:current-layer="layer1"
     showgrid="true"
     showguides="true"
     inkscape:guide-bbox="true"
     inkscape:window-width="1221"
     inkscape:window-height="1000"
     inkscape:window-x="59"
     inkscape:window-y="24"
     inkscape:window-maximized="1">
    <inkscape:grid
       snapvisiblegridlinesonly="true"
       enabled="true"
       visible="true"
       empspacing="4"
       id="grid2985"
       type="xygrid" />
  </sodipodi:namedview>
  <defs
     id="defs4">
    <linearGradient
       id="linearGradient7110">
      <stop
         style="stop-color:#5a5a5a;stop-opacity:1;"
         offset="0"
         id="stop7112" />
      <stop
         style="stop-color:#202020;stop-opacity:1;"
         offset="1"
         id="stop7114" />
    </linearGradient>
    <linearGradient
       id="linearGradient4216-4-8-2">
      <stop
         id="stop4218-8-0-7"
         offset="0"
         style="stop-color:#494949;stop-opacity:1;" />
      <stop
         id="stop4220-1-6-4"
         offset="1"
         style="stop-color:#0f0f0f;stop-opacity:1;" />
    </linearGradient>
    <radialGradient
       inkscape:collect="always"
       xlink:href="#linearGradient4216-4-8-2"
       id="radialGradient5899"
       gradientUnits="userSpaceOnUse"
       gradientTransform="translate(0,2)"
       cx="64"
       cy="1020.3622"
       fx="64"
       fy="1020.3622"
       r="52" />
    <radialGradient
       inkscape:collect="always"
       xlink:href="#linearGradient7110"
       id="radialGradient7116"
       cx="80"
       cy="972.36218"
       fx="80"
       fy="972.36218"
       r="52.5"
       gradientUnits="userSpaceOnUse" />
    <linearGradient
       id="linearGradient4216-4-8-2-7">
      <stop
         style="stop-color:#ffffff;stop-opacity:1;"
         offset="0"
         id="stop4218-8-0-7-6" />
      <stop
         style="stop-color:#c6c6c6;stop-opacity:1;"
         offset="1"
         id="stop4220-1-6-4-0" />
    </linearGradient>
    <linearGradient
       id="linearGradient6964-4">
      <stop
         style="stop-color:#ffffff;stop-opacity:1;"
         offset="0"
         id="stop6966-4" />
      <stop
         id="stop6968-0"
         offset="0.5"
         style="stop-color:#e4e4e4;stop-opacity:1;" />
      <stop
         style="stop-color:#cacaca;stop-opacity:1;"
         offset="1"
         id="stop6970-3" />
    </linearGradient>
    <filter
       inkscape:collect="always"
       id="filter12736"
       x="-0.12857644"
       width="1.2571529"
       y="-0.11249616"
       height="1.2249923">
      <feGaussianBlur
         inkscape:collect="always"
         stdDeviation="3.3751342"
         id="feGaussianBlur12738" />
    </filter>
    <radialGradient
       inkscape:collect="always"
       xlink:href="#linearGradient4216-4-8-2-7"
       id="radialGradient12746"
       cx="76"
       cy="53.250305"
       fx="76"
       fy="53.250305"
       r="31.500025"
       gradientTransform="matrix(1.2698402,-1.5099374e-8,1.6609311e-8,1.3968242,-20.507856,-22.381318)"
       gradientUnits="userSpaceOnUse" />
    <filter
       inkscape:collect="always"
       id="filter12762"
       x="-0.12857647"
       width="1.2571529"
       y="-0.11249614"
       height="1.2249923">
      <feGaussianBlur
         inkscape:collect="always"
         stdDeviation="0.91211627"
         id="feGaussianBlur12764" />
    </filter>
    <radialGradient
       inkscape:collect="always"
       xlink:href="#linearGradient4216-4-8-2-7"
       id="radialGradient8764"
       gradientUnits="userSpaceOnUse"
       gradientTransform="matrix(0.34316917,0,0,0.37748608,137.26498,978.82975)"
       cx="76"
       cy="53.250305"
       fx="76"
       fy="53.250305"
       r="31.500025" />
    <radialGradient
       inkscape:collect="always"
       xlink:href="#linearGradient6964-4"
       id="radialGradient10020"
       cx="154"
       cy="1043.3622"
       fx="154"
       fy="1043.3622"
       r="8"
       gradientUnits="userSpaceOnUse"
       gradientTransform="matrix(1.2500007,-2.4472039e-6,2.447204e-6,1.2500007,-38.502665,-260.84088)" />
    <radialGradient
       inkscape:collect="always"
       xlink:href="#linearGradient6964-4"
       id="radialGradient9536"
       cx="154"
       cy="118"
       fx="154"
       fy="118"
       r="7"
       gradientUnits="userSpaceOnUse"
       gradientTransform="matrix(1.4285714,1.0571433e-6,-1.0571433e-6,1.4285714,-65.999879,-50.571591)" />
    <radialGradient
       inkscape:collect="always"
       xlink:href="#linearGradient6964-4"
       id="radialGradient9540"
       gradientUnits="userSpaceOnUse"
       gradientTransform="matrix(7.3469386,5.436737e-6,-5.436737e-6,7.3469386,-1057.1422,109.13683)"
       cx="154"
       cy="118"
       fx="154"
       fy="118"
       r="7" />
    <filter
       inkscape:collect="always"
       id="filter9544"
       x="-0.12000002"
       width="1.24"
       y="-0.11999998"
       height="1.24">
      <feGaussianBlur
         inkscape:collect="always"
         stdDeviation="3.6000005"
         id="feGaussianBlur9546" />
    </filter>
    <radialGradient
       inkscape:collect="always"
       xlink:href="#linearGradient4216-4-8-2-7"
       id="radialGradient9567"
       gradientUnits="userSpaceOnUse"
       gradientTransform="matrix(0.46068193,0,0,0.50675011,162.97064,991.84266)"
       cx="76"
       cy="53.250305"
       fx="76"
       fy="53.250305"
       r="31.500025" />
    <radialGradient
       inkscape:collect="always"
       xlink:href="#linearGradient6964-4"
       id="radialGradient9585"
       gradientUnits="userSpaceOnUse"
       gradientTransform="matrix(7.3469386,5.436737e-6,-5.436737e-6,7.3469386,-1057.1422,109.13683)"
       cx="154"
       cy="118"
       fx="154"
       fy="118"
       r="7" />
  </defs>
  <metadata
     id="metadata7">
    <rdf:RDF>
      <cc:Work
         rdf:about="">
        <dc:format>image/svg+xml</dc:format>
        <dc:type
           rdf:resource="http://purl.org/dc/dcmitype/StillImage" />
        <dc:title></dc:title>
      </cc:Work>
    </rdf:RDF>
  </metadata>
  <g
     transform="translate(0,-924.36218)"
     id="layer1"
     inkscape:groupmode="layer"
     inkscape:label="Layer 1">
    <rect
       ry="8"
       rx="8"
       y="940.36218"
       x="12"
       height="104"
       width="104"
       id="rect6981"
       style="opacity:0.10000000000000001;fill:#000000;fill-opacity:1;stroke:#000000;stroke-width:10;stroke-miterlimit:4;stroke-dasharray:none" />
    <rect
       style="opacity:0.1;fill:#000000;fill-opacity:1;stroke:#000000;stroke-width:6;stroke-miterlimit:4;stroke-dasharray:none"
       id="rect6979"
       width="104"
       height="104"
       x="12"
       y="940.36218"
       rx="8"
       ry="8" />
    <rect
       ry="8"
       rx="8"
       y="938.36218"
       x="12"
       height="104"
       width="104"
       id="rect5969"
       style="fill:#000000;fill-opacity:1;stroke:#000000;opacity:0.20000000000000001;stroke-width:3;stroke-miterlimit:4;stroke-dasharray:none" />
    <rect
       style="fill:url(#radialGradient5899);fill-opacity:1;stroke:#1a1a1a"
       id="rect6936"
       width="104"
       height="104"
       x="12"
       y="938.36218"
       rx="8"
       ry="8" />
    <rect
       ry="8"
       rx="8"
       y="934.36218"
       x="12"
       height="104"
       width="104"
       id="rect6964"
       style="fill:url(#radialGradient7116);fill-opacity:1;stroke:#1a1a1a" />
    <text
       xml:space="preserve"
       style="font-size:24px;font-style:normal;font-weight:normal;line-height:125%;letter-spacing:0px;word-spacing:0px;fill:#000000;fill-opacity:1;stroke:none;font-family:Sans"
       x="-56"
       y="948.36218"
       id="text5893"
       sodipodi:linespacing="125%"><tspan
         sodipodi:role="line"
         id="tspan5895"
         x="-56"
         y="948.36218">128</tspan></text>
    <text
       sodipodi:linespacing="125%"
       id="text5901"
       y="1000.3622"
       x="184"
       style="font-size:16px;font-style:normal;font-weight:normal;line-height:125%;letter-spacing:0px;word-spacing:0px;fill:#000000;fill-opacity:1;stroke:none;font-family:Sans"
       xml:space="preserve"><tspan
         y="1000.3622"
         x="184"
         id="tspan5903"
         sodipodi:role="line">31 - 17</tspan></text>
    <text
       xml:space="preserve"
       style="font-size:16px;font-style:normal;font-weight:normal;line-height:125%;letter-spacing:0px;word-spacing:0px;fill:#000000;fill-opacity:1;stroke:none;font-family:Sans"
       x="172"
       y="1048.3622"
       id="text5905"
       sodipodi:linespacing="125%"><tspan
         sodipodi:role="line"
         id="tspan5907"
         x="172"
         y="1048.3622">16</tspan></text>
    <rect
       style="fill:none;stroke:#000000;stroke-width:1;stroke-linecap:round;stroke-linejoin:round;stroke-miterlimit:4;stroke-opacity:1;stroke-dasharray:none;stroke-dashoffset:0"
       id="rect5919"
       width="40"
       height="40"
       x="140"
       y="60"
       transform="translate(0,924.36218)"
       rx="4.5902016e-07" />
    <rect
       style="fill:none;stroke:#000000;stroke-width:1;stroke-linecap:round;stroke-linejoin:round;stroke-miterlimit:4;stroke-opacity:1;stroke-dasharray:none;stroke-dashoffset:0"
       id="rect5921"
       width="24"
       height="24"
       x="140"
       y="1032.3622"
       rx="4.5902016e-07" />
    <rect
       style="fill:#b3b3b3;fill-opacity:1;stroke:none"
       id="rect6935"
       width="32"
       height="4"
       x="144"
       y="56"
       transform="translate(0,924.36218)"
       rx="4.5902016e-07" />
    <rect
       style="fill:#b3b3b3;fill-opacity:1;stroke:none"
       id="rect6937"
       width="4"
       height="32"
       x="136"
       y="64"
       transform="translate(0,924.36218)"
       rx="4.5902016e-07" />
    <rect
       style="fill:#b3b3b3;fill-opacity:1;stroke:none"
       id="rect6939"
       width="16"
       height="4"
       x="144"
       y="104"
       rx="4.5902016e-07"
       transform="translate(0,924.36218)" />
    <rect
       style="fill:#b3b3b3;fill-opacity:1;stroke:none"
       id="rect6941"
       width="4"
       height="16"
       x="136"
       y="112"
       transform="translate(0,924.36218)"
       rx="4.5902016e-07" />
    <rect
       style="fill:url(#radialGradient7116);fill-opacity:1;stroke:#1a1a1a"
       id="rect12711"
       width="104"
       height="104"
       x="12"
       y="934.36218"
       rx="8"
       ry="8" />
    <path
       style="font-size:126.92533875000000876px;font-style:normal;font-weight:normal;line-height:125%;letter-spacing:0px;word-spacing:0px;fill:url(#radialGradient9536);fill-opacity:1;stroke:none;font-family:Sans"
       d="M 152 113 C 150.52377 113 149.34355 113.34435 148.5 114.03125 C 147.66247 114.71815 147.25 115.65075 147.25 116.84375 C 147.25 117.87415 147.54769 118.6715 148.15625 119.25 C 148.44649 119.52585 148.8197 119.79403 149.28125 120 L 145 120 L 145 121.15625 L 153.5625 121.15625 C 153.83368 121.28251 154.04484 121.43281 154.21875 121.59375 C 154.62847 121.96735 154.84374 122.49355 154.84375 123.15625 C 154.84374 123.91555 154.56638 124.49655 154 124.90625 C 153.43361 125.31605 152.63614 125.53125 151.59375 125.53125 C 150.90685 125.53125 150.17974 125.3984 149.46875 125.1875 C 148.75775 124.9766 148.05362 124.6658 147.3125 124.25 L 147.3125 126.15625 C 148.08374 126.43935 148.81423 126.63665 149.53125 126.78125 C 150.2543 126.92615 150.95506 127 151.59375 127 C 153.28688 127 154.56381 126.6748 155.4375 126 C 156.31719 125.3252 156.74999 124.3075 156.75 123 C 156.74999 122.28043 156.59269 121.68387 156.3125 121.15625 L 159 121.15625 L 159 120 L 155.28125 120 C 154.65531 119.55593 153.81222 119.23336 152.75 119.03125 L 151.65625 118.78125 C 150.65603 118.59445 149.98652 118.3638 149.625 118.0625 C 149.2695 117.7552 149.09375 117.31525 149.09375 116.71875 C 149.09375 116.00775 149.33874 115.4481 149.875 115.0625 C 150.41728 114.6768 151.19331 114.46875 152.1875 114.46875 C 152.75991 114.46875 153.35416 114.55605 153.96875 114.71875 C 154.58334 114.88145 155.24457 115.13735 155.9375 115.46875 L 155.9375 113.6875 C 155.2506 113.4585 154.56301 113.27075 153.90625 113.15625 C 153.24947 113.04155 152.63265 113 152 113 z "
       transform="translate(0,924.36218)"
       id="path5862" />
    <g
       id="g9575">
      <path
         id="path9542"
         d="m 64,950.36218 c -7.59204,0 -13.66174,1.7709 -18,5.3036 -4.3073,3.5326 -6.42857,8.3288 -6.42857,14.4642 0,5.2992 1.53098,9.3999 4.66071,12.375 1.49267,1.4187 3.41203,2.7979 5.78572,3.8572 l -22.01786,0 0,5.9464 44.03571,0 c 1.39464,0.6493 2.48061,1.4223 3.375,2.25 2.10714,1.9214 3.21424,4.6276 3.21429,8.03572 -5e-5,3.905 -1.42647,6.893 -4.33929,9 -2.91286,2.1076 -7.01413,3.2143 -12.375,3.2143 -3.53262,0 -7.27205,-0.6832 -10.92857,-1.7678 -3.65657,-1.0847 -7.27781,-2.6831 -11.08928,-4.8215 l 0,9.8036 c 3.96637,1.4559 7.72318,2.4706 11.41071,3.2143 3.71854,0.7452 7.32245,1.125 10.60714,1.125 8.70753,0 15.2746,-1.6725 19.76786,-5.1429 4.52412,-3.4704 6.74995,-8.7043 6.75,-15.4285 -5e-5,-3.70072 -0.80902,-6.76872 -2.25,-9.48222 l 13.82143,0 0,-5.9464 -19.125,0 c -3.21912,-2.2838 -7.55501,-3.9427 -13.01786,-4.9822 l -5.625,-1.2857 c -5.14399,-0.9607 -8.58718,-2.1469 -10.44643,-3.6964 -1.82828,-1.5804 -2.73214,-3.843 -2.73214,-6.9107 0,-3.6566 1.25995,-6.5348 4.01786,-8.5179 2.78887,-1.9836 6.77988,-3.0535 11.89286,-3.0535 2.94382,0 5.99996,0.4489 9.16071,1.2857 3.16075,0.8367 6.56136,2.1528 10.125,3.8571 l 0,-9.1607 c -3.53263,-1.1777 -7.06881,-2.1433 -10.44643,-2.7321 -3.37772,-0.5899 -6.54994,-0.8036 -9.80357,-0.8036 z"
         style="font-size:126.92533875000000876px;font-style:normal;font-weight:normal;line-height:125%;letter-spacing:0px;word-spacing:0px;fill:#000000;fill-opacity:1;stroke:none;font-family:Sans;filter:url(#filter9544)"
         inkscape:connector-curvature="0" />
      <path
         inkscape:connector-curvature="0"
         style="font-size:126.92533875000000876px;font-style:normal;font-weight:normal;line-height:125%;letter-spacing:0px;word-spacing:0px;fill:url(#radialGradient9540);fill-opacity:1;stroke:#ffffff;font-family:Sans;stroke-opacity:0.3137255;stroke-width:2;stroke-miterlimit:4;stroke-dasharray:none;stroke-linejoin:round"
         d="m 64,950.36218 c -7.59204,0 -13.66174,1.7709 -18,5.3036 -4.3073,3.5326 -6.42857,8.3288 -6.42857,14.4642 0,5.2992 1.53098,9.3999 4.66071,12.375 1.49267,1.4187 3.41203,2.7979 5.78572,3.8572 l -22.01786,0 0,5.9464 44.03571,0 c 1.39464,0.6493 2.48061,1.4223 3.375,2.25 2.10714,1.9214 3.21424,4.6276 3.21429,8.03572 -5e-5,3.905 -1.42647,6.893 -4.33929,9 -2.91286,2.1076 -7.01413,3.2143 -12.375,3.2143 -3.53262,0 -7.27205,-0.6832 -10.92857,-1.7678 -3.65657,-1.0847 -7.27781,-2.6831 -11.08928,-4.8215 l 0,9.8036 c 3.96637,1.4559 7.72318,2.4706 11.41071,3.2143 3.71854,0.7452 7.32245,1.125 10.60714,1.125 8.70753,0 15.2746,-1.6725 19.76786,-5.1429 4.52412,-3.4704 6.74995,-8.7043 6.75,-15.4285 -5e-5,-3.70072 -0.80902,-6.76872 -2.25,-9.48222 l 13.82143,0 0,-5.9464 -19.125,0 c -3.21912,-2.2838 -7.55501,-3.9427 -13.01786,-4.9822 l -5.625,-1.2857 c -5.14399,-0.9607 -8.58718,-2.1469 -10.44643,-3.6964 -1.82828,-1.5804 -2.73214,-3.843 -2.73214,-6.9107 0,-3.6566 1.25995,-6.5348 4.01786,-8.5179 2.78887,-1.9836 6.77988,-3.0535 11.89286,-3.0535 2.94382,0 5.99996,0.4489 9.16071,1.2857 3.16075,0.8367 6.56136,2.1528 10.125,3.8571 l 0,-9.1607 c -3.53263,-1.1777 -7.06881,-2.1433 -10.44643,-2.7321 -3.37772,-0.5899 -6.54994,-0.8036 -9.80357,-0.8036 z"
         id="path9538" />
    </g>
    <g
       id="g9579"
       transform="matrix(0.35842285,0,0,0.35842285,137.06094,650.82743)">
      <path
         inkscape:connector-curvature="0"
         style="font-size:126.92533875px;font-style:normal;font-weight:normal;line-height:125%;letter-spacing:0px;word-spacing:0px;fill:#000000;fill-opacity:1;stroke:none;filter:url(#filter9544);font-family:Sans"
         d="m 64,950.36218 c -7.59204,0 -13.66174,1.7709 -18,5.3036 -4.3073,3.5326 -6.42857,8.3288 -6.42857,14.4642 0,5.2992 1.53098,9.3999 4.66071,12.375 1.49267,1.4187 3.41203,2.7979 5.78572,3.8572 l -22.01786,0 0,5.9464 44.03571,0 c 1.39464,0.6493 2.48061,1.4223 3.375,2.25 2.10714,1.9214 3.21424,4.6276 3.21429,8.03572 -5e-5,3.905 -1.42647,6.893 -4.33929,9 -2.91286,2.1076 -7.01413,3.2143 -12.375,3.2143 -3.53262,0 -7.27205,-0.6832 -10.92857,-1.7678 -3.65657,-1.0847 -7.27781,-2.6831 -11.08928,-4.8215 l 0,9.8036 c 3.96637,1.4559 7.72318,2.4706 11.41071,3.2143 3.71854,0.7452 7.32245,1.125 10.60714,1.125 8.70753,0 15.2746,-1.6725 19.76786,-5.1429 4.52412,-3.4704 6.74995,-8.7043 6.75,-15.4285 -5e-5,-3.70072 -0.80902,-6.76872 -2.25,-9.48222 l 13.82143,0 0,-5.9464 -19.125,0 c -3.21912,-2.2838 -7.55501,-3.9427 -13.01786,-4.9822 l -5.625,-1.2857 c -5.14399,-0.9607 -8.58718,-2.1469 -10.44643,-3.6964 -1.82828,-1.5804 -2.73214,-3.843 -2.73214,-6.9107 0,-3.6566 1.25995,-6.5348 4.01786,-8.5179 2.78887,-1.9836 6.77988,-3.0535 11.89286,-3.0535 2.94382,0 5.99996,0.4489 9.16071,1.2857 3.16075,0.8367 6.56136,2.1528 10.125,3.8571 l 0,-9.1607 c -3.53263,-1.1777 -7.06881,-2.1433 -10.44643,-2.7321 -3.37772,-0.5899 -6.54994,-0.8036 -9.80357,-0.8036 z"
         id="path9581" />
      <path
         id="path9583"
         d="m 64,950.36218 c -7.59204,0 -13.66174,1.7709 -18,5.3036 -4.3073,3.5326 -6.42857,8.3288 -6.42857,14.4642 0,5.2992 1.53098,9.3999 4.66071,12.375 1.49267,1.4187 3.41203,2.7979 5.78572,3.8572 l -22.01786,0 0,5.9464 44.03571,0 c 1.39464,0.6493 2.48061,1.4223 3.375,2.25 2.10714,1.9214 3.21424,4.6276 3.21429,8.03572 -5e-5,3.905 -1.42647,6.893 -4.33929,9 -2.91286,2.1076 -7.01413,3.2143 -12.375,3.2143 -3.53262,0 -7.27205,-0.6832 -10.92857,-1.7678 -3.65657,-1.0847 -7.27781,-2.6831 -11.08928,-4.8215 l 0,9.8036 c 3.96637,1.4559 7.72318,2.4706 11.41071,3.2143 3.71854,0.7452 7.32245,1.125 10.60714,1.125 8.70753,0 15.2746,-1.6725 19.76786,-5.1429 4.52412,-3.4704 6.74995,-8.7043 6.75,-15.4285 -5e-5,-3.70072 -0.80902,-6.76872 -2.25,-9.48222 l 13.82143,0 0,-5.9464 -19.125,0 c -3.21912,-2.2838 -7.55501,-3.9427 -13.01786,-4.9822 l -5.625,-1.2857 c -5.14399,-0.9607 -8.58718,-2.1469 -10.44643,-3.6964 -1.82828,-1.5804 -2.73214,-3.843 -2.73214,-6.9107 0,-3.6566 1.25995,-6.5348 4.01786,-8.5179 2.78887,-1.9836 6.77988,-3.0535 11.89286,-3.0535 2.94382,0 5.99996,0.4489 9.16071,1.2857 3.16075,0.8367 6.56136,2.1528 10.125,3.8571 l 0,-9.1607 c -3.53263,-1.1777 -7.06881,-2.1433 -10.44643,-2.7321 -3.37772,-0.5899 -6.54994,-0.8036 -9.80357,-0.8036 z"
         style="font-size:126.92533875px;font-style:normal;font-weight:normal;line-height:125%;letter-spacing:0px;word-spacing:0px;fill:url(#radialGradient9585);fill-opacity:1;stroke:#ffffff;stroke-width:2;stroke-linejoin:round;stroke-miterlimit:4;stroke-opacity:0.31372549;stroke-dasharray:none;font-family:Sans"
         inkscape:connector-curvature="0" />
    </g>
  </g>
</svg>
