<?xml version="1.0" encoding="UTF-8" standalone="no"?>
<!-- Created with Inkscape (http://www.inkscape.org/) -->

<svg
   xmlns:dc="http://purl.org/dc/elements/1.1/"
   xmlns:cc="http://creativecommons.org/ns#"
   xmlns:rdf="http://www.w3.org/1999/02/22-rdf-syntax-ns#"
   xmlns:svg="http://www.w3.org/2000/svg"
   xmlns="http://www.w3.org/2000/svg"
   xmlns:xlink="http://www.w3.org/1999/xlink"
   xmlns:sodipodi="http://sodipodi.sourceforge.net/DTD/sodipodi-0.dtd"
   xmlns:inkscape="http://www.inkscape.org/namespaces/inkscape"
   sodipodi:docname="media-record.svg"
   inkscape:version="0.48.4 r9939"
   version="1.1"
   id="svg2"
   height="128"
   width="128">
  <sodipodi:namedview
     id="base"
     pagecolor="#ffffff"
     bordercolor="#666666"
     borderopacity="1.0"
     inkscape:pageopacity="0.0"
     inkscape:pageshadow="2"
     inkscape:zoom="1.2800001"
     inkscape:cx="75.436344"
     inkscape:cy="28.603494"
     inkscape:document-units="px"
     inkscape:current-layer="layer1"
     showgrid="true"
     showguides="true"
     inkscape:guide-bbox="true"
     inkscape:window-width="1221"
     inkscape:window-height="1000"
     inkscape:window-x="59"
     inkscape:window-y="24"
     inkscape:window-maximized="1">
    <inkscape:grid
       snapvisiblegridlinesonly="true"
       enabled="true"
       visible="true"
       empspacing="4"
       id="grid2985"
       type="xygrid" />
  </sodipodi:namedview>
  <defs
     id="defs4">
    <linearGradient
       id="linearGradient4376">
      <stop
         style="stop-color:#000000;stop-opacity:1;"
         offset="0"
         id="stop4378" />
      <stop
         style="stop-color:#000000;stop-opacity:0;"
         offset="1"
         id="stop4380" />
    </linearGradient>
    <linearGradient
       id="linearGradient4045">
      <stop
         style="stop-color:#202020;stop-opacity:1;"
         offset="0"
         id="stop4047" />
      <stop
         id="stop4055"
         offset="0.125"
         style="stop-color:#d4d4d4;stop-opacity:1;" />
      <stop
         id="stop4053"
         offset="0.25"
         style="stop-color:#282828;stop-opacity:1;" />
      <stop
         id="stop4051"
         offset="0.5"
         style="stop-color:#ffffff;stop-opacity:1;" />
      <stop
         style="stop-color:#545454;stop-opacity:1;"
         offset="1"
         id="stop4049" />
    </linearGradient>
    <linearGradient
       id="linearGradient10061">
      <stop
         style="stop-color:#b3b3b3;stop-opacity:1;"
         offset="0"
         id="stop10063" />
      <stop
         style="stop-color:#b3b3b3;stop-opacity:0;"
         offset="1"
         id="stop10065" />
    </linearGradient>
    <linearGradient
       id="linearGradient7110">
      <stop
         style="stop-color:#5a5a5a;stop-opacity:1;"
         offset="0"
         id="stop7112" />
      <stop
         style="stop-color:#202020;stop-opacity:1;"
         offset="1"
         id="stop7114" />
    </linearGradient>
    <linearGradient
       id="linearGradient4216-4-8-2">
      <stop
         id="stop4218-8-0-7"
         offset="0"
         style="stop-color:#494949;stop-opacity:1;" />
      <stop
         id="stop4220-1-6-4"
         offset="1"
         style="stop-color:#0f0f0f;stop-opacity:1;" />
    </linearGradient>
    <radialGradient
       inkscape:collect="always"
       xlink:href="#linearGradient4216-4-8-2"
       id="radialGradient5899"
       gradientUnits="userSpaceOnUse"
       gradientTransform="translate(0,2)"
       cx="64"
       cy="1020.3622"
       fx="64"
       fy="1020.3622"
       r="52" />
    <radialGradient
       inkscape:collect="always"
       xlink:href="#linearGradient7110"
       id="radialGradient7116"
       cx="80"
       cy="972.36218"
       fx="80"
       fy="972.36218"
       r="52.5"
       gradientUnits="userSpaceOnUse" />
    <linearGradient
       id="linearGradient6964-4">
      <stop
         style="stop-color:#ffffff;stop-opacity:1;"
         offset="0"
         id="stop6966-4" />
      <stop
         style="stop-color:#cacaca;stop-opacity:1;"
         offset="1"
         id="stop6970-3" />
    </linearGradient>
    <radialGradient
       inkscape:collect="always"
       xlink:href="#linearGradient6964-4"
       id="radialGradient10192"
       cx="154"
       cy="118"
       fx="154"
       fy="118"
       r="8"
       gradientUnits="userSpaceOnUse"
       gradientTransform="matrix(1.25,0,0,1.25,-38.5,-29.5)" />
    <radialGradient
       inkscape:collect="always"
       xlink:href="#linearGradient6964-4"
       id="radialGradient10196"
       gradientUnits="userSpaceOnUse"
       gradientTransform="matrix(5.625,0,0,5.625,-793.25,313.61216)"
       cx="154"
       cy="118"
       fx="154"
       fy="118"
       r="8" />
    <radialGradient
       inkscape:collect="always"
       xlink:href="#linearGradient6964-4"
       id="radialGradient10212"
       gradientUnits="userSpaceOnUse"
       gradientTransform="matrix(5.625,0,0,5.625,-793.25,313.61216)"
       cx="154"
       cy="118"
       fx="154"
       fy="118"
       r="8" />
    <radialGradient
       inkscape:collect="always"
       xlink:href="#linearGradient8794-33"
       id="radialGradient6967"
       gradientUnits="userSpaceOnUse"
       gradientTransform="matrix(0.78722727,0,0,1.1316392,13.617455,-8.16161)"
       cx="84"
       cy="46.695652"
       fx="84"
       fy="46.695652"
       r="32" />
    <linearGradient
       id="linearGradient8794-33">
      <stop
         style="stop-color:#ffffff;stop-opacity:1;"
         offset="0"
         id="stop8796-9" />
      <stop
         style="stop-color:#cacaca;stop-opacity:1;"
         offset="1"
         id="stop8798-6" />
    </linearGradient>
    <radialGradient
       r="32"
       fy="46.695652"
       fx="84"
       cy="46.695652"
       cx="84"
       gradientTransform="matrix(0.78722727,0,0,1.1316392,13.617455,-8.16161)"
       gradientUnits="userSpaceOnUse"
       id="radialGradient5944"
       xlink:href="#linearGradient8794-33"
       inkscape:collect="always" />
    <radialGradient
       inkscape:collect="always"
       xlink:href="#linearGradient8794-33"
       id="radialGradient10267"
       gradientUnits="userSpaceOnUse"
       gradientTransform="matrix(0.78722727,0,0,1.1316392,13.617455,-8.16161)"
       cx="84"
       cy="46.695652"
       fx="84"
       fy="46.695652"
       r="32" />
    <radialGradient
       inkscape:collect="always"
       xlink:href="#linearGradient8794-33-9"
       id="radialGradient6997"
       cx="153"
       cy="118"
       fx="153"
       fy="118"
       r="4"
       gradientTransform="matrix(1,0,0,1.5,0,-60)"
       gradientUnits="userSpaceOnUse" />
    <linearGradient
       id="linearGradient8794-33-9">
      <stop
         style="stop-color:#ffffff;stop-opacity:1;"
         offset="0"
         id="stop8796-9-5" />
      <stop
         style="stop-color:#cacaca;stop-opacity:1;"
         offset="1"
         id="stop8798-6-9" />
    </linearGradient>
    <radialGradient
       r="4"
       fy="118"
       fx="153"
       cy="118"
       cx="153"
       gradientTransform="matrix(1.333375,0,0,2.0000625,-50.673,804.35467)"
       gradientUnits="userSpaceOnUse"
       id="radialGradient5961"
       xlink:href="#linearGradient8794-33-9"
       inkscape:collect="always" />
    <radialGradient
       inkscape:collect="always"
       xlink:href="#linearGradient4216-4-8-2"
       id="radialGradient3881"
       gradientUnits="userSpaceOnUse"
       gradientTransform="translate(0,150)"
       cx="64"
       cy="1020.3622"
       fx="64"
       fy="1020.3622"
       r="52" />
    <radialGradient
       inkscape:collect="always"
       xlink:href="#linearGradient7110"
       id="radialGradient3883"
       gradientUnits="userSpaceOnUse"
       cx="80"
       cy="972.36218"
       fx="80"
       fy="972.36218"
       r="52.5"
       gradientTransform="translate(0,148)" />
    <radialGradient
       inkscape:collect="always"
       xlink:href="#linearGradient7110"
       id="radialGradient3885"
       gradientUnits="userSpaceOnUse"
       cx="80"
       cy="972.36218"
       fx="80"
       fy="972.36218"
       r="52.5"
       gradientTransform="translate(0,148)" />
    <radialGradient
       inkscape:collect="always"
       xlink:href="#linearGradient8794-33"
       id="radialGradient3887"
       gradientUnits="userSpaceOnUse"
       gradientTransform="matrix(0.78722727,0,0,1.1316392,13.617455,1064.2006)"
       cx="84"
       cy="46.695652"
       fx="84"
       fy="46.695652"
       r="32" />
    <radialGradient
       inkscape:collect="always"
       xlink:href="#linearGradient8794-33"
       id="radialGradient3889"
       gradientUnits="userSpaceOnUse"
       gradientTransform="matrix(0.78722727,0,0,1.1316392,13.617455,-8.16161)"
       cx="84"
       cy="46.695652"
       fx="84"
       fy="46.695652"
       r="32" />
    <radialGradient
       inkscape:collect="always"
       xlink:href="#linearGradient8794-33-9"
       id="radialGradient3905"
       cx="152"
       cy="1191.8622"
       fx="152"
       fy="1191.8622"
       r="4"
       gradientTransform="matrix(1,0,0,0.875,0,148.98277)"
       gradientUnits="userSpaceOnUse" />
    <filter
       color-interpolation-filters="sRGB"
       inkscape:collect="always"
       id="filter6960">
      <feGaussianBlur
         inkscape:collect="always"
         stdDeviation="4.16"
         id="feGaussianBlur6962" />
    </filter>
    <radialGradient
       inkscape:collect="always"
       xlink:href="#linearGradient4216-4-8-2-6"
       id="radialGradient5899-5"
       gradientUnits="userSpaceOnUse"
       gradientTransform="translate(0,2)"
       cx="64"
       cy="1020.3622"
       fx="64"
       fy="1020.3622"
       r="52" />
    <linearGradient
       id="linearGradient4216-4-8-2-6">
      <stop
         id="stop4218-8-0-7-4"
         offset="0"
         style="stop-color:#ffffff;stop-opacity:1;" />
      <stop
         id="stop4220-1-6-4-0"
         offset="1"
         style="stop-color:#c6c6c6;stop-opacity:1;" />
    </linearGradient>
    <linearGradient
       inkscape:collect="always"
       xlink:href="#linearGradient6978"
       id="linearGradient5895"
       gradientUnits="userSpaceOnUse"
       gradientTransform="translate(0,926.36218)"
       x1="64"
       y1="188"
       x2="64"
       y2="8" />
    <linearGradient
       inkscape:collect="always"
       id="linearGradient6978">
      <stop
         style="stop-color:#000000;stop-opacity:0.25"
         offset="0"
         id="stop6980" />
      <stop
         style="stop-color:#000000;stop-opacity:0;"
         offset="1"
         id="stop6982" />
    </linearGradient>
    <radialGradient
       inkscape:collect="always"
       xlink:href="#linearGradient7006"
       id="radialGradient5892"
       gradientUnits="userSpaceOnUse"
       gradientTransform="translate(0,926.36218)"
       cx="88"
       cy="36"
       fx="88"
       fy="36"
       r="51" />
    <linearGradient
       inkscape:collect="always"
       id="linearGradient7006">
      <stop
         style="stop-color:#ffffff;stop-opacity:1;"
         offset="0"
         id="stop7008" />
      <stop
         style="stop-color:#ffffff;stop-opacity:0;"
         offset="1"
         id="stop7010" />
    </linearGradient>
    <radialGradient
       r="51"
       fy="36"
       fx="88"
       cy="36"
       cx="88"
       gradientTransform="translate(0,926.36218)"
       gradientUnits="userSpaceOnUse"
       id="radialGradient6102"
       xlink:href="#linearGradient7006"
       inkscape:collect="always" />
    <radialGradient
       inkscape:collect="always"
       xlink:href="#linearGradient7006"
       id="radialGradient3988"
       gradientUnits="userSpaceOnUse"
       gradientTransform="translate(0,1072.3622)"
       cx="88"
       cy="36"
       fx="88"
       fy="36"
       r="51" />
    <linearGradient
       inkscape:collect="always"
       xlink:href="#linearGradient6978"
       id="linearGradient3991"
       gradientUnits="userSpaceOnUse"
       gradientTransform="translate(0,1072.3622)"
       x1="64"
       y1="188"
       x2="64"
       y2="8" />
    <radialGradient
       inkscape:collect="always"
       xlink:href="#linearGradient4216-4-8-2-6"
       id="radialGradient3995"
       gradientUnits="userSpaceOnUse"
       gradientTransform="translate(0,148)"
       cx="64"
       cy="1020.3622"
       fx="64"
       fy="1020.3622"
       r="52" />
    <radialGradient
       inkscape:collect="always"
       xlink:href="#linearGradient4216-4-8-2"
       id="radialGradient4009"
       gradientUnits="userSpaceOnUse"
       gradientTransform="matrix(5.625,0,0,5.625,-793.25,459.61216)"
       cx="154"
       cy="118"
       fx="154"
       fy="118"
       r="8" />
    <linearGradient
       inkscape:collect="always"
       xlink:href="#linearGradient4045"
       id="linearGradient4043"
       x1="28"
       y1="1168.3622"
       x2="100"
       y2="1096.3622"
       gradientUnits="userSpaceOnUse" />
    <radialGradient
       inkscape:collect="always"
       xlink:href="#linearGradient4216-4-8-2"
       id="radialGradient4071"
       gradientUnits="userSpaceOnUse"
       gradientTransform="matrix(5.625,0,0,5.625,-793.25,459.61216)"
       cx="154"
       cy="118"
       fx="154"
       fy="118"
       r="8" />
    <linearGradient
       inkscape:collect="always"
       xlink:href="#linearGradient4045"
       id="linearGradient4073"
       gradientUnits="userSpaceOnUse"
       x1="28"
       y1="1168.3622"
       x2="100"
       y2="1096.3622" />
    <radialGradient
       inkscape:collect="always"
       xlink:href="#linearGradient4216-4-8-2-6"
       id="radialGradient4223"
       cx="154"
       cy="117.33334"
       fx="154"
       fy="117.33334"
       r="8"
       gradientTransform="matrix(1.25,2.864386e-7,-2.8643884e-7,1.250001,-38.499959,-28.666835)"
       gradientUnits="userSpaceOnUse" />
    <radialGradient
       inkscape:collect="always"
       xlink:href="#linearGradient4216-4-8-2-6"
       id="radialGradient4227"
       gradientUnits="userSpaceOnUse"
       gradientTransform="matrix(5.625,1.2889737e-6,-1.2889748e-6,5.6250045,-793.24982,317.3614)"
       cx="154"
       cy="117.33334"
       fx="154"
       fy="117.33334"
       r="8" />
    <radialGradient
       inkscape:collect="always"
       xlink:href="#linearGradient4216-4-8-2-6"
       id="radialGradient4245"
       gradientUnits="userSpaceOnUse"
       gradientTransform="matrix(5.625,1.2889737e-6,-1.2889748e-6,5.6250045,-793.24982,317.3614)"
       cx="154"
       cy="117.33334"
       fx="154"
       fy="117.33334"
       r="8" />
    <radialGradient
       inkscape:collect="always"
       xlink:href="#linearGradient4216-4-8-2"
       id="radialGradient4249"
       gradientUnits="userSpaceOnUse"
       gradientTransform="matrix(1.25,2.864386e-7,-2.8643884e-7,1.250001,-38.499959,1043.6953)"
       cx="154"
       cy="117.33334"
       fx="154"
       fy="117.33334"
       r="8" />
    <radialGradient
       inkscape:collect="always"
       xlink:href="#linearGradient4216-4-8-2"
       id="radialGradient4253"
       gradientUnits="userSpaceOnUse"
       gradientTransform="matrix(5.625,1.2889737e-6,-1.2889748e-6,5.6250045,-793.24982,461.36113)"
       cx="154"
       cy="117.33334"
       fx="154"
       fy="117.33334"
       r="8" />
    <radialGradient
       inkscape:collect="always"
       xlink:href="#linearGradient4216-4-8-2"
       id="radialGradient4270"
       gradientUnits="userSpaceOnUse"
       gradientTransform="matrix(5.625,1.2889737e-6,-1.2889748e-6,5.6250045,-793.24982,461.36113)"
       cx="154"
       cy="117.33334"
       fx="154"
       fy="117.33334"
       r="8" />
    <radialGradient
       inkscape:collect="always"
       xlink:href="#linearGradient4216-4-8-2-6"
       id="radialGradient4305"
       cx="152"
       cy="120"
       fx="152"
       fy="120"
       r="8"
       gradientTransform="matrix(1,0,0,0.5,0,60)"
       gradientUnits="userSpaceOnUse" />
    <radialGradient
       inkscape:collect="always"
       xlink:href="#linearGradient4216-4-8-2-6"
       id="radialGradient4314"
       cx="154"
       cy="116"
       fx="154"
       fy="116"
       r="8"
       gradientTransform="matrix(1.25,0,0,1.25,-38.5,-27)"
       gradientUnits="userSpaceOnUse" />
    <radialGradient
       inkscape:collect="always"
       xlink:href="#linearGradient4216-4-8-2-6"
       id="radialGradient4318"
       gradientUnits="userSpaceOnUse"
       gradientTransform="matrix(5.625,0,0,5.625,-793.25,324.86216)"
       cx="154"
       cy="116"
       fx="154"
       fy="116"
       r="8" />
    <filter
       inkscape:collect="always"
       id="filter4322"
       x="-0.090000017"
       width="1.18"
       y="-0.17999993"
       height="1.3599999">
      <feGaussianBlur
         inkscape:collect="always"
         stdDeviation="2.7000005"
         id="feGaussianBlur4324" />
    </filter>
    <radialGradient
       inkscape:collect="always"
       xlink:href="#linearGradient4216-4-8-2-6"
       id="radialGradient4336"
       gradientUnits="userSpaceOnUse"
       gradientTransform="matrix(5.625,0,0,5.625,-793.25,324.86216)"
       cx="154"
       cy="116"
       fx="154"
       fy="116"
       r="8" />
    <radialGradient
       inkscape:collect="always"
       xlink:href="#linearGradient4216-4-8-2"
       id="radialGradient4340"
       gradientUnits="userSpaceOnUse"
       gradientTransform="matrix(1.25,0,0,1.25,-38.5,1045.3622)"
       cx="154"
       cy="116"
       fx="154"
       fy="116"
       r="8" />
    <radialGradient
       inkscape:collect="always"
       xlink:href="#linearGradient4216-4-8-2"
       id="radialGradient4344"
       gradientUnits="userSpaceOnUse"
       gradientTransform="matrix(5.625,0,0,5.625,-793.25,468.86218)"
       cx="154"
       cy="116"
       fx="154"
       fy="116"
       r="8" />
    <radialGradient
       inkscape:collect="always"
       xlink:href="#linearGradient4216-4-8-2"
       id="radialGradient4365"
       gradientUnits="userSpaceOnUse"
       gradientTransform="matrix(5.625,0,0,5.625,-793.25,468.86218)"
       cx="154"
       cy="116"
       fx="154"
       fy="116"
       r="8" />
    <radialGradient
       inkscape:collect="always"
       xlink:href="#linearGradient4216-4-8-2"
       id="radialGradient4369"
       gradientUnits="userSpaceOnUse"
       gradientTransform="matrix(5.625,0,0,5.625,-793.25,468.86218)"
       cx="154"
       cy="116"
       fx="154"
       fy="116"
       r="8" />
    <radialGradient
       inkscape:collect="always"
       xlink:href="#linearGradient4216-4-8-2"
       id="radialGradient4382"
       cx="64"
       cy="1130.3622"
       fx="64"
       fy="1130.3622"
       r="36"
       gradientTransform="matrix(1,0,0,0.5,0,565.1811)"
       gradientUnits="userSpaceOnUse" />
    <radialGradient
       inkscape:collect="always"
       xlink:href="#linearGradient4216-4-8-2"
       id="radialGradient4386"
       gradientUnits="userSpaceOnUse"
       gradientTransform="matrix(2.3684063,0,0,2.3684063,-200.94511,872.9955)"
       cx="154"
       cy="116"
       fx="154"
       fy="116"
       r="8" />
    <radialGradient
       inkscape:collect="always"
       xlink:href="#linearGradient4216-4-8-2-6"
       id="radialGradient4536"
       cx="154"
       cy="118"
       fx="154"
       fy="118"
       r="8"
       gradientUnits="userSpaceOnUse"
       gradientTransform="matrix(1.25,0,0,1.25,-38.5,-29.5)" />
    <radialGradient
       inkscape:collect="always"
       xlink:href="#linearGradient4216-4-8-2-6"
       id="radialGradient4540"
       gradientUnits="userSpaceOnUse"
       gradientTransform="matrix(5.625,0,0,5.625,-793.25,313.61216)"
       cx="154"
       cy="118"
       fx="154"
       fy="118"
       r="8" />
    <filter
       inkscape:collect="always"
       id="filter4546"
       x="-0.12000002"
       width="1.24"
       y="-0.11999998"
       height="1.24">
      <feGaussianBlur
         inkscape:collect="always"
         stdDeviation="3.6000005"
         id="feGaussianBlur4548" />
    </filter>
    <radialGradient
       inkscape:collect="always"
       xlink:href="#linearGradient4216-4-8-2-6"
       id="radialGradient4560"
       gradientUnits="userSpaceOnUse"
       gradientTransform="matrix(5.625,0,0,5.625,-793.25,313.61216)"
       cx="154"
       cy="118"
       fx="154"
       fy="118"
       r="8" />
    <radialGradient
       inkscape:collect="always"
       xlink:href="#linearGradient4216-4-8-2"
       id="radialGradient4564"
       gradientUnits="userSpaceOnUse"
       gradientTransform="matrix(1.25,0,0,1.25,-38.5,1042.8622)"
       cx="154"
       cy="118"
       fx="154"
       fy="118"
       r="8" />
    <radialGradient
       inkscape:collect="always"
       xlink:href="#linearGradient4216-4-8-2"
       id="radialGradient4568"
       gradientUnits="userSpaceOnUse"
       gradientTransform="matrix(5.625,0,0,5.625,-793.25,457.61218)"
       cx="154"
       cy="118"
       fx="154"
       fy="118"
       r="8" />
    <radialGradient
       inkscape:collect="always"
       xlink:href="#linearGradient4216-4-8-2"
       id="radialGradient4589"
       gradientUnits="userSpaceOnUse"
       gradientTransform="matrix(5.625,0,0,5.625,-793.25,457.61218)"
       cx="154"
       cy="118"
       fx="154"
       fy="118"
       r="8" />
  </defs>
  <metadata
     id="metadata7">
    <rdf:RDF>
      <cc:Work
         rdf:about="">
        <dc:format>image/svg+xml</dc:format>
        <dc:type
           rdf:resource="http://purl.org/dc/dcmitype/StillImage" />
        <dc:title></dc:title>
      </cc:Work>
    </rdf:RDF>
  </metadata>
  <g
     transform="translate(0,-924.36218)"
     id="layer1"
     inkscape:groupmode="layer"
     inkscape:label="Layer 1">
    <rect
       style="fill:none;fill-opacity:1;stroke:#2e3436"
       id="rect3893"
       width="144"
       height="144"
       x="-8"
       y="1064.3622"
       rx="4.5902016e-07" />
    <rect
       ry="8"
       rx="8"
       y="940.36218"
       x="12"
       height="104"
       width="104"
       id="rect6981"
       style="opacity:0.10000000000000001;fill:#000000;fill-opacity:1;stroke:#000000;stroke-width:10;stroke-miterlimit:4;stroke-dasharray:none" />
    <rect
       style="opacity:0.1;fill:#000000;fill-opacity:1;stroke:#000000;stroke-width:6;stroke-miterlimit:4;stroke-dasharray:none"
       id="rect6979"
       width="104"
       height="104"
       x="12"
       y="940.36218"
       rx="8"
       ry="8" />
    <rect
       ry="8"
       rx="8"
       y="938.36218"
       x="12"
       height="104"
       width="104"
       id="rect5969"
       style="fill:#000000;fill-opacity:1;stroke:#000000;opacity:0.20000000000000001;stroke-width:3;stroke-miterlimit:4;stroke-dasharray:none" />
    <rect
       style="fill:url(#radialGradient5899);fill-opacity:1;stroke:#1a1a1a"
       id="rect6936"
       width="104"
       height="104"
       x="12"
       y="938.36218"
       rx="8"
       ry="8" />
    <rect
       ry="8"
       rx="8"
       y="934.36218"
       x="12"
       height="104"
       width="104"
       id="rect6964"
       style="fill:url(#radialGradient7116);fill-opacity:1;stroke:#1a1a1a" />
    <text
       xml:space="preserve"
       style="font-size:24px;font-style:normal;font-weight:normal;line-height:125%;letter-spacing:0px;word-spacing:0px;fill:#000000;fill-opacity:1;stroke:none;font-family:Sans"
       x="-56"
       y="948.36218"
       id="text5893"
       sodipodi:linespacing="125%"><tspan
         sodipodi:role="line"
         id="tspan5895"
         x="-56"
         y="948.36218">128</tspan></text>
    <text
       sodipodi:linespacing="125%"
       id="text5901"
       y="1000.3622"
       x="184"
       style="font-size:16px;font-style:normal;font-weight:normal;line-height:125%;letter-spacing:0px;word-spacing:0px;fill:#000000;fill-opacity:1;stroke:none;font-family:Sans"
       xml:space="preserve"><tspan
         y="1000.3622"
         x="184"
         id="tspan5903"
         sodipodi:role="line">31 - 17</tspan></text>
    <text
       xml:space="preserve"
       style="font-size:16px;font-style:normal;font-weight:normal;line-height:125%;letter-spacing:0px;word-spacing:0px;fill:#000000;fill-opacity:1;stroke:none;font-family:Sans"
       x="172"
       y="1048.3622"
       id="text5905"
       sodipodi:linespacing="125%"><tspan
         sodipodi:role="line"
         id="tspan5907"
         x="172"
         y="1048.3622">16</tspan></text>
    <rect
       style="fill:none;stroke:#000000;stroke-width:1;stroke-linecap:round;stroke-linejoin:round;stroke-miterlimit:4;stroke-opacity:1;stroke-dasharray:none;stroke-dashoffset:0"
       id="rect5919"
       width="40"
       height="40"
       x="140"
       y="60"
       transform="translate(0,924.36218)"
       rx="4.5902016e-07" />
    <rect
       style="fill:none;stroke:#000000;stroke-width:1;stroke-linecap:round;stroke-linejoin:round;stroke-miterlimit:4;stroke-opacity:1;stroke-dasharray:none;stroke-dashoffset:0"
       id="rect5921"
       width="24"
       height="24"
       x="140"
       y="1032.3622"
       rx="4.5902016e-07" />
    <rect
       style="fill:#b3b3b3;fill-opacity:1;stroke:none"
       id="rect6935"
       width="32"
       height="4"
       x="144"
       y="56"
       transform="translate(0,924.36218)"
       rx="4.5902016e-07" />
    <rect
       style="fill:#b3b3b3;fill-opacity:1;stroke:none"
       id="rect6937"
       width="4"
       height="32"
       x="136"
       y="64"
       transform="translate(0,924.36218)"
       rx="4.5902016e-07" />
    <rect
       style="fill:#b3b3b3;fill-opacity:1;stroke:none"
       id="rect6939"
       width="16"
       height="4"
       x="144"
       y="104"
       rx="4.5902016e-07"
       transform="translate(0,924.36218)" />
    <rect
       style="fill:#b3b3b3;fill-opacity:1;stroke:none"
       id="rect6941"
       width="4"
       height="16"
       x="136"
       y="112"
       transform="translate(0,924.36218)"
       rx="4.5902016e-07" />
    <rect
       style="fill:url(#radialGradient7116);fill-opacity:1;stroke:#1a1a1a"
       id="rect12711"
       width="104"
       height="104"
       x="12"
       y="934.36218"
       rx="8"
       ry="8" />
    <text
       sodipodi:linespacing="125%"
       id="text3841"
       y="1096.3622"
       x="-56"
       style="font-size:24px;font-style:normal;font-weight:normal;line-height:125%;letter-spacing:0px;word-spacing:0px;fill:#000000;fill-opacity:1;stroke:none;font-family:Sans"
       xml:space="preserve"><tspan
         y="1096.3622"
         x="-56"
         id="tspan3843"
         sodipodi:role="line">128</tspan></text>
    <text
       xml:space="preserve"
       style="font-size:16px;font-style:normal;font-weight:normal;line-height:125%;letter-spacing:0px;word-spacing:0px;fill:#000000;fill-opacity:1;stroke:none;font-family:Sans"
       x="184"
       y="1148.3622"
       id="text3845"
       sodipodi:linespacing="125%"><tspan
         sodipodi:role="line"
         id="tspan3847"
         x="184"
         y="1148.3622">31 - 17</tspan></text>
    <text
       sodipodi:linespacing="125%"
       id="text3849"
       y="1196.3622"
       x="172"
       style="font-size:16px;font-style:normal;font-weight:normal;line-height:125%;letter-spacing:0px;word-spacing:0px;fill:#000000;fill-opacity:1;stroke:none;font-family:Sans"
       xml:space="preserve"><tspan
         y="1196.3622"
         x="172"
         id="tspan3851"
         sodipodi:role="line">16</tspan></text>
    <rect
       rx="4.5902016e-07"
       y="1132.3622"
       x="140"
       height="40"
       width="40"
       id="rect3853"
       style="fill:none;stroke:#000000;stroke-width:1;stroke-linecap:round;stroke-linejoin:round;stroke-miterlimit:4;stroke-opacity:1;stroke-dasharray:none;stroke-dashoffset:0" />
    <rect
       rx="4.5902016e-07"
       y="1180.3622"
       x="140"
       height="24"
       width="24"
       id="rect3855"
       style="fill:none;stroke:#000000;stroke-width:1;stroke-linecap:round;stroke-linejoin:round;stroke-miterlimit:4;stroke-opacity:1;stroke-dasharray:none;stroke-dashoffset:0" />
    <rect
       rx="4.5902016e-07"
       y="1128.3622"
       x="144"
       height="4"
       width="32"
       id="rect3857"
       style="fill:#b3b3b3;fill-opacity:1;stroke:none" />
    <rect
       rx="4.5902016e-07"
       y="1136.3622"
       x="136"
       height="32"
       width="4"
       id="rect3859"
       style="fill:#b3b3b3;fill-opacity:1;stroke:none" />
    <rect
       rx="4.5902016e-07"
       y="1176.3622"
       x="144"
       height="4"
       width="16"
       id="rect3861"
       style="fill:#b3b3b3;fill-opacity:1;stroke:none" />
    <rect
       rx="4.5902016e-07"
       y="1184.3622"
       x="136"
       height="16"
       width="4"
       id="rect3863"
       style="fill:#b3b3b3;fill-opacity:1;stroke:none" />
    <rect
       style="fill:#888a85;stroke:none;stroke-width:1;stroke-linejoin:round;stroke-miterlimit:4;stroke-opacity:0.58823528999999997;stroke-dasharray:none"
       id="rect3895"
       width="128"
       height="4"
       x="0"
       y="136"
       transform="translate(0,924.36218)"
       rx="4.5902016e-07" />
    <rect
       style="fill:#888a85;fill-opacity:1;stroke:none"
       id="rect3897"
       width="4"
       height="128"
       x="-12"
       y="148"
       transform="translate(0,924.36218)"
       rx="4.5902016e-07" />
    <rect
       ry="8"
       rx="8"
       y="1084.3622"
       x="12"
       height="104"
       width="104"
       id="rect6938"
       style="fill:#000000;fill-opacity:1;stroke:none;filter:url(#filter6960)" />
    <rect
       style="fill:url(#radialGradient3995);fill-opacity:1;stroke:none"
       id="rect6936-6"
       width="104"
       height="104"
       x="12"
       y="1084.3622"
       rx="8"
       ry="8" />
    <rect
       ry="8"
       rx="8"
       y="1080.3622"
       x="12"
       height="104"
       width="104"
       id="rect6964-2"
       style="fill:#ffffff;fill-opacity:1;stroke:none" />
    <rect
       style="opacity:0.5;fill:url(#linearGradient3991);fill-opacity:1;stroke:none"
       id="rect6975"
       width="102"
       height="102"
       x="13"
       y="1081.3622"
       rx="8"
       ry="8" />
    <rect
       ry="8"
       rx="8"
       y="1081.3622"
       x="13"
       height="102"
       width="102"
       id="rect7002"
       style="opacity:0.5;fill:url(#radialGradient3988);fill-opacity:1;stroke:none" />
    <path
       style="fill:url(#radialGradient4536);fill-opacity:1;stroke:none"
       d="M 152 112 C 147.58172 112 144 115.5817 144 120 C 144 124.4183 147.58172 128 152 128 C 156.41828 128 160 124.4183 160 120 C 160 115.5817 156.41828 112 152 112 z M 152 113 C 155.86599 113 159 116.134 159 120 C 159 123.866 155.86599 127 152 127 C 148.13401 127 145 123.866 145 120 C 145 116.134 148.13401 113 152 113 z M 147 117 L 147 123 L 148 123 L 148 120 L 148 117 L 147 117 z M 148 120 L 152 123 L 152 120 L 152 117 L 148 120 z M 152 120 L 156 123 L 156 117 L 152 120 z "
       transform="translate(0,924.36218)"
       id="path10665" />
    <g
       id="g4550">
      <path
         id="path4542"
         d="m 64,950.36218 c -19.88226,0 -36,16.1176 -36,36 0,19.88232 16.11774,36.00002 36,36.00002 19.88226,0 36,-16.1177 36,-36.00002 0,-19.8824 -16.11774,-36 -36,-36 z m 0,4.5 c 17.39696,0 31.5,14.103 31.5,31.5 0,17.39702 -14.10304,31.50002 -31.5,31.50002 -17.39696,0 -31.5,-14.103 -31.5,-31.50002 0,-17.397 14.10304,-31.5 31.5,-31.5 z m -22.5,18 0,27 4.5,0 0,-13.5 0,-13.5 -4.5,0 z m 4.5,13.5 18,13.5 0,-13.5 0,-13.5 -18,13.5 z m 18,0 18,13.5 0,-27 -18,13.5 z"
         style="fill:#000000;fill-opacity:1;stroke:none;stroke-opacity:1;filter:url(#filter4546)"
         inkscape:connector-curvature="0" />
      <path
         inkscape:connector-curvature="0"
         style="fill:url(#radialGradient4540);fill-opacity:1;stroke:#ffffff;stroke-opacity:0.31372549999999999;stroke-width:2;stroke-miterlimit:4;stroke-dasharray:none"
         d="m 64,950.36218 c -19.88226,0 -36,16.1176 -36,36 0,19.88232 16.11774,36.00002 36,36.00002 19.88226,0 36,-16.1177 36,-36.00002 0,-19.8824 -16.11774,-36 -36,-36 z m 0,4.5 c 17.39696,0 31.5,14.103 31.5,31.5 0,17.39702 -14.10304,31.50002 -31.5,31.50002 -17.39696,0 -31.5,-14.103 -31.5,-31.50002 0,-17.397 14.10304,-31.5 31.5,-31.5 z m -22.5,18 0,27 4.5,0 0,-13.5 0,-13.5 -4.5,0 z m 4.5,13.5 18,13.5 0,-13.5 0,-13.5 -18,13.5 z m 18,0 18,13.5 0,-27 -18,13.5 z"
         id="path4538" />
    </g>
    <g
       id="g4554"
       transform="matrix(0.35842285,0,0,0.35842285,137.06094,650.82743)">
      <path
         inkscape:connector-curvature="0"
         style="fill:#000000;fill-opacity:1;stroke:none;filter:url(#filter4546)"
         d="m 64,950.36218 c -19.88226,0 -36,16.1176 -36,36 0,19.88232 16.11774,36.00002 36,36.00002 19.88226,0 36,-16.1177 36,-36.00002 0,-19.8824 -16.11774,-36 -36,-36 z m 0,4.5 c 17.39696,0 31.5,14.103 31.5,31.5 0,17.39702 -14.10304,31.50002 -31.5,31.50002 -17.39696,0 -31.5,-14.103 -31.5,-31.50002 0,-17.397 14.10304,-31.5 31.5,-31.5 z m -22.5,18 0,27 4.5,0 0,-13.5 0,-13.5 -4.5,0 z m 4.5,13.5 18,13.5 0,-13.5 0,-13.5 -18,13.5 z m 18,0 18,13.5 0,-27 -18,13.5 z"
         id="path4556" />
      <path
         id="path4558"
         d="m 64,950.36218 c -19.88226,0 -36,16.1176 -36,36 0,19.88232 16.11774,36.00002 36,36.00002 19.88226,0 36,-16.1177 36,-36.00002 0,-19.8824 -16.11774,-36 -36,-36 z m 0,4.5 c 17.39696,0 31.5,14.103 31.5,31.5 0,17.39702 -14.10304,31.50002 -31.5,31.50002 -17.39696,0 -31.5,-14.103 -31.5,-31.50002 0,-17.397 14.10304,-31.5 31.5,-31.5 z m -22.5,18 0,27 4.5,0 0,-13.5 0,-13.5 -4.5,0 z m 4.5,13.5 18,13.5 0,-13.5 0,-13.5 -18,13.5 z m 18,0 18,13.5 0,-27 -18,13.5 z"
         style="fill:url(#radialGradient4560);fill-opacity:1;stroke:#ffffff;stroke-width:2;stroke-miterlimit:4;stroke-opacity:0.31372549;stroke-dasharray:none"
         inkscape:connector-curvature="0" />
    </g>
    <path
       id="path4562"
       d="m 152,1184.3622 c -4.41828,0 -8,3.5817 -8,8 0,4.4183 3.58172,8 8,8 4.41828,0 8,-3.5817 8,-8 0,-4.4183 -3.58172,-8 -8,-8 z m 0,1 c 3.86599,0 7,3.134 7,7 0,3.866 -3.13401,7 -7,7 -3.86599,0 -7,-3.134 -7,-7 0,-3.866 3.13401,-7 7,-7 z m -5,4 0,6 1,0 0,-3 0,-3 -1,0 z m 1,3 4,3 0,-3 0,-3 -4,3 z m 4,0 4,3 0,-6 -4,3 z"
       style="fill:url(#radialGradient4564);fill-opacity:1.0;stroke:none"
       inkscape:connector-curvature="0" />
    <g
       id="g4576">
      <path
         id="path4574"
         d="m 64,1096.3622 c -19.88226,0 -36,16.1176 -36,36 0,19.8824 16.11774,36 36,36 19.88226,0 36,-16.1176 36,-36 0,-19.8824 -16.11774,-36 -36,-36 z m 0,4.5 c 17.39696,0 31.5,14.103 31.5,31.5 0,17.397 -14.10304,31.5 -31.5,31.5 -17.39696,0 -31.5,-14.103 -31.5,-31.5 0,-17.397 14.10304,-31.5 31.5,-31.5 z m -22.5,18 0,27 4.5,0 0,-13.5 0,-13.5 -4.5,0 z m 4.5,13.5 18,13.5 0,-13.5 0,-13.5 -18,13.5 z m 18,0 18,13.5 0,-27 -18,13.5 z"
         style="fill:none;fill-opacity:1;stroke:#000000;stroke-opacity:0.19607843000000000;stroke-linejoin:round;stroke-width:4;stroke-miterlimit:4;stroke-dasharray:none"
         inkscape:connector-curvature="0" />
      <path
         inkscape:connector-curvature="0"
         style="fill:#555753;fill-opacity:1;stroke:none"
         d="m 64,1096.3622 c -19.88226,0 -36,16.1176 -36,36 0,19.8824 16.11774,36 36,36 19.88226,0 36,-16.1176 36,-36 0,-19.8824 -16.11774,-36 -36,-36 z m 0,4.5 c 17.39696,0 31.5,14.103 31.5,31.5 0,17.397 -14.10304,31.5 -31.5,31.5 -17.39696,0 -31.5,-14.103 -31.5,-31.5 0,-17.397 14.10304,-31.5 31.5,-31.5 z m -22.5,18 0,27 4.5,0 0,-13.5 0,-13.5 -4.5,0 z m 4.5,13.5 18,13.5 0,-13.5 0,-13.5 -18,13.5 z m 18,0 18,13.5 0,-27 -18,13.5 z"
         id="path4570" />
      <path
         id="path4566"
         d="m 64,1094.3622 c -19.88226,0 -36,16.1176 -36,36 0,19.8824 16.11774,36 36,36 19.88226,0 36,-16.1176 36,-36 0,-19.8824 -16.11774,-36 -36,-36 z m 0,4.5 c 17.39696,0 31.5,14.103 31.5,31.5 0,17.397 -14.10304,31.5 -31.5,31.5 -17.39696,0 -31.5,-14.103 -31.5,-31.5 0,-17.397 14.10304,-31.5 31.5,-31.5 z m -22.5,18 0,27 4.5,0 0,-13.5 0,-13.5 -4.5,0 z m 4.5,13.5 18,13.5 0,-13.5 0,-13.5 -18,13.5 z m 18,0 18,13.5 0,-27 -18,13.5 z"
         style="fill:url(#radialGradient4568);fill-opacity:1;stroke:none"
         inkscape:connector-curvature="0" />
    </g>
    <g
       id="g4581"
       transform="matrix(0.42105263,0,0,0.42105263,133.05263,675.5781)">
      <path
         inkscape:connector-curvature="0"
         style="fill:none;stroke:#000000;stroke-width:4;stroke-linejoin:round;stroke-miterlimit:4;stroke-opacity:0.19607843;stroke-dasharray:none"
         d="m 64,1096.3622 c -19.88226,0 -36,16.1176 -36,36 0,19.8824 16.11774,36 36,36 19.88226,0 36,-16.1176 36,-36 0,-19.8824 -16.11774,-36 -36,-36 z m 0,4.5 c 17.39696,0 31.5,14.103 31.5,31.5 0,17.397 -14.10304,31.5 -31.5,31.5 -17.39696,0 -31.5,-14.103 -31.5,-31.5 0,-17.397 14.10304,-31.5 31.5,-31.5 z m -22.5,18 0,27 4.5,0 0,-13.5 0,-13.5 -4.5,0 z m 4.5,13.5 18,13.5 0,-13.5 0,-13.5 -18,13.5 z m 18,0 18,13.5 0,-27 -18,13.5 z"
         id="path4583" />
      <path
         id="path4585"
         d="m 64,1096.3622 c -19.88226,0 -36,16.1176 -36,36 0,19.8824 16.11774,36 36,36 19.88226,0 36,-16.1176 36,-36 0,-19.8824 -16.11774,-36 -36,-36 z m 0,4.5 c 17.39696,0 31.5,14.103 31.5,31.5 0,17.397 -14.10304,31.5 -31.5,31.5 -17.39696,0 -31.5,-14.103 -31.5,-31.5 0,-17.397 14.10304,-31.5 31.5,-31.5 z m -22.5,18 0,27 4.5,0 0,-13.5 0,-13.5 -4.5,0 z m 4.5,13.5 18,13.5 0,-13.5 0,-13.5 -18,13.5 z m 18,0 18,13.5 0,-27 -18,13.5 z"
         style="fill:#555753;fill-opacity:1;stroke:none"
         inkscape:connector-curvature="0" />
      <path
         inkscape:connector-curvature="0"
         style="fill:url(#radialGradient4589);fill-opacity:1;stroke:none"
         d="m 64,1094.3622 c -19.88226,0 -36,16.1176 -36,36 0,19.8824 16.11774,36 36,36 19.88226,0 36,-16.1176 36,-36 0,-19.8824 -16.11774,-36 -36,-36 z m 0,4.5 c 17.39696,0 31.5,14.103 31.5,31.5 0,17.397 -14.10304,31.5 -31.5,31.5 -17.39696,0 -31.5,-14.103 -31.5,-31.5 0,-17.397 14.10304,-31.5 31.5,-31.5 z m -22.5,18 0,27 4.5,0 0,-13.5 0,-13.5 -4.5,0 z m 4.5,13.5 18,13.5 0,-13.5 0,-13.5 -18,13.5 z m 18,0 18,13.5 0,-27 -18,13.5 z"
         id="path4587" />
    </g>
  </g>
</svg>
