<?xml version="1.0" encoding="UTF-8" standalone="no"?>
<!-- Created with Inkscape (http://www.inkscape.org/) -->

<svg
   xmlns:dc="http://purl.org/dc/elements/1.1/"
   xmlns:cc="http://creativecommons.org/ns#"
   xmlns:rdf="http://www.w3.org/1999/02/22-rdf-syntax-ns#"
   xmlns:svg="http://www.w3.org/2000/svg"
   xmlns="http://www.w3.org/2000/svg"
   xmlns:sodipodi="http://sodipodi.sourceforge.net/DTD/sodipodi-0.dtd"
   xmlns:inkscape="http://www.inkscape.org/namespaces/inkscape"
   version="1.1"
   width="16"
   height="16.000057"
   id="svg7384"
   inkscape:version="0.48.4 r9939"
   sodipodi:docname="network-cellular-signal-weak-symbolic.svg">
  <sodipodi:namedview
     pagecolor="#4a4a4a"
     bordercolor="#e50000"
     borderopacity="1"
     objecttolerance="10"
     gridtolerance="10000"
     guidetolerance="10"
     inkscape:pageopacity="1"
     inkscape:pageshadow="2"
     inkscape:window-width="1280"
     inkscape:window-height="968"
     id="namedview16"
     showgrid="true"
     inkscape:showpageshadow="true"
     borderlayer="false"
     inkscape:zoom="32"
     inkscape:cx="8.299745"
     inkscape:cy="6.2245418"
     inkscape:window-x="0"
     inkscape:window-y="27"
     inkscape:window-maximized="1"
     inkscape:current-layer="svg7384">
    <inkscape:grid
       type="xygrid"
       id="grid2993"
       empspacing="4"
       visible="true"
       enabled="true"
       snapvisiblegridlinesonly="true" />
  </sodipodi:namedview>
  <title
     id="title9167">Gnome Symbolic Icon Theme</title>
  <metadata
     id="metadata90">
    <rdf:RDF>
      <cc:Work
         rdf:about="">
        <dc:format>image/svg+xml</dc:format>
        <dc:type
           rdf:resource="http://purl.org/dc/dcmitype/StillImage" />
        <dc:title>Gnome Symbolic Icon Theme</dc:title>
      </cc:Work>
    </rdf:RDF>
  </metadata>
  <defs
     id="defs7386" />
  <path
     sodipodi:type="arc"
     style="opacity:0.05;fill:#d3d7cf;fill-opacity:1;stroke:none"
     id="path4051"
     sodipodi:cx="8"
     sodipodi:cy="8.0000572"
     sodipodi:rx="5"
     sodipodi:ry="5"
     d="m 13,8.0000572 a 5,5 0 1 1 -10,0 5,5 0 1 1 10,0 z" />
  <path
     sodipodi:type="arc"
     style="opacity:0.05;fill:#d3d7cf;fill-opacity:1;stroke:none"
     id="path4053"
     sodipodi:cx="8"
     sodipodi:cy="8.0000572"
     sodipodi:rx="6"
     sodipodi:ry="6"
     d="m 14,8.0000572 a 6,6 0 1 1 -12,0 6,6 0 1 1 12,0 z" />
  <path
     sodipodi:type="arc"
     style="opacity:0.05;fill:#d3d7cf;fill-opacity:1;stroke:none"
     id="path4055"
     sodipodi:cx="8"
     sodipodi:cy="8.0000572"
     sodipodi:rx="7"
     sodipodi:ry="7"
     d="m 15,8.0000572 a 7,7 0 1 1 -14,0 7,7 0 1 1 14,0 z" />
  <path
     sodipodi:type="arc"
     style="opacity:0.1;fill:#d3d7cf;fill-opacity:1;stroke:none"
     id="path4049"
     sodipodi:cx="8"
     sodipodi:cy="8.0000572"
     sodipodi:rx="4"
     sodipodi:ry="4"
     d="m 12,8.0000572 a 4,4 0 1 1 -8,0 4,4 0 1 1 8,0 z" />
  <path
     style="fill:#d3d7cf;fill-opacity:1;stroke:none"
     d="M 7.84375,6 C 6.8496956,6.0778939 5.9969528,7.0029031 6,8 5.9991376,8.6498115 6.3377368,9.2907313 6.875,9.65625 L 6,15 c -0.091077,0.546462 0.446,1 1,1 l 2,0 c 0.6585454,0 1.04253,-0.744837 1,-1 C 9.7049359,13.229733 9.2488792,10.430798 9.125,9.6875 9.6709808,9.3161868 10.01113,8.6601853 10,8 10.003367,6.8986301 8.9417583,5.9139499 7.84375,6 z"
     id="path8769"
     inkscape:connector-curvature="0"
     sodipodi:nodetypes="scccsssccs" />
  <g
     transform="translate(-101.0002,-217)"
     id="layer10" />
  <g
     transform="translate(-101.0002,-217)"
     id="layer11" />
  <g
     transform="translate(-101.0002,-217)"
     id="layer13" />
  <g
     transform="translate(-101.0002,-217)"
     id="layer14" />
  <g
     transform="translate(-101.0002,-217)"
     id="layer15"
     style="display:inline" />
  <g
     transform="translate(-101.0002,-217)"
     id="g71291"
     style="display:inline" />
  <g
     transform="translate(-101.0002,-217)"
     id="g4953"
     style="display:inline" />
  <g
     transform="translate(-101.0002,-217)"
     id="layer12"
     style="display:inline" />
  <g
     style="display:inline"
     id="g3791"
     transform="translate(-101.0002,-217)" />
  <path
     sodipodi:type="arc"
     style="opacity:0.1;fill:#d3d7cf;fill-opacity:1;stroke:none"
     id="path4047"
     sodipodi:cx="8"
     sodipodi:cy="8.0000572"
     sodipodi:rx="3"
     sodipodi:ry="3"
     d="m 11,8.0000572 a 3,3 0 1 1 -6,0 3,3 0 1 1 6,0 z" />
</svg>
