<?xml version="1.0" encoding="UTF-8" standalone="no"?>
<!-- Created with Inkscape (http://www.inkscape.org/) -->

<svg
   xmlns:dc="http://purl.org/dc/elements/1.1/"
   xmlns:cc="http://creativecommons.org/ns#"
   xmlns:rdf="http://www.w3.org/1999/02/22-rdf-syntax-ns#"
   xmlns:svg="http://www.w3.org/2000/svg"
   xmlns="http://www.w3.org/2000/svg"
   xmlns:sodipodi="http://sodipodi.sourceforge.net/DTD/sodipodi-0.dtd"
   xmlns:inkscape="http://www.inkscape.org/namespaces/inkscape"
   version="1.1"
   width="16"
   height="16.000057"
   id="svg7384"
   inkscape:version="0.48.4 r9939"
   sodipodi:docname="drive-multidisk-symbolic.svg">
  <title
     id="title4176">Kawaiki Icon Theme</title>
  <sodipodi:namedview
     pagecolor="#4a4a4a"
     bordercolor="#e50000"
     borderopacity="1"
     objecttolerance="10"
     gridtolerance="10000"
     guidetolerance="10"
     inkscape:pageopacity="1"
     inkscape:pageshadow="2"
     inkscape:window-width="1280"
     inkscape:window-height="968"
     id="namedview16"
     showgrid="true"
     inkscape:showpageshadow="false"
     borderlayer="false"
     inkscape:zoom="32"
     inkscape:cx="8.3143617"
     inkscape:cy="6.6361451"
     inkscape:window-x="0"
     inkscape:window-y="27"
     inkscape:window-maximized="1"
     inkscape:current-layer="svg7384">
    <inkscape:grid
       type="xygrid"
       id="grid2993"
       empspacing="4"
       visible="true"
       enabled="true"
       snapvisiblegridlinesonly="true" />
  </sodipodi:namedview>
  <metadata
     id="metadata90">
    <rdf:RDF>
      <cc:Work
         rdf:about="">
        <dc:format>image/svg+xml</dc:format>
        <dc:type
           rdf:resource="http://purl.org/dc/dcmitype/StillImage" />
        <dc:title>Kawaiki Icon Theme</dc:title>
        <dc:date>2014-01-31</dc:date>
        <dc:creator>
          <cc:Agent>
            <dc:title>Georg Eckert</dc:title>
          </cc:Agent>
        </dc:creator>
        <dc:language>German</dc:language>
        <cc:license
           rdf:resource="http://creativecommons.org/licenses/by-nc-sa/3.0/" />
      </cc:Work>
      <cc:License
         rdf:about="http://creativecommons.org/licenses/by-nc-sa/3.0/">
        <cc:permits
           rdf:resource="http://creativecommons.org/ns#Reproduction" />
        <cc:permits
           rdf:resource="http://creativecommons.org/ns#Distribution" />
        <cc:requires
           rdf:resource="http://creativecommons.org/ns#Notice" />
        <cc:requires
           rdf:resource="http://creativecommons.org/ns#Attribution" />
        <cc:prohibits
           rdf:resource="http://creativecommons.org/ns#CommercialUse" />
        <cc:permits
           rdf:resource="http://creativecommons.org/ns#DerivativeWorks" />
        <cc:requires
           rdf:resource="http://creativecommons.org/ns#ShareAlike" />
      </cc:License>
    </rdf:RDF>
  </metadata>
  <defs
     id="defs7386">
    <inkscape:perspective
       sodipodi:type="inkscape:persp3d"
       inkscape:vp_x="0 : 8.0000286 : 1"
       inkscape:vp_y="0 : 1000 : 0"
       inkscape:vp_z="16 : 8.0000286 : 1"
       inkscape:persp3d-origin="8 : 5.3333524 : 1"
       id="perspective3079" />
  </defs>
  <path
     style="fill:#d3d7cf;fill-opacity:1;stroke:none"
     d="M 2 0 C 0.892 0 0 0.892 0 2 L 0 12 C 0 13.108 0.892 14 2 14 L 14 14 C 15.108 14 16 13.108 16 12 L 16 2 C 16 0.892 15.108 0 14 0 L 2 0 z M 8 1 C 11.313708 1 14 3.6862915 14 7 C 14 10.313709 11.313708 13 8 13 C 4.6862915 13 2 10.313709 2 7 C 2 3.6862915 4.6862915 1 8 1 z M 8 2 C 5.2385763 2 3 4.2385763 3 7 C 3 9.7614237 5.2385763 12 8 12 C 10.761424 12 13 9.7614237 13 7 C 13 4.2385763 10.761424 2 8 2 z M 8 3 C 10.209139 3 12 4.790861 12 7 C 12 9.209139 10.209139 11 8 11 C 5.790861 11 4 9.209139 4 7 C 4 4.790861 5.790861 3 8 3 z M 8 5 C 6.8954305 5 6 5.8954305 6 7 C 6 8.1045695 6.8954305 9 8 9 C 9.1045695 9 10 8.1045695 10 7 C 10 5.8954305 9.1045695 5 8 5 z M 8 6 C 8.5522847 6 9 6.4477153 9 7 C 9 7.5522847 8.5522847 8 8 8 C 7.4477153 8 7 7.5522847 7 7 C 7 6.4477153 7.4477153 6 8 6 z "
     id="rect3211" />
  <path
     style="fill:#d3d7cf;fill-opacity:1;stroke:none"
     d="M 0 13 L 0 14 C 0 15.108 0.892 16 2 16 L 14 16 C 15.108 16 16 15.108 16 14 L 16 13 C 16 14.108 15.108 15 14 15 L 2 15 C 0.892 15 0 14.108 0 13 z "
     id="rect3230" />
  <rect
     style="fill:#d3d7cf;fill-opacity:1;stroke:none;opacity:0.15"
     id="rect3236"
     width="16"
     height="16"
     x="0"
     y="5.7220459e-05"
     rx="2"
     ry="2" />
</svg>
