<?xml version="1.0" encoding="UTF-8" standalone="no"?>
<!-- Created with Inkscape (http://www.inkscape.org/) -->

<svg
   xmlns:dc="http://purl.org/dc/elements/1.1/"
   xmlns:cc="http://creativecommons.org/ns#"
   xmlns:rdf="http://www.w3.org/1999/02/22-rdf-syntax-ns#"
   xmlns:svg="http://www.w3.org/2000/svg"
   xmlns="http://www.w3.org/2000/svg"
   xmlns:sodipodi="http://sodipodi.sourceforge.net/DTD/sodipodi-0.dtd"
   xmlns:inkscape="http://www.inkscape.org/namespaces/inkscape"
   version="1.1"
   width="16"
   height="16.000057"
   id="svg7384"
   inkscape:version="0.48.4 r9939"
   sodipodi:docname="phone-symbolic.svg">
  <title
     id="title4176">Kawaiki Icon Theme</title>
  <sodipodi:namedview
     pagecolor="#4a4a4a"
     bordercolor="#e50000"
     borderopacity="1"
     objecttolerance="10"
     gridtolerance="10000"
     guidetolerance="10"
     inkscape:pageopacity="1"
     inkscape:pageshadow="2"
     inkscape:window-width="1280"
     inkscape:window-height="968"
     id="namedview16"
     showgrid="true"
     inkscape:showpageshadow="false"
     borderlayer="false"
     inkscape:zoom="32"
     inkscape:cx="6.0701159"
     inkscape:cy="8.5938422"
     inkscape:window-x="0"
     inkscape:window-y="27"
     inkscape:window-maximized="1"
     inkscape:current-layer="svg7384"
     showguides="true"
     inkscape:guide-bbox="true">
    <inkscape:grid
       type="xygrid"
       id="grid2993"
       empspacing="4"
       visible="true"
       enabled="true"
       snapvisiblegridlinesonly="true" />
  </sodipodi:namedview>
  <metadata
     id="metadata90">
    <rdf:RDF>
      <cc:Work
         rdf:about="">
        <dc:format>image/svg+xml</dc:format>
        <dc:type
           rdf:resource="http://purl.org/dc/dcmitype/StillImage" />
        <dc:title>Kawaiki Icon Theme</dc:title>
        <dc:date>2014-01-31</dc:date>
        <dc:creator>
          <cc:Agent>
            <dc:title>Georg Eckert</dc:title>
          </cc:Agent>
        </dc:creator>
        <dc:language>German</dc:language>
        <cc:license
           rdf:resource="http://creativecommons.org/licenses/by-nc-sa/3.0/" />
      </cc:Work>
      <cc:License
         rdf:about="http://creativecommons.org/licenses/by-nc-sa/3.0/">
        <cc:permits
           rdf:resource="http://creativecommons.org/ns#Reproduction" />
        <cc:permits
           rdf:resource="http://creativecommons.org/ns#Distribution" />
        <cc:requires
           rdf:resource="http://creativecommons.org/ns#Notice" />
        <cc:requires
           rdf:resource="http://creativecommons.org/ns#Attribution" />
        <cc:prohibits
           rdf:resource="http://creativecommons.org/ns#CommercialUse" />
        <cc:permits
           rdf:resource="http://creativecommons.org/ns#DerivativeWorks" />
        <cc:requires
           rdf:resource="http://creativecommons.org/ns#ShareAlike" />
      </cc:License>
    </rdf:RDF>
  </metadata>
  <defs
     id="defs7386">
    <inkscape:perspective
       sodipodi:type="inkscape:persp3d"
       inkscape:vp_x="0 : 8.0000286 : 1"
       inkscape:vp_y="0 : 1000 : 0"
       inkscape:vp_z="16 : 8.0000286 : 1"
       inkscape:persp3d-origin="8 : 5.3333524 : 1"
       id="perspective3079" />
  </defs>
  <path
     style="fill:#d3d7cf;fill-opacity:1;stroke:none"
     d="M 1,2 C 0.446,2 0,2.446 0,3 L 0,5 C 0,5.554 0.446,6 1,6 L 3,6 C 3.554,6 4,5.554 4,5 l 0,-1 8,0 0,1 c 0,0.554 0.446,1 1,1 l 2,0 c 0.554,0 1,-0.446 1,-1 L 16,3 C 16,2.446 15.554,2 15,2 L 13,2 3,2 1,2 z"
     id="rect3746"
     inkscape:connector-curvature="0" />
  <path
     style="fill:#d3d7cf;stroke:none"
     d="M 5 5 L 5 7 L 3 7 L 0 11 L 0 15 L 1 16 L 15 16 L 16 15 L 16 11 L 13 7 L 11 7 L 11 5 L 5 5 z M 8 7 C 10.209139 7 12 8.7908612 12 11 C 12 13.209139 10.209139 15 8 15 C 5.790861 15 4 13.209139 4 11 C 4 8.7908612 5.790861 7 8 7 z M 8 8 C 8.5522847 8 9 8.4477153 9 9 C 9 9.552285 8.5522847 10 8 10 C 7.4477153 10 7 9.552285 7 9 C 7 8.4477153 7.4477153 8 8 8 z M 8 8 C 7.0051164 8 6.1411814 8.5050639 5.59375 9.25 C 5.8157993 9.0586437 6.1220007 8.9647291 6.40625 9 C 6.5351612 9.016 6.6616768 9.05596 6.78125 9.125 C 7.2595426 9.401142 7.4011424 10.021707 7.125 10.5 C 6.9696699 10.769039 6.7158047 10.950198 6.4375 11 C 6.7158047 11.0498 6.9696699 11.230961 7.125 11.5 C 7.4011424 11.978293 7.2595426 12.598858 6.78125 12.875 C 6.3102484 13.146933 5.6884122 12.993049 5.40625 12.53125 C 5.9286187 13.413365 6.9005153 14 8 14 C 7.4477153 14 7 13.552285 7 13 C 7 12.447715 7.4477153 12 8 12 C 8.5522847 12 9 12.447715 9 13 C 9 13.552285 8.5522847 14 8 14 C 9.0994847 14 10.071381 13.413365 10.59375 12.53125 C 10.311588 12.993049 9.6897516 13.146933 9.21875 12.875 C 8.7404574 12.598858 8.5988576 11.978293 8.875 11.5 C 9.0303301 11.230961 9.2841953 11.049802 9.5625 11 C 9.2841953 10.9502 9.0303301 10.769039 8.875 10.5 C 8.5988576 10.021707 8.7404574 9.401142 9.21875 9.125 C 9.3383232 9.055964 9.4648388 9.015996 9.59375 9 C 9.8779993 8.964729 10.184201 9.0586437 10.40625 9.25 C 9.8588184 8.5050639 8.9948836 8 8 8 z M 5.40625 9.53125 C 5.1587534 9.967529 5 10.462579 5 11 C 5 11.537421 5.1587534 12.032471 5.40625 12.46875 C 5.1517573 11.994358 5.311925 11.395964 5.78125 11.125 C 5.9008232 11.05596 6.0273388 11.015996 6.15625 11 C 6.0273388 10.984 5.9008232 10.94404 5.78125 10.875 C 5.3119254 10.604036 5.1517573 10.005642 5.40625 9.53125 z M 10.59375 9.53125 C 10.848242 10.005642 10.68807 10.604036 10.21875 10.875 C 10.099177 10.94404 9.9726612 10.984004 9.84375 11 C 9.9726612 11.016 10.099177 11.05596 10.21875 11.125 C 10.688075 11.395964 10.848242 11.994358 10.59375 12.46875 C 10.841247 12.032471 11 11.537421 11 11 C 11 10.462579 10.841247 9.967529 10.59375 9.53125 z "
     id="path3753" />
</svg>
