<?xml version="1.0" encoding="UTF-8" standalone="no"?>
<!-- Created with Inkscape (http://www.inkscape.org/) -->

<svg
   xmlns:dc="http://purl.org/dc/elements/1.1/"
   xmlns:cc="http://creativecommons.org/ns#"
   xmlns:rdf="http://www.w3.org/1999/02/22-rdf-syntax-ns#"
   xmlns:svg="http://www.w3.org/2000/svg"
   xmlns="http://www.w3.org/2000/svg"
   xmlns:xlink="http://www.w3.org/1999/xlink"
   xmlns:sodipodi="http://sodipodi.sourceforge.net/DTD/sodipodi-0.dtd"
   xmlns:inkscape="http://www.inkscape.org/namespaces/inkscape"
   sodipodi:docname="unity-desktop.svg"
   inkscape:version="0.48.4 r9939"
   version="1.1"
   id="svg2"
   height="128"
   width="128">
  <sodipodi:namedview
     id="base"
     pagecolor="#ffffff"
     bordercolor="#666666"
     borderopacity="1.0"
     inkscape:pageopacity="0.0"
     inkscape:pageshadow="2"
     inkscape:zoom="1.4"
     inkscape:cx="137.63522"
     inkscape:cy="-30.186692"
     inkscape:document-units="px"
     inkscape:current-layer="layer1"
     showgrid="true"
     showguides="true"
     inkscape:guide-bbox="true"
     inkscape:window-width="1280"
     inkscape:window-height="1000"
     inkscape:window-x="0"
     inkscape:window-y="24"
     inkscape:window-maximized="1">
    <inkscape:grid
       snapvisiblegridlinesonly="true"
       enabled="true"
       visible="true"
       empspacing="4"
       id="grid2985"
       type="xygrid" />
  </sodipodi:namedview>
  <defs
     id="defs4">
    <linearGradient
       id="linearGradient4040">
      <stop
         style="stop-color:#000000;stop-opacity:1;"
         offset="0"
         id="stop4042" />
      <stop
         id="stop4048"
         offset="0.5"
         style="stop-color:#4c4c4c;stop-opacity:1;" />
      <stop
         style="stop-color:#000000;stop-opacity:1;"
         offset="1"
         id="stop4044" />
    </linearGradient>
    <linearGradient
       id="linearGradient3891">
      <stop
         style="stop-color:#ffffff;stop-opacity:1;"
         offset="0"
         id="stop3893" />
      <stop
         style="stop-color:#ffffff;stop-opacity:0;"
         offset="1"
         id="stop3895" />
    </linearGradient>
    <linearGradient
       id="linearGradient3813">
      <stop
         id="stop3815"
         offset="0"
         style="stop-color:#ff00bf;stop-opacity:1;" />
      <stop
         id="stop3817"
         offset="1"
         style="stop-color:#1d0031;stop-opacity:1;" />
    </linearGradient>
    <linearGradient
       id="linearGradient3934"
       inkscape:collect="always">
      <stop
         id="stop3936"
         offset="0"
         style="stop-color:#ffffff;stop-opacity:1;" />
      <stop
         id="stop3938"
         offset="1"
         style="stop-color:#ffffff;stop-opacity:0;" />
    </linearGradient>
    <linearGradient
       id="linearGradient3879"
       inkscape:collect="always">
      <stop
         id="stop3881"
         offset="0"
         style="stop-color:#ffffff;stop-opacity:1;" />
      <stop
         id="stop3883"
         offset="1"
         style="stop-color:#ffffff;stop-opacity:0;" />
    </linearGradient>
    <linearGradient
       gradientUnits="userSpaceOnUse"
       y2="128"
       x2="112"
       y1="36"
       x1="112"
       id="linearGradient3885"
       xlink:href="#linearGradient3879"
       inkscape:collect="always" />
    <linearGradient
       gradientUnits="userSpaceOnUse"
       y2="148"
       x2="172"
       y1="16"
       x1="160"
       id="linearGradient3796-7"
       xlink:href="#linearGradient3790-8"
       inkscape:collect="always" />
    <linearGradient
       id="linearGradient3790-8"
       inkscape:collect="always">
      <stop
         id="stop3792-7"
         offset="0"
         style="stop-color:#1a1a1a;stop-opacity:1" />
      <stop
         id="stop3794-7"
         offset="1"
         style="stop-color:#000000;stop-opacity:0;" />
    </linearGradient>
    <linearGradient
       gradientTransform="translate(0,796.36218)"
       y2="120"
       x2="280"
       y1="16"
       x1="232"
       gradientUnits="userSpaceOnUse"
       id="linearGradient3924"
       xlink:href="#linearGradient3790-8"
       inkscape:collect="always" />
    <linearGradient
       gradientUnits="userSpaceOnUse"
       y2="892.36218"
       x2="120"
       y1="940.36218"
       x1="120"
       id="linearGradient3940"
       xlink:href="#linearGradient3934"
       inkscape:collect="always" />
    <linearGradient
       y2="104"
       x2="112"
       y1="36"
       x1="112"
       gradientUnits="userSpaceOnUse"
       id="linearGradient3942"
       xlink:href="#linearGradient3879"
       inkscape:collect="always" />
    <linearGradient
       gradientUnits="userSpaceOnUse"
       y2="192"
       x2="216"
       y1="8"
       x1="72"
       id="linearGradient3767-5"
       xlink:href="#linearGradient3761-4"
       inkscape:collect="always" />
    <linearGradient
       id="linearGradient3761-4"
       inkscape:collect="always">
      <stop
         id="stop3763-3"
         offset="0"
         style="stop-color:#888a85;stop-opacity:1;" />
      <stop
         id="stop3765-5"
         offset="1"
         style="stop-color:#888a85;stop-opacity:0;" />
    </linearGradient>
    <linearGradient
       gradientTransform="translate(0,796.36218)"
       inkscape:collect="always"
       xlink:href="#linearGradient3761-4"
       id="linearGradient3959"
       gradientUnits="userSpaceOnUse"
       x1="72"
       y1="8"
       x2="216"
       y2="192" />
    <linearGradient
       y2="192"
       x2="216"
       y1="8"
       x1="72"
       gradientUnits="userSpaceOnUse"
       id="linearGradient3981"
       xlink:href="#linearGradient3761-4"
       inkscape:collect="always" />
    <linearGradient
       gradientUnits="userSpaceOnUse"
       y2="148"
       x2="172"
       y1="16"
       x1="160"
       id="linearGradient3796-4"
       xlink:href="#linearGradient3790-6"
       inkscape:collect="always" />
    <linearGradient
       id="linearGradient3790-6"
       inkscape:collect="always">
      <stop
         id="stop3792-8"
         offset="0"
         style="stop-color:#1a1a1a;stop-opacity:1" />
      <stop
         id="stop3794-6"
         offset="1"
         style="stop-color:#000000;stop-opacity:0;" />
    </linearGradient>
    <radialGradient
       gradientUnits="userSpaceOnUse"
       gradientTransform="matrix(2.614786,0,0,2.2412451,-142.10117,47.113644)"
       r="64.25"
       fy="-31.729527"
       fx="66.583336"
       cy="-31.729527"
       cx="66.583336"
       id="radialGradient5460"
       xlink:href="#linearGradient5454"
       inkscape:collect="always" />
    <linearGradient
       id="linearGradient5454">
      <stop
         id="stop5456"
         offset="0"
         style="stop-color:#dfdfdf;stop-opacity:1;" />
      <stop
         id="stop5458"
         offset="1"
         style="stop-color:#000000;stop-opacity:1;" />
    </linearGradient>
    <radialGradient
       gradientUnits="userSpaceOnUse"
       gradientTransform="matrix(3.446154,4.3205616e-7,-4.0119498e-7,3.2,-176.12309,-15.510237)"
       r="16.25"
       fy="7.3469391"
       fx="72"
       cy="7.3469391"
       cx="72"
       id="radialGradient6903"
       xlink:href="#linearGradient8794"
       inkscape:collect="always" />
    <linearGradient
       id="linearGradient8794">
      <stop
         id="stop8796"
         offset="0"
         style="stop-color:#ffffff;stop-opacity:1;" />
      <stop
         style="stop-color:#e4e4e4;stop-opacity:1;"
         offset="0.5"
         id="stop4469" />
      <stop
         id="stop8798"
         offset="1"
         style="stop-color:#cacaca;stop-opacity:1;" />
    </linearGradient>
    <linearGradient
       gradientUnits="userSpaceOnUse"
       y2="20"
       x2="88"
       y1="-4"
       x1="40"
       id="linearGradient6911"
       xlink:href="#linearGradient4270-9-28"
       inkscape:collect="always" />
    <linearGradient
       id="linearGradient4270-9-28">
      <stop
         id="stop4272-5-33"
         offset="0"
         style="stop-color:#f9f9f9;stop-opacity:0.50196081;" />
      <stop
         style="stop-color:#7d7d7d;stop-opacity:0.50196081;"
         offset="0.25"
         id="stop5033-81" />
      <stop
         style="stop-color:#808080;stop-opacity:0.50196081;"
         offset="0.5"
         id="stop4278-7-4" />
      <stop
         id="stop5035-3"
         offset="0.75"
         style="stop-color:#ffffff;stop-opacity:0.50196081;" />
      <stop
         id="stop4274-4-83"
         offset="1"
         style="stop-color:#000000;stop-opacity:0.50196081;" />
    </linearGradient>
    <radialGradient
       gradientUnits="userSpaceOnUse"
       gradientTransform="matrix(1.2121212,0,0,0.21212121,-13.575759,0.7878793)"
       r="16.5"
       fy="15.142857"
       fx="64"
       cy="15.142857"
       cx="64"
       id="radialGradient6925"
       xlink:href="#linearGradient6913"
       inkscape:collect="always" />
    <linearGradient
       id="linearGradient6913"
       inkscape:collect="always">
      <stop
         id="stop6915"
         offset="0"
         style="stop-color:#000000;stop-opacity:1;" />
      <stop
         id="stop6917"
         offset="1"
         style="stop-color:#000000;stop-opacity:0;" />
    </linearGradient>
    <radialGradient
       gradientUnits="userSpaceOnUse"
       gradientTransform="matrix(3.0843369,1.8209722e-8,1.0668126e-8,3.7291227,-199.23135,-41.853558)"
       r="62.25"
       fy="24.095093"
       fx="90.532051"
       cy="24.095093"
       cx="90.532051"
       id="radialGradient5444"
       xlink:href="#linearGradient8794"
       inkscape:collect="always" />
    <linearGradient
       id="linearGradient6964">
      <stop
         id="stop6966"
         offset="0"
         style="stop-color:#ffffff;stop-opacity:1;" />
      <stop
         style="stop-color:#e4e4e4;stop-opacity:1;"
         offset="0.5"
         id="stop6968" />
      <stop
         id="stop6970"
         offset="1"
         style="stop-color:#cacaca;stop-opacity:1;" />
    </linearGradient>
    <linearGradient
       gradientUnits="userSpaceOnUse"
       y2="84"
       x2="128"
       y1="16"
       x1="0"
       id="linearGradient5452"
       xlink:href="#linearGradient4270-9-9"
       inkscape:collect="always" />
    <linearGradient
       id="linearGradient4270-9-9">
      <stop
         id="stop4272-5-10"
         offset="0"
         style="stop-color:#f9f9f9;stop-opacity:0.50196081;" />
      <stop
         style="stop-color:#7d7d7d;stop-opacity:0.50196081;"
         offset="0.25"
         id="stop5033-8" />
      <stop
         style="stop-color:#808080;stop-opacity:0.50196081;"
         offset="0.5"
         id="stop4278-7-50" />
      <stop
         id="stop5035-4"
         offset="0.75"
         style="stop-color:#ffffff;stop-opacity:0.50196081;" />
      <stop
         id="stop4274-4-85"
         offset="1"
         style="stop-color:#000000;stop-opacity:0.50196081;" />
    </linearGradient>
    <radialGradient
       inkscape:collect="always"
       xlink:href="#linearGradient8794"
       id="radialGradient6984"
       gradientUnits="userSpaceOnUse"
       gradientTransform="matrix(3.0843369,1.8209722e-8,1.0668126e-8,3.7291227,-199.23135,-41.853558)"
       cx="90.532051"
       cy="24.095093"
       fx="90.532051"
       fy="24.095093"
       r="62.25" />
    <linearGradient
       inkscape:collect="always"
       xlink:href="#linearGradient4270-9-9"
       id="linearGradient6986"
       gradientUnits="userSpaceOnUse"
       x1="0"
       y1="16"
       x2="128"
       y2="84" />
    <radialGradient
       r="62.25"
       fy="24.095093"
       fx="90.532051"
       cy="24.095093"
       cx="90.532051"
       gradientTransform="matrix(3.0843369,1.8209722e-8,1.0668126e-8,3.7291227,-311.23135,826.50862)"
       gradientUnits="userSpaceOnUse"
       id="radialGradient7072"
       xlink:href="#linearGradient8794"
       inkscape:collect="always" />
    <linearGradient
       gradientTransform="translate(-112,868.36218)"
       y2="84"
       x2="128"
       y1="16"
       x1="0"
       gradientUnits="userSpaceOnUse"
       id="linearGradient7074"
       xlink:href="#linearGradient4270-9-9"
       inkscape:collect="always" />
    <radialGradient
       r="16.5"
       fy="15.142857"
       fx="64"
       cy="15.142857"
       cx="64"
       gradientTransform="matrix(1.2121212,0,0,0.21212121,-125.57576,949.15006)"
       gradientUnits="userSpaceOnUse"
       id="radialGradient7077"
       xlink:href="#linearGradient6913"
       inkscape:collect="always" />
    <radialGradient
       r="16.25"
       fy="7.3469391"
       fx="72"
       cy="7.3469391"
       cx="72"
       gradientTransform="matrix(3.446154,4.3205616e-7,-4.0119498e-7,3.2,-288.12309,932.85194)"
       gradientUnits="userSpaceOnUse"
       id="radialGradient7080"
       xlink:href="#linearGradient8794"
       inkscape:collect="always" />
    <linearGradient
       gradientTransform="translate(-112,948.36218)"
       y2="20"
       x2="88"
       y1="-4"
       x1="40"
       gradientUnits="userSpaceOnUse"
       id="linearGradient7082"
       xlink:href="#linearGradient4270-9-28"
       inkscape:collect="always" />
    <radialGradient
       r="64.25"
       fy="-31.729527"
       fx="66.583336"
       cy="-31.729527"
       cx="66.583336"
       gradientTransform="matrix(2.614786,0,0,2.2412451,-254.10117,995.47582)"
       gradientUnits="userSpaceOnUse"
       id="radialGradient7085"
       xlink:href="#linearGradient5454"
       inkscape:collect="always" />
    <radialGradient
       inkscape:collect="always"
       xlink:href="#linearGradient3813"
       id="radialGradient3872"
       cx="88"
       cy="42"
       fx="88"
       fy="42"
       r="60"
       gradientTransform="matrix(1.2000001,-8.8182638e-8,6.858649e-8,0.93333333,-17.600011,929.16219)"
       gradientUnits="userSpaceOnUse" />
    <linearGradient
       inkscape:collect="always"
       xlink:href="#linearGradient4270-9-28"
       id="linearGradient3880"
       x1="-8"
       y1="0"
       x2="136"
       y2="120"
       gradientUnits="userSpaceOnUse"
       gradientTransform="translate(0,920.36218)" />
    <radialGradient
       inkscape:collect="always"
       xlink:href="#linearGradient3891"
       id="radialGradient3897"
       cx="32.783646"
       cy="77.210121"
       fx="32.783646"
       fy="77.210121"
       r="64"
       gradientTransform="matrix(2.125,0,0,1.375,-45.665246,902.19826)"
       gradientUnits="userSpaceOnUse" />
    <radialGradient
       inkscape:collect="always"
       xlink:href="#linearGradient4202"
       id="radialGradient4101"
       cx="56.411762"
       cy="41.235294"
       fx="56.411762"
       fy="41.235294"
       r="64.5"
       gradientTransform="matrix(8.434109,1.2330991e-7,-1.233099e-7,8.4341084,-475.78296,-475.78296)"
       gradientUnits="userSpaceOnUse" />
    <linearGradient
       id="linearGradient4202">
      <stop
         id="stop4204"
         offset="0"
         style="stop-color:#838383;stop-opacity:1;" />
      <stop
         style="stop-color:#f7f7f7;stop-opacity:1;"
         offset="0.09090909"
         id="stop4219" />
      <stop
         style="stop-color:#969696;stop-opacity:1;"
         offset="0.18181819"
         id="stop4216" />
      <stop
         style="stop-color:#cfcfcf;stop-opacity:1;"
         offset="0.29411766"
         id="stop4214" />
      <stop
         style="stop-color:#5c5c5c;stop-opacity:1;"
         offset="0.41176471"
         id="stop4212" />
      <stop
         style="stop-color:#e4e4e4;stop-opacity:1;"
         offset="0.52941179"
         id="stop4210" />
      <stop
         style="stop-color:#ffffff;stop-opacity:1;"
         offset="0.70588237"
         id="stop4206" />
      <stop
         id="stop4208"
         offset="1"
         style="stop-color:#7c7c7c;stop-opacity:1;" />
    </linearGradient>
    <linearGradient
       inkscape:collect="always"
       xlink:href="#linearGradient4270-9-9"
       id="linearGradient4030"
       x1="44"
       y1="92"
       x2="84"
       y2="120"
       gradientUnits="userSpaceOnUse"
       gradientTransform="translate(0,920.36218)" />
    <linearGradient
       inkscape:collect="always"
       xlink:href="#linearGradient4040"
       id="linearGradient4046"
       x1="47.5"
       y1="106"
       x2="80.5"
       y2="106"
       gradientUnits="userSpaceOnUse"
       gradientTransform="translate(0,920.36218)" />
    <radialGradient
       inkscape:collect="always"
       xlink:href="#linearGradient4040"
       id="radialGradient4060"
       cx="64"
       cy="103"
       fx="64"
       fy="103"
       r="32.5"
       gradientTransform="matrix(1,0,0,0.61538464,0,44.615383)"
       gradientUnits="userSpaceOnUse" />
    <linearGradient
       inkscape:collect="always"
       xlink:href="#linearGradient4270-9-9"
       id="linearGradient4068"
       x1="31.5"
       y1="116"
       x2="96.5"
       y2="116"
       gradientUnits="userSpaceOnUse" />
    <filter
       inkscape:collect="always"
       id="filter4192"
       x="-0.21479671"
       width="1.4295934"
       y="-0.15490556"
       height="1.3098111">
      <feGaussianBlur
         inkscape:collect="always"
         stdDeviation="2.5931693"
         id="feGaussianBlur4194" />
    </filter>
    <filter
       inkscape:collect="always"
       id="filter4248"
       x="-0.044472213"
       width="1.0889444"
       y="-0.18897066"
       height="1.3779413">
      <feGaussianBlur
         inkscape:collect="always"
         stdDeviation="1.4975886"
         id="feGaussianBlur4250" />
    </filter>
    <filter
       inkscape:collect="always"
       id="filter4324"
       x="-0.20804968"
       width="1.4160994"
       y="-0.14088044"
       height="1.2817609">
      <feGaussianBlur
         inkscape:collect="always"
         stdDeviation="2.1554705"
         id="feGaussianBlur4326" />
    </filter>
  </defs>
  <metadata
     id="metadata7">
    <rdf:RDF>
      <cc:Work
         rdf:about="">
        <dc:format>image/svg+xml</dc:format>
        <dc:type
           rdf:resource="http://purl.org/dc/dcmitype/StillImage" />
        <dc:title></dc:title>
      </cc:Work>
    </rdf:RDF>
  </metadata>
  <g
     transform="translate(0,-924.36218)"
     id="layer1"
     inkscape:groupmode="layer"
     inkscape:label="Layer 1">
    <path
       sodipodi:type="arc"
       style="fill:url(#radialGradient4060);fill-opacity:1;stroke:url(#linearGradient4068);stroke-width:1;stroke-linecap:round;stroke-linejoin:round;stroke-miterlimit:4;stroke-opacity:1;stroke-dasharray:none;stroke-dashoffset:0"
       id="path4050"
       sodipodi:cx="64"
       sodipodi:cy="116"
       sodipodi:rx="36"
       sodipodi:ry="8"
       d="m 100,116 c 0,4.41828 -16.117749,8 -36,8 -19.882251,0 -36,-3.58172 -36,-8 0,-4.41828 16.117749,-8 36,-8 19.882251,0 36,3.58172 36,8 z"
       transform="translate(0,920.36218)" />
    <rect
       style="fill:url(#linearGradient4046);fill-opacity:1;stroke:url(#linearGradient4030);stroke-width:1;stroke-linecap:round;stroke-linejoin:round;stroke-miterlimit:4;stroke-opacity:1;stroke-dasharray:none;stroke-dashoffset:0"
       id="rect4022"
       width="32"
       height="20"
       x="48"
       y="1016.3622" />
    <rect
       style="fill:#000000;fill-opacity:1;stroke:none"
       id="rect3094"
       width="128"
       height="88"
       x="0"
       y="936.36218"
       rx="4"
       ry="4" />
    <rect
       style="fill:url(#radialGradient3872);fill-opacity:1;stroke:url(#linearGradient3880);stroke-width:1;stroke-miterlimit:4;stroke-dasharray:none"
       id="rect3096"
       width="120"
       height="80"
       x="4"
       y="940.36218"
       rx="4"
       ry="4" />
    <path
       inkscape:connector-curvature="0"
       style="font-size:medium;font-style:normal;font-variant:normal;font-weight:normal;font-stretch:normal;text-indent:0;text-align:start;text-decoration:none;line-height:normal;letter-spacing:normal;word-spacing:normal;text-transform:none;direction:ltr;block-progression:tb;writing-mode:lr-tb;text-anchor:start;baseline-shift:baseline;opacity:0.5;color:#000000;fill:#ffffff;fill-opacity:1;stroke:none;stroke-width:2;marker:none;visibility:visible;display:inline;overflow:visible;enable-background:accumulate;font-family:Sans;-inkscape-font-specification:Sans"
       d="m 124.5,970.50086 c -4.89948,7.29295 -12.34508,13.86938 -21.74219,19.3535 -17.60673,10.27524 -42.02659,16.66404 -69.00781,16.66404 -10.5668,0 -20.72431,-0.9854 -30.25,-2.7949 l 0,1.7138 c 9.54187,1.7879 19.70059,2.7686 30.25,2.7686 27.31527,0 52.06636,-6.4637 70.04175,-16.95412 8.61058,-5.02503 15.68365,-10.98317 20.70825,-17.61327 l 0,-3.13765 z"
       id="path4103" />
    <path
       inkscape:connector-curvature="0"
       style="font-size:medium;font-style:normal;font-variant:normal;font-weight:normal;font-stretch:normal;text-indent:0;text-align:start;text-decoration:none;line-height:normal;letter-spacing:normal;word-spacing:normal;text-transform:none;direction:ltr;block-progression:tb;writing-mode:lr-tb;text-anchor:start;baseline-shift:baseline;opacity:0.5;color:#000000;fill:#ffffff;fill-opacity:1;stroke:none;stroke-width:2;marker:none;visibility:visible;display:inline;overflow:visible;enable-background:accumulate;font-family:Sans;-inkscape-font-specification:Sans"
       d="m 124.5,970.50086 c -4.89948,7.29295 -12.34508,13.86938 -21.74219,19.3535 -17.60673,10.27524 -42.02659,16.66404 -69.00781,16.66404 -10.5668,0 -20.72431,-0.9854 -30.25,-2.7949 l 0,1.7138 c 9.54187,1.7879 19.70059,2.7686 30.25,2.7686 27.31527,0 52.06636,-6.4637 70.04175,-16.95412 8.61058,-5.02503 15.68365,-10.98317 20.70825,-17.61327 l 0,-3.13765 z"
       id="path4105" />
    <path
       inkscape:connector-curvature="0"
       style="font-size:medium;font-style:normal;font-variant:normal;font-weight:normal;font-stretch:normal;text-indent:0;text-align:start;text-decoration:none;line-height:normal;letter-spacing:normal;word-spacing:normal;text-transform:none;direction:ltr;block-progression:tb;writing-mode:lr-tb;text-anchor:start;baseline-shift:baseline;opacity:0.5;color:#000000;fill:#ffffff;fill-opacity:1;stroke:none;stroke-width:2;marker:none;visibility:visible;display:inline;overflow:visible;enable-background:accumulate;font-family:Sans;-inkscape-font-specification:Sans"
       d="m 124.5,969.76258 c -4.83957,6.24636 -11.59841,11.90024 -19.85156,16.71678 -17.60673,10.27524 -42.02659,16.66404 -69.00782,16.66404 -11.26731,0 -22.07628,-1.118 -32.14062,-3.164 l 0,1.7138 c 10.0858,2.0225 20.89071,3.1377 32.14062,3.1377 27.31527,0 52.06636,-6.4637 70.04175,-16.95412 7.59354,-4.43154 13.96749,-9.58811 18.81763,-15.29296 l 0,-2.82124 z"
       id="path4107" />
    <path
       inkscape:connector-curvature="0"
       style="font-size:medium;font-style:normal;font-variant:normal;font-weight:normal;font-stretch:normal;text-indent:0;text-align:start;text-decoration:none;line-height:normal;letter-spacing:normal;word-spacing:normal;text-transform:none;direction:ltr;block-progression:tb;writing-mode:lr-tb;text-anchor:start;baseline-shift:baseline;opacity:0.5;color:#000000;fill:#ffffff;fill-opacity:1;stroke:none;stroke-width:2;marker:none;visibility:visible;display:inline;overflow:visible;enable-background:accumulate;font-family:Sans;-inkscape-font-specification:Sans"
       d="m 124.5,968.65515 c -4.64966,5.3444 -10.72636,10.22709 -17.96094,14.44922 -17.60673,10.27526 -42.02659,16.66403 -69.00781,16.66403 -11.9732,0 -23.43839,-1.2621 -34.03125,-3.5596 l 0,1.7402 c 10.61615,2.2704 22.08082,3.5069 34.03125,3.5069 27.31527,0 52.06636,-6.46369 70.04175,-16.95412 6.64402,-3.87745 12.35067,-8.31346 16.927,-13.18358 l 0,-2.66305 z"
       id="path4109" />
    <path
       inkscape:connector-curvature="0"
       style="font-size:medium;font-style:normal;font-variant:normal;font-weight:normal;font-stretch:normal;text-indent:0;text-align:start;text-decoration:none;line-height:normal;letter-spacing:normal;word-spacing:normal;text-transform:none;direction:ltr;block-progression:tb;writing-mode:lr-tb;text-anchor:start;baseline-shift:baseline;opacity:0.5;color:#000000;fill:#ffffff;fill-opacity:1;stroke:none;stroke-width:2;marker:none;visibility:visible;display:inline;overflow:visible;enable-background:accumulate;font-family:Sans;-inkscape-font-specification:Sans"
       d="m 124.5,965.86023 c -4.00384,3.81071 -8.7671,7.33539 -14.17969,10.49414 -17.60673,10.27527 -42.02659,16.66405 -69.00781,16.66405 -13.41142,0 -26.18894,-1.58 -37.8125,-4.42968 l 0,1.74023 c 11.66051,2.81872 24.424,4.37695 37.8125,4.37695 27.31527,0 52.06636,-6.46371 70.04175,-16.95413 4.91674,-2.86934 9.32896,-6.03492 13.14575,-9.46578 l 0,-2.42578 z"
       id="path4111" />
    <path
       inkscape:connector-curvature="0"
       style="font-size:medium;font-style:normal;font-variant:normal;font-weight:normal;font-stretch:normal;text-indent:0;text-align:start;text-decoration:none;line-height:normal;letter-spacing:normal;word-spacing:normal;text-transform:none;direction:ltr;block-progression:tb;writing-mode:lr-tb;text-anchor:start;baseline-shift:baseline;opacity:0.5;color:#000000;fill:#ffffff;fill-opacity:1;stroke:none;stroke-width:2;marker:none;visibility:visible;display:inline;overflow:visible;enable-background:accumulate;font-family:Sans;-inkscape-font-specification:Sans"
       d="m 124.5,963.90906 c -2.6221,2.00053 -5.45257,3.9123 -8.50781,5.69531 -17.60673,10.27527 -42.02659,16.66406 -69.00782,16.66406 -15.63652,0 -30.39593,-2.1546 -43.48437,-5.95898 l 0,1.79296 c 13.13544,3.75722 27.89596,5.85352 43.48437,5.85352 27.31527,0 52.06636,-6.46372 70.04175,-16.95414 2.65004,-1.54651 5.13103,-3.18777 7.47388,-4.90429 l 0,-2.18844 z"
       id="path4113" />
    <path
       inkscape:connector-curvature="0"
       style="opacity:0.25;fill:#ffffff;fill-opacity:1;stroke:none"
       d="m 7.28125,939.86218 c -2.09481,0 -3.78125,1.50525 -3.78125,3.375 l 0,54.47462 c 7.0993,1.8674 14.72833,2.9004 22.6875,2.9004 37.58988,0 68.0625,-22.66559 68.0625,-50.62502 0,-3.46663 -0.46648,-6.8542 -1.35889,-10.125 l -85.60986,0 z"
       id="rect4129" />
    <path
       style="opacity:0.5;fill:#ffffff;fill-opacity:1;stroke:none"
       d="m 116.9375,980.36216 c 0,5.59188 -5.07877,10.125 -11.34375,10.125 -6.26498,0 -11.34375,-4.53312 -11.34375,-10.125 0,-5.59188 5.07877,-10.12499 11.34375,-10.12499 6.26498,0 11.34375,4.53311 11.34375,10.12499 z"
       id="path4217"
       inkscape:connector-curvature="0" />
    <path
       style="opacity:0.25;fill:#ffffff;fill-opacity:1;stroke:none"
       d="m 116.9375,958.42467 c 0,2.79594 -2.53938,5.0625 -5.67188,5.0625 -3.13249,0 -5.67187,-2.26656 -5.67187,-5.0625 0,-2.79594 2.53938,-5.0625 5.67187,-5.0625 3.1325,0 5.67188,2.26656 5.67188,5.0625 z"
       id="path4219"
       inkscape:connector-curvature="0" />
    <path
       style="opacity:0.25;fill:#ffffff;fill-opacity:1;stroke:none"
       d="m 113.15625,953.36217 c 0,3.72792 -3.38584,6.75 -7.5625,6.75 -4.17666,0 -7.5625,-3.02208 -7.5625,-6.75 0,-3.72792 3.38584,-6.74999 7.5625,-6.74999 4.17666,0 7.5625,3.02207 7.5625,6.74999 z"
       id="path4221"
       inkscape:connector-curvature="0" />
    <path
       style="opacity:0.25;fill:#ffffff;fill-opacity:1;stroke:none"
       d="m 48.875,975.29967 c 0,4.6599 -4.23231,8.43749 -9.45313,8.43749 -5.22081,0 -9.45312,-3.77759 -9.45312,-8.43749 0,-4.6599 4.23231,-8.4375 9.45312,-8.4375 5.22082,0 9.45313,3.7776 9.45313,8.4375 z"
       id="path4223"
       inkscape:connector-curvature="0" />
    <path
       style="opacity:0.25;fill:#ffffff;fill-opacity:1;stroke:none"
       d="m 45.09375,958.42467 c 0,2.79594 -2.53939,5.0625 -5.67188,5.0625 -3.13248,0 -5.67187,-2.26656 -5.67187,-5.0625 0,-2.79594 2.53939,-5.0625 5.67187,-5.0625 3.13249,0 5.67188,2.26656 5.67188,5.0625 z"
       id="path4225"
       inkscape:connector-curvature="0" />
    <path
       style="opacity:0.25;fill:#ffffff;fill-opacity:1;stroke:none"
       d="m 41.3125,966.86217 c 0,5.59188 -5.07877,10.12499 -11.34375,10.12499 -6.26498,0 -11.34375,-4.53311 -11.34375,-10.12499 0,-5.59188 5.07877,-10.125 11.34375,-10.125 6.26498,0 11.34375,4.53312 11.34375,10.125 z"
       id="path4229"
       inkscape:connector-curvature="0" />
    <path
       style="fill:url(#radialGradient3897);fill-opacity:1;stroke:none"
       d="m 4,936.36218 c -2.216,0 -4,1.784 -4,4 l 0,55.46875 c 0.98076837,0.53107 1.9802765,1.06045 3,1.5625 l 0,-53.03125 c 0,-2.7527 2.2472972,-5 5,-5 l 112,0 c 2.7527,0 5,2.2473 5,5 l 0,37.9375 c 1.07012,-1.17028 2.07375,-2.3684 3,-3.59375 l 0,-38.34375 c 0,-2.216 -1.784,-4 -4,-4 l -120,0 z m 4,5 c -1.6792972,0 -3,1.3207 -3,3 l 0,53.96872 c 13.623772,6.3002 30.407571,10.0313 48.59375,10.0313 29.157527,0 54.76152,-9.5741 69.40625,-24.00002 l 0,-40 c 0,-1.6793 -1.3207,-3 -3,-3 l -112,0 z"
       id="path3886"
       inkscape:connector-curvature="0" />
    <rect
       style="opacity:0.5;fill:none;stroke:#ffffff;stroke-width:1;stroke-linecap:round;stroke-linejoin:round;stroke-miterlimit:4;stroke-opacity:1;stroke-dasharray:none;stroke-dashoffset:0"
       id="rect4018"
       width="16"
       height="4"
       x="100"
       y="1020.3622"
       rx="0"
       ry="4" />
    <rect
       style="opacity:0.5;fill:none;stroke:#ffffff;stroke-width:1;stroke-linecap:round;stroke-linejoin:round;stroke-miterlimit:4;stroke-opacity:1;stroke-dasharray:none;stroke-dashoffset:0"
       id="rect4020"
       width="16"
       height="4"
       x="80"
       y="1020.3622"
       ry="0" />
    <path
       transform="matrix(1.1116071,0,0,1.1116071,-7.1428571,907.41575)"
       d="m 100,116 c 0,4.41828 -16.117749,8 -36,8 -19.882251,0 -36,-3.58172 -36,-8 0,-4.41828 16.117749,-8 36,-8 19.882251,0 36,3.58172 36,8 z"
       sodipodi:ry="8"
       sodipodi:rx="36"
       sodipodi:cy="116"
       sodipodi:cx="64"
       id="path3102"
       style="opacity:0.25;fill:#000000;fill-opacity:1;stroke:none"
       sodipodi:type="arc" />
    <path
       sodipodi:type="arc"
       style="opacity:0.1;fill:#000000;fill-opacity:1;stroke:none"
       id="path3872"
       sodipodi:cx="64"
       sodipodi:cy="116"
       sodipodi:rx="36"
       sodipodi:ry="8"
       d="m 100,116 c 0,4.41828 -16.117749,8 -36,8 -19.882251,0 -36,-3.58172 -36,-8 0,-4.41828 16.117749,-8 36,-8 19.882251,0 36,3.58172 36,8 z"
       transform="matrix(1.2653769,0,0,1.2653769,-16.984127,889.57845)" />
    <path
       transform="matrix(1.4885912,0,0,1.4885912,-31.269841,863.68559)"
       d="m 100,116 c 0,4.41828 -16.117749,8 -36,8 -19.882251,0 -36,-3.58172 -36,-8 0,-4.41828 16.117749,-8 36,-8 19.882251,0 36,3.58172 36,8 z"
       sodipodi:ry="8"
       sodipodi:rx="36"
       sodipodi:cy="116"
       sodipodi:cx="64"
       id="path3874"
       style="opacity:0.1;fill:#000000;fill-opacity:1;stroke:none"
       sodipodi:type="arc" />
    <rect
       style="opacity:0.10000000000000001;fill:#ffffff;fill-opacity:1;stroke:none"
       id="rect3876"
       width="48"
       height="36"
       x="40"
       y="52"
       transform="translate(0,924.36218)"
       rx="8"
       ry="8" />
    <path
       style="fill:#e6e6e6;fill-opacity:0.52287585;stroke:none"
       d="M 8 16 C 5.7840042 16 4 17.784004 4 20 L 4 92 C 4 94.215996 5.7840042 96 8 96 L 12 96 L 12 16 L 8 16 z "
       transform="translate(0,924.36218)"
       id="rect3113" />
    <path
       style="fill:#333333;fill-opacity:1;stroke:none"
       d="M 8 16 C 5.7840042 16 4 17.784 4 20 L 124 20 C 124 17.784 122.216 16 120 16 L 8 16 z "
       transform="translate(0,924.36218)"
       id="rect3101" />
    <rect
       style="fill:#666666;fill-opacity:0.52287585999999997;stroke:none"
       id="rect3886"
       width="6"
       height="6"
       x="5"
       y="21"
       transform="translate(0,924.36218)"
       rx="1"
       ry="1" />
    <path
       sodipodi:type="arc"
       style="fill:#ffffff;fill-opacity:0.52287585999999997;stroke:none"
       id="path3888"
       sodipodi:cx="8"
       sodipodi:cy="24"
       sodipodi:rx="2"
       sodipodi:ry="2"
       d="m 10,24 a 2,2 0 1 1 -4,0 2,2 0 1 1 4,0 z"
       transform="translate(0,924.36218)" />
    <rect
       ry="1"
       rx="1"
       y="953.36218"
       x="5"
       height="6"
       width="6"
       id="rect3890"
       style="fill:#ff0000;fill-opacity:0.52287585999999997;stroke:none" />
    <rect
       style="fill:#008000;fill-opacity:0.52287585999999997;stroke:none"
       id="rect3892"
       width="6"
       height="6"
       x="5"
       y="961.36218"
       rx="1"
       ry="1" />
    <rect
       ry="1"
       rx="1"
       y="969.36218"
       x="5"
       height="6"
       width="6"
       id="rect3894"
       style="fill:#0000ff;fill-opacity:0.52287585999999997;stroke:none" />
    <rect
       style="fill:#c8ab37;fill-opacity:0.52287585999999997;stroke:none"
       id="rect3896"
       width="6"
       height="6"
       x="5"
       y="977.36218"
       rx="1"
       ry="1" />
    <rect
       ry="1"
       rx="1"
       y="985.36218"
       x="5"
       height="6"
       width="6"
       id="rect3898"
       style="fill:#677821;fill-opacity:0.52287585999999997;stroke:none" />
    <rect
       style="fill:#ffcc00;fill-opacity:0.52287585999999997;stroke:none"
       id="rect3900"
       width="6"
       height="6"
       x="5"
       y="993.36218"
       rx="1"
       ry="1" />
    <rect
       style="fill:#ffffff;fill-opacity:1;stroke:none"
       id="rect3902"
       width="72"
       height="44"
       x="24"
       y="28"
       transform="translate(0,924.36218)"
       rx="1"
       ry="1" />
    <path
       style="fill:#888a85;fill-opacity:1;stroke:none"
       d="M 25 28 C 24.446 28 24 28.446 24 29 L 24 71 C 24 71.554 24.446 72 25 72 L 40 72 L 40 28 L 25 28 z "
       transform="translate(0,924.36218)"
       id="rect3923" />
    <path
       style="fill:#2e3436;fill-opacity:1;stroke:none"
       d="M 25 28 C 24.446 28 24 28.446 24 29 L 24 30 L 96 30 L 96 29 C 96 28.446 95.554 28 95 28 L 25 28 z "
       transform="translate(0,924.36218)"
       id="rect3904" />
    <path
       sodipodi:type="arc"
       style="fill:#8b1900;fill-opacity:1;stroke:none"
       id="path3911"
       sodipodi:cx="26"
       sodipodi:cy="29"
       sodipodi:rx="1"
       sodipodi:ry="1"
       d="m 27,29 a 1,1 0 1 1 -2,0 1,1 0 1 1 2,0 z"
       transform="translate(0,924.36218)" />
    <path
       sodipodi:type="arc"
       style="fill:#c8beb7;fill-opacity:1;stroke:none"
       id="path3913"
       sodipodi:cx="29"
       sodipodi:cy="29"
       sodipodi:rx="1"
       sodipodi:ry="1"
       d="m 30,29 a 1,1 0 1 1 -2,0 1,1 0 1 1 2,0 z"
       transform="translate(0,924.36218)" />
    <path
       sodipodi:type="arc"
       style="fill:#c8beb7;fill-opacity:1;stroke:none"
       id="path3917"
       sodipodi:cx="32"
       sodipodi:cy="29"
       sodipodi:rx="1"
       sodipodi:ry="1"
       d="m 33,29 a 1,1 0 1 1 -2,0 1,1 0 1 1 2,0 z"
       transform="translate(0,924.36218)" />
    <rect
       style="fill:#555753;fill-opacity:1;stroke:none"
       id="rect3919"
       width="72"
       height="4"
       x="24"
       y="30"
       transform="translate(0,924.36218)"
       rx="1"
       ry="0" />
    <path
       style="fill:#ce5c00;fill-opacity:1;stroke:none"
       d="M 46 35 C 45.446 35 45 35.446 45 36 C 44.446 36 44 36.446 44 37 L 44 42 C 44 42.554 44.446 43 45 43 L 52 43 C 52.554 43 53 42.554 53 42 L 53 37 C 53 36.446 52.554 36 52 36 L 48 36 C 48 35.446 47.554 35 47 35 L 46 35 z "
       transform="translate(0,924.36218)"
       id="rect3926" />
    <path
       id="path3931"
       d="m 46,971.36218 c -0.554,0 -1,0.446 -1,1 -0.554,0 -1,0.446 -1,1 l 0,5 c 0,0.554 0.446,1 1,1 l 7,0 c 0.554,0 1,-0.446 1,-1 l 0,-5 c 0,-0.554 -0.446,-1 -1,-1 l -4,0 c 0,-0.554 -0.446,-1 -1,-1 l -1,0 z"
       style="fill:#ce5c00;fill-opacity:1;stroke:none"
       inkscape:connector-curvature="0" />
    <path
       inkscape:connector-curvature="0"
       style="fill:#ce5c00;fill-opacity:1;stroke:none"
       d="m 60,971.36218 c -0.554,0 -1,0.446 -1,1 -0.554,0 -1,0.446 -1,1 l 0,5 c 0,0.554 0.446,1 1,1 l 7,0 c 0.554,0 1,-0.446 1,-1 l 0,-5 c 0,-0.554 -0.446,-1 -1,-1 l -4,0 c 0,-0.554 -0.446,-1 -1,-1 l -1,0 z"
       id="path3933" />
    <path
       id="path3935"
       d="m 60,959.36218 c -0.554,0 -1,0.446 -1,1 -0.554,0 -1,0.446 -1,1 l 0,5 c 0,0.554 0.446,1 1,1 l 7,0 c 0.554,0 1,-0.446 1,-1 l 0,-5 c 0,-0.554 -0.446,-1 -1,-1 l -4,0 c 0,-0.554 -0.446,-1 -1,-1 l -1,0 z"
       style="fill:#ce5c00;fill-opacity:1;stroke:none"
       inkscape:connector-curvature="0" />
    <path
       inkscape:connector-curvature="0"
       style="fill:#ce5c00;fill-opacity:1;stroke:none"
       d="m 74,959.36218 c -0.554,0 -1,0.446 -1,1 -0.554,0 -1,0.446 -1,1 l 0,5 c 0,0.554 0.446,1 1,1 l 7,0 c 0.554,0 1,-0.446 1,-1 l 0,-5 c 0,-0.554 -0.446,-1 -1,-1 l -4,0 c 0,-0.554 -0.446,-1 -1,-1 l -1,0 z"
       id="path3937" />
    <path
       inkscape:connector-curvature="0"
       style="opacity:0.25;fill:#ffffff;fill-opacity:1;stroke:none"
       d="m 7.28125,939.86218 c -2.09481,0 -3.78125,1.50525 -3.78125,3.375 l 0,74.25002 c 0,1.8697 1.68644,3.375 3.78125,3.375 l 67.20581,0 c 16.52692,-13.4365 27.32544,-35.63167 27.32544,-60.75001 0,-7.02415 -0.87396,-13.80958 -2.4519,-20.25001 l -92.07935,0 z"
       id="path4119" />
    <text
       sodipodi:linespacing="125%"
       id="text4252"
       y="984.36218"
       x="49.335732"
       style="font-size:51.54400635000000364px;font-style:normal;font-variant:normal;font-weight:normal;font-stretch:normal;line-height:125%;letter-spacing:0px;word-spacing:0px;fill:#000000;fill-opacity:1;stroke:#000000;font-family:Ubuntu;-inkscape-font-specification:Ubuntu;stroke-opacity:1;filter:url(#filter4324)"
       xml:space="preserve"><tspan
         style="font-weight:500;stroke:#000000;stroke-width:1.28860009000000009;stroke-linejoin:round;-inkscape-font-specification:Ubuntu Medium;fill:#000000;fill-opacity:1;stroke-opacity:1"
         y="984.36218"
         x="49.335732"
         id="tspan4254"
         sodipodi:role="line">7</tspan></text>
    <text
       xml:space="preserve"
       style="font-size:51.54400635000000364px;font-style:normal;font-variant:normal;font-weight:normal;font-stretch:normal;line-height:125%;letter-spacing:0px;word-spacing:0px;fill:#ffffff;fill-opacity:1;stroke:none;font-family:Ubuntu;-inkscape-font-specification:Ubuntu"
       x="49.335732"
       y="984.36218"
       id="text3958"
       sodipodi:linespacing="125%"><tspan
         sodipodi:role="line"
         id="tspan3960"
         x="49.335732"
         y="984.36218"
         style="font-weight:500;stroke:#2e3436;stroke-width:1.28860009000000009;stroke-linejoin:round;-inkscape-font-specification:Ubuntu Medium;fill:#ffffff;fill-opacity:1">7</tspan></text>
    <text
       sodipodi:linespacing="125%"
       id="text4200"
       y="1012.3622"
       x="16.854473"
       style="font-size:23.03407288px;font-style:normal;font-variant:normal;font-weight:normal;font-stretch:normal;line-height:125%;letter-spacing:0px;word-spacing:0px;fill:#000000;fill-opacity:1;stroke:#000000;stroke-width:0.80000001;stroke-linejoin:round;stroke-miterlimit:4;stroke-opacity:1;stroke-dasharray:none;filter:url(#filter4248);font-family:Ubuntu;-inkscape-font-specification:Ubuntu"
       xml:space="preserve"><tspan
         style="fill:#000000;fill-opacity:1;stroke:#000000;stroke-width:0.80000001;stroke-miterlimit:4;stroke-opacity:1;stroke-dasharray:none"
         y="1012.3622"
         x="16.854473"
         id="tspan4202"
         sodipodi:role="line">Schritten</tspan></text>
    <text
       xml:space="preserve"
       style="font-size:23.03407288px;font-style:normal;font-variant:normal;font-weight:normal;font-stretch:normal;line-height:125%;letter-spacing:0px;word-spacing:0px;fill:#ffffff;fill-opacity:1;stroke:#2e3436;stroke-width:0.80000001;stroke-linejoin:round;stroke-miterlimit:4;stroke-dasharray:none;font-family:Ubuntu;-inkscape-font-specification:Ubuntu"
       x="16.854473"
       y="1012.3622"
       id="text4196"
       sodipodi:linespacing="125%"><tspan
         sodipodi:role="line"
         id="tspan4198"
         x="16.854473"
         y="1012.3622"
         style="fill:#ffffff;fill-opacity:1;stroke-width:0.80000001;stroke-miterlimit:4;stroke-dasharray:none">Schritten</tspan></text>
    <text
       xml:space="preserve"
       style="font-size:65.57318878px;font-style:normal;font-weight:normal;line-height:125%;letter-spacing:0px;word-spacing:0px;fill:#000000;fill-opacity:1;stroke:none;font-family:Sans"
       x="-34.804249"
       y="898.36218"
       id="text4328"
       sodipodi:linespacing="125%"><tspan
         sodipodi:role="line"
         id="tspan4330"
         x="-34.804249"
         y="898.36218"
         style="font-size:32px;font-style:normal;font-variant:normal;font-weight:normal;font-stretch:normal;fill:#ce5c00;font-family:Ubuntu;-inkscape-font-specification:Ubuntu">Ubuntu 14.04</tspan></text>
    <text
       sodipodi:linespacing="125%"
       id="text4332"
       y="926.36218"
       x="55.800938"
       style="font-size:155.03775024px;font-style:normal;font-weight:normal;line-height:125%;letter-spacing:0px;word-spacing:0px;fill:#000000;fill-opacity:1;stroke:none;font-family:Sans"
       xml:space="preserve"><tspan
         style="font-size:20px;font-style:normal;font-variant:normal;font-weight:normal;font-stretch:normal;fill:#ce5c00;font-family:Ubuntu;-inkscape-font-specification:Ubuntu"
         y="926.36218"
         x="55.800938"
         id="tspan4334"
         sodipodi:role="line">in</tspan></text>
    <text
       sodipodi:linespacing="125%"
       id="text4336"
       y="1084.3622"
       x="-9.03475"
       style="font-size:65.57318878px;font-style:normal;font-weight:normal;line-height:125%;letter-spacing:0px;word-spacing:0px;fill:#000000;fill-opacity:1;stroke:none;font-family:Sans"
       xml:space="preserve"><tspan
         style="font-size:32px;font-style:normal;font-variant:normal;font-weight:normal;font-stretch:normal;fill:#ce5c00;font-family:Ubuntu;-inkscape-font-specification:Ubuntu"
         y="1084.3622"
         x="-9.03475"
         id="tspan4338"
         sodipodi:role="line">einrichten</tspan></text>
  </g>
</svg>
