<?xml version="1.0" encoding="UTF-8" standalone="no"?>
<!-- Created with Inkscape (http://www.inkscape.org/) -->

<svg
   xmlns:dc="http://purl.org/dc/elements/1.1/"
   xmlns:cc="http://creativecommons.org/ns#"
   xmlns:rdf="http://www.w3.org/1999/02/22-rdf-syntax-ns#"
   xmlns:svg="http://www.w3.org/2000/svg"
   xmlns="http://www.w3.org/2000/svg"
   xmlns:xlink="http://www.w3.org/1999/xlink"
   xmlns:sodipodi="http://sodipodi.sourceforge.net/DTD/sodipodi-0.dtd"
   xmlns:inkscape="http://www.inkscape.org/namespaces/inkscape"
   sodipodi:docname="document-open-recent.svg"
   inkscape:version="0.48.4 r9939"
   version="1.1"
   id="svg2"
   height="128"
   width="128">
  <sodipodi:namedview
     id="base"
     pagecolor="#ffffff"
     bordercolor="#666666"
     borderopacity="1.0"
     inkscape:pageopacity="0.0"
     inkscape:pageshadow="2"
     inkscape:zoom="5.1200002"
     inkscape:cx="102.79621"
     inkscape:cy="42.649765"
     inkscape:document-units="px"
     inkscape:current-layer="layer1"
     showgrid="true"
     showguides="true"
     inkscape:guide-bbox="true"
     inkscape:window-width="1221"
     inkscape:window-height="1000"
     inkscape:window-x="59"
     inkscape:window-y="24"
     inkscape:window-maximized="1">
    <inkscape:grid
       snapvisiblegridlinesonly="true"
       enabled="true"
       visible="true"
       empspacing="4"
       id="grid2985"
       type="xygrid" />
  </sodipodi:namedview>
  <defs
     id="defs4">
    <linearGradient
       id="linearGradient7110">
      <stop
         style="stop-color:#5a5a5a;stop-opacity:1;"
         offset="0"
         id="stop7112" />
      <stop
         style="stop-color:#202020;stop-opacity:1;"
         offset="1"
         id="stop7114" />
    </linearGradient>
    <linearGradient
       id="linearGradient4216-4-8-2">
      <stop
         id="stop4218-8-0-7"
         offset="0"
         style="stop-color:#494949;stop-opacity:1;" />
      <stop
         id="stop4220-1-6-4"
         offset="1"
         style="stop-color:#0f0f0f;stop-opacity:1;" />
    </linearGradient>
    <radialGradient
       inkscape:collect="always"
       xlink:href="#linearGradient4216-4-8-2"
       id="radialGradient5899"
       gradientUnits="userSpaceOnUse"
       gradientTransform="translate(0,2)"
       cx="64"
       cy="1020.3622"
       fx="64"
       fy="1020.3622"
       r="52" />
    <radialGradient
       inkscape:collect="always"
       xlink:href="#linearGradient7110"
       id="radialGradient7116"
       cx="80"
       cy="972.36218"
       fx="80"
       fy="972.36218"
       r="52.5"
       gradientUnits="userSpaceOnUse" />
    <linearGradient
       id="linearGradient6964-4">
      <stop
         style="stop-color:#ffffff;stop-opacity:1;"
         offset="0"
         id="stop6966-4" />
      <stop
         style="stop-color:#cacaca;stop-opacity:1;"
         offset="1"
         id="stop6970-3" />
    </linearGradient>
    <linearGradient
       id="linearGradient6964-4-3">
      <stop
         style="stop-color:#ffffff;stop-opacity:1;"
         offset="0"
         id="stop6966-4-3" />
      <stop
         style="stop-color:#cacaca;stop-opacity:1;"
         offset="1"
         id="stop6970-3-7" />
    </linearGradient>
    <radialGradient
       inkscape:collect="always"
       xlink:href="#linearGradient6964-4-3"
       id="radialGradient3100"
       gradientUnits="userSpaceOnUse"
       gradientTransform="matrix(1.8593725,-9.8930481e-7,9.8930439e-7,1.8593717,-48.684812,-1777.0293)"
       cx="76"
       cy="976.57489"
       fx="76"
       fy="976.57489"
       r="35.234001" />
    <radialGradient
       inkscape:collect="always"
       xlink:href="#linearGradient7110-0"
       id="radialGradient3911"
       cx="154"
       cy="118.125"
       fx="154"
       fy="118.125"
       r="7.5"
       gradientTransform="matrix(1.3333333,9.6123168e-8,-9.6123217e-8,1.3333339,-51.333329,-39.500073)"
       gradientUnits="userSpaceOnUse" />
    <radialGradient
       inkscape:collect="always"
       xlink:href="#linearGradient6964-4-3"
       id="radialGradient3867"
       gradientUnits="userSpaceOnUse"
       gradientTransform="matrix(1.8593725,-9.8930481e-7,9.8930439e-7,1.8593717,-48.684812,-1777.0293)"
       cx="76"
       cy="976.57489"
       fx="76"
       fy="976.57489"
       r="35.234001" />
    <radialGradient
       inkscape:collect="always"
       xlink:href="#linearGradient4216-4-8-2-1"
       id="radialGradient3891"
       gradientUnits="userSpaceOnUse"
       gradientTransform="matrix(2.03125,0,0,2.03125,-149.5625,760.92465)"
       cx="154"
       cy="118"
       fx="154"
       fy="118"
       r="8" />
    <linearGradient
       id="linearGradient4216-4-8-2-1">
      <stop
         id="stop4218-8-0-7-8"
         offset="0"
         style="stop-color:#494949;stop-opacity:1;" />
      <stop
         id="stop4220-1-6-4-4"
         offset="1"
         style="stop-color:#0f0f0f;stop-opacity:1;" />
    </linearGradient>
    <radialGradient
       inkscape:collect="always"
       xlink:href="#linearGradient7006"
       id="radialGradient3164"
       gradientUnits="userSpaceOnUse"
       gradientTransform="translate(3.8146973e-7,924.36219)"
       cx="88"
       cy="36"
       fx="88"
       fy="36"
       r="51" />
    <linearGradient
       inkscape:collect="always"
       id="linearGradient7006">
      <stop
         style="stop-color:#ffffff;stop-opacity:1;"
         offset="0"
         id="stop7008" />
      <stop
         style="stop-color:#ffffff;stop-opacity:0;"
         offset="1"
         id="stop7010" />
    </linearGradient>
    <linearGradient
       inkscape:collect="always"
       xlink:href="#linearGradient6978"
       id="linearGradient3167"
       gradientUnits="userSpaceOnUse"
       gradientTransform="translate(3.8146973e-7,924.36219)"
       x1="64"
       y1="188"
       x2="64"
       y2="8" />
    <linearGradient
       inkscape:collect="always"
       id="linearGradient6978">
      <stop
         style="stop-color:#000000;stop-opacity:0.25"
         offset="0"
         id="stop6980" />
      <stop
         style="stop-color:#000000;stop-opacity:0;"
         offset="1"
         id="stop6982" />
    </linearGradient>
    <radialGradient
       gradientTransform="translate(3.8146973e-7,-1.1772461e-5)"
       inkscape:collect="always"
       xlink:href="#linearGradient4216-4-8-2-6"
       id="radialGradient3171"
       gradientUnits="userSpaceOnUse"
       cx="64"
       cy="1020.3622"
       fx="64"
       fy="1020.3622"
       r="52" />
    <linearGradient
       id="linearGradient4216-4-8-2-6">
      <stop
         id="stop4218-8-0-7-4"
         offset="0"
         style="stop-color:#ffffff;stop-opacity:1;" />
      <stop
         id="stop4220-1-6-4-0"
         offset="1"
         style="stop-color:#c6c6c6;stop-opacity:1;" />
    </linearGradient>
    <filter
       color-interpolation-filters="sRGB"
       inkscape:collect="always"
       id="filter6960">
      <feGaussianBlur
         inkscape:collect="always"
         stdDeviation="4.16"
         id="feGaussianBlur6962" />
    </filter>
    <radialGradient
       inkscape:collect="always"
       xlink:href="#linearGradient7110"
       id="radialGradient3883"
       gradientUnits="userSpaceOnUse"
       gradientTransform="matrix(0.69794845,-3.7135311e-7,3.7135295e-7,0.69794815,117.70175,313.54991)"
       cx="76"
       cy="976.57489"
       fx="76"
       fy="976.57489"
       r="35.234001" />
    <radialGradient
       inkscape:collect="always"
       xlink:href="#linearGradient7110"
       id="radialGradient3900"
       gradientUnits="userSpaceOnUse"
       gradientTransform="matrix(0.69794845,-3.7135311e-7,3.7135295e-7,0.69794815,117.70175,313.54991)"
       cx="76"
       cy="976.57489"
       fx="76"
       fy="976.57489"
       r="35.234001" />
    <radialGradient
       inkscape:collect="always"
       xlink:href="#linearGradient7110-0"
       id="radialGradient3049"
       gradientUnits="userSpaceOnUse"
       gradientTransform="matrix(0.69794845,-3.7135311e-7,3.7135295e-7,0.69794815,117.70175,314.04992)"
       cx="76"
       cy="976.57489"
       fx="76"
       fy="976.57489"
       r="35.234001" />
    <radialGradient
       inkscape:collect="always"
       xlink:href="#linearGradient7110-0"
       id="radialGradient6861"
       cx="150.00002"
       cy="122.00002"
       fx="150.00002"
       fy="122.00002"
       r="8"
       gradientUnits="userSpaceOnUse"
       gradientTransform="matrix(-1,0,0,-1,304.00002,1164.3622)" />
    <linearGradient
       id="linearGradient7110-0">
      <stop
         style="stop-color:#5a5a5a;stop-opacity:1;"
         offset="0"
         id="stop7112-9" />
      <stop
         style="stop-color:#202020;stop-opacity:1;"
         offset="1"
         id="stop7114-6" />
    </linearGradient>
    <radialGradient
       r="8"
       fy="122.00002"
       fx="150.00002"
       cy="122.00002"
       cx="150.00002"
       gradientTransform="matrix(-1,0,0,-1,289.00002,1090.3622)"
       gradientUnits="userSpaceOnUse"
       id="radialGradient3156"
       xlink:href="#linearGradient7110-0"
       inkscape:collect="always" />
    <radialGradient
       inkscape:collect="always"
       xlink:href="#linearGradient7110-0"
       id="radialGradient3844"
       gradientUnits="userSpaceOnUse"
       gradientTransform="matrix(1.6490193,-8.7738348e-7,8.773831e-7,1.6490186,-35.936652,-646.61531)"
       cx="76"
       cy="976.57489"
       fx="76"
       fy="976.57489"
       r="35.234001" />
  </defs>
  <metadata
     id="metadata7">
    <rdf:RDF>
      <cc:Work
         rdf:about="">
        <dc:format>image/svg+xml</dc:format>
        <dc:type
           rdf:resource="http://purl.org/dc/dcmitype/StillImage" />
        <dc:title />
      </cc:Work>
    </rdf:RDF>
  </metadata>
  <g
     transform="translate(0,-924.36218)"
     id="layer1"
     inkscape:groupmode="layer"
     inkscape:label="Layer 1">
    <text
       xml:space="preserve"
       style="font-size:24px;font-style:normal;font-weight:normal;line-height:125%;letter-spacing:0px;word-spacing:0px;fill:#000000;fill-opacity:1;stroke:none;font-family:Sans"
       x="-56"
       y="948.36218"
       id="text5893"
       sodipodi:linespacing="125%"><tspan
         sodipodi:role="line"
         id="tspan5895"
         x="-56"
         y="948.36218">128</tspan></text>
    <text
       sodipodi:linespacing="125%"
       id="text5901"
       y="1000.3622"
       x="184"
       style="font-size:16px;font-style:normal;font-weight:normal;line-height:125%;letter-spacing:0px;word-spacing:0px;fill:#000000;fill-opacity:1;stroke:none;font-family:Sans"
       xml:space="preserve"><tspan
         y="1000.3622"
         x="184"
         id="tspan5903"
         sodipodi:role="line">31 - 17</tspan></text>
    <text
       xml:space="preserve"
       style="font-size:16px;font-style:normal;font-weight:normal;line-height:125%;letter-spacing:0px;word-spacing:0px;fill:#000000;fill-opacity:1;stroke:none;font-family:Sans"
       x="172"
       y="1048.3622"
       id="text5905"
       sodipodi:linespacing="125%"><tspan
         sodipodi:role="line"
         id="tspan5907"
         x="172"
         y="1048.3622">16</tspan></text>
    <rect
       style="fill:none;stroke:#000000;stroke-width:1;stroke-linecap:round;stroke-linejoin:round;stroke-miterlimit:4;stroke-opacity:1;stroke-dasharray:none;stroke-dashoffset:0"
       id="rect5919"
       width="40"
       height="40"
       x="140"
       y="60"
       transform="translate(0,924.36218)"
       rx="4.5902016e-07" />
    <rect
       style="fill:none;stroke:#000000;stroke-width:1;stroke-linecap:round;stroke-linejoin:round;stroke-miterlimit:4;stroke-opacity:1;stroke-dasharray:none;stroke-dashoffset:0"
       id="rect5921"
       width="24"
       height="24"
       x="140"
       y="1032.3622"
       rx="4.5902016e-07" />
    <rect
       style="fill:#b3b3b3;fill-opacity:1;stroke:none"
       id="rect6935"
       width="32"
       height="4"
       x="144"
       y="56"
       transform="translate(0,924.36218)"
       rx="4.5902016e-07" />
    <rect
       style="fill:#b3b3b3;fill-opacity:1;stroke:none"
       id="rect6937"
       width="4"
       height="32"
       x="136"
       y="64"
       transform="translate(0,924.36218)"
       rx="4.5902016e-07" />
    <rect
       style="fill:#b3b3b3;fill-opacity:1;stroke:none"
       id="rect6939"
       width="16"
       height="4"
       x="144"
       y="104"
       rx="4.5902016e-07"
       transform="translate(0,924.36218)" />
    <rect
       style="fill:#b3b3b3;fill-opacity:1;stroke:none"
       id="rect6941"
       width="4"
       height="16"
       x="136"
       y="112"
       transform="translate(0,924.36218)"
       rx="4.5902016e-07" />
    <path
       style="opacity:1;fill:url(#radialGradient3911);fill-opacity:1.0;stroke:none"
       d="M 146 112 C 145.446 112 145 112.446 145 113 L 145 127 C 145 127.554 145.446 128 146 128 L 158 128 C 158.554 128 159 127.554 159 127 L 159 119 C 159.554 119 160 118.554 160 118 L 160 115 C 160 114.446 159.554 114 159 114 L 159 113 C 159 112.446 158.554 112 158 112 L 146 112 z M 152 114 C 155.31371 114 158 116.68629 158 120 C 158 123.31371 155.31371 126 152 126 C 148.68629 126 146 123.31371 146 120 C 146 116.68629 148.68629 114 152 114 z M 152 115 C 149.23858 115 147 117.23858 147 120 C 147 122.76142 149.23858 125 152 125 C 154.76142 125 157 122.76142 157 120 C 157 117.23858 154.76142 115 152 115 z M 151 116 L 153 116 L 153 118.28125 C 153.30235 118.45653 153.54347 118.69765 153.71875 119 L 155 119 L 155 121 L 153.71875 121 C 153.37271 121.5969 152.7396 122 152 122 C 150.89543 122 150 121.10457 150 120 C 150 119.2604 150.4031 118.62729 151 118.28125 L 151 116 z "
       transform="translate(0,924.36218)"
       id="rect3887" />
    <rect
       ry="8"
       rx="8"
       y="936.36218"
       x="12"
       height="104"
       width="104"
       id="rect6938"
       style="fill:#000000;fill-opacity:1;stroke:none;filter:url(#filter6960)" />
    <rect
       style="fill:url(#radialGradient3171);fill-opacity:1;stroke:none"
       id="rect6936-6"
       width="104"
       height="104"
       x="12"
       y="936.36218"
       rx="8"
       ry="8" />
    <rect
       ry="8"
       rx="8"
       y="932.36218"
       x="12"
       height="104"
       width="104"
       id="rect6964-2"
       style="fill:#ffffff;fill-opacity:1;stroke:none" />
    <rect
       style="opacity:0.5;fill:url(#linearGradient3167);fill-opacity:1;stroke:none"
       id="rect6975"
       width="102"
       height="102"
       x="13"
       y="933.36218"
       rx="8"
       ry="8" />
    <rect
       ry="8"
       rx="8"
       y="933.36218"
       x="13"
       height="102"
       width="102"
       id="rect7002"
       style="opacity:0.5;fill:url(#radialGradient3164);fill-opacity:1;stroke:none" />
    <path
       style="fill:url(#radialGradient3049);fill-opacity:1;stroke:#000000;stroke-opacity:0.18823529999999999;stroke-linejoin:round"
       d="m 149.85334,991.31816 c -0.80271,0 -1.44282,0.65185 -1.44282,1.45455 l 0,23.17899 c 0,0.8027 0.64011,1.4545 1.44282,1.4545 l 18.83876,0 c 0.80271,0 1.45455,-0.6518 1.45455,-1.4545 l 0,-13.0441 c 0.80271,0 1.44283,-0.6401 1.44283,-1.4428 l 0,-5.79472 c 0,-0.8027 -0.64011,-1.45455 -1.44283,-1.45455 l 0,-1.44282 c 0,-0.8027 -0.65183,-1.45455 -1.45455,-1.45455 l -18.83876,0 z m 6.38125,8.2229 6.02934,0 c 0.6565,0 1.19649,0.55174 1.19649,1.20824 l 0,7.2141 c 0,0.6565 -0.53999,1.2082 -1.19649,1.2082 l -6.02934,0 c -0.65651,0 -1.19649,-0.5517 -1.19649,-1.2082 l 0,-7.2141 c 0,-0.6565 0.53998,-1.20824 1.19649,-1.20824 z m 0,1.20824 0,7.2141 6.02934,0 0,-7.2141 -6.02934,0 z m 2.41643,0.5982 1.19648,0 0,3.0147 0,0.5982 -0.59824,0 -2.4047,0 0,-1.2082 1.80646,0 0,-2.4047 z"
       id="path3881"
       inkscape:connector-curvature="0" />
    <path
       inkscape:connector-curvature="0"
       id="path3842"
       d="m 40.02683,953.54354 c -1.89654,0 -3.4089,1.54011 -3.4089,3.43662 l 0,54.76414 c 0,1.8966 1.51236,3.4365 3.4089,3.4365 l 44.5097,0 c 1.89654,0 3.43662,-1.5399 3.43662,-3.4365 l 0,-30.81877 c 1.89653,0 3.40892,-1.51235 3.40892,-3.40886 l 0,-13.69099 c 0,-1.89651 -1.51236,-3.43662 -3.40892,-3.43662 l 0,-3.4089 c 0,-1.89651 -1.54006,-3.43662 -3.43662,-3.43662 l -44.5097,0 z m 15.07676,19.42797 14.24532,0 c 1.55109,0 2.82691,1.30358 2.82691,2.85467 l 0,17.04455 c 0,1.5511 -1.27582,2.8545 -2.82691,2.8545 l -14.24532,0 c -1.55111,0 -2.8269,-1.3034 -2.8269,-2.8545 l 0,-17.04455 c 0,-1.55109 1.27579,-2.85467 2.8269,-2.85467 z m 0,2.85467 0,17.04455 14.24532,0 0,-17.04455 -14.24532,0 z m 5.70922,1.41335 2.82688,0 0,7.1227 0,1.4134 -1.41344,0 -5.6815,0 0,-2.8546 4.26806,0 0,-5.6815 z"
       style="fill:url(#radialGradient3844);fill-opacity:1;stroke:#000000;stroke-width:2.36266637;stroke-linejoin:round;stroke-opacity:0.18823529" />
  </g>
</svg>
