<?xml version="1.0" encoding="UTF-8" standalone="no"?>
<!-- Created with Inkscape (http://www.inkscape.org/) -->

<svg
   xmlns:dc="http://purl.org/dc/elements/1.1/"
   xmlns:cc="http://creativecommons.org/ns#"
   xmlns:rdf="http://www.w3.org/1999/02/22-rdf-syntax-ns#"
   xmlns:svg="http://www.w3.org/2000/svg"
   xmlns="http://www.w3.org/2000/svg"
   xmlns:xlink="http://www.w3.org/1999/xlink"
   xmlns:sodipodi="http://sodipodi.sourceforge.net/DTD/sodipodi-0.dtd"
   xmlns:inkscape="http://www.inkscape.org/namespaces/inkscape"
   sodipodi:docname="document-page-setup.svg"
   inkscape:version="0.48.4 r9939"
   version="1.1"
   id="svg2"
   height="128"
   width="128">
  <sodipodi:namedview
     id="base"
     pagecolor="#ffffff"
     bordercolor="#666666"
     borderopacity="1.0"
     inkscape:pageopacity="0.0"
     inkscape:pageshadow="2"
     inkscape:zoom="4"
     inkscape:cx="64.028644"
     inkscape:cy="43.58998"
     inkscape:document-units="px"
     inkscape:current-layer="layer1"
     showgrid="true"
     showguides="true"
     inkscape:guide-bbox="true"
     inkscape:window-width="1221"
     inkscape:window-height="1000"
     inkscape:window-x="59"
     inkscape:window-y="24"
     inkscape:window-maximized="1">
    <inkscape:grid
       snapvisiblegridlinesonly="true"
       enabled="true"
       visible="true"
       empspacing="4"
       id="grid2985"
       type="xygrid" />
  </sodipodi:namedview>
  <defs
     id="defs4">
    <linearGradient
       id="linearGradient8794-33">
      <stop
         style="stop-color:#ffffff;stop-opacity:1;"
         offset="0"
         id="stop8796-9" />
      <stop
         style="stop-color:#cacaca;stop-opacity:1;"
         offset="1"
         id="stop8798-6" />
    </linearGradient>
    <radialGradient
       inkscape:collect="always"
       xlink:href="#linearGradient7110"
       id="radialGradient6952"
       cx="154"
       cy="118.5"
       fx="154"
       fy="118.5"
       r="6"
       gradientTransform="matrix(1.6666671,-2.1327604e-6,2.1327591e-6,1.6666661,-102.66697,-79.499605)"
       gradientUnits="userSpaceOnUse" />
    <radialGradient
       inkscape:collect="always"
       xlink:href="#linearGradient7006-2"
       id="radialGradient3164"
       gradientUnits="userSpaceOnUse"
       gradientTransform="translate(3.8146973e-7,924.36219)"
       cx="88"
       cy="36"
       fx="88"
       fy="36"
       r="51" />
    <linearGradient
       inkscape:collect="always"
       id="linearGradient7006-2">
      <stop
         style="stop-color:#ffffff;stop-opacity:1;"
         offset="0"
         id="stop7008-1" />
      <stop
         style="stop-color:#ffffff;stop-opacity:0;"
         offset="1"
         id="stop7010-7" />
    </linearGradient>
    <linearGradient
       inkscape:collect="always"
       xlink:href="#linearGradient6978-0"
       id="linearGradient3167"
       gradientUnits="userSpaceOnUse"
       gradientTransform="translate(3.8146973e-7,924.36219)"
       x1="64"
       y1="188"
       x2="64"
       y2="8" />
    <linearGradient
       inkscape:collect="always"
       id="linearGradient6978-0">
      <stop
         style="stop-color:#000000;stop-opacity:0.25"
         offset="0"
         id="stop6980-9" />
      <stop
         style="stop-color:#000000;stop-opacity:0;"
         offset="1"
         id="stop6982-4" />
    </linearGradient>
    <radialGradient
       gradientTransform="translate(3.8146973e-7,-1.1772461e-5)"
       inkscape:collect="always"
       xlink:href="#linearGradient4216-4-8-2-6"
       id="radialGradient3171"
       gradientUnits="userSpaceOnUse"
       cx="64"
       cy="1020.3622"
       fx="64"
       fy="1020.3622"
       r="52" />
    <linearGradient
       id="linearGradient4216-4-8-2-6">
      <stop
         id="stop4218-8-0-7-4"
         offset="0"
         style="stop-color:#ffffff;stop-opacity:1;" />
      <stop
         id="stop4220-1-6-4-0"
         offset="1"
         style="stop-color:#c6c6c6;stop-opacity:1;" />
    </linearGradient>
    <filter
       color-interpolation-filters="sRGB"
       inkscape:collect="always"
       id="filter6960">
      <feGaussianBlur
         inkscape:collect="always"
         stdDeviation="4.16"
         id="feGaussianBlur6962" />
    </filter>
    <radialGradient
       inkscape:collect="always"
       xlink:href="#linearGradient4216-4-8-2"
       id="radialGradient3189"
       gradientUnits="userSpaceOnUse"
       gradientTransform="matrix(1.25,0,0,1.25,-38.499999,894.8622)"
       cx="154"
       cy="118"
       fx="154"
       fy="118"
       r="8" />
    <linearGradient
       id="linearGradient4216-4-8-2">
      <stop
         id="stop4218-8-0-7"
         offset="0"
         style="stop-color:#494949;stop-opacity:1;" />
      <stop
         id="stop4220-1-6-4"
         offset="1"
         style="stop-color:#0f0f0f;stop-opacity:1;" />
    </linearGradient>
    <radialGradient
       r="8"
       fy="118"
       fx="154"
       cy="118"
       cx="154"
       gradientTransform="matrix(1.25,0,0,1.25,-134.5,930.8622)"
       gradientUnits="userSpaceOnUse"
       id="radialGradient3438"
       xlink:href="#linearGradient4216-4-8-2"
       inkscape:collect="always" />
    <radialGradient
       inkscape:collect="always"
       xlink:href="#linearGradient7110"
       id="radialGradient6991"
       gradientUnits="userSpaceOnUse"
       gradientTransform="matrix(1.4999999,-8.0023701e-8,8.6692355e-8,1.6250001,-41.333316,889.65123)"
       cx="78.222214"
       cy="49.668278"
       fx="78.222214"
       fy="49.668278"
       r="32" />
    <radialGradient
       inkscape:collect="always"
       xlink:href="#linearGradient7110"
       id="radialGradient6997"
       gradientUnits="userSpaceOnUse"
       gradientTransform="matrix(1.8072242,-6.4831748e-7,7.0234355e-7,1.9578251,-130.96316,850.35133)"
       cx="163"
       cy="76.818184"
       fx="163"
       fy="76.818184"
       r="8" />
    <radialGradient
       inkscape:collect="always"
       xlink:href="#linearGradient7110"
       id="radialGradient6861"
       cx="150.00002"
       cy="122.00002"
       fx="150.00002"
       fy="122.00002"
       r="8"
       gradientUnits="userSpaceOnUse"
       gradientTransform="matrix(-1,0,0,-1,304.00002,1164.3622)" />
    <linearGradient
       id="linearGradient7110">
      <stop
         style="stop-color:#5a5a5a;stop-opacity:1;"
         offset="0"
         id="stop7112" />
      <stop
         style="stop-color:#202020;stop-opacity:1;"
         offset="1"
         id="stop7114" />
    </linearGradient>
    <radialGradient
       r="8"
       fy="122.00002"
       fx="150.00002"
       cy="122.00002"
       cx="150.00002"
       gradientTransform="matrix(-1,0,0,-1,348.00002,1220.3622)"
       gradientUnits="userSpaceOnUse"
       id="radialGradient3173"
       xlink:href="#linearGradient7110"
       inkscape:collect="always" />
  </defs>
  <metadata
     id="metadata7">
    <rdf:RDF>
      <cc:Work
         rdf:about="">
        <dc:format>image/svg+xml</dc:format>
        <dc:type
           rdf:resource="http://purl.org/dc/dcmitype/StillImage" />
        <dc:title />
      </cc:Work>
    </rdf:RDF>
  </metadata>
  <g
     transform="translate(0,-924.36218)"
     id="layer1"
     inkscape:groupmode="layer"
     inkscape:label="Layer 1">
    <rect
       ry="8"
       rx="8"
       y="936.36218"
       x="12"
       height="104"
       width="104"
       id="rect6938"
       style="fill:#000000;fill-opacity:1;stroke:none;filter:url(#filter6960)" />
    <rect
       style="fill:url(#radialGradient3171);fill-opacity:1;stroke:none"
       id="rect6936-6"
       width="104"
       height="104"
       x="12"
       y="936.36218"
       rx="8"
       ry="8" />
    <rect
       ry="8"
       rx="8"
       y="932.36218"
       x="12"
       height="104"
       width="104"
       id="rect6964-2"
       style="fill:#ffffff;fill-opacity:1;stroke:none" />
    <rect
       ry="8"
       rx="8"
       y="933.36218"
       x="13"
       height="102"
       width="102"
       id="rect7002"
       style="opacity:0.5;fill:url(#radialGradient3164);fill-opacity:1;stroke:none" />
    <rect
       style="opacity:0.5;fill:url(#linearGradient3167);fill-opacity:1;stroke:none"
       id="rect6975"
       width="102"
       height="102"
       x="13"
       y="933.36218"
       rx="8"
       ry="8" />
    <text
       xml:space="preserve"
       style="font-size:24px;font-style:normal;font-weight:normal;line-height:125%;letter-spacing:0px;word-spacing:0px;fill:#000000;fill-opacity:1;stroke:none;font-family:Sans"
       x="-56"
       y="948.36218"
       id="text5893"
       sodipodi:linespacing="125%"><tspan
         sodipodi:role="line"
         id="tspan5895"
         x="-56"
         y="948.36218">128</tspan></text>
    <text
       sodipodi:linespacing="125%"
       id="text5901"
       y="1000.3622"
       x="184"
       style="font-size:16px;font-style:normal;font-weight:normal;line-height:125%;letter-spacing:0px;word-spacing:0px;fill:#000000;fill-opacity:1;stroke:none;font-family:Sans"
       xml:space="preserve"><tspan
         y="1000.3622"
         x="184"
         id="tspan5903"
         sodipodi:role="line">31 - 17</tspan></text>
    <text
       xml:space="preserve"
       style="font-size:16px;font-style:normal;font-weight:normal;line-height:125%;letter-spacing:0px;word-spacing:0px;fill:#000000;fill-opacity:1;stroke:none;font-family:Sans"
       x="172"
       y="1048.3622"
       id="text5905"
       sodipodi:linespacing="125%"><tspan
         sodipodi:role="line"
         id="tspan5907"
         x="172"
         y="1048.3622">16</tspan></text>
    <rect
       style="fill:none;stroke:#000000;stroke-width:1;stroke-linecap:round;stroke-linejoin:round;stroke-miterlimit:4;stroke-opacity:1;stroke-dasharray:none;stroke-dashoffset:0"
       id="rect5919"
       width="40"
       height="40"
       x="140"
       y="60"
       transform="translate(0,924.36218)"
       rx="4.5902016e-07" />
    <rect
       style="fill:none;stroke:#000000;stroke-width:1;stroke-linecap:round;stroke-linejoin:round;stroke-miterlimit:4;stroke-opacity:1;stroke-dasharray:none;stroke-dashoffset:0"
       id="rect5921"
       width="24"
       height="24"
       x="140"
       y="1032.3622"
       rx="4.5902016e-07" />
    <rect
       style="fill:#b3b3b3;fill-opacity:1;stroke:none"
       id="rect6935"
       width="32"
       height="4"
       x="144"
       y="56"
       transform="translate(0,924.36218)"
       rx="4.5902016e-07" />
    <rect
       style="fill:#b3b3b3;fill-opacity:1;stroke:none"
       id="rect6937"
       width="4"
       height="32"
       x="136"
       y="64"
       transform="translate(0,924.36218)"
       rx="4.5902016e-07" />
    <rect
       style="fill:#b3b3b3;fill-opacity:1;stroke:none"
       id="rect6939"
       width="16"
       height="4"
       x="144"
       y="104"
       rx="4.5902016e-07"
       transform="translate(0,924.36218)" />
    <rect
       style="fill:#b3b3b3;fill-opacity:1;stroke:none"
       id="rect6941"
       width="4"
       height="16"
       x="136"
       y="112"
       transform="translate(0,924.36218)"
       rx="4.5902016e-07" />
    <path
       style="opacity:1;fill:url(#radialGradient6952);fill-opacity:1.0;stroke:none"
       d="M 147.09375 112 C 146.48544 112 146 112.48544 146 113.09375 L 146 119.09375 L 146 126.90625 C 146 127.51456 146.48544 128 147.09375 128 L 152.90625 128 L 156.90625 128 C 157.51456 128 158 127.51456 158 126.90625 L 158 113.09375 C 158 112.48544 157.51456 112 156.90625 112 L 147.09375 112 z M 148.09375 113 L 155.90625 113 C 156.51456 113 157 113.48544 157 114.09375 L 157 125.90625 C 157 126.51456 156.51456 127 155.90625 127 L 153.96875 127 C 153.97164 126.96739 154 126.93963 154 126.90625 L 154 119.09375 C 154 118.48544 153.51456 118 152.90625 118 L 147.09375 118 C 147.06037 118 147.03261 118.02836 147 118.03125 L 147 114.09375 C 147 113.48544 147.48544 113 148.09375 113 z "
       transform="translate(0,924.36218)"
       id="rect5930" />
    <path
       id="path6989"
       d="m 42.086938,948.36216 c -1.734263,0 -3.130438,1.39618 -3.130438,3.13044 l 0,65.7392 c 0,1.7342 1.396175,3.1304 3.130438,3.1304 l 43.826124,0 c 1.734262,0 3.130438,-1.3962 3.130438,-3.1304 l 0,-65.7392 c 0,-1.73426 -1.396176,-3.13044 -3.130438,-3.13044 l -43.826124,0 z m 3.130437,3.13044 37.56525,0 c 1.734263,0 3.130437,1.39617 3.130437,3.13044 l 0,59.47836 c 0,1.7342 -1.396174,3.1304 -3.130437,3.1304 l -9.562508,0 0.09783,-0.073 0.07337,-0.098 0.366848,-0.4648 0.07337,-0.073 0.04891,-0.098 0.244565,-0.4646 -2.054349,-1.1006 -0.122283,0.2446 -0.04891,0.049 -0.244565,0.3423 -0.317936,0.2447 -0.07337,0.049 -0.220109,0.098 -0.366848,0.1223 -0.415761,0.049 -0.122282,0 -3.350547,0 0,1.1739 -2.347828,0 0,-1.1739 -2.885872,0 0.09783,-0.1712 0.09783,-0.2202 0.171196,-0.5869 0.04892,-0.2201 0.07337,-0.6359 0,-0.1222 0,-1.7854 -2.347829,0 0,1.6631 0,0.1223 -0.04891,0.4157 -0.122283,0.3669 -0.09783,0.2201 -0.04891,0.073 -0.244565,0.3179 -0.317935,0.2445 -0.07337,0.049 -0.220108,0.098 -0.366848,0.1223 -0.415762,0.049 -0.342391,0 0,1.1739 -2.347828,0 0,-1.1739 -7.043485,0 0,1.1739 -2.347828,0 0,-1.1739 -0.317935,0 -0.122283,0 -0.415761,-0.049 -0.366848,-0.1223 -0.220109,-0.098 -0.07337,-0.049 -0.317935,-0.2445 -0.244566,-0.318 -0.04891,-0.074 -0.09783,-0.2201 -0.122282,-0.3669 -0.04891,-0.4157 0,-0.1223 0,-1.5652 -1.173914,0 0,-2.3479 1.173914,0 0,-7.0435 -1.173914,0 0,-2.3478 1.173914,0 0,-7.04344 -1.173914,0 0,-2.34783 0.14674,0 1.125,0.34239 0.07337,-0.22011 0.09783,-0.2201 0.04891,-0.0734 0.244566,-0.31793 0.317934,-0.24457 0.07337,-0.0489 0.220108,-0.0978 0.366848,-0.12228 0.415762,-0.0489 0.122283,0 6.921202,0 0,-2.34783 -7.043485,0 0,1.17392 -0.122282,-1.17392 -0.635871,0.0734 -0.220108,0.0489 -0.586958,0.17119 -0.220109,0.0978 -0.171195,0.0978 0,-4.13316 -1.173914,0 0,-2.34782 1.173914,0 0,-7.04349 -1.173914,0 0,-2.34783 1.173914,0 0,-2.10326 0,-0.12229 0.04891,-0.41575 0.122282,-0.36686 0.09783,-0.2201 0.04891,-0.0734 0.244566,-0.31793 0.317934,-0.24457 0.07337,-0.0489 0.220108,-0.0978 0.366848,-0.12229 0.415762,-0.0489 0.02446,0 7.019028,0 0,-2.34783 -7.043485,0 0,2.07881 -0.195652,-2.05436 -0.5625,0.0489 -0.09783,0 -0.122282,0.0489 -0.586958,0.1712 -0.122282,0.0489 -0.09783,0.0489 -0.538043,0.29348 -0.09783,0.0489 -0.07337,0.0734 -0.464674,0.36686 -0.09783,0.0734 -0.07337,0.0978 0,-12.69295 c 0,-1.73426 1.396175,-3.13043 3.130437,-3.13043 z m 9.391313,14.47828 0,2.34783 7.043484,0 0,-2.34783 -7.043484,0 z m 9.391312,0 0,2.34783 6.138592,0 0.122283,0 0.391305,0.0489 0.02445,0 0.09783,0 0.04891,-0.46467 0.562501,-1.76087 -0.146739,-0.0489 -0.122283,-0.0489 -0.09783,0 -0.63587,-0.0734 -0.07337,0 -0.04891,0 -6.260875,0 z m 9.929357,2.05434 -2.078806,1.125 0.220108,0.36686 0.09783,0.34239 0.04891,0.41576 0,0.12228 0,5.13588 2.347829,0 0,-5.25816 0,-0.0489 0,-0.0734 -0.07337,-0.63587 0,-0.0978 -0.04891,-0.12228 -0.171196,-0.58695 -0.04891,-0.12229 -0.04891,-0.0978 -0.244565,-0.46468 z m -1.711958,9.85599 0,7.04348 2.347828,0 0,-7.04348 -2.347828,0 z m 0,9.39131 0,7.04349 2.347828,0 0,-7.04349 -2.347828,0 z m -17.608711,0.61142 0,2.34783 3.008154,0 0.122283,0 0.415761,0.0489 0.366848,0.12228 0.220109,0.0978 0.07337,0.0489 0.317935,0.24457 0.244566,0.31793 0.04891,0.0734 0.09783,0.22011 0.04891,0.14674 2.250001,-0.68478 -0.07337,-0.24457 -0.09783,-0.22011 -0.293478,-0.53804 -0.122283,-0.1712 -0.366848,-0.46467 -0.171195,-0.1712 -0.464675,-0.36685 -0.171196,-0.12228 -0.538044,-0.29348 -0.220109,-0.0978 -0.586957,-0.17119 -0.220109,-0.0489 -0.63587,-0.0734 -0.122283,0 -3.130437,0 z m 5.086961,5.64946 0,7.0435 2.347828,0 0,-7.0435 -2.347828,0 z m 12.52175,3.1304 0,7.0435 2.347828,0 0,-7.0435 -2.347828,0 z m -12.52175,6.2609 0,7.0435 2.347828,0 0,-7.0435 -2.347828,0 z m 12.52175,3.1305 0,7.0434 2.347828,0 0,-7.0434 -2.347828,0 z"
       style="fill:url(#radialGradient6991);fill-opacity:1;stroke:#000000;stroke-opacity:0.18823529999999999;stroke-linejoin:round;stroke-width:1.5;stroke-miterlimit:4;stroke-dasharray:none"
       inkscape:connector-curvature="0" />
    <path
       inkscape:connector-curvature="0"
       id="path6995"
       d="m 151.56629,991.10925 c -0.66746,0 -1.20481,0.53735 -1.20481,1.20483 l 0,24.09622 c 0,0.6675 0.53735,1.2048 1.20481,1.2048 l 16.86742,0 c 0.66746,0 1.20481,-0.5373 1.20481,-1.2048 l 0,-24.09622 c 0,-0.66747 -0.53735,-1.20483 -1.20481,-1.20483 l -16.86742,0 z m 2.40963,2.40963 12.04816,0 c 0.66746,0 1.20481,0.53735 1.20481,1.20483 l 0,19.27699 c 0,0.6675 -0.53735,1.2048 -1.20481,1.2048 l -1.80723,0 0,-1.8825 -1.20481,0 0,1.7696 0,0.1129 -9.03612,0 c -0.66746,0 -1.20481,-0.5373 -1.20481,-1.2048 l 0,-15.06015 0.11295,0 2.29668,0 0,-1.20481 -2.40963,0 0,-3.01203 c 0,-0.66747 0.53735,-1.20483 1.20481,-1.20483 z m 2.40963,4.21686 0,1.20481 2.40963,0 0,-1.20481 -2.40963,0 z m 3.61445,0 0,1.20481 2.40963,0 0,-1.20481 -2.40963,0 z m 3.91565,0.82831 -0.94126,0.64006 -0.0377,0 -0.0376,0.0376 0.0376,0.0753 0.0753,0.22591 0,0.11294 0,1.61885 1.20481,0 0,-1.73179 0,-0.0753 0,-0.0376 -0.11295,-0.48946 0,-0.11295 -0.0753,-0.0753 -0.11295,-0.18826 z m -0.90361,3.91565 0,2.4096 1.20481,0 0,-2.4096 -1.20481,0 z m 0,3.6144 0,2.4096 1.20481,0 0,-2.4096 -1.20481,0 z m 0,3.6144 0,2.4097 1.20481,0 0,-2.4097 -1.20481,0 z"
       style="fill:url(#radialGradient6997);fill-opacity:1.0;stroke:#000000;stroke-opacity:0.18823529999999999;stroke-linejoin:round" />
  </g>
</svg>
