<?xml version="1.0" encoding="UTF-8" standalone="no"?>
<!-- Created with Inkscape (http://www.inkscape.org/) -->

<svg
   xmlns:dc="http://purl.org/dc/elements/1.1/"
   xmlns:cc="http://creativecommons.org/ns#"
   xmlns:rdf="http://www.w3.org/1999/02/22-rdf-syntax-ns#"
   xmlns:svg="http://www.w3.org/2000/svg"
   xmlns="http://www.w3.org/2000/svg"
   xmlns:xlink="http://www.w3.org/1999/xlink"
   xmlns:sodipodi="http://sodipodi.sourceforge.net/DTD/sodipodi-0.dtd"
   xmlns:inkscape="http://www.inkscape.org/namespaces/inkscape"
   sodipodi:docname="view-list-compact.svg"
   inkscape:version="0.48.4 r9939"
   version="1.1"
   id="svg2"
   height="128"
   width="128">
  <sodipodi:namedview
     id="base"
     pagecolor="#ffffff"
     bordercolor="#666666"
     borderopacity="1.0"
     inkscape:pageopacity="0.0"
     inkscape:pageshadow="2"
     inkscape:zoom="3.6203868"
     inkscape:cx="112.75824"
     inkscape:cy="51.866596"
     inkscape:document-units="px"
     inkscape:current-layer="layer1"
     showgrid="true"
     showguides="true"
     inkscape:guide-bbox="true"
     inkscape:window-width="1221"
     inkscape:window-height="1000"
     inkscape:window-x="59"
     inkscape:window-y="24"
     inkscape:window-maximized="1">
    <inkscape:grid
       snapvisiblegridlinesonly="true"
       enabled="true"
       visible="true"
       empspacing="4"
       id="grid2985"
       type="xygrid" />
  </sodipodi:namedview>
  <defs
     id="defs4">
    <linearGradient
       id="linearGradient7110">
      <stop
         style="stop-color:#5a5a5a;stop-opacity:1;"
         offset="0"
         id="stop7112" />
      <stop
         style="stop-color:#202020;stop-opacity:1;"
         offset="1"
         id="stop7114" />
    </linearGradient>
    <linearGradient
       id="linearGradient4216-4-8-2">
      <stop
         id="stop4218-8-0-7"
         offset="0"
         style="stop-color:#494949;stop-opacity:1;" />
      <stop
         id="stop4220-1-6-4"
         offset="1"
         style="stop-color:#0f0f0f;stop-opacity:1;" />
    </linearGradient>
    <radialGradient
       inkscape:collect="always"
       xlink:href="#linearGradient4216-4-8-2"
       id="radialGradient5899"
       gradientUnits="userSpaceOnUse"
       gradientTransform="translate(0,2)"
       cx="64"
       cy="1020.3622"
       fx="64"
       fy="1020.3622"
       r="52" />
    <radialGradient
       inkscape:collect="always"
       xlink:href="#linearGradient7110"
       id="radialGradient7116"
       cx="80"
       cy="972.36218"
       fx="80"
       fy="972.36218"
       r="52.5"
       gradientUnits="userSpaceOnUse" />
    <linearGradient
       id="linearGradient8794-33">
      <stop
         style="stop-color:#ffffff;stop-opacity:1;"
         offset="0"
         id="stop8796-9" />
      <stop
         style="stop-color:#cacaca;stop-opacity:1;"
         offset="1"
         id="stop8798-6" />
    </linearGradient>
    <radialGradient
       inkscape:collect="always"
       xlink:href="#linearGradient8794-33"
       id="radialGradient4305"
       cx="154.00002"
       cy="1046.1122"
       fx="154.00002"
       fy="1046.1122"
       r="7"
       gradientTransform="matrix(-1.6312602e-5,1.4285802,-1.4285787,-1.6312585e-5,1648.4561,826.37783)"
       gradientUnits="userSpaceOnUse" />
    <radialGradient
       inkscape:collect="always"
       xlink:href="#linearGradient8794-33"
       id="radialGradient4317"
       gradientUnits="userSpaceOnUse"
       gradientTransform="matrix(-1.6312602e-5,1.4285802,-1.4285787,-1.6312585e-5,1648.4561,826.37783)"
       cx="154.00002"
       cy="1046.1122"
       fx="154.00002"
       fy="1046.1122"
       r="7" />
    <radialGradient
       inkscape:collect="always"
       xlink:href="#linearGradient8794-33"
       id="radialGradient4355"
       gradientUnits="userSpaceOnUse"
       gradientTransform="matrix(-1.6312602e-5,1.4285802,-1.4285787,-1.6312585e-5,1648.4561,826.37783)"
       cx="154.00002"
       cy="1046.1122"
       fx="154.00002"
       fy="1046.1122"
       r="7" />
    <radialGradient
       inkscape:collect="always"
       xlink:href="#linearGradient8794-33"
       id="radialGradient5526"
       cx="80"
       cy="970.07642"
       fx="80"
       fy="970.07642"
       r="64"
       gradientTransform="matrix(1.2500001,5.3481301e-7,-5.3481281e-7,1.2499996,-19.999491,-240.23307)"
       gradientUnits="userSpaceOnUse" />
    <radialGradient
       inkscape:collect="always"
       xlink:href="#linearGradient8794-33"
       id="radialGradient5605"
       cx="154"
       cy="1042.3622"
       fx="154"
       fy="1042.3622"
       r="8"
       gradientUnits="userSpaceOnUse"
       gradientTransform="matrix(1.25,3.5114517e-6,-3.5114525e-6,1.2500003,-38.496342,-260.59143)" />
    <radialGradient
       inkscape:collect="always"
       xlink:href="#linearGradient8794-33"
       id="radialGradient5609"
       gradientUnits="userSpaceOnUse"
       gradientTransform="matrix(5.625,1.5801533e-5,-1.5801536e-5,5.6250013,-793.23354,-4885.9291)"
       cx="154"
       cy="1042.3622"
       fx="154"
       fy="1042.3622"
       r="8" />
    <radialGradient
       inkscape:collect="always"
       xlink:href="#linearGradient8794-33"
       id="radialGradient5627"
       gradientUnits="userSpaceOnUse"
       gradientTransform="matrix(5.625,1.5801533e-5,-1.5801536e-5,5.6250013,-793.23354,-4885.9291)"
       cx="154"
       cy="1042.3622"
       fx="154"
       fy="1042.3622"
       r="8" />
    <radialGradient
       inkscape:collect="always"
       xlink:href="#linearGradient8794-33"
       id="radialGradient5661"
       cx="154"
       cy="1042.2622"
       fx="154"
       fy="1042.2622"
       r="8"
       gradientTransform="matrix(1.2500001,3.8283242e-6,-3.8283337e-6,1.2500032,-38.496018,-260.46951)"
       gradientUnits="userSpaceOnUse" />
    <radialGradient
       inkscape:collect="always"
       xlink:href="#linearGradient7110"
       id="radialGradient5682"
       cx="154"
       cy="1042.0764"
       fx="154"
       fy="1042.0764"
       r="8"
       gradientTransform="matrix(1.25,-5.9640324e-6,5.9640021e-6,1.2499937,-38.506222,-260.22586)"
       gradientUnits="userSpaceOnUse" />
    <radialGradient
       inkscape:collect="always"
       xlink:href="#linearGradient8794-33"
       id="radialGradient5686"
       gradientUnits="userSpaceOnUse"
       gradientTransform="matrix(5.625,-2.6838146e-5,2.6838009e-5,5.6249717,-793.278,-4884.2841)"
       cx="154"
       cy="1042.0764"
       fx="154"
       fy="1042.0764"
       r="8" />
    <filter
       inkscape:collect="always"
       id="filter5690"
       x="-0.11250002"
       width="1.225"
       y="-0.12857141"
       height="1.2571428">
      <feGaussianBlur
         inkscape:collect="always"
         stdDeviation="3.3750005"
         id="feGaussianBlur5692" />
    </filter>
    <radialGradient
       inkscape:collect="always"
       xlink:href="#linearGradient8794-33"
       id="radialGradient5704"
       gradientUnits="userSpaceOnUse"
       gradientTransform="matrix(5.625,-2.6838146e-5,2.6838009e-5,5.6249717,-793.278,-4884.2841)"
       cx="154"
       cy="1042.0764"
       fx="154"
       fy="1042.0764"
       r="8" />
    <radialGradient
       inkscape:collect="always"
       xlink:href="#linearGradient7110-1"
       id="radialGradient3851"
       gradientUnits="userSpaceOnUse"
       gradientTransform="matrix(-4.4524659,0,0,-4.4524659,740.77485,1518.658)"
       cx="149.52"
       cy="122.47999"
       fx="149.52"
       fy="122.47999"
       r="8" />
    <linearGradient
       id="linearGradient7110-1">
      <stop
         style="stop-color:#5a5a5a;stop-opacity:1;"
         offset="0"
         id="stop7112-4" />
      <stop
         style="stop-color:#202020;stop-opacity:1;"
         offset="1"
         id="stop7114-1" />
    </linearGradient>
    <radialGradient
       inkscape:collect="always"
       xlink:href="#linearGradient7006-8"
       id="radialGradient6053"
       gradientUnits="userSpaceOnUse"
       gradientTransform="translate(1.9814697e-6,924.36215)"
       cx="88"
       cy="36"
       fx="88"
       fy="36"
       r="51" />
    <linearGradient
       inkscape:collect="always"
       id="linearGradient7006-8">
      <stop
         style="stop-color:#ffffff;stop-opacity:1;"
         offset="0"
         id="stop7008-1" />
      <stop
         style="stop-color:#ffffff;stop-opacity:0;"
         offset="1"
         id="stop7010-1" />
    </linearGradient>
    <linearGradient
       inkscape:collect="always"
       xlink:href="#linearGradient6978-3"
       id="linearGradient6051"
       gradientUnits="userSpaceOnUse"
       gradientTransform="translate(1.9814697e-6,924.36215)"
       x1="64"
       y1="188"
       x2="64"
       y2="8" />
    <linearGradient
       inkscape:collect="always"
       id="linearGradient6978-3">
      <stop
         style="stop-color:#000000;stop-opacity:0.25"
         offset="0"
         id="stop6980-5" />
      <stop
         style="stop-color:#000000;stop-opacity:0;"
         offset="1"
         id="stop6982-7" />
    </linearGradient>
    <radialGradient
       inkscape:collect="always"
       xlink:href="#linearGradient4216-4-8-2-6"
       id="radialGradient6049"
       gradientUnits="userSpaceOnUse"
       gradientTransform="translate(1.9814697e-6,-5.1772461e-5)"
       cx="64"
       cy="1020.3622"
       fx="64"
       fy="1020.3622"
       r="52" />
    <linearGradient
       id="linearGradient4216-4-8-2-6">
      <stop
         id="stop4218-8-0-7-4"
         offset="0"
         style="stop-color:#ffffff;stop-opacity:1;" />
      <stop
         id="stop4220-1-6-4-0"
         offset="1"
         style="stop-color:#c6c6c6;stop-opacity:1;" />
    </linearGradient>
    <filter
       color-interpolation-filters="sRGB"
       inkscape:collect="always"
       id="filter6960">
      <feGaussianBlur
         inkscape:collect="always"
         stdDeviation="4.16"
         id="feGaussianBlur6962" />
    </filter>
    <radialGradient
       inkscape:collect="always"
       xlink:href="#linearGradient7110"
       id="radialGradient3858"
       gradientUnits="userSpaceOnUse"
       gradientTransform="matrix(2.0408375,-9.7372967e-6,9.737247e-6,2.0408272,-151.03379,-1125.5996)"
       cx="154"
       cy="1042.0764"
       fx="154"
       fy="1042.0764"
       r="8" />
    <radialGradient
       inkscape:collect="always"
       xlink:href="#linearGradient7110"
       id="radialGradient3863"
       gradientUnits="userSpaceOnUse"
       gradientTransform="matrix(5.4747972,-2.6121494e-5,2.6121361e-5,5.4747696,-770.38633,-4729.5219)"
       cx="154"
       cy="1042.0764"
       fx="154"
       fy="1042.0764"
       r="8" />
  </defs>
  <metadata
     id="metadata7">
    <rdf:RDF>
      <cc:Work
         rdf:about="">
        <dc:format>image/svg+xml</dc:format>
        <dc:type
           rdf:resource="http://purl.org/dc/dcmitype/StillImage" />
        <dc:title />
      </cc:Work>
    </rdf:RDF>
  </metadata>
  <g
     transform="translate(0,-924.36218)"
     id="layer1"
     inkscape:groupmode="layer"
     inkscape:label="Layer 1">
    <path
       inkscape:connector-curvature="0"
       style="fill:url(#radialGradient3858);fill-opacity:1;stroke:#000000;stroke-width:1;stroke-miterlimit:4;stroke-opacity:0.18823529999999999;stroke-dasharray:none;stroke-linejoin:round"
       d="m 148.57131,992.93349 c -0.9017,0 -1.63267,0.73093 -1.63267,1.63267 0,0.90174 0.73097,1.63267 1.63267,1.63267 0.90169,0 1.63267,-0.73093 1.63267,-1.63267 0,-0.90174 -0.73098,-1.63267 -1.63267,-1.63267 z m 6.53068,0 c -0.9045,0 -1.63267,0.72817 -1.63267,1.63267 0,0.9045 0.72817,1.63267 1.63267,1.63267 l 16.3267,0 c 0.90449,0 1.63266,-0.72817 1.63266,-1.63267 0,-0.9045 -0.72817,-1.63267 -1.63266,-1.63267 l -16.3267,0 z m -6.53068,4.89801 c -0.9017,0 -1.63267,0.73093 -1.63267,1.63267 0,0.90173 0.73097,1.63263 1.63267,1.63263 0.90169,0 1.63267,-0.7309 1.63267,-1.63263 0,-0.90174 -0.73098,-1.63267 -1.63267,-1.63267 z m 6.53068,0 c -0.9045,0 -1.63267,0.72817 -1.63267,1.63267 0,0.90453 0.72817,1.63263 1.63267,1.63263 l 16.3267,0 c 0.90449,0 1.63266,-0.7281 1.63266,-1.63263 0,-0.9045 -0.72817,-1.63267 -1.63266,-1.63267 l -16.3267,0 z m -6.53068,4.898 c -0.9017,0 -1.63267,0.7309 -1.63267,1.6327 0,0.9017 0.73097,1.6326 1.63267,1.6326 0.90169,0 1.63267,-0.7309 1.63267,-1.6326 0,-0.9018 -0.73098,-1.6327 -1.63267,-1.6327 z m 6.53068,0 c -0.9045,0 -1.63267,0.7282 -1.63267,1.6327 0,0.9045 0.72817,1.6326 1.63267,1.6326 l 16.3267,0 c 0.90449,0 1.63266,-0.7281 1.63266,-1.6326 0,-0.9045 -0.72817,-1.6327 -1.63266,-1.6327 l -16.3267,0 z m -6.53068,4.898 c -0.9017,0 -1.63267,0.7309 -1.63267,1.6327 0,0.9017 0.73097,1.6327 1.63267,1.6327 0.90169,0 1.63267,-0.731 1.63267,-1.6327 0,-0.9018 -0.73098,-1.6327 -1.63267,-1.6327 z m 6.53068,0 c -0.9045,0 -1.63267,0.7282 -1.63267,1.6327 0,0.9045 0.72817,1.6327 1.63267,1.6327 l 16.3267,0 c 0.90449,0 1.63266,-0.7282 1.63266,-1.6327 0,-0.9045 -0.72817,-1.6327 -1.63266,-1.6327 l -16.3267,0 z m -6.53068,4.898 c -0.9017,0 -1.63267,0.731 -1.63267,1.6327 0,0.9017 0.73097,1.6327 1.63267,1.6327 0.90169,0 1.63267,-0.731 1.63267,-1.6327 0,-0.9017 -0.73098,-1.6327 -1.63267,-1.6327 z m 6.53068,0 c -0.9045,0 -1.63267,0.7282 -1.63267,1.6327 0,0.9045 0.72817,1.6327 1.63267,1.6327 l 16.3267,0 c 0.90449,0 1.63266,-0.7282 1.63266,-1.6327 0,-0.9045 -0.72817,-1.6327 -1.63266,-1.6327 l -16.3267,0 z"
       id="path5702" />
    <text
       xml:space="preserve"
       style="font-size:24px;font-style:normal;font-weight:normal;line-height:125%;letter-spacing:0px;word-spacing:0px;fill:#000000;fill-opacity:1;stroke:none;font-family:Sans"
       x="-56"
       y="948.36218"
       id="text5893"
       sodipodi:linespacing="125%"><tspan
         sodipodi:role="line"
         id="tspan5895"
         x="-56"
         y="948.36218">128</tspan></text>
    <text
       sodipodi:linespacing="125%"
       id="text5901"
       y="1000.3622"
       x="184"
       style="font-size:16px;font-style:normal;font-weight:normal;line-height:125%;letter-spacing:0px;word-spacing:0px;fill:#000000;fill-opacity:1;stroke:none;font-family:Sans"
       xml:space="preserve"><tspan
         y="1000.3622"
         x="184"
         id="tspan5903"
         sodipodi:role="line">31 - 17</tspan></text>
    <text
       xml:space="preserve"
       style="font-size:16px;font-style:normal;font-weight:normal;line-height:125%;letter-spacing:0px;word-spacing:0px;fill:#000000;fill-opacity:1;stroke:none;font-family:Sans"
       x="172"
       y="1048.3622"
       id="text5905"
       sodipodi:linespacing="125%"><tspan
         sodipodi:role="line"
         id="tspan5907"
         x="172"
         y="1048.3622">16</tspan></text>
    <rect
       style="fill:none;stroke:#000000;stroke-width:1;stroke-linecap:round;stroke-linejoin:round;stroke-miterlimit:4;stroke-opacity:1;stroke-dasharray:none;stroke-dashoffset:0"
       id="rect5919"
       width="40"
       height="40"
       x="140"
       y="60"
       transform="translate(0,924.36218)"
       rx="4.5902016e-07" />
    <rect
       style="fill:none;stroke:#000000;stroke-width:1;stroke-linecap:round;stroke-linejoin:round;stroke-miterlimit:4;stroke-opacity:1;stroke-dasharray:none;stroke-dashoffset:0"
       id="rect5921"
       width="24"
       height="24"
       x="140"
       y="1032.3622"
       rx="4.5902016e-07" />
    <rect
       style="fill:#b3b3b3;fill-opacity:1;stroke:none"
       id="rect6935"
       width="32"
       height="4"
       x="144"
       y="56"
       transform="translate(0,924.36218)"
       rx="4.5902016e-07" />
    <rect
       style="fill:#b3b3b3;fill-opacity:1;stroke:none"
       id="rect6937"
       width="4"
       height="32"
       x="136"
       y="64"
       transform="translate(0,924.36218)"
       rx="4.5902016e-07" />
    <rect
       style="fill:#b3b3b3;fill-opacity:1;stroke:none"
       id="rect6939"
       width="16"
       height="4"
       x="144"
       y="104"
       rx="4.5902016e-07"
       transform="translate(0,924.36218)" />
    <rect
       style="fill:#b3b3b3;fill-opacity:1;stroke:none"
       id="rect6941"
       width="4"
       height="16"
       x="136"
       y="112"
       transform="translate(0,924.36218)"
       rx="4.5902016e-07" />
    <path
       inkscape:connector-curvature="0"
       style="fill:url(#radialGradient5682);fill-opacity:1.0;stroke:none"
       d="m 145,1037.3622 c -0.55228,0 -1,0.4477 -1,1 0,0.5523 0.44772,1 1,1 0.55228,0 1,-0.4477 1,-1 0,-0.5523 -0.44772,-1 -1,-1 z m 4,0 c -0.554,0 -1,0.446 -1,1 0,0.554 0.446,1 1,1 l 10,0 c 0.554,0 1,-0.446 1,-1 0,-0.554 -0.446,-1 -1,-1 l -10,0 z m -4,3 c -0.55228,0 -1,0.4477 -1,1 0,0.5523 0.44772,1 1,1 0.55228,0 1,-0.4477 1,-1 0,-0.5523 -0.44772,-1 -1,-1 z m 4,0 c -0.554,0 -1,0.446 -1,1 0,0.554 0.446,1 1,1 l 10,0 c 0.554,0 1,-0.446 1,-1 0,-0.554 -0.446,-1 -1,-1 l -10,0 z m -4,3 c -0.55228,0 -1,0.4477 -1,1 0,0.5523 0.44772,1 1,1 0.55228,0 1,-0.4477 1,-1 0,-0.5523 -0.44772,-1 -1,-1 z m 4,0 c -0.554,0 -1,0.446 -1,1 0,0.554 0.446,1 1,1 l 10,0 c 0.554,0 1,-0.446 1,-1 0,-0.554 -0.446,-1 -1,-1 l -10,0 z m -4,3 c -0.55228,0 -1,0.4477 -1,1 0,0.5523 0.44772,1 1,1 0.55228,0 1,-0.4477 1,-1 0,-0.5523 -0.44772,-1 -1,-1 z m 4,0 c -0.554,0 -1,0.446 -1,1 0,0.554 0.446,1 1,1 l 10,0 c 0.554,0 1,-0.446 1,-1 0,-0.554 -0.446,-1 -1,-1 l -10,0 z m -4,3 c -0.55228,0 -1,0.4477 -1,1 0,0.5523 0.44772,1 1,1 0.55228,0 1,-0.4477 1,-1 0,-0.5523 -0.44772,-1 -1,-1 z m 4,0 c -0.554,0 -1,0.446 -1,1 0,0.554 0.446,1 1,1 l 10,0 c 0.554,0 1,-0.446 1,-1 0,-0.554 -0.446,-1 -1,-1 l -10,0 z"
       id="path5825" />
    <rect
       ry="8"
       rx="8"
       y="936.36218"
       x="12"
       height="104"
       width="104"
       id="rect6938"
       style="fill:#000000;fill-opacity:1;stroke:none;filter:url(#filter6960)" />
    <rect
       style="fill:url(#radialGradient6049);fill-opacity:1;stroke:none"
       id="rect6936-6"
       width="104"
       height="104"
       x="12"
       y="936.36218"
       rx="8"
       ry="8" />
    <rect
       ry="8"
       rx="8"
       y="932.36218"
       x="12"
       height="104"
       width="104"
       id="rect6964-2"
       style="fill:#ffffff;fill-opacity:1;stroke:none" />
    <rect
       style="opacity:0.5;fill:url(#linearGradient6051);fill-opacity:1;stroke:none"
       id="rect6975"
       width="102"
       height="102"
       x="13"
       y="933.36218"
       rx="8"
       ry="8" />
    <rect
       ry="8"
       rx="8"
       y="933.36218"
       x="13"
       height="102"
       width="102"
       id="rect7002"
       style="opacity:0.5;fill:url(#radialGradient6053);fill-opacity:1;stroke:none" />
    <path
       id="path3861"
       d="m 33.341145,953.70328 c -2.41892,0 -4.37983,1.96081 -4.37983,4.37984 0,2.41903 1.96091,4.37984 4.37983,4.37984 2.4189,0 4.37984,-1.96081 4.37984,-4.37984 0,-2.41903 -1.96094,-4.37984 -4.37984,-4.37984 z m 17.51936,0 c -2.42644,0 -4.37984,1.95341 -4.37984,4.37984 0,2.42643 1.9534,4.37984 4.37984,4.37984 l 43.79837,0 c 2.42641,0 4.37981,-1.95341 4.37981,-4.37984 0,-2.42643 -1.9534,-4.37984 -4.37981,-4.37984 l -43.79837,0 z m -17.51936,13.13951 c -2.41892,0 -4.37983,1.96081 -4.37983,4.37984 0,2.419 1.96091,4.37973 4.37983,4.37973 2.4189,0 4.37984,-1.96073 4.37984,-4.37973 0,-2.41903 -1.96094,-4.37984 -4.37984,-4.37984 z m 17.51936,0 c -2.42644,0 -4.37984,1.95341 -4.37984,4.37984 0,2.42651 1.9534,4.37973 4.37984,4.37973 l 43.79837,0 c 2.42641,0 4.37981,-1.95322 4.37981,-4.37973 0,-2.42643 -1.9534,-4.37984 -4.37981,-4.37984 l -43.79837,0 z m -17.51936,13.13949 c -2.41892,0 -4.37983,1.96071 -4.37983,4.37991 0,2.4189 1.96091,4.3797 4.37983,4.3797 2.4189,0 4.37984,-1.9608 4.37984,-4.3797 0,-2.4192 -1.96094,-4.37991 -4.37984,-4.37991 z m 17.51936,0 c -2.42644,0 -4.37984,1.95351 -4.37984,4.37991 0,2.4264 1.9534,4.3797 4.37984,4.3797 l 43.79837,0 c 2.42641,0 4.37981,-1.9533 4.37981,-4.3797 0,-2.4264 -1.9534,-4.37991 -4.37981,-4.37991 l -43.79837,0 z m -17.51936,13.13951 c -2.41892,0 -4.37983,1.9607 -4.37983,4.3799 0,2.4189 1.96091,4.37991 4.37983,4.37991 2.4189,0 4.37984,-1.96101 4.37984,-4.37991 0,-2.4192 -1.96094,-4.3799 -4.37984,-4.3799 z m 17.51936,0 c -2.42644,0 -4.37984,1.9535 -4.37984,4.3799 0,2.4264 1.9534,4.37991 4.37984,4.37991 l 43.79837,0 c 2.42641,0 4.37981,-1.95351 4.37981,-4.37991 0,-2.4264 -1.9534,-4.3799 -4.37981,-4.3799 l -43.79837,0 z m -17.51936,13.13951 c -2.41892,0 -4.37983,1.961 -4.37983,4.3799 0,2.4189 1.96091,4.3799 4.37983,4.3799 2.4189,0 4.37984,-1.961 4.37984,-4.3799 0,-2.4189 -1.96094,-4.3799 -4.37984,-4.3799 z m 17.51936,0 c -2.42644,0 -4.37984,1.9534 -4.37984,4.3799 0,2.4264 1.9534,4.3799 4.37984,4.3799 l 43.79837,0 c 2.42641,0 4.37981,-1.9535 4.37981,-4.3799 0,-2.4265 -1.9534,-4.3799 -4.37981,-4.3799 l -43.79837,0 z"
       style="fill:url(#radialGradient3863);fill-opacity:1;stroke:#000000;stroke-width:2.68262291;stroke-linejoin:round;stroke-miterlimit:4;stroke-opacity:0.18823529;stroke-dasharray:none"
       inkscape:connector-curvature="0" />
  </g>
</svg>
