<?xml version="1.0" encoding="UTF-8" standalone="no"?>
<!-- Created with Inkscape (http://www.inkscape.org/) -->

<svg
   xmlns:dc="http://purl.org/dc/elements/1.1/"
   xmlns:cc="http://creativecommons.org/ns#"
   xmlns:rdf="http://www.w3.org/1999/02/22-rdf-syntax-ns#"
   xmlns:svg="http://www.w3.org/2000/svg"
   xmlns="http://www.w3.org/2000/svg"
   xmlns:xlink="http://www.w3.org/1999/xlink"
   xmlns:sodipodi="http://sodipodi.sourceforge.net/DTD/sodipodi-0.dtd"
   xmlns:inkscape="http://www.inkscape.org/namespaces/inkscape"
   sodipodi:docname="internet-radio-new.svg"
   inkscape:version="0.48.4 r9939"
   version="1.1"
   id="svg2"
   height="128"
   width="128">
  <sodipodi:namedview
     id="base"
     pagecolor="#ffffff"
     bordercolor="#666666"
     borderopacity="1.0"
     inkscape:pageopacity="0.0"
     inkscape:pageshadow="2"
     inkscape:zoom="3.6203869"
     inkscape:cx="115.87404"
     inkscape:cy="30.766939"
     inkscape:document-units="px"
     inkscape:current-layer="layer1"
     showgrid="true"
     showguides="true"
     inkscape:guide-bbox="true"
     inkscape:window-width="1221"
     inkscape:window-height="1000"
     inkscape:window-x="59"
     inkscape:window-y="24"
     inkscape:window-maximized="1">
    <inkscape:grid
       snapvisiblegridlinesonly="true"
       enabled="true"
       visible="true"
       empspacing="4"
       id="grid2985"
       type="xygrid" />
  </sodipodi:namedview>
  <defs
     id="defs4">
    <linearGradient
       id="linearGradient7110">
      <stop
         style="stop-color:#5a5a5a;stop-opacity:1;"
         offset="0"
         id="stop7112" />
      <stop
         style="stop-color:#202020;stop-opacity:1;"
         offset="1"
         id="stop7114" />
    </linearGradient>
    <linearGradient
       id="linearGradient4216-4-8-2">
      <stop
         id="stop4218-8-0-7"
         offset="0"
         style="stop-color:#494949;stop-opacity:1;" />
      <stop
         id="stop4220-1-6-4"
         offset="1"
         style="stop-color:#0f0f0f;stop-opacity:1;" />
    </linearGradient>
    <radialGradient
       inkscape:collect="always"
       xlink:href="#linearGradient4216-4-8-2"
       id="radialGradient5899"
       gradientUnits="userSpaceOnUse"
       gradientTransform="translate(0,2)"
       cx="64"
       cy="1020.3622"
       fx="64"
       fy="1020.3622"
       r="52" />
    <radialGradient
       inkscape:collect="always"
       xlink:href="#linearGradient7110"
       id="radialGradient7116"
       cx="80"
       cy="972.36218"
       fx="80"
       fy="972.36218"
       r="52.5"
       gradientUnits="userSpaceOnUse" />
    <linearGradient
       id="linearGradient8794-33">
      <stop
         style="stop-color:#ffffff;stop-opacity:1;"
         offset="0"
         id="stop8796-9" />
      <stop
         style="stop-color:#cacaca;stop-opacity:1;"
         offset="1"
         id="stop8798-6" />
    </linearGradient>
    <radialGradient
       inkscape:collect="always"
       xlink:href="#linearGradient7110"
       id="radialGradient4131"
       gradientUnits="userSpaceOnUse"
       gradientTransform="matrix(1.25,3.7150963e-7,-3.7150956e-7,1.2499997,-38.49995,-29.355793)"
       cx="154"
       cy="117.88461"
       fx="154"
       fy="117.88461"
       r="8" />
    <radialGradient
       inkscape:collect="always"
       xlink:href="#linearGradient8794-33"
       id="radialGradient4135"
       gradientUnits="userSpaceOnUse"
       gradientTransform="matrix(5.625,1.6717933e-6,-1.671793e-6,5.6249987,-793.24977,318.76109)"
       cx="154"
       cy="117.88461"
       fx="154"
       fy="117.88461"
       r="8" />
    <filter
       inkscape:collect="always"
       id="filter4139"
       x="-0.11250002"
       width="1.225"
       y="-0.12857141"
       height="1.2571428">
      <feGaussianBlur
         inkscape:collect="always"
         stdDeviation="3.3750005"
         id="feGaussianBlur4141" />
    </filter>
    <radialGradient
       inkscape:collect="always"
       xlink:href="#linearGradient8794-33"
       id="radialGradient4153"
       gradientUnits="userSpaceOnUse"
       gradientTransform="matrix(5.625,1.6717933e-6,-1.671793e-6,5.6249987,-793.24977,318.76109)"
       cx="154"
       cy="117.88461"
       fx="154"
       fy="117.88461"
       r="8" />
    <radialGradient
       inkscape:collect="always"
       xlink:href="#linearGradient7110-8"
       id="radialGradient3858"
       gradientUnits="userSpaceOnUse"
       gradientTransform="matrix(0,-4.4524611,4.4524611,0,-470.29535,1661.1363)"
       cx="154.47998"
       cy="122.48"
       fx="154.47998"
       fy="122.48"
       r="8" />
    <linearGradient
       id="linearGradient7110-8">
      <stop
         style="stop-color:#5a5a5a;stop-opacity:1;"
         offset="0"
         id="stop7112-2" />
      <stop
         style="stop-color:#202020;stop-opacity:1;"
         offset="1"
         id="stop7114-0" />
    </linearGradient>
    <radialGradient
       inkscape:collect="always"
       xlink:href="#linearGradient7006-8"
       id="radialGradient6053"
       gradientUnits="userSpaceOnUse"
       gradientTransform="translate(1.5814697e-6,924.36216)"
       cx="88"
       cy="36"
       fx="88"
       fy="36"
       r="51" />
    <linearGradient
       inkscape:collect="always"
       id="linearGradient7006-8">
      <stop
         style="stop-color:#ffffff;stop-opacity:1;"
         offset="0"
         id="stop7008-1" />
      <stop
         style="stop-color:#ffffff;stop-opacity:0;"
         offset="1"
         id="stop7010-1" />
    </linearGradient>
    <linearGradient
       inkscape:collect="always"
       xlink:href="#linearGradient6978-3"
       id="linearGradient6051"
       gradientUnits="userSpaceOnUse"
       gradientTransform="translate(1.5814697e-6,924.36216)"
       x1="64"
       y1="188"
       x2="64"
       y2="8" />
    <linearGradient
       inkscape:collect="always"
       id="linearGradient6978-3">
      <stop
         style="stop-color:#000000;stop-opacity:0.25"
         offset="0"
         id="stop6980-5" />
      <stop
         style="stop-color:#000000;stop-opacity:0;"
         offset="1"
         id="stop6982-7" />
    </linearGradient>
    <radialGradient
       inkscape:collect="always"
       xlink:href="#linearGradient4216-4-8-2-6"
       id="radialGradient6049"
       gradientUnits="userSpaceOnUse"
       gradientTransform="translate(1.5814697e-6,-4.1772461e-5)"
       cx="64"
       cy="1020.3622"
       fx="64"
       fy="1020.3622"
       r="52" />
    <linearGradient
       id="linearGradient4216-4-8-2-6">
      <stop
         id="stop4218-8-0-7-4"
         offset="0"
         style="stop-color:#ffffff;stop-opacity:1;" />
      <stop
         id="stop4220-1-6-4-0"
         offset="1"
         style="stop-color:#c6c6c6;stop-opacity:1;" />
    </linearGradient>
    <filter
       color-interpolation-filters="sRGB"
       inkscape:collect="always"
       id="filter6960">
      <feGaussianBlur
         inkscape:collect="always"
         stdDeviation="4.16"
         id="feGaussianBlur6962" />
    </filter>
    <radialGradient
       inkscape:collect="always"
       xlink:href="#linearGradient7110"
       id="radialGradient3860"
       gradientUnits="userSpaceOnUse"
       gradientTransform="matrix(2.0408375,6.0655261e-7,-6.065525e-7,2.040837,-151.02355,762.14612)"
       cx="154"
       cy="117.88461"
       fx="154"
       fy="117.88461"
       r="8" />
    <radialGradient
       inkscape:collect="always"
       xlink:href="#linearGradient7110"
       id="radialGradient3865"
       gradientUnits="userSpaceOnUse"
       gradientTransform="matrix(5.5680878,1.6548785e-6,-1.6548782e-6,5.5680864,-784.57633,327.51561)"
       cx="154"
       cy="117.88461"
       fx="154"
       fy="117.88461"
       r="8" />
  </defs>
  <metadata
     id="metadata7">
    <rdf:RDF>
      <cc:Work
         rdf:about="">
        <dc:format>image/svg+xml</dc:format>
        <dc:type
           rdf:resource="http://purl.org/dc/dcmitype/StillImage" />
        <dc:title />
      </cc:Work>
    </rdf:RDF>
  </metadata>
  <g
     transform="translate(0,-924.36218)"
     id="layer1"
     inkscape:groupmode="layer"
     inkscape:label="Layer 1">
    <path
       inkscape:connector-curvature="0"
       style="fill:url(#radialGradient3860);fill-opacity:1;stroke:#000000;stroke-width:1;stroke-miterlimit:4;stroke-opacity:0.18823529999999999;stroke-dasharray:none;stroke-linejoin:round"
       d="m 146.93864,992.93349 0,14.69401 c 0,1.6327 0,1.6327 1.63267,1.6327 l 0,3.2653 c 0,0.9045 0.72817,1.6327 1.63267,1.6327 l 1.63267,0 0,1.6327 4.89801,0 0,-1.6327 8.16335,0 0,1.6327 4.89801,0 0,-1.6327 1.63267,0 c 0.90449,0 1.63266,-0.7282 1.63266,-1.6327 l 0,-13.06133 c 0,-0.9045 -0.72817,-1.63267 -1.63266,-1.63267 l -21.22471,0 c -0.9045,0 -1.63267,0.72817 -1.63267,1.63267 l 0,-6.53068 -1.63267,0 z m 5.71434,6.53068 c 1.35255,0 2.44901,1.09643 2.44901,2.44903 0,1.3525 -1.09646,2.449 -2.44901,2.449 -1.35255,0 -2.449,-1.0965 -2.449,-2.449 0,-1.3526 1.09645,-2.44903 2.449,-2.44903 z m 7.34702,0 11.42869,0 0,1.63263 -11.42869,0 0,-1.63263 z m 0,3.26533 11.42869,0 0,1.6327 -11.42869,0 0,-1.6327 z m -8.16335,3.2653 c 0.90169,0 1.63267,0.731 1.63267,1.6327 0,0.9017 -0.73098,1.6327 -1.63267,1.6327 -0.9017,0 -1.63267,-0.731 -1.63267,-1.6327 0,-0.9017 0.73097,-1.6327 1.63267,-1.6327 z m 3.26534,0 3.26534,0 0,1.6327 -3.26534,0 0,-1.6327 z m 4.89801,0 11.42869,0 0,1.6327 -11.42869,0 0,-1.6327 z m -4.89801,3.2654 3.26534,0 0,1.6327 -3.26534,0 0,-1.6327 z m 4.89801,0 11.42869,0 0,1.6327 -11.42869,0 0,-1.6327 z"
       id="path4151" />
    <text
       xml:space="preserve"
       style="font-size:24px;font-style:normal;font-weight:normal;line-height:125%;letter-spacing:0px;word-spacing:0px;fill:#000000;fill-opacity:1;stroke:none;font-family:Sans"
       x="-56"
       y="948.36218"
       id="text5893"
       sodipodi:linespacing="125%"><tspan
         sodipodi:role="line"
         id="tspan5895"
         x="-56"
         y="948.36218">128</tspan></text>
    <text
       sodipodi:linespacing="125%"
       id="text5901"
       y="1000.3622"
       x="184"
       style="font-size:16px;font-style:normal;font-weight:normal;line-height:125%;letter-spacing:0px;word-spacing:0px;fill:#000000;fill-opacity:1;stroke:none;font-family:Sans"
       xml:space="preserve"><tspan
         y="1000.3622"
         x="184"
         id="tspan5903"
         sodipodi:role="line">31 - 17</tspan></text>
    <text
       xml:space="preserve"
       style="font-size:16px;font-style:normal;font-weight:normal;line-height:125%;letter-spacing:0px;word-spacing:0px;fill:#000000;fill-opacity:1;stroke:none;font-family:Sans"
       x="172"
       y="1048.3622"
       id="text5905"
       sodipodi:linespacing="125%"><tspan
         sodipodi:role="line"
         id="tspan5907"
         x="172"
         y="1048.3622">16</tspan></text>
    <rect
       style="fill:none;stroke:#000000;stroke-width:1;stroke-linecap:round;stroke-linejoin:round;stroke-miterlimit:4;stroke-opacity:1;stroke-dasharray:none;stroke-dashoffset:0"
       id="rect5919"
       width="40"
       height="40"
       x="140"
       y="60"
       transform="translate(0,924.36218)"
       rx="4.5902016e-07" />
    <rect
       style="fill:none;stroke:#000000;stroke-width:1;stroke-linecap:round;stroke-linejoin:round;stroke-miterlimit:4;stroke-opacity:1;stroke-dasharray:none;stroke-dashoffset:0"
       id="rect5921"
       width="24"
       height="24"
       x="140"
       y="1032.3622"
       rx="4.5902016e-07" />
    <rect
       style="fill:#b3b3b3;fill-opacity:1;stroke:none"
       id="rect6935"
       width="32"
       height="4"
       x="144"
       y="56"
       transform="translate(0,924.36218)"
       rx="4.5902016e-07" />
    <rect
       style="fill:#b3b3b3;fill-opacity:1;stroke:none"
       id="rect6937"
       width="4"
       height="32"
       x="136"
       y="64"
       transform="translate(0,924.36218)"
       rx="4.5902016e-07" />
    <rect
       style="fill:#b3b3b3;fill-opacity:1;stroke:none"
       id="rect6939"
       width="16"
       height="4"
       x="144"
       y="104"
       rx="4.5902016e-07"
       transform="translate(0,924.36218)" />
    <rect
       style="fill:#b3b3b3;fill-opacity:1;stroke:none"
       id="rect6941"
       width="4"
       height="16"
       x="136"
       y="112"
       transform="translate(0,924.36218)"
       rx="4.5902016e-07" />
    <path
       style="fill:url(#radialGradient4131);fill-opacity:1.0;stroke:none"
       d="M 144 112 L 144 121 C 144 122 144 122 145 122 L 145 124 C 145 124.554 145.446 125 146 125 L 147 125 L 147 126 L 150 126 L 150 125 L 155 125 L 155 126 L 158 126 L 158 125 L 159 125 C 159.554 125 160 124.554 160 124 L 160 116 C 160 115.446 159.554 115 159 115 L 146 115 C 145.446 115 145 115.446 145 116 L 145 112 L 144 112 z M 147.5 116 C 148.32843 116 149 116.67157 149 117.5 C 149 118.32843 148.32843 119 147.5 119 C 146.67157 119 146 118.32843 146 117.5 C 146 116.67157 146.67157 116 147.5 116 z M 152 116 L 159 116 L 159 117 L 152 117 L 152 116 z M 152 118 L 159 118 L 159 119 L 152 119 L 152 118 z M 147 120 C 147.55228 120 148 120.44772 148 121 C 148 121.55228 147.55228 122 147 122 C 146.44772 122 146 121.55228 146 121 C 146 120.44772 146.44772 120 147 120 z M 149 120 L 151 120 L 151 121 L 149 121 L 149 120 z M 152 120 L 159 120 L 159 121 L 152 121 L 152 120 z M 149 122 L 151 122 L 151 123 L 149 123 L 149 122 z M 152 122 L 159 122 L 159 123 L 152 123 L 152 122 z "
       transform="translate(0,924.36218)"
       id="rect4092" />
    <rect
       ry="8"
       rx="8"
       y="936.36218"
       x="12"
       height="104"
       width="104"
       id="rect6938"
       style="fill:#000000;fill-opacity:1;stroke:none;filter:url(#filter6960)" />
    <rect
       style="fill:url(#radialGradient6049);fill-opacity:1;stroke:none"
       id="rect6936-6"
       width="104"
       height="104"
       x="12"
       y="936.36218"
       rx="8"
       ry="8" />
    <rect
       ry="8"
       rx="8"
       y="932.36218"
       x="12"
       height="104"
       width="104"
       id="rect6964-2"
       style="fill:#ffffff;fill-opacity:1;stroke:none" />
    <rect
       style="opacity:0.5;fill:url(#linearGradient6051);fill-opacity:1;stroke:none"
       id="rect6975"
       width="102"
       height="102"
       x="13"
       y="933.36218"
       rx="8"
       ry="8" />
    <rect
       ry="8"
       rx="8"
       y="933.36218"
       x="13"
       height="102"
       width="102"
       id="rect7002"
       style="opacity:0.5;fill:url(#radialGradient6053);fill-opacity:1;stroke:none" />
    <path
       id="path3863"
       d="m 28.364255,957.18086 0,40.09014 c 0,4.4546 0,4.4546 4.45447,4.4546 l 0,8.9088 c 0,2.4678 1.98669,4.4546 4.45447,4.4546 l 4.45447,0 0,4.4545 13.36341,0 0,-4.4545 22.27235,0 0,4.4545 13.36341,0 0,-4.4545 4.45447,0 c 2.46775,0 4.45444,-1.9868 4.45444,-4.4546 l 0,-35.63566 c 0,-2.46778 -1.98669,-4.45447 -4.45444,-4.45447 l -57.90811,0 c -2.46778,0 -4.45447,1.98669 -4.45447,4.45447 l 0,-17.81788 -4.45447,0 z m 15.59063,17.81788 c 3.69021,0 6.68172,2.99143 6.68172,6.68178 0,3.69008 -2.99151,6.68168 -6.68172,6.68168 -3.69021,0 -6.68169,-2.9916 -6.68169,-6.68168 0,-3.69035 2.99148,-6.68178 6.68169,-6.68178 z m 20.04513,0 31.18129,0 0,4.45436 -31.18129,0 0,-4.45436 z m 0,8.90892 31.18129,0 0,4.45454 -31.18129,0 0,-4.45454 z m -22.27235,8.90884 c 2.46011,0 4.45447,1.9944 4.45447,4.4545 0,2.4602 -1.99436,4.4546 -4.45447,4.4546 -2.46014,0 -4.45447,-1.9944 -4.45447,-4.4546 0,-2.4601 1.99433,-4.4545 4.45447,-4.4545 z m 8.90894,0 8.90894,0 0,4.4545 -8.90894,0 0,-4.4545 z m 13.36341,0 31.18129,0 0,4.4545 -31.18129,0 0,-4.4545 z m -13.36341,8.9091 8.90894,0 0,4.4545 -8.90894,0 0,-4.4545 z m 13.36341,0 31.18129,0 0,4.4545 -31.18129,0 0,-4.4545 z"
       style="fill:url(#radialGradient3865);fill-opacity:1;stroke:#000000;stroke-width:2.72833467;stroke-linejoin:round;stroke-miterlimit:4;stroke-opacity:0.18823529;stroke-dasharray:none"
       inkscape:connector-curvature="0" />
  </g>
</svg>
