<?xml version="1.0" encoding="UTF-8" standalone="no"?>
<!-- Created with Inkscape (http://www.inkscape.org/) -->

<svg
   xmlns:dc="http://purl.org/dc/elements/1.1/"
   xmlns:cc="http://creativecommons.org/ns#"
   xmlns:rdf="http://www.w3.org/1999/02/22-rdf-syntax-ns#"
   xmlns:svg="http://www.w3.org/2000/svg"
   xmlns="http://www.w3.org/2000/svg"
   xmlns:xlink="http://www.w3.org/1999/xlink"
   xmlns:sodipodi="http://sodipodi.sourceforge.net/DTD/sodipodi-0.dtd"
   xmlns:inkscape="http://www.inkscape.org/namespaces/inkscape"
   sodipodi:docname="system-shutdown.svg"
   inkscape:version="0.48.4 r9939"
   version="1.1"
   id="svg2"
   height="128"
   width="128">
  <sodipodi:namedview
     id="base"
     pagecolor="#ffffff"
     bordercolor="#666666"
     borderopacity="1.0"
     inkscape:pageopacity="0.0"
     inkscape:pageshadow="2"
     inkscape:zoom="2.5600001"
     inkscape:cx="88.053822"
     inkscape:cy="-97.680178"
     inkscape:document-units="px"
     inkscape:current-layer="layer1"
     showgrid="true"
     showguides="true"
     inkscape:guide-bbox="true"
     inkscape:window-width="1221"
     inkscape:window-height="1000"
     inkscape:window-x="59"
     inkscape:window-y="24"
     inkscape:window-maximized="1">
    <inkscape:grid
       snapvisiblegridlinesonly="true"
       enabled="true"
       visible="true"
       empspacing="4"
       id="grid2985"
       type="xygrid" />
  </sodipodi:namedview>
  <defs
     id="defs4">
    <linearGradient
       id="linearGradient4045">
      <stop
         style="stop-color:#202020;stop-opacity:1;"
         offset="0"
         id="stop4047" />
      <stop
         id="stop4055"
         offset="0.125"
         style="stop-color:#d4d4d4;stop-opacity:1;" />
      <stop
         id="stop4053"
         offset="0.25"
         style="stop-color:#282828;stop-opacity:1;" />
      <stop
         id="stop4051"
         offset="0.5"
         style="stop-color:#ffffff;stop-opacity:1;" />
      <stop
         style="stop-color:#545454;stop-opacity:1;"
         offset="1"
         id="stop4049" />
    </linearGradient>
    <linearGradient
       id="linearGradient10061">
      <stop
         style="stop-color:#b3b3b3;stop-opacity:1;"
         offset="0"
         id="stop10063" />
      <stop
         style="stop-color:#b3b3b3;stop-opacity:0;"
         offset="1"
         id="stop10065" />
    </linearGradient>
    <linearGradient
       id="linearGradient7110">
      <stop
         style="stop-color:#5a5a5a;stop-opacity:1;"
         offset="0"
         id="stop7112" />
      <stop
         style="stop-color:#202020;stop-opacity:1;"
         offset="1"
         id="stop7114" />
    </linearGradient>
    <linearGradient
       id="linearGradient4216-4-8-2">
      <stop
         id="stop4218-8-0-7"
         offset="0"
         style="stop-color:#494949;stop-opacity:1;" />
      <stop
         id="stop4220-1-6-4"
         offset="1"
         style="stop-color:#0f0f0f;stop-opacity:1;" />
    </linearGradient>
    <radialGradient
       inkscape:collect="always"
       xlink:href="#linearGradient4216-4-8-2"
       id="radialGradient5899"
       gradientUnits="userSpaceOnUse"
       gradientTransform="translate(0,2)"
       cx="64"
       cy="1020.3622"
       fx="64"
       fy="1020.3622"
       r="52" />
    <radialGradient
       inkscape:collect="always"
       xlink:href="#linearGradient7110"
       id="radialGradient7116"
       cx="80"
       cy="972.36218"
       fx="80"
       fy="972.36218"
       r="52.5"
       gradientUnits="userSpaceOnUse" />
    <linearGradient
       id="linearGradient6964-4">
      <stop
         style="stop-color:#ffffff;stop-opacity:1;"
         offset="0"
         id="stop6966-4" />
      <stop
         style="stop-color:#cacaca;stop-opacity:1;"
         offset="1"
         id="stop6970-3" />
    </linearGradient>
    <radialGradient
       inkscape:collect="always"
       xlink:href="#linearGradient6964-4"
       id="radialGradient10192"
       cx="154"
       cy="118"
       fx="154"
       fy="118"
       r="8"
       gradientUnits="userSpaceOnUse"
       gradientTransform="matrix(1.25,0,0,1.25,-38.5,-29.5)" />
    <radialGradient
       inkscape:collect="always"
       xlink:href="#linearGradient6964-4"
       id="radialGradient10196"
       gradientUnits="userSpaceOnUse"
       gradientTransform="matrix(5.625,0,0,5.625,-793.25,313.61216)"
       cx="154"
       cy="118"
       fx="154"
       fy="118"
       r="8" />
    <radialGradient
       inkscape:collect="always"
       xlink:href="#linearGradient6964-4"
       id="radialGradient10212"
       gradientUnits="userSpaceOnUse"
       gradientTransform="matrix(5.625,0,0,5.625,-793.25,313.61216)"
       cx="154"
       cy="118"
       fx="154"
       fy="118"
       r="8" />
    <radialGradient
       inkscape:collect="always"
       xlink:href="#linearGradient8794-33"
       id="radialGradient6967"
       gradientUnits="userSpaceOnUse"
       gradientTransform="matrix(0.78722727,0,0,1.1316392,13.617455,-8.16161)"
       cx="84"
       cy="46.695652"
       fx="84"
       fy="46.695652"
       r="32" />
    <linearGradient
       id="linearGradient8794-33">
      <stop
         style="stop-color:#ffffff;stop-opacity:1;"
         offset="0"
         id="stop8796-9" />
      <stop
         style="stop-color:#cacaca;stop-opacity:1;"
         offset="1"
         id="stop8798-6" />
    </linearGradient>
    <radialGradient
       r="32"
       fy="46.695652"
       fx="84"
       cy="46.695652"
       cx="84"
       gradientTransform="matrix(0.78722727,0,0,1.1316392,13.617455,-8.16161)"
       gradientUnits="userSpaceOnUse"
       id="radialGradient5944"
       xlink:href="#linearGradient8794-33"
       inkscape:collect="always" />
    <radialGradient
       inkscape:collect="always"
       xlink:href="#linearGradient8794-33"
       id="radialGradient10267"
       gradientUnits="userSpaceOnUse"
       gradientTransform="matrix(0.78722727,0,0,1.1316392,13.617455,-8.16161)"
       cx="84"
       cy="46.695652"
       fx="84"
       fy="46.695652"
       r="32" />
    <radialGradient
       inkscape:collect="always"
       xlink:href="#linearGradient8794-33-9"
       id="radialGradient6997"
       cx="153"
       cy="118"
       fx="153"
       fy="118"
       r="4"
       gradientTransform="matrix(1,0,0,1.5,0,-60)"
       gradientUnits="userSpaceOnUse" />
    <linearGradient
       id="linearGradient8794-33-9">
      <stop
         style="stop-color:#ffffff;stop-opacity:1;"
         offset="0"
         id="stop8796-9-5" />
      <stop
         style="stop-color:#cacaca;stop-opacity:1;"
         offset="1"
         id="stop8798-6-9" />
    </linearGradient>
    <radialGradient
       r="4"
       fy="118"
       fx="153"
       cy="118"
       cx="153"
       gradientTransform="matrix(1.333375,0,0,2.0000625,-50.673,804.35467)"
       gradientUnits="userSpaceOnUse"
       id="radialGradient5961"
       xlink:href="#linearGradient8794-33-9"
       inkscape:collect="always" />
    <radialGradient
       inkscape:collect="always"
       xlink:href="#linearGradient4216-4-8-2"
       id="radialGradient3881"
       gradientUnits="userSpaceOnUse"
       gradientTransform="translate(0,150)"
       cx="64"
       cy="1020.3622"
       fx="64"
       fy="1020.3622"
       r="52" />
    <radialGradient
       inkscape:collect="always"
       xlink:href="#linearGradient7110"
       id="radialGradient3883"
       gradientUnits="userSpaceOnUse"
       cx="80"
       cy="972.36218"
       fx="80"
       fy="972.36218"
       r="52.5"
       gradientTransform="translate(0,148)" />
    <radialGradient
       inkscape:collect="always"
       xlink:href="#linearGradient7110"
       id="radialGradient3885"
       gradientUnits="userSpaceOnUse"
       cx="80"
       cy="972.36218"
       fx="80"
       fy="972.36218"
       r="52.5"
       gradientTransform="translate(0,148)" />
    <radialGradient
       inkscape:collect="always"
       xlink:href="#linearGradient8794-33"
       id="radialGradient3887"
       gradientUnits="userSpaceOnUse"
       gradientTransform="matrix(0.78722727,0,0,1.1316392,13.617455,1064.2006)"
       cx="84"
       cy="46.695652"
       fx="84"
       fy="46.695652"
       r="32" />
    <radialGradient
       inkscape:collect="always"
       xlink:href="#linearGradient8794-33"
       id="radialGradient3889"
       gradientUnits="userSpaceOnUse"
       gradientTransform="matrix(0.78722727,0,0,1.1316392,13.617455,-8.16161)"
       cx="84"
       cy="46.695652"
       fx="84"
       fy="46.695652"
       r="32" />
    <radialGradient
       inkscape:collect="always"
       xlink:href="#linearGradient8794-33-9"
       id="radialGradient3905"
       cx="152"
       cy="1191.8622"
       fx="152"
       fy="1191.8622"
       r="4"
       gradientTransform="matrix(1,0,0,0.875,0,148.98277)"
       gradientUnits="userSpaceOnUse" />
    <filter
       color-interpolation-filters="sRGB"
       inkscape:collect="always"
       id="filter6960">
      <feGaussianBlur
         inkscape:collect="always"
         stdDeviation="4.16"
         id="feGaussianBlur6962" />
    </filter>
    <radialGradient
       inkscape:collect="always"
       xlink:href="#linearGradient4216-4-8-2-6"
       id="radialGradient5899-5"
       gradientUnits="userSpaceOnUse"
       gradientTransform="translate(0,2)"
       cx="64"
       cy="1020.3622"
       fx="64"
       fy="1020.3622"
       r="52" />
    <linearGradient
       id="linearGradient4216-4-8-2-6">
      <stop
         id="stop4218-8-0-7-4"
         offset="0"
         style="stop-color:#ffffff;stop-opacity:1;" />
      <stop
         id="stop4220-1-6-4-0"
         offset="1"
         style="stop-color:#c6c6c6;stop-opacity:1;" />
    </linearGradient>
    <linearGradient
       inkscape:collect="always"
       xlink:href="#linearGradient6978"
       id="linearGradient5895"
       gradientUnits="userSpaceOnUse"
       gradientTransform="translate(0,926.36218)"
       x1="64"
       y1="188"
       x2="64"
       y2="8" />
    <linearGradient
       inkscape:collect="always"
       id="linearGradient6978">
      <stop
         style="stop-color:#000000;stop-opacity:0.25"
         offset="0"
         id="stop6980" />
      <stop
         style="stop-color:#000000;stop-opacity:0;"
         offset="1"
         id="stop6982" />
    </linearGradient>
    <radialGradient
       inkscape:collect="always"
       xlink:href="#linearGradient7006"
       id="radialGradient5892"
       gradientUnits="userSpaceOnUse"
       gradientTransform="translate(0,926.36218)"
       cx="88"
       cy="36"
       fx="88"
       fy="36"
       r="51" />
    <linearGradient
       inkscape:collect="always"
       id="linearGradient7006">
      <stop
         style="stop-color:#ffffff;stop-opacity:1;"
         offset="0"
         id="stop7008" />
      <stop
         style="stop-color:#ffffff;stop-opacity:0;"
         offset="1"
         id="stop7010" />
    </linearGradient>
    <radialGradient
       r="51"
       fy="36"
       fx="88"
       cy="36"
       cx="88"
       gradientTransform="translate(0,926.36218)"
       gradientUnits="userSpaceOnUse"
       id="radialGradient6102"
       xlink:href="#linearGradient7006"
       inkscape:collect="always" />
    <radialGradient
       inkscape:collect="always"
       xlink:href="#linearGradient7006"
       id="radialGradient3988"
       gradientUnits="userSpaceOnUse"
       gradientTransform="translate(0,1072.3622)"
       cx="88"
       cy="36"
       fx="88"
       fy="36"
       r="51" />
    <linearGradient
       inkscape:collect="always"
       xlink:href="#linearGradient6978"
       id="linearGradient3991"
       gradientUnits="userSpaceOnUse"
       gradientTransform="translate(0,1072.3622)"
       x1="64"
       y1="188"
       x2="64"
       y2="8" />
    <radialGradient
       inkscape:collect="always"
       xlink:href="#linearGradient4216-4-8-2-6"
       id="radialGradient3995"
       gradientUnits="userSpaceOnUse"
       gradientTransform="translate(0,148)"
       cx="64"
       cy="1020.3622"
       fx="64"
       fy="1020.3622"
       r="52" />
    <radialGradient
       inkscape:collect="always"
       xlink:href="#linearGradient4216-4-8-2"
       id="radialGradient4009"
       gradientUnits="userSpaceOnUse"
       gradientTransform="matrix(5.625,0,0,5.625,-793.25,459.61216)"
       cx="154"
       cy="118"
       fx="154"
       fy="118"
       r="8" />
    <linearGradient
       inkscape:collect="always"
       xlink:href="#linearGradient4045"
       id="linearGradient4043"
       x1="28"
       y1="1168.3622"
       x2="100"
       y2="1096.3622"
       gradientUnits="userSpaceOnUse" />
    <radialGradient
       inkscape:collect="always"
       xlink:href="#linearGradient4216-4-8-2"
       id="radialGradient4071"
       gradientUnits="userSpaceOnUse"
       gradientTransform="matrix(5.625,0,0,5.625,-793.25,459.61216)"
       cx="154"
       cy="118"
       fx="154"
       fy="118"
       r="8" />
    <linearGradient
       inkscape:collect="always"
       xlink:href="#linearGradient4045"
       id="linearGradient4073"
       gradientUnits="userSpaceOnUse"
       x1="28"
       y1="1168.3622"
       x2="100"
       y2="1096.3622" />
    <radialGradient
       inkscape:collect="always"
       xlink:href="#linearGradient4216-4-8-2-6"
       id="radialGradient4124"
       cx="154"
       cy="118"
       fx="154"
       fy="118"
       r="8"
       gradientUnits="userSpaceOnUse"
       gradientTransform="matrix(1.25,0,0,1.25,-38.5,-29.5)" />
    <radialGradient
       inkscape:collect="always"
       xlink:href="#linearGradient4216-4-8-2-6"
       id="radialGradient4128"
       gradientUnits="userSpaceOnUse"
       gradientTransform="matrix(5.625,0,0,5.625,-793.25,313.61216)"
       cx="154"
       cy="118"
       fx="154"
       fy="118"
       r="8" />
    <radialGradient
       inkscape:collect="always"
       xlink:href="#linearGradient4216-4-8-2-6"
       id="radialGradient4146"
       gradientUnits="userSpaceOnUse"
       gradientTransform="matrix(5.625,0,0,5.625,-793.25,313.61216)"
       cx="154"
       cy="118"
       fx="154"
       fy="118"
       r="8" />
    <radialGradient
       inkscape:collect="always"
       xlink:href="#linearGradient4216-4-8-2"
       id="radialGradient4150"
       gradientUnits="userSpaceOnUse"
       gradientTransform="matrix(1.25,0,0,1.25,-38.5,1042.8622)"
       cx="154"
       cy="118"
       fx="154"
       fy="118"
       r="8" />
    <radialGradient
       inkscape:collect="always"
       xlink:href="#linearGradient4216-4-8-2"
       id="radialGradient4154"
       gradientUnits="userSpaceOnUse"
       gradientTransform="matrix(5.625,0,0,5.625,-793.25,457.61221)"
       cx="154"
       cy="118"
       fx="154"
       fy="118"
       r="8" />
    <radialGradient
       inkscape:collect="always"
       xlink:href="#linearGradient4216-4-8-2"
       id="radialGradient4181"
       gradientUnits="userSpaceOnUse"
       gradientTransform="matrix(5.625,0,0,5.625,-793.25,457.61221)"
       cx="154"
       cy="118"
       fx="154"
       fy="118"
       r="8" />
    <radialGradient
       inkscape:collect="always"
       xlink:href="#linearGradient4216-4-8-2-6"
       id="radialGradient4223"
       cx="154"
       cy="117.33334"
       fx="154"
       fy="117.33334"
       r="8"
       gradientTransform="matrix(1.25,2.864386e-7,-2.8643884e-7,1.250001,-38.499959,-28.666835)"
       gradientUnits="userSpaceOnUse" />
    <radialGradient
       inkscape:collect="always"
       xlink:href="#linearGradient4216-4-8-2-6"
       id="radialGradient4227"
       gradientUnits="userSpaceOnUse"
       gradientTransform="matrix(5.625,1.2889737e-6,-1.2889748e-6,5.6250045,-793.24982,317.3614)"
       cx="154"
       cy="117.33334"
       fx="154"
       fy="117.33334"
       r="8" />
    <radialGradient
       inkscape:collect="always"
       xlink:href="#linearGradient4216-4-8-2-6"
       id="radialGradient4245"
       gradientUnits="userSpaceOnUse"
       gradientTransform="matrix(5.625,1.2889737e-6,-1.2889748e-6,5.6250045,-793.24982,317.3614)"
       cx="154"
       cy="117.33334"
       fx="154"
       fy="117.33334"
       r="8" />
    <radialGradient
       inkscape:collect="always"
       xlink:href="#linearGradient4216-4-8-2"
       id="radialGradient4249"
       gradientUnits="userSpaceOnUse"
       gradientTransform="matrix(1.25,2.864386e-7,-2.8643884e-7,1.250001,-38.499959,1043.6953)"
       cx="154"
       cy="117.33334"
       fx="154"
       fy="117.33334"
       r="8" />
    <radialGradient
       inkscape:collect="always"
       xlink:href="#linearGradient4216-4-8-2"
       id="radialGradient4253"
       gradientUnits="userSpaceOnUse"
       gradientTransform="matrix(5.625,1.2889737e-6,-1.2889748e-6,5.6250045,-793.24982,461.36113)"
       cx="154"
       cy="117.33334"
       fx="154"
       fy="117.33334"
       r="8" />
    <radialGradient
       inkscape:collect="always"
       xlink:href="#linearGradient4216-4-8-2"
       id="radialGradient4270"
       gradientUnits="userSpaceOnUse"
       gradientTransform="matrix(5.625,1.2889737e-6,-1.2889748e-6,5.6250045,-793.24982,461.36113)"
       cx="154"
       cy="117.33334"
       fx="154"
       fy="117.33334"
       r="8" />
    <radialGradient
       inkscape:collect="always"
       xlink:href="#linearGradient4216-4-8-2-6"
       id="radialGradient3904"
       cx="64"
       cy="988.36218"
       fx="64"
       fy="988.36218"
       r="64"
       gradientUnits="userSpaceOnUse" />
    <radialGradient
       inkscape:collect="always"
       xlink:href="#linearGradient4216-4-8-2-6"
       id="radialGradient3906"
       gradientUnits="userSpaceOnUse"
       cx="64"
       cy="988.36218"
       fx="64"
       fy="988.36218"
       r="64" />
    <radialGradient
       inkscape:collect="always"
       xlink:href="#linearGradient4216-4-8-2-6"
       id="radialGradient3908"
       gradientUnits="userSpaceOnUse"
       cx="64"
       cy="988.36218"
       fx="64"
       fy="988.36218"
       r="64" />
    <radialGradient
       inkscape:collect="always"
       xlink:href="#linearGradient4216-4-8-2-6"
       id="radialGradient3911"
       gradientUnits="userSpaceOnUse"
       cx="64"
       cy="988.36218"
       fx="64"
       fy="988.36218"
       r="64"
       gradientTransform="matrix(0.125,0,0,0.125,144,1036.3622)" />
    <radialGradient
       inkscape:collect="always"
       xlink:href="#linearGradient4216-4-8-2-6"
       id="radialGradient3914"
       gradientUnits="userSpaceOnUse"
       cx="64"
       cy="988.36218"
       fx="64"
       fy="988.36218"
       r="64"
       gradientTransform="matrix(0.125,0,0,0.125,144,112.00002)" />
    <radialGradient
       inkscape:collect="always"
       xlink:href="#linearGradient4216-4-8-2-6"
       id="radialGradient3921"
       cx="154"
       cy="118"
       fx="154"
       fy="118"
       r="8"
       gradientUnits="userSpaceOnUse"
       gradientTransform="matrix(1.25,0,0,1.25,-38.5,-29.5)" />
    <radialGradient
       inkscape:collect="always"
       xlink:href="#linearGradient4216-4-8-2-6"
       id="radialGradient3925"
       gradientUnits="userSpaceOnUse"
       gradientTransform="matrix(5.625,0,0,5.625,-793.25,313.612)"
       cx="154"
       cy="118"
       fx="154"
       fy="118"
       r="8" />
    <filter
       inkscape:collect="always"
       id="filter3948"
       x="-0.12000002"
       width="1.24"
       y="-0.11999998"
       height="1.24">
      <feGaussianBlur
         inkscape:collect="always"
         stdDeviation="3.6000005"
         id="feGaussianBlur3950" />
    </filter>
    <radialGradient
       inkscape:collect="always"
       xlink:href="#linearGradient4216-4-8-2-6"
       id="radialGradient3962"
       gradientUnits="userSpaceOnUse"
       gradientTransform="matrix(5.625,0,0,5.625,-793.25,313.612)"
       cx="154"
       cy="118"
       fx="154"
       fy="118"
       r="8" />
    <radialGradient
       inkscape:collect="always"
       xlink:href="#linearGradient4216-4-8-2"
       id="radialGradient3990"
       cx="154"
       cy="1190.3622"
       fx="154"
       fy="1190.3622"
       r="8"
       gradientUnits="userSpaceOnUse"
       gradientTransform="matrix(1.25,3.6054682e-6,-3.6054691e-6,1.2500003,-38.495708,-297.59149)" />
    <radialGradient
       inkscape:collect="always"
       xlink:href="#linearGradient4216-4-8-2"
       id="radialGradient3994"
       gradientUnits="userSpaceOnUse"
       gradientTransform="matrix(5.625,1.6224607e-5,-1.6224611e-5,5.6250013,-793.23069,-5574.4294)"
       cx="154"
       cy="1190.3622"
       fx="154"
       fy="1190.3622"
       r="8" />
    <radialGradient
       inkscape:collect="always"
       xlink:href="#linearGradient4216-4-8-2"
       id="radialGradient4015"
       gradientUnits="userSpaceOnUse"
       gradientTransform="matrix(5.625,1.6224607e-5,-1.6224611e-5,5.6250013,-793.23069,-5574.4294)"
       cx="154"
       cy="1190.3622"
       fx="154"
       fy="1190.3622"
       r="8" />
    <radialGradient
       inkscape:collect="always"
       xlink:href="#linearGradient4216-4-8-2-6"
       id="radialGradient3133"
       gradientUnits="userSpaceOnUse"
       gradientTransform="matrix(1.25,0,0,1.25,-38.5,-29.5)"
       cx="154"
       cy="118"
       fx="154"
       fy="118"
       r="8" />
    <radialGradient
       inkscape:collect="always"
       xlink:href="#linearGradient4216-4-8-2-6"
       id="radialGradient3140"
       gradientUnits="userSpaceOnUse"
       gradientTransform="matrix(1.25,0,0,1.25,-38.5,-29.5)"
       cx="154"
       cy="118"
       fx="154"
       fy="118"
       r="8" />
    <radialGradient
       inkscape:collect="always"
       xlink:href="#linearGradient4216-4-8-2-6"
       id="radialGradient3145"
       gradientUnits="userSpaceOnUse"
       gradientTransform="matrix(5.625,0,0,5.625,-793.25,313.61216)"
       cx="154"
       cy="118"
       fx="154"
       fy="118"
       r="8" />
    <filter
       inkscape:collect="always"
       id="filter3917"
       x="-0.12000002"
       width="1.24"
       y="-0.11999998"
       height="1.24">
      <feGaussianBlur
         inkscape:collect="always"
         stdDeviation="3.6000005"
         id="feGaussianBlur3919" />
    </filter>
    <radialGradient
       inkscape:collect="always"
       xlink:href="#linearGradient4216-4-8-2-6"
       id="radialGradient3931"
       gradientUnits="userSpaceOnUse"
       gradientTransform="matrix(5.625,0,0,5.625,-793.25,313.61216)"
       cx="154"
       cy="118"
       fx="154"
       fy="118"
       r="8" />
    <radialGradient
       inkscape:collect="always"
       xlink:href="#linearGradient4216-4-8-2"
       id="radialGradient3935"
       gradientUnits="userSpaceOnUse"
       gradientTransform="matrix(1.25,0,0,1.25,-38.5,1042.8622)"
       cx="154"
       cy="118"
       fx="154"
       fy="118"
       r="8" />
    <radialGradient
       inkscape:collect="always"
       xlink:href="#linearGradient4216-4-8-2"
       id="radialGradient3939"
       gradientUnits="userSpaceOnUse"
       gradientTransform="matrix(5.625,0,0,5.625,-793.25,457.61218)"
       cx="154"
       cy="118"
       fx="154"
       fy="118"
       r="8" />
    <radialGradient
       inkscape:collect="always"
       xlink:href="#linearGradient4216-4-8-2"
       id="radialGradient3960"
       gradientUnits="userSpaceOnUse"
       gradientTransform="matrix(5.625,0,0,5.625,-793.25,457.61218)"
       cx="154"
       cy="118"
       fx="154"
       fy="118"
       r="8" />
    <radialGradient
       inkscape:collect="always"
       xlink:href="#linearGradient4216-4-8-2"
       id="radialGradient3963"
       gradientUnits="userSpaceOnUse"
       gradientTransform="matrix(5.625,0,0,5.625,-793.25,457.61218)"
       cx="154"
       cy="118"
       fx="154"
       fy="118"
       r="8" />
    <radialGradient
       inkscape:collect="always"
       xlink:href="#linearGradient4216-4-8-2"
       id="radialGradient3967"
       gradientUnits="userSpaceOnUse"
       gradientTransform="matrix(5.625,0,0,5.625,-793.25,457.61218)"
       cx="154"
       cy="118"
       fx="154"
       fy="118"
       r="8" />
    <radialGradient
       inkscape:collect="always"
       xlink:href="#linearGradient4216-4-8-2"
       id="radialGradient3972"
       gradientUnits="userSpaceOnUse"
       gradientTransform="matrix(2.2203947,0,0,2.2203947,-178.38816,886.0135)"
       cx="154"
       cy="118"
       fx="154"
       fy="118"
       r="8" />
  </defs>
  <metadata
     id="metadata7">
    <rdf:RDF>
      <cc:Work
         rdf:about="">
        <dc:format>image/svg+xml</dc:format>
        <dc:type
           rdf:resource="http://purl.org/dc/dcmitype/StillImage" />
        <dc:title></dc:title>
      </cc:Work>
    </rdf:RDF>
  </metadata>
  <g
     transform="translate(0,-924.36218)"
     id="layer1"
     inkscape:groupmode="layer"
     inkscape:label="Layer 1">
    <rect
       style="fill:none;fill-opacity:1;stroke:#2e3436"
       id="rect3893"
       width="144"
       height="144"
       x="-8"
       y="1064.3622"
       rx="4.5902016e-07" />
    <rect
       ry="8"
       rx="8"
       y="940.36218"
       x="12"
       height="104"
       width="104"
       id="rect6981"
       style="opacity:0.10000000000000001;fill:#000000;fill-opacity:1;stroke:#000000;stroke-width:10;stroke-miterlimit:4;stroke-dasharray:none" />
    <rect
       style="opacity:0.1;fill:#000000;fill-opacity:1;stroke:#000000;stroke-width:6;stroke-miterlimit:4;stroke-dasharray:none"
       id="rect6979"
       width="104"
       height="104"
       x="12"
       y="940.36218"
       rx="8"
       ry="8" />
    <rect
       ry="8"
       rx="8"
       y="938.36218"
       x="12"
       height="104"
       width="104"
       id="rect5969"
       style="fill:#000000;fill-opacity:1;stroke:#000000;opacity:0.20000000000000001;stroke-width:3;stroke-miterlimit:4;stroke-dasharray:none" />
    <rect
       style="fill:url(#radialGradient5899);fill-opacity:1;stroke:#1a1a1a"
       id="rect6936"
       width="104"
       height="104"
       x="12"
       y="938.36218"
       rx="8"
       ry="8" />
    <rect
       ry="8"
       rx="8"
       y="934.36218"
       x="12"
       height="104"
       width="104"
       id="rect6964"
       style="fill:url(#radialGradient7116);fill-opacity:1;stroke:#1a1a1a" />
    <text
       xml:space="preserve"
       style="font-size:24px;font-style:normal;font-weight:normal;line-height:125%;letter-spacing:0px;word-spacing:0px;fill:#000000;fill-opacity:1;stroke:none;font-family:Sans"
       x="-56"
       y="948.36218"
       id="text5893"
       sodipodi:linespacing="125%"><tspan
         sodipodi:role="line"
         id="tspan5895"
         x="-56"
         y="948.36218">128</tspan></text>
    <text
       sodipodi:linespacing="125%"
       id="text5901"
       y="1000.3622"
       x="184"
       style="font-size:16px;font-style:normal;font-weight:normal;line-height:125%;letter-spacing:0px;word-spacing:0px;fill:#000000;fill-opacity:1;stroke:none;font-family:Sans"
       xml:space="preserve"><tspan
         y="1000.3622"
         x="184"
         id="tspan5903"
         sodipodi:role="line">31 - 17</tspan></text>
    <text
       xml:space="preserve"
       style="font-size:16px;font-style:normal;font-weight:normal;line-height:125%;letter-spacing:0px;word-spacing:0px;fill:#000000;fill-opacity:1;stroke:none;font-family:Sans"
       x="172"
       y="1048.3622"
       id="text5905"
       sodipodi:linespacing="125%"><tspan
         sodipodi:role="line"
         id="tspan5907"
         x="172"
         y="1048.3622">16</tspan></text>
    <rect
       style="fill:none;stroke:#000000;stroke-width:1;stroke-linecap:round;stroke-linejoin:round;stroke-miterlimit:4;stroke-opacity:1;stroke-dasharray:none;stroke-dashoffset:0"
       id="rect5919"
       width="40"
       height="40"
       x="140"
       y="60"
       transform="translate(0,924.36218)"
       rx="4.5902016e-07" />
    <rect
       style="fill:none;stroke:#000000;stroke-width:1;stroke-linecap:round;stroke-linejoin:round;stroke-miterlimit:4;stroke-opacity:1;stroke-dasharray:none;stroke-dashoffset:0"
       id="rect5921"
       width="24"
       height="24"
       x="140"
       y="1032.3622"
       rx="4.5902016e-07" />
    <rect
       style="fill:#b3b3b3;fill-opacity:1;stroke:none"
       id="rect6935"
       width="32"
       height="4"
       x="144"
       y="56"
       transform="translate(0,924.36218)"
       rx="4.5902016e-07" />
    <rect
       style="fill:#b3b3b3;fill-opacity:1;stroke:none"
       id="rect6937"
       width="4"
       height="32"
       x="136"
       y="64"
       transform="translate(0,924.36218)"
       rx="4.5902016e-07" />
    <rect
       style="fill:#b3b3b3;fill-opacity:1;stroke:none"
       id="rect6939"
       width="16"
       height="4"
       x="144"
       y="104"
       rx="4.5902016e-07"
       transform="translate(0,924.36218)" />
    <rect
       style="fill:#b3b3b3;fill-opacity:1;stroke:none"
       id="rect6941"
       width="4"
       height="16"
       x="136"
       y="112"
       transform="translate(0,924.36218)"
       rx="4.5902016e-07" />
    <rect
       style="fill:url(#radialGradient7116);fill-opacity:1;stroke:#1a1a1a"
       id="rect12711"
       width="104"
       height="104"
       x="12"
       y="934.36218"
       rx="8"
       ry="8" />
    <text
       sodipodi:linespacing="125%"
       id="text3841"
       y="1096.3622"
       x="-56"
       style="font-size:24px;font-style:normal;font-weight:normal;line-height:125%;letter-spacing:0px;word-spacing:0px;fill:#000000;fill-opacity:1;stroke:none;font-family:Sans"
       xml:space="preserve"><tspan
         y="1096.3622"
         x="-56"
         id="tspan3843"
         sodipodi:role="line">128</tspan></text>
    <text
       xml:space="preserve"
       style="font-size:16px;font-style:normal;font-weight:normal;line-height:125%;letter-spacing:0px;word-spacing:0px;fill:#000000;fill-opacity:1;stroke:none;font-family:Sans"
       x="184"
       y="1148.3622"
       id="text3845"
       sodipodi:linespacing="125%"><tspan
         sodipodi:role="line"
         id="tspan3847"
         x="184"
         y="1148.3622">31 - 17</tspan></text>
    <text
       sodipodi:linespacing="125%"
       id="text3849"
       y="1196.3622"
       x="172"
       style="font-size:16px;font-style:normal;font-weight:normal;line-height:125%;letter-spacing:0px;word-spacing:0px;fill:#000000;fill-opacity:1;stroke:none;font-family:Sans"
       xml:space="preserve"><tspan
         y="1196.3622"
         x="172"
         id="tspan3851"
         sodipodi:role="line">16</tspan></text>
    <rect
       rx="4.5902016e-07"
       y="1132.3622"
       x="140"
       height="40"
       width="40"
       id="rect3853"
       style="fill:none;stroke:#000000;stroke-width:1;stroke-linecap:round;stroke-linejoin:round;stroke-miterlimit:4;stroke-opacity:1;stroke-dasharray:none;stroke-dashoffset:0" />
    <rect
       rx="4.5902016e-07"
       y="1180.3622"
       x="140"
       height="24"
       width="24"
       id="rect3855"
       style="fill:none;stroke:#000000;stroke-width:1;stroke-linecap:round;stroke-linejoin:round;stroke-miterlimit:4;stroke-opacity:1;stroke-dasharray:none;stroke-dashoffset:0" />
    <rect
       rx="4.5902016e-07"
       y="1128.3622"
       x="144"
       height="4"
       width="32"
       id="rect3857"
       style="fill:#b3b3b3;fill-opacity:1;stroke:none" />
    <rect
       rx="4.5902016e-07"
       y="1136.3622"
       x="136"
       height="32"
       width="4"
       id="rect3859"
       style="fill:#b3b3b3;fill-opacity:1;stroke:none" />
    <rect
       rx="4.5902016e-07"
       y="1176.3622"
       x="144"
       height="4"
       width="16"
       id="rect3861"
       style="fill:#b3b3b3;fill-opacity:1;stroke:none" />
    <rect
       rx="4.5902016e-07"
       y="1184.3622"
       x="136"
       height="16"
       width="4"
       id="rect3863"
       style="fill:#b3b3b3;fill-opacity:1;stroke:none" />
    <rect
       style="fill:#888a85;stroke:none;stroke-width:1;stroke-linejoin:round;stroke-miterlimit:4;stroke-opacity:0.58823528999999997;stroke-dasharray:none"
       id="rect3895"
       width="128"
       height="4"
       x="0"
       y="136"
       transform="translate(0,924.36218)"
       rx="4.5902016e-07" />
    <rect
       style="fill:#888a85;fill-opacity:1;stroke:none"
       id="rect3897"
       width="4"
       height="128"
       x="-12"
       y="148"
       transform="translate(0,924.36218)"
       rx="4.5902016e-07" />
    <rect
       ry="8"
       rx="8"
       y="1084.3622"
       x="12"
       height="104"
       width="104"
       id="rect6938"
       style="fill:#000000;fill-opacity:1;stroke:none;filter:url(#filter6960)" />
    <rect
       style="fill:url(#radialGradient3995);fill-opacity:1;stroke:none"
       id="rect6936-6"
       width="104"
       height="104"
       x="12"
       y="1084.3622"
       rx="8"
       ry="8" />
    <rect
       ry="8"
       rx="8"
       y="1080.3622"
       x="12"
       height="104"
       width="104"
       id="rect6964-2"
       style="fill:#ffffff;fill-opacity:1;stroke:none" />
    <rect
       style="opacity:0.5;fill:url(#linearGradient3991);fill-opacity:1;stroke:none"
       id="rect6975"
       width="102"
       height="102"
       x="13"
       y="1081.3622"
       rx="8"
       ry="8" />
    <rect
       ry="8"
       rx="8"
       y="1081.3622"
       x="13"
       height="102"
       width="102"
       id="rect7002"
       style="opacity:0.5;fill:url(#radialGradient3988);fill-opacity:1;stroke:none" />
    <path
       inkscape:connector-curvature="0"
       style="fill:none;stroke:#000000;stroke-width:4;stroke-linejoin:round;stroke-miterlimit:4;stroke-opacity:0.19607843;stroke-dasharray:none"
       d="m 37,1096.3622 -9,9 0,54 9,9 9,-9 -4.5,0 -4.5,-4.5 0,-45 4.5,-4.5 13.5,0 0,-9 -18,0 z m 22.5,0 0,36 9,0 0,-36 -9,0 z m 13.5,0 0,9 13.5,0 4.5,4.5 0,45 -4.5,4.5 -4.5,0 9,9 9,-9 0,-54 -9,-9 -18,0 z m -18,27 -4.5,4.5 0,18 -9,9 9,0 13.5,-13.5 13.5,13.5 9,0 -9,-9 0,-18 -4.5,-4.5 0,13.5 -18,0 0,-13.5 z m 9,27 -18,18 9,0 9,-9 9,9 9,0 -18,-18 z"
       id="path3945" />
    <path
       id="path3941"
       d="m 37,1096.3622 -9,9 0,54 9,9 9,-9 -4.5,0 -4.5,-4.5 0,-45 4.5,-4.5 13.5,0 0,-9 -18,0 z m 22.5,0 0,36 9,0 0,-36 -9,0 z m 13.5,0 0,9 13.5,0 4.5,4.5 0,45 -4.5,4.5 -4.5,0 9,9 9,-9 0,-54 -9,-9 -18,0 z m -18,27 -4.5,4.5 0,18 -9,9 9,0 13.5,-13.5 13.5,13.5 9,0 -9,-9 0,-18 -4.5,-4.5 0,13.5 -18,0 0,-13.5 z m 9,27 -18,18 9,0 9,-9 9,9 9,0 -18,-18 z"
       style="fill:#555753;fill-opacity:1;stroke:none"
       inkscape:connector-curvature="0" />
    <path
       inkscape:connector-curvature="0"
       style="fill:url(#radialGradient3967);fill-opacity:1;stroke:none"
       d="m 37,1094.3622 -9,9 0,54 9,9 9,-9 -4.5,0 -4.5,-4.5 0,-45 4.5,-4.5 13.5,0 0,-9 -18,0 z m 22.5,0 0,36 9,0 0,-36 -9,0 z m 13.5,0 0,9 13.5,0 4.5,4.5 0,45 -4.5,4.5 -4.5,0 9,9 9,-9 0,-54 -9,-9 -18,0 z m -18,27 -4.5,4.5 0,18 -9,9 9,0 13.5,-13.5 13.5,13.5 9,0 -9,-9 0,-18 -4.5,-4.5 0,13.5 -18,0 0,-13.5 z m 9,27 -18,18 9,0 9,-9 9,9 9,0 -18,-18 z"
       id="path3937" />
    <path
       style="fill:url(#radialGradient3140);fill-opacity:1;stroke:none"
       d="M 146 112 L 144 114 L 144 126 L 146 128 L 148 126 L 147 126 L 146 125 L 146 115 L 147 114 L 150 114 L 150 112 L 146 112 z M 151 112 L 151 120 L 153 120 L 153 112 L 151 112 z M 154 112 L 154 114 L 157 114 L 158 115 L 158 125 L 157 126 L 156 126 L 158 128 L 160 126 L 160 114 L 158 112 L 154 112 z M 150 118 L 149 119 L 149 123 L 147 125 L 149 125 L 152 122 L 155 125 L 157 125 L 155 123 L 155 119 L 154 118 L 154 121 L 150 121 L 150 118 z M 152 124 L 148 128 L 150 128 L 152 126 L 154 128 L 156 128 L 152 124 z "
       transform="translate(0,924.36218)"
       id="path5863" />
    <g
       id="g3921">
      <path
         id="path3147"
         d="m 37,950.36218 -9,9 0,54.00002 9,9 9,-9 -4.5,0 -4.5,-4.5 0,-45.00002 4.5,-4.5 13.5,0 0,-9 -18,0 z m 22.5,0 0,36 9,0 0,-36 -9,0 z m 13.5,0 0,9 13.5,0 4.5,4.5 0,45.00002 -4.5,4.5 -4.5,0 9,9 9,-9 0,-54.00002 -9,-9 -18,0 z m -18,27 -4.5,4.5 0,18 -9,9.00002 9,0 13.5,-13.50002 13.5,13.50002 9,0 -9,-9.00002 0,-18 -4.5,-4.5 0,13.5 -18,0 0,-13.5 z m 9,27.00002 -18,18 9,0 9,-9 9,9 9,0 -18,-18 z"
         style="fill:#000000;fill-opacity:1;stroke:none;filter:url(#filter3917)"
         inkscape:connector-curvature="0" />
      <path
         inkscape:connector-curvature="0"
         style="fill:url(#radialGradient3145);fill-opacity:1;stroke:#ffffff;stroke-opacity:0.31372549999999999;stroke-width:2;stroke-miterlimit:4;stroke-dasharray:none"
         d="m 37,950.36218 -9,9 0,54.00002 9,9 9,-9 -4.5,0 -4.5,-4.5 0,-45.00002 4.5,-4.5 13.5,0 0,-9 -18,0 z m 22.5,0 0,36 9,0 0,-36 -9,0 z m 13.5,0 0,9 13.5,0 4.5,4.5 0,45.00002 -4.5,4.5 -4.5,0 9,9 9,-9 0,-54.00002 -9,-9 -18,0 z m -18,27 -4.5,4.5 0,18 -9,9.00002 9,0 13.5,-13.50002 13.5,13.50002 9,0 -9,-9.00002 0,-18 -4.5,-4.5 0,13.5 -18,0 0,-13.5 z m 9,27.00002 -18,18 9,0 9,-9 9,9 9,0 -18,-18 z"
         id="path3143" />
    </g>
    <g
       id="g3925"
       transform="matrix(0.35842285,0,0,0.35842285,137.06094,650.82743)">
      <path
         inkscape:connector-curvature="0"
         style="fill:#000000;fill-opacity:1;stroke:none;filter:url(#filter3917)"
         d="m 37,950.36218 -9,9 0,54.00002 9,9 9,-9 -4.5,0 -4.5,-4.5 0,-45.00002 4.5,-4.5 13.5,0 0,-9 -18,0 z m 22.5,0 0,36 9,0 0,-36 -9,0 z m 13.5,0 0,9 13.5,0 4.5,4.5 0,45.00002 -4.5,4.5 -4.5,0 9,9 9,-9 0,-54.00002 -9,-9 -18,0 z m -18,27 -4.5,4.5 0,18 -9,9.00002 9,0 13.5,-13.50002 13.5,13.50002 9,0 -9,-9.00002 0,-18 -4.5,-4.5 0,13.5 -18,0 0,-13.5 z m 9,27.00002 -18,18 9,0 9,-9 9,9 9,0 -18,-18 z"
         id="path3927" />
      <path
         id="path3929"
         d="m 37,950.36218 -9,9 0,54.00002 9,9 9,-9 -4.5,0 -4.5,-4.5 0,-45.00002 4.5,-4.5 13.5,0 0,-9 -18,0 z m 22.5,0 0,36 9,0 0,-36 -9,0 z m 13.5,0 0,9 13.5,0 4.5,4.5 0,45.00002 -4.5,4.5 -4.5,0 9,9 9,-9 0,-54.00002 -9,-9 -18,0 z m -18,27 -4.5,4.5 0,18 -9,9.00002 9,0 13.5,-13.50002 13.5,13.50002 9,0 -9,-9.00002 0,-18 -4.5,-4.5 0,13.5 -18,0 0,-13.5 z m 9,27.00002 -18,18 9,0 9,-9 9,9 9,0 -18,-18 z"
         style="fill:url(#radialGradient3931);fill-opacity:1;stroke:#ffffff;stroke-width:2;stroke-miterlimit:4;stroke-opacity:0.31372549;stroke-dasharray:none"
         inkscape:connector-curvature="0" />
    </g>
    <path
       id="path3933"
       d="m 146,1184.3622 -2,2 0,12 2,2 2,-2 -1,0 -1,-1 0,-10 1,-1 3,0 0,-2 -4,0 z m 5,0 0,8 2,0 0,-8 -2,0 z m 3,0 0,2 3,0 1,1 0,10 -1,1 -1,0 2,2 2,-2 0,-12 -2,-2 -4,0 z m -4,6 -1,1 0,4 -2,2 2,0 3,-3 3,3 2,0 -2,-2 0,-4 -1,-1 0,3 -4,0 0,-3 z m 2,6 -4,4 2,0 2,-2 2,2 2,0 -4,-4 z"
       style="fill:url(#radialGradient3935);fill-opacity:1.0;stroke:none"
       inkscape:connector-curvature="0" />
    <path
       id="path3958"
       d="m 149.3421,1138.1517 -3.55263,3.5526 0,21.3158 3.55263,3.5526 3.55263,-3.5526 -1.77631,0 -1.77632,-1.7763 0,-17.7632 1.77632,-1.7763 5.32895,0 0,-3.5526 -7.10527,0 z m 8.88158,0 0,14.2105 3.55263,0 0,-14.2105 -3.55263,0 z m 5.32895,0 0,3.5526 5.32895,0 1.77631,1.7763 0,17.7632 -1.77631,1.7763 -1.77632,0 3.55263,3.5526 3.55263,-3.5526 0,-21.3158 -3.55263,-3.5526 -7.10526,0 z m -7.10526,10.6579 -1.77632,1.7763 0,7.1052 -3.55263,3.5527 3.55263,0 5.32895,-5.329 5.32895,5.329 3.55263,0 -3.55263,-3.5527 0,-7.1052 -1.77632,-1.7763 0,5.3289 -7.10526,0 0,-5.3289 z m 3.55263,10.6578 -7.10527,7.1053 3.55264,0 3.55263,-3.5526 3.55263,3.5526 3.55263,0 L 160,1159.4674 z"
       style="fill:none;stroke:#000000;stroke-width:1.57894731;stroke-linejoin:round;stroke-miterlimit:4;stroke-opacity:0.19607843;stroke-dasharray:none"
       inkscape:connector-curvature="0" />
    <path
       inkscape:connector-curvature="0"
       style="fill:#555753;fill-opacity:1;stroke:none"
       d="m 149.3421,1138.1517 -3.55263,3.5526 0,21.3158 3.55263,3.5526 3.55263,-3.5526 -1.77631,0 -1.77632,-1.7763 0,-17.7632 1.77632,-1.7763 5.32895,0 0,-3.5526 -7.10527,0 z m 8.88158,0 0,14.2105 3.55263,0 0,-14.2105 -3.55263,0 z m 5.32895,0 0,3.5526 5.32895,0 1.77631,1.7763 0,17.7632 -1.77631,1.7763 -1.77632,0 3.55263,3.5526 3.55263,-3.5526 0,-21.3158 -3.55263,-3.5526 -7.10526,0 z m -7.10526,10.6579 -1.77632,1.7763 0,7.1052 -3.55263,3.5527 3.55263,0 5.32895,-5.329 5.32895,5.329 3.55263,0 -3.55263,-3.5527 0,-7.1052 -1.77632,-1.7763 0,5.3289 -7.10526,0 0,-5.3289 z m 3.55263,10.6578 -7.10527,7.1053 3.55264,0 3.55263,-3.5526 3.55263,3.5526 3.55263,0 L 160,1159.4674 z"
       id="path3954" />
    <path
       id="path3956"
       d="m 149.3421,1137.3622 -3.55263,3.5526 0,21.3158 3.55263,3.5526 3.55263,-3.5526 -1.77631,0 -1.77632,-1.7763 0,-17.7632 1.77632,-1.7763 5.32895,0 0,-3.5526 -7.10527,0 z m 8.88158,0 0,14.2105 3.55263,0 0,-14.2105 -3.55263,0 z m 5.32895,0 0,3.5526 5.32895,0 1.77631,1.7763 0,17.7632 -1.77631,1.7763 -1.77632,0 3.55263,3.5526 3.55263,-3.5526 0,-21.3158 -3.55263,-3.5526 -7.10526,0 z m -7.10526,10.6579 -1.77632,1.7763 0,7.1053 -3.55263,3.5526 3.55263,0 5.32895,-5.329 5.32895,5.329 3.55263,0 -3.55263,-3.5526 0,-7.1053 -1.77632,-1.7763 0,5.3289 -7.10526,0 0,-5.3289 z M 160,1158.678 l -7.10527,7.1052 3.55264,0 3.55263,-3.5526 3.55263,3.5526 3.55263,0 L 160,1158.678 z"
       style="fill:url(#radialGradient3972);fill-opacity:1;stroke:none"
       inkscape:connector-curvature="0" />
  </g>
</svg>
