<?xml version="1.0" encoding="UTF-8" standalone="no"?>
<!-- Created with Inkscape (http://www.inkscape.org/) -->

<svg
   xmlns:dc="http://purl.org/dc/elements/1.1/"
   xmlns:cc="http://creativecommons.org/ns#"
   xmlns:rdf="http://www.w3.org/1999/02/22-rdf-syntax-ns#"
   xmlns:svg="http://www.w3.org/2000/svg"
   xmlns="http://www.w3.org/2000/svg"
   xmlns:xlink="http://www.w3.org/1999/xlink"
   xmlns:sodipodi="http://sodipodi.sourceforge.net/DTD/sodipodi-0.dtd"
   xmlns:inkscape="http://www.inkscape.org/namespaces/inkscape"
   sodipodi:docname="windows-close.svg"
   inkscape:version="0.48.4 r9939"
   version="1.1"
   id="svg2"
   height="128"
   width="128">
  <sodipodi:namedview
     id="base"
     pagecolor="#ffffff"
     bordercolor="#666666"
     borderopacity="1.0"
     inkscape:pageopacity="0.0"
     inkscape:pageshadow="2"
     inkscape:zoom="3.6203868"
     inkscape:cx="134.20781"
     inkscape:cy="29.690319"
     inkscape:document-units="px"
     inkscape:current-layer="layer1"
     showgrid="true"
     showguides="true"
     inkscape:guide-bbox="true"
     inkscape:window-width="1221"
     inkscape:window-height="1000"
     inkscape:window-x="59"
     inkscape:window-y="24"
     inkscape:window-maximized="1">
    <inkscape:grid
       snapvisiblegridlinesonly="true"
       enabled="true"
       visible="true"
       empspacing="4"
       id="grid2985"
       type="xygrid" />
  </sodipodi:namedview>
  <defs
     id="defs4">
    <linearGradient
       id="linearGradient7110">
      <stop
         style="stop-color:#5a5a5a;stop-opacity:1;"
         offset="0"
         id="stop7112" />
      <stop
         style="stop-color:#202020;stop-opacity:1;"
         offset="1"
         id="stop7114" />
    </linearGradient>
    <linearGradient
       id="linearGradient4216-4-8-2">
      <stop
         id="stop4218-8-0-7"
         offset="0"
         style="stop-color:#494949;stop-opacity:1;" />
      <stop
         id="stop4220-1-6-4"
         offset="1"
         style="stop-color:#0f0f0f;stop-opacity:1;" />
    </linearGradient>
    <radialGradient
       inkscape:collect="always"
       xlink:href="#linearGradient4216-4-8-2"
       id="radialGradient5899"
       gradientUnits="userSpaceOnUse"
       gradientTransform="translate(0,2)"
       cx="64"
       cy="1020.3622"
       fx="64"
       fy="1020.3622"
       r="52" />
    <radialGradient
       inkscape:collect="always"
       xlink:href="#linearGradient7110"
       id="radialGradient7116"
       cx="80"
       cy="972.36218"
       fx="80"
       fy="972.36218"
       r="52.5"
       gradientUnits="userSpaceOnUse" />
    <linearGradient
       id="linearGradient8794-33">
      <stop
         style="stop-color:#ffffff;stop-opacity:1;"
         offset="0"
         id="stop8796-9" />
      <stop
         style="stop-color:#cacaca;stop-opacity:1;"
         offset="1"
         id="stop8798-6" />
    </linearGradient>
    <radialGradient
       inkscape:collect="always"
       xlink:href="#linearGradient8794-33"
       id="radialGradient4305"
       cx="154.00002"
       cy="1046.1122"
       fx="154.00002"
       fy="1046.1122"
       r="7"
       gradientTransform="matrix(-1.6312602e-5,1.4285802,-1.4285787,-1.6312585e-5,1648.4561,826.37783)"
       gradientUnits="userSpaceOnUse" />
    <radialGradient
       inkscape:collect="always"
       xlink:href="#linearGradient8794-33"
       id="radialGradient4317"
       gradientUnits="userSpaceOnUse"
       gradientTransform="matrix(-1.6312602e-5,1.4285802,-1.4285787,-1.6312585e-5,1648.4561,826.37783)"
       cx="154.00002"
       cy="1046.1122"
       fx="154.00002"
       fy="1046.1122"
       r="7" />
    <filter
       inkscape:collect="always"
       id="filter4325"
       x="-0.1125"
       width="1.225"
       y="-0.12857143"
       height="1.2571429">
      <feGaussianBlur
         inkscape:collect="always"
         stdDeviation="0.75"
         id="feGaussianBlur4327" />
    </filter>
    <radialGradient
       inkscape:collect="always"
       xlink:href="#linearGradient8794-33"
       id="radialGradient4355"
       gradientUnits="userSpaceOnUse"
       gradientTransform="matrix(-1.6312602e-5,1.4285802,-1.4285787,-1.6312585e-5,1648.4561,826.37783)"
       cx="154.00002"
       cy="1046.1122"
       fx="154.00002"
       fy="1046.1122"
       r="7" />
    <radialGradient
       inkscape:collect="always"
       xlink:href="#linearGradient8794-33"
       id="radialGradient5526"
       cx="80"
       cy="970.07642"
       fx="80"
       fy="970.07642"
       r="64"
       gradientTransform="matrix(1.2500001,5.3481301e-7,-5.3481281e-7,1.2499996,-19.999491,-240.23307)"
       gradientUnits="userSpaceOnUse" />
    <radialGradient
       inkscape:collect="always"
       xlink:href="#linearGradient8794-33"
       id="radialGradient6101"
       cx="154"
       cy="118"
       fx="154"
       fy="118"
       r="8"
       gradientUnits="userSpaceOnUse"
       gradientTransform="matrix(1.25,0,0,1.25,-38.5,-29.5)" />
    <radialGradient
       inkscape:collect="always"
       xlink:href="#linearGradient8794-33"
       id="radialGradient6105"
       gradientUnits="userSpaceOnUse"
       gradientTransform="matrix(6.4285714,0,0,6.4285714,-915.71429,217.50502)"
       cx="154"
       cy="118"
       fx="154"
       fy="118"
       r="8" />
    <filter
       inkscape:collect="always"
       id="filter6109"
       x="-0.12000002"
       width="1.24"
       y="-0.11999998"
       height="1.24">
      <feGaussianBlur
         inkscape:collect="always"
         stdDeviation="3.6000005"
         id="feGaussianBlur6111" />
    </filter>
    <radialGradient
       inkscape:collect="always"
       xlink:href="#linearGradient8794-33"
       id="radialGradient6123"
       gradientUnits="userSpaceOnUse"
       gradientTransform="matrix(6.4285714,0,0,6.4285714,-915.71429,217.50502)"
       cx="154"
       cy="118"
       fx="154"
       fy="118"
       r="8" />
    <radialGradient
       inkscape:collect="always"
       xlink:href="#linearGradient8794-33"
       id="radialGradient6182"
       cx="154"
       cy="117.83334"
       fx="154"
       fy="117.83334"
       r="8"
       gradientTransform="matrix(1.25,-1.0227079e-7,1.0227088e-7,1.2500012,-38.500015,-29.291795)"
       gradientUnits="userSpaceOnUse" />
    <radialGradient
       inkscape:collect="always"
       xlink:href="#linearGradient8794-33"
       id="radialGradient6186"
       gradientUnits="userSpaceOnUse"
       gradientTransform="matrix(5.625,-4.6021855e-7,4.6021896e-7,5.6250054,-793.25007,312.29908)"
       cx="154"
       cy="117.83334"
       fx="154"
       fy="117.83334"
       r="8" />
    <filter
       inkscape:collect="always"
       id="filter6190"
       x="-0.11625002"
       width="1.2325"
       y="-0.12399998"
       height="1.248">
      <feGaussianBlur
         inkscape:collect="always"
         stdDeviation="3.4875005"
         id="feGaussianBlur6192" />
    </filter>
    <radialGradient
       inkscape:collect="always"
       xlink:href="#linearGradient8794-33"
       id="radialGradient6204"
       gradientUnits="userSpaceOnUse"
       gradientTransform="matrix(5.625,-4.6021855e-7,4.6021896e-7,5.6250054,-793.25007,312.29908)"
       cx="154"
       cy="117.83334"
       fx="154"
       fy="117.83334"
       r="8" />
  </defs>
  <metadata
     id="metadata7">
    <rdf:RDF>
      <cc:Work
         rdf:about="">
        <dc:format>image/svg+xml</dc:format>
        <dc:type
           rdf:resource="http://purl.org/dc/dcmitype/StillImage" />
        <dc:title></dc:title>
      </cc:Work>
    </rdf:RDF>
  </metadata>
  <g
     transform="translate(0,-924.36218)"
     id="layer1"
     inkscape:groupmode="layer"
     inkscape:label="Layer 1">
    <rect
       ry="8"
       rx="8"
       y="940.36218"
       x="12"
       height="104"
       width="104"
       id="rect6981"
       style="opacity:0.10000000000000001;fill:#000000;fill-opacity:1;stroke:#000000;stroke-width:10;stroke-miterlimit:4;stroke-dasharray:none" />
    <rect
       style="opacity:0.1;fill:#000000;fill-opacity:1;stroke:#000000;stroke-width:6;stroke-miterlimit:4;stroke-dasharray:none"
       id="rect6979"
       width="104"
       height="104"
       x="12"
       y="940.36218"
       rx="8"
       ry="8" />
    <rect
       ry="8"
       rx="8"
       y="938.36218"
       x="12"
       height="104"
       width="104"
       id="rect5969"
       style="fill:#000000;fill-opacity:1;stroke:#000000;opacity:0.20000000000000001;stroke-width:3;stroke-miterlimit:4;stroke-dasharray:none" />
    <rect
       style="fill:url(#radialGradient5899);fill-opacity:1;stroke:#1a1a1a"
       id="rect6936"
       width="104"
       height="104"
       x="12"
       y="938.36218"
       rx="8"
       ry="8" />
    <rect
       ry="8"
       rx="8"
       y="934.36218"
       x="12"
       height="104"
       width="104"
       id="rect6964"
       style="fill:url(#radialGradient7116);fill-opacity:1;stroke:#1a1a1a" />
    <text
       xml:space="preserve"
       style="font-size:24px;font-style:normal;font-weight:normal;line-height:125%;letter-spacing:0px;word-spacing:0px;fill:#000000;fill-opacity:1;stroke:none;font-family:Sans"
       x="-56"
       y="948.36218"
       id="text5893"
       sodipodi:linespacing="125%"><tspan
         sodipodi:role="line"
         id="tspan5895"
         x="-56"
         y="948.36218">128</tspan></text>
    <text
       sodipodi:linespacing="125%"
       id="text5901"
       y="1000.3622"
       x="184"
       style="font-size:16px;font-style:normal;font-weight:normal;line-height:125%;letter-spacing:0px;word-spacing:0px;fill:#000000;fill-opacity:1;stroke:none;font-family:Sans"
       xml:space="preserve"><tspan
         y="1000.3622"
         x="184"
         id="tspan5903"
         sodipodi:role="line">31 - 17</tspan></text>
    <text
       xml:space="preserve"
       style="font-size:16px;font-style:normal;font-weight:normal;line-height:125%;letter-spacing:0px;word-spacing:0px;fill:#000000;fill-opacity:1;stroke:none;font-family:Sans"
       x="172"
       y="1048.3622"
       id="text5905"
       sodipodi:linespacing="125%"><tspan
         sodipodi:role="line"
         id="tspan5907"
         x="172"
         y="1048.3622">16</tspan></text>
    <rect
       style="fill:none;stroke:#000000;stroke-width:1;stroke-linecap:round;stroke-linejoin:round;stroke-miterlimit:4;stroke-opacity:1;stroke-dasharray:none;stroke-dashoffset:0"
       id="rect5919"
       width="40"
       height="40"
       x="140"
       y="60"
       transform="translate(0,924.36218)"
       rx="4.5902016e-07" />
    <rect
       style="fill:none;stroke:#000000;stroke-width:1;stroke-linecap:round;stroke-linejoin:round;stroke-miterlimit:4;stroke-opacity:1;stroke-dasharray:none;stroke-dashoffset:0"
       id="rect5921"
       width="24"
       height="24"
       x="140"
       y="1032.3622"
       rx="4.5902016e-07" />
    <rect
       style="fill:#b3b3b3;fill-opacity:1;stroke:none"
       id="rect6935"
       width="32"
       height="4"
       x="144"
       y="56"
       transform="translate(0,924.36218)"
       rx="4.5902016e-07" />
    <rect
       style="fill:#b3b3b3;fill-opacity:1;stroke:none"
       id="rect6937"
       width="4"
       height="32"
       x="136"
       y="64"
       transform="translate(0,924.36218)"
       rx="4.5902016e-07" />
    <rect
       style="fill:#b3b3b3;fill-opacity:1;stroke:none"
       id="rect6939"
       width="16"
       height="4"
       x="144"
       y="104"
       rx="4.5902016e-07"
       transform="translate(0,924.36218)" />
    <rect
       style="fill:#b3b3b3;fill-opacity:1;stroke:none"
       id="rect6941"
       width="4"
       height="16"
       x="136"
       y="112"
       transform="translate(0,924.36218)"
       rx="4.5902016e-07" />
    <rect
       style="fill:url(#radialGradient7116);fill-opacity:1;stroke:#1a1a1a"
       id="rect12711"
       width="104"
       height="104"
       x="12"
       y="934.36218"
       rx="8"
       ry="8" />
    <path
       style="fill:url(#radialGradient6182);fill-opacity:1;stroke:none"
       d="M 146 113 C 144.892 113 144 113.892 144 115 L 144 121 L 144 125 L 144 128 L 146 128 L 158 128 L 160 128 L 160 125 L 160 121 L 160 115 C 160 113.892 159.108 113 158 113 L 146 113 z M 152 114 C 152.55228 114 153 114.44772 153 115 C 153 115.55228 152.55228 116 152 116 C 151.44772 116 151 115.55228 151 115 C 151 114.44772 151.44772 114 152 114 z M 155 114 C 155.55228 114 156 114.44772 156 115 C 156 115.55228 155.55228 116 155 116 C 154.44772 116 154 115.55228 154 115 C 154 114.44772 154.44772 114 155 114 z M 158 114 C 158.55228 114 159 114.44772 159 115 C 159 115.55228 158.55228 116 158 116 C 157.44772 116 157 115.55228 157 115 C 157 114.44772 157.44772 114 158 114 z M 145 117 L 159 117 L 159 127 L 145 127 L 145 117 z M 146 118 L 146 118.59375 L 146 125.40625 L 146 126 L 146.59375 126 L 157.40625 126 L 158 126 L 158 125.40625 L 158 118.59375 L 158 118 L 157.40625 118 L 146.59375 118 L 146 118 z M 152 119 C 152.554 119 153 119.446 153 120 L 153 121 L 154 121 C 154.554 121 155 121.446 155 122 C 155 122.554 154.554 123 154 123 L 153 123 L 153 124 C 153 124.554 152.554 125 152 125 C 151.446 125 151 124.554 151 124 L 151 123 L 150 123 C 149.446 123 149 122.554 149 122 C 149 121.446 149.446 121 150 121 L 151 121 L 151 120 C 151 119.446 151.446 119 152 119 z "
       transform="translate(0,924.36218)"
       id="rect6144" />
    <g
       id="g6194">
      <path
         id="path6188"
         d="m 37,952.61218 c -4.986,0 -9,4.014 -9,9 l 0,27 0,18.00002 0,13.5 9,0 54,0 9,0 0,-13.5 0,-18.00002 0,-27 c 0,-4.986 -4.014,-9 -9,-9 l -54,0 z m 27,4.5 c 2.48526,0 4.5,2.0147 4.5,4.5 0,2.4852 -2.01474,4.5 -4.5,4.5 -2.48526,0 -4.5,-2.0148 -4.5,-4.5 0,-2.4853 2.01474,-4.5 4.5,-4.5 z m 13.5,0 c 2.48526,0 4.5,2.0147 4.5,4.5 0,2.4852 -2.01474,4.5 -4.5,4.5 -2.48526,0 -4.5,-2.0148 -4.5,-4.5 0,-2.4853 2.01474,-4.5 4.5,-4.5 z m 13.5,0 c 2.48526,0 4.5,2.0147 4.5,4.5 0,2.4852 -2.01474,4.5 -4.5,4.5 -2.48526,0 -4.5,-2.0148 -4.5,-4.5 0,-2.4853 2.01474,-4.5 4.5,-4.5 z m -58.5,13.5 63,0 0,45.00002 -63,0 0,-45.00002 z m 4.5,4.5 0,2.6719 0,30.65622 0,2.6719 2.67188,0 48.65624,0 2.67188,0 0,-2.6719 0,-30.65622 0,-2.6719 -2.67188,0 -48.65624,0 -2.67188,0 z m 27,4.5 c 2.493,0 4.5,2.007 4.5,4.5 l 0,4.5 4.5,0 c 2.493,0 4.5,2.007 4.5,4.5 0,2.493 -2.007,4.5 -4.5,4.5 l -4.5,0 0,4.50002 c 0,2.493 -2.007,4.5 -4.5,4.5 -2.493,0 -4.5,-2.007 -4.5,-4.5 l 0,-4.50002 -4.5,0 c -2.493,0 -4.5,-2.007 -4.5,-4.5 0,-2.493 2.007,-4.5 4.5,-4.5 l 4.5,0 0,-4.5 c 0,-2.493 2.007,-4.5 4.5,-4.5 z"
         style="fill:#000000;fill-opacity:1;stroke:none;filter:url(#filter6190)"
         inkscape:connector-curvature="0" />
      <path
         inkscape:connector-curvature="0"
         style="fill:url(#radialGradient6186);fill-opacity:1;stroke:#ffffff;stroke-opacity:0.31372549999999999;stroke-width:2;stroke-miterlimit:4;stroke-dasharray:none"
         d="m 37,952.61218 c -4.986,0 -9,4.014 -9,9 l 0,27 0,18.00002 0,13.5 9,0 54,0 9,0 0,-13.5 0,-18.00002 0,-27 c 0,-4.986 -4.014,-9 -9,-9 l -54,0 z m 27,4.5 c 2.48526,0 4.5,2.0147 4.5,4.5 0,2.4852 -2.01474,4.5 -4.5,4.5 -2.48526,0 -4.5,-2.0148 -4.5,-4.5 0,-2.4853 2.01474,-4.5 4.5,-4.5 z m 13.5,0 c 2.48526,0 4.5,2.0147 4.5,4.5 0,2.4852 -2.01474,4.5 -4.5,4.5 -2.48526,0 -4.5,-2.0148 -4.5,-4.5 0,-2.4853 2.01474,-4.5 4.5,-4.5 z m 13.5,0 c 2.48526,0 4.5,2.0147 4.5,4.5 0,2.4852 -2.01474,4.5 -4.5,4.5 -2.48526,0 -4.5,-2.0148 -4.5,-4.5 0,-2.4853 2.01474,-4.5 4.5,-4.5 z m -58.5,13.5 63,0 0,45.00002 -63,0 0,-45.00002 z m 4.5,4.5 0,2.6719 0,30.65622 0,2.6719 2.67188,0 48.65624,0 2.67188,0 0,-2.6719 0,-30.65622 0,-2.6719 -2.67188,0 -48.65624,0 -2.67188,0 z m 27,4.5 c 2.493,0 4.5,2.007 4.5,4.5 l 0,4.5 4.5,0 c 2.493,0 4.5,2.007 4.5,4.5 0,2.493 -2.007,4.5 -4.5,4.5 l -4.5,0 0,4.50002 c 0,2.493 -2.007,4.5 -4.5,4.5 -2.493,0 -4.5,-2.007 -4.5,-4.5 l 0,-4.50002 -4.5,0 c -2.493,0 -4.5,-2.007 -4.5,-4.5 0,-2.493 2.007,-4.5 4.5,-4.5 l 4.5,0 0,-4.5 c 0,-2.493 2.007,-4.5 4.5,-4.5 z"
         id="path6184" />
    </g>
    <g
       id="g6198"
       transform="matrix(0.36060057,0,0,0.36060057,136.92156,648.67941)">
      <path
         inkscape:connector-curvature="0"
         style="fill:#000000;fill-opacity:1;stroke:none;filter:url(#filter6190)"
         d="m 37,952.61218 c -4.986,0 -9,4.014 -9,9 l 0,27 0,18.00002 0,13.5 9,0 54,0 9,0 0,-13.5 0,-18.00002 0,-27 c 0,-4.986 -4.014,-9 -9,-9 l -54,0 z m 27,4.5 c 2.48526,0 4.5,2.0147 4.5,4.5 0,2.4852 -2.01474,4.5 -4.5,4.5 -2.48526,0 -4.5,-2.0148 -4.5,-4.5 0,-2.4853 2.01474,-4.5 4.5,-4.5 z m 13.5,0 c 2.48526,0 4.5,2.0147 4.5,4.5 0,2.4852 -2.01474,4.5 -4.5,4.5 -2.48526,0 -4.5,-2.0148 -4.5,-4.5 0,-2.4853 2.01474,-4.5 4.5,-4.5 z m 13.5,0 c 2.48526,0 4.5,2.0147 4.5,4.5 0,2.4852 -2.01474,4.5 -4.5,4.5 -2.48526,0 -4.5,-2.0148 -4.5,-4.5 0,-2.4853 2.01474,-4.5 4.5,-4.5 z m -58.5,13.5 63,0 0,45.00002 -63,0 0,-45.00002 z m 4.5,4.5 0,2.6719 0,30.65622 0,2.6719 2.67188,0 48.65624,0 2.67188,0 0,-2.6719 0,-30.65622 0,-2.6719 -2.67188,0 -48.65624,0 -2.67188,0 z m 27,4.5 c 2.493,0 4.5,2.007 4.5,4.5 l 0,4.5 4.5,0 c 2.493,0 4.5,2.007 4.5,4.5 0,2.493 -2.007,4.5 -4.5,4.5 l -4.5,0 0,4.50002 c 0,2.493 -2.007,4.5 -4.5,4.5 -2.493,0 -4.5,-2.007 -4.5,-4.5 l 0,-4.50002 -4.5,0 c -2.493,0 -4.5,-2.007 -4.5,-4.5 0,-2.493 2.007,-4.5 4.5,-4.5 l 4.5,0 0,-4.5 c 0,-2.493 2.007,-4.5 4.5,-4.5 z"
         id="path6200" />
      <path
         id="path6202"
         d="m 37,952.61218 c -4.986,0 -9,4.014 -9,9 l 0,27 0,18.00002 0,13.5 9,0 54,0 9,0 0,-13.5 0,-18.00002 0,-27 c 0,-4.986 -4.014,-9 -9,-9 l -54,0 z m 27,4.5 c 2.48526,0 4.5,2.0147 4.5,4.5 0,2.4852 -2.01474,4.5 -4.5,4.5 -2.48526,0 -4.5,-2.0148 -4.5,-4.5 0,-2.4853 2.01474,-4.5 4.5,-4.5 z m 13.5,0 c 2.48526,0 4.5,2.0147 4.5,4.5 0,2.4852 -2.01474,4.5 -4.5,4.5 -2.48526,0 -4.5,-2.0148 -4.5,-4.5 0,-2.4853 2.01474,-4.5 4.5,-4.5 z m 13.5,0 c 2.48526,0 4.5,2.0147 4.5,4.5 0,2.4852 -2.01474,4.5 -4.5,4.5 -2.48526,0 -4.5,-2.0148 -4.5,-4.5 0,-2.4853 2.01474,-4.5 4.5,-4.5 z m -58.5,13.5 63,0 0,45.00002 -63,0 0,-45.00002 z m 4.5,4.5 0,2.6719 0,30.65622 0,2.6719 2.67188,0 48.65624,0 2.67188,0 0,-2.6719 0,-30.65622 0,-2.6719 -2.67188,0 -48.65624,0 -2.67188,0 z m 27,4.5 c 2.493,0 4.5,2.007 4.5,4.5 l 0,4.5 4.5,0 c 2.493,0 4.5,2.007 4.5,4.5 0,2.493 -2.007,4.5 -4.5,4.5 l -4.5,0 0,4.50002 c 0,2.493 -2.007,4.5 -4.5,4.5 -2.493,0 -4.5,-2.007 -4.5,-4.5 l 0,-4.50002 -4.5,0 c -2.493,0 -4.5,-2.007 -4.5,-4.5 0,-2.493 2.007,-4.5 4.5,-4.5 l 4.5,0 0,-4.5 c 0,-2.493 2.007,-4.5 4.5,-4.5 z"
         style="fill:url(#radialGradient6204);fill-opacity:1;stroke:#ffffff;stroke-width:2;stroke-miterlimit:4;stroke-opacity:0.31372549;stroke-dasharray:none"
         inkscape:connector-curvature="0" />
    </g>
  </g>
</svg>
