<?xml version="1.0" encoding="UTF-8" standalone="no"?>
<!-- Created with Inkscape (http://www.inkscape.org/) -->

<svg
   xmlns:dc="http://purl.org/dc/elements/1.1/"
   xmlns:cc="http://creativecommons.org/ns#"
   xmlns:rdf="http://www.w3.org/1999/02/22-rdf-syntax-ns#"
   xmlns:svg="http://www.w3.org/2000/svg"
   xmlns="http://www.w3.org/2000/svg"
   xmlns:xlink="http://www.w3.org/1999/xlink"
   xmlns:sodipodi="http://sodipodi.sourceforge.net/DTD/sodipodi-0.dtd"
   xmlns:inkscape="http://www.inkscape.org/namespaces/inkscape"
   sodipodi:docname="windows-new.svg"
   inkscape:version="0.48.4 r9939"
   version="1.1"
   id="svg2"
   height="128"
   width="128">
  <sodipodi:namedview
     id="base"
     pagecolor="#ffffff"
     bordercolor="#666666"
     borderopacity="1.0"
     inkscape:pageopacity="0.0"
     inkscape:pageshadow="2"
     inkscape:zoom="1.8101934"
     inkscape:cx="289.83285"
     inkscape:cy="-22.380357"
     inkscape:document-units="px"
     inkscape:current-layer="layer1"
     showgrid="true"
     showguides="true"
     inkscape:guide-bbox="true"
     inkscape:window-width="1221"
     inkscape:window-height="1000"
     inkscape:window-x="59"
     inkscape:window-y="24"
     inkscape:window-maximized="1">
    <inkscape:grid
       snapvisiblegridlinesonly="true"
       enabled="true"
       visible="true"
       empspacing="4"
       id="grid2985"
       type="xygrid" />
  </sodipodi:namedview>
  <defs
     id="defs4">
    <linearGradient
       id="linearGradient7110">
      <stop
         style="stop-color:#5a5a5a;stop-opacity:1;"
         offset="0"
         id="stop7112" />
      <stop
         style="stop-color:#202020;stop-opacity:1;"
         offset="1"
         id="stop7114" />
    </linearGradient>
    <linearGradient
       id="linearGradient4216-4-8-2">
      <stop
         id="stop4218-8-0-7"
         offset="0"
         style="stop-color:#494949;stop-opacity:1;" />
      <stop
         id="stop4220-1-6-4"
         offset="1"
         style="stop-color:#0f0f0f;stop-opacity:1;" />
    </linearGradient>
    <radialGradient
       inkscape:collect="always"
       xlink:href="#linearGradient4216-4-8-2"
       id="radialGradient5899"
       gradientUnits="userSpaceOnUse"
       gradientTransform="translate(0,2)"
       cx="64"
       cy="1020.3622"
       fx="64"
       fy="1020.3622"
       r="52" />
    <radialGradient
       inkscape:collect="always"
       xlink:href="#linearGradient7110"
       id="radialGradient7116"
       cx="80"
       cy="972.36218"
       fx="80"
       fy="972.36218"
       r="52.5"
       gradientUnits="userSpaceOnUse" />
    <linearGradient
       id="linearGradient8794-33">
      <stop
         style="stop-color:#ffffff;stop-opacity:1;"
         offset="0"
         id="stop8796-9" />
      <stop
         style="stop-color:#cacaca;stop-opacity:1;"
         offset="1"
         id="stop8798-6" />
    </linearGradient>
    <radialGradient
       inkscape:collect="always"
       xlink:href="#linearGradient8794-33"
       id="radialGradient4305"
       cx="154.00002"
       cy="1046.1122"
       fx="154.00002"
       fy="1046.1122"
       r="7"
       gradientTransform="matrix(-1.6312602e-5,1.4285802,-1.4285787,-1.6312585e-5,1648.4561,826.37783)"
       gradientUnits="userSpaceOnUse" />
    <radialGradient
       inkscape:collect="always"
       xlink:href="#linearGradient8794-33"
       id="radialGradient4317"
       gradientUnits="userSpaceOnUse"
       gradientTransform="matrix(-1.6312602e-5,1.4285802,-1.4285787,-1.6312585e-5,1648.4561,826.37783)"
       cx="154.00002"
       cy="1046.1122"
       fx="154.00002"
       fy="1046.1122"
       r="7" />
    <filter
       inkscape:collect="always"
       id="filter4325"
       x="-0.1125"
       width="1.225"
       y="-0.12857143"
       height="1.2571429">
      <feGaussianBlur
         inkscape:collect="always"
         stdDeviation="0.75"
         id="feGaussianBlur4327" />
    </filter>
    <radialGradient
       inkscape:collect="always"
       xlink:href="#linearGradient8794-33"
       id="radialGradient4355"
       gradientUnits="userSpaceOnUse"
       gradientTransform="matrix(-1.6312602e-5,1.4285802,-1.4285787,-1.6312585e-5,1648.4561,826.37783)"
       cx="154.00002"
       cy="1046.1122"
       fx="154.00002"
       fy="1046.1122"
       r="7" />
    <radialGradient
       inkscape:collect="always"
       xlink:href="#linearGradient8794-33"
       id="radialGradient5526"
       cx="80"
       cy="970.07642"
       fx="80"
       fy="970.07642"
       r="64"
       gradientTransform="matrix(1.2500001,5.3481301e-7,-5.3481281e-7,1.2499996,-19.999491,-240.23307)"
       gradientUnits="userSpaceOnUse" />
    <radialGradient
       inkscape:collect="always"
       xlink:href="#linearGradient8794-33"
       id="radialGradient6182"
       cx="154"
       cy="117.83334"
       fx="154"
       fy="117.83334"
       r="8"
       gradientTransform="matrix(1.25,-1.0227079e-7,1.0227088e-7,1.2500012,-38.500015,-29.291795)"
       gradientUnits="userSpaceOnUse" />
    <radialGradient
       inkscape:collect="always"
       xlink:href="#linearGradient8794-33"
       id="radialGradient6186"
       gradientUnits="userSpaceOnUse"
       gradientTransform="matrix(5.625,-4.6021855e-7,4.6021896e-7,5.6250054,-793.25007,312.29908)"
       cx="154"
       cy="117.83334"
       fx="154"
       fy="117.83334"
       r="8" />
    <filter
       inkscape:collect="always"
       id="filter6190"
       x="-0.11625002"
       width="1.2325"
       y="-0.12399998"
       height="1.248">
      <feGaussianBlur
         inkscape:collect="always"
         stdDeviation="3.4875005"
         id="feGaussianBlur6192" />
    </filter>
    <radialGradient
       inkscape:collect="always"
       xlink:href="#linearGradient8794-33"
       id="radialGradient6204"
       gradientUnits="userSpaceOnUse"
       gradientTransform="matrix(5.625,-4.6021855e-7,4.6021896e-7,5.6250054,-793.25007,312.29908)"
       cx="154"
       cy="117.83334"
       fx="154"
       fy="117.83334"
       r="8" />
    <radialGradient
       inkscape:collect="always"
       xlink:href="#linearGradient8794-33"
       id="radialGradient6238"
       cx="154"
       cy="1042.3622"
       fx="154"
       fy="1042.3622"
       r="7.9998708"
       gradientTransform="matrix(1.2500213,1.5724107e-6,-1.5724e-6,1.2500127,-38.501638,-260.6041)"
       gradientUnits="userSpaceOnUse" />
    <radialGradient
       inkscape:collect="always"
       xlink:href="#linearGradient8794-33"
       id="radialGradient6242"
       gradientUnits="userSpaceOnUse"
       gradientTransform="matrix(5.6251865,7.0759622e-6,-7.075914e-6,5.6251478,-793.27057,-4886.0611)"
       cx="154"
       cy="1042.3622"
       fx="154"
       fy="1042.3622"
       r="7.9998708" />
    <filter
       inkscape:collect="always"
       id="filter6246"
       x="-0.12000167"
       width="1.2400033"
       y="-0.11999833"
       height="1.2399967">
      <feGaussianBlur
         inkscape:collect="always"
         stdDeviation="3.6000562"
         id="feGaussianBlur6248" />
    </filter>
    <radialGradient
       inkscape:collect="always"
       xlink:href="#linearGradient8794-33"
       id="radialGradient6260"
       gradientUnits="userSpaceOnUse"
       gradientTransform="matrix(5.6251865,7.0759622e-6,-7.075914e-6,5.6251478,-793.27057,-4886.0611)"
       cx="154"
       cy="1042.3622"
       fx="154"
       fy="1042.3622"
       r="7.9998708" />
  </defs>
  <metadata
     id="metadata7">
    <rdf:RDF>
      <cc:Work
         rdf:about="">
        <dc:format>image/svg+xml</dc:format>
        <dc:type
           rdf:resource="http://purl.org/dc/dcmitype/StillImage" />
        <dc:title></dc:title>
      </cc:Work>
    </rdf:RDF>
  </metadata>
  <g
     transform="translate(0,-924.36218)"
     id="layer1"
     inkscape:groupmode="layer"
     inkscape:label="Layer 1">
    <rect
       ry="8"
       rx="8"
       y="940.36218"
       x="12"
       height="104"
       width="104"
       id="rect6981"
       style="opacity:0.10000000000000001;fill:#000000;fill-opacity:1;stroke:#000000;stroke-width:10;stroke-miterlimit:4;stroke-dasharray:none" />
    <rect
       style="opacity:0.1;fill:#000000;fill-opacity:1;stroke:#000000;stroke-width:6;stroke-miterlimit:4;stroke-dasharray:none"
       id="rect6979"
       width="104"
       height="104"
       x="12"
       y="940.36218"
       rx="8"
       ry="8" />
    <rect
       ry="8"
       rx="8"
       y="938.36218"
       x="12"
       height="104"
       width="104"
       id="rect5969"
       style="fill:#000000;fill-opacity:1;stroke:#000000;opacity:0.20000000000000001;stroke-width:3;stroke-miterlimit:4;stroke-dasharray:none" />
    <rect
       style="fill:url(#radialGradient5899);fill-opacity:1;stroke:#1a1a1a"
       id="rect6936"
       width="104"
       height="104"
       x="12"
       y="938.36218"
       rx="8"
       ry="8" />
    <rect
       ry="8"
       rx="8"
       y="934.36218"
       x="12"
       height="104"
       width="104"
       id="rect6964"
       style="fill:url(#radialGradient7116);fill-opacity:1;stroke:#1a1a1a" />
    <text
       xml:space="preserve"
       style="font-size:24px;font-style:normal;font-weight:normal;line-height:125%;letter-spacing:0px;word-spacing:0px;fill:#000000;fill-opacity:1;stroke:none;font-family:Sans"
       x="-56"
       y="948.36218"
       id="text5893"
       sodipodi:linespacing="125%"><tspan
         sodipodi:role="line"
         id="tspan5895"
         x="-56"
         y="948.36218">128</tspan></text>
    <text
       sodipodi:linespacing="125%"
       id="text5901"
       y="1000.3622"
       x="184"
       style="font-size:16px;font-style:normal;font-weight:normal;line-height:125%;letter-spacing:0px;word-spacing:0px;fill:#000000;fill-opacity:1;stroke:none;font-family:Sans"
       xml:space="preserve"><tspan
         y="1000.3622"
         x="184"
         id="tspan5903"
         sodipodi:role="line">31 - 17</tspan></text>
    <text
       xml:space="preserve"
       style="font-size:16px;font-style:normal;font-weight:normal;line-height:125%;letter-spacing:0px;word-spacing:0px;fill:#000000;fill-opacity:1;stroke:none;font-family:Sans"
       x="172"
       y="1048.3622"
       id="text5905"
       sodipodi:linespacing="125%"><tspan
         sodipodi:role="line"
         id="tspan5907"
         x="172"
         y="1048.3622">16</tspan></text>
    <rect
       style="fill:none;stroke:#000000;stroke-width:1;stroke-linecap:round;stroke-linejoin:round;stroke-miterlimit:4;stroke-opacity:1;stroke-dasharray:none;stroke-dashoffset:0"
       id="rect5919"
       width="40"
       height="40"
       x="140"
       y="60"
       transform="translate(0,924.36218)"
       rx="4.5902016e-07" />
    <rect
       style="fill:none;stroke:#000000;stroke-width:1;stroke-linecap:round;stroke-linejoin:round;stroke-miterlimit:4;stroke-opacity:1;stroke-dasharray:none;stroke-dashoffset:0"
       id="rect5921"
       width="24"
       height="24"
       x="140"
       y="1032.3622"
       rx="4.5902016e-07" />
    <rect
       style="fill:#b3b3b3;fill-opacity:1;stroke:none"
       id="rect6935"
       width="32"
       height="4"
       x="144"
       y="56"
       transform="translate(0,924.36218)"
       rx="4.5902016e-07" />
    <rect
       style="fill:#b3b3b3;fill-opacity:1;stroke:none"
       id="rect6937"
       width="4"
       height="32"
       x="136"
       y="64"
       transform="translate(0,924.36218)"
       rx="4.5902016e-07" />
    <rect
       style="fill:#b3b3b3;fill-opacity:1;stroke:none"
       id="rect6939"
       width="16"
       height="4"
       x="144"
       y="104"
       rx="4.5902016e-07"
       transform="translate(0,924.36218)" />
    <rect
       style="fill:#b3b3b3;fill-opacity:1;stroke:none"
       id="rect6941"
       width="4"
       height="16"
       x="136"
       y="112"
       transform="translate(0,924.36218)"
       rx="4.5902016e-07" />
    <rect
       style="fill:url(#radialGradient7116);fill-opacity:1;stroke:#1a1a1a"
       id="rect12711"
       width="104"
       height="104"
       x="12"
       y="934.36218"
       rx="8"
       ry="8" />
    <path
       id="path5843"
       d="m 149.495,1036.3622 c -3.03482,0 -5.49502,2.4602 -5.49502,5.495 0,3.0348 2.4602,5.495 5.49502,5.495 0.0942,0 0.18801,0 0.281,-0.01 0.0746,0 0.14863,-0.01 0.22245,-0.016 0.0484,0 0.0963,-0.01 0.1444,-0.016 0.0681,-0.01 0.13562,-0.017 0.20295,-0.027 0.002,-4e-4 0.005,4e-4 0.008,0 0.0845,-0.013 0.16662,-0.03 0.24977,-0.047 0.0552,-0.011 0.10937,-0.022 0.16391,-0.035 0.0535,-0.013 0.10711,-0.025 0.16002,-0.039 0.0143,0 0.0287,-0.01 0.0429,-0.012 0.0538,-0.015 0.10687,-0.03 0.16001,-0.047 0.0131,0 0.026,-0.01 0.039,-0.012 0.0727,-0.023 0.14333,-0.048 0.21465,-0.074 0.0847,-0.031 0.16711,-0.067 0.24977,-0.1015 0.0761,-0.032 0.15211,-0.066 0.22636,-0.1014 0.0158,-0.01 0.0311,-0.016 0.0468,-0.023 0.008,0 0.0156,-0.01 0.0234,-0.012 0.15894,-0.079 0.31462,-0.1643 0.46442,-0.2576 0.0235,-0.015 0.047,-0.028 0.0702,-0.043 0.0476,-0.031 0.0939,-0.062 0.1405,-0.094 0.009,-0.01 0.0182,-0.013 0.0273,-0.02 a 0.99919566,0.99919566 0 0 0 0.15221,0.1912 l 5.49502,5.4951 a 0.99919566,0.99919566 0 1 0 1.41279,-1.4128 l -5.49503,-5.4951 a 0.99919566,0.99919566 0 0 0 -0.19123,-0.1522 c 0.0155,-0.022 0.0316,-0.044 0.0468,-0.066 0.0228,-0.034 0.0443,-0.067 0.0663,-0.1014 0.0255,-0.039 0.0497,-0.081 0.0742,-0.121 0.0109,-0.018 0.0205,-0.037 0.0312,-0.055 0.0797,-0.1345 0.15427,-0.2722 0.22245,-0.4137 0.002,-0.01 0.005,-0.01 0.008,-0.016 0.0355,-0.074 0.0693,-0.1503 0.10147,-0.2264 0.035,-0.083 0.0705,-0.1651 0.10147,-0.2497 0.002,-0.01 0.005,-0.013 0.008,-0.02 0.028,-0.077 0.0534,-0.1551 0.078,-0.2342 0.0164,-0.053 0.032,-0.1066 0.0468,-0.16 0.009,-0.034 0.0186,-0.068 0.0273,-0.1015 0.009,-0.034 0.0154,-0.068 0.0234,-0.1014 0.0127,-0.054 0.024,-0.1096 0.0351,-0.164 0.017,-0.083 0.0336,-0.1652 0.0468,-0.2497 0.001,-0.01 0.003,-0.016 0.004,-0.023 0.01,-0.062 0.016,-0.1243 0.0234,-0.1874 0.006,-0.048 0.0112,-0.096 0.0156,-0.1444 0.007,-0.074 0.0119,-0.1478 0.0156,-0.2224 0.005,-0.093 0.008,-0.1868 0.008,-0.281 0,-3.0348 -2.4602,-5.495 -5.49502,-5.495 z m -3.49683,1.9982 6.99367,0 0,6.9936 -6.99367,0 0,-6.9936 z"
       style="fill:url(#radialGradient6238);fill-opacity:1;stroke:none"
       inkscape:connector-curvature="0" />
    <g
       id="g6250">
      <path
         inkscape:connector-curvature="0"
         style="fill:#000000;fill-opacity:1;stroke:none;filter:url(#filter6246)"
         d="m 52.727929,950.38131 c -13.65691,0 -24.72799,11.0711 -24.72799,24.7279 0,13.6569 11.07108,24.7279 24.72799,24.7279 0.42391,0 0.84606,0 1.26452,-0.045 0.33571,0 0.66885,-0.045 1.00104,-0.072 0.21781,0 0.43336,-0.045 0.64981,-0.072 0.30646,-0.045 0.6103,-0.077 0.91329,-0.1215 0.009,0 0.0225,0 0.036,0 0.38026,-0.059 0.7498,-0.135 1.12399,-0.2115 0.2484,-0.05 0.49217,-0.099 0.7376,-0.1575 0.24076,-0.058 0.48201,-0.1125 0.7201,-0.1755 0.0644,0 0.12916,-0.045 0.19306,-0.054 0.2421,-0.068 0.48092,-0.135 0.72005,-0.2115 0.059,0 0.11701,-0.045 0.17551,-0.054 0.32715,-0.1035 0.64499,-0.216 0.96594,-0.333 0.38115,-0.1395 0.752,-0.3015 1.12398,-0.4567 0.34246,-0.144 0.68451,-0.297 1.01864,-0.4563 0.0711,-0.045 0.13995,-0.072 0.2106,-0.1036 0.036,0 0.0702,-0.045 0.1053,-0.054 0.71524,-0.3555 1.41581,-0.7393 2.08993,-1.1592 0.10575,-0.067 0.2115,-0.126 0.3159,-0.1935 0.2142,-0.1395 0.42256,-0.279 0.63226,-0.423 0.0405,-0.045 0.0819,-0.059 0.12285,-0.09 a 4.4964529,4.4964529 0 0 0 0.68496,0.8604 l 24.72799,24.72839 a 4.4964529,4.4964529 0 1 0 6.35765,-6.3577 l -24.72803,-24.72839 a 4.4964529,4.4964529 0 0 0 -0.86055,-0.6849 c 0.0697,-0.099 0.1422,-0.198 0.21061,-0.297 0.1026,-0.153 0.19935,-0.3015 0.29835,-0.4563 0.11475,-0.1755 0.22365,-0.3645 0.33391,-0.5445 0.049,-0.081 0.0923,-0.1665 0.1404,-0.2475 0.35865,-0.6053 0.69422,-1.2249 1.00104,-1.8617 0.009,-0.045 0.0225,-0.045 0.036,-0.072 0.15975,-0.333 0.31186,-0.6763 0.45662,-1.0188 0.15751,-0.3735 0.31726,-0.743 0.45662,-1.1237 0.009,-0.045 0.0225,-0.058 0.036,-0.09 0.126,-0.3465 0.2403,-0.6979 0.351,-1.0539 0.0738,-0.2385 0.144,-0.4797 0.2106,-0.72 0.0405,-0.153 0.0837,-0.306 0.12286,-0.4568 0.0405,-0.153 0.0693,-0.306 0.1053,-0.4563 0.0572,-0.243 0.108,-0.4932 0.15795,-0.738 0.0765,-0.3735 0.1512,-0.7434 0.2106,-1.1236 0.005,-0.045 0.0135,-0.072 0.018,-0.1035 0.045,-0.2791 0.072,-0.5594 0.10531,-0.8434 0.027,-0.216 0.0504,-0.432 0.0702,-0.6498 0.0315,-0.333 0.0536,-0.6651 0.0702,-1.0008 0.0225,-0.4185 0.036,-0.8406 0.036,-1.2645 0,-13.6568 -11.07108,-24.7279 -24.72799,-24.7279 z m -15.73599,8.9921 31.47202,0 0,31.4717 -31.47202,0 0,-31.4717 z"
         id="path6244" />
      <path
         id="path6240"
         d="m 52.727929,950.38131 c -13.65691,0 -24.72799,11.0711 -24.72799,24.7279 0,13.6569 11.07108,24.7279 24.72799,24.7279 0.42391,0 0.84606,0 1.26452,-0.045 0.33571,0 0.66885,-0.045 1.00104,-0.072 0.21781,0 0.43336,-0.045 0.64981,-0.072 0.30646,-0.045 0.6103,-0.077 0.91329,-0.1215 0.009,0 0.0225,0 0.036,0 0.38026,-0.059 0.7498,-0.135 1.12399,-0.2115 0.2484,-0.05 0.49217,-0.099 0.7376,-0.1575 0.24076,-0.058 0.48201,-0.1125 0.7201,-0.1755 0.0644,0 0.12916,-0.045 0.19306,-0.054 0.2421,-0.068 0.48092,-0.135 0.72005,-0.2115 0.059,0 0.11701,-0.045 0.17551,-0.054 0.32715,-0.1035 0.64499,-0.216 0.96594,-0.333 0.38115,-0.1395 0.752,-0.3015 1.12398,-0.4567 0.34246,-0.144 0.68451,-0.297 1.01864,-0.4563 0.0711,-0.045 0.13995,-0.072 0.2106,-0.1036 0.036,0 0.0702,-0.045 0.1053,-0.054 0.71524,-0.3555 1.41581,-0.7393 2.08993,-1.1592 0.10575,-0.067 0.2115,-0.126 0.3159,-0.1935 0.2142,-0.1395 0.42256,-0.279 0.63226,-0.423 0.0405,-0.045 0.0819,-0.059 0.12285,-0.09 a 4.4964529,4.4964529 0 0 0 0.68496,0.8604 l 24.72799,24.72839 a 4.4964529,4.4964529 0 1 0 6.35765,-6.3577 l -24.72803,-24.72839 a 4.4964529,4.4964529 0 0 0 -0.86055,-0.6849 c 0.0697,-0.099 0.1422,-0.198 0.21061,-0.297 0.1026,-0.153 0.19935,-0.3015 0.29835,-0.4563 0.11475,-0.1755 0.22365,-0.3645 0.33391,-0.5445 0.049,-0.081 0.0923,-0.1665 0.1404,-0.2475 0.35865,-0.6053 0.69422,-1.2249 1.00104,-1.8617 0.009,-0.045 0.0225,-0.045 0.036,-0.072 0.15975,-0.333 0.31186,-0.6763 0.45662,-1.0188 0.15751,-0.3735 0.31726,-0.743 0.45662,-1.1237 0.009,-0.045 0.0225,-0.058 0.036,-0.09 0.126,-0.3465 0.2403,-0.6979 0.351,-1.0539 0.0738,-0.2385 0.144,-0.4797 0.2106,-0.72 0.0405,-0.153 0.0837,-0.306 0.12286,-0.4568 0.0405,-0.153 0.0693,-0.306 0.1053,-0.4563 0.0572,-0.243 0.108,-0.4932 0.15795,-0.738 0.0765,-0.3735 0.1512,-0.7434 0.2106,-1.1236 0.005,-0.045 0.0135,-0.072 0.018,-0.1035 0.045,-0.2791 0.072,-0.5594 0.10531,-0.8434 0.027,-0.216 0.0504,-0.432 0.0702,-0.6498 0.0315,-0.333 0.0536,-0.6651 0.0702,-1.0008 0.0225,-0.4185 0.036,-0.8406 0.036,-1.2645 0,-13.6568 -11.07108,-24.7279 -24.72799,-24.7279 z m -15.73599,8.9921 31.47202,0 0,31.4717 -31.47202,0 0,-31.4717 z"
         style="fill:url(#radialGradient6242);fill-opacity:1;stroke:#ffffff;stroke-opacity:0.31372549999999999;stroke-width:2;stroke-miterlimit:4;stroke-dasharray:none"
         inkscape:connector-curvature="0" />
    </g>
    <g
       id="g6254"
       transform="matrix(0.35842452,0,0,0.35842452,137.06083,650.82579)">
      <path
         id="path6256"
         d="m 52.727929,950.38131 c -13.65691,0 -24.72799,11.0711 -24.72799,24.7279 0,13.6569 11.07108,24.7279 24.72799,24.7279 0.42391,0 0.84606,0 1.26452,-0.045 0.33571,0 0.66885,-0.045 1.00104,-0.072 0.21781,0 0.43336,-0.045 0.64981,-0.072 0.30646,-0.045 0.6103,-0.077 0.91329,-0.1215 0.009,0 0.0225,0 0.036,0 0.38026,-0.059 0.7498,-0.135 1.12399,-0.2115 0.2484,-0.05 0.49217,-0.099 0.7376,-0.1575 0.24076,-0.058 0.48201,-0.1125 0.7201,-0.1755 0.0644,0 0.12916,-0.045 0.19306,-0.054 0.2421,-0.068 0.48092,-0.135 0.72005,-0.2115 0.059,0 0.11701,-0.045 0.17551,-0.054 0.32715,-0.1035 0.64499,-0.216 0.96594,-0.333 0.38115,-0.1395 0.752,-0.3015 1.12398,-0.4567 0.34246,-0.144 0.68451,-0.297 1.01864,-0.4563 0.0711,-0.045 0.13995,-0.072 0.2106,-0.1036 0.036,0 0.0702,-0.045 0.1053,-0.054 0.71524,-0.3555 1.41581,-0.7393 2.08993,-1.1592 0.10575,-0.067 0.2115,-0.126 0.3159,-0.1935 0.2142,-0.1395 0.42256,-0.279 0.63226,-0.423 0.0405,-0.045 0.0819,-0.059 0.12285,-0.09 a 4.4964529,4.4964529 0 0 0 0.68496,0.8604 l 24.72799,24.72839 a 4.4964529,4.4964529 0 1 0 6.35765,-6.3577 l -24.72803,-24.72839 a 4.4964529,4.4964529 0 0 0 -0.86055,-0.6849 c 0.0697,-0.099 0.1422,-0.198 0.21061,-0.297 0.1026,-0.153 0.19935,-0.3015 0.29835,-0.4563 0.11475,-0.1755 0.22365,-0.3645 0.33391,-0.5445 0.049,-0.081 0.0923,-0.1665 0.1404,-0.2475 0.35865,-0.6053 0.69422,-1.2249 1.00104,-1.8617 0.009,-0.045 0.0225,-0.045 0.036,-0.072 0.15975,-0.333 0.31186,-0.6763 0.45662,-1.0188 0.15751,-0.3735 0.31726,-0.743 0.45662,-1.1237 0.009,-0.045 0.0225,-0.058 0.036,-0.09 0.126,-0.3465 0.2403,-0.6979 0.351,-1.0539 0.0738,-0.2385 0.144,-0.4797 0.2106,-0.72 0.0405,-0.153 0.0837,-0.306 0.12286,-0.4568 0.0405,-0.153 0.0693,-0.306 0.1053,-0.4563 0.0572,-0.243 0.108,-0.4932 0.15795,-0.738 0.0765,-0.3735 0.1512,-0.7434 0.2106,-1.1236 0.005,-0.045 0.0135,-0.072 0.018,-0.1035 0.045,-0.2791 0.072,-0.5594 0.10531,-0.8434 0.027,-0.216 0.0504,-0.432 0.0702,-0.6498 0.0315,-0.333 0.0536,-0.6651 0.0702,-1.0008 0.0225,-0.4185 0.036,-0.8406 0.036,-1.2645 0,-13.6568 -11.07108,-24.7279 -24.72799,-24.7279 z m -15.73599,8.9921 31.47202,0 0,31.4717 -31.47202,0 0,-31.4717 z"
         style="fill:#000000;fill-opacity:1;stroke:none;filter:url(#filter6246)"
         inkscape:connector-curvature="0" />
      <path
         inkscape:connector-curvature="0"
         style="fill:url(#radialGradient6260);fill-opacity:1;stroke:#ffffff;stroke-width:2;stroke-miterlimit:4;stroke-opacity:0.31372549;stroke-dasharray:none"
         d="m 52.727929,950.38131 c -13.65691,0 -24.72799,11.0711 -24.72799,24.7279 0,13.6569 11.07108,24.7279 24.72799,24.7279 0.42391,0 0.84606,0 1.26452,-0.045 0.33571,0 0.66885,-0.045 1.00104,-0.072 0.21781,0 0.43336,-0.045 0.64981,-0.072 0.30646,-0.045 0.6103,-0.077 0.91329,-0.1215 0.009,0 0.0225,0 0.036,0 0.38026,-0.059 0.7498,-0.135 1.12399,-0.2115 0.2484,-0.05 0.49217,-0.099 0.7376,-0.1575 0.24076,-0.058 0.48201,-0.1125 0.7201,-0.1755 0.0644,0 0.12916,-0.045 0.19306,-0.054 0.2421,-0.068 0.48092,-0.135 0.72005,-0.2115 0.059,0 0.11701,-0.045 0.17551,-0.054 0.32715,-0.1035 0.64499,-0.216 0.96594,-0.333 0.38115,-0.1395 0.752,-0.3015 1.12398,-0.4567 0.34246,-0.144 0.68451,-0.297 1.01864,-0.4563 0.0711,-0.045 0.13995,-0.072 0.2106,-0.1036 0.036,0 0.0702,-0.045 0.1053,-0.054 0.71524,-0.3555 1.41581,-0.7393 2.08993,-1.1592 0.10575,-0.067 0.2115,-0.126 0.3159,-0.1935 0.2142,-0.1395 0.42256,-0.279 0.63226,-0.423 0.0405,-0.045 0.0819,-0.059 0.12285,-0.09 a 4.4964529,4.4964529 0 0 0 0.68496,0.8604 l 24.72799,24.72839 a 4.4964529,4.4964529 0 1 0 6.35765,-6.3577 l -24.72803,-24.72839 a 4.4964529,4.4964529 0 0 0 -0.86055,-0.6849 c 0.0697,-0.099 0.1422,-0.198 0.21061,-0.297 0.1026,-0.153 0.19935,-0.3015 0.29835,-0.4563 0.11475,-0.1755 0.22365,-0.3645 0.33391,-0.5445 0.049,-0.081 0.0923,-0.1665 0.1404,-0.2475 0.35865,-0.6053 0.69422,-1.2249 1.00104,-1.8617 0.009,-0.045 0.0225,-0.045 0.036,-0.072 0.15975,-0.333 0.31186,-0.6763 0.45662,-1.0188 0.15751,-0.3735 0.31726,-0.743 0.45662,-1.1237 0.009,-0.045 0.0225,-0.058 0.036,-0.09 0.126,-0.3465 0.2403,-0.6979 0.351,-1.0539 0.0738,-0.2385 0.144,-0.4797 0.2106,-0.72 0.0405,-0.153 0.0837,-0.306 0.12286,-0.4568 0.0405,-0.153 0.0693,-0.306 0.1053,-0.4563 0.0572,-0.243 0.108,-0.4932 0.15795,-0.738 0.0765,-0.3735 0.1512,-0.7434 0.2106,-1.1236 0.005,-0.045 0.0135,-0.072 0.018,-0.1035 0.045,-0.2791 0.072,-0.5594 0.10531,-0.8434 0.027,-0.216 0.0504,-0.432 0.0702,-0.6498 0.0315,-0.333 0.0536,-0.6651 0.0702,-1.0008 0.0225,-0.4185 0.036,-0.8406 0.036,-1.2645 0,-13.6568 -11.07108,-24.7279 -24.72799,-24.7279 z m -15.73599,8.9921 31.47202,0 0,31.4717 -31.47202,0 0,-31.4717 z"
         id="path6258" />
    </g>
  </g>
</svg>
