<?xml version="1.0" encoding="UTF-8" standalone="no"?>
<!-- Created with Inkscape (http://www.inkscape.org/) -->

<svg
   xmlns:dc="http://purl.org/dc/elements/1.1/"
   xmlns:cc="http://creativecommons.org/ns#"
   xmlns:rdf="http://www.w3.org/1999/02/22-rdf-syntax-ns#"
   xmlns:svg="http://www.w3.org/2000/svg"
   xmlns="http://www.w3.org/2000/svg"
   xmlns:xlink="http://www.w3.org/1999/xlink"
   xmlns:sodipodi="http://sodipodi.sourceforge.net/DTD/sodipodi-0.dtd"
   xmlns:inkscape="http://www.inkscape.org/namespaces/inkscape"
   width="128"
   height="128"
   id="svg2"
   version="1.1"
   inkscape:version="0.48.4 r9939"
   sodipodi:docname="applications-development.svg">
  <defs
     id="defs4">
    <linearGradient
       inkscape:collect="always"
       id="linearGradient5260">
      <stop
         style="stop-color:#ffffff;stop-opacity:1;"
         offset="0"
         id="stop5262" />
      <stop
         style="stop-color:#ffffff;stop-opacity:0;"
         offset="1"
         id="stop5264" />
    </linearGradient>
    <linearGradient
       id="linearGradient5245">
      <stop
         style="stop-color:#ffcb00;stop-opacity:1;"
         offset="0"
         id="stop5247" />
      <stop
         style="stop-color:#ffc500;stop-opacity:1;"
         offset="1"
         id="stop5249" />
    </linearGradient>
    <linearGradient
       id="linearGradient3165">
      <stop
         id="stop3167"
         offset="0"
         style="stop-color:#ffffff;stop-opacity:1;" />
      <stop
         id="stop3169"
         offset="1"
         style="stop-color:#c6c6c6;stop-opacity:1;" />
    </linearGradient>
    <radialGradient
       inkscape:collect="always"
       xlink:href="#linearGradient3165"
       id="radialGradient5162"
       cx="154"
       cy="118"
       fx="154"
       fy="118"
       r="8"
       gradientUnits="userSpaceOnUse"
       gradientTransform="matrix(1.25,0,0,1.25,-38.5,-29.5)" />
    <radialGradient
       inkscape:collect="always"
       xlink:href="#linearGradient3165"
       id="radialGradient5172"
       gradientUnits="userSpaceOnUse"
       gradientTransform="matrix(2.1875,0,0,2.1875,-173.375,742.73711)"
       cx="154"
       cy="118"
       fx="154"
       fy="118"
       r="8" />
    <filter
       inkscape:collect="always"
       id="filter5176"
       x="-0.12000004"
       width="1.2400001"
       y="-0.11999996"
       height="1.2399999">
      <feGaussianBlur
         inkscape:collect="always"
         stdDeviation="1.4000005"
         id="feGaussianBlur5178" />
    </filter>
    <radialGradient
       inkscape:collect="always"
       xlink:href="#linearGradient5245"
       id="radialGradient5251"
       cx="84"
       cy="988.06848"
       fx="84"
       fy="988.06848"
       r="57.968469"
       gradientTransform="matrix(1,0,0,0.93157152,0,67.905711)"
       gradientUnits="userSpaceOnUse" />
    <radialGradient
       inkscape:collect="always"
       xlink:href="#linearGradient5260"
       id="radialGradient5268"
       cx="76"
       cy="85.642754"
       fx="76"
       fy="85.642754"
       r="43.609375"
       gradientTransform="matrix(1.8344679,9.1230846e-8,-8.2107762e-8,1.6510211,-63.419556,-57.398001)"
       gradientUnits="userSpaceOnUse" />
    <filter
       inkscape:collect="always"
       id="filter5286">
      <feGaussianBlur
         inkscape:collect="always"
         stdDeviation="1.6795537"
         id="feGaussianBlur5288" />
    </filter>
    <radialGradient
       inkscape:collect="always"
       xlink:href="#linearGradient3165"
       id="radialGradient6778"
       cx="154"
       cy="117.83334"
       fx="154"
       fy="117.83334"
       r="8"
       gradientTransform="matrix(1.25,-1.0227108e-7,1.0227117e-7,1.2500012,-38.500015,-29.291795)"
       gradientUnits="userSpaceOnUse" />
    <radialGradient
       inkscape:collect="always"
       xlink:href="#linearGradient3165"
       id="radialGradient6782"
       gradientUnits="userSpaceOnUse"
       gradientTransform="matrix(2.1875,-1.7897439e-7,1.7897455e-7,2.1875021,-173.37503,742.22652)"
       cx="154"
       cy="117.83334"
       fx="154"
       fy="117.83334"
       r="8" />
    <filter
       inkscape:collect="always"
       id="filter6786"
       x="-0.11625004"
       width="1.2325001"
       y="-0.12399995"
       height="1.2479999">
      <feGaussianBlur
         inkscape:collect="always"
         stdDeviation="1.3562505"
         id="feGaussianBlur6788" />
    </filter>
    <radialGradient
       inkscape:collect="always"
       xlink:href="#linearGradient3165"
       id="radialGradient6796"
       gradientUnits="userSpaceOnUse"
       gradientTransform="matrix(2.1875,-1.7897439e-7,1.7897455e-7,2.1875021,-173.37503,742.22652)"
       cx="154"
       cy="117.83334"
       fx="154"
       fy="117.83334"
       r="8" />
  </defs>
  <sodipodi:namedview
     id="base"
     pagecolor="#ffffff"
     bordercolor="#666666"
     borderopacity="1.0"
     inkscape:pageopacity="0.0"
     inkscape:pageshadow="2"
     inkscape:zoom="2.8284273"
     inkscape:cx="79.055707"
     inkscape:cy="86.265248"
     inkscape:document-units="px"
     inkscape:current-layer="layer1"
     showgrid="true"
     showguides="true"
     inkscape:guide-bbox="true"
     inkscape:window-width="1381"
     inkscape:window-height="876"
     inkscape:window-x="1339"
     inkscape:window-y="24"
     inkscape:window-maximized="1">
    <inkscape:grid
       type="xygrid"
       id="grid2985"
       empspacing="4"
       visible="true"
       enabled="true"
       snapvisiblegridlinesonly="true" />
  </sodipodi:namedview>
  <metadata
     id="metadata7">
    <rdf:RDF>
      <cc:Work
         rdf:about="">
        <dc:format>image/svg+xml</dc:format>
        <dc:type
           rdf:resource="http://purl.org/dc/dcmitype/StillImage" />
        <dc:title></dc:title>
      </cc:Work>
    </rdf:RDF>
  </metadata>
  <g
     inkscape:label="Layer 1"
     inkscape:groupmode="layer"
     id="layer1"
     transform="translate(0,-924.36218)">
    <path
       style="font-size:medium;font-style:normal;font-variant:normal;font-weight:normal;font-stretch:normal;text-indent:0;text-align:start;text-decoration:none;line-height:normal;letter-spacing:normal;word-spacing:normal;text-transform:none;direction:ltr;block-progression:tb;writing-mode:lr-tb;text-anchor:start;baseline-shift:baseline;color:#000000;fill:#000000;fill-opacity:1;fill-rule:nonzero;stroke:none;stroke-width:20;marker:none;visibility:visible;display:inline;overflow:visible;enable-background:accumulate;font-family:Sans;-inkscape-font-specification:Sans;filter:url(#filter5286)"
       d="m 63.71875,939.36218 c -3.479289,0.0995 -6.837025,2.161 -8.5,5.21875 l -48,87.99997 c -1.6482637,3.029 -1.5748449,6.9236 0.1864055,9.8883 1.7612505,2.9647 5.1464665,4.8919 8.5948445,4.893 l 96,0 c 3.44838,0 6.83359,-1.9283 8.59484,-4.893 1.76125,-2.9647 1.83467,-6.8593 0.18641,-9.8883 l -48,-87.99997 c -1.752636,-3.2224 -5.395721,-5.32031 -9.0625,-5.21875 z"
       id="path5272"
       inkscape:connector-curvature="0"
       sodipodi:nodetypes="cccsccsccc" />
    <path
       sodipodi:nodetypes="cccsccsccc"
       inkscape:connector-curvature="0"
       id="path5270"
       d="m 63.71875,939.36218 c -3.479289,0.0995 -6.837025,2.161 -8.5,5.21875 l -48,87.99997 c -1.6482637,3.029 -1.5748449,6.9236 0.1864055,9.8883 1.7612505,2.9647 5.1464665,4.8919 8.5948445,4.893 l 96,0 c 3.44838,0 6.83359,-1.9283 8.59484,-4.893 1.76125,-2.9647 1.83467,-6.8593 0.18641,-9.8883 l -48,-87.99997 c -1.752636,-3.2224 -5.395721,-5.32031 -9.0625,-5.21875 z"
       style="font-size:medium;font-style:normal;font-variant:normal;font-weight:normal;font-stretch:normal;text-indent:0;text-align:start;text-decoration:none;line-height:normal;letter-spacing:normal;word-spacing:normal;text-transform:none;direction:ltr;block-progression:tb;writing-mode:lr-tb;text-anchor:start;baseline-shift:baseline;color:#000000;fill:#888a85;fill-opacity:1;fill-rule:nonzero;stroke:none;stroke-width:20;marker:none;visibility:visible;display:inline;overflow:visible;enable-background:accumulate;font-family:Sans;-inkscape-font-specification:Sans" />
    <text
       xml:space="preserve"
       style="font-size:24px;font-style:normal;font-weight:normal;line-height:125%;letter-spacing:0px;word-spacing:0px;fill:#000000;fill-opacity:1;stroke:none;font-family:Sans"
       x="-56"
       y="948.36218"
       id="text5893"
       sodipodi:linespacing="125%"><tspan
         sodipodi:role="line"
         id="tspan5895"
         x="-56"
         y="948.36218">128</tspan></text>
    <text
       sodipodi:linespacing="125%"
       id="text5901"
       y="1000.3622"
       x="184"
       style="font-size:16px;font-style:normal;font-weight:normal;line-height:125%;letter-spacing:0px;word-spacing:0px;fill:#000000;fill-opacity:1;stroke:none;font-family:Sans"
       xml:space="preserve"><tspan
         y="1000.3622"
         x="184"
         id="tspan5903"
         sodipodi:role="line">31 - 17</tspan></text>
    <text
       xml:space="preserve"
       style="font-size:16px;font-style:normal;font-weight:normal;line-height:125%;letter-spacing:0px;word-spacing:0px;fill:#000000;fill-opacity:1;stroke:none;font-family:Sans"
       x="172"
       y="1048.3622"
       id="text5905"
       sodipodi:linespacing="125%"><tspan
         sodipodi:role="line"
         id="tspan5907"
         x="172"
         y="1048.3622">16</tspan></text>
    <rect
       style="fill:none;stroke:#000000;stroke-width:1;stroke-linecap:round;stroke-linejoin:round;stroke-miterlimit:4;stroke-opacity:1;stroke-dasharray:none;stroke-dashoffset:0"
       id="rect5919"
       width="40"
       height="40"
       x="140"
       y="984.36218"
       rx="4.5902016e-07" />
    <rect
       style="fill:none;stroke:#000000;stroke-width:1;stroke-linecap:round;stroke-linejoin:round;stroke-miterlimit:4;stroke-opacity:1;stroke-dasharray:none;stroke-dashoffset:0"
       id="rect5921"
       width="24"
       height="24"
       x="140"
       y="1032.3622"
       rx="4.5902016e-07" />
    <rect
       style="fill:#b3b3b3;fill-opacity:1;stroke:none"
       id="rect6935"
       width="32"
       height="4"
       x="144"
       y="980.36218"
       rx="4.5902016e-07" />
    <rect
       style="fill:#b3b3b3;fill-opacity:1;stroke:none"
       id="rect6937"
       width="4"
       height="32"
       x="136"
       y="988.36218"
       rx="4.5902016e-07" />
    <rect
       style="fill:#b3b3b3;fill-opacity:1;stroke:none"
       id="rect6939"
       width="16"
       height="4"
       x="144"
       y="1028.3622"
       rx="4.5902016e-07" />
    <rect
       style="fill:#b3b3b3;fill-opacity:1;stroke:none"
       id="rect6941"
       width="4"
       height="16"
       x="136"
       y="1036.3622"
       rx="4.5902016e-07" />
    <path
       style="font-size:medium;font-style:normal;font-variant:normal;font-weight:normal;font-stretch:normal;text-indent:0;text-align:start;text-decoration:none;line-height:normal;letter-spacing:normal;word-spacing:normal;text-transform:none;direction:ltr;block-progression:tb;writing-mode:lr-tb;text-anchor:start;baseline-shift:baseline;color:#000000;fill:url(#radialGradient5251);fill-opacity:1;fill-rule:nonzero;stroke:none;stroke-width:20;marker:none;visibility:visible;display:inline;overflow:visible;enable-background:accumulate;font-family:Sans;-inkscape-font-specification:Sans"
       d="m 63.71875,938.36218 c -3.479289,0.0995 -6.837025,2.161 -8.5,5.21875 l -48,87.99997 c -1.6482637,3.029 -1.5748449,6.9236 0.1864055,9.8883 1.7612505,2.9647 5.1464665,4.8919 8.5948445,4.893 l 96,0 c 3.44838,-0 6.83359,-1.9283 8.59484,-4.893 1.76125,-2.9647 1.83467,-6.8593 0.18641,-9.8883 l -48,-87.99997 c -1.752636,-3.2224 -5.395721,-5.32031 -9.0625,-5.21875 z"
       id="path5182"
       inkscape:connector-curvature="0"
       sodipodi:nodetypes="cccsccsccc" />
    <path
       style="font-size:medium;font-style:normal;font-variant:normal;font-weight:normal;font-stretch:normal;text-indent:0;text-align:start;text-decoration:none;line-height:normal;letter-spacing:normal;word-spacing:normal;text-transform:none;direction:ltr;block-progression:tb;writing-mode:lr-tb;text-anchor:start;baseline-shift:baseline;color:#000000;fill:url(#radialGradient5268);fill-opacity:1;fill-rule:nonzero;stroke:none;stroke-width:20;marker:none;visibility:visible;display:inline;overflow:visible;enable-background:accumulate;font-family:Sans;-inkscape-font-specification:Sans;opacity:0.5"
       d="M 63.71875 14 C 60.239461 14.0995 56.881725 16.161 55.21875 19.21875 L 13.0625 96.5 C 13.459553 96.502587 13.851869 96.5 14.25 96.5 C 50.426158 96.5 82.171981 85.772076 100.28125 69.625 L 72.78125 19.21875 C 71.028614 15.99635 67.385529 13.89844 63.71875 14 z "
       id="path5253"
       transform="translate(0,924.36218)" />
    <path
       style="font-size:medium;font-style:normal;font-variant:normal;font-weight:normal;font-stretch:normal;text-indent:0;text-align:start;text-decoration:none;line-height:normal;letter-spacing:normal;word-spacing:normal;text-transform:none;direction:ltr;block-progression:tb;writing-mode:lr-tb;text-anchor:start;baseline-shift:baseline;color:#000000;fill:#000000;fill-opacity:1;fill-rule:nonzero;stroke:none;stroke-width:20;marker:none;visibility:visible;display:inline;overflow:visible;enable-background:accumulate;font-family:Sans;-inkscape-font-specification:Sans"
       d="m 63.748697,946.1118 c -3.108821,0.0889 -6.109032,1.9309 -7.594937,4.66307 l -42.889056,78.62993 c -1.47276,2.7065 -1.406181,6.1745 0.167535,8.8235 1.573716,2.6491 4.597503,4.3829 7.678705,4.3839 l 85.778116,0 c 3.0812,0 6.10499,-1.7348 7.6787,-4.3839 1.57372,-2.649 1.64029,-6.117 0.16754,-8.8235 L 71.84624,950.77487 c -1.566019,-2.87928 -4.821195,-4.75381 -8.097543,-4.66307 z m 0.02792,7.39948 c 2.894842,-0.0802 5.764509,1.58853 7.148176,4.13254 l 37.890917,69.47138 c 1.30127,2.3913 1.25085,5.4499 -0.13961,7.7904 -1.39047,2.3405 -4.06276,3.8812 -6.78518,3.8812 l -75.78184,0 c -2.722418,-9e-4 -5.394714,-1.5407 -6.785182,-3.8812 -1.390468,-2.3405 -1.440881,-5.3991 -0.139613,-7.7904 l 37.890917,-69.47138 c 1.312883,-2.41403 3.954594,-4.054 6.701415,-4.13254 z"
       id="path5184"
       inkscape:connector-curvature="0" />
    <path
       style="fill:#000000;fill-opacity:1;stroke:none"
       d="m 57.629436,984.81929 c -2.812052,0 -5.09375,2.28169 -5.09375,5.09375 0,1.64984 0.814713,3.10082 2.03125,4.03125 l -1.21875,-0.53125 c -0.71037,-0.32214 -1.492164,-0.26575 -2.125,0.0937 -0.281121,-0.12153 -0.576367,-0.1875 -0.90625,-0.1875 l -6.59375,0 c -0.09951,0 -0.185266,0.0194 -0.28125,0.0312 -0.07777,-0.0152 -0.169154,-0.0312 -0.25,-0.0312 -0.626842,0 -1.143566,0.48059 -1.4375,1.1875 -0.01808,0.0352 -0.04644,0.0575 -0.0625,0.0937 -0.0196,0.0535 -0.04576,0.10043 -0.0625,0.15625 -0.07346,0.21099 -0.125,0.45244 -0.125,0.6875 0,0.0271 -10e-4,0.0356 0,0.0625 -0.0035,0.0628 0,0.12345 0,0.1875 l 0,7.09371 c 0,1.3218 0.747238,2.4063 1.6875,2.4063 0.235065,0 0.48431,-0.067 0.6875,-0.1875 l 1.4375,0.4687 -2.21875,4.875 c -0.260635,0.5748 -0.274972,1.2002 -0.09375,1.75 -0.62595,0.1742 -1.213455,0.5849 -1.53125,1.2188 l -8.09375,16.25 c -0.592376,1.1815 -0.134601,2.603 1.03125,3.1875 l 0.34375,0.1562 c 1.165851,0.5845 2.563874,0.1191 3.15625,-1.0625 l 8.125,-16.25 c 0.100137,-0.1997 0.177163,-0.3855 0.21875,-0.5937 l 4.375,7 0,8.8125 c 0,1.3217 0.984656,2.375 2.21875,2.375 l 0.84375,0 c 0.236813,0 0.473725,-0.052 0.6875,-0.125 l 42.5,0 2,0 -13,-24 -6,0 -3,4.0312 c -0.0075,0 -0.02366,0 -0.03125,0 -0.246944,-0.1425 -0.507382,-0.2766 -0.8125,-0.375 l -9.3125,-3 c -0.40329,-0.3207 -0.957967,-0.575 -1.59375,-0.625 l -0.375,0 -3.875,-1.25 -2.46875,-10.65621 c -0.07826,-0.33509 -0.19534,-0.64531 -0.375,-0.90625 -0.209416,-0.56847 -0.624878,-1.04319 -1.21875,-1.3125 l -0.15625,-0.0625 c 0.315569,0.0612 0.635294,0.0937 0.96875,0.0937 2.812052,0 5.09375,-2.2817 5.09375,-5.09375 0,-2.81206 -2.281698,-5.09375 -5.09375,-5.09375 z m -12.71875,12.71875 4,0 -2.5625,5.62496 -1.4375,-0.5 0,-5.12496 z m 10.625,5.93746 0.65625,2.8438 -1.71875,-0.5313 1.0625,-2.3125 z m -2.09375,4.5938 3.40625,1.125 0.1875,0.8125 c 0.04251,0.182 0.112962,0.3695 0.1875,0.5312 0.16031,0.7897 1.097027,1.4718 2.25,1.5625 l 5.40625,0.4063 c 0.550603,0.043 1.049059,-0.059 1.46875,-0.25 l 8.90625,2.875 c 0.02218,0.01 0.04037,0.024 0.0625,0.031 l -4.4375,5.9063 -6,0 -8.9375,8.9375 0,-7.6563 c 0.123383,-0.4668 0.114892,-0.9948 -0.0625,-1.4687 -0.110605,-0.5818 -0.416994,-1.0947 -0.84375,-1.4375 l -3.90625,-6.25 2.3125,-5.125 z"
       id="path5193"
       inkscape:connector-curvature="0" />
    <path
       style="opacity:1;fill:url(#radialGradient6778);fill-opacity:1;stroke:none"
       d="M 146.5 113 C 146.223 113 146 113.223 146 113.5 L 146 114 L 145 114 C 144.446 114 144 114.446 144 115 L 144 122 C 144 122.554 144.446 123 145 123 L 146 123 L 146 127 L 144.5 127 C 144.223 127 144 127.223 144 127.5 C 144 127.777 144.223 128 144.5 128 L 148.5 128 C 148.777 128 149 127.777 149 127.5 C 149 127.223 148.777 127 148.5 127 L 147 127 L 147 123 L 157 123 L 157 127 L 155.5 127 C 155.223 127 155 127.223 155 127.5 C 155 127.777 155.223 128 155.5 128 L 159.5 128 C 159.777 128 160 127.777 160 127.5 C 160 127.223 159.777 127 159.5 127 L 158 127 L 158 123 L 159 123 C 159.554 123 160 122.554 160 122 L 160 115 C 160 114.446 159.554 114 159 114 L 158 114 L 158 113.5 C 158 113.223 157.777 113 157.5 113 C 157.223 113 157 113.223 157 113.5 L 157 114 L 147 114 L 147 113.5 C 147 113.223 146.777 113 146.5 113 z M 145 115 L 147 115 L 145 117 L 145 115 z M 149 115 L 151 115 L 145 121 L 145 119 L 149 115 z M 153 115 L 155 115 L 148 122 L 146 122 L 153 115 z M 157 115 L 159 115 L 152 122 L 150 122 L 157 115 z M 159 117 L 159 119 L 156 122 L 154 122 L 159 117 z M 159 121 L 159 122 L 158 122 L 159 121 z "
       transform="translate(0,924.36218)"
       id="rect5311" />
    <g
       id="g6790"
       transform="matrix(0.92725821,0,0,0.92725821,11.638686,73.870596)">
      <path
         id="path6784"
         d="m 150.375,991.23718 c -0.48475,0 -0.875,0.3902 -0.875,0.875 l 0,0.875 -1.75,0 c -0.9695,0 -1.75,0.7805 -1.75,1.75 l 0,12.25002 c 0,0.9695 0.7805,1.75 1.75,1.75 l 1.75,0 0,7 -2.625,0 c -0.48475,0 -0.875,0.3902 -0.875,0.875 0,0.4847 0.39025,0.875 0.875,0.875 l 7,0 c 0.48475,0 0.875,-0.3903 0.875,-0.875 0,-0.4848 -0.39025,-0.875 -0.875,-0.875 l -2.625,0 0,-7 17.5,0 0,7 -2.625,0 c -0.48475,0 -0.875,0.3902 -0.875,0.875 0,0.4847 0.39025,0.875 0.875,0.875 l 7,0 c 0.48475,0 0.875,-0.3903 0.875,-0.875 0,-0.4848 -0.39025,-0.875 -0.875,-0.875 l -2.625,0 0,-7 1.75,0 c 0.9695,0 1.75,-0.7805 1.75,-1.75 l 0,-12.25002 c 0,-0.9695 -0.7805,-1.75 -1.75,-1.75 l -1.75,0 0,-0.875 c 0,-0.4848 -0.39025,-0.875 -0.875,-0.875 -0.48475,0 -0.875,0.3902 -0.875,0.875 l 0,0.875 -17.5,0 0,-0.875 c 0,-0.4848 -0.39025,-0.875 -0.875,-0.875 z m -2.625,3.5 3.5,0 -3.5,3.5 0,-3.5 z m 7,0 3.5,0 -10.5,10.50002 0,-3.5 7,-7.00002 z m 7,0 3.5,0 -12.25,12.25002 -3.5,0 12.25,-12.25002 z m 7,0 3.5,0 -12.25,12.25002 -3.5,0 12.25,-12.25002 z m 3.5,3.5 0,3.50002 -5.25,5.25 -3.5,0 8.75,-8.75002 z m 0,7.00002 0,1.75 -1.75,0 1.75,-1.75 z"
         style="fill:#000000;fill-opacity:1;stroke:none;filter:url(#filter6786)"
         inkscape:connector-curvature="0" />
      <path
         inkscape:connector-curvature="0"
         style="fill:url(#radialGradient6796);fill-opacity:1;stroke:#ffffff;stroke-opacity:0.31372549"
         d="m 150.375,991.23718 c -0.48475,0 -0.875,0.3902 -0.875,0.875 l 0,0.875 -1.75,0 c -0.9695,0 -1.75,0.7805 -1.75,1.75 l 0,12.25002 c 0,0.9695 0.7805,1.75 1.75,1.75 l 1.75,0 0,7 -2.625,0 c -0.48475,0 -0.875,0.3902 -0.875,0.875 0,0.4847 0.39025,0.875 0.875,0.875 l 7,0 c 0.48475,0 0.875,-0.3903 0.875,-0.875 0,-0.4848 -0.39025,-0.875 -0.875,-0.875 l -2.625,0 0,-7 17.5,0 0,7 -2.625,0 c -0.48475,0 -0.875,0.3902 -0.875,0.875 0,0.4847 0.39025,0.875 0.875,0.875 l 7,0 c 0.48475,0 0.875,-0.3903 0.875,-0.875 0,-0.4848 -0.39025,-0.875 -0.875,-0.875 l -2.625,0 0,-7 1.75,0 c 0.9695,0 1.75,-0.7805 1.75,-1.75 l 0,-12.25002 c 0,-0.9695 -0.7805,-1.75 -1.75,-1.75 l -1.75,0 0,-0.875 c 0,-0.4848 -0.39025,-0.875 -0.875,-0.875 -0.48475,0 -0.875,0.3902 -0.875,0.875 l 0,0.875 -17.5,0 0,-0.875 c 0,-0.4848 -0.39025,-0.875 -0.875,-0.875 z m -2.625,3.5 3.5,0 -3.5,3.5 0,-3.5 z m 7,0 3.5,0 -10.5,10.50002 0,-3.5 7,-7.00002 z m 7,0 3.5,0 -12.25,12.25002 -3.5,0 12.25,-12.25002 z m 7,0 3.5,0 -12.25,12.25002 -3.5,0 12.25,-12.25002 z m 3.5,3.5 0,3.50002 -5.25,5.25 -3.5,0 8.75,-8.75002 z m 0,7.00002 0,1.75 -1.75,0 1.75,-1.75 z"
         id="path6780" />
    </g>
  </g>
</svg>
