<?xml version="1.0" encoding="UTF-8" standalone="no"?>
<!-- Created with Inkscape (http://www.inkscape.org/) -->

<svg
   xmlns:dc="http://purl.org/dc/elements/1.1/"
   xmlns:cc="http://creativecommons.org/ns#"
   xmlns:rdf="http://www.w3.org/1999/02/22-rdf-syntax-ns#"
   xmlns:svg="http://www.w3.org/2000/svg"
   xmlns="http://www.w3.org/2000/svg"
   xmlns:sodipodi="http://sodipodi.sourceforge.net/DTD/sodipodi-0.dtd"
   xmlns:inkscape="http://www.inkscape.org/namespaces/inkscape"
   version="1.1"
   width="16"
   height="16.000057"
   id="svg7384"
   inkscape:version="0.48.4 r9939"
   sodipodi:docname="camera-web-symbolic.svg">
  <title
     id="title4176">Kawaiki Icon Theme</title>
  <sodipodi:namedview
     pagecolor="#4a4a4a"
     bordercolor="#e50000"
     borderopacity="1"
     objecttolerance="10"
     gridtolerance="10000"
     guidetolerance="10"
     inkscape:pageopacity="1"
     inkscape:pageshadow="2"
     inkscape:window-width="1022"
     inkscape:window-height="578"
     id="namedview16"
     showgrid="true"
     inkscape:showpageshadow="false"
     borderlayer="false"
     inkscape:zoom="16"
     inkscape:cx="5.2660298"
     inkscape:cy="8.0034094"
     inkscape:window-x="2"
     inkscape:window-y="0"
     inkscape:window-maximized="1"
     inkscape:current-layer="svg7384">
    <inkscape:grid
       type="xygrid"
       id="grid2993"
       empspacing="4"
       visible="true"
       enabled="true"
       snapvisiblegridlinesonly="true" />
  </sodipodi:namedview>
  <metadata
     id="metadata90">
    <rdf:RDF>
      <cc:Work
         rdf:about="">
        <dc:format>image/svg+xml</dc:format>
        <dc:type
           rdf:resource="http://purl.org/dc/dcmitype/StillImage" />
        <dc:title>Kawaiki Icon Theme</dc:title>
        <dc:date>2014-01-31</dc:date>
        <dc:creator>
          <cc:Agent>
            <dc:title>Georg Eckert</dc:title>
          </cc:Agent>
        </dc:creator>
        <dc:language>German</dc:language>
        <cc:license
           rdf:resource="http://creativecommons.org/licenses/by-nc-sa/3.0/" />
      </cc:Work>
      <cc:License
         rdf:about="http://creativecommons.org/licenses/by-nc-sa/3.0/">
        <cc:permits
           rdf:resource="http://creativecommons.org/ns#Reproduction" />
        <cc:permits
           rdf:resource="http://creativecommons.org/ns#Distribution" />
        <cc:requires
           rdf:resource="http://creativecommons.org/ns#Notice" />
        <cc:requires
           rdf:resource="http://creativecommons.org/ns#Attribution" />
        <cc:prohibits
           rdf:resource="http://creativecommons.org/ns#CommercialUse" />
        <cc:permits
           rdf:resource="http://creativecommons.org/ns#DerivativeWorks" />
        <cc:requires
           rdf:resource="http://creativecommons.org/ns#ShareAlike" />
      </cc:License>
    </rdf:RDF>
  </metadata>
  <defs
     id="defs7386">
    <inkscape:perspective
       sodipodi:type="inkscape:persp3d"
       inkscape:vp_x="0 : 8.0000286 : 1"
       inkscape:vp_y="0 : 1000 : 0"
       inkscape:vp_z="16 : 8.0000286 : 1"
       inkscape:persp3d-origin="8 : 5.3333524 : 1"
       id="perspective3079" />
  </defs>
  <path
     style="opacity:1;fill:#d3d7cf;stroke:none"
     d="M 4 0 C 2.892 0 2 0.892 2 2 L 2 10 C 2 11.108 2.892 12 4 12 L 5 12 L 5 14 L 4 14 C 2.892 14 2 14.892 2 16 L 14 16 C 14 14.892 13.108 14 12 14 L 11 14 L 11 12 L 12 12 C 13.108 12 14 11.108 14 10 L 14 2 C 14 0.892 13.108 0 12 0 L 4 0 z M 8 1 C 10.761424 1 13 3.2385763 13 6 C 13 8.7614237 10.761424 11 8 11 C 5.2385763 11 3 8.7614237 3 6 C 3 3.2385763 5.2385763 1 8 1 z M 8 2 C 5.790861 2 4 3.790861 4 6 C 4 8.209139 5.790861 10 8 10 C 10.209139 10 12 8.209139 12 6 C 12 3.790861 10.209139 2 8 2 z M 8 3 C 9.6568542 3 11 4.3431458 11 6 C 11 7.6568542 9.6568542 9 8 9 C 6.3431458 9 5 7.6568542 5 6 C 5 5.814455 5.0302572 5.6449808 5.0625 5.46875 C 5.2742694 6.3460441 6.0576641 7 7 7 C 8.1045695 7 9 6.1045695 9 5 C 9 4.0576641 8.3460441 3.2742694 7.46875 3.0625 C 7.6449808 3.0302572 7.814455 3 8 3 z "
     id="rect3810" />
</svg>
