<?xml version="1.0" encoding="UTF-8" standalone="no"?>
<!-- Created with Inkscape (http://www.inkscape.org/) -->

<svg
   xmlns:dc="http://purl.org/dc/elements/1.1/"
   xmlns:cc="http://creativecommons.org/ns#"
   xmlns:rdf="http://www.w3.org/1999/02/22-rdf-syntax-ns#"
   xmlns:svg="http://www.w3.org/2000/svg"
   xmlns="http://www.w3.org/2000/svg"
   xmlns:sodipodi="http://sodipodi.sourceforge.net/DTD/sodipodi-0.dtd"
   xmlns:inkscape="http://www.inkscape.org/namespaces/inkscape"
   version="1.1"
   width="16"
   height="16.000057"
   id="svg7384"
   inkscape:version="0.48.4 r9939"
   sodipodi:docname="camera-web-symbolic.svg">
  <title
     id="title4176">Kawaiki Icon Theme</title>
  <sodipodi:namedview
     pagecolor="#4a4a4a"
     bordercolor="#e50000"
     borderopacity="1"
     objecttolerance="10"
     gridtolerance="10000"
     guidetolerance="10"
     inkscape:pageopacity="1"
     inkscape:pageshadow="2"
     inkscape:window-width="1280"
     inkscape:window-height="968"
     id="namedview16"
     showgrid="true"
     inkscape:showpageshadow="false"
     borderlayer="false"
     inkscape:zoom="16"
     inkscape:cx="5.3910298"
     inkscape:cy="8.0034094"
     inkscape:window-x="0"
     inkscape:window-y="27"
     inkscape:window-maximized="1"
     inkscape:current-layer="svg7384">
    <inkscape:grid
       type="xygrid"
       id="grid2993"
       empspacing="4"
       visible="true"
       enabled="true"
       snapvisiblegridlinesonly="true" />
  </sodipodi:namedview>
  <metadata
     id="metadata90">
    <rdf:RDF>
      <cc:Work
         rdf:about="">
        <dc:format>image/svg+xml</dc:format>
        <dc:type
           rdf:resource="http://purl.org/dc/dcmitype/StillImage" />
        <dc:title>Kawaiki Icon Theme</dc:title>
        <dc:date>2014-01-31</dc:date>
        <dc:creator>
          <cc:Agent>
            <dc:title>Georg Eckert</dc:title>
          </cc:Agent>
        </dc:creator>
        <dc:language>German</dc:language>
        <cc:license
           rdf:resource="http://creativecommons.org/licenses/by-nc-sa/3.0/" />
      </cc:Work>
      <cc:License
         rdf:about="http://creativecommons.org/licenses/by-nc-sa/3.0/">
        <cc:permits
           rdf:resource="http://creativecommons.org/ns#Reproduction" />
        <cc:permits
           rdf:resource="http://creativecommons.org/ns#Distribution" />
        <cc:requires
           rdf:resource="http://creativecommons.org/ns#Notice" />
        <cc:requires
           rdf:resource="http://creativecommons.org/ns#Attribution" />
        <cc:prohibits
           rdf:resource="http://creativecommons.org/ns#CommercialUse" />
        <cc:permits
           rdf:resource="http://creativecommons.org/ns#DerivativeWorks" />
        <cc:requires
           rdf:resource="http://creativecommons.org/ns#ShareAlike" />
      </cc:License>
    </rdf:RDF>
  </metadata>
  <defs
     id="defs7386">
    <inkscape:perspective
       sodipodi:type="inkscape:persp3d"
       inkscape:vp_x="0 : 8.0000286 : 1"
       inkscape:vp_y="0 : 1000 : 0"
       inkscape:vp_z="16 : 8.0000286 : 1"
       inkscape:persp3d-origin="8 : 5.3333524 : 1"
       id="perspective3079" />
  </defs>
  <path
     style="fill:#d3d7cf;fill-opacity:1;stroke:none"
     d="M 1.5 0 C 0.67157288 0 0 0.67157288 0 1.5 C 0 2.3284271 0.67157288 3 1.5 3 C 1.6484265 3 1.8021041 2.9776556 1.9375 2.9375 L 4.71875 5.71875 C 4.2720632 6.3643003 4 7.155551 4 8 C 4 8.844449 4.2720632 9.6356997 4.71875 10.28125 L 1.9375 13.0625 C 1.802104 13.02234 1.648426 13 1.5 13 C 0.671573 13 0 13.671573 0 14.5 C 0 15.328427 0.671573 16 1.5 16 C 2.328427 16 3 15.328427 3 14.5 C 3 14.351574 2.97766 14.197896 2.9375 14.0625 L 5.71875 11.28125 C 6.3643003 11.727937 7.155551 12 8 12 C 8.844449 12 9.6356997 11.727937 10.28125 11.28125 L 13.0625 14.0625 C 13.022344 14.197896 13 14.351574 13 14.5 C 13 15.328427 13.671573 16 14.5 16 C 15.328427 16 16 15.328427 16 14.5 C 16 13.671573 15.328427 13 14.5 13 C 14.351574 13 14.197896 13.02234 14.0625 13.0625 L 11.28125 10.28125 C 11.727937 9.6356997 12 8.844449 12 8 C 12 7.155551 11.727937 6.3643003 11.28125 5.71875 L 14.0625 2.9375 C 14.197896 2.977656 14.351574 3 14.5 3 C 15.328427 3 16 2.3284271 16 1.5 C 16 0.67157288 15.328427 0 14.5 0 C 13.671573 0 13 0.67157288 13 1.5 C 13 1.6484265 13.02234 1.8021041 13.0625 1.9375 L 10.28125 4.71875 C 9.9001667 4.4550604 9.4613407 4.2752224 9 4.15625 L 9 0 L 7 0 L 7 4.15625 C 6.5386593 4.2752224 6.0998333 4.4550604 5.71875 4.71875 L 2.9375 1.9375 C 2.9776556 1.8021041 3 1.6484265 3 1.5 C 3 0.67157288 2.3284271 0 1.5 0 z "
     id="path2985" />
</svg>
