<?xml version="1.0" encoding="UTF-8" standalone="no"?>
<!-- Created with Inkscape (http://www.inkscape.org/) -->

<svg
   xmlns:dc="http://purl.org/dc/elements/1.1/"
   xmlns:cc="http://creativecommons.org/ns#"
   xmlns:rdf="http://www.w3.org/1999/02/22-rdf-syntax-ns#"
   xmlns:svg="http://www.w3.org/2000/svg"
   xmlns="http://www.w3.org/2000/svg"
   xmlns:sodipodi="http://sodipodi.sourceforge.net/DTD/sodipodi-0.dtd"
   xmlns:inkscape="http://www.inkscape.org/namespaces/inkscape"
   version="1.1"
   width="16"
   height="16.000057"
   id="svg7384"
   inkscape:version="0.48.4 r9939"
   sodipodi:docname="display-projector-symbolic.svg">
  <title
     id="title4176">Kawaiki Icon Theme</title>
  <sodipodi:namedview
     pagecolor="#4a4a4a"
     bordercolor="#e50000"
     borderopacity="1"
     objecttolerance="10"
     gridtolerance="10000"
     guidetolerance="10"
     inkscape:pageopacity="1"
     inkscape:pageshadow="2"
     inkscape:window-width="1280"
     inkscape:window-height="968"
     id="namedview16"
     showgrid="true"
     inkscape:showpageshadow="false"
     borderlayer="false"
     inkscape:zoom="32"
     inkscape:cx="14.888407"
     inkscape:cy="2.8861451"
     inkscape:window-x="0"
     inkscape:window-y="27"
     inkscape:window-maximized="1"
     inkscape:current-layer="svg7384">
    <inkscape:grid
       type="xygrid"
       id="grid2993"
       empspacing="4"
       visible="true"
       enabled="true"
       snapvisiblegridlinesonly="true" />
  </sodipodi:namedview>
  <metadata
     id="metadata90">
    <rdf:RDF>
      <cc:Work
         rdf:about="">
        <dc:format>image/svg+xml</dc:format>
        <dc:type
           rdf:resource="http://purl.org/dc/dcmitype/StillImage" />
        <dc:title>Kawaiki Icon Theme</dc:title>
        <dc:date>2014-01-31</dc:date>
        <dc:creator>
          <cc:Agent>
            <dc:title>Georg Eckert</dc:title>
          </cc:Agent>
        </dc:creator>
        <dc:language>German</dc:language>
        <cc:license
           rdf:resource="http://creativecommons.org/licenses/by-nc-sa/3.0/" />
      </cc:Work>
      <cc:License
         rdf:about="http://creativecommons.org/licenses/by-nc-sa/3.0/">
        <cc:permits
           rdf:resource="http://creativecommons.org/ns#Reproduction" />
        <cc:permits
           rdf:resource="http://creativecommons.org/ns#Distribution" />
        <cc:requires
           rdf:resource="http://creativecommons.org/ns#Notice" />
        <cc:requires
           rdf:resource="http://creativecommons.org/ns#Attribution" />
        <cc:prohibits
           rdf:resource="http://creativecommons.org/ns#CommercialUse" />
        <cc:permits
           rdf:resource="http://creativecommons.org/ns#DerivativeWorks" />
        <cc:requires
           rdf:resource="http://creativecommons.org/ns#ShareAlike" />
      </cc:License>
    </rdf:RDF>
  </metadata>
  <defs
     id="defs7386">
    <inkscape:perspective
       sodipodi:type="inkscape:persp3d"
       inkscape:vp_x="0 : 8.0000286 : 1"
       inkscape:vp_y="0 : 1000 : 0"
       inkscape:vp_z="16 : 8.0000286 : 1"
       inkscape:persp3d-origin="8 : 5.3333524 : 1"
       id="perspective3079" />
  </defs>
  <path
     style="opacity:0.20000000000000001;fill:#d3d7cf;fill-opacity:1;stroke:none"
     d="M 11 3 C 9.8781716 3 8.8654632 3.3761296 8.03125 4 L 1 4 C 0.446 4 0 4.446 0 5 L 0 11 C 0 11.554 0.446 12 1 12 L 1 13 L 4 13 L 4 12 L 8.03125 12 C 8.8654632 12.62387 9.8781716 13 11 13 C 12.121828 13 13.134537 12.62387 13.96875 12 L 15 12 C 15.554 12 16 11.554 16 11 L 16 8 L 16 5 C 16 4.446 15.554 4 15 4 L 13.96875 4 C 13.134537 3.3761296 12.121828 3 11 3 z "
     id="rect3107" />
  <path
     style="opacity:1;fill:#d3d7cf;fill-opacity:1;stroke:none"
     d="M 11 3 C 10.698633 3 10.411682 3.0114056 10.125 3.0625 C 9.9421296 3.0950923 9.7691589 3.1668538 9.59375 3.21875 C 9.5003576 3.2469361 9.4034632 3.2789749 9.3125 3.3125 C 9.1257995 3.3800262 8.956857 3.4741276 8.78125 3.5625 C 8.7311302 3.5880825 8.6741838 3.5977858 8.625 3.625 C 8.4169517 3.7387823 8.2200146 3.8588315 8.03125 4 C 8.0249382 4.0047203 8.0062887 3.9952506 8 4 L 8 4.03125 C 7.3291086 4.5420716 6.7812827 5.2187591 6.4375 6 L 1 6 L 1 4 C 0.446 4 0 4.446 0 5 L 0 11 C 0 11.554 0.446 12 1 12 L 1 8 L 2 8 L 2 12 L 1 12 L 1 13 L 4 13 L 4 12 L 3 12 L 3 8 L 4 8 L 4 12 L 5 12 L 5 8 L 6 8 L 6 12 L 8.03125 12 C 8.2200146 12.141169 8.4169517 12.261218 8.625 12.375 C 8.6741838 12.402214 8.7311302 12.411918 8.78125 12.4375 C 8.956857 12.525872 9.1257995 12.619974 9.3125 12.6875 C 9.4034632 12.721025 9.5003576 12.753064 9.59375 12.78125 C 9.7691589 12.833146 9.9421296 12.904908 10.125 12.9375 C 10.411682 12.988594 10.698633 13 11 13 C 11.22684 13 11.438907 12.967196 11.65625 12.9375 C 11.707478 12.930645 11.761775 12.945895 11.8125 12.9375 C 11.832213 12.934161 11.855374 12.941075 11.875 12.9375 C 12.05787 12.904908 12.230841 12.833146 12.40625 12.78125 C 12.500738 12.753295 12.595435 12.720798 12.6875 12.6875 C 12.874201 12.619974 13.043143 12.525872 13.21875 12.4375 C 13.269614 12.411903 13.325148 12.402264 13.375 12.375 C 13.583048 12.261218 13.779985 12.141169 13.96875 12 L 15 12 C 15.554 12 16 11.554 16 11 L 16 8 L 16 5 C 16 4.446 15.554 4 15 4 L 13.96875 4 C 13.779985 3.8588315 13.583048 3.7387823 13.375 3.625 C 13.325148 3.5977357 13.269614 3.588097 13.21875 3.5625 C 13.043143 3.4741276 12.874201 3.3800262 12.6875 3.3125 C 12.595435 3.2792019 12.500738 3.2467052 12.40625 3.21875 C 12.230841 3.1668538 12.05787 3.0950923 11.875 3.0625 C 11.854793 3.0588986 11.83279 3.0658578 11.8125 3.0625 C 11.546767 3.0174899 11.280457 3 11 3 z M 11 4 C 13.209139 4 15 5.790861 15 8 C 15 10.209139 13.209139 12 11 12 C 10.723858 12 10.44789 11.959534 10.1875 11.90625 C 8.3647675 11.533265 7 9.9329966 7 8 C 7 7.7343389 7.0443404 7.4699263 7.09375 7.21875 C 7.100219 7.1858646 7.1177303 7.1575909 7.125 7.125 C 7.1474561 7.0324067 7.1586813 6.9337785 7.1875 6.84375 C 7.2832855 6.5445195 7.4084251 6.2657669 7.5625 6 C 7.696114 5.7695266 7.824655 5.5421214 8 5.34375 C 8.0096167 5.3328704 8.0215165 5.3232708 8.03125 5.3125 C 8.1972319 5.1288289 8.3964237 4.9621715 8.59375 4.8125 C 8.6053216 4.803723 8.6133296 4.789902 8.625 4.78125 C 8.8006248 4.6521778 8.9916657 4.5369274 9.1875 4.4375 C 9.2310504 4.4156603 9.2680536 4.3952769 9.3125 4.375 C 9.4615377 4.3057368 9.6229371 4.269509 9.78125 4.21875 C 10.166101 4.0971141 10.57466 4 11 4 z M 11 5 C 9.3431458 5 8 6.3431458 8 8 C 8 9.6568542 9.3431458 11 11 11 C 12.656854 11 14 9.6568542 14 8 C 14 6.3431458 12.656854 5 11 5 z M 11 6 C 12.104569 6 13 6.8954305 13 8 C 13 9.1045695 12.104569 10 11 10 C 9.8954305 10 9 9.1045695 9 8 C 9 6.8954305 9.8954305 6 11 6 z "
     id="path3118" />
  <path
     style="fill:#d3d7cf;fill-opacity:1;stroke:none;opacity:0.5"
     d="M 1 4 L 1 6 L 6.4375 6 C 6.7871724 5.2053746 7.3442468 4.5137787 8.03125 4 L 1 4 z "
     id="rect3154" />
</svg>
