<?xml version="1.0" encoding="UTF-8" standalone="no"?>
<!-- Created with Inkscape (http://www.inkscape.org/) -->

<svg
   xmlns:dc="http://purl.org/dc/elements/1.1/"
   xmlns:cc="http://creativecommons.org/ns#"
   xmlns:rdf="http://www.w3.org/1999/02/22-rdf-syntax-ns#"
   xmlns:svg="http://www.w3.org/2000/svg"
   xmlns="http://www.w3.org/2000/svg"
   xmlns:sodipodi="http://sodipodi.sourceforge.net/DTD/sodipodi-0.dtd"
   xmlns:inkscape="http://www.inkscape.org/namespaces/inkscape"
   version="1.1"
   width="16"
   height="16.000057"
   id="svg7384"
   inkscape:version="0.48.4 r9939"
   sodipodi:docname="input-gaming-symbolic.svg">
  <title
     id="title4176">Kawaiki Icon Theme</title>
  <sodipodi:namedview
     pagecolor="#4a4a4a"
     bordercolor="#e50000"
     borderopacity="1"
     objecttolerance="10"
     gridtolerance="10000"
     guidetolerance="10"
     inkscape:pageopacity="1"
     inkscape:pageshadow="2"
     inkscape:window-width="1280"
     inkscape:window-height="968"
     id="namedview16"
     showgrid="true"
     inkscape:showpageshadow="false"
     borderlayer="false"
     inkscape:zoom="16"
     inkscape:cx="15.524552"
     inkscape:cy="-4.6428255"
     inkscape:window-x="0"
     inkscape:window-y="27"
     inkscape:window-maximized="1"
     inkscape:current-layer="svg7384"
     showguides="true"
     inkscape:guide-bbox="true">
    <inkscape:grid
       type="xygrid"
       id="grid2993"
       empspacing="4"
       visible="true"
       enabled="true"
       snapvisiblegridlinesonly="true" />
  </sodipodi:namedview>
  <metadata
     id="metadata90">
    <rdf:RDF>
      <cc:Work
         rdf:about="">
        <dc:format>image/svg+xml</dc:format>
        <dc:type
           rdf:resource="http://purl.org/dc/dcmitype/StillImage" />
        <dc:title>Kawaiki Icon Theme</dc:title>
        <dc:date>2014-01-31</dc:date>
        <dc:creator>
          <cc:Agent>
            <dc:title>Georg Eckert</dc:title>
          </cc:Agent>
        </dc:creator>
        <dc:language>German</dc:language>
        <cc:license
           rdf:resource="http://creativecommons.org/licenses/by-nc-sa/3.0/" />
      </cc:Work>
      <cc:License
         rdf:about="http://creativecommons.org/licenses/by-nc-sa/3.0/">
        <cc:permits
           rdf:resource="http://creativecommons.org/ns#Reproduction" />
        <cc:permits
           rdf:resource="http://creativecommons.org/ns#Distribution" />
        <cc:requires
           rdf:resource="http://creativecommons.org/ns#Notice" />
        <cc:requires
           rdf:resource="http://creativecommons.org/ns#Attribution" />
        <cc:prohibits
           rdf:resource="http://creativecommons.org/ns#CommercialUse" />
        <cc:permits
           rdf:resource="http://creativecommons.org/ns#DerivativeWorks" />
        <cc:requires
           rdf:resource="http://creativecommons.org/ns#ShareAlike" />
      </cc:License>
    </rdf:RDF>
  </metadata>
  <defs
     id="defs7386">
    <inkscape:perspective
       sodipodi:type="inkscape:persp3d"
       inkscape:vp_x="0 : 8.0000286 : 1"
       inkscape:vp_y="0 : 1000 : 0"
       inkscape:vp_z="16 : 8.0000286 : 1"
       inkscape:persp3d-origin="8 : 5.3333524 : 1"
       id="perspective3079" />
  </defs>
  <path
     style="fill:#d3d7cf;fill-opacity:1;stroke:none"
     d="M 13.5 0 C 13.51299 0.43846386 13.42928 0.65354771 13.3125 0.78125 C 13.195716 0.90895229 13.003448 1.0103 12.6875 1.0625 C 12.055604 1.1669 11.038674 1.028826 10.0625 1.0625 C 9.5744128 1.0793369 9.0875034 1.1647432 8.625 1.34375 C 8.1624966 1.5227568 7.7235663 1.8284796 7.4375 2.3125 C 7.1752726 2.7561853 7.0423167 3.3078107 7.03125 4 L 8 4 L 8 8 L 12.90625 8 C 12.534484 5.7174805 10.939 4 9 4 L 8.03125 4 C 8.0520891 3.4575549 8.1649931 3.0620797 8.3125 2.8125 C 8.4791191 2.5305827 8.6994197 2.3663362 9 2.25 C 9.3005803 2.1336638 9.6647594 2.0772983 10.09375 2.0625 C 10.951731 2.032903 11.963939 2.1766099 12.84375 2.03125 C 13.283656 1.95857 13.707398 1.8228802 14.03125 1.46875 C 14.355102 1.1146198 14.517994 0.60720799 14.5 0 L 13.5 0 z M 6 4 C 4.061 4 2.4655156 5.7174805 2.09375 8 L 7 8 L 7 4 L 6 4 z M 2 9 L 2 11 C 2 13.77 3.784 16 6 16 L 9 16 C 11.216 16 13 13.77 13 11 L 13 9 L 2 9 z "
     id="rect3452" />
  <rect
     style="fill:#d3d7cf;fill-opacity:1;stroke:none;opacity:0.2"
     id="rect3469"
     width="11"
     height="12"
     x="2"
     y="4.0000572"
     ry="5"
     rx="4" />
</svg>
