<?xml version="1.0" encoding="UTF-8" standalone="no"?>
<!-- Created with Inkscape (http://www.inkscape.org/) -->

<svg
   xmlns:dc="http://purl.org/dc/elements/1.1/"
   xmlns:cc="http://creativecommons.org/ns#"
   xmlns:rdf="http://www.w3.org/1999/02/22-rdf-syntax-ns#"
   xmlns:svg="http://www.w3.org/2000/svg"
   xmlns="http://www.w3.org/2000/svg"
   xmlns:sodipodi="http://sodipodi.sourceforge.net/DTD/sodipodi-0.dtd"
   xmlns:inkscape="http://www.inkscape.org/namespaces/inkscape"
   version="1.1"
   width="16"
   height="16.000057"
   id="svg7384"
   inkscape:version="0.48.4 r9939"
   sodipodi:docname="printer-network-symbolic.svg">
  <title
     id="title4176">Kawaiki Icon Theme</title>
  <sodipodi:namedview
     pagecolor="#4a4a4a"
     bordercolor="#e50000"
     borderopacity="1"
     objecttolerance="10"
     gridtolerance="10000"
     guidetolerance="10"
     inkscape:pageopacity="1"
     inkscape:pageshadow="2"
     inkscape:window-width="1280"
     inkscape:window-height="968"
     id="namedview16"
     showgrid="true"
     inkscape:showpageshadow="false"
     borderlayer="false"
     inkscape:zoom="32"
     inkscape:cx="1.6179518"
     inkscape:cy="8.5938422"
     inkscape:window-x="0"
     inkscape:window-y="27"
     inkscape:window-maximized="1"
     inkscape:current-layer="svg7384"
     showguides="true"
     inkscape:guide-bbox="true">
    <inkscape:grid
       type="xygrid"
       id="grid2993"
       empspacing="4"
       visible="true"
       enabled="true"
       snapvisiblegridlinesonly="true" />
  </sodipodi:namedview>
  <metadata
     id="metadata90">
    <rdf:RDF>
      <cc:Work
         rdf:about="">
        <dc:format>image/svg+xml</dc:format>
        <dc:type
           rdf:resource="http://purl.org/dc/dcmitype/StillImage" />
        <dc:title>Kawaiki Icon Theme</dc:title>
        <dc:date>2014-01-31</dc:date>
        <dc:creator>
          <cc:Agent>
            <dc:title>Georg Eckert</dc:title>
          </cc:Agent>
        </dc:creator>
        <dc:language>German</dc:language>
        <cc:license
           rdf:resource="http://creativecommons.org/licenses/by-nc-sa/3.0/" />
      </cc:Work>
      <cc:License
         rdf:about="http://creativecommons.org/licenses/by-nc-sa/3.0/">
        <cc:permits
           rdf:resource="http://creativecommons.org/ns#Reproduction" />
        <cc:permits
           rdf:resource="http://creativecommons.org/ns#Distribution" />
        <cc:requires
           rdf:resource="http://creativecommons.org/ns#Notice" />
        <cc:requires
           rdf:resource="http://creativecommons.org/ns#Attribution" />
        <cc:prohibits
           rdf:resource="http://creativecommons.org/ns#CommercialUse" />
        <cc:permits
           rdf:resource="http://creativecommons.org/ns#DerivativeWorks" />
        <cc:requires
           rdf:resource="http://creativecommons.org/ns#ShareAlike" />
      </cc:License>
    </rdf:RDF>
  </metadata>
  <defs
     id="defs7386">
    <inkscape:perspective
       sodipodi:type="inkscape:persp3d"
       inkscape:vp_x="0 : 8.0000286 : 1"
       inkscape:vp_y="0 : 1000 : 0"
       inkscape:vp_z="16 : 8.0000286 : 1"
       inkscape:persp3d-origin="8 : 5.3333524 : 1"
       id="perspective3079" />
  </defs>
  <path
     style="fill:#d3d7cf;fill-opacity:1;stroke:none"
     d="M 5 0 L 5 1 L 4 1 L 4 4 L 3 4 C 2.446 4 2 4.446 2 5 L 2 11 C 2 11.554 2.446 12 3 12 L 4 12 L 4 13 L 7 13 L 7 14 L 0 14 L 0 15 L 16 15 L 16 14 L 9 14 L 9 13 L 12 13 L 12 12 L 13 12 C 13.554 12 14 11.554 14 11 L 14 5 C 14 4.446 13.554 4 13 4 L 12 4 L 12 1 L 11 1 L 11 0 L 5 0 z M 6 1 L 10 1 L 10 4 L 10 5 L 6 5 L 6 4 L 6 1 z M 10.5 6 C 10.776142 6 11 6.2238576 11 6.5 C 11 6.7761424 10.776142 7 10.5 7 C 10.223858 7 10 6.7761424 10 6.5 C 10 6.2238576 10.223858 6 10.5 6 z M 12.5 6 C 12.776142 6 13 6.2238576 13 6.5 C 13 6.7761424 12.776142 7 12.5 7 C 12.223858 7 12 6.7761424 12 6.5 C 12 6.2238576 12.223858 6 12.5 6 z M 5 10 L 11 10 L 11 12 L 5 12 L 5 10 z "
     id="rect2995" />
</svg>
