<?xml version="1.0" encoding="UTF-8" standalone="no"?>
<!-- Created with Inkscape (http://www.inkscape.org/) -->

<svg
   xmlns:dc="http://purl.org/dc/elements/1.1/"
   xmlns:cc="http://creativecommons.org/ns#"
   xmlns:rdf="http://www.w3.org/1999/02/22-rdf-syntax-ns#"
   xmlns:svg="http://www.w3.org/2000/svg"
   xmlns="http://www.w3.org/2000/svg"
   xmlns:xlink="http://www.w3.org/1999/xlink"
   xmlns:sodipodi="http://sodipodi.sourceforge.net/DTD/sodipodi-0.dtd"
   xmlns:inkscape="http://www.inkscape.org/namespaces/inkscape"
   version="1.1"
   width="128"
   height="128"
   id="svg2"
   inkscape:version="0.48.4 r9939"
   sodipodi:docname="firefox.svg">
  <sodipodi:namedview
     pagecolor="#ffffff"
     bordercolor="#666666"
     borderopacity="1"
     objecttolerance="10"
     gridtolerance="10"
     guidetolerance="10"
     inkscape:pageopacity="0"
     inkscape:pageshadow="2"
     inkscape:window-width="1440"
     inkscape:window-height="876"
     id="namedview2894"
     showgrid="true"
     inkscape:zoom="14.75"
     inkscape:cx="155.95334"
     inkscape:cy="4.2813233"
     inkscape:window-x="1280"
     inkscape:window-y="0"
     inkscape:window-maximized="1"
     inkscape:current-layer="svg2">
    <inkscape:grid
       type="xygrid"
       id="grid5874"
       empspacing="4"
       visible="true"
       enabled="true"
       snapvisiblegridlinesonly="true" />
  </sodipodi:namedview>
  <defs
     id="defs4">
    <linearGradient
       id="linearGradient6864">
      <stop
         style="stop-color:#ffa100;stop-opacity:1;"
         offset="0"
         id="stop6866" />
      <stop
         style="stop-color:#f57900;stop-opacity:1;"
         offset="1"
         id="stop6868" />
    </linearGradient>
    <linearGradient
       id="linearGradient6978">
      <stop
         id="stop6980"
         style="stop-color:#000000;stop-opacity:0.25"
         offset="0" />
      <stop
         id="stop6982"
         style="stop-color:#000000;stop-opacity:0"
         offset="1" />
    </linearGradient>
    <linearGradient
       id="linearGradient4258-1-1">
      <stop
         id="stop4260-1-6"
         style="stop-color:#ff671d;stop-opacity:1"
         offset="0" />
      <stop
         id="stop4262-9-0"
         style="stop-color:#c95000;stop-opacity:1"
         offset="1" />
    </linearGradient>
    <radialGradient
       inkscape:collect="always"
       xlink:href="#linearGradient6864"
       id="radialGradient6870"
       cx="64"
       cy="62.000003"
       fx="64"
       fy="62.000003"
       r="52"
       gradientUnits="userSpaceOnUse" />
    <radialGradient
       inkscape:collect="always"
       xlink:href="#linearGradient6864"
       id="radialGradient6874"
       cx="160"
       cy="78.968048"
       fx="160"
       fy="78.968048"
       r="13.422819"
       gradientUnits="userSpaceOnUse" />
    <radialGradient
       inkscape:collect="always"
       xlink:href="#linearGradient6864"
       id="radialGradient6882"
       cx="152"
       cy="120"
       fx="152"
       fy="120"
       r="7"
       gradientUnits="userSpaceOnUse" />
  </defs>
  <metadata
     id="metadata7">
    <rdf:RDF>
      <cc:Work
         rdf:about="">
        <dc:format>image/svg+xml</dc:format>
        <dc:type
           rdf:resource="http://purl.org/dc/dcmitype/StillImage" />
        <dc:title />
      </cc:Work>
    </rdf:RDF>
  </metadata>
  <rect
     style="opacity:0.1;fill:#000000;fill-opacity:1;stroke:#000000;stroke-width:10;stroke-miterlimit:4;stroke-dasharray:none"
     id="rect6981"
     y="16.000002"
     x="12"
     ry="8"
     rx="8"
     height="104"
     width="104" />
  <rect
     style="opacity:0.1;fill:#000000;fill-opacity:1;stroke:#000000;stroke-width:6;stroke-miterlimit:4;stroke-dasharray:none"
     id="rect6979"
     y="16.000002"
     x="12"
     ry="8"
     rx="8"
     height="104"
     width="104" />
  <rect
     style="opacity:0.2;fill:#000000;fill-opacity:1;stroke:#000000;stroke-width:3;stroke-miterlimit:4;stroke-dasharray:none"
     id="rect5969"
     y="14.000003"
     x="12"
     ry="8"
     rx="8"
     height="104"
     width="104" />
  <rect
     style="fill:#ce5c00;fill-opacity:1;stroke:none"
     id="rect6936"
     y="14.000003"
     x="12"
     ry="8"
     rx="8"
     height="104"
     width="104" />
  <rect
     style="fill:url(#radialGradient6870);fill-opacity:1;stroke:none"
     id="rect6964"
     y="10.000003"
     x="12"
     ry="8"
     rx="8"
     height="104"
     width="104" />
  <path
     inkscape:connector-curvature="0"
     style="opacity:0.25;fill:#000000;fill-opacity:1;stroke:#000000;stroke-width:3;stroke-miterlimit:4;stroke-dasharray:none"
     id="path7219"
     d="m 148.65625,65.53125 c -1.14404,0 -2.09375,0.949713 -2.09375,2.09375 l 0,1.03125 0,21.65625 0,1.03125 c 0,1.144037 0.94971,2.09375 2.09375,2.09375 l 22.6875,0 c 1.14404,0 2.09375,-0.949713 2.09375,-2.09375 l 0,-1.03125 0,-21.65625 0,-1.03125 c 0,-1.144037 -0.94971,-2.09375 -2.09375,-2.09375 l -22.6875,0 z" />
  <path
     inkscape:connector-curvature="0"
     style="opacity:0.25;fill:#000000;fill-opacity:1;stroke:#000000;stroke-width:2;stroke-miterlimit:4;stroke-dasharray:none"
     id="path7217"
     d="m 148.65625,65.53125 c -1.14404,0 -2.09375,0.949713 -2.09375,2.09375 l 0,1.03125 0,21.65625 0,1.03125 c 0,1.144037 0.94971,2.09375 2.09375,2.09375 l 22.6875,0 c 1.14404,0 2.09375,-0.949713 2.09375,-2.09375 l 0,-1.03125 0,-21.65625 0,-1.03125 c 0,-1.144037 -0.94971,-2.09375 -2.09375,-2.09375 l -22.6875,0 z" />
  <path
     inkscape:connector-curvature="0"
     style="opacity:0.5;fill:#000000;fill-opacity:1;stroke:#000000"
     id="rect7185"
     d="m 148.65625,65.53125 c -1.14404,0 -2.09375,0.949713 -2.09375,2.09375 l 0,1.03125 0,21.65625 0,1.03125 c 0,1.144037 0.94971,2.09375 2.09375,2.09375 l 22.6875,0 c 1.14404,0 2.09375,-0.949713 2.09375,-2.09375 l 0,-1.03125 0,-21.65625 0,-1.03125 c 0,-1.144037 -0.94971,-2.09375 -2.09375,-2.09375 l -22.6875,0 z" />
  <rect
     style="fill:#333333;fill-opacity:1;stroke:none"
     id="rect7150"
     y="112"
     x="144"
     ry="1"
     rx="1"
     height="16"
     width="16" />
  <text
     sodipodi:linespacing="125%"
     style="font-size:24px;font-style:normal;font-weight:normal;line-height:125%;letter-spacing:0px;word-spacing:0px;fill:#000000;fill-opacity:1;stroke:none;font-family:Sans"
     xml:space="preserve"
     id="text5893"
     y="24.000002"
     x="-56"><tspan
       id="tspan5895"
       y="24.000002"
       x="-56">128</tspan></text>
  <text
     sodipodi:linespacing="125%"
     style="font-size:16px;font-style:normal;font-weight:normal;line-height:125%;letter-spacing:0px;word-spacing:0px;fill:#000000;fill-opacity:1;stroke:none;font-family:Sans"
     xml:space="preserve"
     id="text5901"
     y="76"
     x="184"><tspan
       id="tspan5903"
       y="76"
       x="184">31 - 17</tspan></text>
  <text
     sodipodi:linespacing="125%"
     style="font-size:16px;font-style:normal;font-weight:normal;line-height:125%;letter-spacing:0px;word-spacing:0px;fill:#000000;fill-opacity:1;stroke:none;font-family:Sans"
     xml:space="preserve"
     id="text5905"
     y="124"
     x="172"><tspan
       id="tspan5907"
       y="124"
       x="172">16</tspan></text>
  <rect
     style="fill:none;stroke:#000000;stroke-width:1;stroke-linecap:round;stroke-linejoin:round;stroke-miterlimit:4;stroke-opacity:1;stroke-dasharray:none;stroke-dashoffset:0"
     id="rect5919"
     y="60"
     x="140"
     rx="4.5902016e-07"
     height="40"
     width="40" />
  <rect
     style="fill:none;stroke:#000000;stroke-width:1;stroke-linecap:round;stroke-linejoin:round;stroke-miterlimit:4;stroke-opacity:1;stroke-dasharray:none;stroke-dashoffset:0"
     id="rect5921"
     y="108"
     x="140"
     rx="4.5902016e-07"
     height="24"
     width="24" />
  <rect
     style="fill:#b3b3b3;fill-opacity:1;stroke:none"
     id="rect6935"
     y="56"
     x="144"
     rx="4.5902016e-07"
     height="4"
     width="32" />
  <rect
     style="fill:#b3b3b3;fill-opacity:1;stroke:none"
     id="rect6937"
     y="64"
     x="136"
     rx="4.5902016e-07"
     height="32"
     width="4" />
  <rect
     style="fill:#b3b3b3;fill-opacity:1;stroke:none"
     id="rect6939"
     y="104"
     x="144"
     rx="4.5902016e-07"
     height="4"
     width="16" />
  <rect
     style="fill:#b3b3b3;fill-opacity:1;stroke:none"
     id="rect6941"
     y="112"
     x="136"
     rx="4.5902016e-07"
     height="16"
     width="4" />
  <rect
     style="opacity:1;fill:url(#radialGradient6882);fill-opacity:1.0;stroke:none"
     id="rect7120"
     y="113"
     x="145"
     ry="1.0980393"
     rx="1.0980393"
     height="14"
     width="14" />
  <rect
     style="fill:#ce5c00;fill-opacity:1;stroke:none"
     id="rect5952"
     y="66.57782"
     x="146.57718"
     ry="2.0650492"
     rx="2.0650492"
     height="26.845638"
     width="26.845638" />
  <rect
     style="fill:url(#radialGradient6874);fill-opacity:1.0;stroke:none"
     id="rect5954"
     y="65.545227"
     x="146.57718"
     ry="2.0650492"
     rx="2.0650492"
     height="26.845638"
     width="26.845638" />
  <path
     style="opacity:1;fill:#eeeeec;fill-opacity:1;stroke:none"
     d="M 148.90625 67.6875 L 149.6875 76.46875 L 149.375 80.75 L 156.59375 85.03125 L 158.625 90.25 C 159.69284 90.94909 160.54065 90.734886 161.3125 90.25 L 163.375 85.03125 L 170.625 80.75 L 170.25 76.46875 L 171.09375 67.6875 L 165.53125 72.71875 L 160.53125 72.1875 L 159.46875 72.1875 L 154.4375 72.71875 L 148.90625 67.6875 z "
     id="rect5867" />
  <path
     id="path5877"
     d="m 24.98593,21.539546 2.747469,30.881561 -1.098987,15.056134 25.38662,15.056134 7.143422,18.353095 c 3.755339,2.45853 6.736884,1.70523 9.451296,0 l 7.25332,-18.353095 25.49652,-15.056134 -1.31879,-15.056134 2.96727,-30.881561 -19.561983,17.693705 -17.583808,-1.86828 -3.736557,0 -17.693706,1.86828 L 24.98593,21.539546 z"
     style="fill:#eeeeec;fill-opacity:1;stroke:none"
     inkscape:connector-curvature="0" />
  <path
     style="fill:#eeeeec;stroke:none"
     d="m 146,114 3,3 c 1.87802,-0.82334 3.86641,-0.90174 6,0 l 3,-3 -1,4 1,3 -4,2 -1,3 c -0.60452,0.24859 -1.26766,0.26268 -2,0 l -1,-3 -4,-2 1,-3 z"
     id="path6891"
     inkscape:connector-curvature="0"
     sodipodi:nodetypes="ccccccccccccc" />
  <path
     style="fill:#babdb6;stroke:none"
     d="M 37,45 28,34 30,49 z"
     id="path5854"
     inkscape:connector-curvature="0"
     sodipodi:nodetypes="cccc"
     inkscape:transform-center-x="31.5"
     inkscape:transform-center-y="-1.5" />
  <path
     inkscape:transform-center-y="-1.5"
     inkscape:transform-center-x="-31.5"
     sodipodi:nodetypes="cccc"
     inkscape:connector-curvature="0"
     id="path5856"
     d="m 91,45 9,-11 -2,15 z"
     style="fill:#babdb6;stroke:none" />
  <path
     style="fill:#babdb6;stroke:none;stroke-width:1px;stroke-linecap:butt;stroke-linejoin:miter;stroke-opacity:1"
     d="m 60,101 3,1 2,0 3,-1 -1,-3 -3,-1 -3,1 z"
     id="path5858"
     inkscape:connector-curvature="0" />
  <path
     style="fill:#babdb6;stroke:none;stroke-width:1px;stroke-linecap:butt;stroke-linejoin:miter;stroke-opacity:1"
     d="m 64,40 -7,9 7,18 7,-18 z"
     id="path5860"
     inkscape:connector-curvature="0" />
</svg>
