<?xml version="1.0" encoding="UTF-8" standalone="no"?>
<!-- Created with Inkscape (http://www.inkscape.org/) -->

<svg
   xmlns:dc="http://purl.org/dc/elements/1.1/"
   xmlns:cc="http://creativecommons.org/ns#"
   xmlns:rdf="http://www.w3.org/1999/02/22-rdf-syntax-ns#"
   xmlns:svg="http://www.w3.org/2000/svg"
   xmlns="http://www.w3.org/2000/svg"
   xmlns:sodipodi="http://sodipodi.sourceforge.net/DTD/sodipodi-0.dtd"
   xmlns:inkscape="http://www.inkscape.org/namespaces/inkscape"
   version="1.1"
   width="16"
   height="16.000057"
   id="svg7384"
   inkscape:version="0.48.4 r9939"
   sodipodi:docname="input-dialpad-symbolic.svg">
  <title
     id="title4176">Kawaiki Icon Theme</title>
  <sodipodi:namedview
     pagecolor="#4a4a4a"
     bordercolor="#e50000"
     borderopacity="1"
     objecttolerance="10"
     gridtolerance="10000"
     guidetolerance="10"
     inkscape:pageopacity="1"
     inkscape:pageshadow="2"
     inkscape:window-width="1280"
     inkscape:window-height="968"
     id="namedview16"
     showgrid="true"
     inkscape:showpageshadow="false"
     borderlayer="false"
     inkscape:zoom="32"
     inkscape:cx="8.4265978"
     inkscape:cy="6.1234624"
     inkscape:window-x="0"
     inkscape:window-y="27"
     inkscape:window-maximized="1"
     inkscape:current-layer="svg7384"
     showguides="true"
     inkscape:guide-bbox="true">
    <inkscape:grid
       type="xygrid"
       id="grid2993"
       empspacing="4"
       visible="true"
       enabled="true"
       snapvisiblegridlinesonly="true" />
  </sodipodi:namedview>
  <metadata
     id="metadata90">
    <rdf:RDF>
      <cc:Work
         rdf:about="">
        <dc:format>image/svg+xml</dc:format>
        <dc:type
           rdf:resource="http://purl.org/dc/dcmitype/StillImage" />
        <dc:title>Kawaiki Icon Theme</dc:title>
        <dc:date>2014-01-31</dc:date>
        <dc:creator>
          <cc:Agent>
            <dc:title>Georg Eckert</dc:title>
          </cc:Agent>
        </dc:creator>
        <dc:language>German</dc:language>
        <cc:license
           rdf:resource="http://creativecommons.org/licenses/by-nc-sa/3.0/" />
      </cc:Work>
      <cc:License
         rdf:about="http://creativecommons.org/licenses/by-nc-sa/3.0/">
        <cc:permits
           rdf:resource="http://creativecommons.org/ns#Reproduction" />
        <cc:permits
           rdf:resource="http://creativecommons.org/ns#Distribution" />
        <cc:requires
           rdf:resource="http://creativecommons.org/ns#Notice" />
        <cc:requires
           rdf:resource="http://creativecommons.org/ns#Attribution" />
        <cc:prohibits
           rdf:resource="http://creativecommons.org/ns#CommercialUse" />
        <cc:permits
           rdf:resource="http://creativecommons.org/ns#DerivativeWorks" />
        <cc:requires
           rdf:resource="http://creativecommons.org/ns#ShareAlike" />
      </cc:License>
    </rdf:RDF>
  </metadata>
  <defs
     id="defs7386">
    <inkscape:perspective
       sodipodi:type="inkscape:persp3d"
       inkscape:vp_x="0 : 8.0000286 : 1"
       inkscape:vp_y="0 : 1000 : 0"
       inkscape:vp_z="16 : 8.0000286 : 1"
       inkscape:persp3d-origin="8 : 5.3333524 : 1"
       id="perspective3079" />
  </defs>
  <rect
     style="fill:#d3d7cf;fill-opacity:1;stroke:none;opacity:0.15"
     id="rect3360"
     width="16"
     height="16"
     x="0"
     y="5.7220459e-05"
     rx="2"
     ry="2" />
  <path
     style="fill:#d3d7cf;fill-opacity:1;stroke:none"
     d="M 2 0 C 0.892 0 0 0.892 0 2 L 0 14 C 0 15.108 0.892 16 2 16 L 3 16 L 14 16 C 14.831 16 15.540938 15.499563 15.84375 14.78125 C 15.944688 14.541812 16 14.277 16 14 L 16 12 L 16 2 C 16 0.892 15.108 0 14 0 L 2 0 z M 2 1 L 14 1 C 14.554 1 15 1.446 15 2 L 15 12 L 13 12 C 11.892 12 11 12.892 11 14 L 11 15 L 5 15 L 5 14 C 5 12.892 4.108 12 3 12 L 2 12 L 1 12 L 1 2 C 1 1.446 1.446 1 2 1 z "
     id="rect3308" />
  <rect
     style="fill:#d3d7cf;fill-opacity:1;stroke:none"
     id="rect3338"
     width="4"
     height="3"
     x="2"
     y="2.0000572"
     rx="0"
     ry="0" />
  <rect
     style="fill:#d3d7cf;fill-opacity:1;stroke:none"
     id="rect3340"
     width="4"
     height="3"
     x="6"
     y="5.0000572" />
  <rect
     style="fill:#d3d7cf;fill-opacity:1;stroke:none"
     id="rect3342"
     width="4"
     height="3"
     x="10"
     y="2.0000572" />
  <rect
     style="fill:#d3d7cf;fill-opacity:1;stroke:none"
     id="rect3344"
     width="4"
     height="3"
     x="2"
     y="8.0000572" />
  <rect
     style="fill:#d3d7cf;fill-opacity:1;stroke:none"
     id="rect3346"
     width="4"
     height="3"
     x="10"
     y="8.0000572" />
  <rect
     style="fill:#d3d7cf;fill-opacity:1;stroke:none"
     id="rect3348"
     width="4"
     height="3"
     x="6"
     y="11.000057" />
  <rect
     style="fill:#d3d7cf;fill-opacity:1;stroke:none;opacity:0.50000000000000000"
     id="rect3350"
     width="4"
     height="3"
     x="6"
     y="2.0000572" />
  <rect
     style="fill:#d3d7cf;fill-opacity:1;stroke:none;opacity:0.50000000000000000"
     id="rect3352"
     width="4"
     height="3"
     x="2"
     y="5.0000572" />
  <rect
     style="fill:#d3d7cf;fill-opacity:1;stroke:none;opacity:0.50000000000000000"
     id="rect3354"
     width="4"
     height="3"
     x="10"
     y="5.0000572" />
  <rect
     style="fill:#d3d7cf;fill-opacity:1;stroke:none;opacity:0.50000000000000000"
     id="rect3356"
     width="4"
     height="3"
     x="6"
     y="8.0000572" />
</svg>
