<?xml version="1.0" encoding="UTF-8" standalone="no"?>
<!-- Created with Inkscape (http://www.inkscape.org/) -->

<svg
   xmlns:dc="http://purl.org/dc/elements/1.1/"
   xmlns:cc="http://creativecommons.org/ns#"
   xmlns:rdf="http://www.w3.org/1999/02/22-rdf-syntax-ns#"
   xmlns:svg="http://www.w3.org/2000/svg"
   xmlns="http://www.w3.org/2000/svg"
   xmlns:xlink="http://www.w3.org/1999/xlink"
   xmlns:sodipodi="http://sodipodi.sourceforge.net/DTD/sodipodi-0.dtd"
   xmlns:inkscape="http://www.inkscape.org/namespaces/inkscape"
   sodipodi:docname="go-home.svg"
   inkscape:version="0.48.4 r9939"
   version="1.1"
   id="svg2"
   height="128"
   width="128">
  <sodipodi:namedview
     id="base"
     pagecolor="#ffffff"
     bordercolor="#666666"
     borderopacity="1.0"
     inkscape:pageopacity="0.0"
     inkscape:pageshadow="2"
     inkscape:zoom="3.6203869"
     inkscape:cx="103.67138"
     inkscape:cy="5.8315343"
     inkscape:document-units="px"
     inkscape:current-layer="layer1"
     showgrid="true"
     showguides="true"
     inkscape:guide-bbox="true"
     inkscape:window-width="1221"
     inkscape:window-height="1000"
     inkscape:window-x="59"
     inkscape:window-y="24"
     inkscape:window-maximized="1">
    <inkscape:grid
       snapvisiblegridlinesonly="true"
       enabled="true"
       visible="true"
       empspacing="4"
       id="grid2985"
       type="xygrid" />
  </sodipodi:namedview>
  <defs
     id="defs4">
    <linearGradient
       id="linearGradient7110">
      <stop
         style="stop-color:#5a5a5a;stop-opacity:1;"
         offset="0"
         id="stop7112" />
      <stop
         style="stop-color:#202020;stop-opacity:1;"
         offset="1"
         id="stop7114" />
    </linearGradient>
    <linearGradient
       id="linearGradient4216-4-8-2">
      <stop
         id="stop4218-8-0-7"
         offset="0"
         style="stop-color:#494949;stop-opacity:1;" />
      <stop
         id="stop4220-1-6-4"
         offset="1"
         style="stop-color:#0f0f0f;stop-opacity:1;" />
    </linearGradient>
    <radialGradient
       inkscape:collect="always"
       xlink:href="#linearGradient4216-4-8-2"
       id="radialGradient5899"
       gradientUnits="userSpaceOnUse"
       gradientTransform="translate(0,2)"
       cx="64"
       cy="1020.3622"
       fx="64"
       fy="1020.3622"
       r="52" />
    <linearGradient
       id="linearGradient8794-33">
      <stop
         style="stop-color:#ffffff;stop-opacity:1;"
         offset="0"
         id="stop8796-9" />
      <stop
         style="stop-color:#cacaca;stop-opacity:1;"
         offset="1"
         id="stop8798-6" />
    </linearGradient>
    <radialGradient
       inkscape:collect="always"
       xlink:href="#linearGradient7110"
       id="radialGradient7116"
       cx="80"
       cy="972.36218"
       fx="80"
       fy="972.36218"
       r="52.5"
       gradientUnits="userSpaceOnUse" />
    <radialGradient
       inkscape:collect="always"
       xlink:href="#linearGradient8794-33"
       id="radialGradient6707"
       cx="64.000008"
       cy="988.36218"
       fx="64.000008"
       fy="988.36218"
       r="64"
       gradientUnits="userSpaceOnUse" />
    <radialGradient
       inkscape:collect="always"
       xlink:href="#linearGradient8794-33"
       id="radialGradient6974"
       cx="154"
       cy="1042.3622"
       fx="154"
       fy="1042.3622"
       r="8"
       gradientUnits="userSpaceOnUse"
       gradientTransform="matrix(1.25,3.5114281e-6,-3.511429e-6,1.2500003,-38.496342,-260.59143)" />
    <radialGradient
       inkscape:collect="always"
       xlink:href="#linearGradient8794-33"
       id="radialGradient6978"
       gradientUnits="userSpaceOnUse"
       gradientTransform="matrix(5.625,1.5801426e-5,-1.580143e-5,5.6250013,-793.23354,-4885.9291)"
       cx="154"
       cy="1042.3622"
       fx="154"
       fy="1042.3622"
       r="8" />
    <filter
       inkscape:collect="always"
       id="filter6982"
       x="-0.12000002"
       width="1.24"
       y="-0.11999998"
       height="1.24">
      <feGaussianBlur
         inkscape:collect="always"
         stdDeviation="3.6000005"
         id="feGaussianBlur6984" />
    </filter>
    <radialGradient
       inkscape:collect="always"
       xlink:href="#linearGradient8794-33"
       id="radialGradient6996"
       gradientUnits="userSpaceOnUse"
       gradientTransform="matrix(5.625,1.5801426e-5,-1.580143e-5,5.6250013,-793.23354,-4885.9291)"
       cx="154"
       cy="1042.3622"
       fx="154"
       fy="1042.3622"
       r="8" />
    <radialGradient
       inkscape:collect="always"
       xlink:href="#linearGradient8794-33"
       id="radialGradient7240"
       cx="154"
       cy="118.07777"
       fx="154"
       fy="118.07777"
       r="8"
       gradientTransform="matrix(1.2499999,9.1660466e-7,-9.1660345e-7,1.2499982,-38.499884,-29.597155)"
       gradientUnits="userSpaceOnUse" />
    <radialGradient
       inkscape:collect="always"
       xlink:href="#linearGradient8794-33"
       id="radialGradient7244"
       gradientUnits="userSpaceOnUse"
       gradientTransform="matrix(5.6249995,4.124721e-6,-4.1247155e-6,5.6249919,-793.24948,315.42496)"
       cx="154"
       cy="118.07777"
       fx="154"
       fy="118.07777"
       r="8" />
    <filter
       inkscape:collect="always"
       id="filter7248"
       x="-0.11625002"
       width="1.2325"
       y="-0.12399998"
       height="1.248">
      <feGaussianBlur
         inkscape:collect="always"
         stdDeviation="3.4875005"
         id="feGaussianBlur7250" />
    </filter>
    <radialGradient
       inkscape:collect="always"
       xlink:href="#linearGradient8794-33"
       id="radialGradient7262"
       gradientUnits="userSpaceOnUse"
       gradientTransform="matrix(5.6249995,4.124721e-6,-4.1247155e-6,5.6249919,-793.24948,315.42496)"
       cx="154"
       cy="118.07777"
       fx="154"
       fy="118.07777"
       r="8" />
  </defs>
  <metadata
     id="metadata7">
    <rdf:RDF>
      <cc:Work
         rdf:about="">
        <dc:format>image/svg+xml</dc:format>
        <dc:type
           rdf:resource="http://purl.org/dc/dcmitype/StillImage" />
        <dc:title></dc:title>
      </cc:Work>
    </rdf:RDF>
  </metadata>
  <g
     transform="translate(0,-924.36218)"
     id="layer1"
     inkscape:groupmode="layer"
     inkscape:label="Layer 1">
    <rect
       ry="8"
       rx="8"
       y="940.36218"
       x="12"
       height="104"
       width="104"
       id="rect6981"
       style="opacity:0.10000000000000001;fill:#000000;fill-opacity:1;stroke:#000000;stroke-width:10;stroke-miterlimit:4;stroke-dasharray:none" />
    <rect
       style="opacity:0.1;fill:#000000;fill-opacity:1;stroke:#000000;stroke-width:6;stroke-miterlimit:4;stroke-dasharray:none"
       id="rect6979"
       width="104"
       height="104"
       x="12"
       y="940.36218"
       rx="8"
       ry="8" />
    <rect
       ry="8"
       rx="8"
       y="938.36218"
       x="12"
       height="104"
       width="104"
       id="rect5969"
       style="fill:#000000;fill-opacity:1;stroke:#000000;opacity:0.20000000000000001;stroke-width:3;stroke-miterlimit:4;stroke-dasharray:none" />
    <rect
       style="fill:url(#radialGradient5899);fill-opacity:1;stroke:#1a1a1a"
       id="rect6936"
       width="104"
       height="104"
       x="12"
       y="938.36218"
       rx="8"
       ry="8" />
    <rect
       ry="8"
       rx="8"
       y="934.36218"
       x="12"
       height="104"
       width="104"
       id="rect6964"
       style="fill:url(#radialGradient7116);fill-opacity:1;stroke:#1a1a1a" />
    <text
       xml:space="preserve"
       style="font-size:24px;font-style:normal;font-weight:normal;line-height:125%;letter-spacing:0px;word-spacing:0px;fill:#000000;fill-opacity:1;stroke:none;font-family:Sans"
       x="-56"
       y="948.36218"
       id="text5893"
       sodipodi:linespacing="125%"><tspan
         sodipodi:role="line"
         id="tspan5895"
         x="-56"
         y="948.36218">128</tspan></text>
    <text
       sodipodi:linespacing="125%"
       id="text5901"
       y="1000.3622"
       x="184"
       style="font-size:16px;font-style:normal;font-weight:normal;line-height:125%;letter-spacing:0px;word-spacing:0px;fill:#000000;fill-opacity:1;stroke:none;font-family:Sans"
       xml:space="preserve"><tspan
         y="1000.3622"
         x="184"
         id="tspan5903"
         sodipodi:role="line">31 - 17</tspan></text>
    <text
       xml:space="preserve"
       style="font-size:16px;font-style:normal;font-weight:normal;line-height:125%;letter-spacing:0px;word-spacing:0px;fill:#000000;fill-opacity:1;stroke:none;font-family:Sans"
       x="172"
       y="1048.3622"
       id="text5905"
       sodipodi:linespacing="125%"><tspan
         sodipodi:role="line"
         id="tspan5907"
         x="172"
         y="1048.3622">16</tspan></text>
    <rect
       style="fill:none;stroke:#000000;stroke-width:1;stroke-linecap:round;stroke-linejoin:round;stroke-miterlimit:4;stroke-opacity:1;stroke-dasharray:none;stroke-dashoffset:0"
       id="rect5919"
       width="40"
       height="40"
       x="140"
       y="60"
       transform="translate(0,924.36218)"
       rx="4.5902016e-07" />
    <rect
       style="fill:none;stroke:#000000;stroke-width:1;stroke-linecap:round;stroke-linejoin:round;stroke-miterlimit:4;stroke-opacity:1;stroke-dasharray:none;stroke-dashoffset:0"
       id="rect5921"
       width="24"
       height="24"
       x="140"
       y="1032.3622"
       rx="4.5902016e-07" />
    <rect
       style="fill:#b3b3b3;fill-opacity:1;stroke:none"
       id="rect6935"
       width="32"
       height="4"
       x="144"
       y="56"
       transform="translate(0,924.36218)"
       rx="4.5902016e-07" />
    <rect
       style="fill:#b3b3b3;fill-opacity:1;stroke:none"
       id="rect6937"
       width="4"
       height="32"
       x="136"
       y="64"
       transform="translate(0,924.36218)"
       rx="4.5902016e-07" />
    <rect
       style="fill:#b3b3b3;fill-opacity:1;stroke:none"
       id="rect6939"
       width="16"
       height="4"
       x="144"
       y="104"
       rx="4.5902016e-07"
       transform="translate(0,924.36218)" />
    <rect
       style="fill:#b3b3b3;fill-opacity:1;stroke:none"
       id="rect6941"
       width="4"
       height="16"
       x="136"
       y="112"
       transform="translate(0,924.36218)"
       rx="4.5902016e-07" />
    <path
       style="fill:url(#radialGradient7240);stroke:none;fill-opacity:1"
       d="M 157 112 L 157 122 L 155 122 L 155 119 L 150 124 L 160 124 L 160 112 L 157 112 z M 150 124 C 150 122.34315 148.65685 121 147 121 C 145.34315 121 144 122.34315 144 124 C 144 125.65685 145.34315 127 147 127 C 148.65685 127 150 125.65685 150 124 z "
       transform="translate(0,924.36218)"
       id="path7227" />
    <g
       id="g7252">
      <path
         id="path7246"
         d="m 86.5,952.61218 0,45 -9,0 0,-13.5 -22.5,22.50002 45,0 0,-54.00002 -13.5,0 z M 55,1006.6122 c 0,-7.45582 -6.04418,-13.50002 -13.5,-13.50002 -7.45583,0 -13.5,6.0442 -13.5,13.50002 0,7.4558 6.04417,13.5 13.5,13.5 7.45582,0 13.5,-6.0442 13.5,-13.5 z"
         style="fill:#000000;fill-opacity:1;stroke:none;filter:url(#filter7248)"
         inkscape:connector-curvature="0" />
      <path
         inkscape:connector-curvature="0"
         style="fill:url(#radialGradient7244);fill-opacity:1;stroke:#ffffff;stroke-opacity:0.31372549999999999;stroke-width:2;stroke-miterlimit:4;stroke-dasharray:none"
         d="m 86.5,952.61218 0,45 -9,0 0,-13.5 -22.5,22.50002 45,0 0,-54.00002 -13.5,0 z M 55,1006.6122 c 0,-7.45582 -6.04418,-13.50002 -13.5,-13.50002 -7.45583,0 -13.5,6.0442 -13.5,13.50002 0,7.4558 6.04417,13.5 13.5,13.5 7.45582,0 13.5,-6.0442 13.5,-13.5 z"
         id="path7242" />
    </g>
    <g
       id="g7256"
       transform="matrix(0.36060057,0,0,0.36060057,136.92156,648.67941)">
      <path
         inkscape:connector-curvature="0"
         style="fill:#000000;fill-opacity:1;stroke:none;filter:url(#filter7248)"
         d="m 86.5,952.61218 0,45 -9,0 0,-13.5 -22.5,22.50002 45,0 0,-54.00002 -13.5,0 z M 55,1006.6122 c 0,-7.45582 -6.04418,-13.50002 -13.5,-13.50002 -7.45583,0 -13.5,6.0442 -13.5,13.50002 0,7.4558 6.04417,13.5 13.5,13.5 7.45582,0 13.5,-6.0442 13.5,-13.5 z"
         id="path7258" />
      <path
         id="path7260"
         d="m 86.5,952.61218 0,45 -9,0 0,-13.5 -22.5,22.50002 45,0 0,-54.00002 -13.5,0 z M 55,1006.6122 c 0,-7.45582 -6.04418,-13.50002 -13.5,-13.50002 -7.45583,0 -13.5,6.0442 -13.5,13.50002 0,7.4558 6.04417,13.5 13.5,13.5 7.45582,0 13.5,-6.0442 13.5,-13.5 z"
         style="fill:url(#radialGradient7262);fill-opacity:1;stroke:#ffffff;stroke-width:2;stroke-miterlimit:4;stroke-opacity:0.31372549;stroke-dasharray:none"
         inkscape:connector-curvature="0" />
    </g>
  </g>
</svg>
