<?xml version="1.0" encoding="UTF-8" standalone="no"?>
<!-- Created with Inkscape (http://www.inkscape.org/) -->

<svg
   xmlns:dc="http://purl.org/dc/elements/1.1/"
   xmlns:cc="http://creativecommons.org/ns#"
   xmlns:rdf="http://www.w3.org/1999/02/22-rdf-syntax-ns#"
   xmlns:svg="http://www.w3.org/2000/svg"
   xmlns="http://www.w3.org/2000/svg"
   xmlns:xlink="http://www.w3.org/1999/xlink"
   xmlns:sodipodi="http://sodipodi.sourceforge.net/DTD/sodipodi-0.dtd"
   xmlns:inkscape="http://www.inkscape.org/namespaces/inkscape"
   sodipodi:docname="list-add.svg"
   inkscape:version="0.48.4 r9939"
   version="1.1"
   id="svg2"
   height="128"
   width="128">
  <sodipodi:namedview
     id="base"
     pagecolor="#ffffff"
     bordercolor="#666666"
     borderopacity="1.0"
     inkscape:pageopacity="0.0"
     inkscape:pageshadow="2"
     inkscape:zoom="2.3548316"
     inkscape:cx="147.45504"
     inkscape:cy="52.588367"
     inkscape:document-units="px"
     inkscape:current-layer="layer1"
     showgrid="true"
     showguides="true"
     inkscape:guide-bbox="true"
     inkscape:window-width="1221"
     inkscape:window-height="1000"
     inkscape:window-x="59"
     inkscape:window-y="24"
     inkscape:window-maximized="1">
    <inkscape:grid
       snapvisiblegridlinesonly="true"
       enabled="true"
       visible="true"
       empspacing="4"
       id="grid2985"
       type="xygrid" />
  </sodipodi:namedview>
  <defs
     id="defs4">
    <linearGradient
       id="linearGradient7110">
      <stop
         style="stop-color:#5a5a5a;stop-opacity:1;"
         offset="0"
         id="stop7112" />
      <stop
         style="stop-color:#202020;stop-opacity:1;"
         offset="1"
         id="stop7114" />
    </linearGradient>
    <linearGradient
       id="linearGradient4216-4-8-2">
      <stop
         id="stop4218-8-0-7"
         offset="0"
         style="stop-color:#494949;stop-opacity:1;" />
      <stop
         id="stop4220-1-6-4"
         offset="1"
         style="stop-color:#0f0f0f;stop-opacity:1;" />
    </linearGradient>
    <radialGradient
       inkscape:collect="always"
       xlink:href="#linearGradient4216-4-8-2"
       id="radialGradient5899"
       gradientUnits="userSpaceOnUse"
       gradientTransform="translate(0,2)"
       cx="64"
       cy="1020.3622"
       fx="64"
       fy="1020.3622"
       r="52" />
    <linearGradient
       id="linearGradient8794-33">
      <stop
         style="stop-color:#ffffff;stop-opacity:1;"
         offset="0"
         id="stop8796-9" />
      <stop
         style="stop-color:#cacaca;stop-opacity:1;"
         offset="1"
         id="stop8798-6" />
    </linearGradient>
    <radialGradient
       inkscape:collect="always"
       xlink:href="#linearGradient7110"
       id="radialGradient7116"
       cx="80"
       cy="972.36218"
       fx="80"
       fy="972.36218"
       r="52.5"
       gradientUnits="userSpaceOnUse" />
    <filter
       inkscape:collect="always"
       id="filter6972"
       x="-0.12"
       width="1.24"
       y="-0.12"
       height="1.24">
      <feGaussianBlur
         inkscape:collect="always"
         stdDeviation="6.4016959"
         id="feGaussianBlur6974" />
    </filter>
    <filter
       inkscape:collect="always"
       id="filter3798"
       x="-0.12"
       width="1.24"
       y="-0.12"
       height="1.24">
      <feGaussianBlur
         inkscape:collect="always"
         stdDeviation="6.4016959"
         id="feGaussianBlur3800" />
    </filter>
    <radialGradient
       r="8"
       fy="118"
       fx="154"
       cy="118"
       cx="154"
       gradientTransform="matrix(5.625,0,0,5.625,-793.25,313.61216)"
       gradientUnits="userSpaceOnUse"
       id="radialGradient3892"
       xlink:href="#linearGradient3864"
       inkscape:collect="always" />
    <filter
       height="1.24"
       y="-0.11999998"
       width="1.24"
       x="-0.12000002"
       id="filter3878"
       inkscape:collect="always">
      <feGaussianBlur
         id="feGaussianBlur3880"
         stdDeviation="3.6000005"
         inkscape:collect="always" />
    </filter>
    <radialGradient
       r="7"
       fy="118.05513"
       fx="154"
       cy="118.05513"
       cx="154"
       gradientTransform="matrix(5.8775377,2.520355e-6,-2.5203555e-6,5.8775393,-828.28346,287.34528)"
       gradientUnits="userSpaceOnUse"
       id="radialGradient3838"
       xlink:href="#linearGradient8794-33-7"
       inkscape:collect="always" />
    <radialGradient
       r="7"
       fy="118.05513"
       fx="154"
       cy="118.05513"
       cx="154"
       gradientTransform="matrix(5.8775377,2.520355e-6,-2.5203555e-6,5.8775393,-828.28346,287.34528)"
       gradientUnits="userSpaceOnUse"
       id="radialGradient3052"
       xlink:href="#linearGradient8794-33-7"
       inkscape:collect="always" />
    <radialGradient
       gradientUnits="userSpaceOnUse"
       gradientTransform="matrix(1.142857,4.9007007e-7,-4.9007017e-7,1.1428573,-21.999932,-16.920239)"
       r="7"
       fy="118.05513"
       fx="154"
       cy="118.05513"
       cx="154"
       id="radialGradient4674"
       xlink:href="#linearGradient8794-33-7"
       inkscape:collect="always" />
    <radialGradient
       gradientUnits="userSpaceOnUse"
       gradientTransform="matrix(1.6197609,3.44156e-8,-3.4415612e-8,1.6197614,-49.580966,-607.21515)"
       r="39.512501"
       fy="975.19122"
       fx="80.000214"
       cy="975.19122"
       cx="80.000214"
       id="radialGradient4595"
       xlink:href="#linearGradient8794-33-7"
       inkscape:collect="always" />
    <radialGradient
       r="29.634501"
       fy="978.13043"
       fx="76"
       cy="978.13043"
       cx="76"
       gradientTransform="matrix(1.349778,1.3919825e-6,-1.5311818e-6,1.4847569,-26.581632,-475.92384)"
       gradientUnits="userSpaceOnUse"
       id="radialGradient4578"
       xlink:href="#linearGradient8794-33-7"
       inkscape:collect="always" />
    <radialGradient
       gradientUnits="userSpaceOnUse"
       gradientTransform="matrix(1.349778,1.3919825e-6,-1.5311818e-6,1.4847569,-26.581632,-475.92384)"
       r="29.634501"
       fy="978.13043"
       fx="76"
       cy="978.13043"
       cx="76"
       id="radialGradient4562"
       xlink:href="#linearGradient8794-33-7"
       inkscape:collect="always" />
    <radialGradient
       gradientUnits="userSpaceOnUse"
       gradientTransform="matrix(1,0,0,0.87499998,0,123.54529)"
       r="64"
       fy="988.36218"
       fx="64"
       cy="988.36218"
       cx="64"
       id="radialGradient4097"
       xlink:href="#linearGradient8794-33-7"
       inkscape:collect="always" />
    <radialGradient
       gradientUnits="userSpaceOnUse"
       gradientTransform="matrix(1.2499999,5.4263281e-7,-5.4263267e-7,1.2499996,-19.999462,-240.23307)"
       r="64"
       fy="970.07642"
       fx="80"
       cy="970.07642"
       cx="80"
       id="radialGradient4053"
       xlink:href="#linearGradient8794-33-7"
       inkscape:collect="always" />
    <radialGradient
       gradientUnits="userSpaceOnUse"
       gradientTransform="matrix(1.4444444,1.2726828e-8,0,0.87499998,-37.925914,123.54529)"
       r="64"
       fy="959.91772"
       fx="85.333328"
       cy="959.91772"
       cx="85.333328"
       id="radialGradient3971"
       xlink:href="#linearGradient6964-4"
       inkscape:collect="always" />
    <linearGradient
       id="linearGradient8794-33-7">
      <stop
         id="stop8796-9-9"
         offset="0"
         style="stop-color:#ffffff;stop-opacity:1;" />
      <stop
         id="stop8798-6-8"
         offset="1"
         style="stop-color:#cacaca;stop-opacity:1;" />
    </linearGradient>
    <linearGradient
       id="linearGradient6964-4-3">
      <stop
         id="stop6966-4-3"
         offset="0"
         style="stop-color:#ffffff;stop-opacity:1;" />
      <stop
         id="stop6970-3-7"
         offset="1"
         style="stop-color:#cacaca;stop-opacity:1;" />
    </linearGradient>
    <linearGradient
       id="linearGradient6964-4">
      <stop
         id="stop6966-4"
         offset="0"
         style="stop-color:#ffffff;stop-opacity:1;" />
      <stop
         id="stop6970-3"
         offset="1"
         style="stop-color:#cacaca;stop-opacity:1;" />
    </linearGradient>
    <linearGradient
       id="linearGradient4216-4-8-2-8">
      <stop
         style="stop-color:#494949;stop-opacity:1;"
         offset="0"
         id="stop4218-8-0-7-0" />
      <stop
         style="stop-color:#0f0f0f;stop-opacity:1;"
         offset="1"
         id="stop4220-1-6-4-5" />
    </linearGradient>
    <linearGradient
       id="linearGradient7110-6">
      <stop
         id="stop7112-3"
         offset="0"
         style="stop-color:#5a5a5a;stop-opacity:1;" />
      <stop
         id="stop7114-8"
         offset="1"
         style="stop-color:#202020;stop-opacity:1;" />
    </linearGradient>
    <linearGradient
       id="linearGradient3864">
      <stop
         id="stop3866"
         offset="0"
         style="stop-color:#ff0000;stop-opacity:1;" />
      <stop
         id="stop3868"
         offset="1"
         style="stop-color:#6b0000;stop-opacity:1;" />
    </linearGradient>
    <radialGradient
       inkscape:collect="always"
       xlink:href="#linearGradient3864"
       id="radialGradient3960"
       gradientUnits="userSpaceOnUse"
       gradientTransform="matrix(1.25,0,0,1.25,-150.5,1022.8622)"
       cx="154"
       cy="118"
       fx="154"
       fy="118"
       r="8" />
    <radialGradient
       inkscape:collect="always"
       xlink:href="#linearGradient3864"
       id="radialGradient5442"
       cx="113.05689"
       cy="1073.5663"
       fx="113.05689"
       fy="1073.5663"
       r="65.842667"
       gradientUnits="userSpaceOnUse"
       gradientTransform="translate(0,2.4879493e-4)" />
    <radialGradient
       inkscape:collect="always"
       xlink:href="#linearGradient3864"
       id="radialGradient5454"
       cx="76"
       cy="52.001984"
       fx="76"
       fy="52.001984"
       r="35.048592"
       gradientTransform="matrix(1.2553999,5.0060226e-8,-5.0060229e-8,1.2554,-19.410394,-13.283291)"
       gradientUnits="userSpaceOnUse" />
    <radialGradient
       inkscape:collect="always"
       xlink:href="#linearGradient3864"
       id="radialGradient5469"
       gradientUnits="userSpaceOnUse"
       gradientTransform="matrix(1.2553999,5.0060226e-8,-5.0060229e-8,1.2554,-19.410394,-13.283291)"
       cx="76"
       cy="52.001984"
       fx="76"
       fy="52.001984"
       r="35.048592" />
    <radialGradient
       inkscape:collect="always"
       xlink:href="#linearGradient3864"
       id="radialGradient5482"
       cx="154"
       cy="118"
       fx="154"
       fy="118"
       r="8"
       gradientUnits="userSpaceOnUse"
       gradientTransform="matrix(1.25,0,0,1.25,-38.5,-29.5)" />
  </defs>
  <metadata
     id="metadata7">
    <rdf:RDF>
      <cc:Work
         rdf:about="">
        <dc:format>image/svg+xml</dc:format>
        <dc:type
           rdf:resource="http://purl.org/dc/dcmitype/StillImage" />
        <dc:title></dc:title>
      </cc:Work>
    </rdf:RDF>
  </metadata>
  <g
     transform="translate(0,-924.36218)"
     id="layer1"
     inkscape:groupmode="layer"
     inkscape:label="Layer 1">
    <rect
       ry="8"
       rx="8"
       y="940.36218"
       x="12"
       height="104"
       width="104"
       id="rect6981"
       style="opacity:0.10000000000000001;fill:#000000;fill-opacity:1;stroke:#000000;stroke-width:10;stroke-miterlimit:4;stroke-dasharray:none" />
    <rect
       style="opacity:0.1;fill:#000000;fill-opacity:1;stroke:#000000;stroke-width:6;stroke-miterlimit:4;stroke-dasharray:none"
       id="rect6979"
       width="104"
       height="104"
       x="12"
       y="940.36218"
       rx="8"
       ry="8" />
    <rect
       ry="8"
       rx="8"
       y="938.36218"
       x="12"
       height="104"
       width="104"
       id="rect5969"
       style="fill:#000000;fill-opacity:1;stroke:#000000;opacity:0.20000000000000001;stroke-width:3;stroke-miterlimit:4;stroke-dasharray:none" />
    <rect
       style="fill:url(#radialGradient5899);fill-opacity:1;stroke:#1a1a1a"
       id="rect6936"
       width="104"
       height="104"
       x="12"
       y="938.36218"
       rx="8"
       ry="8" />
    <rect
       ry="8"
       rx="8"
       y="934.36218"
       x="12"
       height="104"
       width="104"
       id="rect6964"
       style="fill:url(#radialGradient7116);fill-opacity:1;stroke:#1a1a1a" />
    <text
       xml:space="preserve"
       style="font-size:24px;font-style:normal;font-weight:normal;line-height:125%;letter-spacing:0px;word-spacing:0px;fill:#000000;fill-opacity:1;stroke:none;font-family:Sans"
       x="-56"
       y="948.36218"
       id="text5893"
       sodipodi:linespacing="125%"><tspan
         sodipodi:role="line"
         id="tspan5895"
         x="-56"
         y="948.36218">128</tspan></text>
    <text
       sodipodi:linespacing="125%"
       id="text5901"
       y="1000.3622"
       x="184"
       style="font-size:16px;font-style:normal;font-weight:normal;line-height:125%;letter-spacing:0px;word-spacing:0px;fill:#000000;fill-opacity:1;stroke:none;font-family:Sans"
       xml:space="preserve"><tspan
         y="1000.3622"
         x="184"
         id="tspan5903"
         sodipodi:role="line">31 - 17</tspan></text>
    <text
       xml:space="preserve"
       style="font-size:16px;font-style:normal;font-weight:normal;line-height:125%;letter-spacing:0px;word-spacing:0px;fill:#000000;fill-opacity:1;stroke:none;font-family:Sans"
       x="172"
       y="1048.3622"
       id="text5905"
       sodipodi:linespacing="125%"><tspan
         sodipodi:role="line"
         id="tspan5907"
         x="172"
         y="1048.3622">16</tspan></text>
    <rect
       style="fill:none;stroke:#000000;stroke-width:1;stroke-linecap:round;stroke-linejoin:round;stroke-miterlimit:4;stroke-opacity:1;stroke-dasharray:none;stroke-dashoffset:0"
       id="rect5919"
       width="40"
       height="40"
       x="140"
       y="60"
       transform="translate(0,924.36218)"
       rx="4.5902016e-07" />
    <rect
       style="fill:none;stroke:#000000;stroke-width:1;stroke-linecap:round;stroke-linejoin:round;stroke-miterlimit:4;stroke-opacity:1;stroke-dasharray:none;stroke-dashoffset:0"
       id="rect5921"
       width="24"
       height="24"
       x="140"
       y="1032.3622"
       rx="4.5902016e-07" />
    <rect
       style="fill:#b3b3b3;fill-opacity:1;stroke:none"
       id="rect6935"
       width="32"
       height="4"
       x="144"
       y="56"
       transform="translate(0,924.36218)"
       rx="4.5902016e-07" />
    <rect
       style="fill:#b3b3b3;fill-opacity:1;stroke:none"
       id="rect6937"
       width="4"
       height="32"
       x="136"
       y="64"
       transform="translate(0,924.36218)"
       rx="4.5902016e-07" />
    <rect
       style="fill:#b3b3b3;fill-opacity:1;stroke:none"
       id="rect6939"
       width="16"
       height="4"
       x="144"
       y="104"
       rx="4.5902016e-07"
       transform="translate(0,924.36218)" />
    <rect
       style="fill:#b3b3b3;fill-opacity:1;stroke:none"
       id="rect6941"
       width="4"
       height="16"
       x="136"
       y="112"
       transform="translate(0,924.36218)"
       rx="4.5902016e-07" />
    <g
       id="g5456">
      <g
         id="g3026"
         transform="matrix(0.38730544,-0.38730544,0.38730544,0.38730544,-343.58559,628.35169)"
         style="fill:#000000;stroke:none;filter:url(#filter3798)">
        <path
           style="fill:#000000;fill-opacity:1;stroke:none"
           d="M 64,24.53125 C 43.312063,24.53125 26.53125,41.312063 26.53125,62 26.53125,82.687937 43.312063,99.46875 64,99.46875 84.687937,99.46875 101.46875,82.687937 101.46875,62 101.46875,41.312063 84.687937,24.53125 64,24.53125 z m 0,4.6875 C 82.101945,29.21875 96.78125,43.898055 96.78125,62 96.78125,80.101945 82.101945,94.78125 64,94.78125 45.898055,94.78125 31.21875,80.101945 31.21875,62 31.21875,43.898055 45.898055,29.21875 64,29.21875 z m -4.6875,9.375 0,18.71875 -18.71875,0 0,9.375 18.71875,0 0,18.71875 9.375,0 0,-18.71875 18.71875,0 0,-9.375 -18.71875,0 0,-18.71875 -9.375,0 z"
           transform="matrix(1.7085427,0,0,1.7085427,-45.346732,882.43253)"
           id="path3028"
           inkscape:connector-curvature="0" />
      </g>
      <path
         id="path10478"
         transform="translate(0,924.36218)"
         d="M 64 26.9375 C 55.025388 26.9375 46.063642 30.373855 39.21875 37.21875 C 25.528966 50.90853 25.528966 73.09148 39.21875 86.78125 C 52.908535 100.47105 75.091466 100.47105 88.78125 86.78125 C 102.47104 73.09148 102.47104 50.90853 88.78125 37.21875 C 81.936358 30.373855 72.974612 26.9375 64 26.9375 z M 64 31.3125 C 71.851493 31.3125 79.698219 34.32322 85.6875 40.3125 C 97.666062 52.29106 97.666062 71.7089 85.6875 83.6875 C 73.708938 95.666 54.291062 95.666 42.3125 83.6875 C 30.333938 71.7089 30.333938 52.29106 42.3125 40.3125 C 48.301781 34.32322 56.148507 31.3125 64 31.3125 z M 51.625 43.40625 L 45.40625 49.625 L 57.78125 62 L 45.40625 74.375 L 51.625 80.59375 L 64 68.21875 L 76.375 80.59375 L 82.59375 74.375 L 70.21875 62 L 82.59375 49.625 L 76.375 43.40625 L 64 55.78125 L 51.625 43.40625 z "
         style="fill:url(#radialGradient5454);fill-opacity:1;stroke:#ff0000;stroke-width:2;stroke-miterlimit:4;stroke-opacity:0.31372549999999999;stroke-dasharray:none" />
    </g>
    <text
       xml:space="preserve"
       style="font-size:24px;font-style:normal;font-weight:normal;line-height:125%;letter-spacing:0px;word-spacing:0px;fill:#000000;fill-opacity:1;stroke:none;font-family:Sans"
       x="-168"
       y="1076.3622"
       id="text5893-7"
       sodipodi:linespacing="125%"><tspan
         sodipodi:role="line"
         id="tspan5895-2"
         x="-168"
         y="1076.3622">128</tspan></text>
    <g
       id="g5461"
       transform="matrix(0.36801188,0,0,0.36801188,136.44724,641.36918)">
      <g
         style="fill:#000000;stroke:none;filter:url(#filter3798)"
         transform="matrix(0.38730544,-0.38730544,0.38730544,0.38730544,-343.58559,628.35169)"
         id="g5463">
        <path
           inkscape:connector-curvature="0"
           id="path5465"
           transform="matrix(1.7085427,0,0,1.7085427,-45.346732,882.43253)"
           d="M 64,24.53125 C 43.312063,24.53125 26.53125,41.312063 26.53125,62 26.53125,82.687937 43.312063,99.46875 64,99.46875 84.687937,99.46875 101.46875,82.687937 101.46875,62 101.46875,41.312063 84.687937,24.53125 64,24.53125 z m 0,4.6875 C 82.101945,29.21875 96.78125,43.898055 96.78125,62 96.78125,80.101945 82.101945,94.78125 64,94.78125 45.898055,94.78125 31.21875,80.101945 31.21875,62 31.21875,43.898055 45.898055,29.21875 64,29.21875 z m -4.6875,9.375 0,18.71875 -18.71875,0 0,9.375 18.71875,0 0,18.71875 9.375,0 0,-18.71875 18.71875,0 0,-9.375 -18.71875,0 0,-18.71875 -9.375,0 z"
           style="fill:#000000;fill-opacity:1;stroke:none" />
      </g>
      <path
         style="fill:url(#radialGradient5469);fill-opacity:1;stroke:#ff0000;stroke-width:2;stroke-miterlimit:4;stroke-opacity:0.31372549;stroke-dasharray:none"
         d="m 64,26.9375 c -8.974612,0 -17.936358,3.436355 -24.78125,10.28125 -13.689784,13.68978 -13.689784,35.87273 0,49.5625 13.689785,13.6898 35.872716,13.6898 49.5625,0 13.68979,-13.68977 13.68979,-35.87272 0,-49.5625 C 81.936358,30.373855 72.974612,26.9375 64,26.9375 z m 0,4.375 c 7.851493,0 15.698219,3.01072 21.6875,9 11.978562,11.97856 11.978562,31.3964 0,43.375 -11.978562,11.9785 -31.396438,11.9785 -43.375,0 -11.978562,-11.9786 -11.978562,-31.39644 0,-43.375 5.989281,-5.98928 13.836007,-9 21.6875,-9 z M 51.625,43.40625 45.40625,49.625 57.78125,62 45.40625,74.375 51.625,80.59375 64,68.21875 76.375,80.59375 82.59375,74.375 70.21875,62 82.59375,49.625 76.375,43.40625 64,55.78125 51.625,43.40625 z"
         transform="translate(0,924.36218)"
         id="path5467"
         inkscape:connector-curvature="0" />
    </g>
    <path
       style="fill:url(#radialGradient5482);fill-opacity:1;stroke:none;stroke-width:2;stroke-linejoin:miter;stroke-miterlimit:4;stroke-opacity:0.31372549000000000;stroke-dasharray:none"
       d="M 152 112 C 147.58172 112 144 115.58172 144 120 C 144 124.41828 147.58172 128 152 128 C 156.41828 128 160 124.41828 160 120 C 160 115.58172 156.41828 112 152 112 z M 149 115 L 152 118 L 155 115 L 157 117 L 154 120 L 157 123 L 155 125 L 152 122 L 149 125 L 147 123 L 150 120 L 147 117 L 149 115 z "
       transform="translate(0,924.36218)"
       id="path5471" />
  </g>
</svg>
