<?xml version="1.0" encoding="UTF-8" standalone="no"?>
<!-- Created with Inkscape (http://www.inkscape.org/) -->

<svg
   xmlns:dc="http://purl.org/dc/elements/1.1/"
   xmlns:cc="http://creativecommons.org/ns#"
   xmlns:rdf="http://www.w3.org/1999/02/22-rdf-syntax-ns#"
   xmlns:svg="http://www.w3.org/2000/svg"
   xmlns="http://www.w3.org/2000/svg"
   xmlns:xlink="http://www.w3.org/1999/xlink"
   xmlns:sodipodi="http://sodipodi.sourceforge.net/DTD/sodipodi-0.dtd"
   xmlns:inkscape="http://www.inkscape.org/namespaces/inkscape"
   sodipodi:docname="mail-send-receive.svg"
   inkscape:version="0.48.4 r9939"
   version="1.1"
   id="svg2"
   height="128"
   width="128">
  <sodipodi:namedview
     id="base"
     pagecolor="#ffffff"
     bordercolor="#666666"
     borderopacity="1.0"
     inkscape:pageopacity="0.0"
     inkscape:pageshadow="2"
     inkscape:zoom="2.5600001"
     inkscape:cx="168.82597"
     inkscape:cy="15.787529"
     inkscape:document-units="px"
     inkscape:current-layer="layer1"
     showgrid="true"
     showguides="true"
     inkscape:guide-bbox="true"
     inkscape:window-width="1221"
     inkscape:window-height="1000"
     inkscape:window-x="59"
     inkscape:window-y="24"
     inkscape:window-maximized="1">
    <inkscape:grid
       snapvisiblegridlinesonly="true"
       enabled="true"
       visible="true"
       empspacing="4"
       id="grid2985"
       type="xygrid" />
  </sodipodi:namedview>
  <defs
     id="defs4">
    <linearGradient
       id="linearGradient7110">
      <stop
         style="stop-color:#5a5a5a;stop-opacity:1;"
         offset="0"
         id="stop7112" />
      <stop
         style="stop-color:#202020;stop-opacity:1;"
         offset="1"
         id="stop7114" />
    </linearGradient>
    <linearGradient
       id="linearGradient4216-4-8-2">
      <stop
         id="stop4218-8-0-7"
         offset="0"
         style="stop-color:#494949;stop-opacity:1;" />
      <stop
         id="stop4220-1-6-4"
         offset="1"
         style="stop-color:#0f0f0f;stop-opacity:1;" />
    </linearGradient>
    <radialGradient
       inkscape:collect="always"
       xlink:href="#linearGradient4216-4-8-2"
       id="radialGradient5899"
       gradientUnits="userSpaceOnUse"
       gradientTransform="translate(0,2)"
       cx="64"
       cy="1020.3622"
       fx="64"
       fy="1020.3622"
       r="52" />
    <radialGradient
       inkscape:collect="always"
       xlink:href="#linearGradient7110"
       id="radialGradient7116"
       cx="80"
       cy="972.36218"
       fx="80"
       fy="972.36218"
       r="52.5"
       gradientUnits="userSpaceOnUse" />
    <linearGradient
       id="linearGradient6964-4">
      <stop
         style="stop-color:#ffffff;stop-opacity:1;"
         offset="0"
         id="stop6966-4" />
      <stop
         style="stop-color:#cacaca;stop-opacity:1;"
         offset="1"
         id="stop6970-3" />
    </linearGradient>
    <linearGradient
       id="linearGradient8794-33">
      <stop
         style="stop-color:#ffffff;stop-opacity:1;"
         offset="0"
         id="stop8796-9" />
      <stop
         style="stop-color:#cacaca;stop-opacity:1;"
         offset="1"
         id="stop8798-6" />
    </linearGradient>
    <radialGradient
       r="32"
       fy="46.695652"
       fx="84"
       cy="46.695652"
       cx="84"
       gradientTransform="matrix(0.78722727,0,0,1.1316392,13.617455,-8.16161)"
       gradientUnits="userSpaceOnUse"
       id="radialGradient5944"
       xlink:href="#linearGradient8794-33"
       inkscape:collect="always" />
    <radialGradient
       inkscape:collect="always"
       xlink:href="#linearGradient8794-33"
       id="radialGradient10267"
       gradientUnits="userSpaceOnUse"
       gradientTransform="matrix(0.78722727,0,0,1.1316392,13.617455,-8.16161)"
       cx="84"
       cy="46.695652"
       fx="84"
       fy="46.695652"
       r="32" />
    <radialGradient
       inkscape:collect="always"
       xlink:href="#linearGradient6964-4"
       id="radialGradient10297"
       cx="154"
       cy="118.5"
       fx="154"
       fy="118.5"
       r="6"
       gradientTransform="matrix(1.6666671,-2.1327557e-6,2.1327544e-6,1.6666661,-102.66697,-79.499605)"
       gradientUnits="userSpaceOnUse" />
    <radialGradient
       inkscape:collect="always"
       xlink:href="#linearGradient8794-33"
       id="radialGradient3924"
       gradientUnits="userSpaceOnUse"
       gradientTransform="matrix(5.625,0,0,5.625,-793.25,304.61216)"
       cx="154"
       cy="118"
       fx="154"
       fy="118"
       r="8" />
    <radialGradient
       inkscape:collect="always"
       xlink:href="#linearGradient8794-33"
       id="radialGradient3944"
       gradientUnits="userSpaceOnUse"
       gradientTransform="matrix(5.625,0,0,5.625,-793.25,304.61216)"
       cx="154"
       cy="118"
       fx="154"
       fy="118"
       r="8" />
    <radialGradient
       inkscape:collect="always"
       xlink:href="#linearGradient8794-33"
       id="radialGradient4305"
       cx="154.00002"
       cy="1046.1122"
       fx="154.00002"
       fy="1046.1122"
       r="7"
       gradientTransform="matrix(-1.6312602e-5,1.4285802,-1.4285787,-1.6312585e-5,1648.4561,826.37783)"
       gradientUnits="userSpaceOnUse" />
    <radialGradient
       inkscape:collect="always"
       xlink:href="#linearGradient8794-33"
       id="radialGradient4313"
       gradientUnits="userSpaceOnUse"
       gradientTransform="matrix(-1.6312602e-5,1.4285802,-1.4285787,-1.6312585e-5,1648.4561,826.37783)"
       cx="154.00002"
       cy="1046.1122"
       fx="154.00002"
       fy="1046.1122"
       r="7" />
    <radialGradient
       inkscape:collect="always"
       xlink:href="#linearGradient8794-33"
       id="radialGradient4315"
       gradientUnits="userSpaceOnUse"
       gradientTransform="matrix(-1.6312602e-5,1.4285802,-1.4285787,-1.6312585e-5,1648.4561,826.37783)"
       cx="154.00002"
       cy="1046.1122"
       fx="154.00002"
       fy="1046.1122"
       r="7" />
    <radialGradient
       inkscape:collect="always"
       xlink:href="#linearGradient8794-33"
       id="radialGradient4317"
       gradientUnits="userSpaceOnUse"
       gradientTransform="matrix(-1.6312602e-5,1.4285802,-1.4285787,-1.6312585e-5,1648.4561,826.37783)"
       cx="154.00002"
       cy="1046.1122"
       fx="154.00002"
       fy="1046.1122"
       r="7" />
    <filter
       inkscape:collect="always"
       id="filter4325"
       x="-0.1125"
       width="1.225"
       y="-0.12857143"
       height="1.2571429">
      <feGaussianBlur
         inkscape:collect="always"
         stdDeviation="0.75"
         id="feGaussianBlur4327" />
    </filter>
    <radialGradient
       inkscape:collect="always"
       xlink:href="#linearGradient8794-33"
       id="radialGradient4351"
       gradientUnits="userSpaceOnUse"
       gradientTransform="matrix(-1.6312602e-5,1.4285802,-1.4285787,-1.6312585e-5,1648.4561,826.37783)"
       cx="154.00002"
       cy="1046.1122"
       fx="154.00002"
       fy="1046.1122"
       r="7" />
    <radialGradient
       inkscape:collect="always"
       xlink:href="#linearGradient8794-33"
       id="radialGradient4353"
       gradientUnits="userSpaceOnUse"
       gradientTransform="matrix(-1.6312602e-5,1.4285802,-1.4285787,-1.6312585e-5,1648.4561,826.37783)"
       cx="154.00002"
       cy="1046.1122"
       fx="154.00002"
       fy="1046.1122"
       r="7" />
    <radialGradient
       inkscape:collect="always"
       xlink:href="#linearGradient8794-33"
       id="radialGradient4355"
       gradientUnits="userSpaceOnUse"
       gradientTransform="matrix(-1.6312602e-5,1.4285802,-1.4285787,-1.6312585e-5,1648.4561,826.37783)"
       cx="154.00002"
       cy="1046.1122"
       fx="154.00002"
       fy="1046.1122"
       r="7" />
    <radialGradient
       inkscape:collect="always"
       xlink:href="#linearGradient8794-33"
       id="radialGradient4417"
       cx="154"
       cy="118"
       fx="154"
       fy="118"
       r="7"
       gradientUnits="userSpaceOnUse"
       gradientTransform="matrix(1.4285714,1.0571433e-6,-1.0571433e-6,1.4285714,-65.999879,-50.571591)" />
    <radialGradient
       inkscape:collect="always"
       xlink:href="#linearGradient8794-33"
       id="radialGradient4421"
       gradientUnits="userSpaceOnUse"
       gradientTransform="matrix(7.3469386,5.436737e-6,-5.436737e-6,7.3469386,-1057.1422,109.13683)"
       cx="154"
       cy="118"
       fx="154"
       fy="118"
       r="7" />
    <filter
       inkscape:collect="always"
       id="filter4425"
       x="-0.12000002"
       width="1.24"
       y="-0.11999998"
       height="1.24">
      <feGaussianBlur
         inkscape:collect="always"
         stdDeviation="3.6000005"
         id="feGaussianBlur4427" />
    </filter>
    <radialGradient
       inkscape:collect="always"
       xlink:href="#linearGradient8794-33"
       id="radialGradient4439"
       gradientUnits="userSpaceOnUse"
       gradientTransform="matrix(7.3469386,5.436737e-6,-5.436737e-6,7.3469386,-1057.1422,109.13683)"
       cx="154"
       cy="118"
       fx="154"
       fy="118"
       r="7" />
  </defs>
  <metadata
     id="metadata7">
    <rdf:RDF>
      <cc:Work
         rdf:about="">
        <dc:format>image/svg+xml</dc:format>
        <dc:type
           rdf:resource="http://purl.org/dc/dcmitype/StillImage" />
        <dc:title></dc:title>
      </cc:Work>
    </rdf:RDF>
  </metadata>
  <g
     transform="translate(0,-924.36218)"
     id="layer1"
     inkscape:groupmode="layer"
     inkscape:label="Layer 1">
    <rect
       ry="8"
       rx="8"
       y="940.36218"
       x="12"
       height="104"
       width="104"
       id="rect6981"
       style="opacity:0.10000000000000001;fill:#000000;fill-opacity:1;stroke:#000000;stroke-width:10;stroke-miterlimit:4;stroke-dasharray:none" />
    <rect
       style="opacity:0.1;fill:#000000;fill-opacity:1;stroke:#000000;stroke-width:6;stroke-miterlimit:4;stroke-dasharray:none"
       id="rect6979"
       width="104"
       height="104"
       x="12"
       y="940.36218"
       rx="8"
       ry="8" />
    <rect
       ry="8"
       rx="8"
       y="938.36218"
       x="12"
       height="104"
       width="104"
       id="rect5969"
       style="fill:#000000;fill-opacity:1;stroke:#000000;opacity:0.20000000000000001;stroke-width:3;stroke-miterlimit:4;stroke-dasharray:none" />
    <rect
       style="fill:url(#radialGradient5899);fill-opacity:1;stroke:#1a1a1a"
       id="rect6936"
       width="104"
       height="104"
       x="12"
       y="938.36218"
       rx="8"
       ry="8" />
    <rect
       ry="8"
       rx="8"
       y="934.36218"
       x="12"
       height="104"
       width="104"
       id="rect6964"
       style="fill:url(#radialGradient7116);fill-opacity:1;stroke:#1a1a1a" />
    <text
       xml:space="preserve"
       style="font-size:24px;font-style:normal;font-weight:normal;line-height:125%;letter-spacing:0px;word-spacing:0px;fill:#000000;fill-opacity:1;stroke:none;font-family:Sans"
       x="-56"
       y="948.36218"
       id="text5893"
       sodipodi:linespacing="125%"><tspan
         sodipodi:role="line"
         id="tspan5895"
         x="-56"
         y="948.36218">128</tspan></text>
    <text
       sodipodi:linespacing="125%"
       id="text5901"
       y="1000.3622"
       x="184"
       style="font-size:16px;font-style:normal;font-weight:normal;line-height:125%;letter-spacing:0px;word-spacing:0px;fill:#000000;fill-opacity:1;stroke:none;font-family:Sans"
       xml:space="preserve"><tspan
         y="1000.3622"
         x="184"
         id="tspan5903"
         sodipodi:role="line">31 - 17</tspan></text>
    <text
       xml:space="preserve"
       style="font-size:16px;font-style:normal;font-weight:normal;line-height:125%;letter-spacing:0px;word-spacing:0px;fill:#000000;fill-opacity:1;stroke:none;font-family:Sans"
       x="172"
       y="1048.3622"
       id="text5905"
       sodipodi:linespacing="125%"><tspan
         sodipodi:role="line"
         id="tspan5907"
         x="172"
         y="1048.3622">16</tspan></text>
    <rect
       style="fill:none;stroke:#000000;stroke-width:1;stroke-linecap:round;stroke-linejoin:round;stroke-miterlimit:4;stroke-opacity:1;stroke-dasharray:none;stroke-dashoffset:0"
       id="rect5919"
       width="40"
       height="40"
       x="140"
       y="60"
       transform="translate(0,924.36218)"
       rx="4.5902016e-07" />
    <rect
       style="fill:none;stroke:#000000;stroke-width:1;stroke-linecap:round;stroke-linejoin:round;stroke-miterlimit:4;stroke-opacity:1;stroke-dasharray:none;stroke-dashoffset:0"
       id="rect5921"
       width="24"
       height="24"
       x="140"
       y="1032.3622"
       rx="4.5902016e-07" />
    <rect
       style="fill:#b3b3b3;fill-opacity:1;stroke:none"
       id="rect6935"
       width="32"
       height="4"
       x="144"
       y="56"
       transform="translate(0,924.36218)"
       rx="4.5902016e-07" />
    <rect
       style="fill:#b3b3b3;fill-opacity:1;stroke:none"
       id="rect6937"
       width="4"
       height="32"
       x="136"
       y="64"
       transform="translate(0,924.36218)"
       rx="4.5902016e-07" />
    <rect
       style="fill:#b3b3b3;fill-opacity:1;stroke:none"
       id="rect6939"
       width="16"
       height="4"
       x="144"
       y="104"
       rx="4.5902016e-07"
       transform="translate(0,924.36218)" />
    <rect
       style="fill:#b3b3b3;fill-opacity:1;stroke:none"
       id="rect6941"
       width="4"
       height="16"
       x="136"
       y="112"
       transform="translate(0,924.36218)"
       rx="4.5902016e-07" />
    <rect
       style="fill:url(#radialGradient7116);fill-opacity:1;stroke:#1a1a1a"
       id="rect12711"
       width="104"
       height="104"
       x="12"
       y="934.36218"
       rx="8"
       ry="8" />
    <path
       style="fill:url(#radialGradient4417);fill-opacity:1;stroke:none;stroke-width:2;stroke-linejoin:round;stroke-miterlimit:4;stroke-opacity:0.31372549999999999;stroke-dasharray:none"
       d="M 152 113 C 148.13401 113 145 116.13401 145 120 C 145 123.86599 148.13401 127 152 127 L 149 124 L 155 124 L 152 127 C 155.86599 127 159 123.86599 159 120 C 159 116.13401 155.86599 113 152 113 z M 152 117 C 153.65685 117 155 118.34315 155 120 C 155 121.65685 153.65685 123 152 123 C 150.34315 123 149 121.65685 149 120 C 149 118.34315 150.34315 117 152 117 z M 152 118 C 150.89543 118 150 118.89543 150 120 C 150 121.10457 150.89543 122 152 122 C 153.10457 122 154 121.10457 154 120 C 154 118.89543 153.10457 118 152 118 z M 152 119 C 152.55228 119 153 119.44772 153 120 C 153 120.55228 152.55228 121 152 121 C 151.44772 121 151 120.55228 151 120 C 151 119.44772 151.44772 119 152 119 z "
       transform="translate(0,924.36218)"
       id="path4376" />
    <g
       id="g4429">
      <path
         id="path4423"
         d="m 64,950.36218 c -19.88223,0 -36,16.1177 -36,36 0,19.88222 16.11777,36.00002 36,36.00002 l -15.42857,-15.4286 30.85714,0 L 64,1022.3622 c 19.88223,0 36,-16.1178 36,-36.00002 0,-19.8823 -16.11777,-36 -36,-36 z m 0,20.5714 c 8.52094,0 15.42857,6.9076 15.42857,15.4286 0,8.5209 -6.90763,15.42862 -15.42857,15.42862 -8.52094,0 -15.42857,-6.90772 -15.42857,-15.42862 0,-8.521 6.90763,-15.4286 15.42857,-15.4286 z m 0,5.1429 c -5.68065,0 -10.28571,4.605 -10.28571,10.2857 0,5.6806 4.60506,10.2857 10.28571,10.2857 5.68065,0 10.28571,-4.6051 10.28571,-10.2857 0,-5.6807 -4.60506,-10.2857 -10.28571,-10.2857 z m 0,5.1428 c 2.8403,0 5.14286,2.3026 5.14286,5.1429 0,2.8403 -2.30256,5.1428 -5.14286,5.1428 -2.8403,0 -5.14286,-2.3025 -5.14286,-5.1428 0,-2.8403 2.30256,-5.1429 5.14286,-5.1429 z"
         style="fill:#000000;fill-opacity:1;stroke:none;filter:url(#filter4425)"
         inkscape:connector-curvature="0" />
      <path
         inkscape:connector-curvature="0"
         style="fill:url(#radialGradient4421);fill-opacity:1;stroke:#ffffff;stroke-opacity:0.31372549999999999;stroke-width:2;stroke-miterlimit:4;stroke-dasharray:none"
         d="m 64,950.36218 c -19.88223,0 -36,16.1177 -36,36 0,19.88222 16.11777,36.00002 36,36.00002 l -15.42857,-15.4286 30.85714,0 L 64,1022.3622 c 19.88223,0 36,-16.1178 36,-36.00002 0,-19.8823 -16.11777,-36 -36,-36 z m 0,20.5714 c 8.52094,0 15.42857,6.9076 15.42857,15.4286 0,8.5209 -6.90763,15.42862 -15.42857,15.42862 -8.52094,0 -15.42857,-6.90772 -15.42857,-15.42862 0,-8.521 6.90763,-15.4286 15.42857,-15.4286 z m 0,5.1429 c -5.68065,0 -10.28571,4.605 -10.28571,10.2857 0,5.6806 4.60506,10.2857 10.28571,10.2857 5.68065,0 10.28571,-4.6051 10.28571,-10.2857 0,-5.6807 -4.60506,-10.2857 -10.28571,-10.2857 z m 0,5.1428 c 2.8403,0 5.14286,2.3026 5.14286,5.1429 0,2.8403 -2.30256,5.1428 -5.14286,5.1428 -2.8403,0 -5.14286,-2.3025 -5.14286,-5.1428 0,-2.8403 2.30256,-5.1429 5.14286,-5.1429 z"
         id="path4419" />
    </g>
    <g
       id="g4433"
       transform="matrix(0.35842285,0,0,0.35842285,137.06094,650.82743)">
      <path
         inkscape:connector-curvature="0"
         style="fill:#000000;fill-opacity:1;stroke:none;filter:url(#filter4425)"
         d="m 64,950.36218 c -19.88223,0 -36,16.1177 -36,36 0,19.88222 16.11777,36.00002 36,36.00002 l -15.42857,-15.4286 30.85714,0 L 64,1022.3622 c 19.88223,0 36,-16.1178 36,-36.00002 0,-19.8823 -16.11777,-36 -36,-36 z m 0,20.5714 c 8.52094,0 15.42857,6.9076 15.42857,15.4286 0,8.5209 -6.90763,15.42862 -15.42857,15.42862 -8.52094,0 -15.42857,-6.90772 -15.42857,-15.42862 0,-8.521 6.90763,-15.4286 15.42857,-15.4286 z m 0,5.1429 c -5.68065,0 -10.28571,4.605 -10.28571,10.2857 0,5.6806 4.60506,10.2857 10.28571,10.2857 5.68065,0 10.28571,-4.6051 10.28571,-10.2857 0,-5.6807 -4.60506,-10.2857 -10.28571,-10.2857 z m 0,5.1428 c 2.8403,0 5.14286,2.3026 5.14286,5.1429 0,2.8403 -2.30256,5.1428 -5.14286,5.1428 -2.8403,0 -5.14286,-2.3025 -5.14286,-5.1428 0,-2.8403 2.30256,-5.1429 5.14286,-5.1429 z"
         id="path4435" />
      <path
         id="path4437"
         d="m 64,950.36218 c -19.88223,0 -36,16.1177 -36,36 0,19.88222 16.11777,36.00002 36,36.00002 l -15.42857,-15.4286 30.85714,0 L 64,1022.3622 c 19.88223,0 36,-16.1178 36,-36.00002 0,-19.8823 -16.11777,-36 -36,-36 z m 0,20.5714 c 8.52094,0 15.42857,6.9076 15.42857,15.4286 0,8.5209 -6.90763,15.42862 -15.42857,15.42862 -8.52094,0 -15.42857,-6.90772 -15.42857,-15.42862 0,-8.521 6.90763,-15.4286 15.42857,-15.4286 z m 0,5.1429 c -5.68065,0 -10.28571,4.605 -10.28571,10.2857 0,5.6806 4.60506,10.2857 10.28571,10.2857 5.68065,0 10.28571,-4.6051 10.28571,-10.2857 0,-5.6807 -4.60506,-10.2857 -10.28571,-10.2857 z m 0,5.1428 c 2.8403,0 5.14286,2.3026 5.14286,5.1429 0,2.8403 -2.30256,5.1428 -5.14286,5.1428 -2.8403,0 -5.14286,-2.3025 -5.14286,-5.1428 0,-2.8403 2.30256,-5.1429 5.14286,-5.1429 z"
         style="fill:url(#radialGradient4439);fill-opacity:1;stroke:#ffffff;stroke-width:2;stroke-miterlimit:4;stroke-opacity:0.31372549;stroke-dasharray:none"
         inkscape:connector-curvature="0" />
    </g>
  </g>
</svg>
