<?xml version="1.0" encoding="UTF-8" standalone="no"?>
<!-- Created with Inkscape (http://www.inkscape.org/) -->

<svg
   width="128"
   height="128"
   id="svg2"
   version="1.1"
   inkscape:version="1.1.1 (3bf5ae0d25, 2021-09-20)"
   sodipodi:docname="folder-dropbox.svg"
   xmlns:inkscape="http://www.inkscape.org/namespaces/inkscape"
   xmlns:sodipodi="http://sodipodi.sourceforge.net/DTD/sodipodi-0.dtd"
   xmlns:xlink="http://www.w3.org/1999/xlink"
   xmlns="http://www.w3.org/2000/svg"
   xmlns:svg="http://www.w3.org/2000/svg"
   xmlns:rdf="http://www.w3.org/1999/02/22-rdf-syntax-ns#"
   xmlns:cc="http://creativecommons.org/ns#"
   xmlns:dc="http://purl.org/dc/elements/1.1/">
  <defs
     id="defs4">
    <inkscape:perspective
       sodipodi:type="inkscape:persp3d"
       inkscape:vp_x="0 : 64 : 1"
       inkscape:vp_y="0 : 1000 : 0"
       inkscape:vp_z="128 : 64 : 1"
       inkscape:persp3d-origin="64 : 42.666667 : 1"
       id="perspective8890" />
    <linearGradient
       id="linearGradient3785-6">
      <stop
         style="stop-color:#ffffff;stop-opacity:1;"
         offset="0"
         id="stop3787-4" />
      <stop
         style="stop-color:#d6d6d6;stop-opacity:1;"
         offset="1"
         id="stop3789-3" />
    </linearGradient>
    <linearGradient
       id="linearGradient3802-3">
      <stop
         style="stop-color:#ffc475;stop-opacity:1;"
         offset="0"
         id="stop3804-4" />
      <stop
         style="stop-color:#ff004a;stop-opacity:1;"
         offset="1"
         id="stop3806-1" />
    </linearGradient>
    <radialGradient
       inkscape:collect="always"
       xlink:href="#linearGradient3802-3"
       id="radialGradient3852"
       cx="153.60025"
       cy="1046.2241"
       fx="153.60025"
       fy="1046.2241"
       r="7.5"
       gradientTransform="matrix(1.6666654,-3.5764157e-7,3.5147543e-7,1.5999884,-101.0006,-626.5843)"
       gradientUnits="userSpaceOnUse" />
    <linearGradient
       id="linearGradient3802-3-5">
      <stop
         style="stop-color:#ffc475;stop-opacity:1;"
         offset="0"
         id="stop3804-4-7" />
      <stop
         style="stop-color:#ff004a;stop-opacity:1;"
         offset="1"
         id="stop3806-1-0" />
    </linearGradient>
    <linearGradient
       id="linearGradient3785-0-1">
      <stop
         style="stop-color:#ffffff;stop-opacity:1;"
         offset="0"
         id="stop3787-7-8" />
      <stop
         style="stop-color:#d6d6d6;stop-opacity:1;"
         offset="1"
         id="stop3789-1-7" />
    </linearGradient>
    <clipPath
       clipPathUnits="userSpaceOnUse"
       id="clipPath4405">
      <path
         id="path4407"
         style="opacity:0.8;fill:#ebebeb;fill-opacity:1;stroke:none;stroke-width:0.416667;stroke-miterlimit:4;stroke-dasharray:none"
         d="m 4,936.36218 c -2.2159999,0 -4,1.784 -4,4 v 8 28 c 0,-2.216 1.7840001,-4 4,-4 H 22.666016 25.333984 40 c 7.999998,0 8.000003,-8 16,-8 h 68 c 2.216,0 4,1.784 4,4 v -20 c 0,-2.216 -1.784,-4 -4,-4 H 53.333984 c -10.666667,0 -10.667318,-8 -21.333984,-8 z" />
    </clipPath>
    <filter
       inkscape:collect="always"
       style="color-interpolation-filters:sRGB"
       id="filter4275"
       x="-0.059765635"
       y="-0.10065787"
       width="1.1195313"
       height="1.2013157">
      <feGaussianBlur
         inkscape:collect="always"
         stdDeviation="3.1875004"
         id="feGaussianBlur4277" />
    </filter>
    <radialGradient
       inkscape:collect="always"
       xlink:href="#coverGradient"
       id="radialGradient2626"
       cx="72.521233"
       cy="998.11505"
       fx="72.521233"
       fy="998.11505"
       r="64"
       gradientTransform="matrix(1.4375003,0,-2.6475526e-5,1.4375021,-40.222863,-458.43033)"
       gradientUnits="userSpaceOnUse" />
    <linearGradient
       inkscape:collect="always"
       id="coverGradient">
      <stop
         style="stop-color:#ffffff;stop-opacity:0.8"
         offset="0"
         id="stop8414" />
      <stop
         style="stop-color:#ebebeb;stop-opacity:0.8"
         offset="1"
         id="stop8416" />
    </linearGradient>
    <radialGradient
       inkscape:collect="always"
       xlink:href="#coverGradient"
       id="radialGradient4484"
       cx="156"
       cy="76.111115"
       fx="156"
       fy="76.111115"
       r="16"
       gradientTransform="matrix(1.53125,0,0,1.5312505,-82.875,887.817)"
       gradientUnits="userSpaceOnUse" />
    <clipPath
       clipPathUnits="userSpaceOnUse"
       id="clipPath3872">
      <path
         id="path3874"
         style="fill:#ffffff;stroke:none;stroke-width:9.66839;stroke-linecap:round;stroke-linejoin:round"
         d="m 61.437138,67.14527 c -5.248399,0.007 -9.843042,3.52518 -11.217732,8.59035 -0.140209,-0.01 -0.280647,-0.014 -0.421143,-0.015 -4.059824,0 -7.350941,3.2912 -7.350868,7.351 3.8e-5,4.0597 3.291122,7.3508 7.350868,7.3508 h 31.853764 c 0.347973,0 1.123143,-0.1439 1.225145,-0.1651 2.160108,-0.5577 3.670896,-2.5041 3.675434,-4.735 1.2e-5,-2.7065 -2.194056,-4.9006 -4.900579,-4.9006 7e-6,-5.41304 -4.388124,-9.80117 -9.801159,-9.80117 -0.59126,0.007 -1.180712,0.0666 -1.761145,0.17945 -2.207208,-2.4536 -5.352294,-3.8548 -8.652585,-3.85489 z"
         sodipodi:nodetypes="ccccscccccccc" />
    </clipPath>
    <filter
       inkscape:collect="always"
       style="color-interpolation-filters:sRGB"
       id="filter1080"
       x="-0.062002533"
       y="-0.1174807"
       width="1.1240051"
       height="1.2349614">
      <feGaussianBlur
         inkscape:collect="always"
         stdDeviation="0.72276447"
         id="feGaussianBlur1082" />
    </filter>
    <clipPath
       clipPathUnits="userSpaceOnUse"
       id="clipPath1198">
      <path
         id="path1200"
         style="opacity:1;fill:#ef2929;stroke:none;stroke-width:2;stroke-linecap:round;stroke-linejoin:round;stroke-miterlimit:4;stroke-dasharray:none"
         d="m 61.437138,991.50745 c -5.248399,0.007 -9.843042,3.52518 -11.217732,8.59035 -0.140209,-0.01 -0.280647,-0.014 -0.421143,-0.015 -4.059824,0 -7.350941,3.2912 -7.350868,7.351 3.8e-5,4.0597 3.291122,7.3508 7.350868,7.3508 h 31.853764 c 0.347973,0 1.123143,-0.1439 1.225145,-0.1651 2.160108,-0.5577 3.670896,-2.5041 3.675434,-4.735 1.2e-5,-2.7065 -2.194056,-4.9006 -4.900579,-4.9006 7e-6,-5.41304 -4.388124,-9.80117 -9.801159,-9.80117 -0.59126,0.007 -1.180712,0.0666 -1.761145,0.17945 -2.207208,-2.4536 -5.352294,-3.8548 -8.652585,-3.85489 z"
         sodipodi:nodetypes="ccccscccccccc"
         clip-path="none" />
    </clipPath>
  </defs>
  <sodipodi:namedview
     id="base"
     pagecolor="#ffffff"
     bordercolor="#666666"
     borderopacity="1.0"
     inkscape:pageopacity="0.0"
     inkscape:pageshadow="2"
     inkscape:zoom="3.3573736"
     inkscape:cx="65.527412"
     inkscape:cy="76.696857"
     inkscape:document-units="px"
     inkscape:current-layer="layer1"
     showgrid="true"
     inkscape:window-width="1920"
     inkscape:window-height="1001"
     inkscape:window-x="0"
     inkscape:window-y="0"
     inkscape:window-maximized="1"
     inkscape:pagecheckerboard="0">
    <inkscape:grid
       type="xygrid"
       id="grid3000"
       empspacing="4"
       visible="true"
       enabled="true"
       snapvisiblegridlinesonly="true" />
  </sodipodi:namedview>
  <metadata
     id="metadata7">
    <rdf:RDF>
      <cc:Work
         rdf:about="">
        <dc:format>image/svg+xml</dc:format>
        <dc:type
           rdf:resource="http://purl.org/dc/dcmitype/StillImage" />
      </cc:Work>
    </rdf:RDF>
  </metadata>
  <g
     inkscape:label="Ebene 1"
     inkscape:groupmode="layer"
     id="layer1"
     transform="translate(0,-924.36218)">
    <g
       id="icon31">
      <path
         style="fill:#ebebeb;fill-opacity:0.8"
         d="m 145,992.36218 c -0.554,0 -1,0.446 -1,1 v 2.39062 0.60938 20.60942 c 0,0.7707 0.61985,1.3906 1.39062,1.3906 h 29.21876 c 0.77077,0 1.39062,-0.6199 1.39062,-1.3906 v -21.2188 c 0,-0.77077 -0.61985,-1.39062 -1.39062,-1.39062 H 154 c -2,0 -2,-2 -4,-2 h -2 z"
         id="back31"
         sodipodi:nodetypes="ssccsssssssscs" />
      <rect
         style="fill:#ffffff;fill-opacity:0.8;stroke:none"
         id="paperB31"
         width="27"
         height="18.999998"
         x="147"
         y="996.36218"
         rx="0.99999738"
         ry="0.99999738" />
      <rect
         style="fill:#ffffff;fill-opacity:0.8;stroke:none"
         id="paperA31"
         width="27"
         height="18.999998"
         x="146"
         y="997.36218"
         rx="0.99999738"
         ry="0.99999738" />
      <path
         style="fill:url(#radialGradient4484);fill-opacity:1"
         d="m 156,1000.3622 c -2,0 -2,2 -4,2 h -1 -5.60938 c -0.77077,0 -1.39062,0.6198 -1.39062,1.3906 v 1.5469 0.6719 11 c 0,0.7707 0.61986,1.3906 1.39062,1.3906 h 29.21876 c 0.77076,0 1.39062,-0.6199 1.39062,-1.3906 v -15.2188 c 0,-0.7708 -0.61986,-1.3906 -1.39062,-1.3906 z"
         id="front31"
         inkscape:connector-curvature="0"
         sodipodi:nodetypes="sscssccsssssss" />
    </g>
    <g
       id="icon16">
      <path
         style="fill:#ebebeb;fill-opacity:1;stroke:none"
         d="m 144,1037.3622 v 1 6 h 16 v -6 h -12 v -1 z"
         id="back16" />
      <rect
         style="fill:#ffffff;fill-opacity:1;stroke:none"
         id="paper16"
         width="14"
         height="5"
         x="145"
         y="1039.3622" />
      <path
         style="fill:#d3d7cf;fill-opacity:1;stroke:none"
         d="m 148,1041.3622 v 1 h -4 v 8 h 16 v -9 z"
         id="front16" />
    </g>
    <g
       id="icon128">
      <path
         id="back"
         d="m 4.0000017,936.36217 c -2.2159999,0 -3.9999999,1.784 -3.9999999,4 v 8 88.00003 c 0,2.216 1.784,4 3.9999999,4 H 124 c 2.216,0 4,-1.784 4,-4 v -88.00003 c 0,-2.216 -1.784,-4 -4,-4 H 53.333334 c -10.666667,0 -10.666667,-8 -21.333333,-8 z"
         style="opacity:1;fill:#ebebeb;fill-opacity:0.8;stroke:none;stroke-width:0.416667;stroke-miterlimit:4;stroke-dasharray:none"
         inkscape:connector-curvature="0" />
      <rect
         style="opacity:1;fill:#ffffff;fill-opacity:0.8;stroke:none;stroke-width:0.416667;stroke-miterlimit:4;stroke-dasharray:none"
         id="paperB"
         width="108"
         height="76"
         x="12"
         y="952.36218"
         rx="3.9999986"
         ry="3.9999986" />
      <rect
         style="opacity:1;fill:#ffffff;fill-opacity:0.8;stroke:none;stroke-width:0.416667;stroke-miterlimit:4;stroke-dasharray:none"
         id="paperA"
         width="108"
         height="76"
         x="8"
         y="956.36218"
         rx="3.9999986"
         ry="3.9999986" />
      <path
         id="path4255"
         d="m 56,964.36217 c -7.999997,0 -8.000001,8 -15.999999,8 H 25.333334 22.666668 4.0000017 c -2.2159999,0 -3.9999999,1.784 -3.9999999,4 v 6.66666 4 49.33337 c 0,2.2159 1.784,4 3.9999999,4 H 124 c 2.216,0 4,-1.7841 4,-4 v -68.00003 c 0,-2.216 -1.784,-4 -4,-4 z"
         style="opacity:0.5;fill:#000000;fill-opacity:1;stroke:none;stroke-width:0.416667;stroke-miterlimit:4;stroke-dasharray:none;filter:url(#filter4275)"
         inkscape:connector-curvature="0"
         clip-path="url(#clipPath4405)" />
      <path
         id="front"
         d="m 56,964.36217 c -7.999997,0 -8.000001,8 -15.999999,8 H 25.333334 22.666668 4.0000017 c -2.2159999,0 -3.9999999,1.784 -3.9999999,4 v 6.66666 4 49.33337 c 0,2.2159 1.784,4 3.9999999,4 H 124 c 2.216,0 4,-1.7841 4,-4 v -68.00003 c 0,-2.216 -1.784,-4 -4,-4 z"
         style="opacity:1;fill:url(#radialGradient2626);fill-opacity:1;stroke:none;stroke-width:0.416667;stroke-miterlimit:4;stroke-dasharray:none"
         inkscape:connector-curvature="0" />
    </g>
    <text
       style="font-style:normal;font-weight:normal;font-size:24px;line-height:0%;font-family:sans-serif;letter-spacing:0px;word-spacing:0px;fill:#000000;fill-opacity:1;stroke:none"
       xml:space="preserve"
       id="text5893-3"
       y="948.36218"
       x="-56"><tspan
         id="tspan5895-8"
         y="948.36218"
         x="-56"
         style="font-family:sans-serif">128</tspan></text>
    <text
       style="font-style:normal;font-weight:normal;font-size:16px;line-height:0%;font-family:sans-serif;letter-spacing:0px;word-spacing:0px;fill:#000000;fill-opacity:1;stroke:none"
       xml:space="preserve"
       id="text5901"
       y="1000.3622"
       x="184"><tspan
         id="tspan5903"
         y="1000.3622"
         x="184"
         style="font-family:sans-serif">31 - 17</tspan></text>
    <text
       style="font-style:normal;font-weight:normal;font-size:16px;line-height:0%;font-family:sans-serif;letter-spacing:0px;word-spacing:0px;fill:#000000;fill-opacity:1;stroke:none"
       xml:space="preserve"
       id="text5905"
       y="1048.3622"
       x="172"><tspan
         id="tspan5907"
         y="1048.3622"
         x="172"
         style="font-family:sans-serif">16</tspan></text>
    <rect
       style="fill:none;stroke:#000000;stroke-width:1;stroke-linecap:round;stroke-linejoin:round;stroke-miterlimit:4;stroke-dasharray:none;stroke-dashoffset:0;stroke-opacity:1"
       id="rect5919"
       y="984.36218"
       x="140"
       rx="4.5902016e-07"
       height="40"
       width="40" />
    <rect
       style="fill:none;stroke:#000000;stroke-width:1;stroke-linecap:round;stroke-linejoin:round;stroke-miterlimit:4;stroke-dasharray:none;stroke-dashoffset:0;stroke-opacity:1"
       id="rect5921"
       y="1032.3622"
       x="140"
       rx="4.5902016e-07"
       height="24"
       width="24" />
    <rect
       style="fill:#b3b3b3;fill-opacity:1;stroke:none"
       id="rect6935"
       y="980.36218"
       x="144"
       rx="4.5902016e-07"
       height="4"
       width="32" />
    <rect
       style="fill:#b3b3b3;fill-opacity:1;stroke:none"
       id="rect6937"
       y="988.36218"
       x="136"
       rx="4.5902016e-07"
       height="32"
       width="4" />
    <rect
       style="fill:#b3b3b3;fill-opacity:1;stroke:none"
       id="rect6939"
       y="1028.3622"
       x="144"
       rx="4.5902016e-07"
       height="4"
       width="16" />
    <rect
       style="fill:#b3b3b3;fill-opacity:1;stroke:none"
       id="rect6941"
       y="1036.3622"
       x="136"
       rx="4.5902016e-07"
       height="16"
       width="4" />
    <path
       id="path3495"
       style="fill:#ffffff;stroke:none;stroke-width:9.66839;stroke-linecap:round;stroke-linejoin:round"
       d="m 61.437138,991.50745 c -5.248399,0.007 -9.843042,3.52518 -11.217732,8.59035 -0.140209,-0.01 -0.280647,-0.014 -0.421143,-0.015 -4.059824,0 -7.350941,3.2912 -7.350868,7.351 3.8e-5,4.0597 3.291122,7.3508 7.350868,7.3508 h 31.853764 c 0.347973,0 1.123143,-0.1439 1.225145,-0.1651 2.160108,-0.5577 3.670896,-2.5041 3.675434,-4.735 1.2e-5,-2.7065 -2.194056,-4.9006 -4.900579,-4.9006 7e-6,-5.41304 -4.388124,-9.80117 -9.801159,-9.80117 -0.59126,0.007 -1.180712,0.0666 -1.761145,0.17945 -2.207208,-2.4536 -5.352294,-3.8548 -8.652585,-3.85489 z"
       sodipodi:nodetypes="ccccscccccccc"
       clip-path="none" />
    <path
       id="path1042"
       style="fill:#ffffff;stroke:#000000;stroke-width:2;stroke-linecap:round;stroke-linejoin:round;stroke-miterlimit:4;stroke-dasharray:none;opacity:0.5;filter:url(#filter1080)"
       d="m 61.437138,991.50745 c -5.248399,0.007 -9.843042,3.52518 -11.217732,8.59035 -0.140209,-0.01 -0.280647,-0.014 -0.421143,-0.015 -4.059824,0 -7.350941,3.2912 -7.350868,7.351 3.8e-5,4.0597 3.291122,7.3508 7.350868,7.3508 h 31.853764 c 0.347973,0 1.123143,-0.1439 1.225145,-0.1651 2.160108,-0.5577 3.670896,-2.5041 3.675434,-4.735 1.2e-5,-2.7065 -2.194056,-4.9006 -4.900579,-4.9006 7e-6,-5.41304 -4.388124,-9.80117 -9.801159,-9.80117 -0.59126,0.007 -1.180712,0.0666 -1.761145,0.17945 -2.207208,-2.4536 -5.352294,-3.8548 -8.652585,-3.85489 z"
       sodipodi:nodetypes="ccccscccccccc"
       clip-path="url(#clipPath1198)" />
    <path
       id="path3049"
       style="opacity:0.5;fill:#ffffff;fill-opacity:1;stroke:#000000;stroke-width:2;stroke-linecap:round;stroke-linejoin:round;stroke-miterlimit:4;stroke-dasharray:none"
       d="m 159.5,81 c -1.74013,-3.67e-4 -3.21625,1.277719 -3.46484,3 -0.0117,-1.03e-4 -0.0234,-1.03e-4 -0.0352,0 -1.10457,0 -2,0.895431 -2,2 0,1.104569 0.89543,2 2,2 h 8.5 c 0.82843,0 1.5,-0.671573 1.5,-1.5 -4.4e-4,-0.649713 -0.41911,-1.225284 -1.03711,-1.425781 -0.19664,-1.136852 -1.1457,-1.991497 -2.29687,-2.06836 l -0.002,-0.002 C 162.08553,81.780362 160.85342,81.000026 159.5,81 Z"
       transform="translate(0,924.36218)"
       sodipodi:nodetypes="cccsccccccc" />
    <path
       id="path1869"
       style="opacity:1;fill:#ffffff;fill-opacity:1;stroke:none;stroke-width:2;stroke-linecap:round;stroke-linejoin:round;stroke-miterlimit:4;stroke-dasharray:none"
       d="m 159.5,81 c -1.74013,-3.67e-4 -3.21625,1.277719 -3.46484,3 -0.0117,-1.03e-4 -0.0234,-1.03e-4 -0.0352,0 -1.10457,0 -2,0.895431 -2,2 0,1.104569 0.89543,2 2,2 h 8.5 c 0.82843,0 1.5,-0.671573 1.5,-1.5 -4.4e-4,-0.649713 -0.41911,-1.225284 -1.03711,-1.425781 -0.19664,-1.136852 -1.1457,-1.991497 -2.29687,-2.06836 l -0.002,-0.002 C 162.08553,81.780362 160.85342,81.000026 159.5,81 Z"
       transform="translate(0,924.36218)"
       sodipodi:nodetypes="cccsccccccc" />
    <path
       id="path3250"
       style="opacity:0.5;fill:#000000;fill-opacity:1;stroke:none;stroke-width:2;stroke-linecap:round;stroke-linejoin:round;stroke-miterlimit:4;stroke-dasharray:none"
       d="m 151.5,119 c -1.22507,0.001 -2.26864,0.89035 -2.46484,2.09961 -0.17082,-0.0656 -0.35219,-0.0993 -0.53516,-0.0996 -0.82843,0 -1.5,0.67157 -1.5,1.5 0,0.82843 0.67157,1.5 1.5,1.5 h 3 2.5 2 c 0.55228,0 1,-0.44772 1,-1 0,-0.55228 -0.44772,-1 -1,-1 0,-1.10457 -0.89543,-2 -2,-2 -0.15474,0.002 -0.30877,0.0214 -0.45898,0.0586 C 153.07293,119.39525 152.31187,119.00052 151.5,119 Z"
       transform="translate(0,924.36218)"
       sodipodi:nodetypes="cccscccsscccc" />
  </g>
</svg>
