<?xml version="1.0" encoding="UTF-8" standalone="no"?>
<!-- Created with Inkscape (http://www.inkscape.org/) -->

<svg
   xmlns:dc="http://purl.org/dc/elements/1.1/"
   xmlns:cc="http://creativecommons.org/ns#"
   xmlns:rdf="http://www.w3.org/1999/02/22-rdf-syntax-ns#"
   xmlns:svg="http://www.w3.org/2000/svg"
   xmlns="http://www.w3.org/2000/svg"
   xmlns:sodipodi="http://sodipodi.sourceforge.net/DTD/sodipodi-0.dtd"
   xmlns:inkscape="http://www.inkscape.org/namespaces/inkscape"
   version="1.1"
   width="16"
   height="16.000057"
   id="svg7384"
   inkscape:version="0.48.4 r9939"
   sodipodi:docname="folder-documents-symbolic.svg">
  <title
     id="title4176">Kawaiki Icon Theme</title>
  <sodipodi:namedview
     pagecolor="#4a4a4a"
     bordercolor="#e50000"
     borderopacity="1"
     objecttolerance="10"
     gridtolerance="10000"
     guidetolerance="10"
     inkscape:pageopacity="1"
     inkscape:pageshadow="2"
     inkscape:window-width="1280"
     inkscape:window-height="968"
     id="namedview16"
     showgrid="true"
     inkscape:showpageshadow="true"
     borderlayer="false"
     inkscape:zoom="16"
     inkscape:cx="-9.0830963"
     inkscape:cy="9.1809316"
     inkscape:window-x="0"
     inkscape:window-y="27"
     inkscape:window-maximized="1"
     inkscape:current-layer="svg7384">
    <inkscape:grid
       type="xygrid"
       id="grid2993"
       empspacing="4"
       visible="true"
       enabled="true"
       snapvisiblegridlinesonly="true" />
  </sodipodi:namedview>
  <metadata
     id="metadata90">
    <rdf:RDF>
      <cc:Work
         rdf:about="">
        <dc:format>image/svg+xml</dc:format>
        <dc:type
           rdf:resource="http://purl.org/dc/dcmitype/StillImage" />
        <dc:title>Kawaiki Icon Theme</dc:title>
        <dc:date>2014-01-31</dc:date>
        <dc:creator>
          <cc:Agent>
            <dc:title>Georg Eckert</dc:title>
          </cc:Agent>
        </dc:creator>
        <dc:language>German</dc:language>
        <cc:license
           rdf:resource="http://creativecommons.org/licenses/by-nc-sa/3.0/" />
      </cc:Work>
      <cc:License
         rdf:about="http://creativecommons.org/licenses/by-nc-sa/3.0/">
        <cc:permits
           rdf:resource="http://creativecommons.org/ns#Reproduction" />
        <cc:permits
           rdf:resource="http://creativecommons.org/ns#Distribution" />
        <cc:requires
           rdf:resource="http://creativecommons.org/ns#Notice" />
        <cc:requires
           rdf:resource="http://creativecommons.org/ns#Attribution" />
        <cc:prohibits
           rdf:resource="http://creativecommons.org/ns#CommercialUse" />
        <cc:permits
           rdf:resource="http://creativecommons.org/ns#DerivativeWorks" />
        <cc:requires
           rdf:resource="http://creativecommons.org/ns#ShareAlike" />
      </cc:License>
    </rdf:RDF>
  </metadata>
  <defs
     id="defs7386" />
  <g
     transform="translate(-101.0002,-217)"
     id="layer10" />
  <g
     transform="translate(-101.0002,-217)"
     id="layer11" />
  <g
     transform="translate(-101.0002,-217)"
     id="layer13" />
  <g
     transform="translate(-101.0002,-217)"
     id="layer14" />
  <g
     transform="translate(-101.0002,-217)"
     id="layer15"
     style="display:inline" />
  <g
     transform="translate(-101.0002,-217)"
     id="g71291"
     style="display:inline" />
  <g
     transform="translate(-101.0002,-217)"
     id="g4953"
     style="display:inline" />
  <g
     transform="translate(-101.0002,-217)"
     id="layer12"
     style="display:inline" />
  <g
     style="display:inline"
     id="g3791"
     transform="translate(-101.0002,-217)" />
  <path
     inkscape:connector-curvature="0"
     style="color:#000000;fill:#b3b3b3;fill-opacity:1;fill-rule:nonzero;stroke:none;stroke-width:0.8564384;marker:none;visibility:visible;display:inline;overflow:visible;enable-background:accumulate"
     d="m 0.75,0.21880722 0,1.78124998 c 0,0.140386 0.10961429,0.25 0.25,0.25 l 14,0 c 0.140386,0 0.25,-0.109614 0.25,-0.25 l 0,-1.78124998 -14.5,0 z m -0.5,0.09375 C 0.11145292,0.40179829 0,0.54302057 0,0.71880722 l 0,9.31249978 0,2.28125 c 0,0.274561 0.225438,0.5 0.5,0.5 l 4.15625,0 c 0.998752,1.76925 2.885936,2.96875 5.0625,2.96875 2.176564,0 4.063749,-1.1995 5.0625,-2.96875 l 0.71875,0 c 0.274561,0 0.5,-0.225439 0.5,-0.5 l 0,-9.3124998 0,-2.28124998 c 0,-0.17578665 -0.111453,-0.31700893 -0.25,-0.40625 l 0,1.68749998 c 0,0.408737 -0.341263,0.75 -0.75,0.75 l -14,0 c -0.40873709,0 -0.75,-0.341263 -0.75,-0.75 l 0,-1.68749998 z m 2.25,0.1875 c 0.8284271,0 1.5,0.33578644 1.5,0.74999998 0,0.4142136 -0.6715729,0.75 -1.5,0.75 -0.8284271,0 -1.5,-0.3357864 -1.5,-0.75 C 1,0.83584366 1.6715729,0.50005722 2.5,0.50005722 z m -0.875,2.71874998 1.875,0 c 0.2745614,0 0.5,0.2254386 0.5,0.5 l 0,0.71875 c 0,0.2745614 -0.2254386,0.5 -0.5,0.5 l -1.875,0 c -0.2745614,0 -0.46875,-0.2254386 -0.46875,-0.5 l 0,-0.71875 c 0,-0.2745614 0.1941886,-0.5 0.46875,-0.5 z m -1.125,2.53125 3,0 0.25,0 0,0.25 0,6.4999998 -0.5,0 0,-6.2499998 -2.75,0 0,-0.5 z m 9.21875,0.1875 c 2.524777,0 4.5625,2.068974 4.5625,4.5937498 0,2.524777 -2.037723,4.5625 -4.5625,4.5625 -2.524776,0 -4.5625,-2.037723 -4.5625,-4.5625 0,-2.5247758 2.037724,-4.5937498 4.5625,-4.5937498 z m 0,2.28125 c -1.2623884,0 -2.28125,1.0501116 -2.28125,2.3124998 0,1.262388 1.0188616,2.28125 2.28125,2.28125 C 10.981138,12.812557 12,11.793695 12,10.531307 12,9.2689188 10.981138,8.2188072 9.71875,8.2188072 z"
     id="rect3739" />
</svg>
