<?xml version="1.0" encoding="UTF-8" standalone="no"?>
<!-- Created with Inkscape (http://www.inkscape.org/) -->

<svg
   xmlns:dc="http://purl.org/dc/elements/1.1/"
   xmlns:cc="http://creativecommons.org/ns#"
   xmlns:rdf="http://www.w3.org/1999/02/22-rdf-syntax-ns#"
   xmlns:svg="http://www.w3.org/2000/svg"
   xmlns="http://www.w3.org/2000/svg"
   xmlns:xlink="http://www.w3.org/1999/xlink"
   xmlns:sodipodi="http://sodipodi.sourceforge.net/DTD/sodipodi-0.dtd"
   xmlns:inkscape="http://www.inkscape.org/namespaces/inkscape"
   width="128"
   height="128"
   id="svg3829"
   version="1.1"
   inkscape:version="0.48.4 r9939"
   sodipodi:docname="user-desktop.svg">
  <defs
     id="defs3831">
    <filter
       inkscape:collect="always"
       id="filter3830">
      <feGaussianBlur
         inkscape:collect="always"
         stdDeviation="2.94"
         id="feGaussianBlur3832" />
    </filter>
    <radialGradient
       cx="76"
       cy="975.5921"
       r="43.999989"
       fx="76"
       fy="975.5921"
       id="radialGradient7033"
       xlink:href="#linearGradient7003"
       gradientUnits="userSpaceOnUse"
       gradientTransform="matrix(1,0,0,0.91452172,94.919911,52.162395)" />
    <linearGradient
       id="linearGradient7003">
      <stop
         id="stop7005"
         style="stop-color:#17ff06;stop-opacity:1"
         offset="0" />
      <stop
         id="stop7007"
         style="stop-color:#057500;stop-opacity:1"
         offset="1" />
    </linearGradient>
    <linearGradient
       id="linearGradient7006">
      <stop
         id="stop7008"
         style="stop-color:#ffffff;stop-opacity:1"
         offset="0" />
      <stop
         id="stop7010"
         style="stop-color:#ffffff;stop-opacity:0"
         offset="1" />
    </linearGradient>
    <linearGradient
       id="linearGradient6978">
      <stop
         id="stop6980"
         style="stop-color:#000000;stop-opacity:0.25"
         offset="0" />
      <stop
         id="stop6982"
         style="stop-color:#000000;stop-opacity:0"
         offset="1" />
    </linearGradient>
    <linearGradient
       id="linearGradient4216-4-8-2">
      <stop
         id="stop4218-8-0-7"
         style="stop-color:#ffffff;stop-opacity:1"
         offset="0" />
      <stop
         id="stop4220-1-6-4"
         style="stop-color:#c6c6c6;stop-opacity:1"
         offset="1" />
    </linearGradient>
    <linearGradient
       id="linearGradient5969">
      <stop
         id="stop5971"
         style="stop-color:#000000;stop-opacity:0.25"
         offset="0" />
      <stop
         id="stop5973"
         style="stop-color:#000000;stop-opacity:0"
         offset="1" />
    </linearGradient>
  </defs>
  <sodipodi:namedview
     id="base"
     pagecolor="#ffffff"
     bordercolor="#666666"
     borderopacity="1.0"
     inkscape:pageopacity="0.0"
     inkscape:pageshadow="2"
     inkscape:zoom="2.4748737"
     inkscape:cx="58.661307"
     inkscape:cy="90.136776"
     inkscape:current-layer="layer1"
     showgrid="true"
     inkscape:grid-bbox="true"
     inkscape:document-units="px"
     inkscape:window-width="1280"
     inkscape:window-height="968"
     inkscape:window-x="0"
     inkscape:window-y="27"
     inkscape:window-maximized="1"
     showguides="true"
     inkscape:guide-bbox="true">
    <inkscape:grid
       type="xygrid"
       id="grid3837"
       empspacing="4"
       visible="true"
       enabled="true"
       snapvisiblegridlinesonly="true" />
  </sodipodi:namedview>
  <metadata
     id="metadata3834">
    <rdf:RDF>
      <cc:Work
         rdf:about="">
        <dc:format>image/svg+xml</dc:format>
        <dc:type
           rdf:resource="http://purl.org/dc/dcmitype/StillImage" />
        <dc:title />
      </cc:Work>
    </rdf:RDF>
  </metadata>
  <g
     id="layer1"
     inkscape:label="Layer 1"
     inkscape:groupmode="layer"
     transform="translate(0,80)">
    <rect
       ry="2"
       rx="2"
       transform="translate(0,-80)"
       y="72"
       x="144"
       height="23"
       width="32"
       id="rect3984"
       style="opacity:0.05;fill:#000000;fill-opacity:1;stroke:none" />
    <rect
       style="fill:#000000;fill-opacity:1;stroke:none;filter:url(#filter3830)"
       id="rect3800"
       width="112"
       height="84"
       x="8"
       y="32"
       transform="translate(0,-80)"
       rx="4"
       ry="4" />
    <rect
       style="color:#000000;fill:#aa4400;stroke:none;stroke-width:16;marker:none;visibility:visible;display:inline;overflow:visible;enable-background:accumulate"
       id="rect2983-2-1"
       width="112.00037"
       height="31.733437"
       x="7.9998169"
       y="2.733391"
       rx="3.7333455"
       ry="3.7333455" />
    <rect
       style="color:#000000;fill:#803300;stroke:none;stroke-width:16;marker:none;visibility:visible;display:inline;overflow:visible;enable-background:accumulate"
       id="rect2983-7"
       width="112.00037"
       height="28.000092"
       x="7.9998169"
       y="2.733391"
       rx="3.7333455"
       ry="3.7333455" />
    <rect
       style="color:#000000;fill:#d45500;stroke:none;stroke-width:16;marker:none;visibility:visible;display:inline;overflow:visible;enable-background:accumulate"
       id="rect2983-0"
       width="104.53367"
       height="74.666908"
       x="11.733162"
       y="-47.666775"
       rx="3.4844556"
       ry="3.7333455" />
    <rect
       style="opacity:0.31620693;color:#000000;fill:#000000;stroke:none;stroke-width:16;marker:none;visibility:visible;display:inline;overflow:visible;enable-background:accumulate"
       id="rect2983-2-3"
       width="104.53367"
       height="14.933382"
       x="11.733162"
       y="-0.9999544"
       rx="0"
       ry="0" />
    <rect
       style="color:#000000;fill:#aa4400;stroke:none;stroke-width:16;marker:none;visibility:visible;display:inline;overflow:visible;enable-background:accumulate"
       id="rect2983-2"
       width="112.00037"
       height="74.666908"
       x="7.9998169"
       y="-62.600159"
       rx="3.7333455"
       ry="3.7333455" />
    <rect
       style="color:#000000;fill:#803300;stroke:none;stroke-width:16;marker:none;visibility:visible;display:inline;overflow:visible;enable-background:accumulate"
       id="rect2983"
       width="112.00037"
       height="74.666908"
       x="7.9998169"
       y="-66.333504"
       rx="3.7333455"
       ry="3.7333455" />
    <rect
       style="opacity:0.31620693;color:#000000;fill:none;stroke:#2b1100;stroke-width:1.86667275;stroke-linecap:round;stroke-linejoin:round;stroke-miterlimit:4;stroke-dasharray:none;marker:none;visibility:visible;display:inline;overflow:visible;enable-background:accumulate"
       id="rect3828"
       width="104.53367"
       height="67.200218"
       x="11.733162"
       y="-62.600159"
       ry="3.7333455"
       rx="3.7333455" />
    <rect
       style="color:#000000;fill:#803300;stroke:none;stroke-width:2;marker:none;visibility:visible;display:inline;overflow:visible;enable-background:accumulate"
       id="rect3830-5"
       width="37.333454"
       height="11.200036"
       x="45.333271"
       y="15.8001"
       rx="1.8666728"
       ry="1.8666728" />
    <rect
       style="color:#000000;fill:#aa4400;stroke:none;stroke-width:2;marker:none;visibility:visible;display:inline;overflow:visible;enable-background:accumulate"
       id="rect3830"
       width="37.333454"
       height="11.200036"
       x="45.333271"
       y="17.666775"
       rx="1.8666728"
       ry="1.8666728" />
    <path
       sodipodi:type="arc"
       style="color:#000000;fill:#803300;fill-opacity:0.85;fill-rule:nonzero;stroke:none;stroke-width:2;marker:none;visibility:visible;display:inline;overflow:visible;enable-background:accumulate"
       id="path3852"
       sodipodi:cx="64"
       sodipodi:cy="112"
       sodipodi:rx="4"
       sodipodi:ry="4"
       d="m 68,112 c 0,2.20914 -1.790861,4 -4,4 -2.209139,0 -4,-1.79086 -4,-4 0,-2.20914 1.790861,-4 4,-4 2.209139,0 4,1.79086 4,4 z"
       transform="matrix(0.93333636,0,0,0.93333636,4.2664713,-81.266884)" />
    <path
       transform="matrix(0.93333636,0,0,0.93333636,4.2664713,-79.400211)"
       sodipodi:type="arc"
       style="color:#000000;fill:#d45500;fill-opacity:0.85;fill-rule:nonzero;stroke:none;stroke-width:2;marker:none;visibility:visible;display:inline;overflow:visible;enable-background:accumulate"
       id="path3852-1"
       sodipodi:cx="64"
       sodipodi:cy="112"
       sodipodi:rx="4"
       sodipodi:ry="4"
       d="m 68,112 c 0,2.20914 -1.790861,4 -4,4 -2.209139,0 -4,-1.79086 -4,-4 0,-2.20914 1.790861,-4 4,-4 2.209139,0 4,1.79086 4,4 z" />
    <rect
       style="color:#000000;fill:#ffffff;fill-opacity:0.85;fill-rule:nonzero;stroke:none;stroke-width:2;marker:none;visibility:visible;display:inline;overflow:visible;enable-background:accumulate"
       id="rect3891"
       width="29.866764"
       height="37.333454"
       x="24.641632"
       y="-50.699684"
       transform="matrix(0.99615152,-0.08764785,0.08764785,0.99615152,0,0)"
       rx="1.8666728"
       ry="1.8666728" />
    <rect
       style="color:#000000;fill:#ffffff;fill-opacity:0.85;fill-rule:nonzero;stroke:none;stroke-width:2;marker:none;visibility:visible;display:inline;overflow:visible;enable-background:accumulate"
       id="rect3891-7"
       width="29.866764"
       height="37.333454"
       x="22.626139"
       y="-56.515991"
       rx="1.8666728"
       ry="1.8666728"
       transform="matrix(0.95809771,0.28644159,-0.28644159,0.95809771,0,0)" />
    <rect
       style="color:#000000;fill:#333333;fill-opacity:0.85;fill-rule:nonzero;stroke:none;stroke-width:2;marker:none;visibility:visible;display:inline;overflow:visible;enable-background:accumulate"
       id="rect3918-4"
       width="3.7333455"
       height="33.600109"
       x="68.472122"
       y="43.304817"
       transform="matrix(0.53464171,-0.84507884,0.84507884,0.53464171,0,0)"
       rx="0.93333638"
       ry="0.93333638" />
    <rect
       style="color:#000000;fill:#999999;fill-opacity:0.85;fill-rule:nonzero;stroke:none;stroke-width:2;marker:none;visibility:visible;display:inline;overflow:visible;enable-background:accumulate"
       id="rect3918"
       width="3.7333455"
       height="33.600109"
       x="68.866493"
       y="43.055317"
       transform="matrix(0.53464171,-0.84507884,0.84507884,0.53464171,0,0)"
       rx="0.93333638"
       ry="0.93333638" />
    <rect
       style="color:#000000;fill:#808080;fill-opacity:1;fill-rule:nonzero;stroke:#808080;stroke-width:1.61658609;stroke-linecap:round;stroke-linejoin:round;stroke-miterlimit:4;stroke-opacity:1;stroke-dasharray:none;stroke-dashoffset:0;marker:none;visibility:visible;display:inline;overflow:visible;enable-background:accumulate"
       id="rect3940"
       width="11.200036"
       height="11.200036"
       x="97.600113"
       y="-51.400116"
       rx="0.93333638"
       ry="0.70000225" />
    <path
       transform="matrix(0.93333636,0,0,0.93333636,4.2664713,-73.800192)"
       sodipodi:type="arc"
       style="color:#000000;fill:#808080;fill-opacity:1;fill-rule:nonzero;stroke:#808080;stroke-width:2;stroke-opacity:1;marker:none;visibility:visible;display:inline;overflow:visible;enable-background:accumulate"
       id="path3938-7"
       sodipodi:cx="106"
       sodipodi:cy="34"
       sodipodi:rx="6"
       sodipodi:ry="6"
       d="m 112,34 c 0,3.313708 -2.68629,6 -6,6 -3.31371,0 -6,-2.686292 -6,-6 0,-3.313708 2.68629,-6 6,-6 3.31371,0 6,2.686292 6,6 z" />
    <path
       sodipodi:type="arc"
       style="color:#000000;fill:#333333;fill-opacity:1;fill-rule:nonzero;stroke:#808080;stroke-width:2;stroke-opacity:1;marker:none;visibility:visible;display:inline;overflow:visible;enable-background:accumulate"
       id="path3938"
       sodipodi:cx="106"
       sodipodi:cy="34"
       sodipodi:rx="6"
       sodipodi:ry="6"
       d="m 112,34 c 0,3.313708 -2.68629,6 -6,6 -3.31371,0 -6,-2.686292 -6,-6 0,-3.313708 2.68629,-6 6,-6 3.31371,0 6,2.686292 6,6 z"
       transform="matrix(0.93333636,0,0,0.93333636,4.2664713,-81.266884)" />
    <rect
       style="fill:none;stroke:none"
       id="rect3002"
       width="104.53367"
       height="89.600288"
       x="11.733162"
       y="-53.266792"
       rx="3.7333455"
       ry="3.7333455" />
    <text
       sodipodi:linespacing="125%"
       style="font-size:24px;font-style:normal;font-weight:normal;line-height:125%;letter-spacing:0px;word-spacing:0px;fill:#000000;fill-opacity:1;stroke:none;font-family:Sans"
       xml:space="preserve"
       id="text5893"
       y="-56"
       x="-56"><tspan
         id="tspan5895"
         y="-56"
         x="-56">128</tspan></text>
    <text
       sodipodi:linespacing="125%"
       style="font-size:16px;font-style:normal;font-weight:normal;line-height:125%;letter-spacing:0px;word-spacing:0px;fill:#000000;fill-opacity:1;stroke:none;font-family:Sans"
       xml:space="preserve"
       id="text5901"
       y="-4"
       x="184"><tspan
         id="tspan5903"
         y="-4"
         x="184">31 - 17</tspan></text>
    <text
       sodipodi:linespacing="125%"
       style="font-size:16px;font-style:normal;font-weight:normal;line-height:125%;letter-spacing:0px;word-spacing:0px;fill:#000000;fill-opacity:1;stroke:none;font-family:Sans"
       xml:space="preserve"
       id="text5905"
       y="44"
       x="172"><tspan
         id="tspan5907"
         y="44"
         x="172">16</tspan></text>
    <rect
       style="fill:#000000;fill-opacity:1;stroke:none;opacity:0.15"
       id="rect3982"
       width="30"
       height="22"
       x="145"
       y="72"
       transform="translate(0,-80)"
       rx="2"
       ry="2" />
    <rect
       style="fill:none;stroke:#000000;stroke-width:1;stroke-linecap:round;stroke-linejoin:round;stroke-miterlimit:4;stroke-opacity:1;stroke-dasharray:none;stroke-dashoffset:0"
       id="rect5919"
       y="-20"
       x="140"
       rx="4.5902016e-07"
       height="40"
       width="40" />
    <rect
       style="fill:none;stroke:#000000;stroke-width:1;stroke-linecap:round;stroke-linejoin:round;stroke-miterlimit:4;stroke-opacity:1;stroke-dasharray:none;stroke-dashoffset:0"
       id="rect5921"
       y="28"
       x="140"
       rx="4.5902016e-07"
       height="24"
       width="24" />
    <rect
       style="fill:#b3b3b3;fill-opacity:1;stroke:none"
       id="rect6935"
       y="-24"
       x="144"
       rx="4.5902016e-07"
       height="4"
       width="32" />
    <rect
       style="fill:#b3b3b3;fill-opacity:1;stroke:none"
       id="rect6937"
       y="-16"
       x="136"
       rx="4.5902016e-07"
       height="32"
       width="4" />
    <rect
       style="fill:#b3b3b3;fill-opacity:1;stroke:none"
       id="rect6939"
       y="24"
       x="144"
       rx="4.5902016e-07"
       height="4"
       width="16" />
    <rect
       style="fill:#b3b3b3;fill-opacity:1;stroke:none"
       id="rect6941"
       y="32"
       x="136"
       rx="4.5902016e-07"
       height="16"
       width="4" />
    <rect
       style="fill:#aa4400;fill-opacity:1;stroke:none"
       id="rect3102"
       width="16"
       height="16"
       x="144"
       y="112"
       transform="translate(0,-80)"
       rx="2"
       ry="2" />
    <rect
       style="fill:#803300;fill-opacity:1;stroke:none"
       id="rect3872"
       width="14"
       height="14"
       x="145"
       y="113"
       transform="translate(0,-80)"
       rx="2"
       ry="2" />
    <rect
       style="fill:#eeeeec;fill-opacity:1;stroke:none"
       id="rect3874"
       width="6"
       height="9"
       x="147"
       y="34"
       rx="1"
       ry="1" />
    <rect
       style="fill:#888a85;fill-opacity:1;stroke:none"
       id="rect3876"
       width="7"
       height="1"
       x="150"
       y="124"
       transform="translate(0,-80)"
       rx="0"
       ry="1" />
    <rect
       ry="0.9473092"
       rx="0.9473092"
       y="4"
       x="146"
       height="9"
       width="28"
       id="rect3880"
       style="color:#000000;fill:#aa4400;stroke:none;stroke-width:16;marker:none;visibility:visible;display:inline;overflow:visible;enable-background:accumulate" />
    <rect
       ry="0.9473092"
       rx="0.9473092"
       y="5"
       x="146"
       height="7"
       width="28"
       id="rect3882"
       style="color:#000000;fill:#803300;stroke:none;stroke-width:16;marker:none;visibility:visible;display:inline;overflow:visible;enable-background:accumulate" />
    <rect
       ry="0.9473092"
       rx="0.88415515"
       y="-9"
       x="147"
       height="20"
       width="26"
       id="rect3884"
       style="color:#000000;fill:#d45500;stroke:none;stroke-width:16;marker:none;visibility:visible;display:inline;overflow:visible;enable-background:accumulate" />
    <rect
       ry="0.9473092"
       rx="0.9473092"
       y="-13"
       x="146"
       height="19"
       width="28"
       id="rect3888"
       style="color:#000000;fill:#aa4400;stroke:none;stroke-width:16;marker:none;visibility:visible;display:inline;overflow:visible;enable-background:accumulate" />
    <rect
       ry="0.9473092"
       rx="0.9473092"
       y="-14"
       x="146"
       height="19"
       width="28"
       id="rect3890"
       style="color:#000000;fill:#803300;stroke:none;stroke-width:16;marker:none;visibility:visible;display:inline;overflow:visible;enable-background:accumulate" />
    <path
       style="opacity:0.31620693000000000;color:#000000;fill:#2b1100;stroke:none;stroke-width:0.47365459999999998;stroke-linecap:round;stroke-linejoin:round;stroke-miterlimit:4;stroke-dasharray:none;marker:none;visibility:visible;display:inline;overflow:visible;enable-background:accumulate;fill-opacity:1"
       d="M 147.9375 67 C 147.41269 67 147 67.412691 147 67.9375 L 147 83.0625 C 147 83.587309 147.41269 84 147.9375 84 L 172.0625 84 C 172.58731 84 173 83.587309 173 83.0625 L 173 67.9375 C 173 67.412691 172.58731 67 172.0625 67 L 147.9375 67 z M 148.9375 68 L 171.0625 68 C 171.58731 68 172 68.412691 172 68.9375 L 172 82.0625 C 172 82.587309 171.58731 83 171.0625 83 L 148.9375 83 C 148.41269 83 148 82.587309 148 82.0625 L 148 68.9375 C 148 68.412691 148.41269 68 148.9375 68 z "
       transform="translate(0,-80)"
       id="rect3892" />
    <rect
       ry="0.4736546"
       rx="0.4736546"
       y="6"
       x="155"
       height="3"
       width="10"
       id="rect3894"
       style="color:#000000;fill:#803300;stroke:none;stroke-width:2;marker:none;visibility:visible;display:inline;overflow:visible;enable-background:accumulate" />
    <rect
       ry="0.4736546"
       rx="0.4736546"
       y="7"
       x="155"
       height="3"
       width="10"
       id="rect3896"
       style="color:#000000;fill:#aa4400;stroke:none;stroke-width:2;marker:none;visibility:visible;display:inline;overflow:visible;enable-background:accumulate" />
    <path
       transform="matrix(0.23682729,0,0,0.23682729,144.84306,-17.66763)"
       d="m 68,112 a 4,4 0 1 1 -8,0 4,4 0 1 1 8,0 z"
       sodipodi:ry="4"
       sodipodi:rx="4"
       sodipodi:cy="112"
       sodipodi:cx="64"
       id="path3898"
       style="color:#000000;fill:#803300;fill-opacity:0.85;fill-rule:nonzero;stroke:none;stroke-width:2;marker:none;visibility:visible;display:inline;overflow:visible;enable-background:accumulate"
       sodipodi:type="arc" />
    <path
       d="m 68,112 a 4,4 0 1 1 -8,0 4,4 0 1 1 8,0 z"
       sodipodi:ry="4"
       sodipodi:rx="4"
       sodipodi:cy="112"
       sodipodi:cx="64"
       id="path3900"
       style="color:#000000;fill:#d45500;fill-opacity:0.85;fill-rule:nonzero;stroke:none;stroke-width:2;marker:none;visibility:visible;display:inline;overflow:visible;enable-background:accumulate"
       sodipodi:type="arc"
       transform="matrix(0.23682729,0,0,0.23682729,144.84306,-17.193976)" />
    <rect
       ry="0.9473092"
       rx="0.9473092"
       y="-10.562812"
       x="146.73767"
       height="22.735418"
       width="26.524654"
       id="rect3916"
       style="fill:none;stroke:none" />
    <rect
       style="fill:#eeeeec;fill-opacity:1;stroke:none;opacity:0.85"
       id="rect3965"
       width="7"
       height="9"
       x="149"
       y="69"
       transform="translate(0,-80)"
       rx="0.4736546"
       ry="0.4736546" />
    <rect
       ry="0.4736546"
       rx="0.4736546"
       y="-9"
       x="151"
       height="9"
       width="7"
       id="rect3967"
       style="opacity:0.85;fill:#eeeeec;fill-opacity:1;stroke:none" />
    <g
       id="g3975"
       transform="translate(0,-2)">
      <path
         transform="translate(0,-80)"
         d="m 170,75 c 0,1.104569 -0.89543,2 -2,2 -1.10457,0 -2,-0.895431 -2,-2 0,-1.104569 0.89543,-2 2,-2 1.10457,0 2,0.895431 2,2 z"
         sodipodi:ry="2"
         sodipodi:rx="2"
         sodipodi:cy="75"
         sodipodi:cx="168"
         id="path3971"
         style="fill:#d3d7cf;fill-opacity:1;stroke:none"
         sodipodi:type="arc" />
      <rect
         ry="0"
         rx="0.2368273"
         transform="translate(0,-80)"
         y="72"
         x="166"
         height="3"
         width="4"
         id="rect3973"
         style="fill:#d3d7cf;fill-opacity:1;stroke:none" />
      <path
         transform="translate(0,-80)"
         d="m 170,72 c 0,1.104569 -0.89543,2 -2,2 -1.10457,0 -2,-0.895431 -2,-2 0,-1.104569 0.89543,-2 2,-2 1.10457,0 2,0.895431 2,2 z"
         sodipodi:ry="2"
         sodipodi:rx="2"
         sodipodi:cy="72"
         sodipodi:cx="168"
         id="path3969"
         style="fill:#555753;fill-opacity:1;stroke:none"
         sodipodi:type="arc" />
    </g>
    <rect
       style="fill:#d3d7cf;fill-opacity:1;stroke:none"
       id="rect3980"
       width="9"
       height="2"
       x="162"
       y="79"
       transform="translate(0,-80)"
       rx="0.2368273" />
  </g>
</svg>
