<?xml version="1.0" encoding="UTF-8" standalone="no"?>
<!-- Created with Inkscape (http://www.inkscape.org/) -->

<svg
   xmlns:dc="http://purl.org/dc/elements/1.1/"
   xmlns:cc="http://creativecommons.org/ns#"
   xmlns:rdf="http://www.w3.org/1999/02/22-rdf-syntax-ns#"
   xmlns:svg="http://www.w3.org/2000/svg"
   xmlns="http://www.w3.org/2000/svg"
   xmlns:xlink="http://www.w3.org/1999/xlink"
   xmlns:sodipodi="http://sodipodi.sourceforge.net/DTD/sodipodi-0.dtd"
   xmlns:inkscape="http://www.inkscape.org/namespaces/inkscape"
   sodipodi:docname="emblem-unreadable.svg"
   inkscape:version="0.48.4 r9939"
   version="1.1"
   id="svg2"
   height="128"
   width="128">
  <sodipodi:namedview
     id="base"
     pagecolor="#ffffff"
     bordercolor="#666666"
     borderopacity="1.0"
     inkscape:pageopacity="0.0"
     inkscape:pageshadow="2"
     inkscape:zoom="3.3302348"
     inkscape:cx="192.21306"
     inkscape:cy="36.477807"
     inkscape:document-units="px"
     inkscape:current-layer="layer1"
     showgrid="true"
     showguides="true"
     inkscape:guide-bbox="true"
     inkscape:window-width="1375"
     inkscape:window-height="876"
     inkscape:window-x="1345"
     inkscape:window-y="148"
     inkscape:window-maximized="1">
    <inkscape:grid
       snapvisiblegridlinesonly="true"
       enabled="true"
       visible="true"
       empspacing="4"
       id="grid2985"
       type="xygrid" />
  </sodipodi:namedview>
  <defs
     id="defs4">
    <linearGradient
       id="linearGradient7120">
      <stop
         style="stop-color:#f1f1f1;stop-opacity:1;"
         offset="0"
         id="stop7122" />
      <stop
         style="stop-color:#bbbbbb;stop-opacity:1;"
         offset="1"
         id="stop7124" />
    </linearGradient>
    <linearGradient
       id="linearGradient7110">
      <stop
         style="stop-color:#5a5a5a;stop-opacity:1;"
         offset="0"
         id="stop7112" />
      <stop
         style="stop-color:#202020;stop-opacity:1;"
         offset="1"
         id="stop7114" />
    </linearGradient>
    <linearGradient
       id="linearGradient4216-4-8-2">
      <stop
         id="stop4218-8-0-7"
         offset="0"
         style="stop-color:#494949;stop-opacity:1;" />
      <stop
         id="stop4220-1-6-4"
         offset="1"
         style="stop-color:#0f0f0f;stop-opacity:1;" />
    </linearGradient>
    <radialGradient
       inkscape:collect="always"
       xlink:href="#linearGradient3769"
       id="radialGradient5899"
       gradientUnits="userSpaceOnUse"
       gradientTransform="translate(0,2)"
       cx="64"
       cy="1020.3622"
       fx="64"
       fy="1020.3622"
       r="52" />
    <linearGradient
       id="linearGradient8794-33">
      <stop
         style="stop-color:#ffffff;stop-opacity:1;"
         offset="0"
         id="stop8796-9" />
      <stop
         style="stop-color:#cacaca;stop-opacity:1;"
         offset="1"
         id="stop8798-6" />
    </linearGradient>
    <radialGradient
       inkscape:collect="always"
       xlink:href="#linearGradient3757"
       id="radialGradient7116"
       cx="80"
       cy="972.36218"
       fx="80"
       fy="972.36218"
       r="52.5"
       gradientUnits="userSpaceOnUse" />
    <radialGradient
       inkscape:collect="always"
       xlink:href="#linearGradient7120"
       id="radialGradient7142"
       gradientUnits="userSpaceOnUse"
       gradientTransform="translate(0,-2.4000027)"
       cx="76"
       cy="70.400002"
       fx="76"
       fy="70.400002"
       r="32" />
    <radialGradient
       inkscape:collect="always"
       xlink:href="#linearGradient7120"
       id="radialGradient5942"
       gradientUnits="userSpaceOnUse"
       gradientTransform="matrix(1,0,0,0.61904762,0,29.904762)"
       cx="159.5"
       cy="78.5"
       fx="159.5"
       fy="78.5"
       r="10.5" />
    <radialGradient
       inkscape:collect="always"
       xlink:href="#linearGradient8794-33"
       id="radialGradient6960"
       cx="154"
       cy="116.83343"
       fx="154"
       fy="116.83343"
       r="8"
       gradientTransform="translate(0,1.1665787)"
       gradientUnits="userSpaceOnUse" />
    <radialGradient
       inkscape:collect="always"
       xlink:href="#linearGradient3757"
       id="radialGradient3763"
       cx="64"
       cy="39.999996"
       fx="64"
       fy="39.999996"
       r="55.999985"
       gradientTransform="matrix(1.2857146,1.2516918e-8,-1.2516917e-8,1.2857147,-18.285736,-11.428581)"
       gradientUnits="userSpaceOnUse" />
    <linearGradient
       id="linearGradient3757">
      <stop
         style="stop-color:#fc0000;stop-opacity:1;"
         offset="0"
         id="stop3759" />
      <stop
         style="stop-color:#aa0000;stop-opacity:1;"
         offset="1"
         id="stop3761" />
    </linearGradient>
    <radialGradient
       r="55.999985"
       fy="39.999996"
       fx="64"
       cy="39.999996"
       cx="64"
       gradientTransform="matrix(1.2857146,1.2516918e-8,-1.2516917e-8,1.2857147,121.71426,840.9336)"
       gradientUnits="userSpaceOnUse"
       id="radialGradient3016"
       xlink:href="#linearGradient3757"
       inkscape:collect="always" />
    <radialGradient
       inkscape:collect="always"
       xlink:href="#linearGradient3769"
       id="radialGradient3767"
       gradientUnits="userSpaceOnUse"
       gradientTransform="matrix(0.64285737,4.2650451e-8,-4.2650446e-8,0.6428573,22.85713,978.64789)"
       cx="64"
       cy="95.999977"
       fx="64"
       fy="95.999977"
       r="55.999985" />
    <linearGradient
       id="linearGradient3769">
      <stop
         id="stop3771"
         offset="0"
         style="stop-color:#d50000;stop-opacity:1;" />
      <stop
         id="stop3773"
         offset="1"
         style="stop-color:#5f0000;stop-opacity:1;" />
    </linearGradient>
    <radialGradient
       r="55.999985"
       fy="95.999977"
       fx="64"
       cy="95.999977"
       cx="64"
       gradientTransform="matrix(0.64285737,4.2650451e-8,-4.2650446e-8,0.6428573,146.85713,882.64789)"
       gradientUnits="userSpaceOnUse"
       id="radialGradient3033"
       xlink:href="#linearGradient3769"
       inkscape:collect="always" />
    <radialGradient
       inkscape:collect="always"
       xlink:href="#linearGradient3780"
       id="radialGradient3786"
       cx="64"
       cy="964.36224"
       fx="64"
       fy="964.36224"
       r="37.944763"
       gradientTransform="matrix(1.6866623,4.8217418e-8,-3.9176651e-8,1.3704127,-43.946346,-357.21211)"
       gradientUnits="userSpaceOnUse" />
    <linearGradient
       id="linearGradient3780">
      <stop
         style="stop-color:#ffffff;stop-opacity:1;"
         offset="0"
         id="stop3782" />
      <stop
         style="stop-color:#dcdcdc;stop-opacity:1;"
         offset="1"
         id="stop3784" />
    </linearGradient>
    <radialGradient
       r="37.944763"
       fy="976.68359"
       fx="69.624237"
       cy="976.68359"
       cx="69.624237"
       gradientTransform="matrix(2.4245771,-2.3929484e-7,2.0466362e-7,2.0736875,-96.80953,-1044.9744)"
       gradientUnits="userSpaceOnUse"
       id="radialGradient3050"
       xlink:href="#linearGradient3780"
       inkscape:collect="always" />
    <filter
       inkscape:collect="always"
       id="filter3851"
       x="-0.12000006"
       width="1.2400001"
       y="-0.11999994"
       height="1.2399999">
      <feGaussianBlur
         inkscape:collect="always"
         stdDeviation="3.2000014"
         id="feGaussianBlur3853" />
    </filter>
    <radialGradient
       inkscape:collect="always"
       xlink:href="#linearGradient3780"
       id="radialGradient3861"
       gradientUnits="userSpaceOnUse"
       gradientTransform="matrix(0.5018596,1.4346899e-8,-1.1656856e-8,0.4077608,127.881,603.99194)"
       cx="64"
       cy="964.36224"
       fx="64"
       fy="964.36224"
       r="37.944763" />
    <radialGradient
       inkscape:collect="always"
       xlink:href="#linearGradient3757"
       id="radialGradient3871"
       cx="160"
       cy="80"
       fx="160"
       fy="80"
       r="16"
       gradientUnits="userSpaceOnUse" />
    <radialGradient
       inkscape:collect="always"
       xlink:href="#linearGradient3780"
       id="radialGradient3875"
       gradientUnits="userSpaceOnUse"
       gradientTransform="matrix(0.30172379,0,0,0.24515051,132.68969,803.65495)"
       cx="64"
       cy="964.36224"
       fx="64"
       fy="964.36224"
       r="37.944763" />
    <radialGradient
       inkscape:collect="always"
       xlink:href="#linearGradient3757"
       id="radialGradient3885"
       cx="152"
       cy="120"
       fx="152"
       fy="120"
       r="8"
       gradientUnits="userSpaceOnUse" />
    <radialGradient
       inkscape:collect="always"
       xlink:href="#linearGradient3780"
       id="radialGradient3832"
       cx="152.8"
       cy="119.09091"
       fx="152.8"
       fy="119.09091"
       r="6"
       gradientUnits="userSpaceOnUse"
       gradientTransform="matrix(1.6666675,-1.0356002e-6,1.0355999e-6,1.6666669,-102.66692,-78.484722)" />
  </defs>
  <metadata
     id="metadata7">
    <rdf:RDF>
      <cc:Work
         rdf:about="">
        <dc:format>image/svg+xml</dc:format>
        <dc:type
           rdf:resource="http://purl.org/dc/dcmitype/StillImage" />
        <dc:title />
      </cc:Work>
    </rdf:RDF>
  </metadata>
  <g
     transform="translate(0,-924.36218)"
     id="layer1"
     inkscape:groupmode="layer"
     inkscape:label="Layer 1">
    <rect
       style="fill:url(#radialGradient3885);fill-opacity:1.0;stroke:none"
       id="rect3877"
       width="16"
       height="16"
       x="144"
       y="112"
       transform="translate(0,924.36218)"
       rx="2"
       ry="2" />
    <rect
       style="fill:url(#radialGradient3871);fill-opacity:1.0;stroke:none;stroke-width:2;stroke-linejoin:round;stroke-miterlimit:4;stroke-opacity:0.31372549000000000;stroke-dasharray:none"
       id="rect3863"
       width="32"
       height="32"
       x="144"
       y="64"
       transform="translate(0,924.36218)"
       rx="4"
       ry="4" />
    <rect
       ry="8"
       rx="8"
       y="940.36218"
       x="12"
       height="104"
       width="104"
       id="rect6981"
       style="opacity:0.10000000000000001;fill:#000000;fill-opacity:1;stroke:#000000;stroke-width:10;stroke-miterlimit:4;stroke-dasharray:none" />
    <rect
       style="opacity:0.1;fill:#000000;fill-opacity:1;stroke:#000000;stroke-width:6;stroke-miterlimit:4;stroke-dasharray:none"
       id="rect6979"
       width="104"
       height="104"
       x="12"
       y="940.36218"
       rx="8"
       ry="8" />
    <rect
       ry="8"
       rx="8"
       y="938.36218"
       x="12"
       height="104"
       width="104"
       id="rect5969"
       style="fill:#000000;fill-opacity:1;stroke:#000000;opacity:0.20000000000000001;stroke-width:3;stroke-miterlimit:4;stroke-dasharray:none" />
    <rect
       style="fill:url(#radialGradient5899);fill-opacity:1;stroke:#540000;stroke-opacity:1"
       id="rect6936"
       width="104"
       height="104"
       x="12"
       y="938.36218"
       rx="8"
       ry="8" />
    <rect
       ry="8"
       rx="8"
       y="934.36218"
       x="12"
       height="104"
       width="104"
       id="rect6964"
       style="fill:url(#radialGradient7116);fill-opacity:1;stroke:#7f0000;stroke-opacity:1" />
    <text
       xml:space="preserve"
       style="font-size:24px;font-style:normal;font-weight:normal;line-height:125%;letter-spacing:0px;word-spacing:0px;fill:#000000;fill-opacity:1;stroke:none;font-family:Sans"
       x="-56"
       y="948.36218"
       id="text5893"
       sodipodi:linespacing="125%"><tspan
         sodipodi:role="line"
         id="tspan5895"
         x="-56"
         y="948.36218">128</tspan></text>
    <text
       sodipodi:linespacing="125%"
       id="text5901"
       y="1000.3622"
       x="184"
       style="font-size:16px;font-style:normal;font-weight:normal;line-height:125%;letter-spacing:0px;word-spacing:0px;fill:#000000;fill-opacity:1;stroke:none;font-family:Sans"
       xml:space="preserve"><tspan
         y="1000.3622"
         x="184"
         id="tspan5903"
         sodipodi:role="line">31 - 17</tspan></text>
    <text
       xml:space="preserve"
       style="font-size:16px;font-style:normal;font-weight:normal;line-height:125%;letter-spacing:0px;word-spacing:0px;fill:#000000;fill-opacity:1;stroke:none;font-family:Sans"
       x="172"
       y="1048.3622"
       id="text5905"
       sodipodi:linespacing="125%"><tspan
         sodipodi:role="line"
         id="tspan5907"
         x="172"
         y="1048.3622">16</tspan></text>
    <rect
       style="fill:none;stroke:#000000;stroke-width:1;stroke-linecap:round;stroke-linejoin:round;stroke-miterlimit:4;stroke-opacity:1;stroke-dasharray:none;stroke-dashoffset:0"
       id="rect5919"
       width="40"
       height="40"
       x="140"
       y="60"
       transform="translate(0,924.36218)"
       rx="4.5902016e-07" />
    <rect
       style="fill:none;stroke:#000000;stroke-width:1;stroke-linecap:round;stroke-linejoin:round;stroke-miterlimit:4;stroke-opacity:1;stroke-dasharray:none;stroke-dashoffset:0"
       id="rect5921"
       width="24"
       height="24"
       x="140"
       y="1032.3622"
       rx="4.5902016e-07" />
    <rect
       style="fill:#b3b3b3;fill-opacity:1;stroke:none"
       id="rect6935"
       width="32"
       height="4"
       x="144"
       y="56"
       transform="translate(0,924.36218)"
       rx="4.5902016e-07" />
    <rect
       style="fill:#b3b3b3;fill-opacity:1;stroke:none"
       id="rect6937"
       width="4"
       height="32"
       x="136"
       y="64"
       transform="translate(0,924.36218)"
       rx="4.5902016e-07" />
    <rect
       style="fill:#b3b3b3;fill-opacity:1;stroke:none"
       id="rect6939"
       width="16"
       height="4"
       x="144"
       y="104"
       rx="4.5902016e-07"
       transform="translate(0,924.36218)" />
    <rect
       style="fill:#b3b3b3;fill-opacity:1;stroke:none"
       id="rect6941"
       width="4"
       height="16"
       x="136"
       y="112"
       transform="translate(0,924.36218)"
       rx="4.5902016e-07" />
    <path
       inkscape:connector-curvature="0"
       id="path3849"
       d="m 32.991095,964.89446 c -1.321456,1.32145 -1.321456,3.44914 0,4.7706 l 16.697103,16.6971 -16.697103,16.69714 c -1.321456,1.3214 -1.321456,3.4491 0,4.7706 l 9.541202,9.5412 c 1.321457,1.3215 3.449144,1.3215 4.770601,0 l 16.697103,-16.6972 16.697103,16.6972 c 1.321457,1.3215 3.449144,1.3215 4.770601,0 l 9.5412,-9.5412 c 1.321457,-1.3215 1.321457,-3.4492 0,-4.7706 l -16.697101,-16.69714 16.697101,-16.6971 c 1.321457,-1.32146 1.321457,-3.44915 0,-4.7706 l -9.5412,-9.5412 c -1.321457,-1.32146 -3.449144,-1.32146 -4.770601,0 l -16.697103,16.6971 -16.697103,-16.6971 c -1.321457,-1.32146 -3.449144,-1.32146 -4.770601,0 l -9.541202,9.5412 z"
       style="fill:#000000;fill-opacity:1;stroke:none;filter:url(#filter3851)" />
    <path
       style="fill:url(#radialGradient3050);fill-opacity:1.0;stroke:#ffffff;stroke-opacity:0.31372549999999999;stroke-width:2;stroke-miterlimit:4;stroke-dasharray:none"
       d="m 32.991095,964.89446 c -1.321456,1.32145 -1.321456,3.44914 0,4.7706 l 16.697103,16.6971 -16.697103,16.69714 c -1.321456,1.3214 -1.321456,3.4491 0,4.7706 l 9.541202,9.5412 c 1.321457,1.3215 3.449144,1.3215 4.770601,0 l 16.697103,-16.6972 16.697103,16.6972 c 1.321457,1.3215 3.449144,1.3215 4.770601,0 l 9.5412,-9.5412 c 1.321457,-1.3215 1.321457,-3.4492 0,-4.7706 l -16.697101,-16.69714 16.697101,-16.6971 c 1.321457,-1.32146 1.321457,-3.44915 0,-4.7706 l -9.5412,-9.5412 c -1.321457,-1.32146 -3.449144,-1.32146 -4.770601,0 l -16.697103,16.6971 -16.697103,-16.6971 c -1.321457,-1.32146 -3.449144,-1.32146 -4.770601,0 l -9.541202,9.5412 z"
       id="rect3775"
       inkscape:connector-curvature="0" />
    <path
       style="fill:#000000;fill-opacity:1;stroke:none;filter:url(#filter3851)"
       d="m 32.991095,964.89446 c -1.321456,1.32145 -1.321456,3.44914 0,4.7706 l 16.697103,16.6971 -16.697103,16.69714 c -1.321456,1.3214 -1.321456,3.4491 0,4.7706 l 9.541202,9.5412 c 1.321457,1.3215 3.449144,1.3215 4.770601,0 l 16.697103,-16.6972 16.697103,16.6972 c 1.321457,1.3215 3.449144,1.3215 4.770601,0 l 9.5412,-9.5412 c 1.321457,-1.3215 1.321457,-3.4492 0,-4.7706 l -16.697101,-16.69714 16.697101,-16.6971 c 1.321457,-1.32146 1.321457,-3.44915 0,-4.7706 l -9.5412,-9.5412 c -1.321457,-1.32146 -3.449144,-1.32146 -4.770601,0 l -16.697103,16.6971 -16.697103,-16.6971 c -1.321457,-1.32146 -3.449144,-1.32146 -4.770601,0 l -9.541202,9.5412 z"
       id="path3857"
       inkscape:connector-curvature="0"
       transform="matrix(0.35282228,0,0,0.35282228,137.41937,656.35162)" />
    <path
       inkscape:connector-curvature="0"
       id="path3859"
       d="m 149.05937,996.78788 c -0.46624,0.46624 -0.46624,1.21694 0,1.68317 l 5.89111,5.89115 -5.89111,5.8911 c -0.46624,0.4662 -0.46624,1.2169 0,1.6832 l 3.36635,3.3663 c 0.46624,0.4663 1.21693,0.4663 1.68317,0 l 5.89111,-5.8911 5.89111,5.8911 c 0.46624,0.4663 1.21693,0.4663 1.68317,0 l 3.36635,-3.3663 c 0.46624,-0.4663 0.46624,-1.217 0,-1.6832 l -5.89111,-5.8911 5.89111,-5.89115 c 0.46624,-0.46623 0.46624,-1.21693 0,-1.68317 l -3.36635,-3.36635 c -0.46624,-0.46623 -1.21693,-0.46623 -1.68317,0 L 160,999.31264 l -5.89111,-5.89111 c -0.46624,-0.46623 -1.21693,-0.46623 -1.68317,0 l -3.36635,3.36635 z"
       style="fill:url(#radialGradient3861);fill-opacity:1;stroke:#ffffff;stroke-width:0.70564455;stroke-miterlimit:4;stroke-opacity:0.31372549;stroke-dasharray:none" />
    <path
       style="fill:url(#radialGradient3832);stroke:none;fill-opacity:1"
       d="M 148 114 L 146 116 L 150 120 L 146 124 L 148 126 L 152 122 L 156 126 L 158 124 L 154 120 L 158 116 L 156 114 L 152 118 L 148 114 z "
       transform="translate(0,924.36218)"
       id="path3817" />
  </g>
</svg>
