<?xml version="1.0" encoding="UTF-8" standalone="no"?>
<!-- Created with Inkscape (http://www.inkscape.org/) -->

<svg
   xmlns:dc="http://purl.org/dc/elements/1.1/"
   xmlns:cc="http://creativecommons.org/ns#"
   xmlns:rdf="http://www.w3.org/1999/02/22-rdf-syntax-ns#"
   xmlns:svg="http://www.w3.org/2000/svg"
   xmlns="http://www.w3.org/2000/svg"
   xmlns:xlink="http://www.w3.org/1999/xlink"
   xmlns:sodipodi="http://sodipodi.sourceforge.net/DTD/sodipodi-0.dtd"
   xmlns:inkscape="http://www.inkscape.org/namespaces/inkscape"
   width="128"
   height="128"
   id="svg2"
   version="1.1"
   inkscape:version="0.48.4 r9939"
   sodipodi:docname="utilities-terminal.svg">
  <defs
     id="defs4">
    <linearGradient
       id="linearGradient4700">
      <stop
         style="stop-color:#a40000;stop-opacity:1;"
         offset="0"
         id="stop4702" />
      <stop
         style="stop-color:#510000;stop-opacity:1;"
         offset="1"
         id="stop4704" />
    </linearGradient>
    <linearGradient
       inkscape:collect="always"
       id="linearGradient4723">
      <stop
         style="stop-color:#ffffff;stop-opacity:1;"
         offset="0"
         id="stop4725" />
      <stop
         style="stop-color:#ffffff;stop-opacity:0;"
         offset="1"
         id="stop4727" />
    </linearGradient>
    <linearGradient
       id="linearGradient5685">
      <stop
         id="stop5687"
         offset="0"
         style="stop-color:#ffffff;stop-opacity:0.69868994;" />
      <stop
         style="stop-color:#ffffff;stop-opacity:0.12227074;"
         offset="0.5"
         id="stop5691" />
      <stop
         id="stop5689"
         offset="1"
         style="stop-color:#ffffff;stop-opacity:0.79912663;" />
    </linearGradient>
    <linearGradient
       id="linearGradient5661">
      <stop
         style="stop-color:#ffffff;stop-opacity:0;"
         offset="0"
         id="stop5663" />
      <stop
         style="stop-color:#ffffff;stop-opacity:1;"
         offset="1"
         id="stop5665" />
    </linearGradient>
    <linearGradient
       id="linearGradient5633">
      <stop
         style="stop-color:#7d7d7d;stop-opacity:1;"
         offset="0"
         id="stop5635" />
      <stop
         id="stop5643"
         offset="0.5"
         style="stop-color:#e7e7e7;stop-opacity:1;" />
      <stop
         style="stop-color:#828282;stop-opacity:1;"
         offset="1"
         id="stop5637" />
    </linearGradient>
    <linearGradient
       id="linearGradient6403">
      <stop
         id="stop6405"
         offset="0"
         style="stop-color:#efefef;stop-opacity:1;" />
      <stop
         id="stop6407"
         offset="1"
         style="stop-color:#828282;stop-opacity:1;" />
    </linearGradient>
    <linearGradient
       id="linearGradient5894">
      <stop
         id="stop5896"
         offset="0"
         style="stop-color:#373737;stop-opacity:1;" />
      <stop
         style="stop-color:#5d5d5d;stop-opacity:1;"
         offset="0.0625"
         id="stop5908" />
      <stop
         style="stop-color:#848484;stop-opacity:1;"
         offset="0.125"
         id="stop5906" />
      <stop
         style="stop-color:#d1d1d1;stop-opacity:1;"
         offset="0.25"
         id="stop5904" />
      <stop
         style="stop-color:#a6a6a6;stop-opacity:1;"
         offset="0.5"
         id="stop5902" />
      <stop
         id="stop5898"
         offset="1"
         style="stop-color:#d2d2d2;stop-opacity:1;" />
    </linearGradient>
    <radialGradient
       inkscape:collect="always"
       xlink:href="#linearGradient5633"
       id="radialGradient5641"
       cx="64"
       cy="1011.0288"
       fx="64"
       fy="1011.0288"
       r="56"
       gradientTransform="matrix(1.2142857,4.4551995e-8,-2.6207029e-8,0.71428508,-13.71426,286.19935)"
       gradientUnits="userSpaceOnUse" />
    <linearGradient
       inkscape:collect="always"
       xlink:href="#linearGradient5661"
       id="linearGradient5669"
       x1="60"
       y1="32"
       x2="60"
       y2="96"
       gradientUnits="userSpaceOnUse" />
    <linearGradient
       inkscape:collect="always"
       xlink:href="#linearGradient5685"
       id="linearGradient5683"
       x1="4"
       y1="124"
       x2="124"
       y2="4"
       gradientUnits="userSpaceOnUse"
       gradientTransform="matrix(1.1155636,0,0,1.1155636,-7.3960692,916.96611)" />
    <filter
       inkscape:collect="always"
       id="filter5715">
      <feGaussianBlur
         inkscape:collect="always"
         stdDeviation="3.12"
         id="feGaussianBlur5717" />
    </filter>
    <linearGradient
       inkscape:collect="always"
       xlink:href="#linearGradient5685"
       id="linearGradient5757"
       x1="64"
       y1="-24"
       x2="64"
       y2="100"
       gradientUnits="userSpaceOnUse"
       gradientTransform="matrix(1.1155636,0,0,1.1155636,-7.3960692,916.96611)" />
    <radialGradient
       inkscape:collect="always"
       xlink:href="#linearGradient6403"
       id="radialGradient4700"
       gradientUnits="userSpaceOnUse"
       gradientTransform="matrix(2.3571429,0,0,2.1428571,-39.905778,887.21932)"
       cx="28.808512"
       cy="36"
       fx="28.808512"
       fy="36"
       r="56" />
    <linearGradient
       inkscape:collect="always"
       xlink:href="#linearGradient5894"
       id="linearGradient5924"
       gradientUnits="userSpaceOnUse"
       gradientTransform="matrix(0.25813113,0,0,0.25813113,143.47961,987.8424)"
       x1="64"
       y1="188"
       x2="64"
       y2="8" />
    <radialGradient
       inkscape:collect="always"
       xlink:href="#linearGradient5894"
       id="radialGradient5928"
       gradientUnits="userSpaceOnUse"
       gradientTransform="matrix(0.25813113,0,0,0.25813113,143.47961,749.23576)"
       cx="64"
       cy="1020.3622"
       fx="64"
       fy="1020.3622"
       r="52" />
    <linearGradient
       inkscape:collect="always"
       xlink:href="#linearGradient4723"
       id="linearGradient4729"
       x1="160"
       y1="88"
       x2="160"
       y2="74"
       gradientUnits="userSpaceOnUse" />
    <radialGradient
       inkscape:collect="always"
       xlink:href="#linearGradient4700"
       id="radialGradient4706"
       cx="64"
       cy="39.799557"
       fx="64"
       fy="39.799557"
       r="51.3125"
       gradientTransform="matrix(1,0,0,0.82643118,0,11.108404)"
       gradientUnits="userSpaceOnUse" />
    <radialGradient
       inkscape:collect="always"
       xlink:href="#linearGradient4700"
       id="radialGradient4714"
       cx="160"
       cy="75"
       fx="160"
       fy="75"
       r="12.5"
       gradientUnits="userSpaceOnUse" />
    <radialGradient
       inkscape:collect="always"
       xlink:href="#linearGradient4700"
       id="radialGradient4722"
       cx="152"
       cy="1041.3622"
       fx="152"
       fy="1041.3622"
       r="7"
       gradientUnits="userSpaceOnUse" />
  </defs>
  <sodipodi:namedview
     id="base"
     pagecolor="#ffffff"
     bordercolor="#666666"
     borderopacity="1.0"
     inkscape:pageopacity="0.0"
     inkscape:pageshadow="2"
     inkscape:zoom="2.0660776"
     inkscape:cx="131.13041"
     inkscape:cy="141.39712"
     inkscape:document-units="px"
     inkscape:current-layer="layer1"
     showgrid="true"
     inkscape:window-width="1280"
     inkscape:window-height="971"
     inkscape:window-x="0"
     inkscape:window-y="25"
     inkscape:window-maximized="1"
     showguides="true"
     inkscape:guide-bbox="true">
    <inkscape:grid
       type="xygrid"
       id="grid2985"
       empspacing="2"
       visible="true"
       enabled="true"
       snapvisiblegridlinesonly="true" />
  </sodipodi:namedview>
  <metadata
     id="metadata7">
    <rdf:RDF>
      <cc:Work
         rdf:about="">
        <dc:format>image/svg+xml</dc:format>
        <dc:type
           rdf:resource="http://purl.org/dc/dcmitype/StillImage" />
        <dc:title></dc:title>
      </cc:Work>
    </rdf:RDF>
  </metadata>
  <g
     inkscape:label="Layer 1"
     inkscape:groupmode="layer"
     id="layer1"
     transform="translate(0,-924.36218)">
    <rect
       style="fill:#000000;fill-opacity:1;stroke:none;filter:url(#filter5715)"
       id="rect5693"
       width="112"
       height="96"
       x="8"
       y="948.36218"
       rx="8"
       ry="8" />
    <rect
       ry="8"
       rx="8"
       y="944.36218"
       x="8"
       height="96"
       width="112"
       id="rect5631"
       style="fill:url(#radialGradient5641);fill-opacity:1;stroke:none" />
    <path
       style="fill:url(#radialGradient4700);fill-opacity:1;stroke:none"
       d="m 16,940.36218 c -4.432,0 -8,3.568 -8,8 l 0,80.00002 c 0,4.432 3.568,8 8,8 l 96,0 c 4.432,0 8,-3.568 8,-8 l 0,-80.00002 c 0,-4.432 -3.568,-8 -8,-8 l -96,0 z m 5.59375,5.59375 84.8125,0 c 4.94418,0 8.90625,3.99332 8.90625,8.93747 l 0,66.9375 c 0,4.9442 -3.96207,8.9375 -8.90625,8.9375 l -84.8125,0 c -4.944178,0 -8.90625,-3.9933 -8.90625,-8.9375 l 0,-66.9375 c 0,-4.94415 3.962072,-8.93747 8.90625,-8.93747 z"
       id="rect3824"
       inkscape:connector-curvature="0" />
    <path
       style="opacity:0.75;fill:url(#linearGradient5669);fill-opacity:1;stroke:none"
       d="m 16,16 c -4.432,0 -8,3.568 -8,8 l 0,60.90625 c 2.577978,1.139292 1.249033,2.206404 4,3.1875 L 12,32 c 0,-4.432 3.568,-8 8,-8 l 88,0 c 4.432,0 8,3.568 8,8 l 0,56.09375 c 2.75097,-0.981096 1.42202,-2.048208 4,-3.1875 L 120,24 c 0,-4.432 -3.568,-8 -8,-8 z"
       id="rect5645"
       transform="translate(0,924.36218)"
       inkscape:connector-curvature="0"
       sodipodi:nodetypes="ssccssssccsss" />
    <rect
       style="opacity:0.75;fill:none;stroke:url(#linearGradient5683);stroke-width:1.11556363;stroke-linecap:round;stroke-linejoin:round;stroke-miterlimit:4;stroke-opacity:1;stroke-dasharray:none;stroke-dashoffset:0"
       id="rect5675"
       width="102.63185"
       height="84.782829"
       x="12.684075"
       y="945.97076"
       rx="8.924509"
       ry="8.924509" />
    <path
       style="fill:url(#radialGradient4706);fill-opacity:1;stroke:none"
       d="M 21.59375 21.59375 C 16.649572 21.59375 12.6875 25.587072 12.6875 30.53125 L 12.6875 97.46875 C 12.6875 102.41293 16.649572 106.40625 21.59375 106.40625 L 106.40625 106.40625 C 111.35043 106.40625 115.3125 102.41293 115.3125 97.46875 L 115.3125 30.53125 C 115.3125 25.587072 111.35043 21.59375 106.40625 21.59375 L 21.59375 21.59375 z "
       id="rect4695"
       transform="translate(0,924.36218)" />
    <path
       style="opacity:0.5;fill:url(#linearGradient5757);fill-opacity:1;stroke:none"
       d="m 21.608584,945.97076 c -4.944178,0 -8.924509,3.98033 -8.924509,8.92451 l 0,51.49023 c 14.743496,5.5261 32.366656,8.7502 51.315925,8.7502 18.949269,0 36.57243,-3.2241 51.31592,-8.7502 l 0,-51.49023 c 0,-4.94418 -3.98033,-8.92451 -8.9245,-8.92451 l -84.782836,0 z"
       id="path5738"
       inkscape:connector-curvature="0" />
    <g
       transform="scale(1.0000055,0.99999448)"
       style="font-size:22.82618332px;font-style:normal;font-weight:normal;line-height:125%;letter-spacing:0px;word-spacing:0px;fill:#ffffff;fill-opacity:1;stroke:none;font-family:Sans"
       id="text4640">
      <path
         d="m 20.418495,959.13279 0,-2.0285 14.288656,5.18271 0,1.85016 -14.288656,5.18271 0,-2.0285 11.479966,-4.06814 -11.479966,-4.09044"
         style=""
         id="path4645" />
      <path
         d="m 48.761749,974.15706 0,1.59382 -11.858915,0 0,-1.59382 11.858915,0"
         style=""
         id="path4647" />
    </g>
    <path
       inkscape:connector-curvature="0"
       style="opacity:0.25;fill:#000000;fill-opacity:1;stroke:#000000;stroke-width:3;stroke-miterlimit:4;stroke-dasharray:none"
       id="path7219"
       d="m 148.65625,989.89343 c -1.14404,0 -2.09375,0.94971 -2.09375,2.09375 l 0,1.03122 0,21.6563 0,1.0312 c 0,1.1441 0.94971,2.0938 2.09375,2.0938 l 22.6875,0 c 1.14404,0 2.09375,-0.9497 2.09375,-2.0938 l 0,-1.0312 0,-21.6563 0,-1.03122 c 0,-1.14404 -0.94971,-2.09375 -2.09375,-2.09375 l -22.6875,0 z" />
    <path
       inkscape:connector-curvature="0"
       style="opacity:0.25;fill:#000000;fill-opacity:1;stroke:#000000;stroke-width:2;stroke-miterlimit:4;stroke-dasharray:none"
       id="path7217"
       d="m 148.65625,989.89343 c -1.14404,0 -2.09375,0.94971 -2.09375,2.09375 l 0,1.03122 0,21.6563 0,1.0312 c 0,1.1441 0.94971,2.0938 2.09375,2.0938 l 22.6875,0 c 1.14404,0 2.09375,-0.9497 2.09375,-2.0938 l 0,-1.0312 0,-21.6563 0,-1.03122 c 0,-1.14404 -0.94971,-2.09375 -2.09375,-2.09375 l -22.6875,0 z" />
    <path
       inkscape:connector-curvature="0"
       style="opacity:0.5;fill:#000000;fill-opacity:1;stroke:#000000"
       id="rect7185"
       d="m 148.65625,989.89343 c -1.14404,0 -2.09375,0.94971 -2.09375,2.09375 l 0,1.03122 0,21.6563 0,1.0312 c 0,1.1441 0.94971,2.0938 2.09375,2.0938 l 22.6875,0 c 1.14404,0 2.09375,-0.9497 2.09375,-2.0938 l 0,-1.0312 0,-21.6563 0,-1.03122 c 0,-1.14404 -0.94971,-2.09375 -2.09375,-2.09375 l -22.6875,0 z" />
    <rect
       style="fill:#808080;fill-opacity:1;stroke:none"
       id="rect7150"
       y="1036.3622"
       x="144"
       ry="1.9999974"
       rx="2"
       height="16"
       width="16" />
    <text
       sodipodi:linespacing="125%"
       style="font-size:24px;font-style:normal;font-weight:normal;line-height:125%;letter-spacing:0px;word-spacing:0px;fill:#000000;fill-opacity:1;stroke:none;font-family:Sans"
       xml:space="preserve"
       id="text5893"
       y="948.36218"
       x="-56"><tspan
         id="tspan5895"
         y="948.36218"
         x="-56">128</tspan></text>
    <text
       sodipodi:linespacing="125%"
       style="font-size:16px;font-style:normal;font-weight:normal;line-height:125%;letter-spacing:0px;word-spacing:0px;fill:#000000;fill-opacity:1;stroke:none;font-family:Sans"
       xml:space="preserve"
       id="text5901"
       y="1000.3622"
       x="184"><tspan
         id="tspan5903"
         y="1000.3622"
         x="184">31 - 17</tspan></text>
    <text
       sodipodi:linespacing="125%"
       style="font-size:16px;font-style:normal;font-weight:normal;line-height:125%;letter-spacing:0px;word-spacing:0px;fill:#000000;fill-opacity:1;stroke:none;font-family:Sans"
       xml:space="preserve"
       id="text5905"
       y="1048.3622"
       x="172"><tspan
         id="tspan5907"
         y="1048.3622"
         x="172">16</tspan></text>
    <rect
       style="fill:none;stroke:#000000;stroke-width:1;stroke-linecap:round;stroke-linejoin:round;stroke-miterlimit:4;stroke-opacity:1;stroke-dasharray:none;stroke-dashoffset:0"
       id="rect5919"
       y="984.36218"
       x="140"
       rx="4.5902016e-07"
       height="40"
       width="40" />
    <rect
       style="fill:none;stroke:#000000;stroke-width:1;stroke-linecap:round;stroke-linejoin:round;stroke-miterlimit:4;stroke-opacity:1;stroke-dasharray:none;stroke-dashoffset:0"
       id="rect5921"
       y="1032.3622"
       x="140"
       rx="4.5902016e-07"
       height="24"
       width="24" />
    <rect
       style="fill:#b3b3b3;fill-opacity:1;stroke:none"
       id="rect6935"
       y="980.36218"
       x="144"
       rx="4.5902016e-07"
       height="4"
       width="32" />
    <rect
       style="fill:#b3b3b3;fill-opacity:1;stroke:none"
       id="rect6937"
       y="988.36218"
       x="136"
       rx="4.5902016e-07"
       height="32"
       width="4" />
    <rect
       style="fill:#b3b3b3;fill-opacity:1;stroke:none"
       id="rect6939"
       y="1028.3622"
       x="144"
       rx="4.5902016e-07"
       height="4"
       width="16" />
    <rect
       style="fill:#b3b3b3;fill-opacity:1;stroke:none"
       id="rect6941"
       y="1036.3622"
       x="136"
       rx="4.5902016e-07"
       height="16"
       width="4" />
    <rect
       style="fill:#ffffff;fill-opacity:1;stroke:none"
       id="rect7118"
       y="1037.3622"
       x="145"
       ry="1.0769231"
       rx="1.0769231"
       height="14"
       width="14" />
    <rect
       style="fill:url(#radialGradient5928);fill-opacity:1.0;stroke:none"
       id="rect5952"
       y="990.94"
       x="146.57718"
       ry="2.0650492"
       rx="2.0650492"
       height="26.845638"
       width="26.845638" />
    <rect
       style="fill:#ffffff;fill-opacity:1;stroke:none"
       id="rect5954"
       y="989.90741"
       x="146.57718"
       ry="2.0650492"
       rx="2.0650492"
       height="26.845638"
       width="26.845638" />
    <rect
       style="opacity:0.50000000000000000;fill:url(#linearGradient5924);fill-opacity:1.0;stroke:none"
       id="rect5956"
       y="990.16559"
       x="146.83531"
       ry="2.0650492"
       rx="2.0650492"
       height="26.329376"
       width="26.329376" />
    <path
       style="fill:#b3b3b3;fill-opacity:1;stroke:none"
       d="M 144,121.09375 144,126 c 0,1 1,2 2,2 l 12,0 c 1,0 2,-1 2,-2 l 0,-4.90625 C 158.73163,121.64665 156.96049,122 155,122 l -6,0 c -1.96049,0 -3.73163,-0.35335 -5,-0.90625 z"
       id="rect4774"
       transform="translate(0,924.36218)"
       inkscape:connector-curvature="0"
       sodipodi:nodetypes="csssscssc" />
    <rect
       style="opacity:1;fill:url(#radialGradient4722);fill-opacity:1;stroke:none"
       id="rect7120"
       y="1037.3622"
       x="145"
       ry="1.0980393"
       rx="1.0980393"
       height="14"
       width="14" />
    <path
       style="fill:#ffffff;stroke:none;stroke-width:1px;stroke-linecap:butt;stroke-linejoin:miter;stroke-opacity:1"
       d="m 146,115 0,4 3,-2 z"
       id="path3892"
       inkscape:connector-curvature="0"
       transform="translate(0,924.36218)" />
    <rect
       style="opacity:1;fill:#ffffff;fill-opacity:1;stroke:none"
       id="rect3894"
       width="4"
       height="1"
       x="149"
       y="119"
       transform="translate(0,924.36218)"
       rx="0"
       ry="1" />
    <rect
       style="fill:url(#radialGradient4714);fill-opacity:1;stroke:#cccccc;stroke-opacity:0.62295076999999999"
       id="rect4712"
       width="24"
       height="24"
       x="148"
       y="67"
       transform="translate(0,924.36218)"
       rx="2.0650492"
       ry="2.0650492" />
    <text
       xml:space="preserve"
       style="font-size:7.10501289px;font-style:normal;font-weight:normal;line-height:125%;letter-spacing:0px;word-spacing:0px;fill:#ffffff;fill-opacity:1;stroke:none;font-family:Sans"
       x="150"
       y="999.36218"
       id="text4714"
       sodipodi:linespacing="125%"><tspan
         sodipodi:role="line"
         id="tspan4716"
         x="150"
         y="999.36218">&gt;_</tspan></text>
    <path
       style="fill:url(#linearGradient4729);fill-opacity:1;stroke:none;opacity:0.39228296"
       d="M 150.0625 67 C 148.91846 67 148 67.918463 148 69.0625 L 148 81.5625 C 150.84256 84.005513 155.16532 85.5625 160 85.5625 C 164.83468 85.5625 169.15744 84.005513 172 81.5625 L 172 69.0625 C 172 67.918463 171.08154 67 169.9375 67 L 150.0625 67 z "
       transform="translate(0,924.36218)"
       id="path4718" />
  </g>
</svg>
