<?xml version="1.0" encoding="UTF-8" standalone="no"?>
<!-- Created with Inkscape (http://www.inkscape.org/) -->

<svg
   xmlns:dc="http://purl.org/dc/elements/1.1/"
   xmlns:cc="http://creativecommons.org/ns#"
   xmlns:rdf="http://www.w3.org/1999/02/22-rdf-syntax-ns#"
   xmlns:svg="http://www.w3.org/2000/svg"
   xmlns="http://www.w3.org/2000/svg"
   xmlns:xlink="http://www.w3.org/1999/xlink"
   xmlns:sodipodi="http://sodipodi.sourceforge.net/DTD/sodipodi-0.dtd"
   xmlns:inkscape="http://www.inkscape.org/namespaces/inkscape"
   width="128"
   height="128"
   id="svg2"
   version="1.1"
   inkscape:version="0.48.4 r9939"
   sodipodi:docname="libreoffice-draw.svg">
  <defs
     id="defs4">
    <radialGradient
       inkscape:collect="always"
       xlink:href="#linearGradient7006-2"
       id="radialGradient5892"
       gradientUnits="userSpaceOnUse"
       gradientTransform="translate(3.8146973e-7,1.99999)"
       cx="88"
       cy="36"
       fx="88"
       fy="36"
       r="51" />
    <linearGradient
       inkscape:collect="always"
       id="linearGradient7006-2">
      <stop
         style="stop-color:#ffffff;stop-opacity:1;"
         offset="0"
         id="stop7008-0" />
      <stop
         style="stop-color:#ffffff;stop-opacity:0;"
         offset="1"
         id="stop7010-9" />
    </linearGradient>
    <linearGradient
       inkscape:collect="always"
       xlink:href="#linearGradient6978-10"
       id="linearGradient5895"
       gradientUnits="userSpaceOnUse"
       gradientTransform="translate(3.8146973e-7,926.36217)"
       x1="64"
       y1="188"
       x2="64"
       y2="8" />
    <linearGradient
       inkscape:collect="always"
       id="linearGradient6978-10">
      <stop
         style="stop-color:#000000;stop-opacity:0.25"
         offset="0"
         id="stop6980-0" />
      <stop
         style="stop-color:#000000;stop-opacity:0;"
         offset="1"
         id="stop6982-73" />
    </linearGradient>
    <radialGradient
       inkscape:collect="always"
       xlink:href="#linearGradient4216-4-8-2-7"
       id="radialGradient5899"
       gradientUnits="userSpaceOnUse"
       gradientTransform="translate(3.8146973e-7,-922.36219)"
       cx="64"
       cy="1020.3622"
       fx="64"
       fy="1020.3622"
       r="52" />
    <linearGradient
       id="linearGradient4216-4-8-2-7">
      <stop
         id="stop4218-8-0-7-97"
         offset="0"
         style="stop-color:#ffffff;stop-opacity:1;" />
      <stop
         id="stop4220-1-6-4-5"
         offset="1"
         style="stop-color:#c6c6c6;stop-opacity:1;" />
    </linearGradient>
    <filter
       color-interpolation-filters="sRGB"
       inkscape:collect="always"
       id="filter6960">
      <feGaussianBlur
         inkscape:collect="always"
         stdDeviation="4.16"
         id="feGaussianBlur6962" />
    </filter>
    <linearGradient
       id="linearGradient3881-3-2">
      <stop
         style="stop-color:#72adc7;stop-opacity:1;"
         offset="0"
         id="stop3883-3-12" />
      <stop
         style="stop-color:#104f6a;stop-opacity:1;"
         offset="1"
         id="stop3885-6-50" />
    </linearGradient>
    <linearGradient
       id="linearGradient3881-3-2-9">
      <stop
         style="stop-color:#72adc7;stop-opacity:1;"
         offset="0"
         id="stop3883-3-12-5" />
      <stop
         style="stop-color:#104f6a;stop-opacity:1;"
         offset="1"
         id="stop3885-6-50-7" />
    </linearGradient>
    <linearGradient
       inkscape:collect="always"
       xlink:href="#linearGradient6978-8"
       id="linearGradient5924-7"
       gradientUnits="userSpaceOnUse"
       gradientTransform="matrix(0.25813113,0,0,0.25813113,143.47961,63.48022)"
       x1="64"
       y1="188"
       x2="64"
       y2="8" />
    <linearGradient
       id="linearGradient6978-8">
      <stop
         id="stop6980-8"
         style="stop-color:#000000;stop-opacity:0.25"
         offset="0" />
      <stop
         id="stop6982-6"
         style="stop-color:#000000;stop-opacity:0"
         offset="1" />
    </linearGradient>
    <linearGradient
       id="linearGradient4216-4-8-2-4">
      <stop
         id="stop4218-8-0-7-7"
         style="stop-color:#ffffff;stop-opacity:1"
         offset="0" />
      <stop
         id="stop4220-1-6-4-8"
         style="stop-color:#c6c6c6;stop-opacity:1"
         offset="1" />
    </linearGradient>
    <linearGradient
       inkscape:collect="always"
       xlink:href="#linearGradient6978-8"
       id="linearGradient5931-7"
       gradientUnits="userSpaceOnUse"
       gradientTransform="matrix(0.13725491,0,0,0.13725491,143.21568,111.76482)"
       x1="64"
       y1="188"
       x2="64"
       y2="8" />
    <radialGradient
       inkscape:collect="always"
       xlink:href="#linearGradient4216-4-8-2-4"
       id="radialGradient3899"
       gradientUnits="userSpaceOnUse"
       gradientTransform="matrix(0.25813113,0,0,0.25813113,143.47961,-175.12642)"
       cx="64"
       cy="1020.3622"
       fx="64"
       fy="1020.3622"
       r="52" />
    <linearGradient
       id="linearGradient4875">
      <stop
         style="stop-color:#ffd700;stop-opacity:1;"
         offset="0"
         id="stop4877" />
      <stop
         style="stop-color:#c48d00;stop-opacity:1;"
         offset="1"
         id="stop4879" />
    </linearGradient>
    <radialGradient
       inkscape:collect="always"
       xlink:href="#linearGradient4875"
       id="radialGradient3938"
       gradientUnits="userSpaceOnUse"
       gradientTransform="matrix(10.816159,8.3195344e-7,-8.3195375e-7,10.816164,-1631.8502,-792.10476)"
       cx="155"
       cy="78.977249"
       fx="155"
       fy="78.977249"
       r="3.578125" />
    <radialGradient
       inkscape:collect="always"
       xlink:href="#linearGradient4875"
       id="radialGradient3940"
       gradientUnits="userSpaceOnUse"
       gradientTransform="matrix(2.7947587,2.1496624e-7,-2.1496632e-7,2.7947599,-278.18758,782.6397)"
       cx="155"
       cy="78.977249"
       fx="155"
       fy="78.977249"
       r="3.578125" />
    <radialGradient
       inkscape:collect="always"
       xlink:href="#linearGradient4875"
       id="radialGradient3942"
       gradientUnits="userSpaceOnUse"
       gradientTransform="matrix(1,0,0,1.0769231,0,915.13141)"
       cx="151.5"
       cy="120"
       fx="151.5"
       fy="120"
       r="6.5" />
    <linearGradient
       inkscape:collect="always"
       xlink:href="#linearGradient4666"
       id="linearGradient4730"
       gradientUnits="userSpaceOnUse"
       x1="32"
       y1="1028.3622"
       x2="64"
       y2="996.36218" />
    <linearGradient
       inkscape:collect="always"
       id="linearGradient4666">
      <stop
         style="stop-color:#d35f5f;stop-opacity:1;"
         offset="0"
         id="stop4668" />
      <stop
         style="stop-color:#d35f5f;stop-opacity:0;"
         offset="1"
         id="stop4670" />
    </linearGradient>
    <linearGradient
       inkscape:collect="always"
       xlink:href="#linearGradient4666"
       id="linearGradient3884"
       gradientUnits="userSpaceOnUse"
       x1="32"
       y1="1028.3622"
       x2="64"
       y2="996.36218" />
    <linearGradient
       inkscape:collect="always"
       xlink:href="#linearGradient4666"
       id="linearGradient3894"
       gradientUnits="userSpaceOnUse"
       x1="32"
       y1="1028.3622"
       x2="64"
       y2="996.36218"
       gradientTransform="matrix(0.251578,0,0,0.251578,145.22608,709.56861)" />
    <linearGradient
       inkscape:collect="always"
       xlink:href="#linearGradient4666"
       id="linearGradient3905"
       gradientUnits="userSpaceOnUse"
       gradientTransform="matrix(0.251578,0,0,0.251578,145.22608,709.56861)"
       x1="32"
       y1="1028.3622"
       x2="64"
       y2="996.36218" />
    <radialGradient
       inkscape:collect="always"
       xlink:href="#linearGradient4875"
       id="radialGradient3083"
       gradientUnits="userSpaceOnUse"
       gradientTransform="matrix(10.816159,8.3195344e-7,-8.3195375e-7,10.816164,-1631.8502,-792.10476)"
       cx="155"
       cy="78.977249"
       fx="155"
       fy="78.977249"
       r="3.578125" />
    <radialGradient
       inkscape:collect="always"
       xlink:href="#linearGradient4875"
       id="radialGradient3091"
       gradientUnits="userSpaceOnUse"
       gradientTransform="matrix(10.816159,8.3195344e-7,-8.3195375e-7,10.816164,-1631.8502,-792.10476)"
       cx="155"
       cy="78.977249"
       fx="155"
       fy="78.977249"
       r="3.578125" />
    <radialGradient
       inkscape:collect="always"
       xlink:href="#linearGradient4875"
       id="radialGradient3099"
       gradientUnits="userSpaceOnUse"
       gradientTransform="matrix(2.7947587,2.1496624e-7,-2.1496632e-7,2.7947599,-278.18758,-141.72248)"
       cx="155"
       cy="78.977249"
       fx="155"
       fy="78.977249"
       r="3.578125" />
  </defs>
  <sodipodi:namedview
     id="base"
     pagecolor="#ffffff"
     bordercolor="#666666"
     borderopacity="1.0"
     inkscape:pageopacity="0.0"
     inkscape:pageshadow="2"
     inkscape:zoom="23.375"
     inkscape:cx="155.53795"
     inkscape:cy="37.240817"
     inkscape:document-units="px"
     inkscape:current-layer="layer1"
     showgrid="true"
     inkscape:window-width="1215"
     inkscape:window-height="1000"
     inkscape:window-x="65"
     inkscape:window-y="24"
     inkscape:window-maximized="1"
     showguides="true"
     inkscape:guide-bbox="true">
    <inkscape:grid
       type="xygrid"
       id="grid2985"
       empspacing="2"
       visible="true"
       enabled="true"
       snapvisiblegridlinesonly="true" />
  </sodipodi:namedview>
  <metadata
     id="metadata7">
    <rdf:RDF>
      <cc:Work
         rdf:about="">
        <dc:format>image/svg+xml</dc:format>
        <dc:type
           rdf:resource="http://purl.org/dc/dcmitype/StillImage" />
        <dc:title />
      </cc:Work>
    </rdf:RDF>
  </metadata>
  <g
     inkscape:label="Layer 1"
     inkscape:groupmode="layer"
     id="layer1"
     transform="translate(0,-924.36218)">
    <path
       style="opacity:0.50000000000000000;fill:url(#linearGradient5931-7);fill-opacity:1;stroke:none"
       d="M 149 113 C 149.00067 113.021 149 113.0405 149 113.0625 L 149 127 L 157.90625 127 C 158.51456 127 159 126.51456 159 125.90625 L 159 114.09375 C 159 113.48544 158.51456 113 157.90625 113 L 149 113 z "
       transform="translate(0,924.36218)"
       id="rect7120" />
    <text
       sodipodi:linespacing="125%"
       style="font-size:24px;font-style:normal;font-weight:normal;line-height:125%;letter-spacing:0px;word-spacing:0px;fill:#000000;fill-opacity:1;stroke:none;font-family:Sans"
       xml:space="preserve"
       id="text5893"
       y="948.36218"
       x="-56"><tspan
         id="tspan5895"
         y="948.36218"
         x="-56">128</tspan></text>
    <rect
       ry="8"
       rx="8"
       y="938.36218"
       x="12"
       height="104"
       width="104"
       id="rect6938"
       style="fill:#000000;fill-opacity:1;stroke:none;filter:url(#filter6960)" />
    <path
       style="fill:url(#radialGradient5899);fill-opacity:1;stroke:none"
       d="M 40.9375 14 L 40.9375 112.65625 L 40.9375 112.90625 L 40.9375 114 A 0.15001501 0.15001501 0 0 1 40.9375 114.03125 A 0.15001501 0.15001501 0 0 1 40.9375 114.0625 L 40.9375 117.875 C 40.9375 117.913 40.938082 117.958 40.9375 118 L 108 118 C 112.432 118 116 114.432 116 110 L 116 22 C 116 17.568 112.432 14 108 14 L 40.9375 14 z "
       transform="translate(0,924.36218)"
       id="rect6936" />
    <path
       style="fill:#ffffff;fill-opacity:1;stroke:none"
       d="M 40.9375 10 L 40.9375 11.0625 L 40.9375 112.65625 L 40.9375 112.90625 L 40.9375 114 L 108 114 C 112.432 114 116 110.432 116 106 L 116 18 C 116 13.568 112.432 10 108 10 L 40.9375 10 z "
       transform="translate(0,924.36218)"
       id="rect6964" />
    <rect
       style="opacity:0.5;fill:url(#linearGradient5895);fill-opacity:1;stroke:none"
       id="rect6975"
       width="102"
       height="102"
       x="13"
       y="935.36218"
       rx="8"
       ry="8" />
    <path
       style="opacity:0.50000000000000000;fill:url(#radialGradient5892);fill-opacity:1;stroke:none"
       d="M 40.9375 11 L 40.9375 11.0625 L 40.9375 112.90625 L 40.9375 113 L 107 113 C 111.432 113 115 109.432 115 105 L 115 19 C 115 14.568 111.432 11 107 11 L 40.9375 11 z "
       transform="translate(0,924.36218)"
       id="rect7002" />
    <path
       style="fill:#7d5a00;fill-opacity:1;stroke:none"
       d="M 13.09375 104.53125 C 12.691229 104.53125 12.331653 104.60725 11.96875 104.65625 L 11.84375 104.6875 L 11.84375 104.8125 L 11.84375 109.875 C 11.84375 114.3855 15.583121 118.125 20.09375 118.125 L 40.78125 118.125 L 40.9375 118.125 L 40.9375 118 C 40.938082 117.958 40.9375 117.913 40.9375 117.875 L 40.9375 112.65625 C 40.9375 108.14825 37.320394 104.53125 32.8125 104.53125 L 13.09375 104.53125 z "
       transform="translate(0,924.36218)"
       id="rect4161-4" />
    <path
       style="fill:url(#radialGradient3938);fill-opacity:1.0;stroke:none"
       d="M 20.09375 9.84375 C 15.58312 9.84375 11.84375 13.58312 11.84375 18.09375 L 11.84375 105.90625 C 11.84375 110.41675 15.583121 114.15635 20.09375 114.15625 L 40.78125 114.15625 A 0.15001501 0.15001501 0 0 0 40.8125 114.15625 A 0.15001501 0.15001501 0 0 0 40.84375 114.125 A 0.15001501 0.15001501 0 0 0 40.875 114.125 A 0.15001501 0.15001501 0 0 0 40.90625 114.09375 A 0.15001501 0.15001501 0 0 0 40.9375 114.0625 A 0.15001501 0.15001501 0 0 0 40.9375 114.03125 A 0.15001501 0.15001501 0 0 0 40.9375 114 L 40.9375 112.90625 L 40.9375 11.0625 L 40.9375 10 A 0.15001501 0.15001501 0 0 0 40.9375 9.96875 A 0.15001501 0.15001501 0 0 0 40.9375 9.9375 A 0.15001501 0.15001501 0 0 0 40.90625 9.90625 A 0.15001501 0.15001501 0 0 0 40.875 9.875 A 0.15001501 0.15001501 0 0 0 40.84375 9.84375 A 0.15001501 0.15001501 0 0 0 40.8125 9.84375 A 0.15001501 0.15001501 0 0 0 40.78125 9.84375 L 20.09375 9.84375 z "
       transform="translate(0,924.36218)"
       id="rect3346-5" />
    <path
       inkscape:connector-curvature="0"
       style="opacity:0.25;fill:#000000;fill-opacity:1;stroke:#000000;stroke-width:3;stroke-miterlimit:4;stroke-dasharray:none"
       id="path7219"
       d="m 148.65625,989.89343 c -1.14404,0 -2.09375,0.94971 -2.09375,2.09375 l 0,1.03125 0,21.65627 0,1.0312 c 0,1.1441 0.94971,2.0938 2.09375,2.0938 l 22.6875,0 c 1.14404,0 2.09375,-0.9497 2.09375,-2.0938 l 0,-1.0312 0,-21.65627 0,-1.03125 c 0,-1.14404 -0.94971,-2.09375 -2.09375,-2.09375 l -22.6875,0 z" />
    <path
       inkscape:connector-curvature="0"
       style="opacity:0.25;fill:#000000;fill-opacity:1;stroke:#000000;stroke-width:2;stroke-miterlimit:4;stroke-dasharray:none"
       id="path7217"
       d="m 148.65625,989.89343 c -1.14404,0 -2.09375,0.94971 -2.09375,2.09375 l 0,1.03125 0,21.65627 0,1.0312 c 0,1.1441 0.94971,2.0938 2.09375,2.0938 l 22.6875,0 c 1.14404,0 2.09375,-0.9497 2.09375,-2.0938 l 0,-1.0312 0,-21.65627 0,-1.03125 c 0,-1.14404 -0.94971,-2.09375 -2.09375,-2.09375 l -22.6875,0 z" />
    <path
       inkscape:connector-curvature="0"
       style="opacity:0.5;fill:#000000;fill-opacity:1;stroke:#000000"
       id="rect7185"
       d="m 148.65625,989.89343 c -1.14404,0 -2.09375,0.94971 -2.09375,2.09375 l 0,1.03125 0,21.65627 0,1.0312 c 0,1.1441 0.94971,2.0938 2.09375,2.0938 l 22.6875,0 c 1.14404,0 2.09375,-0.9497 2.09375,-2.0938 l 0,-1.0312 0,-21.65627 0,-1.03125 c 0,-1.14404 -0.94971,-2.09375 -2.09375,-2.09375 l -22.6875,0 z" />
    <rect
       style="fill:#333333;fill-opacity:1;stroke:none"
       id="rect7150"
       y="1036.3622"
       x="144"
       ry="1"
       rx="1"
       height="16"
       width="16" />
    <text
       sodipodi:linespacing="125%"
       style="font-size:16px;font-style:normal;font-weight:normal;line-height:125%;letter-spacing:0px;word-spacing:0px;fill:#000000;fill-opacity:1;stroke:none;font-family:Sans"
       xml:space="preserve"
       id="text5901"
       y="1000.3622"
       x="184"><tspan
         id="tspan5903"
         y="1000.3622"
         x="184">31 - 17</tspan></text>
    <text
       sodipodi:linespacing="125%"
       style="font-size:16px;font-style:normal;font-weight:normal;line-height:125%;letter-spacing:0px;word-spacing:0px;fill:#000000;fill-opacity:1;stroke:none;font-family:Sans"
       xml:space="preserve"
       id="text5905"
       y="1048.3622"
       x="172"><tspan
         id="tspan5907"
         y="1048.3622"
         x="172">16</tspan></text>
    <rect
       style="fill:none;stroke:#000000;stroke-width:1;stroke-linecap:round;stroke-linejoin:round;stroke-miterlimit:4;stroke-opacity:1;stroke-dasharray:none;stroke-dashoffset:0"
       id="rect5919"
       y="984.36218"
       x="140"
       rx="4.5902016e-07"
       height="40"
       width="40" />
    <rect
       style="fill:none;stroke:#000000;stroke-width:1;stroke-linecap:round;stroke-linejoin:round;stroke-miterlimit:4;stroke-opacity:1;stroke-dasharray:none;stroke-dashoffset:0"
       id="rect5921"
       y="1032.3622"
       x="140"
       rx="4.5902016e-07"
       height="24"
       width="24" />
    <rect
       style="fill:#b3b3b3;fill-opacity:1;stroke:none"
       id="rect6935"
       y="980.36218"
       x="144"
       rx="4.5902016e-07"
       height="4"
       width="32" />
    <rect
       style="fill:#b3b3b3;fill-opacity:1;stroke:none"
       id="rect6937"
       y="988.36218"
       x="136"
       rx="4.5902016e-07"
       height="32"
       width="4" />
    <rect
       style="fill:#b3b3b3;fill-opacity:1;stroke:none"
       id="rect6939"
       y="1028.3622"
       x="144"
       rx="4.5902016e-07"
       height="4"
       width="16" />
    <rect
       style="fill:#b3b3b3;fill-opacity:1;stroke:none"
       id="rect6941"
       y="1036.3622"
       x="136"
       rx="4.5902016e-07"
       height="16"
       width="4" />
    <path
       style="fill:#ffffff;fill-opacity:1;stroke:none"
       d="M 149 113 C 149.00067 113.021 149 113.0405 149 113.0625 L 149 127 L 157.9375 127 C 158.53412 127 159 126.53412 159 125.9375 L 159 114.0625 C 159 113.46588 158.53412 113 157.9375 113 L 149 113 z "
       transform="translate(0,924.36218)"
       id="rect7118" />
    <path
       style="fill:url(#radialGradient3899);fill-opacity:1;stroke:none"
       d="M 154 66.5625 L 154 92.0625 L 154 92.125 L 154 92.40625 L 154 93.40625 C 154 93.41625 154.00014 93.4275 154 93.4375 L 171.34375 93.4375 C 172.48779 93.4375 173.4375 92.487787 173.4375 91.34375 L 173.4375 68.65625 C 173.4375 67.512213 172.48779 66.5625 171.34375 66.5625 L 154 66.5625 z "
       transform="translate(0,924.36218)"
       id="rect5952" />
    <path
       style="fill:#ffffff;fill-opacity:1;stroke:none"
       d="M 154 65.53125 L 154 65.8125 L 154 92.125 L 154 92.40625 L 171.34375 92.40625 C 172.48779 92.40625 173.4375 91.456537 173.4375 90.3125 L 173.4375 67.625 C 173.4375 66.480963 172.48779 65.53125 171.34375 65.53125 L 154 65.53125 z "
       transform="translate(0,924.36218)"
       id="rect5954" />
    <path
       style="opacity:0.50000000000000000;fill:url(#linearGradient5924-7);fill-opacity:1;stroke:none"
       d="M 154 65.8125 L 154 92.125 L 171.09375 92.125 C 172.23779 92.125 173.15625 91.206537 173.15625 90.0625 L 173.15625 67.875 C 173.15625 66.730963 172.23779 65.8125 171.09375 65.8125 L 154 65.8125 z "
       transform="translate(0,924.36218)"
       id="rect5956" />
    <path
       inkscape:connector-curvature="0"
       style="fill:#7d5a00;fill-opacity:1;stroke:none"
       d="m 146.84375,1014.3622 c -0.0993,0 -0.1858,0.018 -0.28125,0.031 l 0,1.3125 c 0,1.144 0.94971,2.0937 2.09375,2.0937 l 5.34375,0 c 1.4e-4,-0.01 0,-0.021 0,-0.031 l 0,-1.3437 c 0,-1.1441 -0.91846,-2.0625 -2.0625,-2.0625 l -5.09375,0 z"
       id="rect4161" />
    <path
       inkscape:connector-curvature="0"
       style="fill:url(#radialGradient3940);fill-opacity:1;stroke:none"
       d="m 148.65625,989.89343 c -1.14404,0 -2.09375,0.94971 -2.09375,2.09375 l 0,22.68752 c 0,1.144 0.94971,2.0937 2.09375,2.0937 l 5.34375,0 0,-0.2812 0,-26.31252 0,-0.28125 z"
       id="rect3346"
       sodipodi:nodetypes="ssssccccs" />
    <path
       inkscape:connector-curvature="0"
       style="fill:url(#radialGradient3942);fill-opacity:1;stroke:none"
       d="m 146.09375,1037.3622 c -0.60831,0 -1.09375,0.4854 -1.09375,1.0937 l 0,11.8125 c 0,0.6083 0.48544,1.0938 1.09375,1.0938 l 2.90625,0 0,-13.9375 c 0,-0.022 6.7e-4,-0.041 0,-0.062 l -2.90625,0 z"
       id="rect4166"
       sodipodi:nodetypes="cssscsccc" />
    <g
       id="g4719"
       transform="matrix(0.79718756,0,0,0.79718756,34.137496,184.10277)">
      <g
         id="g4680">
        <rect
           style="fill:url(#linearGradient4730);fill-opacity:1;stroke:#666666;stroke-width:1;stroke-linecap:round;stroke-linejoin:round;stroke-miterlimit:4;stroke-opacity:1;stroke-dasharray:none"
           id="rect4642"
           width="60"
           height="60"
           x="24"
           y="976.36218"
           rx="0"
           ry="0" />
        <rect
           style="fill:#ffffff;stroke:#000000;stroke-width:1;stroke-linecap:round;stroke-linejoin:round;stroke-miterlimit:4;stroke-opacity:1;stroke-dasharray:none"
           id="rect4650"
           width="8"
           height="8"
           x="20"
           y="48"
           transform="translate(0,924.36218)" />
        <rect
           style="fill:#ffffff;fill-opacity:1;stroke:#000000;stroke-width:1;stroke-linecap:round;stroke-linejoin:round;stroke-miterlimit:4;stroke-opacity:1;stroke-dasharray:none"
           id="rect4652"
           width="8"
           height="8"
           x="80"
           y="108"
           transform="translate(0,924.36218)" />
        <path
           sodipodi:type="arc"
           style="fill:#ffffff;fill-opacity:1;stroke:#000000;stroke-width:1;stroke-linecap:round;stroke-linejoin:round;stroke-miterlimit:4;stroke-opacity:1;stroke-dasharray:none"
           id="path4654"
           sodipodi:cx="84"
           sodipodi:cy="52"
           sodipodi:rx="4"
           sodipodi:ry="4"
           d="m 88,52 c 0,2.209139 -1.790861,4 -4,4 -2.209139,0 -4,-1.790861 -4,-4 0,-2.209139 1.790861,-4 4,-4 2.209139,0 4,1.790861 4,4 z"
           transform="translate(0,924.36218)" />
        <path
           style="fill:#000000;stroke:#cccccc;stroke-width:1px;stroke-linecap:butt;stroke-linejoin:miter;stroke-opacity:1"
           d="m 84,52 16,8 -8,8 z"
           id="path4656"
           inkscape:connector-curvature="0"
           transform="translate(0,924.36218)" />
        <path
           style="fill:none;stroke:#000000;stroke-width:1;stroke-linecap:butt;stroke-linejoin:miter;stroke-miterlimit:4;stroke-opacity:1;stroke-dasharray:1, 1;stroke-dashoffset:0"
           d="M 32,104 64,72"
           id="path4674"
           inkscape:connector-curvature="0"
           transform="translate(0,924.36218)" />
        <rect
           style="fill:#333333;fill-opacity:1;stroke:#cccccc;stroke-width:1;stroke-linecap:round;stroke-linejoin:round;stroke-miterlimit:4;stroke-opacity:1;stroke-dasharray:none"
           id="rect4676"
           width="8"
           height="8"
           x="28"
           y="100"
           transform="translate(0,924.36218)" />
        <path
           sodipodi:type="arc"
           style="fill:#333333;fill-opacity:1;stroke:#cccccc;stroke-width:1;stroke-linecap:round;stroke-linejoin:round;stroke-miterlimit:4;stroke-opacity:1;stroke-dasharray:none"
           id="path4678"
           sodipodi:cx="64"
           sodipodi:cy="72"
           sodipodi:rx="4"
           sodipodi:ry="4"
           d="m 68,72 c 0,2.209139 -1.790861,4 -4,4 -2.209139,0 -4,-1.790861 -4,-4 0,-2.209139 1.790861,-4 4,-4 2.209139,0 4,1.790861 4,4 z"
           transform="translate(0,924.36218)" />
      </g>
    </g>
    <g
       id="g3896"
       transform="matrix(0.80650422,0,0,0.80650422,34.897214,226.88195)">
      <rect
         style="fill:url(#linearGradient3905);fill-opacity:1;stroke:#666666;stroke-width:0.251578;stroke-linecap:round;stroke-linejoin:round;stroke-miterlimit:4;stroke-opacity:1;stroke-dasharray:none"
         id="rect3857"
         width="15.09468"
         height="15.09468"
         x="151.26395"
         y="955.19983"
         rx="0"
         ry="0" />
      <rect
         style="fill:#ffffff;stroke:#000000;stroke-width:0.251578;stroke-linecap:round;stroke-linejoin:round;stroke-miterlimit:4;stroke-opacity:1;stroke-dasharray:none"
         id="rect3859"
         width="2.012624"
         height="2.012624"
         x="150.25764"
         y="954.19354" />
      <rect
         style="fill:#ffffff;fill-opacity:1;stroke:#000000;stroke-width:0.251578;stroke-linecap:round;stroke-linejoin:round;stroke-miterlimit:4;stroke-opacity:1;stroke-dasharray:none"
         id="rect3861"
         width="2.012624"
         height="2.012624"
         x="165.35233"
         y="969.28821" />
      <path
         sodipodi:type="arc"
         style="fill:#ffffff;fill-opacity:1;stroke:#000000;stroke-width:1;stroke-linecap:round;stroke-linejoin:round;stroke-miterlimit:4;stroke-opacity:1;stroke-dasharray:none"
         id="path3863"
         sodipodi:cx="84"
         sodipodi:cy="52"
         sodipodi:rx="4"
         sodipodi:ry="4"
         d="m 88,52 c 0,2.209139 -1.790861,4 -4,4 -2.209139,0 -4,-1.790861 -4,-4 0,-2.209139 1.790861,-4 4,-4 2.209139,0 4,1.790861 4,4 z"
         transform="matrix(0.251578,0,0,0.251578,145.22608,942.1178)" />
      <path
         style="fill:none;stroke:#000000;stroke-width:0.251578;stroke-linecap:butt;stroke-linejoin:miter;stroke-miterlimit:4;stroke-opacity:1;stroke-dasharray:0.251578, 0.251578;stroke-dashoffset:0"
         d="m 153.27658,968.28191 8.05049,-8.05049"
         id="path3867"
         inkscape:connector-curvature="0" />
      <rect
         style="fill:#333333;fill-opacity:1;stroke:#cccccc;stroke-width:0.251578;stroke-linecap:round;stroke-linejoin:round;stroke-miterlimit:4;stroke-opacity:1;stroke-dasharray:none"
         id="rect3869"
         width="2.012624"
         height="2.012624"
         x="152.27026"
         y="967.27557" />
      <path
         sodipodi:type="arc"
         style="fill:#333333;fill-opacity:1;stroke:#cccccc;stroke-width:1;stroke-linecap:round;stroke-linejoin:round;stroke-miterlimit:4;stroke-opacity:1;stroke-dasharray:none"
         id="path3871"
         sodipodi:cx="64"
         sodipodi:cy="72"
         sodipodi:rx="4"
         sodipodi:ry="4"
         d="m 68,72 c 0,2.209139 -1.790861,4 -4,4 -2.209139,0 -4,-1.790861 -4,-4 0,-2.209139 1.790861,-4 4,-4 2.209139,0 4,1.790861 4,4 z"
         transform="matrix(0.251578,0,0,0.251578,145.22608,942.1178)" />
    </g>
    <path
       style="fill:#888a85;stroke:none;stroke-width:1px;stroke-linecap:butt;stroke-linejoin:miter;stroke-opacity:1"
       d="m 152,115 5,7 -1,0 0,1 -5,-7 1,0 z"
       id="path3918"
       inkscape:connector-curvature="0"
       transform="translate(0,924.36218)" />
    <path
       style="fill:#888a85;stroke:none;stroke-width:1px;stroke-linecap:butt;stroke-linejoin:miter;stroke-opacity:1"
       d="M 151 116 L 151 124 L 152 124 L 152 125 L 157 123 L 156 123 L 156 122 L 152 123.59375 L 152 116 L 151 116 z "
       transform="translate(0,924.36218)"
       id="path3920" />
    <path
       style="fill:#2e3436;stroke:none;stroke-width:1;stroke-linejoin:round;stroke-miterlimit:4;stroke-opacity:0.18823529000000000;stroke-dasharray:none"
       d="M 151.5 114 C 150.67157 114 150 114.67157 150 115.5 C 150 116.32843 150.67157 117 151.5 117 C 152.32843 117 153 116.32843 153 115.5 C 153 114.67157 152.32843 114 151.5 114 z M 151.5 115 C 151.77614 115 152 115.22386 152 115.5 C 152 115.77614 151.77614 116 151.5 116 C 151.22386 116 151 115.77614 151 115.5 C 151 115.22386 151.22386 115 151.5 115 z "
       transform="translate(0,924.36218)"
       id="path3909" />
    <path
       id="path3914"
       d="m 156.5,1045.3622 c -0.82843,0 -1.5,0.6716 -1.5,1.5 0,0.8284 0.67157,1.5 1.5,1.5 0.82843,0 1.5,-0.6716 1.5,-1.5 0,-0.8284 -0.67157,-1.5 -1.5,-1.5 z m 0,1 c 0.27614,0 0.5,0.2239 0.5,0.5 0,0.2761 -0.22386,0.5 -0.5,0.5 -0.27614,0 -0.5,-0.2239 -0.5,-0.5 0,-0.2761 0.22386,-0.5 0.5,-0.5 z"
       style="fill:#2e3436;stroke:none"
       inkscape:connector-curvature="0" />
    <path
       inkscape:connector-curvature="0"
       style="fill:#2e3436;stroke:none"
       d="m 151.5,1047.3622 c -0.82843,0 -1.5,0.6716 -1.5,1.5 0,0.8284 0.67157,1.5 1.5,1.5 0.82843,0 1.5,-0.6716 1.5,-1.5 0,-0.8284 -0.67157,-1.5 -1.5,-1.5 z m 0,1 c 0.27614,0 0.5,0.2239 0.5,0.5 0,0.2761 -0.22386,0.5 -0.5,0.5 -0.27614,0 -0.5,-0.2239 -0.5,-0.5 0,-0.2761 0.22386,-0.5 0.5,-0.5 z"
       id="path3916" />
  </g>
</svg>
