<?xml version="1.0" encoding="UTF-8" standalone="no"?>
<!-- Created with Inkscape (http://www.inkscape.org/) -->

<svg
   width="128"
   height="128"
   id="svg2"
   version="1.1"
   inkscape:version="1.1.1 (3bf5ae0d25, 2021-09-20)"
   sodipodi:docname="nautilus.svg"
   xmlns:inkscape="http://www.inkscape.org/namespaces/inkscape"
   xmlns:sodipodi="http://sodipodi.sourceforge.net/DTD/sodipodi-0.dtd"
   xmlns:xlink="http://www.w3.org/1999/xlink"
   xmlns="http://www.w3.org/2000/svg"
   xmlns:svg="http://www.w3.org/2000/svg"
   xmlns:rdf="http://www.w3.org/1999/02/22-rdf-syntax-ns#"
   xmlns:cc="http://creativecommons.org/ns#"
   xmlns:dc="http://purl.org/dc/elements/1.1/">
  <defs
     id="defs4">
    <inkscape:perspective
       sodipodi:type="inkscape:persp3d"
       inkscape:vp_x="0 : 64 : 1"
       inkscape:vp_y="0 : 1000 : 0"
       inkscape:vp_z="128 : 64 : 1"
       inkscape:persp3d-origin="64 : 42.666667 : 1"
       id="perspective8890" />
    <linearGradient
       id="linearGradient3785-6">
      <stop
         style="stop-color:#ffffff;stop-opacity:1;"
         offset="0"
         id="stop3787-4" />
      <stop
         style="stop-color:#d6d6d6;stop-opacity:1;"
         offset="1"
         id="stop3789-3" />
    </linearGradient>
    <linearGradient
       id="linearGradient3802-3">
      <stop
         style="stop-color:#ffc475;stop-opacity:1;"
         offset="0"
         id="stop3804-4" />
      <stop
         style="stop-color:#ff004a;stop-opacity:1;"
         offset="1"
         id="stop3806-1" />
    </linearGradient>
    <radialGradient
       inkscape:collect="always"
       xlink:href="#linearGradient3802-3"
       id="radialGradient3852"
       cx="153.60025"
       cy="1046.2241"
       fx="153.60025"
       fy="1046.2241"
       r="7.5"
       gradientTransform="matrix(1.6666654,-3.5764157e-7,3.5147543e-7,1.5999884,-101.0006,-626.5843)"
       gradientUnits="userSpaceOnUse" />
    <linearGradient
       id="linearGradient3802-3-5">
      <stop
         style="stop-color:#ffc475;stop-opacity:1;"
         offset="0"
         id="stop3804-4-7" />
      <stop
         style="stop-color:#ff004a;stop-opacity:1;"
         offset="1"
         id="stop3806-1-0" />
    </linearGradient>
    <linearGradient
       id="linearGradient3785-0-1">
      <stop
         style="stop-color:#ffffff;stop-opacity:1;"
         offset="0"
         id="stop3787-7-8" />
      <stop
         style="stop-color:#d6d6d6;stop-opacity:1;"
         offset="1"
         id="stop3789-1-7" />
    </linearGradient>
    <clipPath
       clipPathUnits="userSpaceOnUse"
       id="clipPath4405">
      <path
         id="path4407"
         style="opacity:0.8;fill:#0094af;fill-opacity:1;stroke:none;stroke-width:0.416667;stroke-miterlimit:4;stroke-dasharray:none"
         d="m 4,936.36218 c -2.2159999,0 -4,1.784 -4,4 v 8 28 c 0,-2.216 1.7840001,-4 4,-4 H 22.666016 25.333984 40 c 7.999998,0 8.000003,-8 16,-8 h 68 c 2.216,0 4,1.784 4,4 v -20 c 0,-2.216 -1.784,-4 -4,-4 H 53.333984 c -10.666667,0 -10.667318,-8 -21.333984,-8 z" />
    </clipPath>
    <filter
       inkscape:collect="always"
       style="color-interpolation-filters:sRGB"
       id="filter4275"
       x="-0.059765635"
       y="-0.10065787"
       width="1.1195313"
       height="1.2013157">
      <feGaussianBlur
         inkscape:collect="always"
         stdDeviation="3.1875004"
         id="feGaussianBlur4277" />
    </filter>
    <radialGradient
       inkscape:collect="always"
       xlink:href="#coverGradient"
       id="radialGradient2626"
       cx="72.521233"
       cy="998.11505"
       fx="72.521233"
       fy="998.11505"
       r="64"
       gradientTransform="matrix(1.4375003,0,-2.6475526e-5,1.4375021,-40.222863,-458.43033)"
       gradientUnits="userSpaceOnUse" />
    <linearGradient
       inkscape:collect="always"
       id="coverGradient">
      <stop
         style="stop-color:#5de0ff;stop-opacity:0.8"
         offset="0"
         id="stop8414" />
      <stop
         style="stop-color:#0094af;stop-opacity:0.8"
         offset="1"
         id="stop8416" />
    </linearGradient>
    <radialGradient
       inkscape:collect="always"
       xlink:href="#coverGradient"
       id="radialGradient4484"
       cx="156"
       cy="76.111115"
       fx="156"
       fy="76.111115"
       r="16"
       gradientTransform="matrix(1.53125,0,0,1.5312505,-82.875,887.817)"
       gradientUnits="userSpaceOnUse" />
    <filter
       inkscape:collect="always"
       style="color-interpolation-filters:sRGB"
       id="filter2087"
       x="-0.10087973"
       y="-0.098873578"
       width="1.2017684"
       height="1.1976406">
      <feGaussianBlur
         inkscape:collect="always"
         stdDeviation="1.2570648"
         id="feGaussianBlur2089" />
    </filter>
    <clipPath
       clipPathUnits="userSpaceOnUse"
       id="clipPath2111">
      <path
         id="path2113"
         style="color:#000000;fill:#ffffff;fill-opacity:0.501961;stroke-width:2.89093;stroke-linecap:round;-inkscape-stroke:none"
         d="m 63.492188,60.208984 c -7.172604,-0.002 -14.183274,3.794377 -17.548829,10.628907 -4.266277,8.66363 -0.988458,19.7105 7.892579,24 4.660586,2.251 10.076333,2.09679 14.49414,-0.09961 L 71,98.267578 a 1.4454628,1.4454628 0 0 0 -0.408203,1.837892 1.4454628,1.4454628 0 0 0 1.96875,0.54297 c 3.847017,-2.185402 7.020938,-5.476996 9.025391,-9.433596 5.248334,-10.3602 1.375334,-23.635869 -9.185547,-28.917969 -2.377989,-1.18937 -4.920216,-1.855119 -7.472657,-2.037109 -0.478582,-0.0341 -0.957373,-0.05058 -1.435546,-0.05078 z m 0.01953,8.509766 c 6.203719,0.05441 11.333499,5.185216 11.871093,11.345703 0.203616,2.3332 -0.232123,4.694154 -1.226562,6.804688 a 0.99999998,0.99999998 0 0 1 -1.330078,0.476562 0.99999998,0.99999998 0 0 1 -0.480469,-1.332031 c 0.845183,-1.7936 1.216761,-3.806191 1.044922,-5.775391 -0.480021,-5.500666 -5.350854,-10.035076 -10.931641,-9.470703 -4.605636,0.46576 -8.401997,4.589865 -7.839843,9.265625 0.446214,3.711467 3.824431,6.771291 7.591797,6.212891 2.818351,-0.417734 5.150674,-3.051897 4.599609,-5.904297 a 0.99999998,0.99999998 0 0 1 0.791015,-1.171875 0.99999998,0.99999998 0 0 1 1.171876,0.792969 c 0.787759,4.077466 -2.401725,7.686832 -6.267579,8.259765 -4.967306,0.736267 -9.2978,-3.182772 -9.871093,-7.951172 -0.70447,-5.859533 3.952897,-10.920727 9.623046,-11.49414 0.422087,-0.04268 0.840325,-0.06222 1.253907,-0.05859 z" />
    </clipPath>
  </defs>
  <sodipodi:namedview
     id="base"
     pagecolor="#ffffff"
     bordercolor="#666666"
     borderopacity="1.0"
     inkscape:pageopacity="0.0"
     inkscape:pageshadow="2"
     inkscape:zoom="1.28527"
     inkscape:cx="168.05808"
     inkscape:cy="-79.749781"
     inkscape:document-units="px"
     inkscape:current-layer="layer1"
     showgrid="true"
     inkscape:window-width="1920"
     inkscape:window-height="1001"
     inkscape:window-x="0"
     inkscape:window-y="0"
     inkscape:window-maximized="1"
     inkscape:pagecheckerboard="0">
    <inkscape:grid
       type="xygrid"
       id="grid3000"
       empspacing="4"
       visible="true"
       enabled="true"
       snapvisiblegridlinesonly="true" />
  </sodipodi:namedview>
  <metadata
     id="metadata7">
    <rdf:RDF>
      <cc:Work
         rdf:about="">
        <dc:format>image/svg+xml</dc:format>
        <dc:type
           rdf:resource="http://purl.org/dc/dcmitype/StillImage" />
      </cc:Work>
    </rdf:RDF>
  </metadata>
  <g
     inkscape:label="Ebene 1"
     inkscape:groupmode="layer"
     id="layer1"
     transform="translate(0,-924.36218)">
    <g
       id="icon31">
      <path
         style="fill:#0094af;fill-opacity:0.8"
         d="m 145,992.36218 c -0.554,0 -1,0.446 -1,1 v 2.39062 0.60938 20.60942 c 0,0.7707 0.61985,1.3906 1.39062,1.3906 h 29.21876 c 0.77077,0 1.39062,-0.6199 1.39062,-1.3906 v -21.2188 c 0,-0.77077 -0.61985,-1.39062 -1.39062,-1.39062 H 154 c -2,0 -2,-2 -4,-2 h -2 z"
         id="back31"
         sodipodi:nodetypes="ssccsssssssscs" />
      <rect
         style="fill:#5de0ff;fill-opacity:0.8;stroke:none"
         id="paperB31"
         width="27"
         height="18.999998"
         x="147"
         y="996.36218"
         rx="0.99999738"
         ry="0.99999738" />
      <rect
         style="fill:#ffffff;fill-opacity:0.8;stroke:none"
         id="paperA31"
         width="27"
         height="18.999998"
         x="146"
         y="997.36218"
         rx="0.99999738"
         ry="0.99999738" />
      <path
         style="fill:url(#radialGradient4484);fill-opacity:1"
         d="m 156,1000.3622 c -2,0 -2,2 -4,2 h -1 -5.60938 c -0.77077,0 -1.39062,0.6198 -1.39062,1.3906 v 1.5469 0.6719 11 c 0,0.7707 0.61986,1.3906 1.39062,1.3906 h 29.21876 c 0.77076,0 1.39062,-0.6199 1.39062,-1.3906 v -15.2188 c 0,-0.7708 -0.61986,-1.3906 -1.39062,-1.3906 z"
         id="front31"
         inkscape:connector-curvature="0"
         sodipodi:nodetypes="sscssccsssssss" />
    </g>
    <g
       id="icon16">
      <path
         style="fill:#0094af;fill-opacity:1;stroke:none"
         d="m 144,1037.3622 v 1 6 h 16 v -6 h -12 v -1 z"
         id="back16" />
      <rect
         style="fill:#ffffff;fill-opacity:1;stroke:none"
         id="paper16"
         width="14"
         height="5"
         x="145"
         y="1039.3622" />
      <path
         style="fill:#0094af;fill-opacity:1;stroke:none"
         d="m 148,1041.3622 v 1 h -4 v 8 h 16 v -9 z"
         id="front16" />
    </g>
    <g
       id="icon128">
      <path
         id="back"
         d="m 4.0000017,936.36217 c -2.2159999,0 -3.9999999,1.784 -3.9999999,4 v 8 88.00003 c 0,2.216 1.784,4 3.9999999,4 H 124 c 2.216,0 4,-1.784 4,-4 v -88.00003 c 0,-2.216 -1.784,-4 -4,-4 H 53.333334 c -10.666667,0 -10.666667,-8 -21.333333,-8 z"
         style="opacity:1;fill:#0094af;fill-opacity:0.8;stroke:none;stroke-width:0.416667;stroke-miterlimit:4;stroke-dasharray:none"
         inkscape:connector-curvature="0" />
      <rect
         style="opacity:1;fill:#ffffff;fill-opacity:0.8;stroke:none;stroke-width:0.416667;stroke-miterlimit:4;stroke-dasharray:none"
         id="paperB"
         width="108"
         height="76"
         x="12"
         y="952.36218"
         rx="3.9999986"
         ry="3.9999986" />
      <rect
         style="opacity:1;fill:#ffffff;fill-opacity:0.8;stroke:none;stroke-width:0.416667;stroke-miterlimit:4;stroke-dasharray:none"
         id="paperA"
         width="108"
         height="76"
         x="8"
         y="956.36218"
         rx="3.9999986"
         ry="3.9999986" />
      <path
         id="path4255"
         d="m 56,964.36217 c -7.999997,0 -8.000001,8 -15.999999,8 H 25.333334 22.666668 4.0000017 c -2.2159999,0 -3.9999999,1.784 -3.9999999,4 v 6.66666 4 49.33337 c 0,2.2159 1.784,4 3.9999999,4 H 124 c 2.216,0 4,-1.7841 4,-4 v -68.00003 c 0,-2.216 -1.784,-4 -4,-4 z"
         style="opacity:0.5;fill:#000000;fill-opacity:1;stroke:none;stroke-width:0.416667;stroke-miterlimit:4;stroke-dasharray:none;filter:url(#filter4275)"
         inkscape:connector-curvature="0"
         clip-path="url(#clipPath4405)" />
      <path
         id="front"
         d="m 56,964.36217 c -7.999997,0 -8.000001,8 -15.999999,8 H 25.333334 22.666668 4.0000017 c -2.2159999,0 -3.9999999,1.784 -3.9999999,4 v 6.66666 4 49.33337 c 0,2.2159 1.784,4 3.9999999,4 H 124 c 2.216,0 4,-1.7841 4,-4 v -68.00003 c 0,-2.216 -1.784,-4 -4,-4 z"
         style="opacity:1;fill:url(#radialGradient2626);fill-opacity:1;stroke:none;stroke-width:0.416667;stroke-miterlimit:4;stroke-dasharray:none"
         inkscape:connector-curvature="0" />
    </g>
    <text
       style="font-style:normal;font-weight:normal;font-size:24px;line-height:0%;font-family:sans-serif;letter-spacing:0px;word-spacing:0px;fill:#000000;fill-opacity:1;stroke:none"
       xml:space="preserve"
       id="text5893-3"
       y="948.36218"
       x="-56"><tspan
         id="tspan5895-8"
         y="948.36218"
         x="-56"
         style="font-family:sans-serif">128</tspan></text>
    <text
       style="font-style:normal;font-weight:normal;font-size:16px;line-height:0%;font-family:sans-serif;letter-spacing:0px;word-spacing:0px;fill:#000000;fill-opacity:1;stroke:none"
       xml:space="preserve"
       id="text5901"
       y="1000.3622"
       x="184"><tspan
         id="tspan5903"
         y="1000.3622"
         x="184"
         style="font-family:sans-serif">31 - 17</tspan></text>
    <text
       style="font-style:normal;font-weight:normal;font-size:16px;line-height:0%;font-family:sans-serif;letter-spacing:0px;word-spacing:0px;fill:#000000;fill-opacity:1;stroke:none"
       xml:space="preserve"
       id="text5905"
       y="1048.3622"
       x="172"><tspan
         id="tspan5907"
         y="1048.3622"
         x="172"
         style="font-family:sans-serif">16</tspan></text>
    <rect
       style="fill:none;stroke:#000000;stroke-width:1;stroke-linecap:round;stroke-linejoin:round;stroke-miterlimit:4;stroke-dasharray:none;stroke-dashoffset:0;stroke-opacity:1"
       id="rect5919"
       y="984.36218"
       x="140"
       rx="4.5902016e-07"
       height="40"
       width="40" />
    <rect
       style="fill:none;stroke:#000000;stroke-width:1;stroke-linecap:round;stroke-linejoin:round;stroke-miterlimit:4;stroke-dasharray:none;stroke-dashoffset:0;stroke-opacity:1"
       id="rect5921"
       y="1032.3622"
       x="140"
       rx="4.5902016e-07"
       height="24"
       width="24" />
    <rect
       style="fill:#b3b3b3;fill-opacity:1;stroke:none"
       id="rect6935"
       y="980.36218"
       x="144"
       rx="4.5902016e-07"
       height="4"
       width="32" />
    <rect
       style="fill:#b3b3b3;fill-opacity:1;stroke:none"
       id="rect6937"
       y="988.36218"
       x="136"
       rx="4.5902016e-07"
       height="32"
       width="4" />
    <rect
       style="fill:#b3b3b3;fill-opacity:1;stroke:none"
       id="rect6939"
       y="1028.3622"
       x="144"
       rx="4.5902016e-07"
       height="4"
       width="16" />
    <rect
       style="fill:#b3b3b3;fill-opacity:1;stroke:none"
       id="rect6941"
       y="1036.3622"
       x="136"
       rx="4.5902016e-07"
       height="16"
       width="4" />
    <path
       id="path1741"
       style="color:#000000;fill:#ffffff;fill-opacity:1;stroke-width:2.89093;stroke-linecap:round;-inkscape-stroke:none"
       d="M 63.492188 60.208984 C 56.319584 60.206984 49.308914 64.003361 45.943359 70.837891 C 41.677082 79.501521 44.954901 90.548391 53.835938 94.837891 C 58.496524 97.088891 63.912271 96.934681 68.330078 94.738281 L 71 98.267578 A 1.4454628 1.4454628 0 0 0 70.591797 100.10547 A 1.4454628 1.4454628 0 0 0 72.560547 100.64844 C 76.407564 98.463038 79.581485 95.171444 81.585938 91.214844 C 86.834272 80.854644 82.961272 67.578975 72.400391 62.296875 C 70.022402 61.107505 67.480175 60.441756 64.927734 60.259766 C 64.449152 60.225666 63.970361 60.209184 63.492188 60.208984 z M 63.511719 68.71875 C 69.715438 68.773156 74.845218 73.903966 75.382812 80.064453 C 75.586428 82.397653 75.150689 84.758607 74.15625 86.869141 A 0.99999998 0.99999998 0 0 1 72.826172 87.345703 A 0.99999998 0.99999998 0 0 1 72.345703 86.013672 C 73.190886 84.220072 73.562464 82.207481 73.390625 80.238281 C 72.910604 74.737615 68.039771 70.203205 62.458984 70.767578 C 57.853348 71.233338 54.056987 75.357443 54.619141 80.033203 C 55.065355 83.74467 58.443572 86.804494 62.210938 86.246094 C 65.029289 85.82836 67.361612 83.194197 66.810547 80.341797 A 0.99999998 0.99999998 0 0 1 67.601562 79.169922 A 0.99999998 0.99999998 0 0 1 68.773438 79.962891 C 69.561197 84.040357 66.371713 87.649723 62.505859 88.222656 C 57.538553 88.958923 53.208059 85.039884 52.634766 80.271484 C 51.930296 74.411951 56.587663 69.350757 62.257812 68.777344 C 62.679899 68.73466 63.098137 68.715123 63.511719 68.71875 z "
       transform="translate(0,924.36218)" />
    <path
       id="path2067"
       style="color:#000000;fill:#ffffff;fill-opacity:0.501961;stroke-width:2;stroke-linecap:round;stroke:#000000;stroke-miterlimit:4;stroke-dasharray:none;filter:url(#filter2087);opacity:0.5"
       d="M 63.492188 60.208984 C 56.319584 60.206984 49.308914 64.003361 45.943359 70.837891 C 41.677082 79.501521 44.954901 90.548391 53.835938 94.837891 C 58.496524 97.088891 63.912271 96.934681 68.330078 94.738281 L 71 98.267578 A 1.4454628 1.4454628 0 0 0 70.591797 100.10547 A 1.4454628 1.4454628 0 0 0 72.560547 100.64844 C 76.407564 98.463038 79.581485 95.171444 81.585938 91.214844 C 86.834272 80.854644 82.961272 67.578975 72.400391 62.296875 C 70.022402 61.107505 67.480175 60.441756 64.927734 60.259766 C 64.449152 60.225666 63.970361 60.209184 63.492188 60.208984 z M 63.511719 68.71875 C 69.715438 68.773156 74.845218 73.903966 75.382812 80.064453 C 75.586428 82.397653 75.150689 84.758607 74.15625 86.869141 A 0.99999998 0.99999998 0 0 1 72.826172 87.345703 A 0.99999998 0.99999998 0 0 1 72.345703 86.013672 C 73.190886 84.220072 73.562464 82.207481 73.390625 80.238281 C 72.910604 74.737615 68.039771 70.203205 62.458984 70.767578 C 57.853348 71.233338 54.056987 75.357443 54.619141 80.033203 C 55.065355 83.74467 58.443572 86.804494 62.210938 86.246094 C 65.029289 85.82836 67.361612 83.194197 66.810547 80.341797 A 0.99999998 0.99999998 0 0 1 67.601562 79.169922 A 0.99999998 0.99999998 0 0 1 68.773438 79.962891 C 69.561197 84.040357 66.371713 87.649723 62.505859 88.222656 C 57.538553 88.958923 53.208059 85.039884 52.634766 80.271484 C 51.930296 74.411951 56.587663 69.350757 62.257812 68.777344 C 62.679899 68.73466 63.098137 68.715123 63.511719 68.71875 z "
       transform="translate(0,924.36218)"
       clip-path="url(#clipPath2111)" />
    <g
       id="path2251"
       style="opacity:0.5">
      <path
         style="color:#000000;fill:#ffffff;fill-opacity:0.501961;stroke-width:2;stroke-linecap:round;-inkscape-stroke:none"
         d="m 159.56032,1009.2638 c 0.11883,0.2377 -0.26175,0.2774 -0.39503,0.1975 -0.36118,-0.2166 -0.25735,-0.7371 0,-0.9876 0.46034,-0.448 1.20832,-0.2691 1.58011,0.1976 0.54563,0.6848 0.28352,1.6867 -0.39503,2.1726 -0.90438,0.6477 -2.16779,0.2991 -2.7652,-0.5925 -0.75177,-1.1221 -0.31543,-2.6502 0.79006,-3.3578 1.33891,-0.857 3.13327,-0.3321 3.95029,0.9876 0.96283,1.5552 0.34907,3.6168 -1.18509,4.5428 -1.77124,1.0691 -4.10069,0.3662 -5.13537,-1.3826 -1.17567,-1.987 -0.3834,-4.5848 1.58012,-5.7279 2.20276,-1.2824 5.06901,-0.4007 6.32045,1.7776 1.38935,2.4184 0.41807,5.5534 -1.97514,6.913"
         id="path2273" />
      <path
         style="color:#000000;fill:#000000;stroke-linecap:round;-inkscape-stroke:none"
         d="m 159.20898,1003.748 c -0.7287,0.08 -1.45171,0.3081 -2.12695,0.7012 -2.4317,1.4157 -3.40792,4.6163 -1.9375,7.1016 1.22649,2.0729 3.8612,2.9041 6.05664,1.8867 a 1,1 0 0 0 -0.14062,1.0605 1,1 0 0 0 1.36328,0.375 c 2.86621,-1.6283 4.02518,-5.3627 2.34961,-8.2793 -1.14144,-1.9868 -3.37833,-3.0848 -5.56446,-2.8457 z"
         id="path2275" />
    </g>
    <path
       d="m 159.56032,1009.2638 c 0.11883,0.2377 -0.26175,0.2774 -0.39503,0.1975 -0.36118,-0.2166 -0.25735,-0.7371 0,-0.9876 0.46034,-0.448 1.20832,-0.2691 1.58011,0.1976 0.54563,0.6848 0.28352,1.6867 -0.39503,2.1726 -0.90438,0.6477 -2.16779,0.2991 -2.7652,-0.5925 -0.75177,-1.1221 -0.31543,-2.6502 0.79006,-3.3578 1.33891,-0.857 3.13327,-0.3321 3.95029,0.9876 0.96283,1.5552 0.34907,3.6168 -1.18509,4.5428 -1.77124,1.0691 -4.10069,0.3662 -5.13537,-1.3826 -1.17567,-1.987 -0.3834,-4.5848 1.58012,-5.7279 2.20276,-1.2824 5.06901,-0.4007 6.32045,1.7776 1.38935,2.4184 0.41807,5.5534 -1.97514,6.913"
       sodipodi:t0="0"
       sodipodi:argument="-17.742407"
       sodipodi:radius="5.2998662"
       sodipodi:revolution="3"
       sodipodi:expansion="1"
       sodipodi:cy="1009.2638"
       sodipodi:cx="159.56032"
       id="path10576"
       style="fill:#ffffff;fill-opacity:0.50196078;stroke:#ffffff;stroke-width:0.71105164;stroke-linecap:round;stroke-linejoin:miter;stroke-miterlimit:4;stroke-dasharray:none;stroke-opacity:1"
       sodipodi:type="spiral" />
    <path
       style="fill:#000000;fill-opacity:1;stroke:none;opacity:0.5"
       d="m 152.00007,1043.7907 c -1.65688,0 -3.00004,1.3432 -3.00004,3.0001 0,0.1688 0.0435,0.3246 0.0803,0.4821 0.22182,0.9471 1.04785,1.6608 2.06252,1.6608 1.03555,0 1.8895,-0.7379 2.08932,-1.7143 l 1.7411,0 c 0.0195,-0.1385 0.0267,-0.2849 0.0267,-0.4286 0,-1.6569 -1.34316,-3.0001 -3.00004,-3.0001 z"
       id="path10578-4"
       inkscape:connector-curvature="0" />
  </g>
</svg>
