<?xml version="1.0" encoding="UTF-8" standalone="no"?>
<!-- Created with Inkscape (http://www.inkscape.org/) -->

<svg
   xmlns:dc="http://purl.org/dc/elements/1.1/"
   xmlns:cc="http://creativecommons.org/ns#"
   xmlns:rdf="http://www.w3.org/1999/02/22-rdf-syntax-ns#"
   xmlns:svg="http://www.w3.org/2000/svg"
   xmlns="http://www.w3.org/2000/svg"
   xmlns:xlink="http://www.w3.org/1999/xlink"
   xmlns:sodipodi="http://sodipodi.sourceforge.net/DTD/sodipodi-0.dtd"
   xmlns:inkscape="http://www.inkscape.org/namespaces/inkscape"
   width="128"
   height="128"
   id="svg3829"
   version="1.1"
   inkscape:version="0.48.4 r9939"
   sodipodi:docname="applications-multimedia.svg">
  <defs
     id="defs3831">
    <linearGradient
       id="linearGradient8794">
      <stop
         style="stop-color:#ffffff;stop-opacity:1;"
         offset="0"
         id="stop8796" />
      <stop
         style="stop-color:#cacaca;stop-opacity:1;"
         offset="1"
         id="stop8798" />
    </linearGradient>
    <linearGradient
       gradientTransform="translate(-1.9073486e-7,-80)"
       inkscape:collect="always"
       xlink:href="#linearGradient5685"
       id="linearGradient5757"
       x1="64"
       y1="-24"
       x2="64"
       y2="100"
       gradientUnits="userSpaceOnUse" />
    <linearGradient
       id="linearGradient5685">
      <stop
         id="stop5687"
         offset="0"
         style="stop-color:#ffffff;stop-opacity:0.69868994;" />
      <stop
         style="stop-color:#ffffff;stop-opacity:0.12227074;"
         offset="0.5"
         id="stop5691" />
      <stop
         id="stop5689"
         offset="1"
         style="stop-color:#ffffff;stop-opacity:0.79912663;" />
    </linearGradient>
    <radialGradient
       inkscape:collect="always"
       xlink:href="#linearGradient5765"
       id="radialGradient5771"
       cx="76"
       cy="54.222221"
       fx="76"
       fy="54.222221"
       r="44"
       gradientTransform="matrix(1.6363636,0,0,0.81818182,-48.363636,-68.363636)"
       gradientUnits="userSpaceOnUse" />
    <linearGradient
       id="linearGradient5765">
      <stop
         style="stop-color:#9b1b9f;stop-opacity:1;"
         offset="0"
         id="stop5767" />
      <stop
         style="stop-color:#2b0b43;stop-opacity:1;"
         offset="1"
         id="stop5769" />
    </linearGradient>
    <linearGradient
       gradientTransform="translate(-1.9073486e-7,-80)"
       inkscape:collect="always"
       xlink:href="#linearGradient5685"
       id="linearGradient5683"
       x1="4"
       y1="124"
       x2="124"
       y2="4"
       gradientUnits="userSpaceOnUse" />
    <linearGradient
       gradientTransform="translate(-1.9073486e-7,-80)"
       inkscape:collect="always"
       xlink:href="#linearGradient5661"
       id="linearGradient5669"
       x1="60"
       y1="32"
       x2="60"
       y2="96"
       gradientUnits="userSpaceOnUse" />
    <linearGradient
       id="linearGradient5661">
      <stop
         style="stop-color:#ffffff;stop-opacity:0;"
         offset="0"
         id="stop5663" />
      <stop
         style="stop-color:#ffffff;stop-opacity:1;"
         offset="1"
         id="stop5665" />
    </linearGradient>
    <radialGradient
       inkscape:collect="always"
       xlink:href="#linearGradient5633"
       id="radialGradient5641"
       cx="64"
       cy="1011.0288"
       fx="64"
       fy="1011.0288"
       r="56"
       gradientTransform="matrix(1.2142857,4.4551995e-8,-2.6207029e-8,0.71428508,-13.71426,-718.16283)"
       gradientUnits="userSpaceOnUse" />
    <linearGradient
       id="linearGradient5633">
      <stop
         style="stop-color:#000000;stop-opacity:1;"
         offset="0"
         id="stop5635" />
      <stop
         id="stop5643"
         offset="0.5"
         style="stop-color:#8a8a8a;stop-opacity:1;" />
      <stop
         style="stop-color:#000000;stop-opacity:1;"
         offset="1"
         id="stop5637" />
    </linearGradient>
    <filter
       color-interpolation-filters="sRGB"
       inkscape:collect="always"
       id="filter5715">
      <feGaussianBlur
         inkscape:collect="always"
         stdDeviation="3.12"
         id="feGaussianBlur5717" />
    </filter>
    <radialGradient
       inkscape:collect="always"
       xlink:href="#linearGradient7110"
       id="radialGradient4039"
       cx="154"
       cy="38.25"
       fx="154"
       fy="38.25"
       r="7"
       gradientTransform="matrix(1.4285713,6.3571324e-7,-6.3571318e-7,1.4285712,-65.999964,-16.642948)"
       gradientUnits="userSpaceOnUse" />
    <linearGradient
       id="linearGradient7110">
      <stop
         style="stop-color:#5a5a5a;stop-opacity:1;"
         offset="0"
         id="stop7112" />
      <stop
         style="stop-color:#202020;stop-opacity:1;"
         offset="1"
         id="stop7114" />
    </linearGradient>
    <radialGradient
       inkscape:collect="always"
       xlink:href="#linearGradient7110"
       id="radialGradient3934"
       gradientUnits="userSpaceOnUse"
       gradientTransform="matrix(2.3323862,1.0379103e-6,-1.0379101e-6,2.332386,-195.9221,-92.479269)"
       cx="154"
       cy="38.25"
       fx="154"
       fy="38.25"
       r="7" />
  </defs>
  <sodipodi:namedview
     id="base"
     pagecolor="#ffffff"
     bordercolor="#666666"
     borderopacity="1.0"
     inkscape:pageopacity="0.0"
     inkscape:pageshadow="2"
     inkscape:zoom="5.6568546"
     inkscape:cx="84.383155"
     inkscape:cy="39.435597"
     inkscape:current-layer="layer1"
     showgrid="true"
     inkscape:grid-bbox="true"
     inkscape:document-units="px"
     inkscape:window-width="1221"
     inkscape:window-height="1000"
     inkscape:window-x="59"
     inkscape:window-y="24"
     inkscape:window-maximized="1"
     showguides="true"
     inkscape:guide-bbox="true">
    <inkscape:grid
       type="xygrid"
       id="grid3837"
       empspacing="4"
       visible="true"
       enabled="true"
       snapvisiblegridlinesonly="true" />
  </sodipodi:namedview>
  <metadata
     id="metadata3834">
    <rdf:RDF>
      <cc:Work
         rdf:about="">
        <dc:format>image/svg+xml</dc:format>
        <dc:type
           rdf:resource="http://purl.org/dc/dcmitype/StillImage" />
        <dc:title></dc:title>
      </cc:Work>
    </rdf:RDF>
  </metadata>
  <g
     id="layer1"
     inkscape:label="Layer 1"
     inkscape:groupmode="layer"
     transform="translate(0,80)">
    <rect
       ry="0"
       rx="0"
       y="-13.061364"
       x="151.83665"
       height="26.122728"
       width="16.326704"
       id="rect4041"
       style="opacity:0.14999999999999999;fill:#000000;fill-opacity:1;stroke:none" />
    <path
       id="path4043"
       d="m 148.57131,-13.061364 0,26.122728 4.89801,0 c 0,-0.9045 0.72817,-1.632671 1.63267,-1.632671 l 9.79602,0 c 0.9045,0 1.63267,0.728171 1.63267,1.632671 l 4.89801,0 0,-26.122728 -1.63267,0 0,1.632671 -1.63267,0 0,-1.632671 -1.63267,0 0,6.5306821 c 0,0.9044995 -0.72817,1.6326705 -1.63267,1.6326705 l -9.79602,0 c -0.9045,0 -1.63267,-0.728171 -1.63267,-1.6326705 l 0,-6.5306821 -1.63267,0 0,1.632671 -1.63267,0 0,-1.632671 -1.63267,0 z m 1.63267,3.2653412 1.63267,0 0,1.6326705 -1.63267,0 0,-1.6326705 z m 17.95937,0 1.63267,0 0,1.6326705 -1.63267,0 0,-1.6326705 z m -17.95937,3.2653409 1.63267,0 0,1.6326705 -1.63267,0 0,-1.6326705 z m 17.95937,0 1.63267,0 0,1.6326705 -1.63267,0 0,-1.6326705 z m -17.95937,3.265341 1.63267,0 0,1.6326704 -1.63267,0 0,-1.6326704 z m 4.89801,0 9.79602,0 c 0.9045,0 1.63267,0.728171 1.63267,1.6326704 l 0,9.7960228 c 0,0.9044994 -0.72817,1.6326705 -1.63267,1.6326705 l -9.79602,0 c -0.9045,0 -1.63267,-0.7281711 -1.63267,-1.6326705 l 0,-9.7960228 c 0,-0.9044994 0.72817,-1.6326704 1.63267,-1.6326704 z m 13.06136,0 1.63267,0 0,1.6326704 -1.63267,0 0,-1.6326704 z M 150.20398,0 l 1.63267,0 0,1.6326705 -1.63267,0 0,-1.6326705 z m 17.95937,0 1.63267,0 0,1.6326705 -1.63267,0 0,-1.6326705 z m -17.95937,3.2653409 1.63267,0 0,1.6326705 -1.63267,0 0,-1.6326705 z m 17.95937,0 1.63267,0 0,1.6326705 -1.63267,0 0,-1.6326705 z m -17.95937,3.265341 1.63267,0 0,1.6326704 -1.63267,0 0,-1.6326704 z m 17.95937,0 1.63267,0 0,1.6326704 -1.63267,0 0,-1.6326704 z m -17.95937,3.2653409 1.63267,0 0,1.6326702 -1.63267,0 0,-1.6326702 z m 17.95937,0 1.63267,0 0,1.6326702 -1.63267,0 0,-1.6326702 z"
       style="fill:url(#radialGradient3934);fill-opacity:1;stroke:#000000;stroke-width:1;stroke-opacity:0.18823529999999999;stroke-miterlimit:4;stroke-dasharray:none;stroke-linejoin:round"
       inkscape:connector-curvature="0" />
    <rect
       style="opacity:0.14999999999999999;fill:#000000;fill-opacity:1;stroke:none"
       id="rect3011-4"
       width="10"
       height="16"
       x="147"
       y="32"
       rx="0"
       ry="0" />
    <text
       xml:space="preserve"
       style="font-size:24px;font-style:normal;font-weight:normal;line-height:125%;letter-spacing:0px;word-spacing:0px;fill:#000000;fill-opacity:1;stroke:none;font-family:Sans"
       x="-56"
       y="-56"
       id="text5893"
       sodipodi:linespacing="125%"><tspan
         sodipodi:role="line"
         id="tspan5895"
         x="-56"
         y="-56">128</tspan></text>
    <text
       sodipodi:linespacing="125%"
       id="text5901"
       y="-4"
       x="184"
       style="font-size:16px;font-style:normal;font-weight:normal;line-height:125%;letter-spacing:0px;word-spacing:0px;fill:#000000;fill-opacity:1;stroke:none;font-family:Sans"
       xml:space="preserve"><tspan
         y="-4"
         x="184"
         id="tspan5903"
         sodipodi:role="line">31 - 17</tspan></text>
    <text
       xml:space="preserve"
       style="font-size:16px;font-style:normal;font-weight:normal;line-height:125%;letter-spacing:0px;word-spacing:0px;fill:#000000;fill-opacity:1;stroke:none;font-family:Sans"
       x="172"
       y="44"
       id="text5905"
       sodipodi:linespacing="125%"><tspan
         sodipodi:role="line"
         id="tspan5907"
         x="172"
         y="44">16</tspan></text>
    <rect
       style="fill:none;stroke:#000000;stroke-width:1;stroke-linecap:round;stroke-linejoin:round;stroke-miterlimit:4;stroke-opacity:1;stroke-dasharray:none;stroke-dashoffset:0"
       id="rect5919"
       width="40"
       height="40"
       x="140"
       y="-20"
       rx="4.5902016e-07" />
    <rect
       style="fill:none;stroke:#000000;stroke-width:1;stroke-linecap:round;stroke-linejoin:round;stroke-miterlimit:4;stroke-opacity:1;stroke-dasharray:none;stroke-dashoffset:0"
       id="rect5921"
       width="24"
       height="24"
       x="140"
       y="28"
       rx="4.5902016e-07" />
    <rect
       style="fill:#b3b3b3;fill-opacity:1;stroke:none"
       id="rect6935"
       width="32"
       height="4"
       x="144"
       y="-24"
       rx="4.5902016e-07" />
    <rect
       style="fill:#b3b3b3;fill-opacity:1;stroke:none"
       id="rect6937"
       width="4"
       height="32"
       x="136"
       y="-16"
       rx="4.5902016e-07" />
    <rect
       style="fill:#b3b3b3;fill-opacity:1;stroke:none"
       id="rect6939"
       width="16"
       height="4"
       x="144"
       y="24"
       rx="4.5902016e-07" />
    <rect
       style="fill:#b3b3b3;fill-opacity:1;stroke:none"
       id="rect6941"
       width="4"
       height="16"
       x="136"
       y="32"
       rx="4.5902016e-07" />
    <rect
       style="fill:#000000;fill-opacity:1;stroke:none;filter:url(#filter5715)"
       id="rect5693"
       width="112"
       height="96"
       x="8"
       y="-56"
       rx="8"
       ry="8" />
    <rect
       ry="8"
       rx="8"
       y="-60"
       x="8"
       height="96"
       width="112"
       id="rect5631"
       style="fill:url(#radialGradient5641);fill-opacity:1;stroke:none" />
    <rect
       style="fill:#000000;fill-opacity:1;stroke:none"
       id="rect5629"
       width="112"
       height="96"
       x="8"
       y="-64"
       rx="8"
       ry="8" />
    <path
       inkscape:connector-curvature="0"
       style="opacity:0.75;fill:url(#linearGradient5669);fill-opacity:1;stroke:none"
       d="m 16,-64 c -4.432,0 -8.0000002,3.568 -8.0000002,8 l 0,60.90625 C 10.577978,6.045542 13.249033,7.112654 16,8.09375 L 16,-48 c 0,-4.432 3.568,-8 8,-8 l 80,0 c 4.432,0 8,3.568 8,8 l 0,56.09375 c 2.75097,-0.981096 5.42202,-2.048208 8,-3.1875 L 120,-56 c 0,-4.432 -3.568,-8 -8,-8 l -96,0 z"
       id="rect5645" />
    <rect
       style="opacity:0.75;fill:none;stroke:url(#linearGradient5683);stroke-width:1;stroke-linecap:round;stroke-linejoin:round;stroke-miterlimit:4;stroke-opacity:1;stroke-dasharray:none;stroke-dashoffset:0"
       id="rect5675"
       width="92"
       height="76"
       x="17.999998"
       y="-54"
       rx="8"
       ry="8" />
    <rect
       style="fill:url(#radialGradient5771);fill-opacity:1;stroke:none"
       id="rect5763"
       width="88"
       height="72"
       x="19.999998"
       y="-52"
       rx="8"
       ry="8" />
    <path
       inkscape:connector-curvature="0"
       style="opacity:0.75;fill:url(#linearGradient5757);fill-opacity:1;stroke:none"
       d="m 26,-54 c -4.432,0 -8,3.568 -8,8 L 18,0.15625 C 31.216186,5.109888 47.013726,8 64,8 80.986274,8 96.783814,5.109888 110,0.15625 L 110,-46 c 0,-4.432 -3.568,-8 -8,-8 l -76,0 z"
       id="path5738" />
    <path
       style="fill:#ffffff;fill-opacity:1;stroke:none;opacity:0.85"
       d="M 59.03125 32.40625 L 56.625 33.53125 L 57.75 35.9375 L 55.34375 37.0625 L 54.21875 34.625 L 51.8125 35.75 L 56.28125 45.40625 C 56.899512 46.741629 56.304124 48.287987 54.96875 48.90625 L 40.5 55.625 C 39.164621 56.243263 37.618262 55.647884 37 54.3125 L 32.53125 44.6875 L 30.125 45.78125 L 31.21875 48.21875 L 28.8125 49.3125 L 27.6875 46.90625 L 25.28125 48.03125 L 43.15625 86.59375 L 50.375 83.25 C 49.756737 81.914621 50.352121 80.337013 51.6875 79.71875 L 66.125 73.03125 C 67.460379 72.412987 69.037987 72.977121 69.65625 74.3125 L 76.90625 70.96875 L 59.03125 32.40625 z M 58.875 38.34375 L 59.96875 40.75 L 57.5625 41.875 L 56.4375 39.46875 L 58.875 38.34375 z M 87.625 42.25 L 87.625 45.625 L 87.625 55.75 L 87.625 82.21875 C 85.151023 80.462174 81.538592 79.375 77.5 79.375 C 70.044153 79.375 64 83.152597 64 87.8125 C 64 92.472404 70.044153 96.25 77.5 96.25 C 84.955848 96.25 91 92.472404 91 87.8125 L 91 57.4375 L 94.375 59.125 L 97.75 55.75 L 91 52.375 L 91 47.3125 L 101.125 52.375 L 104.5 49 L 91 42.25 L 87.625 42.25 z M 61.09375 43.15625 L 62.21875 45.5625 L 59.8125 46.6875 L 58.6875 44.28125 L 61.09375 43.15625 z M 63.3125 47.96875 L 64.4375 50.40625 L 62.03125 51.5 L 60.90625 49.09375 L 63.3125 47.96875 z M 32.34375 50.625 L 33.46875 53.03125 L 31.0625 54.15625 L 29.9375 51.71875 L 32.34375 50.625 z M 57.125 51.09375 C 58.15969 51.057886 59.161303 51.623462 59.625 52.625 L 66.3125 67.09375 C 66.930763 68.429129 66.366634 70.006738 65.03125 70.625 L 50.5625 77.3125 C 49.227121 77.930763 47.649513 77.366629 47.03125 76.03125 L 40.34375 61.5625 C 39.725487 60.22712 40.289616 58.649512 41.625 58.03125 L 56.09375 51.34375 C 56.427595 51.189184 56.780103 51.105705 57.125 51.09375 z M 65.5625 52.8125 L 66.6875 55.21875 L 64.25 56.34375 L 63.15625 53.90625 L 65.5625 52.8125 z M 34.5625 55.4375 L 35.6875 57.84375 L 33.28125 58.96875 L 32.15625 56.5625 L 34.5625 55.4375 z M 67.78125 57.625 L 68.90625 60.03125 L 66.5 61.15625 L 65.375 58.75 L 67.78125 57.625 z M 36.8125 60.25 L 37.9375 62.65625 L 35.5 63.78125 L 34.40625 61.375 L 36.8125 60.25 z M 70.03125 62.4375 L 71.125 64.84375 L 68.71875 65.96875 L 67.625 63.5625 L 70.03125 62.4375 z M 39.03125 65.09375 L 40.15625 67.5 L 37.75 68.59375 L 36.625 66.1875 L 39.03125 65.09375 z M 72.25 67.28125 L 73.375 69.6875 L 70.96875 70.78125 L 69.84375 68.375 L 72.25 67.28125 z M 41.28125 69.90625 L 42.375 72.3125 L 39.96875 73.4375 L 38.875 71.03125 L 41.28125 69.90625 z M 43.5 74.71875 L 44.625 77.125 L 42.21875 78.25 L 41.09375 75.84375 L 43.5 74.71875 z M 45.75 79.53125 L 46.84375 81.9375 L 44.4375 83.0625 L 43.3125 80.65625 L 45.75 79.53125 z M 77.5 82.75 C 83.091869 82.75 87.625 85.016559 87.625 87.8125 C 87.625 90.608441 83.091869 92.875 77.5 92.875 C 71.908132 92.875 67.375 90.608441 67.375 87.8125 C 67.375 85.016559 71.908132 82.75 77.5 82.75 z "
       transform="translate(0,-80)"
       id="rect3000" />
    <rect
       style="opacity:0.15;fill:#ffffff;fill-opacity:1;stroke:none"
       id="rect3011"
       width="26.562437"
       height="42.499897"
       x="41.697117"
       y="-18.386223"
       rx="0"
       ry="0"
       transform="matrix(0.90745874,-0.42014121,0.42014121,0.90745874,0,0)" />
    <path
       inkscape:connector-curvature="0"
       style="fill:url(#radialGradient4039);fill-opacity:1.0;stroke:none"
       d="m 145,32 0,16 3,0 c 0,-0.554 0.446,-1 1,-1 l 6,0 c 0.554,0 1,0.446 1,1 l 3,0 0,-16 -1,0 0,1 -1,0 0,-1 -1,0 0,4 c 0,0.554 -0.446,1 -1,1 l -6,0 c -0.554,0 -1,-0.446 -1,-1 l 0,-4 -1,0 0,1 -1,0 0,-1 -1,0 z m 1,2 1,0 0,1 -1,0 0,-1 z m 11,0 1,0 0,1 -1,0 0,-1 z m -11,2 1,0 0,1 -1,0 0,-1 z m 11,0 1,0 0,1 -1,0 0,-1 z m -11,2 1,0 0,1 -1,0 0,-1 z m 3,0 6,0 c 0.554,0 1,0.446 1,1 l 0,6 c 0,0.554 -0.446,1 -1,1 l -6,0 c -0.554,0 -1,-0.446 -1,-1 l 0,-6 c 0,-0.554 0.446,-1 1,-1 z m 8,0 1,0 0,1 -1,0 0,-1 z m -11,2 1,0 0,1 -1,0 0,-1 z m 11,0 1,0 0,1 -1,0 0,-1 z m -11,2 1,0 0,1 -1,0 0,-1 z m 11,0 1,0 0,1 -1,0 0,-1 z m -11,2 1,0 0,1 -1,0 0,-1 z m 11,0 1,0 0,1 -1,0 0,-1 z m -11,2 1,0 0,1 -1,0 0,-1 z m 11,0 1,0 0,1 -1,0 0,-1 z"
       id="rect3000-3" />
  </g>
</svg>
