<?xml version="1.0" encoding="UTF-8" standalone="no"?>
<!-- Created with Inkscape (http://www.inkscape.org/) -->

<svg
   xmlns:dc="http://purl.org/dc/elements/1.1/"
   xmlns:cc="http://creativecommons.org/ns#"
   xmlns:rdf="http://www.w3.org/1999/02/22-rdf-syntax-ns#"
   xmlns:svg="http://www.w3.org/2000/svg"
   xmlns="http://www.w3.org/2000/svg"
   xmlns:xlink="http://www.w3.org/1999/xlink"
   xmlns:sodipodi="http://sodipodi.sourceforge.net/DTD/sodipodi-0.dtd"
   xmlns:inkscape="http://www.inkscape.org/namespaces/inkscape"
   sodipodi:docname="document-open.svg"
   inkscape:version="0.48.4 r9939"
   version="1.1"
   id="svg2"
   height="128"
   width="128">
  <sodipodi:namedview
     id="base"
     pagecolor="#ffffff"
     bordercolor="#666666"
     borderopacity="1.0"
     inkscape:pageopacity="0.0"
     inkscape:pageshadow="2"
     inkscape:zoom="1.2800001"
     inkscape:cx="-122.84448"
     inkscape:cy="51.613818"
     inkscape:document-units="px"
     inkscape:current-layer="layer1"
     showgrid="true"
     showguides="true"
     inkscape:guide-bbox="true"
     inkscape:window-width="1221"
     inkscape:window-height="1000"
     inkscape:window-x="59"
     inkscape:window-y="24"
     inkscape:window-maximized="1">
    <inkscape:grid
       snapvisiblegridlinesonly="true"
       enabled="true"
       visible="true"
       empspacing="4"
       id="grid2985"
       type="xygrid" />
  </sodipodi:namedview>
  <defs
     id="defs4">
    <linearGradient
       id="linearGradient7110">
      <stop
         style="stop-color:#5a5a5a;stop-opacity:1;"
         offset="0"
         id="stop7112" />
      <stop
         style="stop-color:#202020;stop-opacity:1;"
         offset="1"
         id="stop7114" />
    </linearGradient>
    <linearGradient
       id="linearGradient4216-4-8-2">
      <stop
         id="stop4218-8-0-7"
         offset="0"
         style="stop-color:#494949;stop-opacity:1;" />
      <stop
         id="stop4220-1-6-4"
         offset="1"
         style="stop-color:#0f0f0f;stop-opacity:1;" />
    </linearGradient>
    <linearGradient
       id="linearGradient8794-33">
      <stop
         style="stop-color:#ffffff;stop-opacity:1;"
         offset="0"
         id="stop8796-9" />
      <stop
         style="stop-color:#cacaca;stop-opacity:1;"
         offset="1"
         id="stop8798-6" />
    </linearGradient>
    <radialGradient
       inkscape:collect="always"
       xlink:href="#linearGradient7110-8"
       id="radialGradient6954"
       cx="154"
       cy="118.25001"
       fx="154"
       fy="118.25001"
       r="7"
       gradientTransform="matrix(1.1428571,-5.4204395e-7,5.4204393e-7,1.1428571,-22.000064,-17.142774)"
       gradientUnits="userSpaceOnUse" />
    <radialGradient
       inkscape:collect="always"
       xlink:href="#linearGradient4216-4-8-2-8"
       id="radialGradient3891"
       gradientUnits="userSpaceOnUse"
       gradientTransform="matrix(2.03125,0,0,2.03125,-149.5625,760.92465)"
       cx="154"
       cy="118"
       fx="154"
       fy="118"
       r="8" />
    <linearGradient
       id="linearGradient4216-4-8-2-8">
      <stop
         id="stop4218-8-0-7-6"
         offset="0"
         style="stop-color:#494949;stop-opacity:1;" />
      <stop
         id="stop4220-1-6-4-1"
         offset="1"
         style="stop-color:#0f0f0f;stop-opacity:1;" />
    </linearGradient>
    <radialGradient
       inkscape:collect="always"
       xlink:href="#linearGradient7006-1"
       id="radialGradient3164"
       gradientUnits="userSpaceOnUse"
       gradientTransform="translate(3.8146973e-7,924.36219)"
       cx="88"
       cy="36"
       fx="88"
       fy="36"
       r="51" />
    <linearGradient
       inkscape:collect="always"
       id="linearGradient7006-1">
      <stop
         style="stop-color:#ffffff;stop-opacity:1;"
         offset="0"
         id="stop7008-4" />
      <stop
         style="stop-color:#ffffff;stop-opacity:0;"
         offset="1"
         id="stop7010-5" />
    </linearGradient>
    <linearGradient
       inkscape:collect="always"
       xlink:href="#linearGradient6978-9"
       id="linearGradient3167"
       gradientUnits="userSpaceOnUse"
       gradientTransform="translate(3.8146973e-7,924.36219)"
       x1="64"
       y1="188"
       x2="64"
       y2="8" />
    <linearGradient
       inkscape:collect="always"
       id="linearGradient6978-9">
      <stop
         style="stop-color:#000000;stop-opacity:0.25"
         offset="0"
         id="stop6980-8" />
      <stop
         style="stop-color:#000000;stop-opacity:0;"
         offset="1"
         id="stop6982-1" />
    </linearGradient>
    <radialGradient
       gradientTransform="translate(3.8146973e-7,-1.1772461e-5)"
       inkscape:collect="always"
       xlink:href="#linearGradient4216-4-8-2-6"
       id="radialGradient3171"
       gradientUnits="userSpaceOnUse"
       cx="64"
       cy="1020.3622"
       fx="64"
       fy="1020.3622"
       r="52" />
    <linearGradient
       id="linearGradient4216-4-8-2-6">
      <stop
         id="stop4218-8-0-7-4"
         offset="0"
         style="stop-color:#ffffff;stop-opacity:1;" />
      <stop
         id="stop4220-1-6-4-0"
         offset="1"
         style="stop-color:#c6c6c6;stop-opacity:1;" />
    </linearGradient>
    <filter
       color-interpolation-filters="sRGB"
       inkscape:collect="always"
       id="filter6960">
      <feGaussianBlur
         inkscape:collect="always"
         stdDeviation="4.16"
         id="feGaussianBlur6962" />
    </filter>
    <radialGradient
       inkscape:collect="always"
       xlink:href="#linearGradient7110"
       id="radialGradient6752"
       gradientUnits="userSpaceOnUse"
       gradientTransform="matrix(0.33280008,0,0,0.33280008,138.55525,984.10621)"
       cx="76"
       cy="46.222111"
       fx="76"
       fy="46.222111"
       r="41.53125" />
    <radialGradient
       inkscape:collect="always"
       xlink:href="#linearGradient7110"
       id="radialGradient6769"
       gradientUnits="userSpaceOnUse"
       gradientTransform="matrix(0.33280008,0,0,0.33280008,138.55525,984.10621)"
       cx="76"
       cy="46.222111"
       fx="76"
       fy="46.222111"
       r="41.53125" />
    <radialGradient
       inkscape:collect="always"
       xlink:href="#linearGradient7110-8"
       id="radialGradient6861"
       cx="150.00002"
       cy="122.00002"
       fx="150.00002"
       fy="122.00002"
       r="8"
       gradientUnits="userSpaceOnUse"
       gradientTransform="matrix(-1,0,0,-1,304.00002,1164.3622)" />
    <linearGradient
       id="linearGradient7110-8">
      <stop
         style="stop-color:#5a5a5a;stop-opacity:1;"
         offset="0"
         id="stop7112-6" />
      <stop
         style="stop-color:#202020;stop-opacity:1;"
         offset="1"
         id="stop7114-9" />
    </linearGradient>
    <radialGradient
       r="8"
       fy="122.00002"
       fx="150.00002"
       cy="122.00002"
       cx="150.00002"
       gradientTransform="matrix(-1,0,0,-1,120.00002,1264.3622)"
       gradientUnits="userSpaceOnUse"
       id="radialGradient3139"
       xlink:href="#linearGradient7110-8"
       inkscape:collect="always" />
    <radialGradient
       inkscape:collect="always"
       xlink:href="#linearGradient7110-8"
       id="radialGradient3825"
       gradientUnits="userSpaceOnUse"
       gradientTransform="matrix(0.33280008,0,0,0.33280008,138.55525,984.60622)"
       cx="76"
       cy="46.222111"
       fx="76"
       fy="46.222111"
       r="41.53125" />
    <radialGradient
       inkscape:collect="always"
       xlink:href="#linearGradient7110-8"
       id="radialGradient3831"
       gradientUnits="userSpaceOnUse"
       gradientTransform="matrix(0.88241359,0,0,0.88241359,7.13962,931.97958)"
       cx="76"
       cy="46.222111"
       fx="76"
       fy="46.222111"
       r="41.53125" />
  </defs>
  <metadata
     id="metadata7">
    <rdf:RDF>
      <cc:Work
         rdf:about="">
        <dc:format>image/svg+xml</dc:format>
        <dc:type
           rdf:resource="http://purl.org/dc/dcmitype/StillImage" />
        <dc:title />
      </cc:Work>
    </rdf:RDF>
  </metadata>
  <g
     transform="translate(0,-924.36218)"
     id="layer1"
     inkscape:groupmode="layer"
     inkscape:label="Layer 1">
    <text
       xml:space="preserve"
       style="font-size:24px;font-style:normal;font-weight:normal;line-height:125%;letter-spacing:0px;word-spacing:0px;fill:#000000;fill-opacity:1;stroke:none;font-family:Sans"
       x="-56"
       y="948.36218"
       id="text5893"
       sodipodi:linespacing="125%"><tspan
         sodipodi:role="line"
         id="tspan5895"
         x="-56"
         y="948.36218">128</tspan></text>
    <text
       sodipodi:linespacing="125%"
       id="text5901"
       y="1000.3622"
       x="184"
       style="font-size:16px;font-style:normal;font-weight:normal;line-height:125%;letter-spacing:0px;word-spacing:0px;fill:#000000;fill-opacity:1;stroke:none;font-family:Sans"
       xml:space="preserve"><tspan
         y="1000.3622"
         x="184"
         id="tspan5903"
         sodipodi:role="line">31 - 17</tspan></text>
    <text
       xml:space="preserve"
       style="font-size:16px;font-style:normal;font-weight:normal;line-height:125%;letter-spacing:0px;word-spacing:0px;fill:#000000;fill-opacity:1;stroke:none;font-family:Sans"
       x="172"
       y="1048.3622"
       id="text5905"
       sodipodi:linespacing="125%"><tspan
         sodipodi:role="line"
         id="tspan5907"
         x="172"
         y="1048.3622">16</tspan></text>
    <rect
       style="fill:none;stroke:#000000;stroke-width:1;stroke-linecap:round;stroke-linejoin:round;stroke-miterlimit:4;stroke-opacity:1;stroke-dasharray:none;stroke-dashoffset:0"
       id="rect5919"
       width="40"
       height="40"
       x="140"
       y="60"
       transform="translate(0,924.36218)"
       rx="4.5902016e-07" />
    <rect
       style="fill:none;stroke:#000000;stroke-width:1;stroke-linecap:round;stroke-linejoin:round;stroke-miterlimit:4;stroke-opacity:1;stroke-dasharray:none;stroke-dashoffset:0"
       id="rect5921"
       width="24"
       height="24"
       x="140"
       y="1032.3622"
       rx="4.5902016e-07" />
    <rect
       style="fill:#b3b3b3;fill-opacity:1;stroke:none"
       id="rect6935"
       width="32"
       height="4"
       x="144"
       y="56"
       transform="translate(0,924.36218)"
       rx="4.5902016e-07" />
    <rect
       style="fill:#b3b3b3;fill-opacity:1;stroke:none"
       id="rect6937"
       width="4"
       height="32"
       x="136"
       y="64"
       transform="translate(0,924.36218)"
       rx="4.5902016e-07" />
    <rect
       style="fill:#b3b3b3;fill-opacity:1;stroke:none"
       id="rect6939"
       width="16"
       height="4"
       x="144"
       y="104"
       rx="4.5902016e-07"
       transform="translate(0,924.36218)" />
    <rect
       style="fill:#b3b3b3;fill-opacity:1;stroke:none"
       id="rect6941"
       width="4"
       height="16"
       x="136"
       y="112"
       transform="translate(0,924.36218)"
       rx="4.5902016e-07" />
    <path
       style="opacity:1;fill:url(#radialGradient6954);fill-opacity:1.0;stroke:none"
       d="M 146 112 C 145.446 112 145 112.446 145 113 L 145 127 C 145 127.554 145.446 128 146 128 L 155 128 C 155.554 128 156 127.554 156 127 L 156 113 C 156 112.446 155.554 112 155 112 L 146 112 z M 156 112 C 156.554 112 157 112.446 157 113 L 157 115 L 157 118 L 157 127 C 157 127.554 156.554 128 156 128 L 157 128 C 157.554 128 158 127.554 158 127 L 158 119 C 158.554 119 159 118.554 159 118 L 159 115 C 159 114.446 158.554 114 158 114 L 158 113 C 158 112.446 157.554 112 157 112 L 156 112 z "
       transform="translate(0,924.36218)"
       id="rect5929" />
    <rect
       ry="8"
       rx="8"
       y="936.36218"
       x="12"
       height="104"
       width="104"
       id="rect6938"
       style="fill:#000000;fill-opacity:1;stroke:none;filter:url(#filter6960)" />
    <rect
       style="fill:url(#radialGradient3171);fill-opacity:1;stroke:none"
       id="rect6936-6"
       width="104"
       height="104"
       x="12"
       y="936.36218"
       rx="8"
       ry="8" />
    <rect
       ry="8"
       rx="8"
       y="932.36218"
       x="12"
       height="104"
       width="104"
       id="rect6964-2"
       style="fill:#ffffff;fill-opacity:1;stroke:none" />
    <rect
       style="opacity:0.5;fill:url(#linearGradient3167);fill-opacity:1;stroke:none"
       id="rect6975"
       width="102"
       height="102"
       x="13"
       y="933.36218"
       rx="8"
       ry="8" />
    <rect
       ry="8"
       rx="8"
       y="933.36218"
       x="13"
       height="102"
       width="102"
       id="rect7002"
       style="opacity:0.5;fill:url(#radialGradient3164);fill-opacity:1;stroke:none" />
    <path
       style="fill:url(#radialGradient3825);fill-opacity:1;stroke:#000000;stroke-opacity:0.1882353;stroke-linejoin:round"
       d="m 148.39692,992.79346 c -0.80113,0 -1.44302,0.64193 -1.44302,1.44303 l 0,20.25141 c 0,0.8011 0.64189,1.443 1.44302,1.443 l 16.09903,0 c 0.80113,0 1.44302,-0.6419 1.44302,-1.443 l 0,-20.25141 c 0,-0.8011 -0.64189,-1.44303 -1.44302,-1.44303 l -16.09903,0 z m 19.2403,0 c 0.80113,0 1.44302,0.64193 1.44302,1.44303 l 0,20.25141 c 0,0.8011 -0.64189,1.443 -1.44302,1.443 l 2.51302,0 c 0.80113,0 1.44302,-0.6419 1.44302,-1.443 l 0,-11.5737 c 0.80113,0 1.45284,-0.6419 1.45284,-1.443 l 0,-4.33885 c 0,-0.8011 -0.65171,-1.44303 -1.45284,-1.44303 l 0,-1.45283 c 0,-0.8011 -0.64189,-1.44303 -1.44302,-1.44303 l -2.51302,0 z"
       id="path6750"
       inkscape:connector-curvature="0" />
    <path
       inkscape:connector-curvature="0"
       id="path3829"
       d="m 33.23464,953.68794 c -2.12419,0 -3.82615,1.70207 -3.82615,3.82617 l 0,53.69619 c 0,2.1242 1.70196,3.8261 3.82615,3.8261 l 42.68629,0 c 2.12418,0 3.82615,-1.7019 3.82615,-3.8261 l 0,-53.69619 c 0,-2.1241 -1.70197,-3.82617 -3.82615,-3.82617 l -42.68629,0 z m 51.01532,0 c 2.12418,0 3.82614,1.70207 3.82614,3.82617 l 0,53.69619 c 0,2.1242 -1.70196,3.8261 -3.82614,3.8261 l 6.66322,0 c 2.12419,0 3.82615,-1.7019 3.82615,-3.8261 l 0,-30.68738 c 2.12418,0 3.85218,-1.702 3.85218,-3.8261 l 0,-11.50439 c 0,-2.1241 -1.728,-3.82617 -3.85218,-3.82617 l 0,-3.85215 c 0,-2.1241 -1.70196,-3.82617 -3.82615,-3.82617 l -6.66322,0 z"
       style="fill:url(#radialGradient3831);fill-opacity:1;stroke:#000000;stroke-width:2.65148258;stroke-linejoin:round;stroke-opacity:0.18823529" />
  </g>
</svg>
