<?xml version="1.0" encoding="UTF-8" standalone="no"?>
<!-- Created with Inkscape (http://www.inkscape.org/) -->

<svg
   xmlns:dc="http://purl.org/dc/elements/1.1/"
   xmlns:cc="http://creativecommons.org/ns#"
   xmlns:rdf="http://www.w3.org/1999/02/22-rdf-syntax-ns#"
   xmlns:svg="http://www.w3.org/2000/svg"
   xmlns="http://www.w3.org/2000/svg"
   xmlns:xlink="http://www.w3.org/1999/xlink"
   xmlns:sodipodi="http://sodipodi.sourceforge.net/DTD/sodipodi-0.dtd"
   xmlns:inkscape="http://www.inkscape.org/namespaces/inkscape"
   sodipodi:docname="edit-find.svg"
   inkscape:version="0.48.4 r9939"
   version="1.1"
   id="svg2"
   height="128"
   width="128">
  <sodipodi:namedview
     id="base"
     pagecolor="#ffffff"
     bordercolor="#666666"
     borderopacity="1.0"
     inkscape:pageopacity="0.0"
     inkscape:pageshadow="2"
     inkscape:zoom="3.6203868"
     inkscape:cx="151.79505"
     inkscape:cy="42.66623"
     inkscape:document-units="px"
     inkscape:current-layer="layer1"
     showgrid="true"
     showguides="true"
     inkscape:guide-bbox="true"
     inkscape:window-width="1221"
     inkscape:window-height="1000"
     inkscape:window-x="59"
     inkscape:window-y="24"
     inkscape:window-maximized="1">
    <inkscape:grid
       snapvisiblegridlinesonly="true"
       enabled="true"
       visible="true"
       empspacing="4"
       id="grid2985"
       type="xygrid" />
  </sodipodi:namedview>
  <defs
     id="defs4">
    <linearGradient
       id="linearGradient7110">
      <stop
         style="stop-color:#5a5a5a;stop-opacity:1;"
         offset="0"
         id="stop7112" />
      <stop
         style="stop-color:#202020;stop-opacity:1;"
         offset="1"
         id="stop7114" />
    </linearGradient>
    <linearGradient
       id="linearGradient4216-4-8-2">
      <stop
         id="stop4218-8-0-7"
         offset="0"
         style="stop-color:#494949;stop-opacity:1;" />
      <stop
         id="stop4220-1-6-4"
         offset="1"
         style="stop-color:#0f0f0f;stop-opacity:1;" />
    </linearGradient>
    <radialGradient
       inkscape:collect="always"
       xlink:href="#linearGradient4216-4-8-2"
       id="radialGradient5899"
       gradientUnits="userSpaceOnUse"
       gradientTransform="translate(0,2)"
       cx="64"
       cy="1020.3622"
       fx="64"
       fy="1020.3622"
       r="52" />
    <radialGradient
       inkscape:collect="always"
       xlink:href="#linearGradient7110"
       id="radialGradient7116"
       cx="80"
       cy="972.36218"
       fx="80"
       fy="972.36218"
       r="52.5"
       gradientUnits="userSpaceOnUse" />
    <linearGradient
       id="linearGradient8794-3-4">
      <stop
         style="stop-color:#ffffff;stop-opacity:1;"
         offset="0"
         id="stop8796-5-5" />
      <stop
         id="stop4469-0-1"
         offset="0.5"
         style="stop-color:#e4e4e4;stop-opacity:1;" />
      <stop
         style="stop-color:#cacaca;stop-opacity:1;"
         offset="1"
         id="stop8798-2-6" />
    </linearGradient>
    <linearGradient
       id="linearGradient6964-4">
      <stop
         style="stop-color:#ffffff;stop-opacity:1;"
         offset="0"
         id="stop6966-4" />
      <stop
         style="stop-color:#cacaca;stop-opacity:1;"
         offset="1"
         id="stop6970-3" />
    </linearGradient>
    <radialGradient
       inkscape:collect="always"
       xlink:href="#linearGradient6964-4"
       id="radialGradient10035"
       cx="84"
       cy="968.36157"
       fx="84"
       fy="968.36157"
       r="36.000191"
       gradientTransform="matrix(1.4444368,3.2381007e-7,-3.2381004e-7,1.4444367,-37.332384,-430.37482)"
       gradientUnits="userSpaceOnUse" />
    <filter
       inkscape:collect="always"
       id="filter10039"
       x="-0.11999996"
       width="1.2399999"
       y="-0.12000004"
       height="1.2400001">
      <feGaussianBlur
         inkscape:collect="always"
         stdDeviation="3.6000181"
         id="feGaussianBlur10041" />
    </filter>
    <radialGradient
       inkscape:collect="always"
       xlink:href="#linearGradient6964-4"
       id="radialGradient10051"
       gradientUnits="userSpaceOnUse"
       gradientTransform="matrix(1.4444368,3.2381007e-7,-3.2381004e-7,1.4444367,-37.332384,-430.37482)"
       cx="84"
       cy="968.36157"
       fx="84"
       fy="968.36157"
       r="36.000191" />
    <radialGradient
       inkscape:collect="always"
       xlink:href="#linearGradient6964-4"
       id="radialGradient10066"
       cx="156"
       cy="1040.3622"
       fx="156"
       fy="1040.3622"
       r="7.9998608"
       gradientTransform="matrix(1,0,0,0.99999781,0,-924.35989)"
       gradientUnits="userSpaceOnUse" />
    <radialGradient
       inkscape:collect="always"
       xlink:href="#linearGradient8794-3-4"
       id="radialGradient10002"
       cx="42"
       cy="88"
       fx="42"
       fy="88"
       r="18"
       gradientTransform="matrix(1,0,0,0.44444444,0,48.888889)"
       gradientUnits="userSpaceOnUse" />
    <radialGradient
       inkscape:collect="always"
       xlink:href="#linearGradient6964-4"
       id="radialGradient10007"
       gradientUnits="userSpaceOnUse"
       gradientTransform="matrix(1.4444368,3.2381007e-7,-3.2381004e-7,1.4444367,-37.332384,-1354.737)"
       cx="84"
       cy="968.36157"
       fx="84"
       fy="968.36157"
       r="36.000191" />
    <filter
       inkscape:collect="always"
       id="filter10010"
       x="-0.086666667"
       width="1.1733333"
       y="-0.195"
       height="1.39">
      <feGaussianBlur
         inkscape:collect="always"
         stdDeviation="1.3"
         id="feGaussianBlur10012" />
    </filter>
    <radialGradient
       inkscape:collect="always"
       xlink:href="#linearGradient6964-4"
       id="radialGradient10014"
       gradientUnits="userSpaceOnUse"
       gradientTransform="matrix(1.4444368,3.2381007e-7,-3.2381004e-7,1.4444367,-37.332384,-1354.737)"
       cx="84"
       cy="968.36157"
       fx="84"
       fy="968.36157"
       r="36.000191" />
    <radialGradient
       inkscape:collect="always"
       xlink:href="#linearGradient6964-4"
       id="radialGradient10027"
       gradientUnits="userSpaceOnUse"
       gradientTransform="matrix(1.4444368,3.2381007e-7,-3.2381004e-7,1.4444367,-37.332384,-1354.737)"
       cx="84"
       cy="968.36157"
       fx="84"
       fy="968.36157"
       r="36.000191" />
  </defs>
  <metadata
     id="metadata7">
    <rdf:RDF>
      <cc:Work
         rdf:about="">
        <dc:format>image/svg+xml</dc:format>
        <dc:type
           rdf:resource="http://purl.org/dc/dcmitype/StillImage" />
        <dc:title></dc:title>
      </cc:Work>
    </rdf:RDF>
  </metadata>
  <g
     transform="translate(0,-924.36218)"
     id="layer1"
     inkscape:groupmode="layer"
     inkscape:label="Layer 1">
    <rect
       ry="8"
       rx="8"
       y="940.36218"
       x="12"
       height="104"
       width="104"
       id="rect6981"
       style="opacity:0.10000000000000001;fill:#000000;fill-opacity:1;stroke:#000000;stroke-width:10;stroke-miterlimit:4;stroke-dasharray:none" />
    <rect
       style="opacity:0.1;fill:#000000;fill-opacity:1;stroke:#000000;stroke-width:6;stroke-miterlimit:4;stroke-dasharray:none"
       id="rect6979"
       width="104"
       height="104"
       x="12"
       y="940.36218"
       rx="8"
       ry="8" />
    <rect
       ry="8"
       rx="8"
       y="938.36218"
       x="12"
       height="104"
       width="104"
       id="rect5969"
       style="fill:#000000;fill-opacity:1;stroke:#000000;opacity:0.20000000000000001;stroke-width:3;stroke-miterlimit:4;stroke-dasharray:none" />
    <rect
       style="fill:url(#radialGradient5899);fill-opacity:1;stroke:#1a1a1a"
       id="rect6936"
       width="104"
       height="104"
       x="12"
       y="938.36218"
       rx="8"
       ry="8" />
    <rect
       ry="8"
       rx="8"
       y="934.36218"
       x="12"
       height="104"
       width="104"
       id="rect6964"
       style="fill:url(#radialGradient7116);fill-opacity:1;stroke:#1a1a1a" />
    <text
       xml:space="preserve"
       style="font-size:24px;font-style:normal;font-weight:normal;line-height:125%;letter-spacing:0px;word-spacing:0px;fill:#000000;fill-opacity:1;stroke:none;font-family:Sans"
       x="-56"
       y="948.36218"
       id="text5893"
       sodipodi:linespacing="125%"><tspan
         sodipodi:role="line"
         id="tspan5895"
         x="-56"
         y="948.36218">128</tspan></text>
    <text
       sodipodi:linespacing="125%"
       id="text5901"
       y="1000.3622"
       x="184"
       style="font-size:16px;font-style:normal;font-weight:normal;line-height:125%;letter-spacing:0px;word-spacing:0px;fill:#000000;fill-opacity:1;stroke:none;font-family:Sans"
       xml:space="preserve"><tspan
         y="1000.3622"
         x="184"
         id="tspan5903"
         sodipodi:role="line">31 - 17</tspan></text>
    <text
       xml:space="preserve"
       style="font-size:16px;font-style:normal;font-weight:normal;line-height:125%;letter-spacing:0px;word-spacing:0px;fill:#000000;fill-opacity:1;stroke:none;font-family:Sans"
       x="172"
       y="1048.3622"
       id="text5905"
       sodipodi:linespacing="125%"><tspan
         sodipodi:role="line"
         id="tspan5907"
         x="172"
         y="1048.3622">16</tspan></text>
    <rect
       style="fill:none;stroke:#000000;stroke-width:1;stroke-linecap:round;stroke-linejoin:round;stroke-miterlimit:4;stroke-opacity:1;stroke-dasharray:none;stroke-dashoffset:0"
       id="rect5919"
       width="40"
       height="40"
       x="140"
       y="60"
       transform="translate(0,924.36218)"
       rx="4.5902016e-07" />
    <rect
       style="fill:none;stroke:#000000;stroke-width:1;stroke-linecap:round;stroke-linejoin:round;stroke-miterlimit:4;stroke-opacity:1;stroke-dasharray:none;stroke-dashoffset:0"
       id="rect5921"
       width="24"
       height="24"
       x="140"
       y="1032.3622"
       rx="4.5902016e-07" />
    <rect
       style="fill:#b3b3b3;fill-opacity:1;stroke:none"
       id="rect6935"
       width="32"
       height="4"
       x="144"
       y="56"
       transform="translate(0,924.36218)"
       rx="4.5902016e-07" />
    <rect
       style="fill:#b3b3b3;fill-opacity:1;stroke:none"
       id="rect6937"
       width="4"
       height="32"
       x="136"
       y="64"
       transform="translate(0,924.36218)"
       rx="4.5902016e-07" />
    <rect
       style="fill:#b3b3b3;fill-opacity:1;stroke:none"
       id="rect6939"
       width="16"
       height="4"
       x="144"
       y="104"
       rx="4.5902016e-07"
       transform="translate(0,924.36218)" />
    <rect
       style="fill:#b3b3b3;fill-opacity:1;stroke:none"
       id="rect6941"
       width="4"
       height="16"
       x="136"
       y="112"
       transform="translate(0,924.36218)"
       rx="4.5902016e-07" />
    <rect
       style="fill:url(#radialGradient7116);fill-opacity:1;stroke:#1a1a1a"
       id="rect12711"
       width="104"
       height="104"
       x="12"
       y="934.36218"
       rx="8"
       ry="8" />
    <path
       id="path10037"
       d="m 52.727438,950.36201 c -13.65669,0 -24.72763,11.071 -24.72763,24.7276 0,13.6567 11.07094,24.7277 24.72763,24.7277 5.25183,0 10.11557,-1.6338 14.12004,-4.4257 a 4.4963822,4.4963822 0 0 0 0.68493,0.8605 l 24.72762,24.72759 a 4.4963822,4.4963822 0 1 0 6.35753,-6.3575 l -24.72762,-24.72759 a 4.4963822,4.4963822 0 0 0 -0.86055,-0.6849 c 2.79192,-4.0045 4.42568,-8.8683 4.42568,-14.1201 0,-13.6566 -11.07094,-24.7276 -24.72763,-24.7276 z m 0,4.4959 c 11.17366,0 20.2317,9.058 20.2317,20.2317 0,11.1737 -9.05804,20.2317 -20.2317,20.2317 -11.17366,0 -20.2317,-9.058 -20.2317,-20.2317 0,-11.1737 9.05804,-20.2317 20.2317,-20.2317 z"
       style="fill:#000000;fill-opacity:1;stroke:none;filter:url(#filter10039)"
       inkscape:connector-curvature="0" />
    <path
       style="fill:url(#radialGradient10066);fill-opacity:1;stroke:none"
       d="M 149.5 112 C 146.46519 112 144 114.4652 144 117.5 C 144 120.5348 146.46519 123 149.5 123 C 150.66708 123 151.73512 122.6204 152.625 122 A 0.99919566 0.99919566 0 0 0 152.78125 122.1875 L 158.28125 127.6875 A 0.99919566 0.99919566 0 1 0 159.6875 126.28125 L 154.1875 120.78125 A 0.99919566 0.99919566 0 0 0 154 120.625 C 154.62043 119.7351 155 118.6671 155 117.5 C 155 114.4652 152.53482 112 149.5 112 z M 149.5 113 C 151.98304 113 154 115.017 154 117.5 C 154 119.9831 151.98304 122 149.5 122 C 147.01697 122 145 119.9831 145 117.5 C 145 115.017 147.01697 113 149.5 113 z M 146 124 C 145.446 124 145 124.446 145 125 L 145 126 C 145 126.554 145.446 127 146 127 L 152 127 C 152.554 127 153 126.554 153 126 L 153 125 C 153 124.446 152.554 124 152 124 L 146 124 z M 146 125 L 152 125 L 152 126 L 146 126 L 146 125 z "
       transform="translate(0,924.36218)"
       id="path10287" />
    <path
       style="fill:#000000;fill-rule:evenodd;stroke:none;filter:url(#filter10010)"
       d="m 34,82 c -2.216,0 -4,1.784 -4,4 l 0,8 c 0,2.216 1.784,4 4,4 l 28,0 c 2.216,0 4,-1.784 4,-4 l 0,-8 c 0,-2.216 -1.784,-4 -4,-4 z m 0,4 28,0 0,8 -28,0 z"
       transform="translate(0,924.36218)"
       id="rect8741"
       inkscape:connector-curvature="0"
       sodipodi:nodetypes="sssssssssccccc" />
    <path
       style="fill:url(#radialGradient10014);fill-opacity:1.0;stroke:#ffffff;stroke-width:2;stroke-miterlimit:4;stroke-opacity:0.31372549000000000;stroke-dasharray:none"
       d="M 52.71875,26 C 39.06206,26 28,37.06215 28,50.71875 c 0,13.6567 11.06206,24.75 24.71875,24.75 5.25183,0 10.12053,-1.6456 14.125,-4.4375 0.193918,0.307672 0.425336,0.591685 0.6875,0.84375 L 92.25,96.625 c 1.668971,1.668971 4.706028,1.66897 6.374999,-10e-7 1.668971,-1.668971 1.668971,-4.706028 10e-7,-6.374999 L 73.875,65.53125 c -0.252065,-0.262164 -0.536078,-0.493582 -0.84375,-0.6875 2.79192,-4.0045 4.4375,-8.8732 4.4375,-14.125 C 77.46875,37.06215 66.37544,26 52.71875,26 z m 0,4.5 c 11.17366,0 20.25,9.04505 20.25,20.21875 0,11.1737 -9.07634,20.25 -20.25,20.25 C 41.54509,70.96875 32.5,61.89245 32.5,50.71875 32.5,39.54505 41.54509,30.5 52.71875,30.5 z M 34,82 c -2.216,0 -4,1.784 -4,4 l 0,8 c 0,2.216 1.784,4 4,4 l 28,0 c 2.216,0 4,-1.784 4,-4 l 0,-8 c 0,-2.216 -1.784,-4 -4,-4 z m 0,4 28,0 0,8 -28,0 z"
       transform="translate(0,924.36218)"
       id="path10275"
       inkscape:connector-curvature="0"
       sodipodi:nodetypes="ssscccscccssssssssssssssssccccc" />
    <g
       id="g10022"
       transform="matrix(0.35842123,0,0,0.35842123,137.06104,650.82903)">
      <path
         id="path10016"
         d="m 52.727438,950.36201 c -13.65669,0 -24.72763,11.071 -24.72763,24.7276 0,13.6567 11.07094,24.7277 24.72763,24.7277 5.25183,0 10.11557,-1.6338 14.12004,-4.4257 a 4.4963822,4.4963822 0 0 0 0.68493,0.8605 l 24.72762,24.72759 a 4.4963822,4.4963822 0 1 0 6.35753,-6.3575 l -24.72762,-24.72759 a 4.4963822,4.4963822 0 0 0 -0.86055,-0.6849 c 2.79192,-4.0045 4.42568,-8.8683 4.42568,-14.1201 0,-13.6566 -11.07094,-24.7276 -24.72763,-24.7276 z m 0,4.4959 c 11.17366,0 20.2317,9.058 20.2317,20.2317 0,11.1737 -9.05804,20.2317 -20.2317,20.2317 -11.17366,0 -20.2317,-9.058 -20.2317,-20.2317 0,-11.1737 9.05804,-20.2317 20.2317,-20.2317 z"
         style="fill:#000000;fill-opacity:1;stroke:none;filter:url(#filter10039)"
         inkscape:connector-curvature="0" />
      <path
         style="fill:#000000;fill-rule:evenodd;stroke:none;filter:url(#filter10010)"
         d="m 34,82 c -2.216,0 -4,1.784 -4,4 l 0,8 c 0,2.216 1.784,4 4,4 l 28,0 c 2.216,0 4,-1.784 4,-4 l 0,-8 c 0,-2.216 -1.784,-4 -4,-4 z m 0,4 28,0 0,8 -28,0 z"
         transform="translate(0,924.36218)"
         id="path10018"
         inkscape:connector-curvature="0"
         sodipodi:nodetypes="sssssssssccccc" />
      <path
         style="fill:url(#radialGradient10027);fill-opacity:1;stroke:#ffffff;stroke-width:2;stroke-miterlimit:4;stroke-opacity:0.31372549;stroke-dasharray:none"
         d="M 52.71875,26 C 39.06206,26 28,37.06215 28,50.71875 c 0,13.6567 11.06206,24.75 24.71875,24.75 5.25183,0 10.12053,-1.6456 14.125,-4.4375 0.193918,0.307672 0.425336,0.591685 0.6875,0.84375 L 92.25,96.625 c 1.668971,1.668971 4.706028,1.66897 6.374999,-10e-7 1.668971,-1.668971 1.668971,-4.706028 10e-7,-6.374999 L 73.875,65.53125 c -0.252065,-0.262164 -0.536078,-0.493582 -0.84375,-0.6875 2.79192,-4.0045 4.4375,-8.8732 4.4375,-14.125 C 77.46875,37.06215 66.37544,26 52.71875,26 z m 0,4.5 c 11.17366,0 20.25,9.04505 20.25,20.21875 0,11.1737 -9.07634,20.25 -20.25,20.25 C 41.54509,70.96875 32.5,61.89245 32.5,50.71875 32.5,39.54505 41.54509,30.5 52.71875,30.5 z M 34,82 c -2.216,0 -4,1.784 -4,4 l 0,8 c 0,2.216 1.784,4 4,4 l 28,0 c 2.216,0 4,-1.784 4,-4 l 0,-8 c 0,-2.216 -1.784,-4 -4,-4 z m 0,4 28,0 0,8 -28,0 z"
         transform="translate(0,924.36218)"
         id="path10020"
         inkscape:connector-curvature="0"
         sodipodi:nodetypes="ssscccscccssssssssssssssssccccc" />
    </g>
  </g>
</svg>
