<?xml version="1.0" encoding="UTF-8" standalone="no"?>
<!-- Created with Inkscape (http://www.inkscape.org/) -->

<svg
   xmlns:dc="http://purl.org/dc/elements/1.1/"
   xmlns:cc="http://creativecommons.org/ns#"
   xmlns:rdf="http://www.w3.org/1999/02/22-rdf-syntax-ns#"
   xmlns:svg="http://www.w3.org/2000/svg"
   xmlns="http://www.w3.org/2000/svg"
   xmlns:xlink="http://www.w3.org/1999/xlink"
   xmlns:sodipodi="http://sodipodi.sourceforge.net/DTD/sodipodi-0.dtd"
   xmlns:inkscape="http://www.inkscape.org/namespaces/inkscape"
   sodipodi:docname="format-text-strikethrough.svg"
   inkscape:version="0.48.4 r9939"
   version="1.1"
   id="svg2"
   height="128"
   width="128">
  <sodipodi:namedview
     id="base"
     pagecolor="#ffffff"
     bordercolor="#666666"
     borderopacity="1.0"
     inkscape:pageopacity="0.0"
     inkscape:pageshadow="2"
     inkscape:zoom="3.6203867"
     inkscape:cx="82.394641"
     inkscape:cy="67.669867"
     inkscape:document-units="px"
     inkscape:current-layer="layer1"
     showgrid="true"
     showguides="true"
     inkscape:guide-bbox="true"
     inkscape:window-width="1221"
     inkscape:window-height="1000"
     inkscape:window-x="59"
     inkscape:window-y="24"
     inkscape:window-maximized="1">
    <inkscape:grid
       snapvisiblegridlinesonly="true"
       enabled="true"
       visible="true"
       empspacing="4"
       id="grid2985"
       type="xygrid" />
  </sodipodi:namedview>
  <defs
     id="defs4">
    <linearGradient
       id="linearGradient7110">
      <stop
         style="stop-color:#5a5a5a;stop-opacity:1;"
         offset="0"
         id="stop7112" />
      <stop
         style="stop-color:#202020;stop-opacity:1;"
         offset="1"
         id="stop7114" />
    </linearGradient>
    <linearGradient
       id="linearGradient4216-4-8-2">
      <stop
         id="stop4218-8-0-7"
         offset="0"
         style="stop-color:#494949;stop-opacity:1;" />
      <stop
         id="stop4220-1-6-4"
         offset="1"
         style="stop-color:#0f0f0f;stop-opacity:1;" />
    </linearGradient>
    <radialGradient
       inkscape:collect="always"
       xlink:href="#linearGradient4216-4-8-2"
       id="radialGradient5899"
       gradientUnits="userSpaceOnUse"
       gradientTransform="translate(0,2)"
       cx="64"
       cy="1020.3622"
       fx="64"
       fy="1020.3622"
       r="52" />
    <radialGradient
       inkscape:collect="always"
       xlink:href="#linearGradient7110"
       id="radialGradient7116"
       cx="80"
       cy="972.36218"
       fx="80"
       fy="972.36218"
       r="52.5"
       gradientUnits="userSpaceOnUse" />
    <linearGradient
       id="linearGradient6964-4">
      <stop
         style="stop-color:#ffffff;stop-opacity:1;"
         offset="0"
         id="stop6966-4" />
      <stop
         id="stop6968-0"
         offset="0.5"
         style="stop-color:#e4e4e4;stop-opacity:1;" />
      <stop
         style="stop-color:#cacaca;stop-opacity:1;"
         offset="1"
         id="stop6970-3" />
    </linearGradient>
    <radialGradient
       inkscape:collect="always"
       xlink:href="#linearGradient7110"
       id="radialGradient9536"
       cx="154"
       cy="118"
       fx="154"
       fy="118"
       r="7"
       gradientUnits="userSpaceOnUse"
       gradientTransform="matrix(1.4285714,1.0571433e-6,-1.0571433e-6,1.4285714,-65.999879,-50.571591)" />
    <radialGradient
       inkscape:collect="always"
       xlink:href="#linearGradient6964-4"
       id="radialGradient9540"
       gradientUnits="userSpaceOnUse"
       gradientTransform="matrix(7.3469386,5.436737e-6,-5.436737e-6,7.3469386,-1057.1422,109.13683)"
       cx="154"
       cy="118"
       fx="154"
       fy="118"
       r="7" />
    <filter
       inkscape:collect="always"
       id="filter9544"
       x="-0.12000002"
       width="1.24"
       y="-0.11999998"
       height="1.24">
      <feGaussianBlur
         inkscape:collect="always"
         stdDeviation="3.6000005"
         id="feGaussianBlur9546" />
    </filter>
    <radialGradient
       inkscape:collect="always"
       xlink:href="#linearGradient6964-4"
       id="radialGradient9585"
       gradientUnits="userSpaceOnUse"
       gradientTransform="matrix(7.3469386,5.436737e-6,-5.436737e-6,7.3469386,-1057.1422,109.13683)"
       cx="154"
       cy="118"
       fx="154"
       fy="118"
       r="7" />
    <radialGradient
       inkscape:collect="always"
       xlink:href="#linearGradient7110-6"
       id="radialGradient6761"
       gradientUnits="userSpaceOnUse"
       gradientTransform="matrix(0.76126091,0,0,1.0943125,15.279286,916.51481)"
       cx="84"
       cy="46.695652"
       fx="84"
       fy="46.695652"
       r="32" />
    <linearGradient
       id="linearGradient7110-6">
      <stop
         style="stop-color:#5a5a5a;stop-opacity:1;"
         offset="0"
         id="stop7112-7" />
      <stop
         style="stop-color:#202020;stop-opacity:1;"
         offset="1"
         id="stop7114-0" />
    </linearGradient>
    <radialGradient
       inkscape:collect="always"
       xlink:href="#linearGradient7006-8"
       id="radialGradient6053"
       gradientUnits="userSpaceOnUse"
       gradientTransform="translate(1.1814697e-6,924.36217)"
       cx="88"
       cy="36"
       fx="88"
       fy="36"
       r="51" />
    <linearGradient
       inkscape:collect="always"
       id="linearGradient7006-8">
      <stop
         style="stop-color:#ffffff;stop-opacity:1;"
         offset="0"
         id="stop7008-1" />
      <stop
         style="stop-color:#ffffff;stop-opacity:0;"
         offset="1"
         id="stop7010-1" />
    </linearGradient>
    <linearGradient
       inkscape:collect="always"
       xlink:href="#linearGradient6978-3"
       id="linearGradient6051"
       gradientUnits="userSpaceOnUse"
       gradientTransform="translate(1.1814697e-6,924.36217)"
       x1="64"
       y1="188"
       x2="64"
       y2="8" />
    <linearGradient
       inkscape:collect="always"
       id="linearGradient6978-3">
      <stop
         style="stop-color:#000000;stop-opacity:0.25"
         offset="0"
         id="stop6980-5" />
      <stop
         style="stop-color:#000000;stop-opacity:0;"
         offset="1"
         id="stop6982-7" />
    </linearGradient>
    <radialGradient
       inkscape:collect="always"
       xlink:href="#linearGradient4216-4-8-2-6"
       id="radialGradient6049"
       gradientUnits="userSpaceOnUse"
       gradientTransform="translate(1.1814697e-6,-3.1772461e-5)"
       cx="64"
       cy="1020.3622"
       fx="64"
       fy="1020.3622"
       r="52" />
    <linearGradient
       id="linearGradient4216-4-8-2-6">
      <stop
         id="stop4218-8-0-7-4"
         offset="0"
         style="stop-color:#ffffff;stop-opacity:1;" />
      <stop
         id="stop4220-1-6-4-0-1"
         offset="1"
         style="stop-color:#c6c6c6;stop-opacity:1;" />
    </linearGradient>
    <filter
       color-interpolation-filters="sRGB"
       inkscape:collect="always"
       id="filter6960">
      <feGaussianBlur
         inkscape:collect="always"
         stdDeviation="4.16"
         id="feGaussianBlur6962" />
    </filter>
    <radialGradient
       r="32"
       fy="46.695652"
       fx="84"
       cy="46.695652"
       cx="84"
       gradientTransform="matrix(0.76126091,0,0,1.0943125,15.279286,916.51481)"
       gradientUnits="userSpaceOnUse"
       id="radialGradient7907"
       xlink:href="#linearGradient7110-6"
       inkscape:collect="always" />
    <radialGradient
       inkscape:collect="always"
       xlink:href="#linearGradient7110"
       id="radialGradient3870"
       gradientUnits="userSpaceOnUse"
       gradientTransform="matrix(2.3576222,1.7446412e-6,-1.7446412e-6,2.3576222,-199.77293,722.86181)"
       cx="154"
       cy="118"
       fx="154"
       fy="118"
       r="7" />
    <radialGradient
       inkscape:collect="always"
       xlink:href="#linearGradient7110"
       id="radialGradient3875"
       gradientUnits="userSpaceOnUse"
       gradientTransform="matrix(6.2596899,4.6321726e-6,-4.6321726e-6,6.2596899,-891.2281,236.95457)"
       cx="154"
       cy="118"
       fx="154"
       fy="118"
       r="7" />
  </defs>
  <metadata
     id="metadata7">
    <rdf:RDF>
      <cc:Work
         rdf:about="">
        <dc:format>image/svg+xml</dc:format>
        <dc:type
           rdf:resource="http://purl.org/dc/dcmitype/StillImage" />
        <dc:title />
      </cc:Work>
    </rdf:RDF>
  </metadata>
  <g
     transform="translate(0,-924.36218)"
     id="layer1"
     inkscape:groupmode="layer"
     inkscape:label="Layer 1">
    <path
       inkscape:connector-curvature="0"
       style="font-size:126.92533874999999455px;font-style:normal;font-weight:normal;line-height:125%;letter-spacing:0px;word-spacing:0px;fill:url(#radialGradient3870);fill-opacity:1;stroke:#000000;stroke-width:1;stroke-linejoin:round;stroke-miterlimit:4;stroke-opacity:0.18823529000000000;stroke-dasharray:none;font-family:Sans"
       d="m 160,992.80982 c -2.43627,0 -4.38403,0.56828 -5.77617,1.70192 -1.38221,1.13361 -2.06293,2.6727 -2.06293,4.64154 0,1.70052 0.4913,3.01642 1.49562,3.97112 0.479,0.4553 1.09492,0.8978 1.85663,1.2378 l -7.0655,0 0,1.9082 14.131,0 c 0.44754,0.2083 0.79602,0.4564 1.08303,0.722 0.67618,0.6165 1.03145,1.485 1.03147,2.5786 -2e-5,1.2532 -0.45776,2.212 -1.39247,2.8881 -0.93474,0.6764 -2.25083,1.0315 -3.97113,1.0315 -1.13361,0 -2.33359,-0.2193 -3.50696,-0.5673 -1.17338,-0.3481 -2.33544,-0.861 -3.55854,-1.5472 l 0,3.146 c 1.27281,0.4671 2.47837,0.7927 3.66168,1.0314 1.19328,0.2392 2.34977,0.361 3.40382,0.361 2.79424,0 4.9016,-0.5367 6.34348,-1.6503 1.45178,-1.1137 2.16605,-2.7932 2.16607,-4.951 -2e-5,-1.1876 -0.25962,-2.1721 -0.72203,-3.0428 l 4.43528,0 0,-1.9082 -6.13718,0 c -1.03302,-0.7329 -2.4244,-1.2653 -4.17742,-1.5988 l -1.80505,-0.4126 c -1.6507,-0.3083 -2.75561,-0.6889 -3.35225,-1.1862 -0.58669,-0.5071 -0.87674,-1.23317 -0.87674,-2.21759 0,-1.1734 0.40432,-2.097 1.28933,-2.73338 0.89495,-0.63654 2.17566,-0.97987 3.81641,-0.97987 0.94466,0 1.92537,0.14406 2.93965,0.41259 1.01428,0.26849 2.10554,0.69082 3.2491,1.23773 l 0,-2.93965 c -1.13362,-0.37793 -2.26837,-0.68778 -3.35224,-0.87673 -1.08392,-0.1893 -2.10187,-0.25788 -3.14596,-0.25788 z"
       id="path9583" />
    <text
       xml:space="preserve"
       style="font-size:24px;font-style:normal;font-weight:normal;line-height:125%;letter-spacing:0px;word-spacing:0px;fill:#000000;fill-opacity:1;stroke:none;font-family:Sans"
       x="-56"
       y="948.36218"
       id="text5893"
       sodipodi:linespacing="125%"><tspan
         sodipodi:role="line"
         id="tspan5895"
         x="-56"
         y="948.36218">128</tspan></text>
    <text
       sodipodi:linespacing="125%"
       id="text5901"
       y="1000.3622"
       x="184"
       style="font-size:16px;font-style:normal;font-weight:normal;line-height:125%;letter-spacing:0px;word-spacing:0px;fill:#000000;fill-opacity:1;stroke:none;font-family:Sans"
       xml:space="preserve"><tspan
         y="1000.3622"
         x="184"
         id="tspan5903"
         sodipodi:role="line">31 - 17</tspan></text>
    <text
       xml:space="preserve"
       style="font-size:16px;font-style:normal;font-weight:normal;line-height:125%;letter-spacing:0px;word-spacing:0px;fill:#000000;fill-opacity:1;stroke:none;font-family:Sans"
       x="172"
       y="1048.3622"
       id="text5905"
       sodipodi:linespacing="125%"><tspan
         sodipodi:role="line"
         id="tspan5907"
         x="172"
         y="1048.3622">16</tspan></text>
    <rect
       style="fill:none;stroke:#000000;stroke-width:1;stroke-linecap:round;stroke-linejoin:round;stroke-miterlimit:4;stroke-opacity:1;stroke-dasharray:none;stroke-dashoffset:0"
       id="rect5919"
       width="40"
       height="40"
       x="140"
       y="60"
       transform="translate(0,924.36218)"
       rx="4.5902016e-07" />
    <rect
       style="fill:none;stroke:#000000;stroke-width:1;stroke-linecap:round;stroke-linejoin:round;stroke-miterlimit:4;stroke-opacity:1;stroke-dasharray:none;stroke-dashoffset:0"
       id="rect5921"
       width="24"
       height="24"
       x="140"
       y="1032.3622"
       rx="4.5902016e-07" />
    <rect
       style="fill:#b3b3b3;fill-opacity:1;stroke:none"
       id="rect6935"
       width="32"
       height="4"
       x="144"
       y="56"
       transform="translate(0,924.36218)"
       rx="4.5902016e-07" />
    <rect
       style="fill:#b3b3b3;fill-opacity:1;stroke:none"
       id="rect6937"
       width="4"
       height="32"
       x="136"
       y="64"
       transform="translate(0,924.36218)"
       rx="4.5902016e-07" />
    <rect
       style="fill:#b3b3b3;fill-opacity:1;stroke:none"
       id="rect6939"
       width="16"
       height="4"
       x="144"
       y="104"
       rx="4.5902016e-07"
       transform="translate(0,924.36218)" />
    <rect
       style="fill:#b3b3b3;fill-opacity:1;stroke:none"
       id="rect6941"
       width="4"
       height="16"
       x="136"
       y="112"
       transform="translate(0,924.36218)"
       rx="4.5902016e-07" />
    <path
       style="font-size:126.92533875000000876px;font-style:normal;font-weight:normal;line-height:125%;letter-spacing:0px;word-spacing:0px;fill:url(#radialGradient9536);fill-opacity:1.0;stroke:none;font-family:Sans"
       d="M 152 113 C 150.52377 113 149.34355 113.34435 148.5 114.03125 C 147.66247 114.71815 147.25 115.65075 147.25 116.84375 C 147.25 117.87415 147.54769 118.6715 148.15625 119.25 C 148.44649 119.52585 148.8197 119.79403 149.28125 120 L 145 120 L 145 121.15625 L 153.5625 121.15625 C 153.83368 121.28251 154.04484 121.43281 154.21875 121.59375 C 154.62847 121.96735 154.84374 122.49355 154.84375 123.15625 C 154.84374 123.91555 154.56638 124.49655 154 124.90625 C 153.43361 125.31605 152.63614 125.53125 151.59375 125.53125 C 150.90685 125.53125 150.17974 125.3984 149.46875 125.1875 C 148.75775 124.9766 148.05362 124.6658 147.3125 124.25 L 147.3125 126.15625 C 148.08374 126.43935 148.81423 126.63665 149.53125 126.78125 C 150.2543 126.92615 150.95506 127 151.59375 127 C 153.28688 127 154.56381 126.6748 155.4375 126 C 156.31719 125.3252 156.74999 124.3075 156.75 123 C 156.74999 122.28043 156.59269 121.68387 156.3125 121.15625 L 159 121.15625 L 159 120 L 155.28125 120 C 154.65531 119.55593 153.81222 119.23336 152.75 119.03125 L 151.65625 118.78125 C 150.65603 118.59445 149.98652 118.3638 149.625 118.0625 C 149.2695 117.7552 149.09375 117.31525 149.09375 116.71875 C 149.09375 116.00775 149.33874 115.4481 149.875 115.0625 C 150.41728 114.6768 151.19331 114.46875 152.1875 114.46875 C 152.75991 114.46875 153.35416 114.55605 153.96875 114.71875 C 154.58334 114.88145 155.24457 115.13735 155.9375 115.46875 L 155.9375 113.6875 C 155.2506 113.4585 154.56301 113.27075 153.90625 113.15625 C 153.24947 113.04155 152.63265 113 152 113 z "
       transform="translate(0,924.36218)"
       id="path5862" />
    <path
       style="fill:url(#radialGradient7907);fill-opacity:1;stroke:none"
       d="m 42.695436,949.33806 c -1.68696,0 -3.05214,1.3652 -3.05214,3.05216 l 0,63.94388 c 0,1.6871 1.36518,3.0522 3.05214,3.0522 l 42.6091,0 c 1.68697,0 3.05217,-1.3651 3.05217,-3.0522 l 0,-57.86982 -9.12622,-9.12622 -36.53505,0 z m 3.02192,6.1043 30.46099,0 6.10427,6.07406 0,51.76548 -36.56526,0 0,-57.83954 z m 9.54928,17.25519 -2.93127,2.93135 0,20.39788 8.03832,-8.0383 -5.10705,0 0,-10.90908 1.45053,-1.4505 14.56567,0 1.4505,1.4505 0,14.56558 -1.4505,1.4505 -12.3899,0 -2.90105,2.9313 16.74145,0 2.93127,-2.9313 0,-17.46658 -2.93127,-2.93135 -17.4667,0 z"
       id="path6759"
       inkscape:connector-curvature="0" />
    <rect
       ry="8"
       rx="8"
       y="936.36218"
       x="12"
       height="104"
       width="104"
       id="rect6938"
       style="fill:#000000;fill-opacity:1;stroke:none;filter:url(#filter6960)" />
    <rect
       style="fill:url(#radialGradient6049);fill-opacity:1;stroke:none"
       id="rect6936-6"
       width="104"
       height="104"
       x="12"
       y="936.36218"
       rx="8"
       ry="8" />
    <rect
       ry="8"
       rx="8"
       y="932.36218"
       x="12"
       height="104"
       width="104"
       id="rect6964-2"
       style="fill:#ffffff;fill-opacity:1;stroke:none" />
    <rect
       style="opacity:0.5;fill:url(#linearGradient6051);fill-opacity:1;stroke:none"
       id="rect6975"
       width="102"
       height="102"
       x="13"
       y="933.36218"
       rx="8"
       ry="8" />
    <rect
       ry="8"
       rx="8"
       y="933.36218"
       x="13"
       height="102"
       width="102"
       id="rect7002"
       style="opacity:0.5;fill:url(#radialGradient6053);fill-opacity:1;stroke:none" />
    <path
       id="path3873"
       d="m 64,953.68973 c -6.46851,0 -11.63998,1.50884 -15.33623,4.51875 -3.66988,3.00983 -5.47726,7.09625 -5.47726,12.32369 0,4.51502 1.30445,8.00885 3.971,10.54366 1.27179,1.2089 2.90711,2.3837 4.92952,3.2865 l -18.75951,0 0,5.0664 37.51902,0 c 1.18825,0.5531 2.1135,1.2118 2.87554,1.917 1.79531,1.6368 2.73858,3.9428 2.73864,6.8464 -6e-5,3.32727 -1.2154,5.87297 -3.69713,7.66807 -2.48182,1.7959 -5.97615,2.7388 -10.54369,2.7388 -3.00983,0 -6.19588,-0.5823 -9.31128,-1.5063 -3.11543,-0.9242 -6.2008,-2.286 -9.44823,-4.1079 l 0,8.3529 c 3.37942,1.2402 6.58028,2.1047 9.72207,2.7384 3.16826,0.6351 6.23884,0.9585 9.03744,0.9585 7.41895,0 13.01417,-1.425 16.84248,-4.3817 3.8546,-2.9569 5.75105,-7.4162 5.75111,-13.14527 -6e-5,-3.1532 -0.68932,-5.7671 -1.91706,-8.0789 l 11.77605,0 0,-5.0664 -16.29474,0 c -2.74275,-1.9459 -6.43699,-3.3595 -11.09141,-4.245 l -4.79256,-1.09547 c -4.38275,-0.81857 -7.31638,-1.82909 -8.90051,-3.14947 -1.55772,-1.34639 -2.32782,-3.27417 -2.32782,-5.88789 0,-3.11548 1.0735,-5.56771 3.42328,-7.25736 2.37617,-1.69007 5.77656,-2.60164 10.1329,-2.60164 2.50815,0 5.11202,0.38249 7.80502,1.09546 2.693,0.71287 5.59039,1.83419 8.62664,3.28628 l 0,-7.80502 c -3.00986,-1.00344 -6.02272,-1.82611 -8.90049,-2.32779 -2.8779,-0.50261 -5.58064,-0.6847 -8.35279,-0.6847 z"
       style="font-size:126.92533875px;font-style:normal;font-weight:normal;line-height:125%;letter-spacing:0px;word-spacing:0px;fill:url(#radialGradient3875);fill-opacity:1;stroke:#000000;stroke-width:2.65508604;stroke-linejoin:round;stroke-miterlimit:4;stroke-opacity:0.18823529;stroke-dasharray:none;font-family:Sans"
       inkscape:connector-curvature="0" />
  </g>
</svg>
