<?xml version="1.0" encoding="UTF-8" standalone="no"?>
<!-- Created with Inkscape (http://www.inkscape.org/) -->

<svg
   xmlns:dc="http://purl.org/dc/elements/1.1/"
   xmlns:cc="http://creativecommons.org/ns#"
   xmlns:rdf="http://www.w3.org/1999/02/22-rdf-syntax-ns#"
   xmlns:svg="http://www.w3.org/2000/svg"
   xmlns="http://www.w3.org/2000/svg"
   xmlns:xlink="http://www.w3.org/1999/xlink"
   xmlns:sodipodi="http://sodipodi.sourceforge.net/DTD/sodipodi-0.dtd"
   xmlns:inkscape="http://www.inkscape.org/namespaces/inkscape"
   sodipodi:docname="media-eject.svg"
   inkscape:version="0.48.4 r9939"
   version="1.1"
   id="svg2"
   height="128"
   width="128">
  <sodipodi:namedview
     id="base"
     pagecolor="#ffffff"
     bordercolor="#666666"
     borderopacity="1.0"
     inkscape:pageopacity="0.0"
     inkscape:pageshadow="2"
     inkscape:zoom="5.1200002"
     inkscape:cx="107.21852"
     inkscape:cy="54.859126"
     inkscape:document-units="px"
     inkscape:current-layer="layer1"
     showgrid="true"
     showguides="true"
     inkscape:guide-bbox="true"
     inkscape:window-width="1221"
     inkscape:window-height="1000"
     inkscape:window-x="59"
     inkscape:window-y="24"
     inkscape:window-maximized="1">
    <inkscape:grid
       snapvisiblegridlinesonly="true"
       enabled="true"
       visible="true"
       empspacing="4"
       id="grid2985"
       type="xygrid" />
  </sodipodi:namedview>
  <defs
     id="defs4">
    <linearGradient
       id="linearGradient4216-4-8-2">
      <stop
         id="stop4218-8-0-7"
         offset="0"
         style="stop-color:#494949;stop-opacity:1;" />
      <stop
         id="stop4220-1-6-4"
         offset="1"
         style="stop-color:#0f0f0f;stop-opacity:1;" />
    </linearGradient>
    <filter
       color-interpolation-filters="sRGB"
       inkscape:collect="always"
       id="filter6960">
      <feGaussianBlur
         inkscape:collect="always"
         stdDeviation="4.16"
         id="feGaussianBlur6962" />
    </filter>
    <linearGradient
       id="linearGradient4216-4-8-2-6">
      <stop
         id="stop4218-8-0-7-4"
         offset="0"
         style="stop-color:#ffffff;stop-opacity:1;" />
      <stop
         id="stop4220-1-6-4-0"
         offset="1"
         style="stop-color:#c6c6c6;stop-opacity:1;" />
    </linearGradient>
    <linearGradient
       inkscape:collect="always"
       id="linearGradient6978">
      <stop
         style="stop-color:#000000;stop-opacity:0.25"
         offset="0"
         id="stop6980" />
      <stop
         style="stop-color:#000000;stop-opacity:0;"
         offset="1"
         id="stop6982" />
    </linearGradient>
    <linearGradient
       inkscape:collect="always"
       id="linearGradient7006">
      <stop
         style="stop-color:#ffffff;stop-opacity:1;"
         offset="0"
         id="stop7008" />
      <stop
         style="stop-color:#ffffff;stop-opacity:0;"
         offset="1"
         id="stop7010" />
    </linearGradient>
    <radialGradient
       inkscape:collect="always"
       xlink:href="#linearGradient7006"
       id="radialGradient3164"
       gradientUnits="userSpaceOnUse"
       gradientTransform="translate(0,924.3622)"
       cx="88"
       cy="36"
       fx="88"
       fy="36"
       r="51" />
    <linearGradient
       inkscape:collect="always"
       xlink:href="#linearGradient6978"
       id="linearGradient3167"
       gradientUnits="userSpaceOnUse"
       gradientTransform="translate(0,924.3622)"
       x1="64"
       y1="188"
       x2="64"
       y2="8" />
    <radialGradient
       inkscape:collect="always"
       xlink:href="#linearGradient4216-4-8-2-6"
       id="radialGradient3171"
       gradientUnits="userSpaceOnUse"
       cx="64"
       cy="1020.3622"
       fx="64"
       fy="1020.3622"
       r="52" />
    <radialGradient
       inkscape:collect="always"
       xlink:href="#linearGradient4216-4-8-2"
       id="radialGradient3189"
       gradientUnits="userSpaceOnUse"
       gradientTransform="matrix(1.25,0,0,1.25,-38.499999,894.8622)"
       cx="154"
       cy="118"
       fx="154"
       fy="118"
       r="8" />
    <radialGradient
       inkscape:collect="always"
       xlink:href="#linearGradient4216-4-8-2"
       id="radialGradient3874"
       gradientUnits="userSpaceOnUse"
       gradientTransform="matrix(2.03125,0,0,2.03125,-149.5625,760.92465)"
       cx="154"
       cy="118"
       fx="154"
       fy="118"
       r="8" />
    <radialGradient
       inkscape:collect="always"
       xlink:href="#linearGradient4216-4-8-2"
       id="radialGradient3891"
       gradientUnits="userSpaceOnUse"
       gradientTransform="matrix(2.03125,0,0,2.03125,-149.5625,760.92465)"
       cx="154"
       cy="118"
       fx="154"
       fy="118"
       r="8" />
    <filter
       color-interpolation-filters="sRGB"
       inkscape:collect="always"
       id="filter4030"
       x="-0.12000002"
       width="1.24"
       y="-0.11999998"
       height="1.24">
      <feGaussianBlur
         inkscape:collect="always"
         stdDeviation="3.6000005"
         id="feGaussianBlur4032" />
    </filter>
    <linearGradient
       id="linearGradient4216-4-8-2-6-2">
      <stop
         id="stop4218-8-0-7-4-7"
         offset="0"
         style="stop-color:#ffffff;stop-opacity:1;" />
      <stop
         id="stop4220-1-6-4-0-7"
         offset="1"
         style="stop-color:#c6c6c6;stop-opacity:1;" />
    </linearGradient>
    <radialGradient
       r="8"
       fy="118"
       fx="154"
       cy="118"
       cx="154"
       gradientTransform="matrix(5.625,0,0,5.625,-793.25,313.61216)"
       gradientUnits="userSpaceOnUse"
       id="radialGradient3134"
       xlink:href="#linearGradient4216-4-8-2-6-2"
       inkscape:collect="always" />
    <radialGradient
       inkscape:collect="always"
       xlink:href="#linearGradient4216-4-8-2"
       id="radialGradient3122"
       gradientUnits="userSpaceOnUse"
       gradientTransform="matrix(2.0161285,0,0,2.0161285,-147.25799,763.23319)"
       cx="154"
       cy="118"
       fx="154"
       fy="118"
       r="8" />
    <radialGradient
       inkscape:collect="always"
       xlink:href="#linearGradient4216-4-8-2"
       id="radialGradient3895"
       gradientUnits="userSpaceOnUse"
       gradientTransform="matrix(2.03125,0,0,2.03125,-149.5625,761.42468)"
       cx="154"
       cy="118"
       fx="154"
       fy="118"
       r="8" />
    <radialGradient
       inkscape:collect="always"
       xlink:href="#linearGradient4216-4-8-2"
       id="radialGradient3899"
       gradientUnits="userSpaceOnUse"
       gradientTransform="matrix(5.5671255,0,0,5.5671255,-784.42992,318.53399)"
       cx="154"
       cy="118"
       fx="154"
       fy="118"
       r="8" />
  </defs>
  <metadata
     id="metadata7">
    <rdf:RDF>
      <cc:Work
         rdf:about="">
        <dc:format>image/svg+xml</dc:format>
        <dc:type
           rdf:resource="http://purl.org/dc/dcmitype/StillImage" />
        <dc:title />
      </cc:Work>
    </rdf:RDF>
  </metadata>
  <g
     transform="translate(0,-924.36218)"
     id="layer1"
     inkscape:groupmode="layer"
     inkscape:label="Layer 1">
    <path
       style="fill:url(#radialGradient3189);fill-opacity:1;stroke:none"
       d="m 152,1036.3622 c -4.41828,0 -8,3.5817 -8,8 0,4.4183 3.58172,8 8,8 4.41828,0 8,-3.5817 8,-8 0,-4.4183 -3.58172,-8 -8,-8 z m 0,1 c 3.86599,0 7,3.134 7,7 0,3.866 -3.13401,7 -7,7 -3.86599,0 -7,-3.134 -7,-7 0,-3.866 3.13401,-7 7,-7 z m 0,3 -4,4 8,0 -4,-4 z m -4,5 0,2 8,0 0,-2 -8,0 z"
       id="path5838"
       inkscape:connector-curvature="0" />
    <text
       sodipodi:linespacing="125%"
       id="text3841"
       y="948.36218"
       x="-56"
       style="font-size:24px;font-style:normal;font-weight:normal;line-height:125%;letter-spacing:0px;word-spacing:0px;fill:#000000;fill-opacity:1;stroke:none;font-family:Sans"
       xml:space="preserve"><tspan
         y="948.36218"
         x="-56"
         id="tspan3843"
         sodipodi:role="line">128</tspan></text>
    <text
       xml:space="preserve"
       style="font-size:16px;font-style:normal;font-weight:normal;line-height:125%;letter-spacing:0px;word-spacing:0px;fill:#000000;fill-opacity:1;stroke:none;font-family:Sans"
       x="184"
       y="1000.3622"
       id="text3845"
       sodipodi:linespacing="125%"><tspan
         sodipodi:role="line"
         id="tspan3847"
         x="184"
         y="1000.3622">31 - 17</tspan></text>
    <text
       sodipodi:linespacing="125%"
       id="text3849"
       y="1048.3622"
       x="172"
       style="font-size:16px;font-style:normal;font-weight:normal;line-height:125%;letter-spacing:0px;word-spacing:0px;fill:#000000;fill-opacity:1;stroke:none;font-family:Sans"
       xml:space="preserve"><tspan
         y="1048.3622"
         x="172"
         id="tspan3851"
         sodipodi:role="line">16</tspan></text>
    <rect
       rx="4.5902016e-07"
       y="984.36218"
       x="140"
       height="40"
       width="40"
       id="rect3853"
       style="fill:none;stroke:#000000;stroke-width:1;stroke-linecap:round;stroke-linejoin:round;stroke-miterlimit:4;stroke-opacity:1;stroke-dasharray:none;stroke-dashoffset:0" />
    <rect
       rx="4.5902016e-07"
       y="1032.3622"
       x="140"
       height="24"
       width="24"
       id="rect3855"
       style="fill:none;stroke:#000000;stroke-width:1;stroke-linecap:round;stroke-linejoin:round;stroke-miterlimit:4;stroke-opacity:1;stroke-dasharray:none;stroke-dashoffset:0" />
    <rect
       rx="4.5902016e-07"
       y="980.36218"
       x="144"
       height="4"
       width="32"
       id="rect3857"
       style="fill:#b3b3b3;fill-opacity:1;stroke:none" />
    <rect
       rx="4.5902016e-07"
       y="988.36218"
       x="136"
       height="32"
       width="4"
       id="rect3859"
       style="fill:#b3b3b3;fill-opacity:1;stroke:none" />
    <rect
       rx="4.5902016e-07"
       y="1028.3622"
       x="144"
       height="4"
       width="16"
       id="rect3861"
       style="fill:#b3b3b3;fill-opacity:1;stroke:none" />
    <rect
       rx="4.5902016e-07"
       y="1036.3622"
       x="136"
       height="16"
       width="4"
       id="rect3863"
       style="fill:#b3b3b3;fill-opacity:1;stroke:none" />
    <rect
       ry="8"
       rx="8"
       y="936.36218"
       x="12"
       height="104"
       width="104"
       id="rect6938"
       style="fill:#000000;fill-opacity:1;stroke:none;filter:url(#filter6960)" />
    <rect
       style="fill:url(#radialGradient3171);fill-opacity:1;stroke:none"
       id="rect6936-6"
       width="104"
       height="104"
       x="12"
       y="936.36218"
       rx="8"
       ry="8" />
    <rect
       ry="8"
       rx="8"
       y="932.36218"
       x="12"
       height="104"
       width="104"
       id="rect6964-2"
       style="fill:#ffffff;fill-opacity:1;stroke:none" />
    <rect
       style="opacity:0.5;fill:url(#linearGradient3167);fill-opacity:1;stroke:none"
       id="rect6975"
       width="102"
       height="102"
       x="13"
       y="933.36218"
       rx="8"
       ry="8" />
    <rect
       ry="8"
       rx="8"
       y="933.36218"
       x="13"
       height="102"
       width="102"
       id="rect7002"
       style="opacity:0.5;fill:url(#radialGradient3164);fill-opacity:1;stroke:none" />
    <path
       inkscape:connector-curvature="0"
       id="path3893"
       d="m 160,991.36218 c -7.17971,0 -13,5.8203 -13,13.00002 0,7.1797 5.82029,13 13,13 7.17971,0 13,-5.8203 13,-13 0,-7.17972 -5.82029,-13.00002 -13,-13.00002 z m 0,1.625 c 6.28223,0 11.375,5.0928 11.375,11.37502 0,6.2823 -5.09277,11.375 -11.375,11.375 -6.28223,0 -11.375,-5.0927 -11.375,-11.375 0,-6.28222 5.09277,-11.37502 11.375,-11.37502 z m 0,4.875 -6.5,6.50002 13,0 -6.5,-6.50002 z m -6.5,8.12502 0,3.25 13,0 0,-3.25 -13,0 z"
       style="fill:url(#radialGradient3895);fill-opacity:1;stroke:#000000;stroke-opacity:0.18823529999999999;stroke-linejoin:round" />
    <path
       style="fill:url(#radialGradient3899);fill-opacity:1;stroke:#000000;stroke-width:2.74073863;stroke-linejoin:round;stroke-opacity:0.18823529"
       d="m 64,948.73256 c -19.67771,0 -35.6296,15.95192 -35.6296,35.62964 0,19.6777 15.95189,35.6296 35.6296,35.6296 19.67771,0 35.6296,-15.9519 35.6296,-35.6296 0,-19.67772 -15.95189,-35.62964 -35.6296,-35.62964 z m 0,4.4537 c 17.21795,0 31.1759,13.95803 31.1759,31.17594 0,17.2182 -13.95795,31.1759 -31.1759,31.1759 -17.21795,0 -31.1759,-13.9577 -31.1759,-31.1759 0,-17.21791 13.95795,-31.17594 31.1759,-31.17594 z m 0,13.3611 -17.8148,17.81484 35.6296,0 L 64,966.54736 z m -17.8148,22.26854 0,8.9074 35.6296,0 0,-8.9074 -35.6296,0 z"
       id="path3897"
       inkscape:connector-curvature="0" />
  </g>
</svg>
