<?xml version="1.0" encoding="UTF-8" standalone="no"?>
<!-- Created with Inkscape (http://www.inkscape.org/) -->

<svg
   xmlns:dc="http://purl.org/dc/elements/1.1/"
   xmlns:cc="http://creativecommons.org/ns#"
   xmlns:rdf="http://www.w3.org/1999/02/22-rdf-syntax-ns#"
   xmlns:svg="http://www.w3.org/2000/svg"
   xmlns="http://www.w3.org/2000/svg"
   xmlns:xlink="http://www.w3.org/1999/xlink"
   xmlns:sodipodi="http://sodipodi.sourceforge.net/DTD/sodipodi-0.dtd"
   xmlns:inkscape="http://www.inkscape.org/namespaces/inkscape"
   sodipodi:docname="visualization.svg"
   inkscape:version="0.48.4 r9939"
   version="1.1"
   id="svg2"
   height="128"
   width="128">
  <sodipodi:namedview
     id="base"
     pagecolor="#ffffff"
     bordercolor="#666666"
     borderopacity="1.0"
     inkscape:pageopacity="0.0"
     inkscape:pageshadow="2"
     inkscape:zoom="3.6203868"
     inkscape:cx="106.88258"
     inkscape:cy="72.363166"
     inkscape:document-units="px"
     inkscape:current-layer="layer1"
     showgrid="true"
     showguides="true"
     inkscape:guide-bbox="true"
     inkscape:window-width="1221"
     inkscape:window-height="1000"
     inkscape:window-x="59"
     inkscape:window-y="24"
     inkscape:window-maximized="1">
    <inkscape:grid
       snapvisiblegridlinesonly="true"
       enabled="true"
       visible="true"
       empspacing="4"
       id="grid2985"
       type="xygrid" />
  </sodipodi:namedview>
  <defs
     id="defs4">
    <linearGradient
       id="linearGradient7110">
      <stop
         style="stop-color:#5a5a5a;stop-opacity:1;"
         offset="0"
         id="stop7112" />
      <stop
         style="stop-color:#202020;stop-opacity:1;"
         offset="1"
         id="stop7114" />
    </linearGradient>
    <linearGradient
       id="linearGradient4216-4-8-2">
      <stop
         id="stop4218-8-0-7"
         offset="0"
         style="stop-color:#494949;stop-opacity:1;" />
      <stop
         id="stop4220-1-6-4"
         offset="1"
         style="stop-color:#0f0f0f;stop-opacity:1;" />
    </linearGradient>
    <radialGradient
       inkscape:collect="always"
       xlink:href="#linearGradient4216-4-8-2"
       id="radialGradient5899"
       gradientUnits="userSpaceOnUse"
       gradientTransform="translate(0,2)"
       cx="64"
       cy="1020.3622"
       fx="64"
       fy="1020.3622"
       r="52" />
    <radialGradient
       inkscape:collect="always"
       xlink:href="#linearGradient7110"
       id="radialGradient7116"
       cx="80"
       cy="972.36218"
       fx="80"
       fy="972.36218"
       r="52.5"
       gradientUnits="userSpaceOnUse" />
    <linearGradient
       id="linearGradient8794-33">
      <stop
         style="stop-color:#ffffff;stop-opacity:1;"
         offset="0"
         id="stop8796-9" />
      <stop
         style="stop-color:#cacaca;stop-opacity:1;"
         offset="1"
         id="stop8798-6" />
    </linearGradient>
    <radialGradient
       inkscape:collect="always"
       xlink:href="#linearGradient8794-33"
       id="radialGradient4305"
       cx="154.00002"
       cy="1046.1122"
       fx="154.00002"
       fy="1046.1122"
       r="7"
       gradientTransform="matrix(-1.6312602e-5,1.4285802,-1.4285787,-1.6312585e-5,1648.4561,826.37783)"
       gradientUnits="userSpaceOnUse" />
    <radialGradient
       inkscape:collect="always"
       xlink:href="#linearGradient8794-33"
       id="radialGradient4317"
       gradientUnits="userSpaceOnUse"
       gradientTransform="matrix(-1.6312602e-5,1.4285802,-1.4285787,-1.6312585e-5,1648.4561,826.37783)"
       cx="154.00002"
       cy="1046.1122"
       fx="154.00002"
       fy="1046.1122"
       r="7" />
    <radialGradient
       inkscape:collect="always"
       xlink:href="#linearGradient8794-33"
       id="radialGradient4355"
       gradientUnits="userSpaceOnUse"
       gradientTransform="matrix(-1.6312602e-5,1.4285802,-1.4285787,-1.6312585e-5,1648.4561,826.37783)"
       cx="154.00002"
       cy="1046.1122"
       fx="154.00002"
       fy="1046.1122"
       r="7" />
    <radialGradient
       inkscape:collect="always"
       xlink:href="#linearGradient8794-33"
       id="radialGradient5526"
       cx="80"
       cy="970.07642"
       fx="80"
       fy="970.07642"
       r="64"
       gradientTransform="matrix(1.2500001,5.3481301e-7,-5.3481281e-7,1.2499996,-19.999491,-240.23307)"
       gradientUnits="userSpaceOnUse" />
    <radialGradient
       inkscape:collect="always"
       xlink:href="#linearGradient8794-33"
       id="radialGradient5935"
       cx="154"
       cy="121.20001"
       fx="154"
       fy="121.20001"
       r="8"
       gradientUnits="userSpaceOnUse"
       gradientTransform="matrix(1.25,0,0,-1.25,-38.5,1193.8622)" />
    <radialGradient
       inkscape:collect="always"
       xlink:href="#linearGradient8794-33"
       id="radialGradient5979"
       gradientUnits="userSpaceOnUse"
       gradientTransform="matrix(5.625,0,0,-5.625,-793.25,1659.1122)"
       cx="154.53334"
       cy="120.66667"
       fx="154.53334"
       fy="120.66667"
       r="8" />
    <radialGradient
       inkscape:collect="always"
       xlink:href="#linearGradient8794-33"
       id="radialGradient5983"
       gradientUnits="userSpaceOnUse"
       gradientTransform="matrix(2.0161285,0,0,-2.0161285,-147.25799,1245.4911)"
       cx="154.384"
       cy="121.58398"
       fx="154.384"
       fy="121.58398"
       r="8" />
    <radialGradient
       inkscape:collect="always"
       xlink:href="#linearGradient7110"
       id="radialGradient6032"
       cx="154"
       cy="114.57353"
       fx="154"
       fy="114.57353"
       r="8"
       gradientTransform="matrix(1.2500001,3.9063664e-7,-3.5157299e-7,1.1250001,-38.49997,-11.895297)"
       gradientUnits="userSpaceOnUse" />
    <radialGradient
       inkscape:collect="always"
       xlink:href="#linearGradient8794-33"
       id="radialGradient6036"
       gradientUnits="userSpaceOnUse"
       gradientTransform="matrix(5.6250004,1.7578649e-6,-1.5820785e-6,5.0625004,-793.24986,393.95832)"
       cx="154"
       cy="114.57353"
       fx="154"
       fy="114.57353"
       r="8" />
    <filter
       inkscape:collect="always"
       id="filter6040"
       x="-0.091875017"
       width="1.18375"
       y="-0.17294112"
       height="1.3458822">
      <feGaussianBlur
         inkscape:collect="always"
         stdDeviation="2.7562505"
         id="feGaussianBlur6042" />
    </filter>
    <radialGradient
       inkscape:collect="always"
       xlink:href="#linearGradient8794-33"
       id="radialGradient6062"
       gradientUnits="userSpaceOnUse"
       gradientTransform="matrix(5.6250004,1.7578649e-6,-1.5820785e-6,5.0625004,-793.24986,393.95832)"
       cx="154"
       cy="114.57353"
       fx="154"
       fy="114.57353"
       r="8" />
    <radialGradient
       inkscape:collect="always"
       xlink:href="#linearGradient7110-4"
       id="radialGradient3851"
       gradientUnits="userSpaceOnUse"
       gradientTransform="matrix(-4.4524659,0,0,-4.4524659,740.77485,1518.658)"
       cx="149.52"
       cy="122.47999"
       fx="149.52"
       fy="122.47999"
       r="8" />
    <linearGradient
       id="linearGradient7110-4">
      <stop
         style="stop-color:#5a5a5a;stop-opacity:1;"
         offset="0"
         id="stop7112-1" />
      <stop
         style="stop-color:#202020;stop-opacity:1;"
         offset="1"
         id="stop7114-6" />
    </linearGradient>
    <radialGradient
       inkscape:collect="always"
       xlink:href="#linearGradient7006-8"
       id="radialGradient6053"
       gradientUnits="userSpaceOnUse"
       gradientTransform="translate(1.9814697e-6,924.36215)"
       cx="88"
       cy="36"
       fx="88"
       fy="36"
       r="51" />
    <linearGradient
       inkscape:collect="always"
       id="linearGradient7006-8">
      <stop
         style="stop-color:#ffffff;stop-opacity:1;"
         offset="0"
         id="stop7008-1" />
      <stop
         style="stop-color:#ffffff;stop-opacity:0;"
         offset="1"
         id="stop7010-1" />
    </linearGradient>
    <linearGradient
       inkscape:collect="always"
       xlink:href="#linearGradient6978-3"
       id="linearGradient6051"
       gradientUnits="userSpaceOnUse"
       gradientTransform="translate(1.9814697e-6,924.36215)"
       x1="64"
       y1="188"
       x2="64"
       y2="8" />
    <linearGradient
       inkscape:collect="always"
       id="linearGradient6978-3">
      <stop
         style="stop-color:#000000;stop-opacity:0.25"
         offset="0"
         id="stop6980-5" />
      <stop
         style="stop-color:#000000;stop-opacity:0;"
         offset="1"
         id="stop6982-7" />
    </linearGradient>
    <radialGradient
       inkscape:collect="always"
       xlink:href="#linearGradient4216-4-8-2-6"
       id="radialGradient6049"
       gradientUnits="userSpaceOnUse"
       gradientTransform="translate(1.9814697e-6,-5.1772461e-5)"
       cx="64"
       cy="1020.3622"
       fx="64"
       fy="1020.3622"
       r="52" />
    <linearGradient
       id="linearGradient4216-4-8-2-6">
      <stop
         id="stop4218-8-0-7-4"
         offset="0"
         style="stop-color:#ffffff;stop-opacity:1;" />
      <stop
         id="stop4220-1-6-4-0"
         offset="1"
         style="stop-color:#c6c6c6;stop-opacity:1;" />
    </linearGradient>
    <filter
       color-interpolation-filters="sRGB"
       inkscape:collect="always"
       id="filter6960">
      <feGaussianBlur
         inkscape:collect="always"
         stdDeviation="4.16"
         id="feGaussianBlur6962" />
    </filter>
    <radialGradient
       inkscape:collect="always"
       xlink:href="#linearGradient8794-33"
       id="radialGradient3857"
       gradientUnits="userSpaceOnUse"
       gradientTransform="matrix(2.1118874,6.5998444e-7,-5.9398603e-7,1.9006987,-161.85156,781.94615)"
       cx="154"
       cy="114.57353"
       fx="154"
       fy="114.57353"
       r="8" />
    <radialGradient
       inkscape:collect="always"
       xlink:href="#linearGradient7110"
       id="radialGradient3860"
       gradientUnits="userSpaceOnUse"
       gradientTransform="matrix(2.1118874,6.5998444e-7,-5.9398603e-7,1.9006987,-161.85156,781.94615)"
       cx="154"
       cy="114.57353"
       fx="154"
       fy="114.57353"
       r="8" />
    <radialGradient
       inkscape:collect="always"
       xlink:href="#linearGradient7110"
       id="radialGradient3864"
       gradientUnits="userSpaceOnUse"
       gradientTransform="matrix(5.5750229,1.7422465e-6,-1.5680219e-6,5.0175207,-785.63328,397.22178)"
       cx="154"
       cy="114.57353"
       fx="154"
       fy="114.57353"
       r="8" />
  </defs>
  <metadata
     id="metadata7">
    <rdf:RDF>
      <cc:Work
         rdf:about="">
        <dc:format>image/svg+xml</dc:format>
        <dc:type
           rdf:resource="http://purl.org/dc/dcmitype/StillImage" />
        <dc:title />
      </cc:Work>
    </rdf:RDF>
  </metadata>
  <g
     transform="translate(0,-924.36218)"
     id="layer1"
     inkscape:groupmode="layer"
     inkscape:label="Layer 1">
    <path
       inkscape:connector-curvature="0"
       style="fill:url(#radialGradient3860);fill-opacity:1;stroke:#000000;stroke-width:1;stroke-miterlimit:4;stroke-opacity:0.18823529999999999;stroke-dasharray:none;stroke-linejoin:round"
       d="m 160,997.18176 c -4.64615,0 -9.2923,2.53426 -13.51607,7.60284 2.40692,-1.4442 4.9469,-2.4411 7.54999,-3.0623 -0.47296,0.923 -0.79196,1.9538 -0.79196,3.0623 0,3.7323 3.02568,6.758 6.75804,6.758 3.73237,0 6.75804,-3.0257 6.75804,-6.758 0,-1.1085 -0.319,-2.1393 -0.79196,-3.0623 2.6031,0.6212 5.14307,1.6181 7.55,3.0623 -4.22377,-5.06858 -8.86992,-7.60284 -13.51608,-7.60284 z m 2.27028,3.90694 c 0.43765,0.039 0.88387,0.044 1.31993,0.1056 0.91722,0.9173 1.47832,2.1906 1.47832,3.5903 0,2.7992 -2.26926,5.0685 -5.06853,5.0685 -2.79926,0 -5.06853,-2.2693 -5.06853,-5.0685 0,-0.1659 0.0372,-0.3135 0.0528,-0.4752 0.19181,2.155 1.9661,3.8542 4.17098,3.8542 2.33272,0 4.22377,-1.8911 4.22377,-4.2238 0,-1.1025 -0.41457,-2.1079 -1.10874,-2.8511 z M 160,1003.095 c 0.93309,0 1.68951,0.7565 1.68951,1.6896 0,0.933 -0.75642,1.6895 -1.68951,1.6895 -0.93308,0 -1.68951,-0.7565 -1.68951,-1.6895 0,-0.9331 0.75643,-1.6896 1.68951,-1.6896 z"
       id="path6060" />
    <text
       xml:space="preserve"
       style="font-size:24px;font-style:normal;font-weight:normal;line-height:125%;letter-spacing:0px;word-spacing:0px;fill:#000000;fill-opacity:1;stroke:none;font-family:Sans"
       x="-56"
       y="948.36218"
       id="text5893"
       sodipodi:linespacing="125%"><tspan
         sodipodi:role="line"
         id="tspan5895"
         x="-56"
         y="948.36218">128</tspan></text>
    <text
       sodipodi:linespacing="125%"
       id="text5901"
       y="1000.3622"
       x="184"
       style="font-size:16px;font-style:normal;font-weight:normal;line-height:125%;letter-spacing:0px;word-spacing:0px;fill:#000000;fill-opacity:1;stroke:none;font-family:Sans"
       xml:space="preserve"><tspan
         y="1000.3622"
         x="184"
         id="tspan5903"
         sodipodi:role="line">31 - 17</tspan></text>
    <text
       xml:space="preserve"
       style="font-size:16px;font-style:normal;font-weight:normal;line-height:125%;letter-spacing:0px;word-spacing:0px;fill:#000000;fill-opacity:1;stroke:none;font-family:Sans"
       x="172"
       y="1048.3622"
       id="text5905"
       sodipodi:linespacing="125%"><tspan
         sodipodi:role="line"
         id="tspan5907"
         x="172"
         y="1048.3622">16</tspan></text>
    <rect
       style="fill:none;stroke:#000000;stroke-width:1;stroke-linecap:round;stroke-linejoin:round;stroke-miterlimit:4;stroke-opacity:1;stroke-dasharray:none;stroke-dashoffset:0"
       id="rect5919"
       width="40"
       height="40"
       x="140"
       y="60"
       transform="translate(0,924.36218)"
       rx="4.5902016e-07" />
    <rect
       style="fill:none;stroke:#000000;stroke-width:1;stroke-linecap:round;stroke-linejoin:round;stroke-miterlimit:4;stroke-opacity:1;stroke-dasharray:none;stroke-dashoffset:0"
       id="rect5921"
       width="24"
       height="24"
       x="140"
       y="1032.3622"
       rx="4.5902016e-07" />
    <rect
       style="fill:#b3b3b3;fill-opacity:1;stroke:none"
       id="rect6935"
       width="32"
       height="4"
       x="144"
       y="56"
       transform="translate(0,924.36218)"
       rx="4.5902016e-07" />
    <rect
       style="fill:#b3b3b3;fill-opacity:1;stroke:none"
       id="rect6937"
       width="4"
       height="32"
       x="136"
       y="64"
       transform="translate(0,924.36218)"
       rx="4.5902016e-07" />
    <rect
       style="fill:#b3b3b3;fill-opacity:1;stroke:none"
       id="rect6939"
       width="16"
       height="4"
       x="144"
       y="104"
       rx="4.5902016e-07"
       transform="translate(0,924.36218)" />
    <rect
       style="fill:#b3b3b3;fill-opacity:1;stroke:none"
       id="rect6941"
       width="4"
       height="16"
       x="136"
       y="112"
       transform="translate(0,924.36218)"
       rx="4.5902016e-07" />
    <path
       style="fill:url(#radialGradient6032);fill-opacity:1.0;stroke:none"
       d="M 152 115.5 C 149.25 115.5 146.5 117 144 120 C 145.42463 119.14522 146.92801 118.55518 148.46875 118.1875 C 148.18881 118.73383 148 119.34394 148 120 C 148 122.20914 149.79086 124 152 124 C 154.20914 124 156 122.20914 156 120 C 156 119.34394 155.81119 118.73383 155.53125 118.1875 C 157.07199 118.55518 158.57537 119.14522 160 120 C 157.5 117 154.75 115.5 152 115.5 z M 153.34375 117.8125 C 153.60279 117.83557 153.8669 117.83855 154.125 117.875 C 154.66789 118.41789 155 119.17158 155 120 C 155 121.65685 153.65685 123 152 123 C 150.34315 123 149 121.65685 149 120 C 149 119.90184 149.02203 119.8145 149.03125 119.71875 C 149.14478 120.99427 150.19496 122 151.5 122 C 152.88071 122 154 120.88071 154 119.5 C 154 118.84748 153.75462 118.25237 153.34375 117.8125 z M 152 119 C 152.55228 119 153 119.44772 153 120 C 153 120.55228 152.55228 121 152 121 C 151.44772 121 151 120.55228 151 120 C 151 119.44772 151.44772 119 152 119 z "
       transform="translate(0,924.36218)"
       id="path6007" />
    <rect
       ry="8"
       rx="8"
       y="936.36218"
       x="12"
       height="104"
       width="104"
       id="rect6938"
       style="fill:#000000;fill-opacity:1;stroke:none;filter:url(#filter6960)" />
    <rect
       style="fill:url(#radialGradient6049);fill-opacity:1;stroke:none"
       id="rect6936-6"
       width="104"
       height="104"
       x="12"
       y="936.36218"
       rx="8"
       ry="8" />
    <rect
       ry="8"
       rx="8"
       y="932.36218"
       x="12"
       height="104"
       width="104"
       id="rect6964-2"
       style="fill:#ffffff;fill-opacity:1;stroke:none" />
    <rect
       style="opacity:0.5;fill:url(#linearGradient6051);fill-opacity:1;stroke:none"
       id="rect6975"
       width="102"
       height="102"
       x="13"
       y="933.36218"
       rx="8"
       ry="8" />
    <rect
       ry="8"
       rx="8"
       y="933.36218"
       x="13"
       height="102"
       width="102"
       id="rect7002"
       style="opacity:0.5;fill:url(#radialGradient6053);fill-opacity:1;stroke:none" />
    <path
       id="path3862"
       d="m 63.999985,965.40708 c -12.26504,0 -24.53009,6.69002 -35.68012,20.07021 6.35386,-3.8124 13.05897,-6.44409 19.93069,-8.08395 -1.24854,2.43656 -2.09064,5.15765 -2.09064,8.08395 0,9.8526 7.98728,17.84001 17.84007,17.84001 9.85282,0 17.84008,-7.98741 17.84008,-17.84001 0,-2.9263 -0.84211,-5.64739 -2.09064,-8.08395 6.87174,1.63986 13.57682,4.27155 19.93071,8.08395 -11.15003,-13.38019 -23.41508,-20.07021 -35.68015,-20.07021 z m 5.99315,10.31366 c 1.15533,0.10295 2.33327,0.11615 3.48439,0.27877 2.42131,2.42151 3.90252,5.78278 3.90252,9.47778 0,7.3894 -5.99046,13.38 -13.38006,13.38 -7.38957,0 -13.38005,-5.9906 -13.38005,-13.38 0,-0.438 0.0982,-0.8276 0.13938,-1.2545 0.50635,5.6889 5.19017,10.1745 11.01068,10.1745 6.15798,0 11.15003,-4.9922 11.15003,-11.1501 0,-2.9104 -1.0944,-5.56453 -2.92689,-7.52645 z m -5.99315,5.29625 c 2.4632,0 4.46002,1.9971 4.46002,4.4603 0,2.463 -1.99682,4.46 -4.46002,4.46 -2.46317,0 -4.46002,-1.997 -4.46002,-4.46 0,-2.4632 1.99685,-4.4603 4.46002,-4.4603 z"
       style="fill:url(#radialGradient3864);fill-opacity:1;stroke:#000000;stroke-width:2.63982964;stroke-linejoin:round;stroke-miterlimit:4;stroke-opacity:0.18823529;stroke-dasharray:none"
       inkscape:connector-curvature="0" />
  </g>
</svg>
