<?xml version="1.0" encoding="UTF-8" standalone="no"?>
<!-- Created with Inkscape (http://www.inkscape.org/) -->

<svg
   xmlns:dc="http://purl.org/dc/elements/1.1/"
   xmlns:cc="http://creativecommons.org/ns#"
   xmlns:rdf="http://www.w3.org/1999/02/22-rdf-syntax-ns#"
   xmlns:svg="http://www.w3.org/2000/svg"
   xmlns="http://www.w3.org/2000/svg"
   xmlns:xlink="http://www.w3.org/1999/xlink"
   xmlns:sodipodi="http://sodipodi.sourceforge.net/DTD/sodipodi-0.dtd"
   xmlns:inkscape="http://www.inkscape.org/namespaces/inkscape"
   sodipodi:docname="view-sort-descending.svg"
   inkscape:version="0.48.4 r9939"
   version="1.1"
   id="svg2"
   height="128"
   width="128">
  <sodipodi:namedview
     id="base"
     pagecolor="#ffffff"
     bordercolor="#666666"
     borderopacity="1.0"
     inkscape:pageopacity="0.0"
     inkscape:pageshadow="2"
     inkscape:zoom="3.6203868"
     inkscape:cx="106.33015"
     inkscape:cy="72.363166"
     inkscape:document-units="px"
     inkscape:current-layer="layer1"
     showgrid="true"
     showguides="true"
     inkscape:guide-bbox="true"
     inkscape:window-width="1221"
     inkscape:window-height="1000"
     inkscape:window-x="59"
     inkscape:window-y="24"
     inkscape:window-maximized="1">
    <inkscape:grid
       snapvisiblegridlinesonly="true"
       enabled="true"
       visible="true"
       empspacing="4"
       id="grid2985"
       type="xygrid" />
  </sodipodi:namedview>
  <defs
     id="defs4">
    <linearGradient
       id="linearGradient7110">
      <stop
         style="stop-color:#5a5a5a;stop-opacity:1;"
         offset="0"
         id="stop7112" />
      <stop
         style="stop-color:#202020;stop-opacity:1;"
         offset="1"
         id="stop7114" />
    </linearGradient>
    <linearGradient
       id="linearGradient4216-4-8-2">
      <stop
         id="stop4218-8-0-7"
         offset="0"
         style="stop-color:#494949;stop-opacity:1;" />
      <stop
         id="stop4220-1-6-4"
         offset="1"
         style="stop-color:#0f0f0f;stop-opacity:1;" />
    </linearGradient>
    <radialGradient
       inkscape:collect="always"
       xlink:href="#linearGradient4216-4-8-2"
       id="radialGradient5899"
       gradientUnits="userSpaceOnUse"
       gradientTransform="translate(0,2)"
       cx="64"
       cy="1020.3622"
       fx="64"
       fy="1020.3622"
       r="52" />
    <radialGradient
       inkscape:collect="always"
       xlink:href="#linearGradient7110"
       id="radialGradient7116"
       cx="80"
       cy="972.36218"
       fx="80"
       fy="972.36218"
       r="52.5"
       gradientUnits="userSpaceOnUse" />
    <linearGradient
       id="linearGradient8794-33">
      <stop
         style="stop-color:#ffffff;stop-opacity:1;"
         offset="0"
         id="stop8796-9" />
      <stop
         style="stop-color:#cacaca;stop-opacity:1;"
         offset="1"
         id="stop8798-6" />
    </linearGradient>
    <radialGradient
       inkscape:collect="always"
       xlink:href="#linearGradient8794-33"
       id="radialGradient4305"
       cx="154.00002"
       cy="1046.1122"
       fx="154.00002"
       fy="1046.1122"
       r="7"
       gradientTransform="matrix(-1.6312602e-5,1.4285802,-1.4285787,-1.6312585e-5,1648.4561,826.37783)"
       gradientUnits="userSpaceOnUse" />
    <radialGradient
       inkscape:collect="always"
       xlink:href="#linearGradient8794-33"
       id="radialGradient4317"
       gradientUnits="userSpaceOnUse"
       gradientTransform="matrix(-1.6312602e-5,1.4285802,-1.4285787,-1.6312585e-5,1648.4561,826.37783)"
       cx="154.00002"
       cy="1046.1122"
       fx="154.00002"
       fy="1046.1122"
       r="7" />
    <filter
       inkscape:collect="always"
       id="filter4325"
       x="-0.1125"
       width="1.225"
       y="-0.12857143"
       height="1.2571429">
      <feGaussianBlur
         inkscape:collect="always"
         stdDeviation="0.75"
         id="feGaussianBlur4327" />
    </filter>
    <radialGradient
       inkscape:collect="always"
       xlink:href="#linearGradient8794-33"
       id="radialGradient4355"
       gradientUnits="userSpaceOnUse"
       gradientTransform="matrix(-1.6312602e-5,1.4285802,-1.4285787,-1.6312585e-5,1648.4561,826.37783)"
       cx="154.00002"
       cy="1046.1122"
       fx="154.00002"
       fy="1046.1122"
       r="7" />
    <radialGradient
       inkscape:collect="always"
       xlink:href="#linearGradient8794-33"
       id="radialGradient5526"
       cx="80"
       cy="970.07642"
       fx="80"
       fy="970.07642"
       r="64"
       gradientTransform="matrix(1.2500001,5.3481301e-7,-5.3481281e-7,1.2499996,-19.999491,-240.23307)"
       gradientUnits="userSpaceOnUse" />
    <radialGradient
       inkscape:collect="always"
       xlink:href="#linearGradient8794-33"
       id="radialGradient5935"
       cx="154"
       cy="121.20001"
       fx="154"
       fy="121.20001"
       r="8"
       gradientUnits="userSpaceOnUse"
       gradientTransform="matrix(1.25,0,0,-1.25,-38.5,1193.8622)" />
    <filter
       inkscape:collect="always"
       id="filter5943"
       x="-0.12000002"
       width="1.24"
       y="-0.11999998"
       height="1.24">
      <feGaussianBlur
         inkscape:collect="always"
         stdDeviation="3.6000005"
         id="feGaussianBlur5945" />
    </filter>
    <radialGradient
       inkscape:collect="always"
       xlink:href="#linearGradient8794-33"
       id="radialGradient5979"
       gradientUnits="userSpaceOnUse"
       gradientTransform="matrix(5.625,0,0,-5.625,-793.25,1659.1122)"
       cx="154.53334"
       cy="120.66667"
       fx="154.53334"
       fy="120.66667"
       r="8" />
    <radialGradient
       inkscape:collect="always"
       xlink:href="#linearGradient8794-33"
       id="radialGradient5983"
       gradientUnits="userSpaceOnUse"
       gradientTransform="matrix(2.0161285,0,0,-2.0161285,-147.25799,1245.4911)"
       cx="154.384"
       cy="121.58398"
       fx="154.384"
       fy="121.58398"
       r="8" />
    <radialGradient
       inkscape:collect="always"
       xlink:href="#linearGradient8794-33"
       id="radialGradient6032"
       cx="154"
       cy="114.57353"
       fx="154"
       fy="114.57353"
       r="8"
       gradientTransform="matrix(1.2500001,3.9063664e-7,-3.5157299e-7,1.1250001,-38.49997,-11.895297)"
       gradientUnits="userSpaceOnUse" />
    <radialGradient
       inkscape:collect="always"
       xlink:href="#linearGradient8794-33"
       id="radialGradient6036"
       gradientUnits="userSpaceOnUse"
       gradientTransform="matrix(5.6250004,1.7578649e-6,-1.5820785e-6,5.0625004,-793.24986,393.95832)"
       cx="154"
       cy="114.57353"
       fx="154"
       fy="114.57353"
       r="8" />
    <filter
       inkscape:collect="always"
       id="filter6040"
       x="-0.091875017"
       width="1.18375"
       y="-0.17294112"
       height="1.3458822">
      <feGaussianBlur
         inkscape:collect="always"
         stdDeviation="2.7562505"
         id="feGaussianBlur6042" />
    </filter>
    <radialGradient
       inkscape:collect="always"
       xlink:href="#linearGradient8794-33"
       id="radialGradient6062"
       gradientUnits="userSpaceOnUse"
       gradientTransform="matrix(5.6250004,1.7578649e-6,-1.5820785e-6,5.0625004,-793.24986,393.95832)"
       cx="154"
       cy="114.57353"
       fx="154"
       fy="114.57353"
       r="8" />
  </defs>
  <metadata
     id="metadata7">
    <rdf:RDF>
      <cc:Work
         rdf:about="">
        <dc:format>image/svg+xml</dc:format>
        <dc:type
           rdf:resource="http://purl.org/dc/dcmitype/StillImage" />
        <dc:title></dc:title>
      </cc:Work>
    </rdf:RDF>
  </metadata>
  <g
     transform="translate(0,-924.36218)"
     id="layer1"
     inkscape:groupmode="layer"
     inkscape:label="Layer 1">
    <rect
       ry="8"
       rx="8"
       y="940.36218"
       x="12"
       height="104"
       width="104"
       id="rect6981"
       style="opacity:0.10000000000000001;fill:#000000;fill-opacity:1;stroke:#000000;stroke-width:10;stroke-miterlimit:4;stroke-dasharray:none" />
    <rect
       style="opacity:0.1;fill:#000000;fill-opacity:1;stroke:#000000;stroke-width:6;stroke-miterlimit:4;stroke-dasharray:none"
       id="rect6979"
       width="104"
       height="104"
       x="12"
       y="940.36218"
       rx="8"
       ry="8" />
    <rect
       ry="8"
       rx="8"
       y="938.36218"
       x="12"
       height="104"
       width="104"
       id="rect5969"
       style="fill:#000000;fill-opacity:1;stroke:#000000;opacity:0.20000000000000001;stroke-width:3;stroke-miterlimit:4;stroke-dasharray:none" />
    <rect
       style="fill:url(#radialGradient5899);fill-opacity:1;stroke:#1a1a1a"
       id="rect6936"
       width="104"
       height="104"
       x="12"
       y="938.36218"
       rx="8"
       ry="8" />
    <rect
       ry="8"
       rx="8"
       y="934.36218"
       x="12"
       height="104"
       width="104"
       id="rect6964"
       style="fill:url(#radialGradient7116);fill-opacity:1;stroke:#1a1a1a" />
    <text
       xml:space="preserve"
       style="font-size:24px;font-style:normal;font-weight:normal;line-height:125%;letter-spacing:0px;word-spacing:0px;fill:#000000;fill-opacity:1;stroke:none;font-family:Sans"
       x="-56"
       y="948.36218"
       id="text5893"
       sodipodi:linespacing="125%"><tspan
         sodipodi:role="line"
         id="tspan5895"
         x="-56"
         y="948.36218">128</tspan></text>
    <text
       sodipodi:linespacing="125%"
       id="text5901"
       y="1000.3622"
       x="184"
       style="font-size:16px;font-style:normal;font-weight:normal;line-height:125%;letter-spacing:0px;word-spacing:0px;fill:#000000;fill-opacity:1;stroke:none;font-family:Sans"
       xml:space="preserve"><tspan
         y="1000.3622"
         x="184"
         id="tspan5903"
         sodipodi:role="line">31 - 17</tspan></text>
    <text
       xml:space="preserve"
       style="font-size:16px;font-style:normal;font-weight:normal;line-height:125%;letter-spacing:0px;word-spacing:0px;fill:#000000;fill-opacity:1;stroke:none;font-family:Sans"
       x="172"
       y="1048.3622"
       id="text5905"
       sodipodi:linespacing="125%"><tspan
         sodipodi:role="line"
         id="tspan5907"
         x="172"
         y="1048.3622">16</tspan></text>
    <rect
       style="fill:none;stroke:#000000;stroke-width:1;stroke-linecap:round;stroke-linejoin:round;stroke-miterlimit:4;stroke-opacity:1;stroke-dasharray:none;stroke-dashoffset:0"
       id="rect5919"
       width="40"
       height="40"
       x="140"
       y="60"
       transform="translate(0,924.36218)"
       rx="4.5902016e-07" />
    <rect
       style="fill:none;stroke:#000000;stroke-width:1;stroke-linecap:round;stroke-linejoin:round;stroke-miterlimit:4;stroke-opacity:1;stroke-dasharray:none;stroke-dashoffset:0"
       id="rect5921"
       width="24"
       height="24"
       x="140"
       y="1032.3622"
       rx="4.5902016e-07" />
    <rect
       style="fill:#b3b3b3;fill-opacity:1;stroke:none"
       id="rect6935"
       width="32"
       height="4"
       x="144"
       y="56"
       transform="translate(0,924.36218)"
       rx="4.5902016e-07" />
    <rect
       style="fill:#b3b3b3;fill-opacity:1;stroke:none"
       id="rect6937"
       width="4"
       height="32"
       x="136"
       y="64"
       transform="translate(0,924.36218)"
       rx="4.5902016e-07" />
    <rect
       style="fill:#b3b3b3;fill-opacity:1;stroke:none"
       id="rect6939"
       width="16"
       height="4"
       x="144"
       y="104"
       rx="4.5902016e-07"
       transform="translate(0,924.36218)" />
    <rect
       style="fill:#b3b3b3;fill-opacity:1;stroke:none"
       id="rect6941"
       width="4"
       height="16"
       x="136"
       y="112"
       transform="translate(0,924.36218)"
       rx="4.5902016e-07" />
    <rect
       style="fill:url(#radialGradient7116);fill-opacity:1;stroke:#1a1a1a"
       id="rect12711"
       width="104"
       height="104"
       x="12"
       y="934.36218"
       rx="8"
       ry="8" />
    <path
       style="fill:url(#radialGradient6032);fill-opacity:1;stroke:none"
       d="M 152 115.5 C 149.25 115.5 146.5 117 144 120 C 145.42463 119.14522 146.92801 118.55518 148.46875 118.1875 C 148.18881 118.73383 148 119.34394 148 120 C 148 122.20914 149.79086 124 152 124 C 154.20914 124 156 122.20914 156 120 C 156 119.34394 155.81119 118.73383 155.53125 118.1875 C 157.07199 118.55518 158.57537 119.14522 160 120 C 157.5 117 154.75 115.5 152 115.5 z M 153.34375 117.8125 C 153.60279 117.83557 153.8669 117.83855 154.125 117.875 C 154.66789 118.41789 155 119.17158 155 120 C 155 121.65685 153.65685 123 152 123 C 150.34315 123 149 121.65685 149 120 C 149 119.90184 149.02203 119.8145 149.03125 119.71875 C 149.14478 120.99427 150.19496 122 151.5 122 C 152.88071 122 154 120.88071 154 119.5 C 154 118.84748 153.75462 118.25237 153.34375 117.8125 z M 152 119 C 152.55228 119 153 119.44772 153 120 C 153 120.55228 152.55228 121 152 121 C 151.44772 121 151 120.55228 151 120 C 151 119.44772 151.44772 119 152 119 z "
       transform="translate(0,924.36218)"
       id="path6007" />
    <g
       id="g6052">
      <path
         id="path6038"
         d="m 64,967.23718 c -12.375,0 -24.75,6.75 -36,20.25 6.41084,-3.8465 13.17605,-6.5017 20.10937,-8.1563 -1.25973,2.4585 -2.10937,5.204 -2.10937,8.1563 0,9.9411 8.05887,18.00002 18,18.00002 9.94113,0 18,-8.05892 18,-18.00002 0,-2.9523 -0.84965,-5.6978 -2.10938,-8.1563 6.93333,1.6546 13.69854,4.3098 20.10938,8.1563 -11.25,-13.5 -23.625,-20.25 -36,-20.25 z m 6.04687,10.4062 c 1.16568,0.1038 2.35418,0.1173 3.51563,0.2813 2.443,2.443 3.9375,5.8346 3.9375,9.5625 0,7.4558 -6.04418,13.50002 -13.5,13.50002 -7.45583,0 -13.5,-6.04422 -13.5,-13.50002 0,-0.4417 0.0991,-0.8348 0.14062,-1.2656 0.51089,5.7398 5.2367,10.2656 11.10938,10.2656 6.21319,0 11.25,-5.0368 11.25,-11.25 0,-2.9364 -1.10421,-5.6144 -2.95313,-7.5938 z M 64,982.98718 c 2.48526,0 4.5,2.0147 4.5,4.5 0,2.4852 -2.01474,4.5 -4.5,4.5 -2.48526,0 -4.5,-2.0148 -4.5,-4.5 0,-2.4853 2.01474,-4.5 4.5,-4.5 z"
         style="fill:#000000;fill-opacity:1;stroke:none;filter:url(#filter6040)"
         inkscape:connector-curvature="0" />
      <path
         inkscape:connector-curvature="0"
         style="fill:url(#radialGradient6036);fill-opacity:1;stroke:#ffffff;stroke-opacity:0.3137255;stroke-width:2;stroke-miterlimit:4;stroke-dasharray:none"
         d="m 64,967.23718 c -12.375,0 -24.75,6.75 -36,20.25 6.41084,-3.8465 13.17605,-6.5017 20.10937,-8.1563 -1.25973,2.4585 -2.10937,5.204 -2.10937,8.1563 0,9.9411 8.05887,18.00002 18,18.00002 9.94113,0 18,-8.05892 18,-18.00002 0,-2.9523 -0.84965,-5.6978 -2.10938,-8.1563 6.93333,1.6546 13.69854,4.3098 20.10938,8.1563 -11.25,-13.5 -23.625,-20.25 -36,-20.25 z m 6.04687,10.4062 c 1.16568,0.1038 2.35418,0.1173 3.51563,0.2813 2.443,2.443 3.9375,5.8346 3.9375,9.5625 0,7.4558 -6.04418,13.50002 -13.5,13.50002 -7.45583,0 -13.5,-6.04422 -13.5,-13.50002 0,-0.4417 0.0991,-0.8348 0.14062,-1.2656 0.51089,5.7398 5.2367,10.2656 11.10938,10.2656 6.21319,0 11.25,-5.0368 11.25,-11.25 0,-2.9364 -1.10421,-5.6144 -2.95313,-7.5938 z M 64,982.98718 c 2.48526,0 4.5,2.0147 4.5,4.5 0,2.4852 -2.01474,4.5 -4.5,4.5 -2.48526,0 -4.5,-2.0148 -4.5,-4.5 0,-2.4853 2.01474,-4.5 4.5,-4.5 z"
         id="path6034" />
    </g>
    <g
       id="g6056"
       transform="matrix(0.37544662,0,0,0.37544662,135.97142,634.03583)">
      <path
         inkscape:connector-curvature="0"
         style="fill:#000000;fill-opacity:1;stroke:none;filter:url(#filter6040)"
         d="m 64,967.23718 c -12.375,0 -24.75,6.75 -36,20.25 6.41084,-3.8465 13.17605,-6.5017 20.10937,-8.1563 -1.25973,2.4585 -2.10937,5.204 -2.10937,8.1563 0,9.9411 8.05887,18.00002 18,18.00002 9.94113,0 18,-8.05892 18,-18.00002 0,-2.9523 -0.84965,-5.6978 -2.10938,-8.1563 6.93333,1.6546 13.69854,4.3098 20.10938,8.1563 -11.25,-13.5 -23.625,-20.25 -36,-20.25 z m 6.04687,10.4062 c 1.16568,0.1038 2.35418,0.1173 3.51563,0.2813 2.443,2.443 3.9375,5.8346 3.9375,9.5625 0,7.4558 -6.04418,13.50002 -13.5,13.50002 -7.45583,0 -13.5,-6.04422 -13.5,-13.50002 0,-0.4417 0.0991,-0.8348 0.14062,-1.2656 0.51089,5.7398 5.2367,10.2656 11.10938,10.2656 6.21319,0 11.25,-5.0368 11.25,-11.25 0,-2.9364 -1.10421,-5.6144 -2.95313,-7.5938 z M 64,982.98718 c 2.48526,0 4.5,2.0147 4.5,4.5 0,2.4852 -2.01474,4.5 -4.5,4.5 -2.48526,0 -4.5,-2.0148 -4.5,-4.5 0,-2.4853 2.01474,-4.5 4.5,-4.5 z"
         id="path6058" />
      <path
         id="path6060"
         d="m 64,967.23718 c -12.375,0 -24.75,6.75 -36,20.25 6.41084,-3.8465 13.17605,-6.5017 20.10937,-8.1563 -1.25973,2.4585 -2.10937,5.204 -2.10937,8.1563 0,9.9411 8.05887,18.00002 18,18.00002 9.94113,0 18,-8.05892 18,-18.00002 0,-2.9523 -0.84965,-5.6978 -2.10938,-8.1563 6.93333,1.6546 13.69854,4.3098 20.10938,8.1563 -11.25,-13.5 -23.625,-20.25 -36,-20.25 z m 6.04687,10.4062 c 1.16568,0.1038 2.35418,0.1173 3.51563,0.2813 2.443,2.443 3.9375,5.8346 3.9375,9.5625 0,7.4558 -6.04418,13.50002 -13.5,13.50002 -7.45583,0 -13.5,-6.04422 -13.5,-13.50002 0,-0.4417 0.0991,-0.8348 0.14062,-1.2656 0.51089,5.7398 5.2367,10.2656 11.10938,10.2656 6.21319,0 11.25,-5.0368 11.25,-11.25 0,-2.9364 -1.10421,-5.6144 -2.95313,-7.5938 z M 64,982.98718 c 2.48526,0 4.5,2.0147 4.5,4.5 0,2.4852 -2.01474,4.5 -4.5,4.5 -2.48526,0 -4.5,-2.0148 -4.5,-4.5 0,-2.4853 2.01474,-4.5 4.5,-4.5 z"
         style="fill:url(#radialGradient6062);fill-opacity:1;stroke:#ffffff;stroke-width:2;stroke-miterlimit:4;stroke-opacity:0.31372549;stroke-dasharray:none"
         inkscape:connector-curvature="0" />
    </g>
  </g>
</svg>
