<?xml version="1.0" encoding="UTF-8" standalone="no"?>
<!-- Created with Inkscape (http://www.inkscape.org/) -->

<svg
   xmlns:dc="http://purl.org/dc/elements/1.1/"
   xmlns:cc="http://creativecommons.org/ns#"
   xmlns:rdf="http://www.w3.org/1999/02/22-rdf-syntax-ns#"
   xmlns:svg="http://www.w3.org/2000/svg"
   xmlns="http://www.w3.org/2000/svg"
   xmlns:xlink="http://www.w3.org/1999/xlink"
   xmlns:sodipodi="http://sodipodi.sourceforge.net/DTD/sodipodi-0.dtd"
   xmlns:inkscape="http://www.inkscape.org/namespaces/inkscape"
   sodipodi:docname="zoom-in.svg"
   inkscape:version="0.48.4 r9939"
   version="1.1"
   id="svg2"
   height="128"
   width="128">
  <sodipodi:namedview
     id="base"
     pagecolor="#ffffff"
     bordercolor="#666666"
     borderopacity="1.0"
     inkscape:pageopacity="0.0"
     inkscape:pageshadow="2"
     inkscape:zoom="5.1200001"
     inkscape:cx="92.029608"
     inkscape:cy="45.202652"
     inkscape:document-units="px"
     inkscape:current-layer="layer1"
     showgrid="true"
     showguides="true"
     inkscape:guide-bbox="true"
     inkscape:window-width="1221"
     inkscape:window-height="1000"
     inkscape:window-x="59"
     inkscape:window-y="24"
     inkscape:window-maximized="1">
    <inkscape:grid
       snapvisiblegridlinesonly="true"
       enabled="true"
       visible="true"
       empspacing="4"
       id="grid2985"
       type="xygrid" />
  </sodipodi:namedview>
  <defs
     id="defs4">
    <linearGradient
       id="linearGradient7110">
      <stop
         style="stop-color:#5a5a5a;stop-opacity:1;"
         offset="0"
         id="stop7112" />
      <stop
         style="stop-color:#202020;stop-opacity:1;"
         offset="1"
         id="stop7114" />
    </linearGradient>
    <linearGradient
       id="linearGradient4216-4-8-2">
      <stop
         id="stop4218-8-0-7"
         offset="0"
         style="stop-color:#494949;stop-opacity:1;" />
      <stop
         id="stop4220-1-6-4"
         offset="1"
         style="stop-color:#0f0f0f;stop-opacity:1;" />
    </linearGradient>
    <radialGradient
       inkscape:collect="always"
       xlink:href="#linearGradient4216-4-8-2"
       id="radialGradient5899"
       gradientUnits="userSpaceOnUse"
       gradientTransform="translate(0,2)"
       cx="64"
       cy="1020.3622"
       fx="64"
       fy="1020.3622"
       r="52" />
    <radialGradient
       inkscape:collect="always"
       xlink:href="#linearGradient7110"
       id="radialGradient7116"
       cx="80"
       cy="972.36218"
       fx="80"
       fy="972.36218"
       r="52.5"
       gradientUnits="userSpaceOnUse" />
    <linearGradient
       id="linearGradient8794-33">
      <stop
         style="stop-color:#ffffff;stop-opacity:1;"
         offset="0"
         id="stop8796-9" />
      <stop
         style="stop-color:#cacaca;stop-opacity:1;"
         offset="1"
         id="stop8798-6" />
    </linearGradient>
    <radialGradient
       inkscape:collect="always"
       xlink:href="#linearGradient8794-33"
       id="radialGradient4305"
       cx="154.00002"
       cy="1046.1122"
       fx="154.00002"
       fy="1046.1122"
       r="7"
       gradientTransform="matrix(-1.6312602e-5,1.4285802,-1.4285787,-1.6312585e-5,1648.4561,826.37783)"
       gradientUnits="userSpaceOnUse" />
    <radialGradient
       inkscape:collect="always"
       xlink:href="#linearGradient8794-33"
       id="radialGradient4317"
       gradientUnits="userSpaceOnUse"
       gradientTransform="matrix(-1.6312602e-5,1.4285802,-1.4285787,-1.6312585e-5,1648.4561,826.37783)"
       cx="154.00002"
       cy="1046.1122"
       fx="154.00002"
       fy="1046.1122"
       r="7" />
    <radialGradient
       inkscape:collect="always"
       xlink:href="#linearGradient8794-33"
       id="radialGradient4355"
       gradientUnits="userSpaceOnUse"
       gradientTransform="matrix(-1.6312602e-5,1.4285802,-1.4285787,-1.6312585e-5,1648.4561,826.37783)"
       cx="154.00002"
       cy="1046.1122"
       fx="154.00002"
       fy="1046.1122"
       r="7" />
    <radialGradient
       inkscape:collect="always"
       xlink:href="#linearGradient8794-33"
       id="radialGradient5526"
       cx="80"
       cy="970.07642"
       fx="80"
       fy="970.07642"
       r="64"
       gradientTransform="matrix(1.2500001,5.3481301e-7,-5.3481281e-7,1.2499996,-19.999491,-240.23307)"
       gradientUnits="userSpaceOnUse" />
    <radialGradient
       inkscape:collect="always"
       xlink:href="#linearGradient8794-33"
       id="radialGradient6238"
       cx="154"
       cy="1042.3622"
       fx="154"
       fy="1042.3622"
       r="7.9998708"
       gradientTransform="matrix(1.2500213,1.5724107e-6,-1.5724e-6,1.2500127,-38.501638,-260.6041)"
       gradientUnits="userSpaceOnUse" />
    <radialGradient
       inkscape:collect="always"
       xlink:href="#linearGradient8794-33"
       id="radialGradient6242"
       gradientUnits="userSpaceOnUse"
       gradientTransform="matrix(5.6251865,7.0759622e-6,-7.075914e-6,5.6251478,-793.27057,-4886.0611)"
       cx="154"
       cy="1042.3622"
       fx="154"
       fy="1042.3622"
       r="7.9998708" />
    <radialGradient
       inkscape:collect="always"
       xlink:href="#linearGradient8794-33"
       id="radialGradient6260"
       gradientUnits="userSpaceOnUse"
       gradientTransform="matrix(5.6251865,7.0759622e-6,-7.075914e-6,5.6251478,-793.27057,-4886.0611)"
       cx="154"
       cy="1042.3622"
       fx="154"
       fy="1042.3622"
       r="7.9998708" />
    <radialGradient
       inkscape:collect="always"
       xlink:href="#linearGradient7110"
       id="radialGradient6312"
       cx="154"
       cy="118"
       fx="154"
       fy="118"
       r="8.0264664"
       gradientUnits="userSpaceOnUse"
       gradientTransform="matrix(1.2458771,-1.1001182e-6,1.1001193e-6,1.2458783,-37.865191,-29.013466)" />
    <radialGradient
       inkscape:collect="always"
       xlink:href="#linearGradient8794-33"
       id="radialGradient6316"
       gradientUnits="userSpaceOnUse"
       gradientTransform="matrix(5.58796,-4.9342078e-6,4.9342127e-6,5.5879654,-787.69482,317.89396)"
       cx="154"
       cy="118"
       fx="154"
       fy="118"
       r="8.0264664" />
    <filter
       inkscape:collect="always"
       id="filter6320"
       x="-0.12000007"
       width="1.2400001"
       y="-0.11999993"
       height="1.2399999">
      <feGaussianBlur
         inkscape:collect="always"
         stdDeviation="3.6000091"
         id="feGaussianBlur6322" />
    </filter>
    <radialGradient
       inkscape:collect="always"
       xlink:href="#linearGradient8794-33"
       id="radialGradient6334"
       gradientUnits="userSpaceOnUse"
       gradientTransform="matrix(5.58796,-4.9342078e-6,4.9342127e-6,5.5879654,-787.69482,317.89396)"
       cx="154"
       cy="118"
       fx="154"
       fy="118"
       r="8.0264664" />
    <radialGradient
       inkscape:collect="always"
       xlink:href="#linearGradient7110-0"
       id="radialGradient3851"
       gradientUnits="userSpaceOnUse"
       gradientTransform="matrix(-4.4524659,0,0,-4.4524659,740.77485,1518.658)"
       cx="149.52"
       cy="122.47999"
       fx="149.52"
       fy="122.47999"
       r="8" />
    <linearGradient
       id="linearGradient7110-0">
      <stop
         style="stop-color:#5a5a5a;stop-opacity:1;"
         offset="0"
         id="stop7112-0" />
      <stop
         style="stop-color:#202020;stop-opacity:1;"
         offset="1"
         id="stop7114-7" />
    </linearGradient>
    <radialGradient
       inkscape:collect="always"
       xlink:href="#linearGradient7006-8"
       id="radialGradient6053"
       gradientUnits="userSpaceOnUse"
       gradientTransform="translate(1.9814697e-6,924.36215)"
       cx="88"
       cy="36"
       fx="88"
       fy="36"
       r="51" />
    <linearGradient
       inkscape:collect="always"
       id="linearGradient7006-8">
      <stop
         style="stop-color:#ffffff;stop-opacity:1;"
         offset="0"
         id="stop7008-1" />
      <stop
         style="stop-color:#ffffff;stop-opacity:0;"
         offset="1"
         id="stop7010-1" />
    </linearGradient>
    <linearGradient
       inkscape:collect="always"
       xlink:href="#linearGradient6978-3"
       id="linearGradient6051"
       gradientUnits="userSpaceOnUse"
       gradientTransform="translate(1.9814697e-6,924.36215)"
       x1="64"
       y1="188"
       x2="64"
       y2="8" />
    <linearGradient
       inkscape:collect="always"
       id="linearGradient6978-3">
      <stop
         style="stop-color:#000000;stop-opacity:0.25"
         offset="0"
         id="stop6980-5" />
      <stop
         style="stop-color:#000000;stop-opacity:0;"
         offset="1"
         id="stop6982-7" />
    </linearGradient>
    <radialGradient
       inkscape:collect="always"
       xlink:href="#linearGradient4216-4-8-2-6"
       id="radialGradient6049"
       gradientUnits="userSpaceOnUse"
       gradientTransform="translate(1.9814697e-6,-5.1772461e-5)"
       cx="64"
       cy="1020.3622"
       fx="64"
       fy="1020.3622"
       r="52" />
    <linearGradient
       id="linearGradient4216-4-8-2-6">
      <stop
         id="stop4218-8-0-7-4"
         offset="0"
         style="stop-color:#ffffff;stop-opacity:1;" />
      <stop
         id="stop4220-1-6-4-0"
         offset="1"
         style="stop-color:#c6c6c6;stop-opacity:1;" />
    </linearGradient>
    <filter
       color-interpolation-filters="sRGB"
       inkscape:collect="always"
       id="filter6960">
      <feGaussianBlur
         inkscape:collect="always"
         stdDeviation="4.16"
         id="feGaussianBlur6962" />
    </filter>
    <radialGradient
       inkscape:collect="always"
       xlink:href="#linearGradient7110"
       id="radialGradient3857"
       gradientUnits="userSpaceOnUse"
       gradientTransform="matrix(2.0028471,-1.768528e-6,1.7685297e-6,2.002849,-145.26605,764.76855)"
       cx="154"
       cy="118"
       fx="154"
       fy="118"
       r="8.0264664" />
    <radialGradient
       inkscape:collect="always"
       xlink:href="#linearGradient7110"
       id="radialGradient3862"
       gradientUnits="userSpaceOnUse"
       gradientTransform="matrix(5.5289524,-4.8821036e-6,4.8821083e-6,5.5289576,-778.70098,322.95297)"
       cx="154"
       cy="118"
       fx="154"
       fy="118"
       r="8.0264664" />
  </defs>
  <metadata
     id="metadata7">
    <rdf:RDF>
      <cc:Work
         rdf:about="">
        <dc:format>image/svg+xml</dc:format>
        <dc:type
           rdf:resource="http://purl.org/dc/dcmitype/StillImage" />
        <dc:title />
      </cc:Work>
    </rdf:RDF>
  </metadata>
  <g
     transform="translate(0,-924.36218)"
     id="layer1"
     inkscape:groupmode="layer"
     inkscape:label="Layer 1">
    <path
       inkscape:connector-curvature="0"
       style="fill:url(#radialGradient3857);fill-opacity:1;stroke:#000000;stroke-width:1;stroke-miterlimit:4;stroke-opacity:0.18823529999999999;stroke-dasharray:none;stroke-linejoin:round"
       d="m 155.93848,991.45895 c -4.87872,0 -8.84169,3.96304 -8.84169,8.84165 0,4.8787 3.96297,8.8417 8.84169,8.8417 1.87615,0 3.59313,-0.6102 5.02368,-1.6075 a 1.6062869,1.6062869 0 0 0 0.25119,0.3014 l 8.84169,8.8417 a 1.6062869,1.6062869 0 1 0 2.26066,-2.2607 l -8.84169,-8.8417 a 1.6062869,1.6062869 0 0 0 -0.30142,-0.2511 c 0.99739,-1.4306 1.60757,-3.1475 1.60757,-5.0238 0,-4.87861 -3.96297,-8.84165 -8.84168,-8.84165 z m 0,1.6076 c 3.99167,0 7.23411,3.2425 7.23411,7.23405 0,3.9918 -3.24244,7.2342 -7.23411,7.2342 -3.99169,0 -7.23411,-3.2424 -7.23411,-7.2342 0,-3.99155 3.24242,-7.23405 7.23411,-7.23405 z m -0.8038,1.60759 0,4.82275 -4.82273,0 0,1.60751 4.82273,0 0,4.8228 1.60759,0 0,-4.8228 4.82274,0 0,-1.60751 -4.82274,0 0,-4.82275 -1.60759,0 z"
       id="path6332" />
    <text
       xml:space="preserve"
       style="font-size:24px;font-style:normal;font-weight:normal;line-height:125%;letter-spacing:0px;word-spacing:0px;fill:#000000;fill-opacity:1;stroke:none;font-family:Sans"
       x="-56"
       y="948.36218"
       id="text5893"
       sodipodi:linespacing="125%"><tspan
         sodipodi:role="line"
         id="tspan5895"
         x="-56"
         y="948.36218">128</tspan></text>
    <text
       sodipodi:linespacing="125%"
       id="text5901"
       y="1000.3622"
       x="184"
       style="font-size:16px;font-style:normal;font-weight:normal;line-height:125%;letter-spacing:0px;word-spacing:0px;fill:#000000;fill-opacity:1;stroke:none;font-family:Sans"
       xml:space="preserve"><tspan
         y="1000.3622"
         x="184"
         id="tspan5903"
         sodipodi:role="line">31 - 17</tspan></text>
    <text
       xml:space="preserve"
       style="font-size:16px;font-style:normal;font-weight:normal;line-height:125%;letter-spacing:0px;word-spacing:0px;fill:#000000;fill-opacity:1;stroke:none;font-family:Sans"
       x="172"
       y="1048.3622"
       id="text5905"
       sodipodi:linespacing="125%"><tspan
         sodipodi:role="line"
         id="tspan5907"
         x="172"
         y="1048.3622">16</tspan></text>
    <rect
       style="fill:none;stroke:#000000;stroke-width:1;stroke-linecap:round;stroke-linejoin:round;stroke-miterlimit:4;stroke-opacity:1;stroke-dasharray:none;stroke-dashoffset:0"
       id="rect5919"
       width="40"
       height="40"
       x="140"
       y="60"
       transform="translate(0,924.36218)"
       rx="4.5902016e-07" />
    <rect
       style="fill:none;stroke:#000000;stroke-width:1;stroke-linecap:round;stroke-linejoin:round;stroke-miterlimit:4;stroke-opacity:1;stroke-dasharray:none;stroke-dashoffset:0"
       id="rect5921"
       width="24"
       height="24"
       x="140"
       y="1032.3622"
       rx="4.5902016e-07" />
    <rect
       style="fill:#b3b3b3;fill-opacity:1;stroke:none"
       id="rect6935"
       width="32"
       height="4"
       x="144"
       y="56"
       transform="translate(0,924.36218)"
       rx="4.5902016e-07" />
    <rect
       style="fill:#b3b3b3;fill-opacity:1;stroke:none"
       id="rect6937"
       width="4"
       height="32"
       x="136"
       y="64"
       transform="translate(0,924.36218)"
       rx="4.5902016e-07" />
    <rect
       style="fill:#b3b3b3;fill-opacity:1;stroke:none"
       id="rect6939"
       width="16"
       height="4"
       x="144"
       y="104"
       rx="4.5902016e-07"
       transform="translate(0,924.36218)" />
    <rect
       style="fill:#b3b3b3;fill-opacity:1;stroke:none"
       id="rect6941"
       width="4"
       height="16"
       x="136"
       y="112"
       transform="translate(0,924.36218)"
       rx="4.5902016e-07" />
    <path
       style="fill:url(#radialGradient6312);fill-opacity:1.0;stroke:none"
       d="M 149.5 112 C 146.46518 112 144 114.4652 144 117.5 C 144 120.5348 146.46518 123 149.5 123 C 150.66707 123 151.73512 122.6204 152.625 122 A 0.99919567 0.99919567 0 0 0 152.78125 122.1875 L 158.28125 127.6875 A 0.99919567 0.99919567 0 1 0 159.6875 126.28125 L 154.1875 120.78125 A 0.99919567 0.99919567 0 0 0 154 120.625 C 154.62043 119.7351 155 118.6671 155 117.5 C 155 114.4652 152.53482 112 149.5 112 z M 149.5 113 C 151.98303 113 154 115.017 154 117.5 C 154 119.9831 151.98303 122 149.5 122 C 147.01696 122 145 119.9831 145 117.5 C 145 115.017 147.01696 113 149.5 113 z M 149 114 L 149 117 L 146 117 L 146 118 L 149 118 L 149 121 L 150 121 L 150 118 L 153 118 L 153 117 L 150 117 L 150 114 L 149 114 z "
       transform="translate(0,924.36218)"
       id="path5843" />
    <rect
       ry="8"
       rx="8"
       y="936.36218"
       x="12"
       height="104"
       width="104"
       id="rect6938"
       style="fill:#000000;fill-opacity:1;stroke:none;filter:url(#filter6960)" />
    <rect
       style="fill:url(#radialGradient6049);fill-opacity:1;stroke:none"
       id="rect6936-6"
       width="104"
       height="104"
       x="12"
       y="936.36218"
       rx="8"
       ry="8" />
    <rect
       ry="8"
       rx="8"
       y="932.36218"
       x="12"
       height="104"
       width="104"
       id="rect6964-2"
       style="fill:#ffffff;fill-opacity:1;stroke:none" />
    <rect
       style="opacity:0.5;fill:url(#linearGradient6051);fill-opacity:1;stroke:none"
       id="rect6975"
       width="102"
       height="102"
       x="13"
       y="933.36218"
       rx="8"
       ry="8" />
    <rect
       ry="8"
       rx="8"
       y="933.36218"
       x="13"
       height="102"
       width="102"
       id="rect7002"
       style="opacity:0.5;fill:url(#radialGradient6053);fill-opacity:1;stroke:none" />
    <path
       id="path3860"
       d="m 52.788104,948.74237 c -13.46793,0 -24.4079,10.94015 -24.4079,24.40778 0,13.46785 10.93997,24.40795 24.4079,24.40795 5.1792,0 9.919,-1.6845 13.8681,-4.4376 a 4.4342295,4.4342295 0 0 0 0.69342,0.832 l 24.4079,24.4079 a 4.4342295,4.4342295 0 1 0 6.24065,-6.2407 l -24.40789,-24.4079 a 4.4342295,4.4342295 0 0 0 -0.83209,-0.6932 c 2.75335,-3.9493 4.43778,-8.68883 4.43778,-13.86845 0,-13.46763 -10.93997,-24.40778 -24.40787,-24.40778 z m 0,4.43785 c 11.01919,0 19.97009,8.95107 19.97009,19.96993 0,11.01955 -8.9509,19.97035 -19.97009,19.97035 -11.01925,0 -19.9701,-8.9508 -19.9701,-19.97035 0,-11.01886 8.95085,-19.96993 19.9701,-19.96993 z m -2.21893,4.43783 0,13.31342 -13.31337,0 0,4.43761 13.31337,0 0,13.31352 4.43783,0 0,-13.31352 13.3134,0 0,-4.43761 -13.3134,0 0,-13.31342 -4.43783,0 z"
       style="fill:url(#radialGradient3862);fill-opacity:1;stroke:#000000;stroke-width:2.76054645;stroke-linejoin:round;stroke-miterlimit:4;stroke-opacity:0.18823529;stroke-dasharray:none"
       inkscape:connector-curvature="0" />
  </g>
</svg>
