<?xml version="1.0" encoding="UTF-8" standalone="no"?>
<!-- Created with Inkscape (http://www.inkscape.org/) -->

<svg
   xmlns:dc="http://purl.org/dc/elements/1.1/"
   xmlns:cc="http://creativecommons.org/ns#"
   xmlns:rdf="http://www.w3.org/1999/02/22-rdf-syntax-ns#"
   xmlns:svg="http://www.w3.org/2000/svg"
   xmlns="http://www.w3.org/2000/svg"
   xmlns:xlink="http://www.w3.org/1999/xlink"
   xmlns:sodipodi="http://sodipodi.sourceforge.net/DTD/sodipodi-0.dtd"
   xmlns:inkscape="http://www.inkscape.org/namespaces/inkscape"
   width="128"
   height="128"
   id="svg2"
   version="1.1"
   inkscape:version="0.48.4 r9939"
   sodipodi:docname="libreoffice-writer.svg">
  <defs
     id="defs4">
    <linearGradient
       id="linearGradient4633">
      <stop
         style="stop-color:#ffffff;stop-opacity:1;"
         offset="0"
         id="stop4635" />
      <stop
         style="stop-color:#7d7d7d;stop-opacity:1;"
         offset="1"
         id="stop4637" />
    </linearGradient>
    <linearGradient
       id="linearGradient4216-1">
      <stop
         style="stop-color:#ffffff;stop-opacity:1;"
         offset="0"
         id="stop4218-0" />
      <stop
         style="stop-color:#c6c6c6;stop-opacity:1;"
         offset="1"
         id="stop4220-9" />
    </linearGradient>
    <linearGradient
       id="linearGradient3881-3-2">
      <stop
         style="stop-color:#72adc7;stop-opacity:1;"
         offset="0"
         id="stop3883-3-12" />
      <stop
         style="stop-color:#104f6a;stop-opacity:1;"
         offset="1"
         id="stop3885-6-50" />
    </linearGradient>
    <linearGradient
       id="linearGradient6978">
      <stop
         id="stop6980"
         style="stop-color:#000000;stop-opacity:0.25"
         offset="0" />
      <stop
         id="stop6982"
         style="stop-color:#000000;stop-opacity:0"
         offset="1" />
    </linearGradient>
    <linearGradient
       id="linearGradient4216-4-8-2">
      <stop
         id="stop4218-8-0-7"
         style="stop-color:#ffffff;stop-opacity:1"
         offset="0" />
      <stop
         id="stop4220-1-6-4"
         style="stop-color:#c6c6c6;stop-opacity:1"
         offset="1" />
    </linearGradient>
    <radialGradient
       inkscape:collect="always"
       xlink:href="#linearGradient3881-3-2"
       id="radialGradient3938"
       gradientUnits="userSpaceOnUse"
       gradientTransform="matrix(10.816159,8.3195344e-7,-8.3195375e-7,10.816164,-1631.8502,132.25741)"
       cx="155"
       cy="78.977249"
       fx="155"
       fy="78.977249"
       r="3.578125" />
    <linearGradient
       id="linearGradient4875">
      <stop
         style="stop-color:#ff8418;stop-opacity:1;"
         offset="0"
         id="stop4877" />
      <stop
         style="stop-color:#c54300;stop-opacity:1;"
         offset="1"
         id="stop4879" />
    </linearGradient>
    <radialGradient
       inkscape:collect="always"
       xlink:href="#linearGradient7006-2"
       id="radialGradient5892"
       gradientUnits="userSpaceOnUse"
       gradientTransform="translate(7.8146973e-7,926.36216)"
       cx="88"
       cy="36"
       fx="88"
       fy="36"
       r="51" />
    <linearGradient
       inkscape:collect="always"
       id="linearGradient7006-2">
      <stop
         style="stop-color:#ffffff;stop-opacity:1;"
         offset="0"
         id="stop7008-0" />
      <stop
         style="stop-color:#ffffff;stop-opacity:0;"
         offset="1"
         id="stop7010-9" />
    </linearGradient>
    <linearGradient
       inkscape:collect="always"
       xlink:href="#linearGradient6978-10"
       id="linearGradient5895"
       gradientUnits="userSpaceOnUse"
       gradientTransform="translate(7.8146973e-7,926.36216)"
       x1="64"
       y1="188"
       x2="64"
       y2="8" />
    <linearGradient
       inkscape:collect="always"
       id="linearGradient6978-10">
      <stop
         style="stop-color:#000000;stop-opacity:0.25"
         offset="0"
         id="stop6980-0" />
      <stop
         style="stop-color:#000000;stop-opacity:0;"
         offset="1"
         id="stop6982-73" />
    </linearGradient>
    <radialGradient
       inkscape:collect="always"
       xlink:href="#linearGradient4216-4-8-2-7"
       id="radialGradient5899"
       gradientUnits="userSpaceOnUse"
       gradientTransform="translate(7.8146973e-7,-922.3622)"
       cx="64"
       cy="1020.3622"
       fx="64"
       fy="1020.3622"
       r="52" />
    <linearGradient
       id="linearGradient4216-4-8-2-7">
      <stop
         id="stop4218-8-0-7-97"
         offset="0"
         style="stop-color:#ffffff;stop-opacity:1;" />
      <stop
         id="stop4220-1-6-4-5"
         offset="1"
         style="stop-color:#c6c6c6;stop-opacity:1;" />
    </linearGradient>
    <filter
       color-interpolation-filters="sRGB"
       inkscape:collect="always"
       id="filter6960">
      <feGaussianBlur
         inkscape:collect="always"
         stdDeviation="4.16"
         id="feGaussianBlur6962" />
    </filter>
    <linearGradient
       id="linearGradient4875-9">
      <stop
         style="stop-color:#ff8418;stop-opacity:1;"
         offset="0"
         id="stop4877-0" />
      <stop
         style="stop-color:#c54300;stop-opacity:1;"
         offset="1"
         id="stop4879-0" />
    </linearGradient>
    <linearGradient
       id="linearGradient6978-8">
      <stop
         id="stop6980-8"
         style="stop-color:#000000;stop-opacity:0.25"
         offset="0" />
      <stop
         id="stop6982-6"
         style="stop-color:#000000;stop-opacity:0"
         offset="1" />
    </linearGradient>
    <linearGradient
       id="linearGradient4216-4-8-2-4">
      <stop
         id="stop4218-8-0-7-7"
         style="stop-color:#ffffff;stop-opacity:1"
         offset="0" />
      <stop
         id="stop4220-1-6-4-8"
         style="stop-color:#c6c6c6;stop-opacity:1"
         offset="1" />
    </linearGradient>
    <radialGradient
       inkscape:collect="always"
       xlink:href="#linearGradient4216-4-8-2-4"
       id="radialGradient3963"
       gradientUnits="userSpaceOnUse"
       gradientTransform="matrix(0.25813113,0,0,0.25813113,191.47961,817.23576)"
       cx="64"
       cy="1020.3622"
       fx="64"
       fy="1020.3622"
       r="52" />
    <linearGradient
       inkscape:collect="always"
       xlink:href="#linearGradient6978-8"
       id="linearGradient3965"
       gradientUnits="userSpaceOnUse"
       gradientTransform="matrix(0.25813113,0,0,0.25813113,191.47961,1055.8424)"
       x1="64"
       y1="188"
       x2="64"
       y2="8" />
    <radialGradient
       inkscape:collect="always"
       xlink:href="#linearGradient3881-3-2"
       id="radialGradient3967"
       gradientUnits="userSpaceOnUse"
       gradientTransform="matrix(2.7947587,2.1496624e-7,-2.1496632e-7,2.7947599,-230.18758,850.6397)"
       cx="155"
       cy="78.977249"
       fx="155"
       fy="78.977249"
       r="3.578125" />
    <linearGradient
       inkscape:collect="always"
       xlink:href="#linearGradient6978-8"
       id="linearGradient3975"
       gradientUnits="userSpaceOnUse"
       gradientTransform="matrix(0.13725491,0,0,0.13725491,191.21568,1104.127)"
       x1="64"
       y1="188"
       x2="64"
       y2="8" />
    <radialGradient
       inkscape:collect="always"
       xlink:href="#linearGradient3881-3-2"
       id="radialGradient3977"
       gradientUnits="userSpaceOnUse"
       gradientTransform="matrix(1,0,0,1.0769231,48,983.13141)"
       cx="151.5"
       cy="120"
       fx="151.5"
       fy="120"
       r="6.5" />
    <radialGradient
       inkscape:collect="always"
       xlink:href="#linearGradient4216-4-8-2-7"
       id="radialGradient3072"
       gradientUnits="userSpaceOnUse"
       gradientTransform="translate(7.8146973e-7,-922.3622)"
       cx="64"
       cy="1020.3622"
       fx="64"
       fy="1020.3622"
       r="52" />
    <radialGradient
       inkscape:collect="always"
       xlink:href="#linearGradient3881-3-2"
       id="radialGradient3079"
       gradientUnits="userSpaceOnUse"
       gradientTransform="matrix(2.7947587,2.1496624e-7,-2.1496632e-7,2.7947599,-278.18758,783.15533)"
       cx="155"
       cy="78.977249"
       fx="155"
       fy="78.977249"
       r="3.578125" />
    <linearGradient
       inkscape:collect="always"
       xlink:href="#linearGradient6978-8"
       id="linearGradient3083"
       gradientUnits="userSpaceOnUse"
       gradientTransform="matrix(0.25813113,0,0,0.25813113,143.47961,988.35803)"
       x1="64"
       y1="188"
       x2="64"
       y2="8" />
    <radialGradient
       inkscape:collect="always"
       xlink:href="#linearGradient4216-4-8-2-4"
       id="radialGradient3087"
       gradientUnits="userSpaceOnUse"
       gradientTransform="matrix(0.25813113,0,0,0.25813113,143.47961,749.75139)"
       cx="64"
       cy="1020.3622"
       fx="64"
       fy="1020.3622"
       r="52" />
  </defs>
  <sodipodi:namedview
     id="base"
     pagecolor="#ffffff"
     bordercolor="#666666"
     borderopacity="1.0"
     inkscape:pageopacity="0.0"
     inkscape:pageshadow="2"
     inkscape:zoom="2.921875"
     inkscape:cx="141.13563"
     inkscape:cy="9.228429"
     inkscape:document-units="px"
     inkscape:current-layer="layer1"
     showgrid="true"
     inkscape:window-width="1215"
     inkscape:window-height="1000"
     inkscape:window-x="65"
     inkscape:window-y="24"
     inkscape:window-maximized="1"
     showguides="true"
     inkscape:guide-bbox="true">
    <inkscape:grid
       type="xygrid"
       id="grid2985"
       empspacing="2"
       visible="true"
       enabled="true"
       snapvisiblegridlinesonly="true" />
  </sodipodi:namedview>
  <metadata
     id="metadata7">
    <rdf:RDF>
      <cc:Work
         rdf:about="">
        <dc:format>image/svg+xml</dc:format>
        <dc:type
           rdf:resource="http://purl.org/dc/dcmitype/StillImage" />
        <dc:title />
      </cc:Work>
    </rdf:RDF>
  </metadata>
  <g
     inkscape:label="Layer 1"
     inkscape:groupmode="layer"
     id="layer1"
     transform="translate(0,-924.36218)">
    <path
       inkscape:connector-curvature="0"
       style="opacity:0.25;fill:#000000;fill-opacity:1;stroke:#000000;stroke-width:3;stroke-miterlimit:4;stroke-dasharray:none"
       id="path7219-1"
       d="m 148.65625,990.40903 c -1.14404,0 -2.09375,0.9497 -2.09375,2.0938 l 0,1.0312 0,21.65627 0,1.0312 c 0,1.1441 0.94971,2.0938 2.09375,2.0938 l 22.6875,0 c 1.14404,0 2.09375,-0.9497 2.09375,-2.0938 l 0,-1.0312 0,-21.65627 0,-1.0312 c 0,-1.1441 -0.94971,-2.0938 -2.09375,-2.0938 l -22.6875,0 z" />
    <path
       inkscape:connector-curvature="0"
       style="opacity:0.25;fill:#000000;fill-opacity:1;stroke:#000000;stroke-width:2;stroke-miterlimit:4;stroke-dasharray:none"
       id="path7217-3"
       d="m 148.65625,990.40903 c -1.14404,0 -2.09375,0.9497 -2.09375,2.0938 l 0,1.0312 0,21.65627 0,1.0312 c 0,1.1441 0.94971,2.0938 2.09375,2.0938 l 22.6875,0 c 1.14404,0 2.09375,-0.9497 2.09375,-2.0938 l 0,-1.0312 0,-21.65627 0,-1.0312 c 0,-1.1441 -0.94971,-2.0938 -2.09375,-2.0938 l -22.6875,0 z" />
    <g
       id="g3969"
       transform="translate(-48,-68)">
      <path
         id="rect7120-7"
         d="m 197,1105.3622 c 6.7e-4,0.021 0,0.041 0,0.062 l 0,13.9375 8.90625,0 c 0.60831,0 1.09375,-0.4855 1.09375,-1.0938 l 0,-11.8125 c 0,-0.6083 -0.48544,-1.0937 -1.09375,-1.0937 l -8.90625,0 z"
         style="opacity:0.5;fill:url(#linearGradient3975);fill-opacity:1;stroke:none"
         inkscape:connector-curvature="0" />
      <rect
         width="16"
         height="16"
         rx="1"
         ry="1"
         x="192"
         y="1104.3622"
         id="rect7150-1"
         style="fill:#333333;fill-opacity:1;stroke:none" />
      <path
         id="rect7118-3"
         d="m 197,1105.3622 c 6.7e-4,0.021 0,0.041 0,0.062 l 0,13.9375 8.9375,0 c 0.59662,0 1.0625,-0.4659 1.0625,-1.0625 l 0,-11.875 c 0,-0.5966 -0.46588,-1.0625 -1.0625,-1.0625 l -8.9375,0 z"
         style="fill:#ffffff;fill-opacity:1;stroke:none"
         inkscape:connector-curvature="0" />
      <path
         sodipodi:nodetypes="cssscsccc"
         id="rect4166-2"
         d="m 194.09375,1105.3622 c -0.60831,0 -1.09375,0.4854 -1.09375,1.0937 l 0,11.8125 c 0,0.6083 0.48544,1.0938 1.09375,1.0938 l 2.90625,0 0,-13.9375 c 0,-0.022 6.7e-4,-0.041 0,-0.062 l -2.90625,0 z"
         style="fill:url(#radialGradient3977);fill-opacity:1;stroke:none"
         inkscape:connector-curvature="0" />
    </g>
    <path
       inkscape:connector-curvature="0"
       style="opacity:0.5;fill:#000000;fill-opacity:1;stroke:#000000"
       id="rect7185-0"
       d="m 148.65625,990.40903 c -1.14404,0 -2.09375,0.9497 -2.09375,2.0938 l 0,1.0312 0,21.65627 0,1.0312 c 0,1.1441 0.94971,2.0938 2.09375,2.0938 l 22.6875,0 c 1.14404,0 2.09375,-0.9497 2.09375,-2.0938 l 0,-1.0312 0,-21.65627 0,-1.0312 c 0,-1.1441 -0.94971,-2.0938 -2.09375,-2.0938 l -22.6875,0 z" />
    <path
       inkscape:connector-curvature="0"
       style="fill:#00354f;fill-opacity:1;stroke:none"
       d="m 146.84375,1014.8778 c -0.0993,0 -0.1858,0.018 -0.28125,0.031 l 0,1.3125 c 0,1.144 0.94971,2.0937 2.09375,2.0937 l 5.34375,0 c 1.4e-4,-0.01 0,-0.021 0,-0.031 l 0,-1.3437 c 0,-1.1441 -0.91846,-2.0625 -2.0625,-2.0625 l -5.09375,0 z"
       id="rect4161-1" />
    <path
       inkscape:connector-curvature="0"
       style="fill:url(#radialGradient3087);fill-opacity:1;stroke:none"
       d="m 154,991.44033 0,25.49997 0,0.062 0,0.2812 0,1 c 0,0.01 1.4e-4,0.021 0,0.031 l 17.34375,0 c 1.14404,0 2.09375,-0.9497 2.09375,-2.0937 l 0,-22.68747 c 0,-1.1441 -0.94971,-2.0938 -2.09375,-2.0938 l -17.34375,0 z"
       id="rect5952-8" />
    <path
       inkscape:connector-curvature="0"
       style="fill:#ffffff;fill-opacity:1;stroke:none"
       d="m 154,990.40903 0,0.2813 0,26.31247 0,0.2812 17.34375,0 c 1.14404,0 2.09375,-0.9497 2.09375,-2.0937 l 0,-22.68747 c 0,-1.1441 -0.94971,-2.0938 -2.09375,-2.0938 l -17.34375,0 z"
       id="rect5954-3" />
    <path
       inkscape:connector-curvature="0"
       style="opacity:0.5;fill:url(#linearGradient3083);fill-opacity:1;stroke:none"
       d="m 154,990.69033 0,26.31247 17.09375,0 c 1.14404,0 2.0625,-0.9185 2.0625,-2.0625 l 0,-22.18747 c 0,-1.1441 -0.91846,-2.0625 -2.0625,-2.0625 l -17.09375,0 z"
       id="rect5956-8" />
    <path
       inkscape:connector-curvature="0"
       style="fill:url(#radialGradient3079);fill-opacity:1;stroke:none"
       d="m 148.65625,990.40903 c -1.14404,0 -2.09375,0.9497 -2.09375,2.0938 l 0,22.68747 c 0,1.144 0.94971,2.0937 2.09375,2.0937 l 5.34375,0 0,-0.2812 0,-26.31247 0,-0.2813 z"
       id="rect3346-3"
       sodipodi:nodetypes="ssssccccs" />
    <text
       sodipodi:linespacing="125%"
       style="font-size:16px;font-style:normal;font-weight:normal;line-height:125%;letter-spacing:0px;word-spacing:0px;fill:#000000;fill-opacity:1;stroke:none;font-family:Sans"
       xml:space="preserve"
       id="text5901"
       y="1000.3622"
       x="184"><tspan
         id="tspan5903"
         y="1000.3622"
         x="184">31 - 17</tspan></text>
    <text
       sodipodi:linespacing="125%"
       style="font-size:16px;font-style:normal;font-weight:normal;line-height:125%;letter-spacing:0px;word-spacing:0px;fill:#000000;fill-opacity:1;stroke:none;font-family:Sans"
       xml:space="preserve"
       id="text5905"
       y="1048.3622"
       x="172"><tspan
         id="tspan5907"
         y="1048.3622"
         x="172">16</tspan></text>
    <rect
       style="fill:none;stroke:#000000;stroke-width:1;stroke-linecap:round;stroke-linejoin:round;stroke-miterlimit:4;stroke-opacity:1;stroke-dasharray:none;stroke-dashoffset:0"
       id="rect5919"
       y="984.36218"
       x="140"
       rx="4.5902016e-07"
       height="40"
       width="40" />
    <rect
       style="fill:none;stroke:#000000;stroke-width:1;stroke-linecap:round;stroke-linejoin:round;stroke-miterlimit:4;stroke-opacity:1;stroke-dasharray:none;stroke-dashoffset:0"
       id="rect5921"
       y="1032.3622"
       x="140"
       rx="4.5902016e-07"
       height="24"
       width="24" />
    <rect
       style="fill:#b3b3b3;fill-opacity:1;stroke:none"
       id="rect6935"
       y="980.36218"
       x="144"
       rx="4.5902016e-07"
       height="4"
       width="32" />
    <rect
       style="fill:#b3b3b3;fill-opacity:1;stroke:none"
       id="rect6937"
       y="988.36218"
       x="136"
       rx="4.5902016e-07"
       height="32"
       width="4" />
    <rect
       style="fill:#b3b3b3;fill-opacity:1;stroke:none"
       id="rect6939"
       y="1028.3622"
       x="144"
       rx="4.5902016e-07"
       height="4"
       width="16" />
    <rect
       style="fill:#b3b3b3;fill-opacity:1;stroke:none"
       id="rect6941"
       y="1036.3622"
       x="136"
       rx="4.5902016e-07"
       height="16"
       width="4" />
    <text
       sodipodi:linespacing="125%"
       style="font-size:24px;font-style:normal;font-weight:normal;line-height:125%;letter-spacing:0px;word-spacing:0px;fill:#000000;fill-opacity:1;stroke:none;font-family:Sans"
       xml:space="preserve"
       id="text5893"
       y="948.36218"
       x="-56"><tspan
         id="tspan5895"
         y="948.36218"
         x="-56">128</tspan></text>
    <path
       style="fill:#888a85;fill-opacity:1;stroke:none"
       d="M 156 68 L 156 70 L 172 70 L 172 68 L 156 68 z M 156 72 L 156 74 L 172 74 L 172 72 L 156 72 z M 156 76 L 156 78 L 168 78 L 168 76 L 156 76 z M 156 80 L 156 82 L 172 82 L 172 80 L 156 80 z M 156 84 L 156 86 L 170 86 L 170 84 L 156 84 z "
       transform="translate(0,924.36218)"
       id="rect4303" />
    <path
       style="fill:#888a85;fill-opacity:1;stroke:none"
       d="M 150 114 L 150 115 L 158 115 L 158 114 L 150 114 z M 150 116 L 150 117 L 158 117 L 158 116 L 150 116 z M 150 118 L 150 119 L 155 119 L 155 118 L 150 118 z M 150 120 L 150 121 L 158 121 L 158 120 L 150 120 z M 150 122 L 150 123 L 157 123 L 157 122 L 150 122 z "
       transform="translate(0,924.36218)"
       id="rect4313" />
    <rect
       ry="8"
       rx="8"
       y="938.36218"
       x="12"
       height="104"
       width="104"
       id="rect6938"
       style="fill:#000000;fill-opacity:1;stroke:none;filter:url(#filter6960)" />
    <path
       style="fill:url(#radialGradient3072);fill-opacity:1;stroke:none"
       d="M 40.9375 14 L 40.9375 112.65625 L 40.9375 112.90625 L 40.9375 114 A 0.15001501 0.15001501 0 0 1 40.9375 114.03125 A 0.15001501 0.15001501 0 0 1 40.9375 114.0625 L 40.9375 117.875 C 40.9375 117.913 40.938082 117.958 40.9375 118 L 108 118 C 112.432 118 116 114.432 116 110 L 116 22 C 116 17.568 112.432 14 108 14 L 40.9375 14 z "
       transform="translate(0,924.36218)"
       id="rect6936" />
    <path
       style="fill:#ffffff;fill-opacity:1;stroke:none"
       d="M 40.9375 10 L 40.9375 11.0625 L 40.9375 112.90625 L 40.9375 114 L 108 114 C 112.432 114 116 110.432 116 106 L 116 18 C 116 13.568 112.432 10 108 10 L 40.9375 10 z "
       transform="translate(0,924.36218)"
       id="rect6964" />
    <rect
       style="opacity:0.5;fill:url(#linearGradient5895);fill-opacity:1;stroke:none"
       id="rect6975"
       width="102"
       height="102"
       x="13"
       y="935.36218"
       rx="8"
       ry="8" />
    <path
       inkscape:connector-curvature="0"
       style="opacity:0.5;fill:url(#radialGradient5892);fill-opacity:1;stroke:none"
       d="m 40.937501,935.36217 0,0.0625 0,101.84373 0,0.094 66.062499,0 c 4.432,0 8,-3.568 8,-8 l 0,-85.99998 c 0,-4.432 -3.568,-8 -8,-8 l -66.062499,0 z"
       id="rect7002" />
    <path
       inkscape:connector-curvature="0"
       style="fill:#00354f;fill-opacity:1;stroke:none"
       d="m 13.093751,1028.8934 c -0.402521,0 -0.762097,0.076 -1.125001,0.125 l -0.125,0.031 0,0.125 0,5.0625 c 0,4.5105 3.739372,8.25 8.250001,8.25 l 20.6875,0 0.15625,0 0,-0.125 c 5.82e-4,-0.042 0,-0.087 0,-0.125 l 0,-5.2187 c 0,-4.508 -3.617106,-8.125 -8.125,-8.125 l -19.71875,0 z"
       id="rect4161-4" />
    <path
       inkscape:connector-curvature="0"
       style="fill:url(#radialGradient3938);fill-opacity:1.0;stroke:none"
       d="m 20.093751,934.20592 c -4.51063,0 -8.250001,3.73937 -8.250001,8.25 l 0,87.81248 c 0,4.5105 3.739372,8.2501 8.250001,8.25 l 20.6875,0 a 0.15001501,0.15001501 0 0 0 0.03125,0 0.15001501,0.15001501 0 0 0 0.03125,-0.031 0.15001501,0.15001501 0 0 0 0.03125,0 0.15001501,0.15001501 0 0 0 0.03125,-0.031 0.15001501,0.15001501 0 0 0 0.03125,-0.031 0.15001501,0.15001501 0 0 0 0,-0.031 0.15001501,0.15001501 0 0 0 0,-0.031 l 0,-1.0937 0,-101.84378 0,-1.0625 a 0.15001501,0.15001501 0 0 0 0,-0.0312 0.15001501,0.15001501 0 0 0 0,-0.0312 0.15001501,0.15001501 0 0 0 -0.03125,-0.0315 0.15001501,0.15001501 0 0 0 -0.03125,-0.0312 0.15001501,0.15001501 0 0 0 -0.03125,-0.0312 0.15001501,0.15001501 0 0 0 -0.03125,0 0.15001501,0.15001501 0 0 0 -0.03125,0 l -20.6875,0 z"
       id="rect3346-5" />
    <path
       style="fill:#b8d6f7;fill-opacity:1;stroke:none"
       d="M 84 16 L 84 47.96875 C 87.30116 48.730893 90.835783 49.1875 94.5625 49.1875 C 100.19278 49.1875 105.47318 48.219762 110 46.5625 L 110 16 L 84 16 z "
       transform="translate(0,924.36218)"
       id="path3079" />
    <path
       style="fill:#4e9a06;fill-opacity:1;stroke:none"
       d="M 107.28125 32.46875 C 97.944544 32.46875 89.594716 35.070825 84 39.1875 L 84 52 L 110 52 L 110 32.5625 C 109.1045 32.513233 108.1973 32.46875 107.28125 32.46875 z "
       transform="translate(0,924.36218)"
       id="path3077" />
    <path
       style="fill:#73d216;fill-opacity:1;stroke:none"
       d="M 86.9375 32.34375 C 85.93783 32.34375 84.975017 32.378943 84 32.4375 L 84 52 L 110 52 L 110 38.90625 C 104.40769 34.888698 96.143791 32.34375 86.9375 32.34375 z "
       transform="translate(0,924.36218)"
       id="path3072" />
    <path
       style="fill:#888a85;fill-opacity:1;stroke:none"
       d="M 48 16 L 48 20 L 76 20 L 76 16 L 48 16 z M 84 16 L 84 52 L 110 52 L 110 16 L 84 16 z M 86 18 L 108 18 L 108 50 L 86 50 L 86 18 z M 48 24 L 48 28 L 76 28 L 76 24 L 48 24 z M 48 32 L 48 36 L 76 36 L 76 32 L 48 32 z M 48 40 L 48 44 L 60 44 L 60 40 L 48 40 z M 48 60 L 48 64 L 108 64 L 108 60 L 48 60 z M 48 68 L 48 72 L 108 72 L 108 68 L 48 68 z M 48 76 L 48 80 L 92 80 L 92 76 L 48 76 z M 48 84 L 48 88 L 108 88 L 108 84 L 48 84 z M 48 92 L 48 96 L 108 96 L 108 92 L 48 92 z M 48 100 L 48 104 L 60 104 L 60 100 L 48 100 z "
       transform="translate(0,924.36218)"
       id="rect3979" />
    <path
       style="fill:#555753;fill-opacity:1;stroke:none"
       d="M 98 100 L 98 102 L 100 102 L 100 110 L 98 110 L 98 112 L 104 112 L 104 110 L 102 110 L 102 102 L 104 102 L 104 100 L 102 100 L 100 100 L 98 100 z "
       transform="translate(0,924.36218)"
       id="rect4008" />
    <path
       sodipodi:type="arc"
       style="fill:#edd400;fill-opacity:1;stroke:none"
       id="path3860"
       sodipodi:cx="102.5"
       sodipodi:cy="23.5"
       sodipodi:rx="2.5"
       sodipodi:ry="2.5"
       d="m 105,23.5 a 2.5,2.5 0 1 1 -5,0 2.5,2.5 0 1 1 5,0 z"
       transform="translate(0,924.36218)" />
  </g>
</svg>
