<?xml version="1.0" encoding="UTF-8" standalone="no"?>
<!-- Created with Inkscape (http://www.inkscape.org/) -->

<svg
   xmlns:dc="http://purl.org/dc/elements/1.1/"
   xmlns:cc="http://creativecommons.org/ns#"
   xmlns:rdf="http://www.w3.org/1999/02/22-rdf-syntax-ns#"
   xmlns:svg="http://www.w3.org/2000/svg"
   xmlns="http://www.w3.org/2000/svg"
   xmlns:xlink="http://www.w3.org/1999/xlink"
   xmlns:sodipodi="http://sodipodi.sourceforge.net/DTD/sodipodi-0.dtd"
   xmlns:inkscape="http://www.inkscape.org/namespaces/inkscape"
   width="128"
   height="128"
   id="svg2"
   version="1.1"
   inkscape:version="0.48.4 r9939"
   sodipodi:docname="libreoffice-writer.svg">
  <defs
     id="defs4">
    <linearGradient
       id="linearGradient4633">
      <stop
         style="stop-color:#ffffff;stop-opacity:1;"
         offset="0"
         id="stop4635" />
      <stop
         style="stop-color:#7d7d7d;stop-opacity:1;"
         offset="1"
         id="stop4637" />
    </linearGradient>
    <linearGradient
       id="linearGradient4216-1">
      <stop
         style="stop-color:#ffffff;stop-opacity:1;"
         offset="0"
         id="stop4218-0" />
      <stop
         style="stop-color:#c6c6c6;stop-opacity:1;"
         offset="1"
         id="stop4220-9" />
    </linearGradient>
    <linearGradient
       id="linearGradient3881-3-2">
      <stop
         style="stop-color:#72adc7;stop-opacity:1;"
         offset="0"
         id="stop3883-3-12" />
      <stop
         style="stop-color:#104f6a;stop-opacity:1;"
         offset="1"
         id="stop3885-6-50" />
    </linearGradient>
    <filter
       inkscape:collect="always"
       id="filter4495">
      <feGaussianBlur
         inkscape:collect="always"
         stdDeviation="2.0800002"
         id="feGaussianBlur4497" />
    </filter>
    <filter
       inkscape:collect="always"
       id="filter4577"
       x="-0.18"
       width="1.36"
       y="-0.18"
       height="1.36">
      <feGaussianBlur
         inkscape:collect="always"
         stdDeviation="1.5"
         id="feGaussianBlur4579" />
    </filter>
    <radialGradient
       inkscape:collect="always"
       xlink:href="#linearGradient4216-1"
       id="radialGradient4631"
       cx="77.611282"
       cy="39.420414"
       fx="77.611282"
       fy="39.420414"
       r="48"
       gradientTransform="matrix(7.3333334,1.1091983e-7,-1.2861914e-7,6.6666669,-489.14941,-230.80277)"
       gradientUnits="userSpaceOnUse" />
    <linearGradient
       inkscape:collect="always"
       xlink:href="#linearGradient4633"
       id="linearGradient4639"
       x1="99"
       y1="945.36218"
       x2="105"
       y2="939.36218"
       gradientUnits="userSpaceOnUse" />
    <radialGradient
       inkscape:collect="always"
       xlink:href="#linearGradient3881-3-2"
       id="radialGradient4083"
       gradientUnits="userSpaceOnUse"
       gradientTransform="matrix(1,0,0,1.2513966,0,-16.089385)"
       cx="60.75"
       cy="64"
       fx="60.75"
       fy="64"
       r="44.75" />
    <radialGradient
       inkscape:collect="always"
       xlink:href="#linearGradient3881-3-2"
       id="radialGradient4180"
       cx="151.5"
       cy="120"
       fx="151.5"
       fy="120"
       r="6.5"
       gradientTransform="matrix(1,0,0,1.0769231,0,915.13141)"
       gradientUnits="userSpaceOnUse" />
    <radialGradient
       inkscape:collect="always"
       xlink:href="#linearGradient3881-3-2"
       id="radialGradient4138"
       gradientUnits="userSpaceOnUse"
       gradientTransform="matrix(2.7947587,2.1496624e-7,-2.1496632e-7,2.7947599,-278.18758,782.6397)"
       cx="155"
       cy="78.977249"
       fx="155"
       fy="78.977249"
       r="3.578125" />
    <linearGradient
       inkscape:collect="always"
       xlink:href="#linearGradient6978"
       id="linearGradient5924"
       gradientUnits="userSpaceOnUse"
       gradientTransform="matrix(0.25813113,0,0,0.25813113,143.47961,987.8424)"
       x1="64"
       y1="188"
       x2="64"
       y2="8" />
    <linearGradient
       id="linearGradient6978">
      <stop
         id="stop6980"
         style="stop-color:#000000;stop-opacity:0.25"
         offset="0" />
      <stop
         id="stop6982"
         style="stop-color:#000000;stop-opacity:0"
         offset="1" />
    </linearGradient>
    <radialGradient
       inkscape:collect="always"
       xlink:href="#linearGradient4216-4-8-2"
       id="radialGradient5928"
       gradientUnits="userSpaceOnUse"
       gradientTransform="matrix(0.25813113,0,0,0.25813113,143.47961,749.23576)"
       cx="64"
       cy="1020.3622"
       fx="64"
       fy="1020.3622"
       r="52" />
    <linearGradient
       id="linearGradient4216-4-8-2">
      <stop
         id="stop4218-8-0-7"
         style="stop-color:#ffffff;stop-opacity:1"
         offset="0" />
      <stop
         id="stop4220-1-6-4"
         style="stop-color:#c6c6c6;stop-opacity:1"
         offset="1" />
    </linearGradient>
    <linearGradient
       inkscape:collect="always"
       xlink:href="#linearGradient6978"
       id="linearGradient5931"
       gradientUnits="userSpaceOnUse"
       gradientTransform="matrix(0.13725491,0,0,0.13725491,143.21568,1036.127)"
       x1="64"
       y1="188"
       x2="64"
       y2="8" />
  </defs>
  <sodipodi:namedview
     id="base"
     pagecolor="#ffffff"
     bordercolor="#666666"
     borderopacity="1.0"
     inkscape:pageopacity="0.0"
     inkscape:pageshadow="2"
     inkscape:zoom="1.4609375"
     inkscape:cx="41.786739"
     inkscape:cy="50.473673"
     inkscape:document-units="px"
     inkscape:current-layer="layer1"
     showgrid="true"
     inkscape:window-width="1215"
     inkscape:window-height="1000"
     inkscape:window-x="65"
     inkscape:window-y="24"
     inkscape:window-maximized="1"
     showguides="true"
     inkscape:guide-bbox="true">
    <inkscape:grid
       type="xygrid"
       id="grid2985"
       empspacing="2"
       visible="true"
       enabled="true"
       snapvisiblegridlinesonly="true" />
  </sodipodi:namedview>
  <metadata
     id="metadata7">
    <rdf:RDF>
      <cc:Work
         rdf:about="">
        <dc:format>image/svg+xml</dc:format>
        <dc:type
           rdf:resource="http://purl.org/dc/dcmitype/StillImage" />
        <dc:title />
      </cc:Work>
    </rdf:RDF>
  </metadata>
  <g
     inkscape:label="Layer 1"
     inkscape:groupmode="layer"
     id="layer1"
     transform="translate(0,-924.36218)">
    <path
       id="path4473"
       d="m 20,934.36218 c -2.216,0 -4,1.784 -4,4 l 0,104.00002 c 0,2.216 1.784,4 4,4 l 88,0 c 2.216,0 4,-1.784 4,-4 l 0,-88.00002 -20,-20 -72,0 z"
       style="fill:#000000;fill-opacity:1;stroke:none;filter:url(#filter4495)"
       inkscape:connector-curvature="0" />
    <path
       style="fill:url(#radialGradient4631);fill-opacity:1;stroke:none"
       d="M 20 8 C 17.784 8 16 9.7840015 16 12 L 16 116 C 16 118.216 17.784 120 20 120 L 108 120 C 110.216 120 112 118.216 112 116 L 112 28 L 92 8 L 20 8 z "
       id="rect4276"
       transform="translate(0,924.36218)" />
    <path
       style="fill:url(#radialGradient4083);fill-opacity:1;stroke:none"
       d="m 20,8 c -2.216,0 -4,1.7840015 -4,4 l 0,104 c 0,2.216 1.784,4 4,4 l 20,0 0,-112 z"
       transform="translate(0,924.36218)"
       id="rect4744"
       inkscape:connector-curvature="0"
       sodipodi:nodetypes="ssssccs" />
    <path
       inkscape:connector-curvature="0"
       id="path4499"
       d="m 112,952.36218 -20,-20 0,16 c 0,2.216 1.784,4 4,4 l 16,0 z"
       style="fill:#000000;fill-opacity:1;stroke:none;filter:url(#filter4577)" />
    <path
       style="fill:url(#linearGradient4639);fill-opacity:1.0;stroke:none"
       d="m 112,952.36218 -20,-20 0,16 c 0,2.216 1.784,4 4,4 l 16,0 z"
       id="rect4326"
       inkscape:connector-curvature="0" />
    <path
       style="font-size:8px;font-style:normal;font-weight:normal;line-height:125%;letter-spacing:0px;word-spacing:0px;fill:#666666;fill-opacity:1;stroke:none;font-family:Sans"
       d="M 74.78125 31.1875 L 74.78125 33.125 L 76.8125 33.125 L 76.8125 31.1875 L 74.78125 31.1875 z M 44.09375 32.03125 L 48.8125 48 L 51.375 48 L 54.1875 37.875 C 54.270574 37.58799 54.34685 37.22897 54.4375 36.84375 C 54.528127 36.45856 54.6044 36.08131 54.6875 35.71875 C 54.778127 35.30334 54.87055 34.8756 54.96875 34.4375 C 55.059377 34.86804 55.15935 35.30334 55.25 35.71875 C 55.32552 36.07376 55.40935 36.45099 55.5 36.84375 C 55.598179 37.23652 55.69815 37.58799 55.78125 37.875 L 58.53125 48 L 61.125 48 L 65.8125 32.03125 L 63.5625 32.03125 L 60.75 42.1875 C 60.636686 42.58026 60.519531 43.00801 60.40625 43.46875 C 60.30049 43.92194 60.21562 44.326 60.125 44.71875 C 60.034346 45.11152 59.93541 45.45439 59.875 45.71875 C 59.814563 45.97555 59.78875 46.09375 59.78125 46.09375 C 59.667937 45.56503 59.558334 45.03731 59.4375 44.53125 C 59.384612 44.31977 59.33411 44.10915 59.28125 43.875 C 59.228363 43.64086 59.15416 43.40654 59.09375 43.1875 C 59.040863 42.96091 58.99791 42.76643 58.9375 42.5625 C 58.884614 42.35101 58.82655 42.14248 58.78125 41.96875 L 56 32.03125 L 53.9375 32.03125 L 51.15625 41.96875 C 51.110925 42.14248 51.06042 42.35101 51 42.5625 C 50.947121 42.76643 50.90417 42.96091 50.84375 43.1875 C 50.790871 43.4141 50.74036 43.64086 50.6875 43.875 C 50.634622 44.10915 50.55287 44.35102 50.5 44.5625 C 50.379144 45.06856 50.269541 45.57258 50.15625 46.09375 C 50.07316 45.70099 50.00444 45.28183 49.90625 44.84375 C 49.82316 44.47365 49.714595 44.06204 49.59375 43.59375 C 49.480448 43.12546 49.347147 42.66335 49.21875 42.1875 L 46.34375 32.03125 L 44.09375 32.03125 z M 80.84375 33 L 80.25 35.75 L 78.75 35.75 L 78.75 37.21875 L 80.15625 37.21875 L 80.15625 45.40625 C 80.156248 47.25676 80.993523 48.1875 82.625 48.1875 C 83.047971 48.1875 83.401514 48.14665 83.71875 48.09375 C 84.043529 48.04843 84.377816 47.98935 84.6875 47.90625 L 84.6875 46.40625 C 84.468453 46.45154 84.251322 46.50105 84.0625 46.53125 C 83.881219 46.56145 83.696375 46.5625 83.5 46.5625 C 83.024148 46.5625 82.696377 46.4529 82.5 46.21875 C 82.311168 45.97705 82.218746 45.55789 82.21875 44.96875 L 82.21875 37.21875 L 84.46875 37.21875 L 84.46875 35.75 L 82.21875 35.75 L 82.21875 33 L 80.84375 33 z M 72 35.5 C 71.569466 35.50001 71.20837 35.57421 70.90625 35.6875 C 70.60412 35.79325 70.344036 35.96092 70.125 36.1875 C 69.905955 36.40656 69.697414 36.68382 69.53125 37.03125 C 69.37263 37.37115 69.237256 37.78171 69.09375 38.25 L 69.03125 38.25 C 69.03125 38.09894 69.03875 37.899 69.03125 37.6875 C 69.03125 37.46847 69.0151 37.26541 69 37.03125 C 68.99244 36.79711 68.98385 36.5628 68.96875 36.34375 C 68.96119 36.11717 68.9451 35.92373 68.9375 35.75 L 67.03125 35.75 C 67.0388 35.92373 67.02365 36.12472 67.03125 36.34375 C 67.0388 36.5628 67.0549 36.78201 67.0625 37.03125 C 67.07003 37.28051 67.093749 37.5406 67.09375 37.8125 C 67.10128 38.07687 67.093749 38.33695 67.09375 38.59375 L 67.09375 48 L 69.125 48 L 69.125 41.625 C 69.124996 41.01321 69.18306 40.45112 69.28125 39.9375 C 69.379437 39.41634 69.514812 38.96386 69.71875 38.59375 C 69.930233 38.2161 70.206461 37.899 70.53125 37.6875 C 70.863582 37.47602 71.281701 37.37501 71.75 37.375 C 71.976587 37.375 72.162468 37.38365 72.34375 37.40625 C 72.525018 37.42135 72.676537 37.4622 72.8125 37.5 L 72.8125 35.625 C 72.729409 35.6023 72.619806 35.5852 72.46875 35.5625 C 72.317681 35.5323 72.166162 35.50001 72 35.5 z M 91.3125 35.5 C 90.557182 35.50001 89.820919 35.61717 89.15625 35.84375 C 88.491571 36.06281 87.936002 36.43901 87.4375 36.9375 C 86.938991 37.43602 86.537016 38.07438 86.25 38.875 C 85.96298 39.66808 85.812499 40.63318 85.8125 41.78125 C 85.812499 43.91123 86.274608 45.51366 87.21875 46.59375 C 88.17044 47.67385 89.562246 48.21875 91.375 48.21875 C 92.190729 48.21875 92.894705 48.14248 93.46875 47.96875 C 94.050331 47.78748 94.521031 47.55317 94.90625 47.28125 C 95.291448 47.00179 95.617146 46.68364 95.84375 46.34375 C 96.077885 45.99631 96.246585 45.65239 96.375 45.3125 L 94.59375 44.8125 C 94.404912 45.35633 94.036263 45.80126 93.5 46.15625 C 92.971274 46.51125 92.258708 46.6875 91.375 46.6875 C 90.770744 46.6875 90.274273 46.58649 89.84375 46.375 C 89.413218 46.15596 89.029461 45.85396 88.75 45.46875 C 88.478084 45.07599 88.292203 44.63003 88.15625 44.09375 C 88.027846 43.54993 87.968746 42.95452 87.96875 42.3125 L 96.71875 42.3125 L 96.71875 42.03125 C 96.718738 41.10978 96.618763 40.26184 96.4375 39.46875 C 96.263767 38.67568 95.954214 37.98785 95.53125 37.40625 C 95.115818 36.81712 94.569877 36.33235 93.875 36 C 93.187657 35.66767 92.339717 35.50001 91.3125 35.5 z M 104.25 35.5 C 103.81947 35.50001 103.45837 35.57421 103.15625 35.6875 C 102.85412 35.79325 102.59404 35.96092 102.375 36.1875 C 102.15596 36.40656 101.97866 36.68382 101.8125 37.03125 C 101.65388 37.37115 101.48726 37.78171 101.34375 38.25 L 101.3125 38.25 C 101.3125 38.09894 101.28925 37.899 101.28125 37.6875 C 101.28125 37.46847 101.29635 37.26541 101.28125 37.03125 C 101.27365 36.79711 101.2651 36.5628 101.25 36.34375 C 101.2425 36.11717 101.22675 35.92373 101.21875 35.75 L 99.28125 35.75 C 99.2888 35.92373 99.3049 36.12472 99.3125 36.34375 C 99.32005 36.5628 99.33615 36.78201 99.34375 37.03125 C 99.35128 37.28051 99.343748 37.5406 99.34375 37.8125 C 99.35128 38.07687 99.343749 38.33695 99.34375 38.59375 L 99.34375 48 L 101.40625 48 L 101.40625 41.625 C 101.40625 41.01321 101.43305 40.45112 101.53125 39.9375 C 101.62943 39.41634 101.79607 38.96386 102 38.59375 C 102.21149 38.2161 102.48771 37.899 102.8125 37.6875 C 103.14483 37.47602 103.5317 37.37501 104 37.375 C 104.22658 37.375 104.44372 37.38365 104.625 37.40625 C 104.80627 37.42135 104.95778 37.4622 105.09375 37.5 L 105.09375 35.625 C 105.01066 35.6023 104.90105 35.5852 104.75 35.5625 C 104.59893 35.5323 104.41616 35.50001 104.25 35.5 z M 74.78125 35.75 L 74.78125 48 L 76.8125 48 L 76.8125 35.75 L 74.78125 35.75 z M 91.28125 37.03125 C 92.300914 37.03126 93.081167 37.30956 93.625 37.90625 C 94.168816 38.4954 94.480443 39.45842 94.59375 40.75 L 87.96875 40.75 C 87.998959 40.0098 88.124707 39.3821 88.34375 38.90625 C 88.562787 38.42286 88.839015 38.06072 89.15625 37.78125 C 89.473476 37.50179 89.817392 37.29325 90.1875 37.1875 C 90.56515 37.07425 90.941353 37.03126 91.28125 37.03125 z M 44.75 57.9375 L 44.75 58.84375 L 45.46875 58.84375 L 45.46875 57.9375 L 44.75 57.9375 z M 53.6875 57.9375 L 53.6875 58.84375 L 54.40625 58.84375 L 54.40625 57.9375 L 53.6875 57.9375 z M 82.46875 57.9375 L 82.46875 58.84375 L 83.1875 58.84375 L 83.1875 57.9375 L 82.46875 57.9375 z M 97.5625 57.9375 L 97.5625 64 L 98.28125 64 L 98.28125 57.9375 L 97.5625 57.9375 z M 65.15625 58.375 L 65.15625 59.625 L 64.625 59.625 L 64.625 60.1875 L 65.15625 60.1875 L 65.15625 62.5625 C 65.15625 63.10937 65.257811 63.47917 65.46875 63.6875 C 65.679686 63.89323 66.070311 64 66.625 64 L 67.34375 64 L 67.34375 63.40625 L 66.625 63.40625 C 66.325519 63.40625 66.09896 63.35156 66 63.25 C 65.903649 63.14843 65.874998 62.91927 65.875 62.5625 L 65.875 60.1875 L 67.34375 60.1875 L 67.34375 59.625 L 65.875 59.625 L 65.875 58.375 L 65.15625 58.375 z M 48.375 59.53125 C 47.83854 59.53126 47.416665 59.6198 47.125 59.84375 C 46.833332 60.06771 46.687499 60.40104 46.6875 60.8125 C 46.687499 61.15104 46.770833 61.42969 46.96875 61.625 C 47.166665 61.81771 47.492187 61.93755 47.9375 62.03125 L 48.1875 62.09375 C 48.632811 62.1901 48.932289 62.30209 49.0625 62.40625 C 49.195308 62.51042 49.249997 62.64844 49.25 62.84375 C 49.249997 63.05469 49.182289 63.22656 49 63.34375 C 48.817706 63.45832 48.526039 63.5 48.1875 63.5 C 47.934894 63.5 47.695311 63.47395 47.4375 63.40625 C 47.179687 63.33594 46.921874 63.23177 46.65625 63.09375 L 46.65625 63.84375 C 46.937499 63.93489 47.184895 63.98695 47.4375 64.03125 C 47.692707 64.07815 47.953123 64.125 48.1875 64.125 C 48.749997 64.125 49.179684 63.98697 49.5 63.75 C 49.822913 63.51302 49.999996 63.1875 50 62.78125 C 49.999996 62.42448 49.903642 62.16667 49.6875 61.96875 C 49.473955 61.76823 49.104164 61.60937 48.59375 61.5 L 48.34375 61.4375 C 47.958331 61.35156 47.690103 61.2812 47.5625 61.1875 C 47.434894 61.09115 47.374999 60.94792 47.375 60.78125 C 47.374999 60.5625 47.479166 60.39063 47.65625 60.28125 C 47.835936 60.17189 48.080727 60.125 48.4375 60.125 C 48.671872 60.125 48.906248 60.1354 49.125 60.1875 C 49.343747 60.23959 49.546871 60.33333 49.75 60.4375 L 49.75 59.75 C 49.55208 59.67192 49.359372 59.63285 49.125 59.59375 C 48.890623 59.55465 48.640623 59.53126 48.375 59.53125 z M 62.375 59.53125 C 61.83854 59.53126 61.416665 59.6198 61.125 59.84375 C 60.833332 60.06771 60.687499 60.40104 60.6875 60.8125 C 60.687499 61.15104 60.802083 61.42969 61 61.625 C 61.197915 61.81771 61.523437 61.93755 61.96875 62.03125 L 62.21875 62.09375 C 62.664061 62.1901 62.932289 62.30209 63.0625 62.40625 C 63.195308 62.51042 63.281247 62.64844 63.28125 62.84375 C 63.281247 63.05469 63.182289 63.22656 63 63.34375 C 62.817706 63.45832 62.557289 63.5 62.21875 63.5 C 61.966144 63.5 61.695311 63.47395 61.4375 63.40625 C 61.179687 63.33594 60.921874 63.23177 60.65625 63.09375 L 60.65625 63.84375 C 60.937499 63.93489 61.216145 63.98695 61.46875 64.03125 C 61.723957 64.07815 61.953123 64.125 62.1875 64.125 C 62.749997 64.125 63.210934 63.98697 63.53125 63.75 C 63.854163 63.51302 63.999996 63.1875 64 62.78125 C 63.999996 62.42448 63.903642 62.16667 63.6875 61.96875 C 63.473955 61.76823 63.104164 61.60937 62.59375 61.5 L 62.34375 61.4375 C 61.958331 61.35156 61.721353 61.2812 61.59375 61.1875 C 61.466144 61.09115 61.406249 60.94792 61.40625 60.78125 C 61.406249 60.5625 61.479166 60.39063 61.65625 60.28125 C 61.835936 60.17189 62.111977 60.125 62.46875 60.125 C 62.703122 60.125 62.937498 60.1354 63.15625 60.1875 C 63.374997 60.23959 63.578121 60.33333 63.78125 60.4375 L 63.78125 59.75 C 63.58333 59.67192 63.359372 59.63285 63.125 59.59375 C 62.890623 59.55465 62.640623 59.53126 62.375 59.53125 z M 72.375 59.53125 C 72.140623 59.53125 71.903644 59.54165 71.65625 59.59375 C 71.408853 59.64323 71.16927 59.71094 70.90625 59.8125 L 70.90625 60.5 C 71.124999 60.38022 71.32552 60.27865 71.5625 60.21875 C 71.799477 60.15885 72.062498 60.125 72.3125 60.125 C 72.705726 60.125 73.002602 60.22396 73.21875 60.40625 C 73.437497 60.58594 73.562497 60.82553 73.5625 61.15625 L 73.5625 61.25 L 72.53125 61.25 C 71.877602 61.25001 71.393228 61.37501 71.0625 61.625 C 70.734375 61.87501 70.562499 62.22656 70.5625 62.71875 C 70.562499 63.14062 70.705729 63.4974 70.96875 63.75 C 71.234374 64 71.583332 64.125 72.03125 64.125 C 72.385415 64.125 72.692706 64.0625 72.9375 63.9375 C 73.182289 63.8099 73.398434 63.60938 73.5625 63.34375 L 73.5625 64 L 74.28125 64 L 74.28125 61.5 C 74.281246 60.83334 74.124996 60.32813 73.8125 60 C 73.499997 59.67188 73.00781 59.53126 72.375 59.53125 z M 79.6875 59.53125 C 79.15104 59.53126 78.729165 59.6198 78.4375 59.84375 C 78.145832 60.06771 77.999999 60.40104 78 60.8125 C 77.999999 61.15104 78.114583 61.42969 78.3125 61.625 C 78.510415 61.81771 78.835937 61.93755 79.28125 62.03125 L 79.53125 62.09375 C 79.976561 62.1901 80.244789 62.30209 80.375 62.40625 C 80.507808 62.51042 80.593747 62.64844 80.59375 62.84375 C 80.593747 63.05469 80.494789 63.22656 80.3125 63.34375 C 80.130206 63.45832 79.869789 63.5 79.53125 63.5 C 79.278644 63.5 79.007811 63.47395 78.75 63.40625 C 78.492187 63.33594 78.234374 63.23177 77.96875 63.09375 L 77.96875 63.84375 C 78.249999 63.93489 78.528645 63.98695 78.78125 64.03125 C 79.036457 64.07815 79.265623 64.125 79.5 64.125 C 80.062497 64.125 80.523434 63.98697 80.84375 63.75 C 81.166663 63.51302 81.312496 63.1875 81.3125 62.78125 C 81.312496 62.42448 81.216142 62.16667 81 61.96875 C 80.786455 61.76823 80.416664 61.60937 79.90625 61.5 L 79.65625 61.4375 C 79.270831 61.35156 79.033853 61.2812 78.90625 61.1875 C 78.778644 61.09115 78.718749 60.94792 78.71875 60.78125 C 78.718749 60.5625 78.791666 60.39063 78.96875 60.28125 C 79.148436 60.17189 79.424477 60.125 79.78125 60.125 C 80.015622 60.125 80.249998 60.1354 80.46875 60.1875 C 80.687497 60.23959 80.890621 60.33333 81.09375 60.4375 L 81.09375 59.75 C 80.89583 59.67192 80.671872 59.63285 80.4375 59.59375 C 80.203123 59.55465 79.953123 59.53126 79.6875 59.53125 z M 86.78125 59.53125 C 86.466143 59.53126 86.197915 59.59115 85.96875 59.71875 C 85.739582 59.84636 85.539061 60.04427 85.375 60.3125 L 85.375 59.625 L 84.65625 59.625 L 84.65625 64 L 85.375 64 L 85.375 61.53125 C 85.374998 61.10677 85.502603 60.77865 85.71875 60.53125 C 85.934894 60.28126 86.226561 60.15626 86.59375 60.15625 C 86.903643 60.15626 87.13281 60.23438 87.28125 60.4375 C 87.429687 60.63803 87.499996 60.95312 87.5 61.375 L 87.5 64 L 88.21875 64 L 88.21875 61.53125 C 88.218746 61.10417 88.3151 60.77865 88.53125 60.53125 C 88.747391 60.28386 89.065099 60.15626 89.4375 60.15625 C 89.742182 60.15626 89.945306 60.23438 90.09375 60.4375 C 90.242186 60.64063 90.312494 60.95573 90.3125 61.375 L 90.3125 64 L 91.0625 64 L 91.0625 61.375 C 91.062493 60.78646 90.934889 60.31771 90.6875 60 C 90.440098 59.67969 90.080723 59.53126 89.625 59.53125 C 89.286453 59.53126 88.999995 59.59636 88.75 59.75 C 88.499996 59.90365 88.273433 60.14583 88.09375 60.46875 C 87.986975 60.16146 87.817705 59.91146 87.59375 59.75 C 87.372393 59.58851 87.098955 59.53126 86.78125 59.53125 z M 94.59375 59.53125 C 94.273435 59.53126 93.981769 59.59115 93.75 59.71875 C 93.520832 59.84375 93.33854 60.02083 93.1875 60.28125 L 93.1875 59.625 L 92.46875 59.625 L 92.46875 65.65625 L 93.1875 65.65625 L 93.1875 63.34375 C 93.33854 63.60417 93.520832 63.8099 93.75 63.9375 C 93.981769 64.0625 94.273435 64.125 94.59375 64.125 C 95.124997 64.125 95.544267 63.89063 95.875 63.46875 C 96.208329 63.04688 96.374995 62.5 96.375 61.8125 C 96.374995 61.125 96.208329 60.57812 95.875 60.15625 C 95.544267 59.73438 95.124997 59.53126 94.59375 59.53125 z M 101.625 59.53125 C 100.96875 59.53126 100.45052 59.73438 100.0625 60.15625 C 99.677084 60.57552 99.46875 61.12761 99.46875 61.84375 C 99.46875 62.53646 99.687501 63.09375 100.09375 63.5 C 100.5026 63.90625 101.05208 64.125 101.75 64.125 C 102.02864 64.125 102.29166 64.08855 102.5625 64.03125 C 102.83333 63.97395 103.11718 63.89062 103.375 63.78125 L 103.375 63.09375 C 103.11978 63.22917 102.85416 63.33855 102.59375 63.40625 C 102.33593 63.47391 102.05728 63.5 101.78125 63.5 C 101.30468 63.5 100.92448 63.38281 100.65625 63.125 C 100.39062 62.86458 100.24995 62.49479 100.21875 62 L 103.53125 62 L 103.53125 61.625 C 103.53125 60.97396 103.34374 60.47135 103 60.09375 C 102.65885 59.71354 102.21354 59.53126 101.625 59.53125 z M 44.75 59.625 L 44.75 64 L 45.46875 64 L 45.46875 59.625 L 44.75 59.625 z M 53.6875 59.625 L 53.6875 64.09375 C 53.687499 64.49218 53.63021 64.75 53.53125 64.875 C 53.432291 65.00261 53.273437 65.0625 53 65.0625 L 52.78125 65.0625 L 52.78125 65.65625 L 53.0625 65.65625 C 53.533854 65.65624 53.882811 65.53124 54.09375 65.28125 C 54.30729 65.03124 54.406249 64.65104 54.40625 64.09375 L 54.40625 59.625 L 53.6875 59.625 z M 55.84375 59.625 L 55.84375 62.28125 C 55.84375 62.88281 55.958333 63.34375 56.21875 63.65625 C 56.479166 63.96875 56.872394 64.125 57.375 64.125 C 57.679685 64.125 57.958331 64.0651 58.1875 63.9375 C 58.419268 63.80729 58.606767 63.60937 58.78125 63.34375 L 58.78125 64 L 59.5 64 L 59.5 59.625 L 58.78125 59.625 L 58.78125 62.09375 C 58.781246 62.52084 58.664059 62.87761 58.4375 63.125 C 58.213539 63.3724 57.919269 63.5 57.53125 63.5 C 57.208332 63.5 56.973957 63.39323 56.8125 63.1875 C 56.651042 62.97917 56.562499 62.66406 56.5625 62.25 L 56.5625 59.625 L 55.84375 59.625 z M 82.46875 59.625 L 82.46875 64 L 83.1875 64 L 83.1875 59.625 L 82.46875 59.625 z M 94.40625 60.125 C 94.786455 60.125 95.096351 60.26042 95.3125 60.5625 C 95.531246 60.86198 95.624996 61.28386 95.625 61.8125 C 95.624996 62.34115 95.531246 62.76042 95.3125 63.0625 C 95.096351 63.36198 94.786455 63.5 94.40625 63.5 C 94.026039 63.5 93.718749 63.36198 93.5 63.0625 C 93.283853 62.76042 93.187498 62.34115 93.1875 61.8125 C 93.187498 61.28386 93.283853 60.86198 93.5 60.5625 C 93.718749 60.26042 94.026039 60.125 94.40625 60.125 z M 101.625 60.125 C 101.97916 60.125 102.25521 60.23438 102.46875 60.46875 C 102.68489 60.70313 102.8075 61.01302 102.8125 61.40625 L 100.25 61.4375 C 100.28646 61.02605 100.41666 60.69532 100.65625 60.46875 C 100.89843 60.24219 101.22396 60.125 101.625 60.125 z M 72.84375 61.8125 L 73.5625 61.8125 L 73.5625 61.96875 C 73.562497 62.4375 73.429684 62.80989 73.1875 63.09375 C 72.947914 63.375 72.617185 63.5 72.21875 63.5 C 71.929685 63.5 71.700519 63.42968 71.53125 63.28125 C 71.36458 63.1302 71.281249 62.94271 71.28125 62.6875 C 71.281249 62.36719 71.401041 62.13282 71.625 62 C 71.848957 61.86718 72.263019 61.81251 72.84375 61.8125 z M 72.0625 67.9375 L 72.0625 74 L 72.78125 74 L 72.78125 67.9375 L 72.0625 67.9375 z M 81.71875 68.375 L 81.71875 69.625 L 81.1875 69.625 L 81.1875 70.1875 L 81.71875 70.1875 L 81.71875 72.5625 C 81.71875 73.10937 81.820311 73.47917 82.03125 73.6875 C 82.242186 73.89323 82.632811 74 83.1875 74 L 83.9375 74 L 83.9375 73.40625 L 83.1875 73.40625 C 82.888019 73.40625 82.69271 73.35156 82.59375 73.25 C 82.497399 73.14843 82.437498 72.91927 82.4375 72.5625 L 82.4375 70.1875 L 83.9375 70.1875 L 83.9375 69.625 L 82.4375 69.625 L 82.4375 68.375 L 81.71875 68.375 z M 94.375 68.375 L 94.375 69.625 L 93.84375 69.625 L 93.84375 70.1875 L 94.375 70.1875 L 94.375 72.5625 C 94.375 73.10937 94.476561 73.47917 94.6875 73.6875 C 94.898436 73.89323 95.289061 74 95.84375 74 L 96.59375 74 L 96.59375 73.40625 L 95.84375 73.40625 C 95.544269 73.40625 95.34896 73.35156 95.25 73.25 C 95.153649 73.14843 95.093748 72.91927 95.09375 72.5625 L 95.09375 70.1875 L 96.59375 70.1875 L 96.59375 69.625 L 95.09375 69.625 L 95.09375 68.375 L 94.375 68.375 z M 46.59375 69.53125 C 45.937499 69.53126 45.41927 69.73438 45.03125 70.15625 C 44.645833 70.57552 44.4375 71.12761 44.4375 71.84375 C 44.4375 72.53646 44.65625 73.09375 45.0625 73.5 C 45.471353 73.90625 46.020832 74.125 46.71875 74.125 C 46.997393 74.125 47.260414 74.08855 47.53125 74.03125 C 47.80208 73.97395 48.054683 73.89062 48.3125 73.78125 L 48.3125 73.09375 C 48.057288 73.22917 47.822913 73.33855 47.5625 73.40625 C 47.304685 73.47391 47.026039 73.5 46.75 73.5 C 46.273435 73.5 45.893227 73.38281 45.625 73.125 C 45.359373 72.86458 45.21875 72.49479 45.1875 72 L 48.5 72 L 48.5 71.625 C 48.499995 70.97396 48.312495 70.47135 47.96875 70.09375 C 47.6276 69.71354 47.182289 69.53126 46.59375 69.53125 z M 55.8125 69.53125 C 55.578123 69.53125 55.341144 69.54165 55.09375 69.59375 C 54.846353 69.64323 54.57552 69.71094 54.3125 69.8125 L 54.3125 70.5 C 54.531249 70.38022 54.76302 70.27865 55 70.21875 C 55.236977 70.15885 55.468748 70.125 55.71875 70.125 C 56.111976 70.125 56.440102 70.22396 56.65625 70.40625 C 56.874997 70.58594 56.968747 70.82553 56.96875 71.15625 L 56.96875 71.25 L 55.96875 71.25 C 55.315102 71.25001 54.830728 71.37501 54.5 71.625 C 54.171875 71.87501 53.999999 72.22656 54 72.71875 C 53.999999 73.14062 54.111979 73.4974 54.375 73.75 C 54.640624 74 55.020832 74.125 55.46875 74.125 C 55.822915 74.125 56.130206 74.0625 56.375 73.9375 C 56.619789 73.8099 56.804684 73.60938 56.96875 73.34375 L 56.96875 74 L 57.6875 74 L 57.6875 71.5 C 57.687496 70.83334 57.531246 70.32813 57.21875 70 C 56.906247 69.67188 56.44531 69.53126 55.8125 69.53125 z M 61.28125 69.53125 C 60.966143 69.53126 60.697915 69.59115 60.46875 69.71875 C 60.239582 69.84636 60.039061 70.04427 59.875 70.3125 L 59.875 69.625 L 59.15625 69.625 L 59.15625 74 L 59.875 74 L 59.875 71.53125 C 59.874998 71.10677 59.971353 70.77865 60.1875 70.53125 C 60.403644 70.28126 60.695311 70.15626 61.0625 70.15625 C 61.372393 70.15626 61.60156 70.23438 61.75 70.4375 C 61.898437 70.63803 61.968746 70.95312 61.96875 71.375 L 61.96875 74 L 62.6875 74 L 62.6875 71.53125 C 62.687496 71.10417 62.8151 70.77865 63.03125 70.53125 C 63.247391 70.28386 63.533849 70.15626 63.90625 70.15625 C 64.210932 70.15626 64.445306 70.23438 64.59375 70.4375 C 64.742186 70.64063 64.812494 70.95573 64.8125 71.375 L 64.8125 74 L 65.53125 74 L 65.53125 71.375 C 65.531243 70.78646 65.403639 70.31771 65.15625 70 C 64.908848 69.67969 64.580723 69.53126 64.125 69.53125 C 63.786453 69.53126 63.468745 69.59636 63.21875 69.75 C 62.968746 69.90365 62.773433 70.14583 62.59375 70.46875 C 62.486975 70.16146 62.317705 69.91146 62.09375 69.75 C 61.872393 69.58851 61.598955 69.53126 61.28125 69.53125 z M 69.0625 69.53125 C 68.742185 69.53126 68.481769 69.59115 68.25 69.71875 C 68.020832 69.84375 67.80729 70.02083 67.65625 70.28125 L 67.65625 69.625 L 66.9375 69.625 L 66.9375 75.65625 L 67.65625 75.65625 L 67.65625 73.34375 C 67.80729 73.60417 68.020832 73.8099 68.25 73.9375 C 68.481769 74.0625 68.742185 74.125 69.0625 74.125 C 69.593747 74.125 70.044267 73.89063 70.375 73.46875 C 70.708329 73.04688 70.874995 72.5 70.875 71.8125 C 70.874995 71.125 70.708329 70.57812 70.375 70.15625 C 70.044267 69.73438 69.593747 69.53126 69.0625 69.53125 z M 76.09375 69.53125 C 75.437499 69.53126 74.91927 69.73438 74.53125 70.15625 C 74.145833 70.57552 73.96875 71.12761 73.96875 71.84375 C 73.96875 72.53646 74.15625 73.09375 74.5625 73.5 C 74.971353 73.90625 75.520832 74.125 76.21875 74.125 C 76.497393 74.125 76.791664 74.08855 77.0625 74.03125 C 77.33333 73.97395 77.585933 73.89062 77.84375 73.78125 L 77.84375 73.09375 C 77.588538 73.22917 77.322913 73.33855 77.0625 73.40625 C 76.804685 73.47391 76.557289 73.5 76.28125 73.5 C 75.804685 73.5 75.424477 73.38281 75.15625 73.125 C 74.890623 72.86458 74.75 72.49479 74.71875 72 L 78 72 L 78 71.625 C 77.999995 70.97396 77.843745 70.47135 77.5 70.09375 C 77.15885 69.71354 76.682289 69.53126 76.09375 69.53125 z M 86.71875 69.53125 C 86.062499 69.53126 85.54427 69.73438 85.15625 70.15625 C 84.770833 70.57552 84.5625 71.12761 84.5625 71.84375 C 84.5625 72.53646 84.78125 73.09375 85.1875 73.5 C 85.596353 73.90625 86.145832 74.125 86.84375 74.125 C 87.122393 74.125 87.385414 74.08855 87.65625 74.03125 C 87.92708 73.97395 88.179683 73.89062 88.4375 73.78125 L 88.4375 73.09375 C 88.182288 73.22917 87.947913 73.33855 87.6875 73.40625 C 87.429685 73.47391 87.151039 73.5 86.875 73.5 C 86.398435 73.5 86.018227 73.38281 85.75 73.125 C 85.484373 72.86458 85.34375 72.49479 85.3125 72 L 88.625 72 L 88.625 71.625 C 88.624995 70.97396 88.437495 70.47135 88.09375 70.09375 C 87.7526 69.71354 87.307289 69.53126 86.71875 69.53125 z M 49.15625 69.625 L 50.71875 71.71875 L 49 74 L 49.875 74 L 51.125 72.28125 L 52.40625 74 L 53.25 74 L 51.59375 71.75 L 53.1875 69.625 L 52.3125 69.625 L 51.15625 71.1875 L 50 69.625 L 49.15625 69.625 z M 89.28125 69.625 L 90.84375 71.71875 L 89.125 74 L 90 74 L 91.25 72.28125 L 92.53125 74 L 93.375 74 L 91.71875 71.75 L 93.3125 69.625 L 92.4375 69.625 L 91.28125 71.1875 L 90.125 69.625 L 89.28125 69.625 z M 46.59375 70.125 C 46.947914 70.125 47.223956 70.23438 47.4375 70.46875 C 47.653643 70.70313 47.77605 71.01302 47.78125 71.40625 L 45.21875 71.4375 C 45.255207 71.02605 45.385416 70.69532 45.625 70.46875 C 45.867186 70.24219 46.192706 70.125 46.59375 70.125 z M 68.875 70.125 C 69.255205 70.125 69.565101 70.26042 69.78125 70.5625 C 69.999996 70.86198 70.124996 71.28386 70.125 71.8125 C 70.124996 72.34115 69.999996 72.76042 69.78125 73.0625 C 69.565101 73.36198 69.255205 73.5 68.875 73.5 C 68.494789 73.5 68.218749 73.36198 68 73.0625 C 67.783853 72.76042 67.656248 72.34115 67.65625 71.8125 C 67.656248 71.28386 67.783853 70.86198 68 70.5625 C 68.218749 70.26042 68.494789 70.125 68.875 70.125 z M 76.125 70.125 C 76.479164 70.125 76.755206 70.23438 76.96875 70.46875 C 77.184893 70.70313 77.27605 71.01302 77.28125 71.40625 L 74.71875 71.4375 C 74.755207 71.02605 74.916666 70.69532 75.15625 70.46875 C 75.398436 70.24219 75.723956 70.125 76.125 70.125 z M 86.71875 70.125 C 87.072914 70.125 87.348956 70.23438 87.5625 70.46875 C 87.778643 70.70313 87.90105 71.01302 87.90625 71.40625 L 85.34375 71.4375 C 85.380207 71.02605 85.510416 70.69532 85.75 70.46875 C 85.992186 70.24219 86.317706 70.125 86.71875 70.125 z M 56.25 71.8125 L 56.96875 71.8125 L 56.96875 71.96875 C 56.968747 72.4375 56.867184 72.80989 56.625 73.09375 C 56.385414 73.375 56.054685 73.5 55.65625 73.5 C 55.367185 73.5 55.138019 73.42968 54.96875 73.28125 C 54.80208 73.1302 54.718749 72.94271 54.71875 72.6875 C 54.718749 72.36719 54.838541 72.13282 55.0625 72 C 55.286457 71.86718 55.669269 71.81251 56.25 71.8125 z M 56.8125 77.9375 C 56.346352 77.9375 56.007811 78.0208 55.78125 78.25 C 55.557291 78.4766 55.437499 78.8359 55.4375 79.3125 L 55.4375 79.625 L 54.75 79.625 L 54.75 80.1875 L 55.4375 80.1875 L 55.4375 84 L 56.1875 84 L 56.1875 80.1875 L 58.15625 80.1875 L 58.15625 84 L 58.875 84 L 58.875 79.625 L 56.1875 79.625 L 56.1875 79.25 C 56.187498 78.9791 56.21354 78.7916 56.3125 78.6875 C 56.414061 78.5832 56.617185 78.53125 56.875 78.53125 L 57.5625 78.53125 L 57.5625 77.9375 L 56.8125 77.9375 z M 58.15625 77.9375 L 58.15625 78.84375 L 58.875 78.84375 L 58.875 77.9375 L 58.15625 77.9375 z M 60.375 77.9375 L 60.375 84 L 61.09375 84 L 61.09375 77.9375 L 60.375 77.9375 z M 62.59375 77.9375 L 62.59375 84 L 63.3125 84 L 63.3125 77.9375 L 62.59375 77.9375 z M 70.46875 77.9375 L 70.46875 84 L 71.1875 84 L 71.1875 81.53125 C 71.187498 81.10415 71.30729 80.7474 71.53125 80.5 C 71.755207 80.2526 72.049477 80.15625 72.4375 80.15625 C 72.760414 80.15625 73.026039 80.2318 73.1875 80.4375 C 73.348958 80.6432 73.437496 80.9609 73.4375 81.375 L 73.4375 84 L 74.125 84 L 74.125 81.375 C 74.124996 80.7708 74.007808 80.3099 73.75 80 C 73.492184 79.6875 73.127601 79.53125 72.625 79.53125 C 72.32031 79.53125 72.046873 79.58855 71.8125 79.71875 C 71.580728 79.84895 71.359373 80.0495 71.1875 80.3125 L 71.1875 77.9375 L 70.46875 77.9375 z M 75.59375 77.9375 L 75.59375 78.84375 L 76.3125 78.84375 L 76.3125 77.9375 L 75.59375 77.9375 z M 44.75 78.375 L 44.75 79.625 L 44.21875 79.625 L 44.21875 80.1875 L 44.75 80.1875 L 44.75 82.5625 C 44.75 83.1094 44.851561 83.4792 45.0625 83.6875 C 45.273436 83.8932 45.664061 84 46.21875 84 L 46.9375 84 L 46.9375 83.40625 L 46.21875 83.40625 C 45.919269 83.40625 45.72396 83.3515 45.625 83.25 C 45.528649 83.1484 45.468748 82.9192 45.46875 82.5625 L 45.46875 80.1875 L 46.9375 80.1875 L 46.9375 79.625 L 45.46875 79.625 L 45.46875 78.375 L 44.75 78.375 z M 67.34375 78.375 L 67.34375 79.625 L 66.8125 79.625 L 66.8125 80.1875 L 67.34375 80.1875 L 67.34375 82.5625 C 67.34375 83.1094 67.445311 83.4792 67.65625 83.6875 C 67.867186 83.8932 68.257811 84 68.8125 84 L 69.5625 84 L 69.5625 83.40625 L 68.8125 83.40625 C 68.513019 83.40625 68.31771 83.3515 68.21875 83.25 C 68.122399 83.1484 68.062498 82.9192 68.0625 82.5625 L 68.0625 80.1875 L 69.5625 80.1875 L 69.5625 79.625 L 68.0625 79.625 L 68.0625 78.375 L 67.34375 78.375 z M 97.625 78.375 L 97.625 79.625 L 97.09375 79.625 L 97.09375 80.1875 L 97.625 80.1875 L 97.625 82.5625 C 97.625 83.1094 97.726561 83.4792 97.9375 83.6875 C 98.148436 83.8932 98.539061 84 99.09375 84 L 99.84375 84 L 99.84375 83.40625 L 99.09375 83.40625 C 98.794269 83.40625 98.59896 83.3515 98.5 83.25 C 98.403649 83.1484 98.343748 82.9192 98.34375 82.5625 L 98.34375 80.1875 L 99.84375 80.1875 L 99.84375 79.625 L 98.34375 79.625 L 98.34375 78.375 L 97.625 78.375 z M 100.78125 78.375 L 100.78125 79.625 L 100.25 79.625 L 100.25 80.1875 L 100.78125 80.1875 L 100.78125 82.5625 C 100.78125 83.1094 100.88282 83.4792 101.09375 83.6875 C 101.30469 83.8932 101.69531 84 102.25 84 L 102.96875 84 L 102.96875 83.40625 L 102.25 83.40625 C 101.95052 83.40625 101.75525 83.3515 101.65625 83.25 C 101.55991 83.1484 101.5 82.9192 101.5 82.5625 L 101.5 80.1875 L 102.96875 80.1875 L 102.96875 79.625 L 101.5 79.625 L 101.5 78.375 L 100.78125 78.375 z M 49.59375 79.53125 C 48.966144 79.53125 48.48177 79.7187 48.125 80.125 C 47.770833 80.5312 47.59375 81.0937 47.59375 81.8125 C 47.59375 82.5286 47.770833 83.0911 48.125 83.5 C 48.48177 83.9062 48.966144 84.125 49.59375 84.125 C 50.218747 84.125 50.705726 83.9062 51.0625 83.5 C 51.419267 83.0911 51.593746 82.5286 51.59375 81.8125 C 51.593746 81.0937 51.419267 80.5312 51.0625 80.125 C 50.705726 79.7187 50.218747 79.53125 49.59375 79.53125 z M 79.1875 79.53125 C 78.65104 79.53125 78.229165 79.61975 77.9375 79.84375 C 77.645832 80.06765 77.499999 80.401 77.5 80.8125 C 77.499999 81.151 77.614583 81.4296 77.8125 81.625 C 78.010415 81.8177 78.335937 81.93725 78.78125 82.03125 L 79.03125 82.09375 C 79.476561 82.19015 79.744789 82.30215 79.875 82.40625 C 80.007808 82.51045 80.093747 82.64845 80.09375 82.84375 C 80.093747 83.05475 79.994789 83.22655 79.8125 83.34375 C 79.630206 83.45865 79.369789 83.5 79.03125 83.5 C 78.778644 83.5 78.507811 83.47425 78.25 83.40625 C 77.992187 83.33595 77.734374 83.23185 77.46875 83.09375 L 77.46875 83.84375 C 77.749999 83.93495 78.028645 83.98725 78.28125 84.03125 C 78.536457 84.07725 78.765623 84.125 79 84.125 C 79.562497 84.125 80.023434 83.987 80.34375 83.75 C 80.666663 83.513 80.812496 83.18745 80.8125 82.78125 C 80.812496 82.42445 80.716142 82.16665 80.5 81.96875 C 80.286455 81.76825 79.916664 81.6094 79.40625 81.5 L 79.15625 81.4375 C 78.770831 81.3516 78.533853 81.2815 78.40625 81.1875 C 78.278644 81.0911 78.218749 80.94795 78.21875 80.78125 C 78.218749 80.56255 78.291666 80.39065 78.46875 80.28125 C 78.648436 80.17225 78.924477 80.125 79.28125 80.125 C 79.515622 80.125 79.749998 80.1355 79.96875 80.1875 C 80.187497 80.2396 80.390621 80.3333 80.59375 80.4375 L 80.59375 79.75 C 80.39583 79.6722 80.171872 79.63275 79.9375 79.59375 C 79.703123 79.55375 79.453123 79.53125 79.1875 79.53125 z M 86.625 79.53125 C 86.304685 79.53125 86.013019 79.59115 85.78125 79.71875 C 85.552082 79.84375 85.36979 80.02085 85.21875 80.28125 L 85.21875 79.625 L 84.5 79.625 L 84.5 85.65625 L 85.21875 85.65625 L 85.21875 83.34375 C 85.36979 83.60415 85.552082 83.8099 85.78125 83.9375 C 86.013019 84.063 86.304685 84.125 86.625 84.125 C 87.156247 84.125 87.575517 83.89055 87.90625 83.46875 C 88.239579 83.04685 88.406245 82.5 88.40625 81.8125 C 88.406245 81.125 88.239579 80.57815 87.90625 80.15625 C 87.575517 79.73445 87.156247 79.53125 86.625 79.53125 z M 91.75 79.53125 C 91.403643 79.53125 91.117186 79.58855 90.875 79.71875 C 90.632811 79.84635 90.43229 80.0468 90.28125 80.3125 L 90.28125 79.625 L 89.5625 79.625 L 89.5625 84 L 90.28125 84 L 90.28125 81.6875 C 90.281248 81.1927 90.408853 80.8255 90.625 80.5625 C 90.843749 80.2969 91.156248 80.15625 91.5625 80.15625 C 91.677081 80.15625 91.78125 80.1645 91.875 80.1875 C 91.971352 80.2081 92.04427 80.2655 92.125 80.3125 L 92.125 79.5625 C 92.05208 79.5495 91.99739 79.54125 91.9375 79.53125 C 91.877602 79.51925 91.79948 79.53125 91.75 79.53125 z M 94.5625 79.53125 C 93.906249 79.53125 93.38802 79.73445 93 80.15625 C 92.614583 80.57555 92.40625 81.12755 92.40625 81.84375 C 92.40625 82.53645 92.625 83.0937 93.03125 83.5 C 93.440103 83.9062 93.989582 84.125 94.6875 84.125 C 94.966143 84.125 95.229164 84.08825 95.5 84.03125 C 95.77083 83.97395 96.054683 83.89065 96.3125 83.78125 L 96.3125 83.09375 C 96.057288 83.22925 95.791663 83.33825 95.53125 83.40625 C 95.273435 83.47385 94.994789 83.5 94.71875 83.5 C 94.242185 83.5 93.861977 83.3828 93.59375 83.125 C 93.328123 82.8646 93.1875 82.4948 93.15625 82 L 96.46875 82 L 96.46875 81.625 C 96.468745 80.974 96.281245 80.47135 95.9375 80.09375 C 95.59635 79.71355 95.151039 79.53125 94.5625 79.53125 z M 75.59375 79.625 L 75.59375 84 L 76.3125 84 L 76.3125 79.625 L 75.59375 79.625 z M 103.40625 79.625 L 105.1875 83.9375 L 105.0625 84.25 C 104.92969 84.599 104.79687 84.8435 104.6875 84.9375 C 104.57812 85.0311 104.41667 85.0625 104.21875 85.0625 L 103.8125 85.0625 L 103.8125 85.65625 L 104.375 85.65625 C 104.69791 85.65625 104.96354 85.5963 105.15625 85.4375 C 105.34896 85.2786 105.54688 84.92715 105.75 84.40625 L 107.65625 79.625 L 106.90625 79.625 L 105.53125 83.0625 L 104.1875 79.625 L 103.40625 79.625 z M 49.59375 80.125 C 49.976559 80.125 50.276039 80.28905 50.5 80.59375 C 50.723955 80.89585 50.843747 81.2943 50.84375 81.8125 C 50.843747 82.3333 50.723955 82.7604 50.5 83.0625 C 50.276039 83.3645 49.976559 83.5 49.59375 83.5 C 49.205727 83.5 48.911457 83.3619 48.6875 83.0625 C 48.466145 82.7604 48.343749 82.3359 48.34375 81.8125 C 48.343749 81.2891 48.463541 80.89325 48.6875 80.59375 C 48.911457 80.29165 49.208331 80.125 49.59375 80.125 z M 86.4375 80.125 C 86.817705 80.125 87.127601 80.2604 87.34375 80.5625 C 87.562496 80.862 87.656246 81.2838 87.65625 81.8125 C 87.656246 82.3411 87.562496 82.7604 87.34375 83.0625 C 87.127601 83.362 86.817705 83.5 86.4375 83.5 C 86.057289 83.5 85.749999 83.362 85.53125 83.0625 C 85.315103 82.7604 85.218748 82.3411 85.21875 81.8125 C 85.218748 81.2838 85.315103 80.862 85.53125 80.5625 C 85.749999 80.2604 86.057289 80.125 86.4375 80.125 z M 94.5625 80.125 C 94.916664 80.125 95.192706 80.23435 95.40625 80.46875 C 95.622393 80.70305 95.7448 81.0442 95.75 81.4375 L 93.1875 81.4375 C 93.223957 81.026 93.354166 80.69535 93.59375 80.46875 C 93.835936 80.24225 94.161456 80.125 94.5625 80.125 z M 52.5625 87.9375 L 52.5625 88.84375 L 53.28125 88.84375 L 53.28125 87.9375 L 52.5625 87.9375 z M 87.90625 87.9375 L 87.90625 88.84375 L 88.625 88.84375 L 88.625 87.9375 L 87.90625 87.9375 z M 67.46875 88.375 L 67.46875 89.625 L 66.9375 89.625 L 66.9375 90.1875 L 67.46875 90.1875 L 67.46875 92.5625 C 67.46875 93.1094 67.570311 93.4792 67.78125 93.6875 C 67.992186 93.8932 68.382811 94 68.9375 94 L 69.6875 94 L 69.6875 93.40625 L 68.9375 93.40625 C 68.638019 93.40625 68.44271 93.3515 68.34375 93.25 C 68.247399 93.1484 68.187498 92.9192 68.1875 92.5625 L 68.1875 90.1875 L 69.6875 90.1875 L 69.6875 89.625 L 68.1875 89.625 L 68.1875 88.375 L 67.46875 88.375 z M 46.84375 89.53125 C 46.528643 89.53125 46.260415 89.59115 46.03125 89.71875 C 45.802082 89.84635 45.601561 90.0442 45.4375 90.3125 L 45.4375 89.625 L 44.71875 89.625 L 44.71875 94 L 45.4375 94 L 45.4375 91.53125 C 45.437498 91.10685 45.565103 90.77865 45.78125 90.53125 C 45.997394 90.28125 46.289061 90.15625 46.65625 90.15625 C 46.966143 90.15625 47.19531 90.2344 47.34375 90.4375 C 47.492187 90.638 47.562496 90.9531 47.5625 91.375 L 47.5625 94 L 48.28125 94 L 48.28125 91.53125 C 48.281246 91.10415 48.3776 90.7474 48.59375 90.5 C 48.809891 90.2526 49.127599 90.15625 49.5 90.15625 C 49.804682 90.15625 50.007806 90.2344 50.15625 90.4375 C 50.304686 90.6406 50.374994 90.9557 50.375 91.375 L 50.375 94 L 51.125 94 L 51.125 91.375 C 51.124993 90.7864 50.997389 90.3177 50.75 90 C 50.502598 89.6797 50.143223 89.53125 49.6875 89.53125 C 49.348953 89.53125 49.062495 89.5963 48.8125 89.75 C 48.562496 89.9036 48.335933 90.14585 48.15625 90.46875 C 48.049475 90.16145 47.880205 89.9115 47.65625 89.75 C 47.434893 89.5888 47.161455 89.53125 46.84375 89.53125 z M 56.875 89.53125 C 56.559893 89.53125 56.291665 89.59115 56.0625 89.71875 C 55.833332 89.84635 55.632811 90.0442 55.46875 90.3125 L 55.46875 89.625 L 54.75 89.625 L 54.75 94 L 55.46875 94 L 55.46875 91.53125 C 55.468748 91.10685 55.565103 90.77865 55.78125 90.53125 C 55.997394 90.28125 56.289061 90.15625 56.65625 90.15625 C 56.966143 90.15625 57.19531 90.2344 57.34375 90.4375 C 57.492187 90.638 57.562496 90.9531 57.5625 91.375 L 57.5625 94 L 58.3125 94 L 58.3125 91.53125 C 58.312496 91.10415 58.40885 90.7474 58.625 90.5 C 58.841141 90.2526 59.127599 90.15625 59.5 90.15625 C 59.804682 90.15625 60.039056 90.2344 60.1875 90.4375 C 60.335936 90.6406 60.406244 90.9557 60.40625 91.375 L 60.40625 94 L 61.125 94 L 61.125 91.375 C 61.124993 90.7864 60.997389 90.3177 60.75 90 C 60.502598 89.6797 60.143223 89.53125 59.6875 89.53125 C 59.348953 89.53125 59.062495 89.5963 58.8125 89.75 C 58.562496 89.9036 58.367183 90.14585 58.1875 90.46875 C 58.080725 90.16145 57.911455 89.9115 57.6875 89.75 C 57.466143 89.5888 57.192705 89.53125 56.875 89.53125 z M 64.40625 89.53125 C 63.749999 89.53125 63.23177 89.73445 62.84375 90.15625 C 62.458333 90.57555 62.25 91.12755 62.25 91.84375 C 62.25 92.53645 62.46875 93.0937 62.875 93.5 C 63.283853 93.9062 63.833332 94.125 64.53125 94.125 C 64.809893 94.125 65.072914 94.08825 65.34375 94.03125 C 65.61458 93.97395 65.867183 93.89065 66.125 93.78125 L 66.125 93.09375 C 65.869788 93.22925 65.635413 93.33825 65.375 93.40625 C 65.117185 93.47385 64.838539 93.5 64.5625 93.5 C 64.085935 93.5 63.705727 93.3828 63.4375 93.125 C 63.171873 92.8646 63.03125 92.4948 63 92 L 66.3125 92 L 66.3125 91.625 C 66.312495 90.974 66.124995 90.47135 65.78125 90.09375 C 65.4401 89.71355 64.994789 89.53125 64.40625 89.53125 z M 77.46875 89.53125 C 77.148435 89.53125 76.856769 89.59115 76.625 89.71875 C 76.395832 89.84375 76.21354 90.02085 76.0625 90.28125 L 76.0625 89.625 L 75.34375 89.625 L 75.34375 95.65625 L 76.0625 95.65625 L 76.0625 93.34375 C 76.21354 93.60415 76.395832 93.8099 76.625 93.9375 C 76.856769 94.063 77.148435 94.125 77.46875 94.125 C 77.999997 94.125 78.419267 93.89055 78.75 93.46875 C 79.083329 93.04685 79.249995 92.5 79.25 91.8125 C 79.249995 91.125 79.083329 90.57815 78.75 90.15625 C 78.419267 89.73445 77.999997 89.53125 77.46875 89.53125 z M 82.28125 89.53125 C 81.624999 89.53125 81.10677 89.73445 80.71875 90.15625 C 80.333333 90.57555 80.125 91.12755 80.125 91.84375 C 80.125 92.53645 80.34375 93.0937 80.75 93.5 C 81.158853 93.9062 81.708332 94.125 82.40625 94.125 C 82.684893 94.125 82.947914 94.08825 83.21875 94.03125 C 83.48958 93.97395 83.742183 93.89065 84 93.78125 L 84 93.09375 C 83.744788 93.22925 83.510413 93.33825 83.25 93.40625 C 82.992185 93.47385 82.713539 93.5 82.4375 93.5 C 81.960935 93.5 81.580727 93.3828 81.3125 93.125 C 81.046873 92.8646 80.90625 92.4948 80.875 92 L 84.1875 92 L 84.1875 91.625 C 84.187495 90.974 83.999995 90.47135 83.65625 90.09375 C 83.3151 89.71355 82.869789 89.53125 82.28125 89.53125 z M 92 89.53125 C 91.317706 89.53125 90.799477 89.7161 90.40625 90.125 C 90.015624 90.5339 89.8125 91.099 89.8125 91.8125 C 89.8125 92.5156 90.018229 93.0859 90.40625 93.5 C 90.79427 93.914 91.309894 94.125 91.96875 94.125 C 92.210935 94.125 92.442705 94.07825 92.65625 94.03125 C 92.872392 93.98435 93.080725 93.93775 93.28125 93.84375 L 93.28125 93.15625 C 93.078121 93.26815 92.861976 93.34925 92.65625 93.40625 C 92.453122 93.46125 92.27083 93.5 92.0625 93.5 C 91.596352 93.5 91.226561 93.3568 90.96875 93.0625 C 90.710937 92.7656 90.562499 92.3463 90.5625 91.8125 C 90.562499 91.2786 90.710937 90.8568 90.96875 90.5625 C 91.226561 90.2656 91.596352 90.125 92.0625 90.125 C 92.27083 90.125 92.453122 90.16175 92.65625 90.21875 C 92.861976 90.27345 93.078121 90.35685 93.28125 90.46875 L 93.28125 89.78125 C 93.083329 89.69005 92.867184 89.63775 92.65625 89.59375 C 92.44531 89.54775 92.221351 89.53125 92 89.53125 z M 96.21875 89.53125 C 95.591144 89.53125 95.10677 89.7187 94.75 90.125 C 94.395833 90.5312 94.21875 91.0937 94.21875 91.8125 C 94.21875 92.5286 94.395833 93.0911 94.75 93.5 C 95.10677 93.9062 95.591144 94.125 96.21875 94.125 C 96.843747 94.125 97.330726 93.9062 97.6875 93.5 C 98.044267 93.0911 98.249996 92.5286 98.25 91.8125 C 98.249996 91.0937 98.044267 90.5312 97.6875 90.125 C 97.330726 89.7187 96.843747 89.53125 96.21875 89.53125 z M 101.53125 89.53125 C 101.22656 89.53125 100.95313 89.58855 100.71875 89.71875 C 100.48698 89.84895 100.29688 90.0495 100.125 90.3125 L 100.125 89.625 L 99.40625 89.625 L 99.40625 94 L 100.125 94 L 100.125 91.53125 C 100.125 91.10415 100.24479 90.7474 100.46875 90.5 C 100.69271 90.2526 100.98698 90.15625 101.375 90.15625 C 101.69791 90.15625 101.93229 90.2318 102.09375 90.4375 C 102.25524 90.6432 102.34375 90.9609 102.34375 91.375 L 102.34375 94 L 103.0625 94 L 103.0625 91.375 C 103.0625 90.7708 102.94531 90.3099 102.6875 90 C 102.42969 89.6875 102.03385 89.53125 101.53125 89.53125 z M 52.5625 89.625 L 52.5625 94 L 53.28125 94 L 53.28125 89.625 L 52.5625 89.625 z M 70.125 89.625 L 71.875 93.9375 L 71.75 94.25 C 71.617186 94.599 71.484373 94.8435 71.375 94.9375 C 71.265624 95.0311 71.135416 95.0625 70.9375 95.0625 L 70.5 95.0625 L 70.5 95.65625 L 71.09375 95.65625 C 71.416665 95.65625 71.65104 95.5963 71.84375 95.4375 C 72.036456 95.2786 72.234372 94.92715 72.4375 94.40625 L 74.375 89.625 L 73.625 89.625 L 72.25 93.0625 L 70.875 89.625 L 70.125 89.625 z M 87.90625 89.625 L 87.90625 94 L 88.625 94 L 88.625 89.625 L 87.90625 89.625 z M 64.40625 90.125 C 64.760414 90.125 65.036456 90.23435 65.25 90.46875 C 65.466143 90.70305 65.58855 91.0442 65.59375 91.4375 L 63.03125 91.4375 C 63.067707 91.026 63.197916 90.69535 63.4375 90.46875 C 63.679686 90.24225 64.005206 90.125 64.40625 90.125 z M 77.28125 90.125 C 77.661455 90.125 77.971351 90.2604 78.1875 90.5625 C 78.406246 90.862 78.499996 91.2838 78.5 91.8125 C 78.499996 92.3411 78.406246 92.7604 78.1875 93.0625 C 77.971351 93.362 77.661455 93.5 77.28125 93.5 C 76.901039 93.5 76.593749 93.362 76.375 93.0625 C 76.158853 92.7604 76.062498 92.3411 76.0625 91.8125 C 76.062498 91.2838 76.158853 90.862 76.375 90.5625 C 76.593749 90.2604 76.901039 90.125 77.28125 90.125 z M 82.28125 90.125 C 82.635414 90.125 82.911456 90.23435 83.125 90.46875 C 83.341143 90.70305 83.46355 91.0442 83.46875 91.4375 L 80.90625 91.4375 C 80.942707 91.026 81.072916 90.69535 81.3125 90.46875 C 81.554686 90.24225 81.880206 90.125 82.28125 90.125 z M 96.21875 90.125 C 96.601559 90.125 96.901039 90.28905 97.125 90.59375 C 97.348955 90.89585 97.468747 91.2943 97.46875 91.8125 C 97.468747 92.3333 97.348955 92.7604 97.125 93.0625 C 96.901039 93.3645 96.601559 93.5 96.21875 93.5 C 95.830727 93.5 95.536457 93.3619 95.3125 93.0625 C 95.091145 92.7604 94.968749 92.3359 94.96875 91.8125 C 94.968749 91.2891 95.088541 90.89325 95.3125 90.59375 C 95.536457 90.29165 95.833331 90.125 96.21875 90.125 z "
       transform="translate(0,924.36218)"
       id="path4201" />
    <path
       inkscape:connector-curvature="0"
       style="opacity:0.25;fill:#000000;fill-opacity:1;stroke:#000000;stroke-width:3;stroke-miterlimit:4;stroke-dasharray:none"
       id="path7219"
       d="m 148.65625,989.89343 c -1.14404,0 -2.09375,0.94971 -2.09375,2.09375 l 0,1.03125 0,21.65627 0,1.0312 c 0,1.1441 0.94971,2.0938 2.09375,2.0938 l 22.6875,0 c 1.14404,0 2.09375,-0.9497 2.09375,-2.0938 l 0,-1.0312 0,-21.65627 0,-1.03125 c 0,-1.14404 -0.94971,-2.09375 -2.09375,-2.09375 l -22.6875,0 z" />
    <path
       inkscape:connector-curvature="0"
       style="opacity:0.25;fill:#000000;fill-opacity:1;stroke:#000000;stroke-width:2;stroke-miterlimit:4;stroke-dasharray:none"
       id="path7217"
       d="m 148.65625,989.89343 c -1.14404,0 -2.09375,0.94971 -2.09375,2.09375 l 0,1.03125 0,21.65627 0,1.0312 c 0,1.1441 0.94971,2.0938 2.09375,2.0938 l 22.6875,0 c 1.14404,0 2.09375,-0.9497 2.09375,-2.0938 l 0,-1.0312 0,-21.65627 0,-1.03125 c 0,-1.14404 -0.94971,-2.09375 -2.09375,-2.09375 l -22.6875,0 z" />
    <path
       inkscape:connector-curvature="0"
       style="opacity:0.5;fill:#000000;fill-opacity:1;stroke:#000000"
       id="rect7185"
       d="m 148.65625,989.89343 c -1.14404,0 -2.09375,0.94971 -2.09375,2.09375 l 0,1.03125 0,21.65627 0,1.0312 c 0,1.1441 0.94971,2.0938 2.09375,2.0938 l 22.6875,0 c 1.14404,0 2.09375,-0.9497 2.09375,-2.0938 l 0,-1.0312 0,-21.65627 0,-1.03125 c 0,-1.14404 -0.94971,-2.09375 -2.09375,-2.09375 l -22.6875,0 z" />
    <rect
       style="fill:#333333;fill-opacity:1;stroke:none"
       id="rect7150"
       y="1036.3622"
       x="144"
       ry="1"
       rx="1"
       height="16"
       width="16" />
    <text
       sodipodi:linespacing="125%"
       style="font-size:16px;font-style:normal;font-weight:normal;line-height:125%;letter-spacing:0px;word-spacing:0px;fill:#000000;fill-opacity:1;stroke:none;font-family:Sans"
       xml:space="preserve"
       id="text5901"
       y="1000.3622"
       x="184"><tspan
         id="tspan5903"
         y="1000.3622"
         x="184">31 - 17</tspan></text>
    <text
       sodipodi:linespacing="125%"
       style="font-size:16px;font-style:normal;font-weight:normal;line-height:125%;letter-spacing:0px;word-spacing:0px;fill:#000000;fill-opacity:1;stroke:none;font-family:Sans"
       xml:space="preserve"
       id="text5905"
       y="1048.3622"
       x="172"><tspan
         id="tspan5907"
         y="1048.3622"
         x="172">16</tspan></text>
    <rect
       style="fill:none;stroke:#000000;stroke-width:1;stroke-linecap:round;stroke-linejoin:round;stroke-miterlimit:4;stroke-opacity:1;stroke-dasharray:none;stroke-dashoffset:0"
       id="rect5919"
       y="984.36218"
       x="140"
       rx="4.5902016e-07"
       height="40"
       width="40" />
    <rect
       style="fill:none;stroke:#000000;stroke-width:1;stroke-linecap:round;stroke-linejoin:round;stroke-miterlimit:4;stroke-opacity:1;stroke-dasharray:none;stroke-dashoffset:0"
       id="rect5921"
       y="1032.3622"
       x="140"
       rx="4.5902016e-07"
       height="24"
       width="24" />
    <rect
       style="fill:#b3b3b3;fill-opacity:1;stroke:none"
       id="rect6935"
       y="980.36218"
       x="144"
       rx="4.5902016e-07"
       height="4"
       width="32" />
    <rect
       style="fill:#b3b3b3;fill-opacity:1;stroke:none"
       id="rect6937"
       y="988.36218"
       x="136"
       rx="4.5902016e-07"
       height="32"
       width="4" />
    <rect
       style="fill:#b3b3b3;fill-opacity:1;stroke:none"
       id="rect6939"
       y="1028.3622"
       x="144"
       rx="4.5902016e-07"
       height="4"
       width="16" />
    <rect
       style="fill:#b3b3b3;fill-opacity:1;stroke:none"
       id="rect6941"
       y="1036.3622"
       x="136"
       rx="4.5902016e-07"
       height="16"
       width="4" />
    <rect
       style="fill:#ffffff;fill-opacity:1;stroke:none"
       id="rect7118"
       y="1037.3622"
       x="145"
       ry="1.0769231"
       rx="1.0769231"
       height="14"
       width="14" />
    <rect
       style="opacity:0.5;fill:url(#linearGradient5931);fill-opacity:1;stroke:none"
       id="rect7120"
       y="1037.3622"
       x="145"
       ry="1.0980393"
       rx="1.0980393"
       height="14"
       width="14" />
    <rect
       style="fill:url(#radialGradient5928);fill-opacity:1;stroke:none"
       id="rect5952"
       y="990.94"
       x="146.57718"
       ry="2.0650492"
       rx="2.0650492"
       height="26.845638"
       width="26.845638" />
    <rect
       style="fill:#ffffff;fill-opacity:1;stroke:none"
       id="rect5954"
       y="989.90741"
       x="146.57718"
       ry="2.0650492"
       rx="2.0650492"
       height="26.845638"
       width="26.845638" />
    <rect
       style="opacity:0.5;fill:url(#linearGradient5924);fill-opacity:1;stroke:none"
       id="rect5956"
       y="990.16559"
       x="146.83531"
       ry="2.0650492"
       rx="2.0650492"
       height="26.329376"
       width="26.329376" />
    <path
       inkscape:connector-curvature="0"
       style="fill:#254400;fill-opacity:1;stroke:none"
       d="m 146.84375,1014.3622 c -0.0993,0 -0.1858,0.018 -0.28125,0.031 l 0,1.3125 c 0,1.144 0.94971,2.0937 2.09375,2.0937 l 5.34375,0 c 1.4e-4,-0.01 0,-0.021 0,-0.031 l 0,-1.3437 c 0,-1.1441 -0.91846,-2.0625 -2.0625,-2.0625 l -5.09375,0 z"
       id="rect4161" />
    <path
       inkscape:connector-curvature="0"
       style="fill:url(#radialGradient4138);fill-opacity:1;stroke:none"
       d="m 148.65625,989.89343 c -1.14404,0 -2.09375,0.94971 -2.09375,2.09375 l 0,22.68752 c 0,1.144 0.94971,2.0937 2.09375,2.0937 l 5.34375,0 0,-0.2812 0,-26.31252 0,-0.28125 z"
       id="rect3346"
       sodipodi:nodetypes="ssssccccs" />
    <path
       inkscape:connector-curvature="0"
       style="fill:url(#radialGradient4180);fill-opacity:1;stroke:none"
       d="m 146.09375,1037.3622 c -0.60831,0 -1.09375,0.4854 -1.09375,1.0937 l 0,11.8125 c 0,0.6083 0.48544,1.0938 1.09375,1.0938 l 2.90625,0 0,-13.9375 c 0,-0.022 6.7e-4,-0.041 0,-0.062 l -2.90625,0 z"
       id="rect4166"
       sodipodi:nodetypes="cssscsccc" />
    <text
       sodipodi:linespacing="125%"
       style="font-size:24px;font-style:normal;font-weight:normal;line-height:125%;letter-spacing:0px;word-spacing:0px;fill:#000000;fill-opacity:1;stroke:none;font-family:Sans"
       xml:space="preserve"
       id="text5893"
       y="948.36218"
       x="-56"><tspan
         id="tspan5895"
         y="948.36218"
         x="-56">128</tspan></text>
    <rect
       style="fill:#cccccc;fill-opacity:1;stroke:none"
       id="rect4303"
       width="16"
       height="2"
       x="156"
       y="68"
       transform="translate(0,924.36218)" />
    <rect
       style="fill:#cccccc;fill-opacity:1;stroke:none"
       id="rect4305"
       width="16"
       height="2"
       x="156"
       y="72"
       transform="translate(0,924.36218)" />
    <rect
       style="fill:#cccccc;fill-opacity:1;stroke:none"
       id="rect4307"
       width="12"
       height="2"
       x="156"
       y="76"
       transform="translate(0,924.36218)" />
    <rect
       style="fill:#cccccc;fill-opacity:1;stroke:none"
       id="rect4309"
       width="16"
       height="2"
       x="156"
       y="80"
       transform="translate(0,924.36218)" />
    <rect
       style="fill:#cccccc;fill-opacity:1;stroke:none"
       id="rect4311"
       width="14"
       height="2"
       x="156"
       y="84"
       transform="translate(0,924.36218)" />
    <rect
       style="fill:#cccccc;fill-opacity:1;stroke:none"
       id="rect4313"
       width="8"
       height="1"
       x="150"
       y="114"
       transform="translate(0,924.36218)" />
    <rect
       style="fill:#cccccc;fill-opacity:1;stroke:none"
       id="rect4315"
       width="8"
       height="1"
       x="150"
       y="116"
       transform="translate(0,924.36218)" />
    <rect
       style="fill:#cccccc;fill-opacity:1;stroke:none"
       id="rect4317"
       width="5"
       height="1"
       x="150"
       y="118"
       transform="translate(0,924.36218)" />
    <rect
       style="fill:#cccccc;fill-opacity:1;stroke:none"
       id="rect4319"
       width="8"
       height="1"
       x="150"
       y="120"
       transform="translate(0,924.36218)" />
    <rect
       style="fill:#cccccc;fill-opacity:1;stroke:none"
       id="rect4321"
       width="7"
       height="1"
       x="150"
       y="122"
       transform="translate(0,924.36218)" />
  </g>
</svg>
