<?xml version="1.0" encoding="UTF-8" standalone="no"?>
<!-- Created with Inkscape (http://www.inkscape.org/) -->

<svg
   xmlns:dc="http://purl.org/dc/elements/1.1/"
   xmlns:cc="http://creativecommons.org/ns#"
   xmlns:rdf="http://www.w3.org/1999/02/22-rdf-syntax-ns#"
   xmlns:svg="http://www.w3.org/2000/svg"
   xmlns="http://www.w3.org/2000/svg"
   xmlns:xlink="http://www.w3.org/1999/xlink"
   xmlns:sodipodi="http://sodipodi.sourceforge.net/DTD/sodipodi-0.dtd"
   xmlns:inkscape="http://www.inkscape.org/namespaces/inkscape"
   width="128"
   height="128"
   id="svg2"
   version="1.1"
   inkscape:version="0.48.4 r9939"
   sodipodi:docname="libreoffice-calc.svg">
  <defs
     id="defs4">
    <linearGradient
       inkscape:collect="always"
       id="linearGradient4805">
      <stop
         style="stop-color:#62e662;stop-opacity:1;"
         offset="0"
         id="stop4807" />
      <stop
         style="stop-color:#008000;stop-opacity:1;"
         offset="1"
         id="stop4809" />
    </linearGradient>
    <linearGradient
       id="linearGradient4633">
      <stop
         style="stop-color:#ffffff;stop-opacity:1;"
         offset="0"
         id="stop4635" />
      <stop
         style="stop-color:#7d7d7d;stop-opacity:1;"
         offset="1"
         id="stop4637" />
    </linearGradient>
    <linearGradient
       id="linearGradient4216-1">
      <stop
         style="stop-color:#ffffff;stop-opacity:1;"
         offset="0"
         id="stop4218-0" />
      <stop
         style="stop-color:#c6c6c6;stop-opacity:1;"
         offset="1"
         id="stop4220-9" />
    </linearGradient>
    <filter
       inkscape:collect="always"
       id="filter4495">
      <feGaussianBlur
         inkscape:collect="always"
         stdDeviation="2.0800002"
         id="feGaussianBlur4497" />
    </filter>
    <filter
       inkscape:collect="always"
       id="filter4577"
       x="-0.18"
       width="1.36"
       y="-0.18"
       height="1.36">
      <feGaussianBlur
         inkscape:collect="always"
         stdDeviation="1.5"
         id="feGaussianBlur4579" />
    </filter>
    <radialGradient
       inkscape:collect="always"
       xlink:href="#linearGradient4216-1"
       id="radialGradient4631"
       cx="77.611282"
       cy="39.420414"
       fx="77.611282"
       fy="39.420414"
       r="48"
       gradientTransform="matrix(7.3333334,1.1091983e-7,-1.2861914e-7,6.6666669,-489.14941,-230.80277)"
       gradientUnits="userSpaceOnUse" />
    <linearGradient
       inkscape:collect="always"
       xlink:href="#linearGradient4633"
       id="linearGradient4639"
       x1="99"
       y1="945.36218"
       x2="105"
       y2="939.36218"
       gradientUnits="userSpaceOnUse" />
    <radialGradient
       inkscape:collect="always"
       xlink:href="#linearGradient4805"
       id="radialGradient4811"
       cx="61.84375"
       cy="64"
       fx="61.84375"
       fy="64"
       r="45.84375"
       gradientTransform="matrix(1,0,0,1.2215406,0,-14.178596)"
       gradientUnits="userSpaceOnUse" />
    <linearGradient
       inkscape:collect="always"
       xlink:href="#linearGradient6978"
       id="linearGradient5924"
       gradientUnits="userSpaceOnUse"
       gradientTransform="matrix(0.25813113,0,0,0.25813113,143.47961,987.8424)"
       x1="64"
       y1="188"
       x2="64"
       y2="8" />
    <linearGradient
       id="linearGradient6978">
      <stop
         id="stop6980"
         style="stop-color:#000000;stop-opacity:0.25"
         offset="0" />
      <stop
         id="stop6982"
         style="stop-color:#000000;stop-opacity:0"
         offset="1" />
    </linearGradient>
    <radialGradient
       inkscape:collect="always"
       xlink:href="#linearGradient4216-4-8-2"
       id="radialGradient5928"
       gradientUnits="userSpaceOnUse"
       gradientTransform="matrix(0.25813113,0,0,0.25813113,143.47961,749.23576)"
       cx="64"
       cy="1020.3622"
       fx="64"
       fy="1020.3622"
       r="52" />
    <linearGradient
       id="linearGradient4216-4-8-2">
      <stop
         id="stop4218-8-0-7"
         style="stop-color:#ffffff;stop-opacity:1"
         offset="0" />
      <stop
         id="stop4220-1-6-4"
         style="stop-color:#c6c6c6;stop-opacity:1"
         offset="1" />
    </linearGradient>
    <linearGradient
       inkscape:collect="always"
       xlink:href="#linearGradient6978"
       id="linearGradient5931"
       gradientUnits="userSpaceOnUse"
       gradientTransform="matrix(0.13725491,0,0,0.13725491,143.21568,1036.127)"
       x1="64"
       y1="188"
       x2="64"
       y2="8" />
    <radialGradient
       inkscape:collect="always"
       xlink:href="#linearGradient4805"
       id="radialGradient4138"
       gradientUnits="userSpaceOnUse"
       gradientTransform="matrix(2.7947587,2.1496624e-7,-2.1496632e-7,2.7947599,-278.18758,-141.72248)"
       cx="155"
       cy="78.977249"
       fx="155"
       fy="78.977249"
       r="3.578125" />
    <radialGradient
       inkscape:collect="always"
       xlink:href="#linearGradient4805"
       id="radialGradient4180"
       cx="151.5"
       cy="120"
       fx="151.5"
       fy="120"
       r="6.5"
       gradientTransform="matrix(1,0,0,1.0769231,0,-9.2307692)"
       gradientUnits="userSpaceOnUse" />
    <radialGradient
       cx="76"
       cy="975.5921"
       r="43.999989"
       fx="76"
       fy="975.5921"
       id="radialGradient7089"
       xlink:href="#linearGradient7003"
       gradientUnits="userSpaceOnUse"
       gradientTransform="matrix(1,0,0,0.91452172,0,84.161995)" />
    <linearGradient
       id="linearGradient7003">
      <stop
         id="stop7005"
         style="stop-color:#17ff06;stop-opacity:1"
         offset="0" />
      <stop
         id="stop7007"
         style="stop-color:#057500;stop-opacity:1"
         offset="1" />
    </linearGradient>
    <radialGradient
       inkscape:collect="always"
       xlink:href="#linearGradient7006"
       id="radialGradient5930"
       gradientUnits="userSpaceOnUse"
       gradientTransform="translate(0,926.36218)"
       cx="88"
       cy="36"
       fx="88"
       fy="36"
       r="51" />
    <linearGradient
       id="linearGradient7006">
      <stop
         id="stop7008"
         style="stop-color:#ffffff;stop-opacity:1"
         offset="0" />
      <stop
         id="stop7010"
         style="stop-color:#ffffff;stop-opacity:0"
         offset="1" />
    </linearGradient>
    <linearGradient
       inkscape:collect="always"
       xlink:href="#linearGradient6978-1"
       id="linearGradient5933"
       gradientUnits="userSpaceOnUse"
       gradientTransform="translate(0,926.36218)"
       x1="64"
       y1="188"
       x2="64"
       y2="8" />
    <linearGradient
       id="linearGradient6978-1">
      <stop
         id="stop6980-7"
         style="stop-color:#000000;stop-opacity:0.25"
         offset="0" />
      <stop
         id="stop6982-7"
         style="stop-color:#000000;stop-opacity:0"
         offset="1" />
    </linearGradient>
    <radialGradient
       inkscape:collect="always"
       xlink:href="#linearGradient4216-4-8-2-5"
       id="radialGradient5937"
       gradientUnits="userSpaceOnUse"
       gradientTransform="translate(0,1.9999974)"
       cx="64"
       cy="1020.3622"
       fx="64"
       fy="1020.3622"
       r="52" />
    <linearGradient
       id="linearGradient4216-4-8-2-5">
      <stop
         id="stop4218-8-0-7-9"
         style="stop-color:#ffffff;stop-opacity:1"
         offset="0" />
      <stop
         id="stop4220-1-6-4-1"
         style="stop-color:#c6c6c6;stop-opacity:1"
         offset="1" />
    </linearGradient>
    <radialGradient
       inkscape:collect="always"
       xlink:href="#linearGradient4805-0"
       id="radialGradient4138-5"
       gradientUnits="userSpaceOnUse"
       gradientTransform="matrix(2.7947587,2.1496624e-7,-2.1496632e-7,2.7947599,-268.94694,731.3028)"
       cx="155"
       cy="78.977249"
       fx="155"
       fy="78.977249"
       r="3.578125" />
    <linearGradient
       inkscape:collect="always"
       id="linearGradient4805-0">
      <stop
         style="stop-color:#62e662;stop-opacity:1;"
         offset="0"
         id="stop4807-7" />
      <stop
         style="stop-color:#008000;stop-opacity:1;"
         offset="1"
         id="stop4809-9" />
    </linearGradient>
    <radialGradient
       inkscape:collect="always"
       xlink:href="#linearGradient4805-0"
       id="radialGradient3140"
       gradientUnits="userSpaceOnUse"
       gradientTransform="matrix(2.7947587,2.1496624e-7,-2.1496632e-7,2.7947599,-268.94694,731.3028)"
       cx="155"
       cy="78.977249"
       fx="155"
       fy="78.977249"
       r="3.578125" />
    <radialGradient
       inkscape:collect="always"
       xlink:href="#linearGradient6961"
       id="radialGradient6967"
       cx="104"
       cy="62.348625"
       fx="104"
       fy="62.348625"
       r="4.5"
       gradientTransform="matrix(15.111111,-2.2866635e-6,1.8326935e-6,12.111111,-1467.5557,213.2513)"
       gradientUnits="userSpaceOnUse" />
    <linearGradient
       id="linearGradient6961">
      <stop
         style="stop-color:#000000;stop-opacity:1;"
         offset="0"
         id="stop6963" />
      <stop
         style="stop-color:#000000;stop-opacity:0.38797814;"
         offset="1"
         id="stop6965" />
    </linearGradient>
    <radialGradient
       inkscape:collect="always"
       xlink:href="#linearGradient5497"
       id="radialGradient5503"
       cx="-40"
       cy="12"
       fx="-40"
       fy="12"
       r="20"
       gradientUnits="userSpaceOnUse"
       gradientTransform="matrix(1.2,0,0,1.2,96.000001,945.96217)" />
    <linearGradient
       id="linearGradient5497">
      <stop
         style="stop-color:#959892;stop-opacity:1;"
         offset="0"
         id="stop5499" />
      <stop
         style="stop-color:#000000;stop-opacity:1;"
         offset="1"
         id="stop5501" />
    </linearGradient>
    <radialGradient
       inkscape:collect="always"
       xlink:href="#linearGradient7006-2"
       id="radialGradient5892"
       gradientUnits="userSpaceOnUse"
       gradientTransform="translate(3.8146973e-7,926.36217)"
       cx="88"
       cy="36"
       fx="88"
       fy="36"
       r="51" />
    <linearGradient
       inkscape:collect="always"
       id="linearGradient7006-2">
      <stop
         style="stop-color:#ffffff;stop-opacity:1;"
         offset="0"
         id="stop7008-0" />
      <stop
         style="stop-color:#ffffff;stop-opacity:0;"
         offset="1"
         id="stop7010-9" />
    </linearGradient>
    <linearGradient
       inkscape:collect="always"
       xlink:href="#linearGradient6978-10"
       id="linearGradient5895"
       gradientUnits="userSpaceOnUse"
       gradientTransform="translate(3.8146973e-7,926.36217)"
       x1="64"
       y1="188"
       x2="64"
       y2="8" />
    <linearGradient
       inkscape:collect="always"
       id="linearGradient6978-10">
      <stop
         style="stop-color:#000000;stop-opacity:0.25"
         offset="0"
         id="stop6980-0" />
      <stop
         style="stop-color:#000000;stop-opacity:0;"
         offset="1"
         id="stop6982-73" />
    </linearGradient>
    <radialGradient
       inkscape:collect="always"
       xlink:href="#linearGradient4216-4-8-2-7"
       id="radialGradient5899"
       gradientUnits="userSpaceOnUse"
       gradientTransform="translate(3.8146973e-7,1.9999882)"
       cx="64"
       cy="1020.3622"
       fx="64"
       fy="1020.3622"
       r="52" />
    <linearGradient
       id="linearGradient4216-4-8-2-7">
      <stop
         id="stop4218-8-0-7-97"
         offset="0"
         style="stop-color:#ffffff;stop-opacity:1;" />
      <stop
         id="stop4220-1-6-4-5"
         offset="1"
         style="stop-color:#c6c6c6;stop-opacity:1;" />
    </linearGradient>
    <filter
       color-interpolation-filters="sRGB"
       inkscape:collect="always"
       id="filter6960">
      <feGaussianBlur
         inkscape:collect="always"
         stdDeviation="4.16"
         id="feGaussianBlur6962" />
    </filter>
  </defs>
  <sodipodi:namedview
     id="base"
     pagecolor="#ffffff"
     bordercolor="#666666"
     borderopacity="1.0"
     inkscape:pageopacity="0.0"
     inkscape:pageshadow="2"
     inkscape:zoom="1.4609375"
     inkscape:cx="-4.6871799"
     inkscape:cy="-6.7665479"
     inkscape:document-units="px"
     inkscape:current-layer="layer1"
     showgrid="true"
     inkscape:window-width="1375"
     inkscape:window-height="876"
     inkscape:window-x="1345"
     inkscape:window-y="148"
     inkscape:window-maximized="1"
     showguides="true"
     inkscape:guide-bbox="true">
    <inkscape:grid
       type="xygrid"
       id="grid2985"
       empspacing="2"
       visible="true"
       enabled="true"
       snapvisiblegridlinesonly="true" />
  </sodipodi:namedview>
  <metadata
     id="metadata7">
    <rdf:RDF>
      <cc:Work
         rdf:about="">
        <dc:format>image/svg+xml</dc:format>
        <dc:type
           rdf:resource="http://purl.org/dc/dcmitype/StillImage" />
        <dc:title />
      </cc:Work>
    </rdf:RDF>
  </metadata>
  <g
     inkscape:label="Layer 1"
     inkscape:groupmode="layer"
     id="layer1"
     transform="translate(0,-924.36218)">
    <path
       inkscape:connector-curvature="0"
       style="opacity:0.25;fill:#000000;fill-opacity:1;stroke:#000000;stroke-width:3;stroke-miterlimit:4;stroke-dasharray:none"
       id="path7219"
       d="m 148.65625,989.89343 c -1.14404,0 -2.09375,0.94971 -2.09375,2.09375 l 0,1.03125 0,21.65627 0,1.0312 c 0,1.1441 0.94971,2.0938 2.09375,2.0938 l 22.6875,0 c 1.14404,0 2.09375,-0.9497 2.09375,-2.0938 l 0,-1.0312 0,-21.65627 0,-1.03125 c 0,-1.14404 -0.94971,-2.09375 -2.09375,-2.09375 l -22.6875,0 z" />
    <path
       inkscape:connector-curvature="0"
       style="opacity:0.25;fill:#000000;fill-opacity:1;stroke:#000000;stroke-width:2;stroke-miterlimit:4;stroke-dasharray:none"
       id="path7217"
       d="m 148.65625,989.89343 c -1.14404,0 -2.09375,0.94971 -2.09375,2.09375 l 0,1.03125 0,21.65627 0,1.0312 c 0,1.1441 0.94971,2.0938 2.09375,2.0938 l 22.6875,0 c 1.14404,0 2.09375,-0.9497 2.09375,-2.0938 l 0,-1.0312 0,-21.65627 0,-1.03125 c 0,-1.14404 -0.94971,-2.09375 -2.09375,-2.09375 l -22.6875,0 z" />
    <path
       inkscape:connector-curvature="0"
       style="opacity:0.5;fill:#000000;fill-opacity:1;stroke:#000000"
       id="rect7185"
       d="m 148.65625,989.89343 c -1.14404,0 -2.09375,0.94971 -2.09375,2.09375 l 0,1.03125 0,21.65627 0,1.0312 c 0,1.1441 0.94971,2.0938 2.09375,2.0938 l 22.6875,0 c 1.14404,0 2.09375,-0.9497 2.09375,-2.0938 l 0,-1.0312 0,-21.65627 0,-1.03125 c 0,-1.14404 -0.94971,-2.09375 -2.09375,-2.09375 l -22.6875,0 z" />
    <rect
       style="fill:#333333;fill-opacity:1;stroke:none"
       id="rect7150"
       y="1036.3622"
       x="144"
       ry="1"
       rx="1"
       height="16"
       width="16" />
    <text
       sodipodi:linespacing="125%"
       style="font-size:16px;font-style:normal;font-weight:normal;line-height:125%;letter-spacing:0px;word-spacing:0px;fill:#000000;fill-opacity:1;stroke:none;font-family:Sans"
       xml:space="preserve"
       id="text5901"
       y="1000.3622"
       x="184"><tspan
         id="tspan5903"
         y="1000.3622"
         x="184">31 - 17</tspan></text>
    <text
       sodipodi:linespacing="125%"
       style="font-size:16px;font-style:normal;font-weight:normal;line-height:125%;letter-spacing:0px;word-spacing:0px;fill:#000000;fill-opacity:1;stroke:none;font-family:Sans"
       xml:space="preserve"
       id="text5905"
       y="1048.3622"
       x="172"><tspan
         id="tspan5907"
         y="1048.3622"
         x="172">16</tspan></text>
    <rect
       style="fill:none;stroke:#000000;stroke-width:1;stroke-linecap:round;stroke-linejoin:round;stroke-miterlimit:4;stroke-opacity:1;stroke-dasharray:none;stroke-dashoffset:0"
       id="rect5919"
       y="984.36218"
       x="140"
       rx="4.5902016e-07"
       height="40"
       width="40" />
    <rect
       style="fill:none;stroke:#000000;stroke-width:1;stroke-linecap:round;stroke-linejoin:round;stroke-miterlimit:4;stroke-opacity:1;stroke-dasharray:none;stroke-dashoffset:0"
       id="rect5921"
       y="1032.3622"
       x="140"
       rx="4.5902016e-07"
       height="24"
       width="24" />
    <rect
       style="fill:#b3b3b3;fill-opacity:1;stroke:none"
       id="rect6935"
       y="980.36218"
       x="144"
       rx="4.5902016e-07"
       height="4"
       width="32" />
    <rect
       style="fill:#b3b3b3;fill-opacity:1;stroke:none"
       id="rect6937"
       y="988.36218"
       x="136"
       rx="4.5902016e-07"
       height="32"
       width="4" />
    <rect
       style="fill:#b3b3b3;fill-opacity:1;stroke:none"
       id="rect6939"
       y="1028.3622"
       x="144"
       rx="4.5902016e-07"
       height="4"
       width="16" />
    <rect
       style="fill:#b3b3b3;fill-opacity:1;stroke:none"
       id="rect6941"
       y="1036.3622"
       x="136"
       rx="4.5902016e-07"
       height="16"
       width="4" />
    <rect
       style="fill:#ffffff;fill-opacity:1;stroke:none"
       id="rect7118"
       y="1037.3622"
       x="145"
       ry="1.0769231"
       rx="1.0769231"
       height="14"
       width="14" />
    <rect
       style="opacity:0.5;fill:url(#linearGradient5931);fill-opacity:1;stroke:none"
       id="rect7120"
       y="1037.3622"
       x="145"
       ry="1.0980393"
       rx="1.0980393"
       height="14"
       width="14" />
    <rect
       style="fill:url(#radialGradient5928);fill-opacity:1;stroke:none"
       id="rect5952"
       y="990.94"
       x="146.57718"
       ry="2.0650492"
       rx="2.0650492"
       height="26.845638"
       width="26.845638" />
    <rect
       style="fill:#ffffff;fill-opacity:1;stroke:none"
       id="rect5954"
       y="989.90741"
       x="146.57718"
       ry="2.0650492"
       rx="2.0650492"
       height="26.845638"
       width="26.845638" />
    <rect
       style="opacity:0.5;fill:url(#linearGradient5924);fill-opacity:1;stroke:none"
       id="rect5956"
       y="990.16559"
       x="146.83531"
       ry="2.0650492"
       rx="2.0650492"
       height="26.329376"
       width="26.329376" />
    <text
       sodipodi:linespacing="125%"
       style="font-size:24px;font-style:normal;font-weight:normal;line-height:125%;letter-spacing:0px;word-spacing:0px;fill:#000000;fill-opacity:1;stroke:none;font-family:Sans"
       xml:space="preserve"
       id="text5893"
       y="948.36218"
       x="-56"><tspan
         id="tspan5895"
         y="948.36218"
         x="-56">128</tspan></text>
    <path
       style="fill:#254400;fill-opacity:1;stroke:none"
       d="M 146.84375 90 C 146.74449 90 146.65795 90.017839 146.5625 90.03125 L 146.5625 91.34375 C 146.5625 92.487787 147.51221 93.4375 148.65625 93.4375 L 154 93.4375 C 154.00014 93.427373 154 93.416413 154 93.40625 L 154 92.0625 C 154 90.918463 153.08154 90 151.9375 90 L 146.84375 90 z "
       transform="translate(0,924.36218)"
       id="rect4161" />
    <path
       style="fill:url(#radialGradient4138);fill-opacity:1;stroke:none"
       d="M 148.65625 65.53125 C 147.51221 65.53125 146.5625 66.480963 146.5625 67.625 L 146.5625 90.3125 C 146.5625 91.456537 147.51221 92.40625 148.65625 92.40625 L 154 92.40625 L 154 92.125 L 154 65.8125 L 154 65.53125 L 148.65625 65.53125 z M 156 66 L 156 68 L 171 68 L 171 66 L 156 66 z "
       transform="translate(0,924.36218)"
       id="rect3346" />
    <path
       style="fill:#cccccc;fill-opacity:1;stroke:none"
       d="M 156 68 L 156 70 L 161 70 L 161 68 L 156 68 z M 161 70 L 161 72 L 166 72 L 166 70 L 161 70 z M 166 70 L 171 70 L 171 68 L 166 68 L 166 70 z M 166 72 L 166 74 L 171 74 L 171 72 L 166 72 z M 166 74 L 161 74 L 161 76 L 166 76 L 166 74 z M 166 76 L 166 78 L 171 78 L 171 76 L 166 76 z M 166 78 L 161 78 L 161 80 L 166 80 L 166 78 z M 161 80 L 156 80 L 156 82 L 161 82 L 161 80 z M 161 78 L 161 76 L 156 76 L 156 78 L 161 78 z M 161 74 L 161 72 L 156 72 L 156 74 L 161 74 z "
       transform="translate(0,924.36218)"
       id="rect4141" />
    <path
       style="fill:url(#radialGradient4180);fill-opacity:1.0;stroke:none"
       d="M 146.09375 113 C 145.48544 113 145 113.48544 145 114.09375 L 145 125.90625 C 145 126.51456 145.48544 127 146.09375 127 L 149 127 L 149 113.0625 C 149 113.04063 149.00067 113.0217 149 113 L 146.09375 113 z M 150 113 L 150 115 L 158 115 L 158 113 L 150 113 z "
       transform="translate(0,924.36218)"
       id="rect4166" />
    <path
       style="fill:#cccccc;fill-opacity:1;stroke:none"
       d="M 150 115 L 150 117 L 154 117 L 154 115 L 150 115 z M 154 117 L 154 119 L 158 119 L 158 117 L 154 117 z M 154 119 L 150 119 L 150 121 L 154 121 L 154 119 z M 154 121 L 154 123 L 158 123 L 158 121 L 154 121 z M 154 123 L 150 123 L 150 125 L 154 125 L 154 123 z "
       transform="translate(0,924.36218)"
       id="rect4182" />
    <rect
       ry="8"
       rx="8"
       y="938.36218"
       x="12"
       height="104"
       width="104"
       id="rect6938"
       style="fill:#000000;fill-opacity:1;stroke:none;filter:url(#filter6960)" />
    <rect
       style="fill:url(#radialGradient5899);fill-opacity:1;stroke:none"
       id="rect6936"
       width="104"
       height="104"
       x="12"
       y="938.36218"
       rx="8"
       ry="8" />
    <rect
       ry="8"
       rx="8"
       y="934.36218"
       x="12"
       height="104"
       width="104"
       id="rect6964"
       style="fill:#ffffff;fill-opacity:1;stroke:none" />
    <rect
       style="opacity:0.5;fill:url(#linearGradient5895);fill-opacity:1;stroke:none"
       id="rect6975"
       width="102"
       height="102"
       x="13"
       y="935.36218"
       rx="8"
       ry="8" />
    <rect
       ry="8"
       rx="8"
       y="935.36218"
       x="13"
       height="102"
       width="102"
       id="rect7002"
       style="opacity:0.5;fill:url(#radialGradient5892);fill-opacity:1;stroke:none" />
    <g
       id="g3135"
       transform="matrix(3.8701586,0,0,3.8701586,-590.98286,-2698.0004)">
      <path
         id="rect4161-4"
         d="m 156.08439,963.0253 c -0.0993,0 -0.1858,0.018 -0.28125,0.031 l 0,1.3125 c 0,1.144 0.94971,2.0937 2.09375,2.0937 l 5.34375,0 c 1.4e-4,-0.01 0,-0.021 0,-0.031 l 0,-1.3437 c 0,-1.1441 -0.91846,-2.0625 -2.0625,-2.0625 l -5.09375,0 z"
         style="fill:#254400;fill-opacity:1;stroke:none"
         inkscape:connector-curvature="0" />
      <path
         id="rect3346-5"
         d="m 157.89689,938.55653 c -1.14404,0 -2.09375,0.94971 -2.09375,2.09375 l 0,22.68752 c 0,1.144 0.94971,2.0937 2.09375,2.0937 l 5.34375,0 0,-0.2812 0,-26.31252 0,-0.28125 -5.34375,0 z m 7.34375,0.46875 0,2 15,0 0,-2 -15,0 z"
         style="fill:url(#radialGradient3140);fill-opacity:1;stroke:none"
         inkscape:connector-curvature="0" />
      <path
         id="rect4141-9"
         d="m 165.24064,941.02528 0,2 5,0 0,-2 -5,0 z m 5,2 0,2 5,0 0,-2 -5,0 z m 5,0 5,0 0,-2 -5,0 0,2 z m 0,2 0,2 5,0 0,-2 -5,0 z m 0,2 -5,0 0,2.00002 5,0 0,-2.00002 z m 0,2.00002 0,2 5,0 0,-2 -5,0 z m 0,2 -5,0 0,2 5,0 0,-2 z m -5,2 -5,0 0,2 5,0 0,-2 z m 0,-2 0,-2 -5,0 0,2 5,0 z m 0,-4.00002 0,-2 -5,0 0,2 5,0 z"
         style="fill:#cccccc;fill-opacity:1;stroke:none"
         inkscape:connector-curvature="0" />
    </g>
  </g>
</svg>
