<?xml version="1.0" encoding="UTF-8" standalone="no"?>
<!-- Created with Inkscape (http://www.inkscape.org/) -->

<svg
   xmlns:dc="http://purl.org/dc/elements/1.1/"
   xmlns:cc="http://creativecommons.org/ns#"
   xmlns:rdf="http://www.w3.org/1999/02/22-rdf-syntax-ns#"
   xmlns:svg="http://www.w3.org/2000/svg"
   xmlns="http://www.w3.org/2000/svg"
   xmlns:xlink="http://www.w3.org/1999/xlink"
   xmlns:sodipodi="http://sodipodi.sourceforge.net/DTD/sodipodi-0.dtd"
   xmlns:inkscape="http://www.inkscape.org/namespaces/inkscape"
   sodipodi:docname="emblem-downloads.svg"
   inkscape:version="0.48.4 r9939"
   version="1.1"
   id="svg2"
   height="128"
   width="128">
  <sodipodi:namedview
     id="base"
     pagecolor="#ffffff"
     bordercolor="#666666"
     borderopacity="1.0"
     inkscape:pageopacity="0.0"
     inkscape:pageshadow="2"
     inkscape:zoom="3.6203869"
     inkscape:cx="105.86681"
     inkscape:cy="65.505248"
     inkscape:document-units="px"
     inkscape:current-layer="layer1"
     showgrid="true"
     showguides="true"
     inkscape:guide-bbox="true"
     inkscape:window-width="1375"
     inkscape:window-height="876"
     inkscape:window-x="1345"
     inkscape:window-y="148"
     inkscape:window-maximized="1">
    <inkscape:grid
       snapvisiblegridlinesonly="true"
       enabled="true"
       visible="true"
       empspacing="4"
       id="grid2985"
       type="xygrid" />
  </sodipodi:namedview>
  <defs
     id="defs4">
    <linearGradient
       id="linearGradient7110">
      <stop
         style="stop-color:#5a5a5a;stop-opacity:1;"
         offset="0"
         id="stop7112" />
      <stop
         style="stop-color:#202020;stop-opacity:1;"
         offset="1"
         id="stop7114" />
    </linearGradient>
    <linearGradient
       id="linearGradient4216-4-8-2">
      <stop
         id="stop4218-8-0-7"
         offset="0"
         style="stop-color:#494949;stop-opacity:1;" />
      <stop
         id="stop4220-1-6-4"
         offset="1"
         style="stop-color:#0f0f0f;stop-opacity:1;" />
    </linearGradient>
    <radialGradient
       inkscape:collect="always"
       xlink:href="#linearGradient4216-4-8-2"
       id="radialGradient5899"
       gradientUnits="userSpaceOnUse"
       gradientTransform="translate(0,2)"
       cx="64"
       cy="1020.3622"
       fx="64"
       fy="1020.3622"
       r="52" />
    <linearGradient
       id="linearGradient8794-33">
      <stop
         style="stop-color:#ffffff;stop-opacity:1;"
         offset="0"
         id="stop8796-9" />
      <stop
         style="stop-color:#cacaca;stop-opacity:1;"
         offset="1"
         id="stop8798-6" />
    </linearGradient>
    <radialGradient
       inkscape:collect="always"
       xlink:href="#linearGradient7110"
       id="radialGradient7116"
       cx="80"
       cy="972.36218"
       fx="80"
       fy="972.36218"
       r="52.5"
       gradientUnits="userSpaceOnUse" />
    <radialGradient
       inkscape:collect="always"
       xlink:href="#linearGradient7110"
       id="radialGradient6861"
       cx="154"
       cy="118"
       fx="154"
       fy="118"
       r="8"
       gradientUnits="userSpaceOnUse" />
    <radialGradient
       inkscape:collect="always"
       xlink:href="#linearGradient8794-33"
       id="radialGradient6865"
       gradientUnits="userSpaceOnUse"
       cx="154"
       cy="118"
       fx="154"
       fy="118"
       r="8"
       gradientTransform="matrix(4.5,0,0,4.5,-620,446.36216)" />
    <radialGradient
       inkscape:collect="always"
       xlink:href="#linearGradient8794-33"
       id="radialGradient6883"
       gradientUnits="userSpaceOnUse"
       gradientTransform="matrix(4.5,0,0,4.5,-620,446.36216)"
       cx="154"
       cy="118"
       fx="154"
       fy="118"
       r="8" />
    <radialGradient
       inkscape:collect="always"
       xlink:href="#linearGradient7110-7"
       id="radialGradient6761"
       gradientUnits="userSpaceOnUse"
       gradientTransform="matrix(0.76126091,0,0,1.0943125,15.279286,916.51481)"
       cx="84"
       cy="46.695652"
       fx="84"
       fy="46.695652"
       r="32" />
    <linearGradient
       id="linearGradient7110-7">
      <stop
         style="stop-color:#5a5a5a;stop-opacity:1;"
         offset="0"
         id="stop7112-5" />
      <stop
         style="stop-color:#202020;stop-opacity:1;"
         offset="1"
         id="stop7114-2" />
    </linearGradient>
    <radialGradient
       inkscape:collect="always"
       xlink:href="#linearGradient7006-8"
       id="radialGradient6053"
       gradientUnits="userSpaceOnUse"
       gradientTransform="translate(1.1814697e-6,924.36217)"
       cx="88"
       cy="36"
       fx="88"
       fy="36"
       r="51" />
    <linearGradient
       inkscape:collect="always"
       id="linearGradient7006-8">
      <stop
         style="stop-color:#ffffff;stop-opacity:1;"
         offset="0"
         id="stop7008-1" />
      <stop
         style="stop-color:#ffffff;stop-opacity:0;"
         offset="1"
         id="stop7010-1" />
    </linearGradient>
    <linearGradient
       inkscape:collect="always"
       xlink:href="#linearGradient6978-3"
       id="linearGradient6051"
       gradientUnits="userSpaceOnUse"
       gradientTransform="translate(1.1814697e-6,924.36217)"
       x1="64"
       y1="188"
       x2="64"
       y2="8" />
    <linearGradient
       inkscape:collect="always"
       id="linearGradient6978-3">
      <stop
         style="stop-color:#000000;stop-opacity:0.25"
         offset="0"
         id="stop6980-5" />
      <stop
         style="stop-color:#000000;stop-opacity:0;"
         offset="1"
         id="stop6982-7" />
    </linearGradient>
    <radialGradient
       inkscape:collect="always"
       xlink:href="#linearGradient4216-4-8-2-6"
       id="radialGradient6049"
       gradientUnits="userSpaceOnUse"
       gradientTransform="translate(1.1814697e-6,-3.1772461e-5)"
       cx="64"
       cy="1020.3622"
       fx="64"
       fy="1020.3622"
       r="52" />
    <linearGradient
       id="linearGradient4216-4-8-2-6">
      <stop
         id="stop4218-8-0-7-4"
         offset="0"
         style="stop-color:#ffffff;stop-opacity:1;" />
      <stop
         id="stop4220-1-6-4-0"
         offset="1"
         style="stop-color:#c6c6c6;stop-opacity:1;" />
    </linearGradient>
    <filter
       color-interpolation-filters="sRGB"
       inkscape:collect="always"
       id="filter6960">
      <feGaussianBlur
         inkscape:collect="always"
         stdDeviation="4.16"
         id="feGaussianBlur6962" />
    </filter>
    <radialGradient
       r="32"
       fy="46.695652"
       fx="84"
       cy="46.695652"
       cx="84"
       gradientTransform="matrix(0.76126091,0,0,1.0943125,15.279286,916.51481)"
       gradientUnits="userSpaceOnUse"
       id="radialGradient8056"
       xlink:href="#linearGradient7110-7"
       inkscape:collect="always" />
    <radialGradient
       inkscape:collect="always"
       xlink:href="#linearGradient7110"
       id="radialGradient3863"
       gradientUnits="userSpaceOnUse"
       gradientTransform="matrix(1.6129028,0,0,1.6129028,-85.161227,810.81383)"
       cx="154"
       cy="118"
       fx="154"
       fy="118"
       r="8" />
    <radialGradient
       inkscape:collect="always"
       xlink:href="#linearGradient7110"
       id="radialGradient3868"
       gradientUnits="userSpaceOnUse"
       gradientTransform="matrix(4.4524659,0,0,4.4524659,-612.77483,450.06619)"
       cx="154"
       cy="118"
       fx="154"
       fy="118"
       r="8" />
    <radialGradient
       inkscape:collect="always"
       xlink:href="#linearGradient7110"
       id="radialGradient3048"
       gradientUnits="userSpaceOnUse"
       cx="154"
       cy="118"
       fx="154"
       fy="118"
       r="8" />
    <radialGradient
       inkscape:collect="always"
       xlink:href="#linearGradient7110"
       id="radialGradient3051"
       gradientUnits="userSpaceOnUse"
       cx="154"
       cy="118"
       fx="154"
       fy="118"
       r="8" />
    <radialGradient
       inkscape:collect="always"
       xlink:href="#linearGradient7110"
       id="radialGradient3824"
       gradientUnits="userSpaceOnUse"
       cx="154"
       cy="118"
       fx="154"
       fy="118"
       r="8"
       gradientTransform="matrix(1.625,0,0,1.625,-87,809.36216)" />
    <radialGradient
       inkscape:collect="always"
       xlink:href="#linearGradient7110"
       id="radialGradient3828"
       gradientUnits="userSpaceOnUse"
       gradientTransform="matrix(4.4537018,0,0,4.4537018,-612.96269,449.91783)"
       cx="154"
       cy="118"
       fx="154"
       fy="118"
       r="8" />
  </defs>
  <metadata
     id="metadata7">
    <rdf:RDF>
      <cc:Work
         rdf:about="">
        <dc:format>image/svg+xml</dc:format>
        <dc:type
           rdf:resource="http://purl.org/dc/dcmitype/StillImage" />
        <dc:title />
      </cc:Work>
    </rdf:RDF>
  </metadata>
  <g
     transform="translate(0,-924.36218)"
     id="layer1"
     inkscape:groupmode="layer"
     inkscape:label="Layer 1">
    <path
       id="path3822"
       d="m 155.125,991.36218 0,0.9648 0,1.7774 0,3.7578 -1.625,0 -2.84375,0 c 0.77116,-1.1027 1.73656,-2.073 2.84375,-2.8438 l 0,-1.8789 c -3.87671,2.2501 -6.5,6.4176 -6.5,11.22272 0,7.1797 5.82029,13 13,13 7.17969,0 13,-5.8203 13,-13 0,-4.80512 -2.62329,-8.97262 -6.5,-11.22272 l 0,1.8789 c 1.10719,0.7708 2.07259,1.7411 2.84375,2.8438 l -2.84375,0 -1.625,0 0,-3.7578 0,-1.7774 0,-0.9648 -4.875,0 -4.875,0 z m -4.67188,6.8554 9.54688,17.51962 9.54687,-17.51962 c 1.14841,1.7767 1.82813,3.87172 1.82813,6.14462 0,6.2822 -5.09277,11.375 -11.375,11.375 -6.28223,0 -11.375,-5.0928 -11.375,-11.375 0,-2.2729 0.67972,-4.36792 1.82812,-6.14462 z"
       style="fill:url(#radialGradient3824);fill-opacity:1;stroke:#000000;stroke-linejoin:round;stroke-opacity:0.1882353"
       inkscape:connector-curvature="0" />
    <text
       xml:space="preserve"
       style="font-size:24px;font-style:normal;font-weight:normal;line-height:125%;letter-spacing:0px;word-spacing:0px;fill:#000000;fill-opacity:1;stroke:none;font-family:Sans"
       x="-56"
       y="948.36218"
       id="text5893"
       sodipodi:linespacing="125%"><tspan
         sodipodi:role="line"
         id="tspan5895"
         x="-56"
         y="948.36218">128</tspan></text>
    <text
       sodipodi:linespacing="125%"
       id="text5901"
       y="1000.3622"
       x="184"
       style="font-size:16px;font-style:normal;font-weight:normal;line-height:125%;letter-spacing:0px;word-spacing:0px;fill:#000000;fill-opacity:1;stroke:none;font-family:Sans"
       xml:space="preserve"><tspan
         y="1000.3622"
         x="184"
         id="tspan5903"
         sodipodi:role="line">31 - 17</tspan></text>
    <text
       xml:space="preserve"
       style="font-size:16px;font-style:normal;font-weight:normal;line-height:125%;letter-spacing:0px;word-spacing:0px;fill:#000000;fill-opacity:1;stroke:none;font-family:Sans"
       x="172"
       y="1048.3622"
       id="text5905"
       sodipodi:linespacing="125%"><tspan
         sodipodi:role="line"
         id="tspan5907"
         x="172"
         y="1048.3622">16</tspan></text>
    <rect
       style="fill:none;stroke:#000000;stroke-width:1;stroke-linecap:round;stroke-linejoin:round;stroke-miterlimit:4;stroke-opacity:1;stroke-dasharray:none;stroke-dashoffset:0"
       id="rect5919"
       width="40"
       height="40"
       x="140"
       y="60"
       transform="translate(0,924.36218)"
       rx="4.5902016e-07" />
    <rect
       style="fill:none;stroke:#000000;stroke-width:1;stroke-linecap:round;stroke-linejoin:round;stroke-miterlimit:4;stroke-opacity:1;stroke-dasharray:none;stroke-dashoffset:0"
       id="rect5921"
       width="24"
       height="24"
       x="140"
       y="1032.3622"
       rx="4.5902016e-07" />
    <rect
       style="fill:#b3b3b3;fill-opacity:1;stroke:none"
       id="rect6935"
       width="32"
       height="4"
       x="144"
       y="56"
       transform="translate(0,924.36218)"
       rx="4.5902016e-07" />
    <rect
       style="fill:#b3b3b3;fill-opacity:1;stroke:none"
       id="rect6937"
       width="4"
       height="32"
       x="136"
       y="64"
       transform="translate(0,924.36218)"
       rx="4.5902016e-07" />
    <rect
       style="fill:#b3b3b3;fill-opacity:1;stroke:none"
       id="rect6939"
       width="16"
       height="4"
       x="144"
       y="104"
       rx="4.5902016e-07"
       transform="translate(0,924.36218)" />
    <rect
       style="fill:#b3b3b3;fill-opacity:1;stroke:none"
       id="rect6941"
       width="4"
       height="16"
       x="136"
       y="112"
       transform="translate(0,924.36218)"
       rx="4.5902016e-07" />
    <path
       style="fill:url(#radialGradient3051);fill-opacity:1;stroke:none"
       d="M 149 112 L 149 112.59375 L 149 113.6875 L 149 116 L 148 116 L 146.25 116 C 146.72456 115.32145 147.31865 114.72433 148 114.25 L 148 113.09375 C 145.61433 114.4784 144 117.043 144 120 C 144 124.4183 147.58172 128 152 128 C 156.41827 128 160 124.4183 160 120 C 160 117.043 158.38567 114.4784 156 113.09375 L 156 114.25 C 156.68135 114.72433 157.27544 115.32145 157.75 116 L 156 116 L 155 116 L 155 113.6875 L 155 112.59375 L 155 112 L 152 112 L 149 112 z M 146.125 116.21875 L 152 127 L 157.875 116.21875 C 158.58171 117.31207 159 118.60129 159 120 C 159 123.866 155.86599 127 152 127 C 148.13401 127 145 123.866 145 120 C 145 118.60129 145.41829 117.31207 146.125 116.21875 z "
       transform="translate(0,924.36218)"
       id="path10768" />
    <path
       style="fill:url(#radialGradient8056);fill-opacity:1;stroke:none"
       d="m 42.695436,949.33806 c -1.68696,0 -3.05214,1.3652 -3.05214,3.05216 l 0,63.94388 c 0,1.6871 1.36518,3.0522 3.05214,3.0522 l 42.6091,0 c 1.68697,0 3.05217,-1.3651 3.05217,-3.0522 l 0,-57.86982 -9.12622,-9.12622 -36.53505,0 z m 3.02192,6.1043 30.46099,0 6.10427,6.07406 0,51.76548 -36.56526,0 0,-57.83954 z m 9.54928,17.25519 -2.93127,2.93135 0,20.39788 8.03832,-8.0383 -5.10705,0 0,-10.90908 1.45053,-1.4505 14.56567,0 1.4505,1.4505 0,14.56558 -1.4505,1.4505 -12.3899,0 -2.90105,2.9313 16.74145,0 2.93127,-2.9313 0,-17.46658 -2.93127,-2.93135 -17.4667,0 z"
       id="path6759"
       inkscape:connector-curvature="0" />
    <rect
       ry="8"
       rx="8"
       y="936.36218"
       x="12"
       height="104"
       width="104"
       id="rect6938"
       style="fill:#000000;fill-opacity:1;stroke:none;filter:url(#filter6960)" />
    <rect
       style="fill:url(#radialGradient6049);fill-opacity:1;stroke:none"
       id="rect6936-6"
       width="104"
       height="104"
       x="12"
       y="936.36218"
       rx="8"
       ry="8" />
    <rect
       ry="8"
       rx="8"
       y="932.36218"
       x="12"
       height="104"
       width="104"
       id="rect6964-2"
       style="fill:#ffffff;fill-opacity:1;stroke:none" />
    <rect
       style="opacity:0.5;fill:url(#linearGradient6051);fill-opacity:1;stroke:none"
       id="rect6975"
       width="102"
       height="102"
       x="13"
       y="933.36218"
       rx="8"
       ry="8" />
    <rect
       ry="8"
       rx="8"
       y="933.36218"
       x="13"
       height="102"
       width="102"
       id="rect7002"
       style="opacity:0.5;fill:url(#radialGradient6053);fill-opacity:1;stroke:none" />
    <path
       inkscape:connector-curvature="0"
       style="fill:url(#radialGradient3828);fill-opacity:1;stroke:#000000;stroke-width:2.74073958;stroke-linejoin:round;stroke-opacity:0.18823529"
       d="m 50.63889,948.73256 0,2.64426 0,4.87139 0,10.29916 -4.4537,0 -7.79398,0 c 2.11355,-3.02222 4.75946,-5.68156 7.79398,-7.79412 l 0,-5.14958 c -10.62505,6.16694 -17.81481,17.58897 -17.81481,30.75854 0,19.67769 15.9519,35.62959 35.62962,35.62959 19.67766,0 35.62962,-15.9519 35.62962,-35.62959 0,-13.16957 -7.18976,-24.5916 -17.81481,-30.75854 l 0,5.14958 c 3.03452,2.11256 5.68043,4.7719 7.79398,7.79412 l -7.79398,0 -4.4537,0 0,-10.29916 0,-4.87139 0,-2.64426 -13.36111,0 -13.36111,0 z M 37.83449,967.52142 64,1015.5381 90.16548,967.52142 c 3.1475,4.86948 5.01043,10.61138 5.01043,16.84079 0,17.21789 -13.95795,31.17589 -31.17591,31.17589 -17.21796,0 -31.17591,-13.958 -31.17591,-31.17589 0,-6.22941 1.86293,-11.97131 5.0104,-16.84079 z"
       id="path3826" />
  </g>
</svg>
