<?xml version="1.0" encoding="UTF-8" standalone="no"?>
<!-- Created with Inkscape (http://www.inkscape.org/) -->

<svg
   xmlns:dc="http://purl.org/dc/elements/1.1/"
   xmlns:cc="http://creativecommons.org/ns#"
   xmlns:rdf="http://www.w3.org/1999/02/22-rdf-syntax-ns#"
   xmlns:svg="http://www.w3.org/2000/svg"
   xmlns="http://www.w3.org/2000/svg"
   xmlns:xlink="http://www.w3.org/1999/xlink"
   xmlns:sodipodi="http://sodipodi.sourceforge.net/DTD/sodipodi-0.dtd"
   xmlns:inkscape="http://www.inkscape.org/namespaces/inkscape"
   sodipodi:docname="media-eject.svg"
   inkscape:version="0.48.4 r9939"
   version="1.1"
   id="svg2"
   height="128"
   width="128">
  <sodipodi:namedview
     id="base"
     pagecolor="#ffffff"
     bordercolor="#666666"
     borderopacity="1.0"
     inkscape:pageopacity="0.0"
     inkscape:pageshadow="2"
     inkscape:zoom="1.8101934"
     inkscape:cx="67.867973"
     inkscape:cy="34.524714"
     inkscape:document-units="px"
     inkscape:current-layer="layer1"
     showgrid="true"
     showguides="true"
     inkscape:guide-bbox="true"
     inkscape:window-width="1375"
     inkscape:window-height="876"
     inkscape:window-x="1345"
     inkscape:window-y="148"
     inkscape:window-maximized="1">
    <inkscape:grid
       snapvisiblegridlinesonly="true"
       enabled="true"
       visible="true"
       empspacing="4"
       id="grid2985"
       type="xygrid" />
  </sodipodi:namedview>
  <defs
     id="defs4">
    <linearGradient
       id="linearGradient4216-4-8-2">
      <stop
         id="stop4218-8-0-7"
         offset="0"
         style="stop-color:#494949;stop-opacity:1;" />
      <stop
         id="stop4220-1-6-4"
         offset="1"
         style="stop-color:#0f0f0f;stop-opacity:1;" />
    </linearGradient>
    <filter
       color-interpolation-filters="sRGB"
       inkscape:collect="always"
       id="filter6960">
      <feGaussianBlur
         inkscape:collect="always"
         stdDeviation="4.16"
         id="feGaussianBlur6962" />
    </filter>
    <linearGradient
       id="linearGradient4216-4-8-2-6">
      <stop
         id="stop4218-8-0-7-4"
         offset="0"
         style="stop-color:#ffffff;stop-opacity:1;" />
      <stop
         id="stop4220-1-6-4-0"
         offset="1"
         style="stop-color:#c6c6c6;stop-opacity:1;" />
    </linearGradient>
    <linearGradient
       inkscape:collect="always"
       id="linearGradient6978">
      <stop
         style="stop-color:#000000;stop-opacity:0.25"
         offset="0"
         id="stop6980" />
      <stop
         style="stop-color:#000000;stop-opacity:0;"
         offset="1"
         id="stop6982" />
    </linearGradient>
    <linearGradient
       inkscape:collect="always"
       id="linearGradient7006">
      <stop
         style="stop-color:#ffffff;stop-opacity:1;"
         offset="0"
         id="stop7008" />
      <stop
         style="stop-color:#ffffff;stop-opacity:0;"
         offset="1"
         id="stop7010" />
    </linearGradient>
    <radialGradient
       inkscape:collect="always"
       xlink:href="#linearGradient7006"
       id="radialGradient3164"
       gradientUnits="userSpaceOnUse"
       gradientTransform="translate(0,924.3622)"
       cx="88"
       cy="36"
       fx="88"
       fy="36"
       r="51" />
    <linearGradient
       inkscape:collect="always"
       xlink:href="#linearGradient6978"
       id="linearGradient3167"
       gradientUnits="userSpaceOnUse"
       gradientTransform="translate(0,924.3622)"
       x1="64"
       y1="188"
       x2="64"
       y2="8" />
    <radialGradient
       inkscape:collect="always"
       xlink:href="#linearGradient4216-4-8-2-6"
       id="radialGradient3171"
       gradientUnits="userSpaceOnUse"
       cx="64"
       cy="1020.3622"
       fx="64"
       fy="1020.3622"
       r="52" />
    <radialGradient
       inkscape:collect="always"
       xlink:href="#linearGradient4216-4-8-2"
       id="radialGradient3189"
       gradientUnits="userSpaceOnUse"
       gradientTransform="matrix(1.25,0,0,1.25,-38.499999,-29.49998)"
       cx="154"
       cy="118"
       fx="154"
       fy="118"
       r="8" />
    <radialGradient
       inkscape:collect="always"
       xlink:href="#linearGradient4216-4-8-2"
       id="radialGradient3874"
       gradientUnits="userSpaceOnUse"
       gradientTransform="matrix(2.03125,0,0,2.03125,-149.5625,760.92465)"
       cx="154"
       cy="118"
       fx="154"
       fy="118"
       r="8" />
    <radialGradient
       inkscape:collect="always"
       xlink:href="#linearGradient4216-4-8-2"
       id="radialGradient3891"
       gradientUnits="userSpaceOnUse"
       gradientTransform="matrix(2.03125,0,0,2.03125,-149.5625,760.92465)"
       cx="154"
       cy="118"
       fx="154"
       fy="118"
       r="8" />
    <linearGradient
       id="linearGradient4216-4-8-2-6-2">
      <stop
         id="stop4218-8-0-7-4-7"
         offset="0"
         style="stop-color:#ffffff;stop-opacity:1;" />
      <stop
         id="stop4220-1-6-4-0-7"
         offset="1"
         style="stop-color:#c6c6c6;stop-opacity:1;" />
    </linearGradient>
    <radialGradient
       r="8"
       fy="118"
       fx="154"
       cy="118"
       cx="154"
       gradientTransform="matrix(5.625,0,0,5.625,-793.25,313.61216)"
       gradientUnits="userSpaceOnUse"
       id="radialGradient3134"
       xlink:href="#linearGradient4216-4-8-2-6-2"
       inkscape:collect="always" />
    <radialGradient
       inkscape:collect="always"
       xlink:href="#linearGradient4216-4-8-2"
       id="radialGradient3122"
       gradientUnits="userSpaceOnUse"
       gradientTransform="matrix(2.0161285,0,0,2.0161285,-147.25799,763.23319)"
       cx="154"
       cy="118"
       fx="154"
       fy="118"
       r="8" />
    <radialGradient
       inkscape:collect="always"
       xlink:href="#linearGradient4216-4-8-2"
       id="radialGradient3895"
       gradientUnits="userSpaceOnUse"
       gradientTransform="matrix(2.03125,0,0,2.03125,-149.5625,761.42468)"
       cx="154"
       cy="118"
       fx="154"
       fy="118"
       r="8" />
    <radialGradient
       inkscape:collect="always"
       xlink:href="#linearGradient4216-4-8-2"
       id="radialGradient3899"
       gradientUnits="userSpaceOnUse"
       gradientTransform="matrix(5.5671255,0,0,5.5671255,-784.42992,318.53399)"
       cx="154"
       cy="118"
       fx="154"
       fy="118"
       r="8" />
    <radialGradient
       inkscape:collect="always"
       xlink:href="#linearGradient4216-4-8-2"
       id="radialGradient3065"
       gradientUnits="userSpaceOnUse"
       gradientTransform="matrix(2.03125,0,0,2.03125,-149.5625,761.42469)"
       cx="154"
       cy="118"
       fx="154"
       fy="118"
       r="8" />
    <radialGradient
       inkscape:collect="always"
       xlink:href="#linearGradient4216-4-8-2"
       id="radialGradient3837"
       gradientUnits="userSpaceOnUse"
       gradientTransform="matrix(5.5671255,0,0,5.5671255,-784.42992,318.53402)"
       cx="154"
       cy="118"
       fx="154"
       fy="118"
       r="8" />
  </defs>
  <metadata
     id="metadata7">
    <rdf:RDF>
      <cc:Work
         rdf:about="">
        <dc:format>image/svg+xml</dc:format>
        <dc:type
           rdf:resource="http://purl.org/dc/dcmitype/StillImage" />
        <dc:title />
      </cc:Work>
    </rdf:RDF>
  </metadata>
  <g
     transform="translate(0,-924.36218)"
     id="layer1"
     inkscape:groupmode="layer"
     inkscape:label="Layer 1">
    <path
       style="fill:url(#radialGradient3189);fill-opacity:1;stroke:none"
       d="M 152 112 C 147.58172 112 144 115.5817 144 120 C 144 124.4183 147.58172 128 152 128 C 156.41828 128 160 124.4183 160 120 C 160 115.5817 156.41828 112 152 112 z M 152 113 C 155.86599 113 159 116.134 159 120 C 159 123.866 155.86599 127 152 127 C 148.13401 127 145 123.866 145 120 C 145 116.134 148.13401 113 152 113 z M 151.96875 114 C 151.43388 114 151 114.446 151 115 L 151 117 C 151 117.554 151.43388 118 151.96875 118 L 152.03125 118 C 152.56612 118 153 117.554 153 117 L 153 115 C 153 114.446 152.56612 114 152.03125 114 L 151.96875 114 z M 148.46875 115.46875 C 148.21754 115.46434 147.97036 115.52964 147.78125 115.71875 L 147.71875 115.78125 C 147.34054 116.15946 147.35826 116.76451 147.75 117.15625 L 149.15625 118.59375 C 149.54799 118.98549 150.18429 119.00321 150.5625 118.625 L 150.625 118.5625 C 151.00321 118.18429 150.98549 117.54799 150.59375 117.15625 L 149.15625 115.75 C 148.96038 115.55413 148.71996 115.47316 148.46875 115.46875 z M 155.53125 115.46875 C 155.28004 115.47316 155.03962 115.55413 154.84375 115.75 L 153.40625 117.15625 C 153.01451 117.54799 152.99679 118.18429 153.375 118.5625 L 153.4375 118.625 C 153.81571 119.00321 154.45201 118.98549 154.84375 118.59375 L 156.25 117.15625 C 156.64174 116.76451 156.65946 116.15946 156.28125 115.78125 L 156.21875 115.71875 C 156.02964 115.52964 155.78246 115.46434 155.53125 115.46875 z M 147 119 C 146.446 119 146 119.43388 146 119.96875 L 146 120.03125 C 146 120.56612 146.446 121 147 121 L 149 121 C 149.554 121 150 120.56612 150 120.03125 L 150 119.96875 C 150 119.43388 149.554 119 149 119 L 147 119 z M 155 119 C 154.446 119 154 119.43388 154 119.96875 L 154 120.03125 C 154 120.56612 154.446 121 155 121 L 157 121 C 157.554 121 158 120.56612 158 120.03125 L 158 119.96875 C 158 119.43388 157.554 119 157 119 L 155 119 z M 149.875 121.125 C 149.62379 121.12941 149.35212 121.21038 149.15625 121.40625 L 147.75 122.84375 C 147.35826 123.23549 147.34054 123.84054 147.71875 124.21875 L 147.78125 124.28125 C 148.15946 124.65946 148.76451 124.64174 149.15625 124.25 L 150.59375 122.84375 C 150.98549 122.45201 151.00321 121.81571 150.625 121.4375 L 150.5625 121.375 C 150.37339 121.18589 150.12621 121.12059 149.875 121.125 z M 154.125 121.125 C 153.87379 121.12059 153.62661 121.18589 153.4375 121.375 L 153.375 121.4375 C 152.99679 121.81571 153.01451 122.45201 153.40625 122.84375 L 154.84375 124.25 C 155.23549 124.64174 155.84054 124.65946 156.21875 124.28125 L 156.28125 124.21875 C 156.65946 123.84054 156.64174 123.23549 156.25 122.84375 L 154.84375 121.40625 C 154.64788 121.21038 154.37621 121.12941 154.125 121.125 z M 151.96875 122 C 151.43388 122 151 122.446 151 123 L 151 125 C 151 125.554 151.43388 126 151.96875 126 L 152.03125 126 C 152.56612 126 153 125.554 153 125 L 153 123 C 153 122.446 152.56612 122 152.03125 122 L 151.96875 122 z "
       transform="translate(0,924.36218)"
       id="path5838" />
    <text
       sodipodi:linespacing="125%"
       id="text3841"
       y="948.36218"
       x="-56"
       style="font-size:24px;font-style:normal;font-weight:normal;line-height:125%;letter-spacing:0px;word-spacing:0px;fill:#000000;fill-opacity:1;stroke:none;font-family:Sans"
       xml:space="preserve"><tspan
         y="948.36218"
         x="-56"
         id="tspan3843"
         sodipodi:role="line">128</tspan></text>
    <text
       xml:space="preserve"
       style="font-size:16px;font-style:normal;font-weight:normal;line-height:125%;letter-spacing:0px;word-spacing:0px;fill:#000000;fill-opacity:1;stroke:none;font-family:Sans"
       x="184"
       y="1000.3622"
       id="text3845"
       sodipodi:linespacing="125%"><tspan
         sodipodi:role="line"
         id="tspan3847"
         x="184"
         y="1000.3622">31 - 17</tspan></text>
    <text
       sodipodi:linespacing="125%"
       id="text3849"
       y="1048.3622"
       x="172"
       style="font-size:16px;font-style:normal;font-weight:normal;line-height:125%;letter-spacing:0px;word-spacing:0px;fill:#000000;fill-opacity:1;stroke:none;font-family:Sans"
       xml:space="preserve"><tspan
         y="1048.3622"
         x="172"
         id="tspan3851"
         sodipodi:role="line">16</tspan></text>
    <rect
       rx="4.5902016e-07"
       y="984.36218"
       x="140"
       height="40"
       width="40"
       id="rect3853"
       style="fill:none;stroke:#000000;stroke-width:1;stroke-linecap:round;stroke-linejoin:round;stroke-miterlimit:4;stroke-opacity:1;stroke-dasharray:none;stroke-dashoffset:0" />
    <rect
       rx="4.5902016e-07"
       y="1032.3622"
       x="140"
       height="24"
       width="24"
       id="rect3855"
       style="fill:none;stroke:#000000;stroke-width:1;stroke-linecap:round;stroke-linejoin:round;stroke-miterlimit:4;stroke-opacity:1;stroke-dasharray:none;stroke-dashoffset:0" />
    <rect
       rx="4.5902016e-07"
       y="980.36218"
       x="144"
       height="4"
       width="32"
       id="rect3857"
       style="fill:#b3b3b3;fill-opacity:1;stroke:none" />
    <rect
       rx="4.5902016e-07"
       y="988.36218"
       x="136"
       height="32"
       width="4"
       id="rect3859"
       style="fill:#b3b3b3;fill-opacity:1;stroke:none" />
    <rect
       rx="4.5902016e-07"
       y="1028.3622"
       x="144"
       height="4"
       width="16"
       id="rect3861"
       style="fill:#b3b3b3;fill-opacity:1;stroke:none" />
    <rect
       rx="4.5902016e-07"
       y="1036.3622"
       x="136"
       height="16"
       width="4"
       id="rect3863"
       style="fill:#b3b3b3;fill-opacity:1;stroke:none" />
    <rect
       ry="8"
       rx="8"
       y="936.36218"
       x="12"
       height="104"
       width="104"
       id="rect6938"
       style="fill:#000000;fill-opacity:1;stroke:none;filter:url(#filter6960)" />
    <rect
       style="fill:url(#radialGradient3171);fill-opacity:1;stroke:none"
       id="rect6936-6"
       width="104"
       height="104"
       x="12"
       y="936.36218"
       rx="8"
       ry="8" />
    <rect
       ry="8"
       rx="8"
       y="932.36218"
       x="12"
       height="104"
       width="104"
       id="rect6964-2"
       style="fill:#ffffff;fill-opacity:1;stroke:none" />
    <rect
       style="opacity:0.5;fill:url(#linearGradient3167);fill-opacity:1;stroke:none"
       id="rect6975"
       width="102"
       height="102"
       x="13"
       y="933.36218"
       rx="8"
       ry="8" />
    <rect
       ry="8"
       rx="8"
       y="933.36218"
       x="13"
       height="102"
       width="102"
       id="rect7002"
       style="opacity:0.5;fill:url(#radialGradient3164);fill-opacity:1;stroke:none" />
    <path
       id="path3063"
       d="m 160,991.36218 c -7.17971,0 -13,5.8202 -13,13.00002 0,7.1797 5.82029,13 13,13 7.17971,0 13,-5.8203 13,-13 0,-7.17982 -5.82029,-13.00002 -13,-13.00002 z m 0,1.625 c 6.28223,0 11.375,5.0927 11.375,11.37502 0,6.2822 -5.09277,11.375 -11.375,11.375 -6.28223,0 -11.375,-5.0928 -11.375,-11.375 0,-6.28232 5.09277,-11.37502 11.375,-11.37502 z m -0.0508,1.625 c -0.86917,0 -1.57422,0.7247 -1.57422,1.625 l 0,3.25 c 0,0.90022 0.70505,1.62502 1.57422,1.62502 l 0.10156,0 c 0.86917,0 1.57422,-0.7248 1.57422,-1.62502 l 0,-3.25 c 0,-0.9003 -0.70505,-1.625 -1.57422,-1.625 l -0.10156,0 z m -5.6875,2.3867 c -0.40822,-0.01 -0.80989,0.099 -1.11719,0.4062 l -0.10156,0.1016 c -0.61459,0.6146 -0.5858,1.5978 0.0508,2.2344 l 2.28516,2.33592 c 0.63657,0.6366 1.67056,0.6654 2.28515,0.051 l 0.10156,-0.1016 c 0.6146,-0.6145 0.5858,-1.6485 -0.0508,-2.28512 l -2.33593,-2.2852 c -0.31829,-0.3183 -0.70898,-0.4498 -1.11719,-0.457 z m 11.47656,0 c -0.40821,0.01 -0.7989,0.1387 -1.11719,0.457 l -2.33593,2.2852 c -0.63658,0.63662 -0.66538,1.67062 -0.0508,2.28512 l 0.10157,0.1016 c 0.61459,0.6146 1.64858,0.5858 2.28515,-0.051 l 2.28516,-2.33592 c 0.63658,-0.6366 0.66537,-1.6198 0.0508,-2.2344 l -0.10156,-0.1016 c -0.30731,-0.3073 -0.70897,-0.4134 -1.11719,-0.4062 z m -13.86328,5.73832 c -0.90025,0 -1.625,0.705 -1.625,1.5742 l 0,0.1016 c 0,0.8691 0.72475,1.5742 1.625,1.5742 l 3.25,0 c 0.90025,0 1.625,-0.7051 1.625,-1.5742 l 0,-0.1016 c 0,-0.8692 -0.72475,-1.5742 -1.625,-1.5742 l -3.25,0 z m 13,0 c -0.90025,0 -1.625,0.705 -1.625,1.5742 l 0,0.1016 c 0,0.8691 0.72475,1.5742 1.625,1.5742 l 3.25,0 c 0.90025,0 1.625,-0.7051 1.625,-1.5742 l 0,-0.1016 c 0,-0.8692 -0.72475,-1.5742 -1.625,-1.5742 l -3.25,0 z m -8.32813,3.4531 c -0.40821,0.01 -0.84967,0.1387 -1.16796,0.457 l -2.28516,2.336 c -0.63658,0.6366 -0.66537,1.6198 -0.0508,2.2343 l 0.10156,0.1016 c 0.61459,0.6146 1.5978,0.5858 2.23438,-0.051 l 2.33593,-2.2851 c 0.63658,-0.6366 0.66538,-1.6706 0.0508,-2.2852 l -0.10156,-0.1015 c -0.3073,-0.3073 -0.70897,-0.4135 -1.11719,-0.4063 z m 6.90625,0 c -0.40821,-0.01 -0.80988,0.099 -1.11718,0.4063 l -0.10157,0.1015 c -0.61459,0.6146 -0.58579,1.6486 0.0508,2.2852 l 2.33593,2.2851 c 0.63658,0.6366 1.61979,0.6654 2.23438,0.051 l 0.10156,-0.1016 c 0.61459,-0.6145 0.5858,-1.5977 -0.0508,-2.2343 l -2.28516,-2.336 c -0.31829,-0.3183 -0.75975,-0.4498 -1.16797,-0.457 z m -3.5039,1.4219 c -0.86917,0 -1.57422,0.7247 -1.57422,1.625 l 0,3.25 c 0,0.9002 0.70505,1.625 1.57422,1.625 l 0.10156,0 c 0.86917,0 1.57422,-0.7248 1.57422,-1.625 l 0,-3.25 c 0,-0.9003 -0.70505,-1.625 -1.57422,-1.625 l -0.10156,0 z"
       style="fill:url(#radialGradient3065);fill-opacity:1;stroke:#000000;stroke-opacity:0.1882353"
       inkscape:connector-curvature="0" />
    <path
       inkscape:connector-curvature="0"
       style="fill:url(#radialGradient3837);fill-opacity:1;stroke:#000000;stroke-width:2.74073863;stroke-opacity:0.18823529"
       d="m 64,948.73256 c -19.67771,0 -35.6296,15.95165 -35.6296,35.62964 0,19.6777 15.95189,35.6296 35.6296,35.6296 19.67771,0 35.6296,-15.9519 35.6296,-35.6296 0,-19.67799 -15.95189,-35.62964 -35.6296,-35.62964 z m 0,4.4537 c 17.21795,0 31.1759,13.95776 31.1759,31.17594 0,17.2179 -13.95795,31.1759 -31.1759,31.1759 -17.21795,0 -31.1759,-13.958 -31.1759,-31.1759 0,-17.21818 13.95795,-31.17594 31.1759,-31.17594 z m -0.13923,4.4537 c -2.38217,0 -4.31453,1.98621 -4.31453,4.4537 l 0,8.9074 c 0,2.46727 1.93236,4.45376 4.31453,4.45376 l 0.27835,0 c 2.38217,0 4.31453,-1.98649 4.31453,-4.45376 l 0,-8.9074 c 0,-2.46749 -1.93236,-4.4537 -4.31453,-4.4537 l -0.27835,0 z m -15.58795,6.54132 c -1.11883,-0.0274 -2.2197,0.27133 -3.06193,1.11329 l -0.27835,0.27846 c -1.68443,1.68446 -1.60552,4.37915 0.13923,6.1239 l 6.26303,6.40215 c 1.74467,1.74476 4.57857,1.82369 6.263,0.13978 l 0.27835,-0.27846 c 1.68446,-1.68418 1.60552,-4.51811 -0.13923,-6.26292 l -6.40218,-6.26313 c -0.87234,-0.87238 -1.94312,-1.23279 -3.06192,-1.25252 z m 31.45425,0 c -1.1188,0.0274 -2.18957,0.38014 -3.06192,1.25252 l -6.40218,6.26313 c -1.7447,1.74481 -1.82363,4.57874 -0.13923,6.26292 l 0.27838,0.27846 c 1.68443,1.68446 4.51833,1.60553 6.263,-0.13978 l 6.26302,-6.40214 c 1.7447,-1.74476 1.82361,-4.43945 0.13923,-6.12391 l -0.27835,-0.27846 c -0.84225,-0.84223 -1.9431,-1.13302 -3.06192,-1.11329 z m -37.99563,15.72724 c -2.46735,0 -4.4537,1.93218 -4.4537,4.31448 l 0,0.2784 c 0,2.382 1.98635,4.3145 4.4537,4.3145 l 8.9074,0 c 2.46735,0 4.4537,-1.9325 4.4537,-4.3145 l 0,-0.2784 c 0,-2.3823 -1.98635,-4.31448 -4.4537,-4.31448 l -8.9074,0 z m 35.62961,0 c -2.46735,0 -4.4537,1.93218 -4.4537,4.31448 l 0,0.2784 c 0,2.382 1.98635,4.3145 4.4537,4.3145 l 8.9074,0 c 2.46735,0 4.4537,-1.9325 4.4537,-4.3145 l 0,-0.2784 c 0,-2.3823 -1.98635,-4.31448 -4.4537,-4.31448 l -8.9074,0 z m -22.82523,9.46408 c -1.1188,0.027 -2.32873,0.3801 -3.20108,1.2525 l -6.26302,6.4023 c -1.7447,1.7448 -1.82361,4.4395 -0.13923,6.1237 l 0.27835,0.2784 c 1.68443,1.6845 4.37915,1.6056 6.12385,-0.1397 l 6.40217,-6.2629 c 1.7447,-1.7448 1.82364,-4.5787 0.13923,-6.2631 l -0.27835,-0.2782 c -0.84223,-0.8423 -1.9431,-1.1333 -3.06192,-1.1136 z m 18.92822,0 c -1.11879,-0.027 -2.21966,0.2713 -3.06189,1.1135 l -0.27838,0.2782 c -1.68443,1.6845 -1.6055,4.5184 0.13923,6.2631 l 6.40217,6.2629 c 1.7447,1.7448 4.43942,1.8237 6.12385,0.1398 l 0.27835,-0.2785 c 1.68443,-1.6842 1.60553,-4.3789 -0.13923,-6.1236 l -6.26302,-6.4024 c -0.87235,-0.8723 -2.08228,-1.2328 -3.2011,-1.2525 z m -9.60327,3.897 c -2.38217,0 -4.31453,1.9862 -4.31453,4.4537 l 0,8.9074 c 0,2.4672 1.93236,4.4537 4.31453,4.4537 l 0.27835,0 c 2.38217,0 4.31453,-1.9865 4.31453,-4.4537 l 0,-8.9074 c 0,-2.4675 -1.93236,-4.4537 -4.31453,-4.4537 l -0.27835,0 z"
       id="path3835" />
  </g>
</svg>
