<?xml version="1.0" encoding="UTF-8" standalone="no"?>
<!-- Created with Inkscape (http://www.inkscape.org/) -->

<svg
   xmlns:dc="http://purl.org/dc/elements/1.1/"
   xmlns:cc="http://creativecommons.org/ns#"
   xmlns:rdf="http://www.w3.org/1999/02/22-rdf-syntax-ns#"
   xmlns:svg="http://www.w3.org/2000/svg"
   xmlns="http://www.w3.org/2000/svg"
   xmlns:xlink="http://www.w3.org/1999/xlink"
   xmlns:sodipodi="http://sodipodi.sourceforge.net/DTD/sodipodi-0.dtd"
   xmlns:inkscape="http://www.inkscape.org/namespaces/inkscape"
   version="1.1"
   width="128"
   height="128"
   id="svg2"
   inkscape:version="0.48.4 r9939"
   sodipodi:docname="firefox.svg">
  <sodipodi:namedview
     pagecolor="#ffffff"
     bordercolor="#666666"
     borderopacity="1"
     objecttolerance="10"
     gridtolerance="10"
     guidetolerance="10"
     inkscape:pageopacity="0"
     inkscape:pageshadow="2"
     inkscape:window-width="1280"
     inkscape:window-height="971"
     id="namedview2894"
     showgrid="true"
     inkscape:zoom="1.84375"
     inkscape:cx="124.18762"
     inkscape:cy="21.990869"
     inkscape:window-x="0"
     inkscape:window-y="25"
     inkscape:window-maximized="1"
     inkscape:current-layer="svg2">
    <inkscape:grid
       type="xygrid"
       id="grid5874"
       empspacing="4"
       visible="true"
       enabled="true"
       snapvisiblegridlinesonly="true" />
  </sodipodi:namedview>
  <defs
     id="defs4">
    <linearGradient
       id="linearGradient6900">
      <stop
         style="stop-color:#000000;stop-opacity:1;"
         offset="0"
         id="stop6902" />
      <stop
         style="stop-color:#000000;stop-opacity:0.49350649;"
         offset="1"
         id="stop6904" />
    </linearGradient>
    <linearGradient
       id="linearGradient6892">
      <stop
         id="stop6894"
         offset="0"
         style="stop-color:#9d0082;stop-opacity:1;" />
      <stop
         id="stop6896"
         offset="1"
         style="stop-color:#2e0026;stop-opacity:1;" />
    </linearGradient>
    <linearGradient
       id="linearGradient6864">
      <stop
         style="stop-color:#b50096;stop-opacity:1;"
         offset="0"
         id="stop6866" />
      <stop
         style="stop-color:#5e004e;stop-opacity:1;"
         offset="1"
         id="stop6868" />
    </linearGradient>
    <linearGradient
       id="linearGradient6978">
      <stop
         id="stop6980"
         style="stop-color:#000000;stop-opacity:0.25"
         offset="0" />
      <stop
         id="stop6982"
         style="stop-color:#000000;stop-opacity:0"
         offset="1" />
    </linearGradient>
    <linearGradient
       id="linearGradient4216-4-8-2">
      <stop
         id="stop4218-8-0-7"
         style="stop-color:#ffffff;stop-opacity:1"
         offset="0" />
      <stop
         id="stop4220-1-6-4"
         style="stop-color:#c6c6c6;stop-opacity:1"
         offset="1" />
    </linearGradient>
    <linearGradient
       inkscape:collect="always"
       xlink:href="#linearGradient6978"
       id="linearGradient5924"
       gradientUnits="userSpaceOnUse"
       gradientTransform="matrix(0.25813113,0,0,0.25813113,143.47961,63.48022)"
       x1="64"
       y1="188"
       x2="64"
       y2="8" />
    <radialGradient
       inkscape:collect="always"
       xlink:href="#linearGradient4216-4-8-2"
       id="radialGradient5928"
       gradientUnits="userSpaceOnUse"
       gradientTransform="matrix(0.25813113,0,0,0.25813113,143.47961,-175.12642)"
       cx="64"
       cy="1020.3622"
       fx="64"
       fy="1020.3622"
       r="52" />
    <linearGradient
       inkscape:collect="always"
       xlink:href="#linearGradient6978"
       id="linearGradient5931"
       gradientUnits="userSpaceOnUse"
       gradientTransform="matrix(0.13725491,0,0,0.13725491,143.21568,111.76482)"
       x1="64"
       y1="188"
       x2="64"
       y2="8" />
    <radialGradient
       inkscape:collect="always"
       xlink:href="#linearGradient6864"
       id="radialGradient6870"
       cx="64"
       cy="62.000003"
       fx="64"
       fy="62.000003"
       r="52"
       gradientUnits="userSpaceOnUse" />
    <radialGradient
       inkscape:collect="always"
       xlink:href="#linearGradient6892"
       id="radialGradient6890"
       cx="64"
       cy="104"
       fx="64"
       fy="104"
       r="52"
       gradientUnits="userSpaceOnUse" />
    <radialGradient
       inkscape:collect="always"
       xlink:href="#linearGradient6900"
       id="radialGradient6906"
       cx="52"
       cy="52"
       fx="52"
       fy="52"
       r="35.020815"
       gradientUnits="userSpaceOnUse"
       gradientTransform="matrix(1.7132665,2.0431627e-8,-2.3155847e-8,1.9417023,-37.08986,-48.96852)" />
    <filter
       inkscape:collect="always"
       id="filter6908">
      <feGaussianBlur
         inkscape:collect="always"
         stdDeviation="0.47"
         id="feGaussianBlur6910" />
    </filter>
  </defs>
  <metadata
     id="metadata7">
    <rdf:RDF>
      <cc:Work
         rdf:about="">
        <dc:format>image/svg+xml</dc:format>
        <dc:type
           rdf:resource="http://purl.org/dc/dcmitype/StillImage" />
        <dc:title></dc:title>
      </cc:Work>
    </rdf:RDF>
  </metadata>
  <rect
     style="opacity:0.1;fill:#000000;fill-opacity:1;stroke:#000000;stroke-width:10;stroke-miterlimit:4;stroke-dasharray:none"
     id="rect6981"
     y="16.000002"
     x="12"
     ry="8"
     rx="8"
     height="104"
     width="104" />
  <rect
     style="opacity:0.1;fill:#000000;fill-opacity:1;stroke:#000000;stroke-width:6;stroke-miterlimit:4;stroke-dasharray:none"
     id="rect6979"
     y="16.000002"
     x="12"
     ry="8"
     rx="8"
     height="104"
     width="104" />
  <rect
     style="opacity:0.2;fill:#000000;fill-opacity:1;stroke:#000000;stroke-width:3;stroke-miterlimit:4;stroke-dasharray:none"
     id="rect5969"
     y="14.000003"
     x="12"
     ry="8"
     rx="8"
     height="104"
     width="104" />
  <rect
     style="fill:url(#radialGradient6890);fill-opacity:1;stroke:none"
     id="rect6936"
     y="14.000003"
     x="12"
     ry="8"
     rx="8"
     height="104"
     width="104" />
  <rect
     style="fill:url(#radialGradient6870);fill-opacity:1;stroke:none"
     id="rect6964"
     y="10.000003"
     x="12"
     ry="8"
     rx="8"
     height="104"
     width="104" />
  <path
     inkscape:connector-curvature="0"
     style="opacity:0.25;fill:#000000;fill-opacity:1;stroke:#000000;stroke-width:3;stroke-miterlimit:4;stroke-dasharray:none"
     id="path7219"
     d="m 148.65625,65.53125 c -1.14404,0 -2.09375,0.949713 -2.09375,2.09375 l 0,1.03125 0,21.65625 0,1.03125 c 0,1.144037 0.94971,2.09375 2.09375,2.09375 l 22.6875,0 c 1.14404,0 2.09375,-0.949713 2.09375,-2.09375 l 0,-1.03125 0,-21.65625 0,-1.03125 c 0,-1.144037 -0.94971,-2.09375 -2.09375,-2.09375 l -22.6875,0 z" />
  <path
     inkscape:connector-curvature="0"
     style="opacity:0.25;fill:#000000;fill-opacity:1;stroke:#000000;stroke-width:2;stroke-miterlimit:4;stroke-dasharray:none"
     id="path7217"
     d="m 148.65625,65.53125 c -1.14404,0 -2.09375,0.949713 -2.09375,2.09375 l 0,1.03125 0,21.65625 0,1.03125 c 0,1.144037 0.94971,2.09375 2.09375,2.09375 l 22.6875,0 c 1.14404,0 2.09375,-0.949713 2.09375,-2.09375 l 0,-1.03125 0,-21.65625 0,-1.03125 c 0,-1.144037 -0.94971,-2.09375 -2.09375,-2.09375 l -22.6875,0 z" />
  <path
     inkscape:connector-curvature="0"
     style="opacity:0.5;fill:#000000;fill-opacity:1;stroke:#000000"
     id="rect7185"
     d="m 148.65625,65.53125 c -1.14404,0 -2.09375,0.949713 -2.09375,2.09375 l 0,1.03125 0,21.65625 0,1.03125 c 0,1.144037 0.94971,2.09375 2.09375,2.09375 l 22.6875,0 c 1.14404,0 2.09375,-0.949713 2.09375,-2.09375 l 0,-1.03125 0,-21.65625 0,-1.03125 c 0,-1.144037 -0.94971,-2.09375 -2.09375,-2.09375 l -22.6875,0 z" />
  <rect
     style="fill:#333333;fill-opacity:1;stroke:none"
     id="rect7150"
     y="112"
     x="144"
     ry="1"
     rx="1"
     height="16"
     width="16" />
  <text
     sodipodi:linespacing="125%"
     style="font-size:24px;font-style:normal;font-weight:normal;line-height:125%;letter-spacing:0px;word-spacing:0px;fill:#000000;fill-opacity:1;stroke:none;font-family:Sans"
     xml:space="preserve"
     id="text5893"
     y="24.000002"
     x="-56"><tspan
       id="tspan5895"
       y="24.000002"
       x="-56">128</tspan></text>
  <text
     sodipodi:linespacing="125%"
     style="font-size:16px;font-style:normal;font-weight:normal;line-height:125%;letter-spacing:0px;word-spacing:0px;fill:#000000;fill-opacity:1;stroke:none;font-family:Sans"
     xml:space="preserve"
     id="text5901"
     y="76"
     x="184"><tspan
       id="tspan5903"
       y="76"
       x="184">31 - 17</tspan></text>
  <text
     sodipodi:linespacing="125%"
     style="font-size:16px;font-style:normal;font-weight:normal;line-height:125%;letter-spacing:0px;word-spacing:0px;fill:#000000;fill-opacity:1;stroke:none;font-family:Sans"
     xml:space="preserve"
     id="text5905"
     y="124"
     x="172"><tspan
       id="tspan5907"
       y="124"
       x="172">16</tspan></text>
  <rect
     style="fill:none;stroke:#000000;stroke-width:1;stroke-linecap:round;stroke-linejoin:round;stroke-miterlimit:4;stroke-opacity:1;stroke-dasharray:none;stroke-dashoffset:0"
     id="rect5919"
     y="60"
     x="140"
     rx="4.5902016e-07"
     height="40"
     width="40" />
  <rect
     style="fill:none;stroke:#000000;stroke-width:1;stroke-linecap:round;stroke-linejoin:round;stroke-miterlimit:4;stroke-opacity:1;stroke-dasharray:none;stroke-dashoffset:0"
     id="rect5921"
     y="108"
     x="140"
     rx="4.5902016e-07"
     height="24"
     width="24" />
  <rect
     style="fill:#b3b3b3;fill-opacity:1;stroke:none"
     id="rect6935"
     y="56"
     x="144"
     rx="4.5902016e-07"
     height="4"
     width="32" />
  <rect
     style="fill:#b3b3b3;fill-opacity:1;stroke:none"
     id="rect6937"
     y="64"
     x="136"
     rx="4.5902016e-07"
     height="32"
     width="4" />
  <rect
     style="fill:#b3b3b3;fill-opacity:1;stroke:none"
     id="rect6939"
     y="104"
     x="144"
     rx="4.5902016e-07"
     height="4"
     width="16" />
  <rect
     style="fill:#b3b3b3;fill-opacity:1;stroke:none"
     id="rect6941"
     y="112"
     x="136"
     rx="4.5902016e-07"
     height="16"
     width="4" />
  <rect
     style="fill:#ffffff;fill-opacity:1;stroke:none"
     id="rect7118"
     y="113"
     x="145"
     ry="1.0769231"
     rx="1.0769231"
     height="14"
     width="14" />
  <rect
     style="opacity:0.5;fill:url(#linearGradient5931);fill-opacity:1;stroke:none"
     id="rect7120"
     y="113"
     x="145"
     ry="1.0980393"
     rx="1.0980393"
     height="14"
     width="14" />
  <rect
     style="fill:url(#radialGradient5928);fill-opacity:1;stroke:none"
     id="rect5952"
     y="66.57782"
     x="146.57718"
     ry="2.0650492"
     rx="2.0650492"
     height="26.845638"
     width="26.845638" />
  <rect
     style="fill:#ffffff;fill-opacity:1;stroke:none"
     id="rect5954"
     y="65.545227"
     x="146.57718"
     ry="2.0650492"
     rx="2.0650492"
     height="26.845638"
     width="26.845638" />
  <rect
     style="opacity:0.5;fill:url(#linearGradient5924);fill-opacity:1;stroke:none"
     id="rect5956"
     y="65.803406"
     x="146.83531"
     ry="2.0650492"
     rx="2.0650492"
     height="26.329376"
     width="26.329376" />
  <path
     style="opacity:0.50000000000000000;fill:none;stroke:#ffffff;stroke-width:3;stroke-linecap:round;stroke-linejoin:round;stroke-miterlimit:4;stroke-opacity:1;stroke-dasharray:none;filter:url(#filter6908)"
     d="m 16,64 4,-16 4,40 4,-16 4,8 8,-36 4,60 4,-44 4,16 4,-40 4,40 4,-8 4,40 4,-48 4,12 4,-56 4,48 4,-8 4,16 4,-16 4,32 4,-44 4,28 4,-8"
     id="path6898"
     inkscape:connector-curvature="0"
     sodipodi:nodetypes="cccccccccccccccccccccccc" />
  <path
     style="fill:#eeeeec;stroke:url(#radialGradient6906);stroke-opacity:0.35254236999999999;stroke-width:1.50000000000000000;stroke-miterlimit:4;stroke-dasharray:none;stroke-linejoin:round"
     d="m 64,27.729188 c -18.986031,0 -34.270815,11.463588 -34.270815,25.703111 l 0,17.135408 c 0,4.513098 1.581868,8.771134 4.283852,12.449944 l 0,8.969315 4.283852,0 c 0,2.373254 1.910598,4.283852 4.283852,4.283852 l 4.283851,0 c 2.373255,0 4.283853,-1.910598 4.283853,-4.283852 l 0,-21.419259 c 0,-2.373254 -1.910598,-4.283853 -4.283853,-4.283853 l -4.283851,0 c -2.373254,0 -4.283852,1.910599 -4.283852,4.283853 l -4.283852,0 0,-4.283853 0,-8.567702 c 0,-14.239525 13.374185,-25.703111 29.986963,-25.703111 16.612778,0 29.986963,11.463586 29.986963,25.703111 l 0,8.567702 0,4.283853 -4.283852,0 c 0,-2.373254 -1.910598,-4.283853 -4.283852,-4.283853 l -4.283851,0 c -2.373255,0 -4.283853,1.910599 -4.283853,4.283853 l 0,21.419259 c 0,2.373254 1.910598,4.283852 4.283853,4.283852 l 4.283851,0 c 2.373254,0 4.283852,-1.910598 4.283852,-4.283852 l 4.283852,0 0,-8.969315 c 2.701984,-3.67881 4.283852,-7.936846 4.283852,-12.449944 l 0,-17.135408 C 98.270815,39.192776 82.986031,27.729188 64,27.729188 z"
     id="rect3142"
     inkscape:connector-curvature="0" />
  <path
     id="path5872"
     d="m 152,113 c -3.878,0 -7,2.3415 -7,5.25 l 0,3.5 c 0,0.92182 0.3231,1.79155 0.875,2.54297 l 0,1.83203 0.875,0 c 0,0.48475 0.39025,0.875 0.875,0.875 l 0.875,0 c 0.48475,0 0.875,-0.39025 0.875,-0.875 l 0,-4.375 c 0,-0.48475 -0.39025,-0.875 -0.875,-0.875 l -0.875,0 c -0.48475,0 -0.875,0.39025 -0.875,0.875 l -0.875,0 0,-0.875 0,-1.75 c 0,-2.9085 2.73175,-5.25 6.125,-5.25 3.39325,0 6.125,2.3415 6.125,5.25 l 0,1.75 0,0.875 -0.875,0 c 0,-0.48475 -0.39025,-0.875 -0.875,-0.875 l -0.875,0 c -0.48475,0 -0.875,0.39025 -0.875,0.875 l 0,4.375 c 0,0.48475 0.39025,0.875 0.875,0.875 l 0.875,0 c 0.48475,0 0.875,-0.39025 0.875,-0.875 l 0.875,0 0,-1.83203 C 158.6769,123.54155 159,122.67182 159,121.75 l 0,-3.5 c 0,-2.9085 -3.122,-5.25 -7,-5.25 z"
     style="fill:#82006c;stroke:none;fill-opacity:1"
     inkscape:connector-curvature="0" />
  <path
     inkscape:connector-curvature="0"
     style="fill:#82006c;stroke:none;fill-opacity:1"
     d="m 160,69.475243 c -5.25904,0 -9.49285,3.175359 -9.49285,7.119638 l 0,4.746426 c 0,1.2501 0.43816,2.429559 1.18661,3.448576 l 0,2.484456 1.1866,0 c 0,0.65738 0.52923,1.186606 1.18661,1.186606 l 1.1866,0 c 0.65738,0 1.18661,-0.529226 1.18661,-1.186606 l 0,-5.933032 c 0,-0.65738 -0.52923,-1.186607 -1.18661,-1.186607 l -1.1866,0 c -0.65738,0 -1.18661,0.529227 -1.18661,1.186607 l -1.1866,0 0,-1.186607 0,-2.373212 c 0,-3.94428 3.70458,-7.119639 8.30624,-7.119639 4.60166,0 8.30624,3.175359 8.30624,7.119639 l 0,2.373212 0,1.186607 -1.1866,0 c 0,-0.65738 -0.52923,-1.186607 -1.18661,-1.186607 l -1.1866,0 c -0.65738,0 -1.18661,0.529227 -1.18661,1.186607 l 0,5.933032 c 0,0.65738 0.52923,1.186606 1.18661,1.186606 l 1.1866,0 c 0.65738,0 1.18661,-0.529226 1.18661,-1.186606 l 1.1866,0 0,-2.484456 c 0.74845,-1.019017 1.18661,-2.198476 1.18661,-3.448576 l 0,-4.746426 c 0,-3.944279 -4.23381,-7.119638 -9.49285,-7.119638 z"
     id="path5874" />
</svg>
