<?xml version="1.0" encoding="UTF-8" standalone="no"?>
<!-- Created with Inkscape (http://www.inkscape.org/) -->

<svg
   xmlns:dc="http://purl.org/dc/elements/1.1/"
   xmlns:cc="http://creativecommons.org/ns#"
   xmlns:rdf="http://www.w3.org/1999/02/22-rdf-syntax-ns#"
   xmlns:svg="http://www.w3.org/2000/svg"
   xmlns="http://www.w3.org/2000/svg"
   xmlns:xlink="http://www.w3.org/1999/xlink"
   xmlns:sodipodi="http://sodipodi.sourceforge.net/DTD/sodipodi-0.dtd"
   xmlns:inkscape="http://www.inkscape.org/namespaces/inkscape"
   width="128"
   height="128"
   id="svg2"
   version="1.1"
   inkscape:version="0.91 r"
   sodipodi:docname="folder-videos.svg">
  <defs
     id="defs4">
    <inkscape:perspective
       sodipodi:type="inkscape:persp3d"
       inkscape:vp_x="0 : 64 : 1"
       inkscape:vp_y="0 : 1000 : 0"
       inkscape:vp_z="128 : 64 : 1"
       inkscape:persp3d-origin="64 : 42.666667 : 1"
       id="perspective8890" />
    <linearGradient
       id="linearGradient3785-6">
      <stop
         style="stop-color:#ffffff;stop-opacity:1;"
         offset="0"
         id="stop3787-4" />
      <stop
         style="stop-color:#d6d6d6;stop-opacity:1;"
         offset="1"
         id="stop3789-3" />
    </linearGradient>
    <linearGradient
       id="linearGradient3802-3">
      <stop
         style="stop-color:#ffc475;stop-opacity:1;"
         offset="0"
         id="stop3804-4" />
      <stop
         style="stop-color:#ff004a;stop-opacity:1;"
         offset="1"
         id="stop3806-1" />
    </linearGradient>
    <radialGradient
       inkscape:collect="always"
       xlink:href="#linearGradient3802-3"
       id="radialGradient3852"
       cx="153.60025"
       cy="1046.2241"
       fx="153.60025"
       fy="1046.2241"
       r="7.5"
       gradientTransform="matrix(1.6666654,-3.5764157e-7,3.5147543e-7,1.5999884,-101.0006,-626.5843)"
       gradientUnits="userSpaceOnUse" />
    <linearGradient
       id="linearGradient3802-3-5">
      <stop
         style="stop-color:#ffc475;stop-opacity:1;"
         offset="0"
         id="stop3804-4-7" />
      <stop
         style="stop-color:#ff004a;stop-opacity:1;"
         offset="1"
         id="stop3806-1-0" />
    </linearGradient>
    <linearGradient
       id="linearGradient3785-0-1">
      <stop
         style="stop-color:#ffffff;stop-opacity:1;"
         offset="0"
         id="stop3787-7-8" />
      <stop
         style="stop-color:#d6d6d6;stop-opacity:1;"
         offset="1"
         id="stop3789-1-7" />
    </linearGradient>
  </defs>
  <sodipodi:namedview
     id="base"
     pagecolor="#ffffff"
     bordercolor="#666666"
     borderopacity="1.0"
     inkscape:pageopacity="0.0"
     inkscape:pageshadow="2"
     inkscape:zoom="4"
     inkscape:cx="35.562099"
     inkscape:cy="51.634821"
     inkscape:document-units="px"
     inkscape:current-layer="layer1"
     showgrid="true"
     inkscape:window-width="1366"
     inkscape:window-height="741"
     inkscape:window-x="0"
     inkscape:window-y="27"
     inkscape:window-maximized="1">
    <inkscape:grid
       type="xygrid"
       id="grid3000"
       empspacing="4"
       visible="true"
       enabled="true"
       snapvisiblegridlinesonly="true" />
  </sodipodi:namedview>
  <metadata
     id="metadata7">
    <rdf:RDF>
      <cc:Work
         rdf:about="">
        <dc:format>image/svg+xml</dc:format>
        <dc:type
           rdf:resource="http://purl.org/dc/dcmitype/StillImage" />
        <dc:title />
      </cc:Work>
    </rdf:RDF>
  </metadata>
  <g
     inkscape:label="Ebene 1"
     inkscape:groupmode="layer"
     id="layer1"
     transform="translate(0,-924.36218)">
    <text
       sodipodi:linespacing="125%"
       style="font-style:normal;font-weight:normal;font-size:24px;line-height:125%;font-family:Sans;letter-spacing:0px;word-spacing:0px;fill:#000000;fill-opacity:1;stroke:none"
       xml:space="preserve"
       id="text5893-3"
       y="948.36218"
       x="-56"><tspan
         id="tspan5895-8"
         y="948.36218"
         x="-56">128</tspan></text>
    <text
       sodipodi:linespacing="125%"
       style="font-style:normal;font-weight:normal;font-size:16px;line-height:125%;font-family:Sans;letter-spacing:0px;word-spacing:0px;fill:#000000;fill-opacity:1;stroke:none"
       xml:space="preserve"
       id="text5901"
       y="1000.3622"
       x="184"><tspan
         id="tspan5903"
         y="1000.3622"
         x="184">31 - 17</tspan></text>
    <text
       sodipodi:linespacing="125%"
       style="font-style:normal;font-weight:normal;font-size:16px;line-height:125%;font-family:Sans;letter-spacing:0px;word-spacing:0px;fill:#000000;fill-opacity:1;stroke:none"
       xml:space="preserve"
       id="text5905"
       y="1048.3622"
       x="172"><tspan
         id="tspan5907"
         y="1048.3622"
         x="172">16</tspan></text>
    <rect
       style="fill:none;stroke:#000000;stroke-width:1;stroke-linecap:round;stroke-linejoin:round;stroke-miterlimit:4;stroke-dasharray:none;stroke-dashoffset:0;stroke-opacity:1"
       id="rect5919"
       y="984.36218"
       x="140"
       rx="4.5902016e-07"
       height="40"
       width="40" />
    <path
       style="opacity:1;fill:#babdb6;fill-opacity:1;stroke:none"
       d="M 144 113 L 144 114 L 144 120 L 160 120 L 160 114 L 148 114 L 148 113 L 144 113 z "
       transform="translate(0,924.36218)"
       id="rect8156" />
    <rect
       style="fill:none;stroke:#000000;stroke-width:1;stroke-linecap:round;stroke-linejoin:round;stroke-miterlimit:4;stroke-dasharray:none;stroke-dashoffset:0;stroke-opacity:1"
       id="rect5921"
       y="1032.3622"
       x="140"
       rx="4.5902016e-07"
       height="24"
       width="24" />
    <rect
       style="fill:#b3b3b3;fill-opacity:1;stroke:none"
       id="rect6935"
       y="980.36218"
       x="144"
       rx="4.5902016e-07"
       height="4"
       width="32" />
    <rect
       style="fill:#b3b3b3;fill-opacity:1;stroke:none"
       id="rect6937"
       y="988.36218"
       x="136"
       rx="4.5902016e-07"
       height="32"
       width="4" />
    <rect
       style="fill:#b3b3b3;fill-opacity:1;stroke:none"
       id="rect6939"
       y="1028.3622"
       x="144"
       rx="4.5902016e-07"
       height="4"
       width="16" />
    <rect
       style="fill:#b3b3b3;fill-opacity:1;stroke:none"
       id="rect6941"
       y="1036.3622"
       x="136"
       rx="4.5902016e-07"
       height="16"
       width="4" />
    <path
       style="opacity:1;fill:#babdb6"
       d="M 145 68 C 144.446 68 144 68.446001 144 69 L 144 71.390625 L 144 72 L 144 78.609375 C 144 79.38015 144.61985 80 145.39062 80 L 174.60938 80 C 175.38015 80 176 79.38015 176 78.609375 L 176 71.390625 C 176 70.61985 175.38015 70 174.60938 70 L 154 70 C 152 70 152 68 150 68 L 148 68 L 145 68 z "
       transform="translate(0,924.36218)"
       id="rect4181" />
    <rect
       style="opacity:1;fill:#eeeeec;stroke:none"
       id="rect4200"
       width="29"
       height="11"
       x="146"
       y="996.36218"
       rx="1.3912899"
       ry="1.3912899" />
    <rect
       style="opacity:1;fill:#ffffff;stroke:none"
       id="rect4198"
       width="29"
       height="9"
       x="145"
       y="997.36218"
       rx="1.3912899"
       ry="1.3912899" />
    <path
       style="opacity:1;fill:#555753"
       d="m 156,76 c -2,0 -2,2 -4,2 l -1,0 -5.60938,0 C 144.61985,78 144,78.61985 144,79.390625 l 0,1.546875 0,0.671875 0,11 C 144,93.38015 144.61986,94 145.39062,94 l 29.21876,0 C 175.38014,94 176,93.38015 176,92.609375 l 0,-15.21875 C 176,76.61985 175.38014,76 174.60938,76 Z"
       id="rect4179"
       inkscape:connector-curvature="0"
       sodipodi:nodetypes="sscssccsssssss"
       transform="translate(0,924.36218)" />
    <rect
       style="opacity:1;fill:#ffffff;fill-opacity:1;stroke:none"
       id="rect8166"
       width="14"
       height="5"
       x="145"
       y="1039.3622" />
    <path
       style="opacity:1;fill:#555753;fill-opacity:1;stroke:none"
       d="M 148 117 L 148 118 L 144 118 L 144 126 L 160 126 L 160 117 L 148 117 z "
       transform="translate(0,924.36218)"
       id="rect8154" />
    <rect
       style="opacity:0.3;fill:#ffffff;stroke:none"
       id="rect3381"
       width="6"
       height="6"
       x="149"
       y="1043.3622" />
    <g
       id="g3376"
       transform="matrix(1.3333333,0,0,1.3333333,-21.333333,-329.45406)">
      <g
         id="g3370">
        <path
           style="opacity:1;fill:#babdb6;fill-opacity:1;stroke:none;stroke-width:0.3125;stroke-miterlimit:4;stroke-dasharray:none"
           d="m 19,25 c -1.662,0 -3,1.338 -3,3 l 0,6 0,66 c 0,1.662 1.338,3 3,3 l 90,0 c 1.662,0 3,-1.338 3,-3 l 0,-66 c 0,-1.662 -1.338,-3 -3,-3 l -53,0 c -8,0 -8,-6 -16,-6 l -21,0 z"
           transform="translate(0,924.36218)"
           id="rect3584"
           inkscape:connector-curvature="0" />
        <rect
           style="opacity:1;fill:#eeeeec;fill-opacity:1;stroke:none;stroke-width:0.3125;stroke-miterlimit:4;stroke-dasharray:none"
           id="rect3594"
           width="86.999977"
           height="50.999985"
           x="22.000008"
           y="958.36212"
           rx="2.999999"
           ry="2.999999" />
        <rect
           ry="2.999999"
           rx="2.999999"
           y="961.36212"
           x="19.000008"
           height="50.999985"
           width="86.999977"
           id="rect3596"
           style="opacity:1;fill:#ffffff;fill-opacity:1;stroke:none;stroke-width:0.3125;stroke-miterlimit:4;stroke-dasharray:none" />
        <path
           inkscape:connector-curvature="0"
           style="opacity:1;fill:#555753;fill-opacity:1;stroke:none;stroke-width:0.3125;stroke-miterlimit:4;stroke-dasharray:none"
           d="m 58,970.36218 c -5.999998,0 -6.000001,6 -12,6 l -11,0 -2,0 -14,0 c -1.662,0 -3,1.338 -3,3 l 0,5 0,3 0,37.00002 c 0,1.6619 1.338,3 3,3 l 90,0 c 1.662,0 3,-1.3381 3,-3 l 0,-51.00002 c 0,-1.662 -1.338,-3 -3,-3 l -51,0 z"
           id="rect3589" />
      </g>
      <path
         id="rect3826"
         d="m 72.657708,988.21535 -0.419855,0.82523 -3.431229,6.86246 -8.657702,0 -0.376422,0 -0.275077,0.27508 -3.691829,3.69183 -0.2606,0.26055 0,0.3909 0,0.9266 -0.926577,0 -3.691829,0 a 0.92255643,0.92255643 0 0 0 -0.08687,0 0.92255643,0.92255643 0 0 0 -0.83971,0.9121 l 0,7.3837 a 0.92255643,0.92255643 0 0 0 0.926577,0.9265 l 3.315407,0 1.563599,1.5781 0.275077,0.2606 0.376422,0 14.767317,0 0.376422,0 0.275077,-0.2606 1.563599,-1.5781 3.315407,0 0.926577,0 0,-0.9265 0,-11.07551 0,-0.9121 -0.926577,0 -2.20062,0 3.025852,-6.0517 L 78,990.87926 l -0.825233,-0.40538 -3.691829,-1.85315 -0.825233,-0.40538 z m 0.825233,2.46122 2.026886,1.02792 -2.692863,5.41468 -0.941055,-0.94105 -0.275077,-0.27508 -0.376422,0 -0.361944,0 2.620475,-5.22647 z m -12.957597,7.07962 10.322644,0 1.288521,1.28853 0,4.77758 -0.2606,-0.2606 -1.853153,-1.8531 -0.2606,-0.2606 -0.390899,0 -9.222335,0 -0.376422,0 -0.275077,0.2606 -1.838676,1.8531 -0.275077,0.2606 0,0.391 0,5.5305 0,0.3764 0.275077,0.275 0.275078,0.2751 -1.085832,0 -1.302999,-1.303 0,-6.0806 0.912099,0 0.926577,0 0,-0.9266 0,-1.4622 3.141674,-3.14171 z m 13.464319,1.83868 1.838675,0 0,9.22233 -1.838675,0 0,-9.22233 z m -22.136498,3.69183 1.838676,0 0,5.5305 -1.838676,0 0,-5.5305 z m 8.672179,0 8.469491,0 1.302998,1.303 0,3.3154 0,1.4622 -1.317476,1.303 -8.440535,0 -1.317476,-1.3175 0,-4.7487 1.302998,-1.3174 z"
         style="color:#000000;font-style:normal;font-variant:normal;font-weight:normal;font-stretch:normal;font-size:medium;line-height:normal;font-family:Sans;-inkscape-font-specification:Sans;text-indent:0;text-align:start;text-decoration:none;text-decoration-line:none;letter-spacing:normal;word-spacing:normal;text-transform:none;direction:ltr;block-progression:tb;writing-mode:lr-tb;baseline-shift:baseline;text-anchor:start;display:inline;overflow:visible;visibility:visible;fill:#ffffff;fill-opacity:1;stroke:none;stroke-width:3.98224616;marker:none;enable-background:accumulate"
         inkscape:connector-curvature="0" />
    </g>
    <path
       id="path4343"
       d="m 163.09198,1005.0244 -0.14994,0.2947 -1.22544,2.4509 -3.09204,0 -0.13443,0 -0.0982,0.098 -1.31851,1.3184 -0.0931,0.093 0,0.1396 0,0.331 -0.33092,0 -1.31851,0 a 0.32948433,0.32948433 0 0 0 -0.031,0 0.32948433,0.32948433 0 0 0 -0.29989,0.3257 l 0,2.637 a 0.32948433,0.32948433 0 0 0 0.33091,0.3309 l 1.18408,0 0.55843,0.5637 0.0982,0.093 0.13443,0 5.27404,0 0.13444,0 0.0983,-0.093 0.55842,-0.5637 1.18407,0 0.33093,0 0,-0.3309 0,-3.9555 0,-0.3258 -0.33093,0 -0.78593,0 1.08066,-2.1613 0.14995,-0.2947 -0.29473,-0.1448 -1.31851,-0.6618 -0.29472,-0.1448 z m 0.29473,0.879 0.72389,0.3671 -0.96174,1.9338 -0.33609,-0.336 -0.0982,-0.098 -0.13444,0 -0.12927,0 0.93589,-1.8666 z m -4.62771,2.5284 3.68666,0 0.46018,0.4602 0,1.7063 -0.0931,-0.093 -0.66184,-0.6618 -0.0931,-0.093 -0.13961,0 -3.29369,0 -0.13443,0 -0.0982,0.093 -0.65667,0.6618 -0.0983,0.093 0,0.1396 0,1.9752 0,0.1344 0.0983,0.098 0.0982,0.098 -0.3878,0 -0.46536,-0.4653 0,-2.1717 0.32575,0 0.33092,0 0,-0.3309 0,-0.5222 1.12203,-1.1221 z m 4.80868,0.6567 0.65667,0 0,3.2937 -0.65667,0 0,-3.2937 z m -7.90589,1.3185 0.65667,0 0,1.9752 -0.65667,0 0,-1.9752 z m 3.09721,0 3.02482,0 0.46535,0.4654 0,1.1841 0,0.5222 -0.47052,0.4653 -3.01448,0 -0.47053,-0.4705 0,-1.696 0.46536,-0.4705 z"
       style="color:#000000;font-style:normal;font-variant:normal;font-weight:normal;font-stretch:normal;font-size:medium;line-height:normal;font-family:Sans;-inkscape-font-specification:Sans;text-indent:0;text-align:start;text-decoration:none;text-decoration-line:none;letter-spacing:normal;word-spacing:normal;text-transform:none;direction:ltr;block-progression:tb;writing-mode:lr-tb;baseline-shift:baseline;text-anchor:start;display:inline;overflow:visible;visibility:visible;fill:#ffffff;fill-opacity:1;stroke:none;stroke-width:3.98224616;marker:none;enable-background:accumulate"
       inkscape:connector-curvature="0" />
    <path
       style="opacity:1;fill:#ffffff;stroke:none"
       d="M 149 119 L 149 125 L 155 125 L 155 119 L 154 119 L 154 120 L 150 120 L 150 119 L 149 119 z M 150 121 L 154 121 L 154 124 L 150 124 L 150 121 z "
       transform="translate(0,924.36218)"
       id="rect4164" />
  </g>
</svg>
