<?xml version="1.0" encoding="UTF-8" standalone="no"?>
<!-- Created with Inkscape (http://www.inkscape.org/) -->

<svg
   xmlns:dc="http://purl.org/dc/elements/1.1/"
   xmlns:cc="http://creativecommons.org/ns#"
   xmlns:rdf="http://www.w3.org/1999/02/22-rdf-syntax-ns#"
   xmlns:svg="http://www.w3.org/2000/svg"
   xmlns="http://www.w3.org/2000/svg"
   xmlns:xlink="http://www.w3.org/1999/xlink"
   xmlns:sodipodi="http://sodipodi.sourceforge.net/DTD/sodipodi-0.dtd"
   xmlns:inkscape="http://www.inkscape.org/namespaces/inkscape"
   width="128"
   height="128"
   id="svg2"
   version="1.1"
   inkscape:version="0.91 r"
   sodipodi:docname="nautilus.svg">
  <defs
     id="defs4">
    <inkscape:perspective
       sodipodi:type="inkscape:persp3d"
       inkscape:vp_x="0 : 64 : 1"
       inkscape:vp_y="0 : 1000 : 0"
       inkscape:vp_z="128 : 64 : 1"
       inkscape:persp3d-origin="64 : 42.666667 : 1"
       id="perspective8890" />
    <linearGradient
       id="linearGradient3785-6">
      <stop
         style="stop-color:#ffffff;stop-opacity:1;"
         offset="0"
         id="stop3787-4" />
      <stop
         style="stop-color:#d6d6d6;stop-opacity:1;"
         offset="1"
         id="stop3789-3" />
    </linearGradient>
    <linearGradient
       id="linearGradient3802-3">
      <stop
         style="stop-color:#ffc475;stop-opacity:1;"
         offset="0"
         id="stop3804-4" />
      <stop
         style="stop-color:#ff004a;stop-opacity:1;"
         offset="1"
         id="stop3806-1" />
    </linearGradient>
    <radialGradient
       inkscape:collect="always"
       xlink:href="#linearGradient3802-3"
       id="radialGradient3852"
       cx="153.60025"
       cy="1046.2241"
       fx="153.60025"
       fy="1046.2241"
       r="7.5"
       gradientTransform="matrix(1.6666654,-3.5764157e-7,3.5147543e-7,1.5999884,-101.0006,-626.5843)"
       gradientUnits="userSpaceOnUse" />
    <linearGradient
       id="linearGradient3802-3-5">
      <stop
         style="stop-color:#ffc475;stop-opacity:1;"
         offset="0"
         id="stop3804-4-7" />
      <stop
         style="stop-color:#ff004a;stop-opacity:1;"
         offset="1"
         id="stop3806-1-0" />
    </linearGradient>
    <linearGradient
       id="linearGradient3785-0-1">
      <stop
         style="stop-color:#ffffff;stop-opacity:1;"
         offset="0"
         id="stop3787-7-8" />
      <stop
         style="stop-color:#d6d6d6;stop-opacity:1;"
         offset="1"
         id="stop3789-1-7" />
    </linearGradient>
  </defs>
  <sodipodi:namedview
     id="base"
     pagecolor="#ffffff"
     bordercolor="#666666"
     borderopacity="1.0"
     inkscape:pageopacity="0.0"
     inkscape:pageshadow="2"
     inkscape:zoom="4"
     inkscape:cx="33.706637"
     inkscape:cy="55.39727"
     inkscape:document-units="px"
     inkscape:current-layer="layer1"
     showgrid="true"
     inkscape:window-width="1366"
     inkscape:window-height="741"
     inkscape:window-x="0"
     inkscape:window-y="27"
     inkscape:window-maximized="1">
    <inkscape:grid
       type="xygrid"
       id="grid3000"
       empspacing="4"
       visible="true"
       enabled="true"
       snapvisiblegridlinesonly="true" />
  </sodipodi:namedview>
  <metadata
     id="metadata7">
    <rdf:RDF>
      <cc:Work
         rdf:about="">
        <dc:format>image/svg+xml</dc:format>
        <dc:type
           rdf:resource="http://purl.org/dc/dcmitype/StillImage" />
        <dc:title />
      </cc:Work>
    </rdf:RDF>
  </metadata>
  <g
     inkscape:label="Ebene 1"
     inkscape:groupmode="layer"
     id="layer1"
     transform="translate(0,-924.36218)">
    <text
       sodipodi:linespacing="125%"
       style="font-style:normal;font-weight:normal;font-size:24px;line-height:125%;font-family:Sans;letter-spacing:0px;word-spacing:0px;fill:#000000;fill-opacity:1;stroke:none"
       xml:space="preserve"
       id="text5893-3"
       y="948.36218"
       x="-56"><tspan
         id="tspan5895-8"
         y="948.36218"
         x="-56">128</tspan></text>
    <text
       sodipodi:linespacing="125%"
       style="font-style:normal;font-weight:normal;font-size:16px;line-height:125%;font-family:Sans;letter-spacing:0px;word-spacing:0px;fill:#000000;fill-opacity:1;stroke:none"
       xml:space="preserve"
       id="text5901"
       y="1000.3622"
       x="184"><tspan
         id="tspan5903"
         y="1000.3622"
         x="184">31 - 17</tspan></text>
    <text
       sodipodi:linespacing="125%"
       style="font-style:normal;font-weight:normal;font-size:16px;line-height:125%;font-family:Sans;letter-spacing:0px;word-spacing:0px;fill:#000000;fill-opacity:1;stroke:none"
       xml:space="preserve"
       id="text5905"
       y="1048.3622"
       x="172"><tspan
         id="tspan5907"
         y="1048.3622"
         x="172">16</tspan></text>
    <rect
       style="fill:none;stroke:#000000;stroke-width:1;stroke-linecap:round;stroke-linejoin:round;stroke-miterlimit:4;stroke-dasharray:none;stroke-dashoffset:0;stroke-opacity:1"
       id="rect5919"
       y="984.36218"
       x="140"
       rx="4.5902016e-07"
       height="40"
       width="40" />
    <path
       style="opacity:1;fill:#babdb6;fill-opacity:1;stroke:none"
       d="M 144 113 L 144 114 L 144 120 L 160 120 L 160 114 L 148 114 L 148 113 L 144 113 z "
       transform="translate(0,924.36218)"
       id="rect8156" />
    <rect
       style="fill:none;stroke:#000000;stroke-width:1;stroke-linecap:round;stroke-linejoin:round;stroke-miterlimit:4;stroke-dasharray:none;stroke-dashoffset:0;stroke-opacity:1"
       id="rect5921"
       y="1032.3622"
       x="140"
       rx="4.5902016e-07"
       height="24"
       width="24" />
    <rect
       style="fill:#b3b3b3;fill-opacity:1;stroke:none"
       id="rect6935"
       y="980.36218"
       x="144"
       rx="4.5902016e-07"
       height="4"
       width="32" />
    <rect
       style="fill:#b3b3b3;fill-opacity:1;stroke:none"
       id="rect6937"
       y="988.36218"
       x="136"
       rx="4.5902016e-07"
       height="32"
       width="4" />
    <rect
       style="fill:#b3b3b3;fill-opacity:1;stroke:none"
       id="rect6939"
       y="1028.3622"
       x="144"
       rx="4.5902016e-07"
       height="4"
       width="16" />
    <rect
       style="fill:#b3b3b3;fill-opacity:1;stroke:none"
       id="rect6941"
       y="1036.3622"
       x="136"
       rx="4.5902016e-07"
       height="16"
       width="4" />
    <path
       style="opacity:1;fill:#babdb6"
       d="M 145 68 C 144.446 68 144 68.446001 144 69 L 144 71.390625 L 144 72 L 144 78.609375 C 144 79.38015 144.61985 80 145.39062 80 L 174.60938 80 C 175.38015 80 176 79.38015 176 78.609375 L 176 71.390625 C 176 70.61985 175.38015 70 174.60938 70 L 154 70 C 152 70 152 68 150 68 L 148 68 L 145 68 z "
       transform="translate(0,924.36218)"
       id="rect4181" />
    <rect
       style="opacity:1;fill:#eeeeec;stroke:none"
       id="rect4200"
       width="29"
       height="11"
       x="146"
       y="996.36218"
       rx="1.3912899"
       ry="1.3912899" />
    <rect
       style="opacity:1;fill:#ffffff;stroke:none"
       id="rect4198"
       width="29"
       height="9"
       x="145"
       y="997.36218"
       rx="1.3912899"
       ry="1.3912899" />
    <path
       style="opacity:1;fill:#555753"
       d="m 156,76 c -2,0 -2,2 -4,2 l -1,0 -5.60938,0 C 144.61985,78 144,78.61985 144,79.390625 l 0,1.546875 0,0.671875 0,11 C 144,93.38015 144.61986,94 145.39062,94 l 29.21876,0 C 175.38014,94 176,93.38015 176,92.609375 l 0,-15.21875 C 176,76.61985 175.38014,76 174.60938,76 Z"
       id="rect4179"
       inkscape:connector-curvature="0"
       sodipodi:nodetypes="sscssccsssssss"
       transform="translate(0,924.36218)" />
    <rect
       style="opacity:1;fill:#ffffff;fill-opacity:1;stroke:none"
       id="rect8166"
       width="14"
       height="5"
       x="145"
       y="1039.3622" />
    <path
       style="opacity:1;fill:#555753;fill-opacity:1;stroke:none"
       d="M 148 117 L 148 118 L 144 118 L 144 126 L 160 126 L 160 117 L 148 117 z "
       transform="translate(0,924.36218)"
       id="rect8154" />
    <g
       id="g3375"
       transform="matrix(1.3333333,0,0,1.3333333,-21.333333,-329.45406)">
      <g
         id="g3370">
        <path
           style="opacity:1;fill:#babdb6;fill-opacity:1;stroke:none;stroke-width:0.3125;stroke-miterlimit:4;stroke-dasharray:none"
           d="m 19,25 c -1.662,0 -3,1.338 -3,3 l 0,6 0,66 c 0,1.662 1.338,3 3,3 l 90,0 c 1.662,0 3,-1.338 3,-3 l 0,-66 c 0,-1.662 -1.338,-3 -3,-3 l -53,0 c -8,0 -8,-6 -16,-6 l -21,0 z"
           transform="translate(0,924.36218)"
           id="rect3584"
           inkscape:connector-curvature="0" />
        <rect
           style="opacity:1;fill:#eeeeec;fill-opacity:1;stroke:none;stroke-width:0.3125;stroke-miterlimit:4;stroke-dasharray:none"
           id="rect3594"
           width="86.999977"
           height="50.999985"
           x="22.000008"
           y="958.36212"
           rx="2.999999"
           ry="2.999999" />
        <rect
           ry="2.999999"
           rx="2.999999"
           y="961.36212"
           x="19.000008"
           height="50.999985"
           width="86.999977"
           id="rect3596"
           style="opacity:1;fill:#ffffff;fill-opacity:1;stroke:none;stroke-width:0.3125;stroke-miterlimit:4;stroke-dasharray:none" />
        <path
           inkscape:connector-curvature="0"
           style="opacity:1;fill:#555753;fill-opacity:1;stroke:none;stroke-width:0.3125;stroke-miterlimit:4;stroke-dasharray:none"
           d="m 58,970.36218 c -5.999998,0 -6.000001,6 -12,6 l -11,0 -2,0 -14,0 c -1.662,0 -3,1.338 -3,3 l 0,5 0,3 0,37.00002 c 0,1.6619 1.338,3 3,3 l 90,0 c 1.662,0 3,-1.3381 3,-3 l 0,-51.00002 c 0,-1.662 -1.338,-3 -3,-3 l -51,0 z"
           id="rect3589" />
      </g>
      <path
         d="m 62.768726,1000.4763 c 0.332743,0.6655 -0.732897,0.7769 -1.10608,0.5531 -1.011303,-0.6066 -0.720574,-2.06398 10e-7,-2.76524 1.28894,-1.2544 3.383295,-0.75356 4.424321,0.55304 1.527748,1.9175 0.793834,4.7228 -1.106083,6.0834 -2.532289,1.8135 -6.069825,0.8376 -7.742561,-1.6591 -2.104969,-3.1418 -0.883225,-7.42043 2.212164,-9.40167 3.74893,-2.39953 8.773135,-0.92996 11.060802,2.76521 2.695938,4.35466 0.977393,10.12706 -3.318245,12.71996 -4.959485,2.9935 -11.481933,1.0252 -14.379044,-3.8713 -3.291881,-5.56382 -1.073504,-12.83739 4.424327,-16.03819 6.167737,-3.59081 14.193232,-1.12195 17.697285,4.97737 3.890162,6.77142 1.170582,15.54942 -5.530409,19.35642"
         sodipodi:t0="0"
         sodipodi:argument="-17.742407"
         sodipodi:radius="14.839625"
         sodipodi:revolution="3"
         sodipodi:expansion="1"
         sodipodi:cy="1000.4763"
         sodipodi:cx="62.768726"
         id="path3017"
         style="fill:#ffffff;fill-opacity:0.50196078;stroke:#ffffff;stroke-width:1.99094462;stroke-linecap:round;stroke-linejoin:miter;stroke-miterlimit:4;stroke-dasharray:none;stroke-opacity:1"
         sodipodi:type="spiral" />
    </g>
    <path
       d="m 159.56032,1009.2638 c 0.11883,0.2377 -0.26175,0.2774 -0.39503,0.1975 -0.36118,-0.2166 -0.25735,-0.7371 0,-0.9876 0.46034,-0.448 1.20832,-0.2691 1.58011,0.1976 0.54563,0.6848 0.28352,1.6867 -0.39503,2.1726 -0.90438,0.6477 -2.16779,0.2991 -2.7652,-0.5925 -0.75177,-1.1221 -0.31543,-2.6502 0.79006,-3.3578 1.33891,-0.857 3.13327,-0.3321 3.95029,0.9876 0.96283,1.5552 0.34907,3.6168 -1.18509,4.5428 -1.77124,1.0691 -4.10069,0.3662 -5.13537,-1.3826 -1.17567,-1.987 -0.3834,-4.5848 1.58012,-5.7279 2.20276,-1.2824 5.06901,-0.4007 6.32045,1.7776 1.38935,2.4184 0.41807,5.5534 -1.97514,6.913"
       sodipodi:t0="0"
       sodipodi:argument="-17.742407"
       sodipodi:radius="5.2998662"
       sodipodi:revolution="3"
       sodipodi:expansion="1"
       sodipodi:cy="1009.2638"
       sodipodi:cx="159.56032"
       id="path10576"
       style="fill:#ffffff;fill-opacity:0.50196078;stroke:#ffffff;stroke-width:0.71105164;stroke-linecap:round;stroke-linejoin:miter;stroke-miterlimit:4;stroke-dasharray:none;stroke-opacity:1"
       sodipodi:type="spiral" />
    <path
       style="fill:#ffffff;fill-opacity:1;stroke:none"
       d="m 152.00007,1043.7907 c -1.65688,0 -3.00004,1.3432 -3.00004,3.0001 0,0.1688 0.0435,0.3246 0.0803,0.4821 0.22182,0.9471 1.04785,1.6608 2.06252,1.6608 1.03555,0 1.8895,-0.7379 2.08932,-1.7143 l 1.7411,0 c 0.0195,-0.1385 0.0267,-0.2849 0.0267,-0.4286 0,-1.6569 -1.34316,-3.0001 -3.00004,-3.0001 z"
       id="path10578-4"
       inkscape:connector-curvature="0" />
  </g>
</svg>
