<?xml version="1.0" encoding="UTF-8" standalone="no"?>
<!-- Created with Inkscape (http://www.inkscape.org/) -->

<svg
   xmlns:dc="http://purl.org/dc/elements/1.1/"
   xmlns:cc="http://creativecommons.org/ns#"
   xmlns:rdf="http://www.w3.org/1999/02/22-rdf-syntax-ns#"
   xmlns:svg="http://www.w3.org/2000/svg"
   xmlns="http://www.w3.org/2000/svg"
   xmlns:xlink="http://www.w3.org/1999/xlink"
   xmlns:sodipodi="http://sodipodi.sourceforge.net/DTD/sodipodi-0.dtd"
   xmlns:inkscape="http://www.inkscape.org/namespaces/inkscape"
   width="128"
   height="128"
   id="svg2"
   version="1.1"
   inkscape:version="0.48.4 r9939"
   sodipodi:docname="folder-remote.svg">
  <defs
     id="defs4">
    <linearGradient
       inkscape:collect="always"
       id="linearGradient4161">
      <stop
         style="stop-color:#ffffff;stop-opacity:1;"
         offset="0"
         id="stop4163" />
      <stop
         style="stop-color:#ffffff;stop-opacity:0;"
         offset="1"
         id="stop4165" />
    </linearGradient>
    <radialGradient
       inkscape:collect="always"
       xlink:href="#linearGradient4161"
       id="radialGradient3135"
       gradientUnits="userSpaceOnUse"
       gradientTransform="matrix(1.4382022,6.1779722e-7,-4.6334786e-7,1.0786515,-70.112319,911.59732)"
       cx="160"
       cy="88.781929"
       fx="160"
       fy="88.781929"
       r="13.90625" />
    <radialGradient
       inkscape:collect="always"
       xlink:href="#linearGradient3785-00"
       id="radialGradient3791-7"
       cx="120"
       cy="217.06807"
       fx="120"
       fy="217.06807"
       r="366"
       gradientTransform="matrix(0.3723091,0,0,0.327632,-19.527241,892.69492)"
       gradientUnits="userSpaceOnUse" />
    <linearGradient
       id="linearGradient3785-00">
      <stop
         style="stop-color:#ffffff;stop-opacity:1;"
         offset="0"
         id="stop3787-86" />
      <stop
         style="stop-color:#d6d6d6;stop-opacity:1;"
         offset="1"
         id="stop3789-01" />
    </linearGradient>
    <radialGradient
       inkscape:collect="always"
       xlink:href="#linearGradient3802-57"
       id="radialGradient3808-1"
       cx="548"
       cy="726.62531"
       fx="548"
       fy="726.62531"
       r="364"
       gradientTransform="matrix(0.19466446,0,0,0.19466446,-23.569618,882.32189)"
       gradientUnits="userSpaceOnUse" />
    <linearGradient
       id="linearGradient3802-57">
      <stop
         style="stop-color:#ff2424;stop-opacity:1;"
         offset="0"
         id="stop3804-7" />
      <stop
         style="stop-color:#800000;stop-opacity:1;"
         offset="1"
         id="stop3806-7" />
    </linearGradient>
    <radialGradient
       inkscape:collect="always"
       xlink:href="#linearGradient3786-4"
       id="radialGradient3792-8"
       cx="69.103531"
       cy="1007.5928"
       fx="69.103531"
       fy="1007.5928"
       r="49.080517"
       gradientTransform="matrix(1.222481,2.9627286e-6,-3.21361e-6,1.3243539,-10.902227,-318.9127)"
       gradientUnits="userSpaceOnUse" />
    <linearGradient
       inkscape:collect="always"
       id="linearGradient3786-4">
      <stop
         style="stop-color:#ffffff;stop-opacity:1;"
         offset="0"
         id="stop3788-1" />
      <stop
         style="stop-color:#ffffff;stop-opacity:0;"
         offset="1"
         id="stop3790-8" />
    </linearGradient>
    <radialGradient
       inkscape:collect="always"
       xlink:href="#linearGradient3786-4"
       id="radialGradient3088"
       gradientUnits="userSpaceOnUse"
       gradientTransform="matrix(1.222481,2.9627286e-6,-3.21361e-6,1.3243539,-10.902227,-318.9127)"
       cx="69.103531"
       cy="1007.5928"
       fx="69.103531"
       fy="1007.5928"
       r="49.080517" />
    <radialGradient
       inkscape:collect="always"
       xlink:href="#linearGradient3802-57"
       id="radialGradient3091"
       gradientUnits="userSpaceOnUse"
       gradientTransform="matrix(0.19466446,0,0,0.19466446,-23.569618,882.32189)"
       cx="548"
       cy="726.62531"
       fx="548"
       fy="726.62531"
       r="364" />
    <radialGradient
       inkscape:collect="always"
       xlink:href="#linearGradient3785-00"
       id="radialGradient3105"
       gradientUnits="userSpaceOnUse"
       gradientTransform="matrix(0.3723091,0,0,0.327632,-19.527241,892.69492)"
       cx="120"
       cy="217.06807"
       fx="120"
       fy="217.06807"
       r="366" />
    <radialGradient
       inkscape:collect="always"
       xlink:href="#linearGradient3785-0-1-3"
       id="radialGradient4227"
       gradientUnits="userSpaceOnUse"
       gradientTransform="matrix(0.3723091,0,0,0.327632,-19.527241,892.69492)"
       cx="120"
       cy="217.06807"
       fx="120"
       fy="217.06807"
       r="366" />
    <linearGradient
       id="linearGradient3785-0-1-3">
      <stop
         style="stop-color:#ffffff;stop-opacity:1;"
         offset="0"
         id="stop3787-7-8-6" />
      <stop
         style="stop-color:#d6d6d6;stop-opacity:1;"
         offset="1"
         id="stop3789-1-7-4" />
    </linearGradient>
    <radialGradient
       inkscape:collect="always"
       xlink:href="#linearGradient3786-7-0"
       id="radialGradient4213"
       gradientUnits="userSpaceOnUse"
       gradientTransform="matrix(1.222481,2.9627286e-6,-3.21361e-6,1.3243539,-10.902227,-318.9127)"
       cx="69.103531"
       cy="1007.5928"
       fx="69.103531"
       fy="1007.5928"
       r="49.080517" />
    <linearGradient
       inkscape:collect="always"
       id="linearGradient3786-7-0">
      <stop
         style="stop-color:#ffffff;stop-opacity:1;"
         offset="0"
         id="stop3788-01-1" />
      <stop
         style="stop-color:#ffffff;stop-opacity:0;"
         offset="1"
         id="stop3790-2-7" />
    </linearGradient>
    <radialGradient
       inkscape:collect="always"
       xlink:href="#linearGradient3802-3-7"
       id="radialGradient4209"
       gradientUnits="userSpaceOnUse"
       gradientTransform="matrix(0.19466446,0,0,0.19466446,-23.569618,882.32189)"
       cx="548"
       cy="726.62531"
       fx="548"
       fy="726.62531"
       r="364" />
    <linearGradient
       id="linearGradient3802-3-7">
      <stop
         style="stop-color:#ff00ac;stop-opacity:1;"
         offset="0"
         id="stop3804-4-0" />
      <stop
         style="stop-color:#390044;stop-opacity:1;"
         offset="1"
         id="stop3806-1-9" />
    </linearGradient>
    <radialGradient
       inkscape:collect="always"
       xlink:href="#linearGradient3785-0-1-3"
       id="radialGradient4202"
       gradientUnits="userSpaceOnUse"
       gradientTransform="matrix(1.3690656,-5.9207165e-7,5.920727e-7,1.3690681,-60.89642,-371.42802)"
       cx="157.69576"
       cy="1007.1013"
       fx="157.69576"
       fy="1007.1013"
       r="14.608503" />
    <radialGradient
       inkscape:collect="always"
       xlink:href="#linearGradient3802-3-7"
       id="radialGradient4193"
       gradientUnits="userSpaceOnUse"
       gradientTransform="matrix(1.3690656,-5.9207165e-7,5.920727e-7,1.3690681,-60.89642,-371.42802)"
       cx="165"
       cy="1014.4056"
       fx="165"
       fy="1014.4056"
       r="14.608503" />
    <radialGradient
       inkscape:collect="always"
       xlink:href="#linearGradient4161-2-2"
       id="radialGradient4189"
       gradientUnits="userSpaceOnUse"
       gradientTransform="matrix(1.4382022,6.1779722e-7,-4.6334786e-7,1.0786515,-70.11232,911.59732)"
       cx="160"
       cy="88.781929"
       fx="160"
       fy="88.781929"
       r="13.90625" />
    <linearGradient
       inkscape:collect="always"
       id="linearGradient4161-2-2">
      <stop
         style="stop-color:#ffffff;stop-opacity:1;"
         offset="0"
         id="stop4163-0" />
      <stop
         style="stop-color:#ffffff;stop-opacity:0;"
         offset="1"
         id="stop4165-5" />
    </linearGradient>
    <radialGradient
       inkscape:collect="always"
       xlink:href="#linearGradient3785-0-1-3"
       id="radialGradient4185"
       gradientUnits="userSpaceOnUse"
       gradientTransform="matrix(1.5384615,-4.0200113e-6,4.0200063e-6,1.5384596,-80.773428,-561.48903)"
       cx="150"
       cy="1042.505"
       fx="150"
       fy="1042.505"
       r="6.5" />
    <radialGradient
       inkscape:collect="always"
       xlink:href="#linearGradient3802-3-7"
       id="radialGradient4182"
       gradientUnits="userSpaceOnUse"
       gradientTransform="matrix(1.3846166,-4.5998478e-6,4.5998576e-6,1.3846195,-59.360802,-403.68132)"
       cx="154.8125"
       cy="1050.8622"
       fx="154.8125"
       fy="1050.8622"
       r="6.5" />
    <radialGradient
       inkscape:collect="always"
       xlink:href="#linearGradient3802-57"
       id="radialGradient3261"
       gradientUnits="userSpaceOnUse"
       gradientTransform="matrix(1.3846166,-4.5998478e-6,4.5998576e-6,1.3846195,-59.360802,-403.68132)"
       cx="154.8125"
       cy="1050.8622"
       fx="154.8125"
       fy="1050.8622"
       r="6.5" />
    <radialGradient
       inkscape:collect="always"
       xlink:href="#linearGradient3785-0-1-3"
       id="radialGradient3264"
       gradientUnits="userSpaceOnUse"
       gradientTransform="matrix(1.5384615,-4.0200113e-6,4.0200063e-6,1.5384596,-80.773428,-561.48903)"
       cx="150"
       cy="1042.505"
       fx="150"
       fy="1042.505"
       r="6.5" />
    <radialGradient
       inkscape:collect="always"
       xlink:href="#linearGradient4161-2-2"
       id="radialGradient3268"
       gradientUnits="userSpaceOnUse"
       gradientTransform="matrix(1.4382022,6.1779722e-7,-4.6334786e-7,1.0786515,-70.11232,911.59732)"
       cx="160"
       cy="88.781929"
       fx="160"
       fy="88.781929"
       r="13.90625" />
    <radialGradient
       inkscape:collect="always"
       xlink:href="#linearGradient3802-57"
       id="radialGradient3272"
       gradientUnits="userSpaceOnUse"
       gradientTransform="matrix(1.3690656,-5.9207165e-7,5.920727e-7,1.3690681,-60.89642,-371.42802)"
       cx="165"
       cy="1014.4056"
       fx="165"
       fy="1014.4056"
       r="14.608503" />
    <radialGradient
       inkscape:collect="always"
       xlink:href="#linearGradient3785-0-1-3"
       id="radialGradient3281"
       gradientUnits="userSpaceOnUse"
       gradientTransform="matrix(1.3690656,-5.9207165e-7,5.920727e-7,1.3690681,-60.89642,-371.42802)"
       cx="157.69576"
       cy="1007.1013"
       fx="157.69576"
       fy="1007.1013"
       r="14.608503" />
    <radialGradient
       inkscape:collect="always"
       xlink:href="#linearGradient3802-57"
       id="radialGradient3288"
       gradientUnits="userSpaceOnUse"
       gradientTransform="matrix(0.19466446,0,0,0.19466446,-23.569618,882.32189)"
       cx="548"
       cy="726.62531"
       fx="548"
       fy="726.62531"
       r="364" />
    <radialGradient
       inkscape:collect="always"
       xlink:href="#linearGradient3786-7-0"
       id="radialGradient3292"
       gradientUnits="userSpaceOnUse"
       gradientTransform="matrix(1.222481,2.9627286e-6,-3.21361e-6,1.3243539,-10.902227,-318.9127)"
       cx="69.103531"
       cy="1007.5928"
       fx="69.103531"
       fy="1007.5928"
       r="49.080517" />
    <radialGradient
       inkscape:collect="always"
       xlink:href="#linearGradient3785-0-1-3"
       id="radialGradient3306"
       gradientUnits="userSpaceOnUse"
       gradientTransform="matrix(0.3723091,0,0,0.327632,-19.527241,892.69492)"
       cx="120"
       cy="217.06807"
       fx="120"
       fy="217.06807"
       r="366" />
  </defs>
  <sodipodi:namedview
     id="base"
     pagecolor="#ffffff"
     bordercolor="#666666"
     borderopacity="1.0"
     inkscape:pageopacity="0.0"
     inkscape:pageshadow="2"
     inkscape:zoom="3.447557"
     inkscape:cx="109.99876"
     inkscape:cy="58.409399"
     inkscape:document-units="px"
     inkscape:current-layer="layer1"
     showgrid="true"
     inkscape:window-width="1375"
     inkscape:window-height="876"
     inkscape:window-x="1345"
     inkscape:window-y="148"
     inkscape:window-maximized="1">
    <inkscape:grid
       type="xygrid"
       id="grid3000"
       empspacing="5"
       visible="true"
       enabled="true"
       snapvisiblegridlinesonly="true" />
  </sodipodi:namedview>
  <metadata
     id="metadata7">
    <rdf:RDF>
      <cc:Work
         rdf:about="">
        <dc:format>image/svg+xml</dc:format>
        <dc:type
           rdf:resource="http://purl.org/dc/dcmitype/StillImage" />
        <dc:title></dc:title>
      </cc:Work>
    </rdf:RDF>
  </metadata>
  <g
     inkscape:label="Ebene 1"
     inkscape:groupmode="layer"
     id="layer1"
     transform="translate(0,-924.36218)">
    <g
       id="g4082">
      <path
         inkscape:export-ydpi="32.142857"
         inkscape:export-xdpi="32.142857"
         inkscape:export-filename="/home/georg/.icons/Kawaiki-Only/places/scalable/rect3146.png"
         sodipodi:nodetypes="csscc"
         inkscape:connector-curvature="0"
         style="fill:#666666;fill-rule:evenodd;stroke:#999999;stroke-width:1.39128566;stroke-linecap:butt;stroke-linejoin:miter;stroke-miterlimit:4;stroke-opacity:1;stroke-dasharray:none"
         d="m 171.13029,1009.9273 c 1.54154,0 2.78257,-1.241 2.78257,-2.7825 l 0,-2.7826 c 0,-1.5415 -1.24103,-2.7826 -2.78257,-2.7826 -8.34772,-4.17381 -5.56515,15.3042 0,8.3477 z"
         id="path3151" />
      <text
         x="-56"
         y="948.36218"
         id="text5893-3"
         xml:space="preserve"
         style="font-size:24px;font-style:normal;font-weight:normal;line-height:125%;letter-spacing:0px;word-spacing:0px;fill:#000000;fill-opacity:1;stroke:none;font-family:Sans"
         sodipodi:linespacing="125%"><tspan
           x="-56"
           y="948.36218"
           id="tspan5895-8">128</tspan></text>
      <rect
         ry="2.3894534"
         rx="2.7253025"
         y="1025.3622"
         x="5.000001"
         height="11.999998"
         width="115.00002"
         id="rect3806"
         style="opacity:0.1;fill:#000000;fill-opacity:1;stroke:none" />
      <rect
         ry="2.3894534"
         rx="2.7253025"
         y="1026.3622"
         x="7.000001"
         height="8.0000296"
         width="111"
         id="rect3804"
         style="opacity:0.12000002;fill:#000000;stroke:none" />
      <rect
         ry="2.3894534"
         rx="2.7253025"
         y="1027.3622"
         x="10"
         height="4.999999"
         width="105"
         id="rect3802"
         style="opacity:0.25;fill:#000000;stroke:none" />
      <path
         sodipodi:nodetypes="cscscccccccccccccc"
         inkscape:connector-curvature="0"
         id="rect3002"
         d="m 22.424554,950.18686 0,5.45061 c 0,1.36265 -1.362653,2.72531 -2.725305,2.72531 -0.69976,0 -1.398545,0 -2.725294,0 -1.362653,0 -2.725306,1.36264 -2.725306,2.72529 l 0,62.68193 c 0,2.7253 2.725306,5.4506 5.4506,5.4506 l 87.209691,0 c 2.72531,0 5.45061,-2.7253 5.45061,-5.398 l 0,-62.73453 c 0,-1.36265 -1.36265,-2.72529 -2.7253,-2.72529 l -43.604849,0 c -1.362652,0 -2.725305,-1.36266 -2.725305,-2.72531 l 0,-5.45061 c 0,-2.7253 -1.362652,-2.7253 -2.725305,-2.7253 l -35.428932,1e-5 c -1.362653,0 -2.725305,1.36265 -2.725305,2.72529 z"
         style="fill:url(#radialGradient3306);fill-opacity:1;stroke:#505050;stroke-width:1.09012103;stroke-miterlimit:4;stroke-opacity:1;stroke-dasharray:none" />
      <g
         transform="matrix(0.13626513,0,0,0.13626513,6.7980401,929.42521)"
         id="g3867">
        <rect
           style="opacity:0.2;fill:#000000;fill-opacity:1;stroke:none"
           id="rect3847"
           width="40"
           height="420"
           x="80"
           y="252.36218"
           rx="20"
           ry="20" />
        <rect
           ry="20"
           rx="20"
           y="252.36218"
           x="160"
           height="420"
           width="40"
           id="rect3849"
           style="opacity:0.2;fill:#000000;fill-opacity:1;stroke:none" />
        <rect
           style="opacity:0.2;fill:#000000;fill-opacity:1;stroke:none"
           id="rect3851"
           width="40"
           height="420"
           x="240"
           y="252.36218"
           rx="20"
           ry="20" />
        <rect
           ry="20"
           rx="20"
           y="252.36218"
           x="320"
           height="420"
           width="40"
           id="rect3853"
           style="opacity:0.2;fill:#000000;fill-opacity:1;stroke:none" />
        <rect
           style="opacity:0.2;fill:#000000;fill-opacity:1;stroke:none"
           id="rect3855"
           width="40"
           height="420"
           x="400"
           y="252.36218"
           rx="20"
           ry="20" />
        <rect
           ry="20"
           rx="20"
           y="252.36218"
           x="460"
           height="420"
           width="40"
           id="rect3857"
           style="opacity:0.2;fill:#000000;fill-opacity:1;stroke:none" />
        <rect
           style="opacity:0.2;fill:#000000;fill-opacity:1;stroke:none"
           id="rect3859"
           width="40"
           height="420"
           x="540"
           y="252.36218"
           rx="20"
           ry="20" />
        <rect
           ry="20"
           rx="20"
           y="252.36218"
           x="620"
           height="420"
           width="40"
           id="rect3861"
           style="opacity:0.2;fill:#000000;fill-opacity:1;stroke:none" />
        <rect
           style="opacity:0.2;fill:#000000;fill-opacity:1;stroke:none"
           id="rect3863"
           width="40"
           height="420"
           x="700"
           y="252.36218"
           rx="20"
           ry="20" />
      </g>
      <path
         inkscape:connector-curvature="0"
         id="path3797"
         d="m 98.08201,961.30027 c -56.630838,0.21628 -35.932141,6.92853 -82.653534,8.12047 -1.237475,0 -2.459726,1.25596 -2.459726,2.49342 l 0,0.60651 c 49.801725,-1.86733 26.411612,-9.68562 99.93901,-9.40087 -0.22042,-1.77415 -1.31853,-1.78583 -2.42603,-1.78583 -4.50572,-0.047 -8.62432,-0.0481 -12.39972,-0.0336 z"
         style="opacity:0.25;fill:#000000;fill-opacity:1;stroke:none" />
      <path
         style="opacity:0.84999999999999998;fill:url(#radialGradient3288);fill-opacity:1.0;stroke:#505050;stroke-width:1.09012102999999994;stroke-miterlimit:4;stroke-opacity:1;stroke-dasharray:none"
         d="m 11.694916,971.897 c -1.362653,0 -2.725295,1.36265 -2.725295,2.72529 l 0,49.14771 c -0.397333,4.727 1.602667,5.727 4.729628,5.4506 l 99.930661,0 c 2.72531,0 5.45061,-2.7253 5.45061,-5.398 l 0,-58.10151 c 0,-2.7253 -1.36265,-2.7253 -2.7253,-2.7253 C 36.971094,962.16807 66.572288,970.497 11.694916,971.897 z"
         id="path3798"
         inkscape:connector-curvature="0"
         sodipodi:nodetypes="ccccccccc" />
      <path
         sodipodi:nodetypes="scscscscs"
         inkscape:connector-curvature="0"
         id="path3015"
         d="m 102.82229,962.9345 c -61.041028,0.23815 -39.677466,7.65625 -91.125002,8.96875 -1.362653,0 -2.7187498,1.35611 -2.7187498,2.71875 l 0,23.65625 c 25.7810448,-4.31192 70.3149148,-6.875 105.7187518,-6.875 1.46301,0 2.92197,0.0225 4.375,0.0313 l 0,-25.71875 c 0,-2.7253 -1.3561,-2.71875 -2.71875,-2.71875 -4.96151,-0.0517 -9.46185,-0.0784 -13.53125,-0.0625 z"
         style="opacity:0.75;fill:url(#radialGradient3292);fill-opacity:1;stroke:none" />
      <text
         x="184"
         y="1000.3622"
         id="text5901"
         xml:space="preserve"
         style="font-size:16px;font-style:normal;font-weight:normal;line-height:125%;letter-spacing:0px;word-spacing:0px;fill:#000000;fill-opacity:1;stroke:none;font-family:Sans"
         sodipodi:linespacing="125%"><tspan
           x="184"
           y="1000.3622"
           id="tspan5903">31 - 17</tspan></text>
      <text
         x="172"
         y="1048.3622"
         id="text5905"
         xml:space="preserve"
         style="font-size:16px;font-style:normal;font-weight:normal;line-height:125%;letter-spacing:0px;word-spacing:0px;fill:#000000;fill-opacity:1;stroke:none;font-family:Sans"
         sodipodi:linespacing="125%"><tspan
           x="172"
           y="1048.3622"
           id="tspan5907">16</tspan></text>
      <path
         inkscape:connector-curvature="0"
         style="fill:url(#radialGradient3281);fill-opacity:1;fill-rule:evenodd;stroke:#b3b3b3;stroke-width:1.39128566;stroke-linecap:butt;stroke-linejoin:miter;stroke-miterlimit:4;stroke-opacity:1;stroke-dasharray:none"
         d="m 148.86971,989.05809 c -1.54154,0 -2.78257,1.241 -2.78257,2.7825 l 0,25.04321 c 0,1.5415 1.24103,2.7825 2.78257,2.7825 l 19.478,0 c 1.54155,0 2.78258,-1.241 2.78258,-2.7825 l 0,-16.6955 c 1.54154,0 2.78257,-1.24101 2.78257,-2.78251 l 0,-2.7826 c 0,-1.5415 -1.24103,-2.7826 -2.78257,-2.7826 0,-1.5415 -1.24103,-2.7825 -2.78258,-2.7825 l -19.478,0 z"
         id="path4512"
         inkscape:export-filename="/home/georg/.icons/Kawaiki-Only/places/scalable/rect3146.png"
         inkscape:export-xdpi="32.142857"
         inkscape:export-ydpi="32.142857" />
      <rect
         width="40"
         height="40"
         rx="4.5902016e-07"
         x="140"
         y="984.36218"
         id="rect5919"
         style="fill:none;stroke:#000000;stroke-width:1;stroke-linecap:round;stroke-linejoin:round;stroke-miterlimit:4;stroke-opacity:1;stroke-dasharray:none;stroke-dashoffset:0" />
      <rect
         width="24"
         height="24"
         rx="4.5902016e-07"
         x="140"
         y="1032.3622"
         id="rect5921"
         style="fill:none;stroke:#000000;stroke-width:1;stroke-linecap:round;stroke-linejoin:round;stroke-miterlimit:4;stroke-opacity:1;stroke-dasharray:none;stroke-dashoffset:0" />
      <rect
         width="32"
         height="4"
         rx="4.5902016e-07"
         x="144"
         y="980.36218"
         id="rect6935"
         style="fill:#b3b3b3;fill-opacity:1;stroke:none" />
      <rect
         width="4"
         height="32"
         rx="4.5902016e-07"
         x="136"
         y="988.36218"
         id="rect6937"
         style="fill:#b3b3b3;fill-opacity:1;stroke:none" />
      <rect
         width="16"
         height="4"
         rx="4.5902016e-07"
         x="144"
         y="1028.3622"
         id="rect6939"
         style="fill:#b3b3b3;fill-opacity:1;stroke:none" />
      <rect
         width="4"
         height="16"
         rx="4.5902016e-07"
         x="136"
         y="1036.3622"
         id="rect6941"
         style="fill:#b3b3b3;fill-opacity:1;stroke:none" />
      <path
         inkscape:export-ydpi="32.142857"
         inkscape:export-xdpi="32.142857"
         inkscape:export-filename="/home/georg/.icons/Kawaiki-Only/places/scalable/rect3146.png"
         id="rect3144"
         d="m 148.86971,989.05809 c -1.54154,0 -2.78257,1.241 -2.78257,2.7825 l 0,25.04321 c 0,1.5415 1.24103,2.7825 2.78257,2.7825 l 19.478,0 c 1.54155,0 2.78258,-1.241 2.78258,-2.7825 l 0,-16.6955 c 1.54154,0 2.78257,-1.24101 2.78257,-2.78251 l 0,-2.7826 c 0,-1.5415 -1.24103,-2.7826 -2.78257,-2.7826 0,-1.5415 -1.24103,-2.7825 -2.78258,-2.7825 l -19.478,0 z"
         style="opacity:0.84999999999999998;fill:url(#radialGradient3272);fill-opacity:1.0;fill-rule:evenodd;stroke:#b3b3b3;stroke-width:1.39128566000000009;stroke-linecap:butt;stroke-linejoin:miter;stroke-miterlimit:4;stroke-opacity:1;stroke-dasharray:none"
         inkscape:connector-curvature="0" />
      <rect
         inkscape:export-ydpi="32.142857"
         inkscape:export-xdpi="32.142857"
         ry="1.3912857"
         rx="1.3912857"
         y="991.84058"
         x="148.86972"
         height="25.043142"
         width="19.478001"
         id="rect3146"
         style="fill:none;stroke:#eeeeec;stroke-width:1.39128566;stroke-miterlimit:4;stroke-dasharray:none" />
      <path
         inkscape:connector-curvature="0"
         id="path4154"
         d="m 148.875,989.04968 c -1.54154,0 -2.78125,1.23975 -2.78125,2.78125 l 0,14.59377 c 6.87691,-2.9814 15.55072,-4.8132 25.03125,-5.0313 l 0,-1.2187 c 1.54154,0 2.78125,-1.23977 2.78125,-2.78127 l 0,-2.78125 c 0,-1.5415 -1.23971,-2.78125 -2.78125,-2.78125 0,-1.5415 -1.2397,-2.78125 -2.78125,-2.78125 l -19.46875,0 z"
         style="opacity:0.5;fill:url(#radialGradient3268);fill-opacity:1;fill-rule:evenodd;stroke:none" />
      <path
         sodipodi:nodetypes="sssssscsscss"
         inkscape:connector-curvature="0"
         id="rect4029"
         d="m 147,1036.3622 c -1.108,0 -2,0.892 -2,2 l 0,12 c 0,1.108 0.892,2 2,2 l 10,0 c 1.108,0 2,-0.892 2,-2 l 0,-7.2813 c 0.59691,-0.3452 1,-0.9768 1,-1.7187 l 0,-2 c 0,-0.816 -0.48992,-1.5008 -1.1875,-1.8125 -0.31167,-0.6976 -0.9965,-1.1875 -1.8125,-1.1875 z"
         style="fill:#888a85;fill-opacity:1;stroke:none" />
      <path
         style="fill:url(#radialGradient3264);fill-opacity:1;stroke:none"
         d="m 147,1037.3622 c -0.554,0 -1,0.446 -1,1 l 0,12 c 0,0.554 0.446,1 1,1 l 10,0 c 0.554,0 1,-0.446 1,-1 l 0,-8 c 0.554,0 1,-0.446 1,-1 l 0,-2 c 0,-0.554 -0.446,-1 -1,-1 0,-0.554 -0.446,-1 -1,-1 z"
         id="path4516"
         inkscape:connector-curvature="0"
         sodipodi:nodetypes="sssssscsscss" />
      <path
         sodipodi:nodetypes="sssssscsscss"
         inkscape:connector-curvature="0"
         id="rect4016"
         d="m 147,1037.3622 c -0.554,0 -1,0.446 -1,1 l 0,12 c 0,0.554 0.446,1 1,1 l 10,0 c 0.554,0 1,-0.446 1,-1 l 0,-8 c 0.554,0 1,-0.446 1,-1 l 0,-2 c 0,-0.554 -0.446,-1 -1,-1 0,-0.554 -0.446,-1 -1,-1 z"
         style="opacity:0.84999999999999998;fill:url(#radialGradient3261);fill-opacity:1.0;stroke:none" />
      <path
         sodipodi:nodetypes="ssssssssssssssssss"
         inkscape:connector-curvature="0"
         id="rect4018"
         d="m 148,1038.3622 c -0.554,0 -1,0.446 -1,1 l 0,10 c 0,0.554 0.446,1 1,1 l 8,0 c 0.554,0 1,-0.446 1,-1 l 0,-10 c 0,-0.554 -0.446,-1 -1,-1 z m 1,1 6,0 c 0.554,0 1,0.446 1,1 l 0,8 c 0,0.554 -0.446,1 -1,1 l -6,0 c -0.554,0 -1,-0.446 -1,-1 l 0,-8 c 0,-0.554 0.446,-1 1,-1 z"
         style="fill:#eeeeec;fill-opacity:1;stroke:none" />
      <rect
         ry="2.7253025"
         rx="2.7253025"
         y="950.18689"
         x="25.149862"
         height="6.1319308"
         width="25.890375"
         id="rect3828"
         style="opacity:0.85;fill:#aa0000;fill-opacity:1;stroke:none" />
    </g>
    <g
       id="g5281">
      <g
         id="g4833">
        <path
           id="path3792"
           d="m 64.000002,978.02259 c -10.862282,0 -19.840876,8.11455 -21.194992,18.60821 l 5.17358,-2.58679 5.67425,2.83712 c 1.123387,-4.69577 5.307125,-8.17759 10.347162,-8.17759 4.881945,0 8.905845,3.28729 10.180271,7.76036 l 5.841139,2.92057 5.17358,-2.58678 c -1.282794,-10.57153 -10.277299,-18.7751 -21.19499,-18.7751 z m -16.021412,21.36188 -5.17358,2.58673 c 1.282795,10.5716 10.277299,18.7752 21.194992,18.7752 10.86228,0 19.840874,-8.1146 21.19499,-18.6082 l -5.17358,2.5868 -5.67425,-2.8371 c -1.123387,4.6958 -5.307125,8.1776 -10.34716,8.1776 -4.881947,0 -8.905847,-3.2874 -10.180273,-7.7604 l -5.841139,-2.92063 z"
           style="opacity:0.25;fill:none;stroke:#000000;stroke-width:4;stroke-linejoin:round;stroke-miterlimit:4;stroke-opacity:1;stroke-dasharray:none"
           inkscape:connector-curvature="0" />
        <path
           inkscape:connector-curvature="0"
           style="fill:#ffffff;stroke:none"
           d="m 64.000002,978.02259 c -10.862282,0 -19.840876,8.11455 -21.194992,18.60821 l 5.17358,-2.58679 5.67425,2.83712 c 1.123387,-4.69577 5.307125,-8.17759 10.347162,-8.17759 4.881945,0 8.905845,3.28729 10.180271,7.76036 l 5.841139,2.92057 5.17358,-2.58678 c -1.282794,-10.57153 -10.277299,-18.7751 -21.19499,-18.7751 z m -16.021412,21.36188 -5.17358,2.58673 c 1.282795,10.5716 10.277299,18.7752 21.194992,18.7752 10.86228,0 19.840874,-8.1146 21.19499,-18.6082 l -5.17358,2.5868 -5.67425,-2.8371 c -1.123387,4.6958 -5.307125,8.1776 -10.34716,8.1776 -4.881947,0 -8.905847,-3.2874 -10.180273,-7.7604 l -5.841139,-2.92063 z"
           id="path6366-5" />
        <path
           id="path3980"
           d="m 158.60872,997.36195 c -3.55952,0 -6.50176,2.65905 -6.9455,6.09785 l 1.69536,-0.8477 1.85942,0.9297 c 0.36813,-1.5388 1.73912,-2.6798 3.39072,-2.6798 1.59979,0 2.9184,1.0773 3.33603,2.5431 l 1.91411,0.957 1.69536,-0.8476 c -0.42037,-3.4643 -3.36782,-6.15255 -6.9455,-6.15255 z m -5.25014,7.00015 -1.69536,0.8476 c 0.42037,3.4643 3.36782,6.1526 6.9455,6.1526 3.55952,0 6.50176,-2.6591 6.9455,-6.0978 l -1.69536,0.8477 -1.85942,-0.9298 c -0.36813,1.5388 -1.73912,2.6798 -3.39072,2.6798 -1.59979,0 -2.9184,-1.0773 -3.33603,-2.543 l -1.91411,-0.9571 z"
           style="fill:#ffffff;stroke:none"
           inkscape:connector-curvature="0" />
      </g>
      <path
         inkscape:connector-curvature="0"
         id="path5095"
         transform="translate(0,924.36218)"
         d="m 148,114 c -0.554,0 -1,0.446 -1,1 l 0,10 c 0,0.554 0.446,1 1,1 l 8,0 c 0.554,0 1,-0.446 1,-1 l 0,-10 c 0,-0.554 -0.446,-1 -1,-1 l -8,0 z m 0,1 1,0 1,1 4,0 1,1 0,4 -2,0 3,3 0,1 -1,0 -1,-1 -4,0 -1,-1 0,-4 2,0 -3,-3 0,-1 z"
         style="fill:#ffffff;fill-opacity:1;stroke:none" />
    </g>
  </g>
</svg>
