<?xml version="1.0" encoding="UTF-8" standalone="no"?>
<!-- Created with Inkscape (http://www.inkscape.org/) -->

<svg
   xmlns:dc="http://purl.org/dc/elements/1.1/"
   xmlns:cc="http://creativecommons.org/ns#"
   xmlns:rdf="http://www.w3.org/1999/02/22-rdf-syntax-ns#"
   xmlns:svg="http://www.w3.org/2000/svg"
   xmlns="http://www.w3.org/2000/svg"
   xmlns:xlink="http://www.w3.org/1999/xlink"
   xmlns:sodipodi="http://sodipodi.sourceforge.net/DTD/sodipodi-0.dtd"
   xmlns:inkscape="http://www.inkscape.org/namespaces/inkscape"
   sodipodi:docname="document-print-preview.svg"
   inkscape:version="0.48.4 r9939"
   version="1.1"
   id="svg2"
   height="128"
   width="128">
  <sodipodi:namedview
     id="base"
     pagecolor="#ffffff"
     bordercolor="#666666"
     borderopacity="1.0"
     inkscape:pageopacity="0.0"
     inkscape:pageshadow="2"
     inkscape:zoom="14.481547"
     inkscape:cx="143.49608"
     inkscape:cy="7.8495458"
     inkscape:document-units="px"
     inkscape:current-layer="layer1"
     showgrid="true"
     showguides="true"
     inkscape:guide-bbox="true"
     inkscape:window-width="1366"
     inkscape:window-height="744"
     inkscape:window-x="0"
     inkscape:window-y="24"
     inkscape:window-maximized="1">
    <inkscape:grid
       snapvisiblegridlinesonly="true"
       enabled="true"
       visible="true"
       empspacing="4"
       id="grid2985"
       type="xygrid" />
  </sodipodi:namedview>
  <defs
     id="defs4">
    <linearGradient
       id="linearGradient7110">
      <stop
         style="stop-color:#5a5a5a;stop-opacity:1;"
         offset="0"
         id="stop7112" />
      <stop
         style="stop-color:#202020;stop-opacity:1;"
         offset="1"
         id="stop7114" />
    </linearGradient>
    <linearGradient
       id="linearGradient4216-4-8-2">
      <stop
         id="stop4218-8-0-7"
         offset="0"
         style="stop-color:#494949;stop-opacity:1;" />
      <stop
         id="stop4220-1-6-4"
         offset="1"
         style="stop-color:#0f0f0f;stop-opacity:1;" />
    </linearGradient>
    <linearGradient
       id="linearGradient8794-33">
      <stop
         style="stop-color:#ffffff;stop-opacity:1;"
         offset="0"
         id="stop8796-9" />
      <stop
         style="stop-color:#cacaca;stop-opacity:1;"
         offset="1"
         id="stop8798-6" />
    </linearGradient>
    <radialGradient
       inkscape:collect="always"
       xlink:href="#linearGradient7110-3"
       id="radialGradient7015"
       cx="154"
       cy="118.5"
       fx="154"
       fy="118.5"
       r="6"
       gradientTransform="matrix(1.6666671,-2.132751e-6,2.1327498e-6,1.6666661,-102.66697,-79.499605)"
       gradientUnits="userSpaceOnUse" />
    <linearGradient
       id="linearGradient4216-4-8-2-65">
      <stop
         id="stop4218-8-0-7-9"
         offset="0"
         style="stop-color:#494949;stop-opacity:1;" />
      <stop
         id="stop4220-1-6-4-1"
         offset="1"
         style="stop-color:#0f0f0f;stop-opacity:1;" />
    </linearGradient>
    <radialGradient
       inkscape:collect="always"
       xlink:href="#linearGradient7006-3"
       id="radialGradient3164"
       gradientUnits="userSpaceOnUse"
       gradientTransform="translate(3.8146973e-7,924.36219)"
       cx="88"
       cy="36"
       fx="88"
       fy="36"
       r="51" />
    <linearGradient
       inkscape:collect="always"
       id="linearGradient7006-3">
      <stop
         style="stop-color:#ffffff;stop-opacity:1;"
         offset="0"
         id="stop7008-6" />
      <stop
         style="stop-color:#ffffff;stop-opacity:0;"
         offset="1"
         id="stop7010-1" />
    </linearGradient>
    <linearGradient
       inkscape:collect="always"
       xlink:href="#linearGradient6978-3"
       id="linearGradient3167"
       gradientUnits="userSpaceOnUse"
       gradientTransform="translate(3.8146973e-7,924.36219)"
       x1="64"
       y1="188"
       x2="64"
       y2="8" />
    <linearGradient
       inkscape:collect="always"
       id="linearGradient6978-3">
      <stop
         style="stop-color:#000000;stop-opacity:0.25"
         offset="0"
         id="stop6980-7" />
      <stop
         style="stop-color:#000000;stop-opacity:0;"
         offset="1"
         id="stop6982-0" />
    </linearGradient>
    <radialGradient
       gradientTransform="translate(3.8146973e-7,-1.1772461e-5)"
       inkscape:collect="always"
       xlink:href="#linearGradient4216-4-8-2-6"
       id="radialGradient3171"
       gradientUnits="userSpaceOnUse"
       cx="64"
       cy="1020.3622"
       fx="64"
       fy="1020.3622"
       r="52" />
    <linearGradient
       id="linearGradient4216-4-8-2-6">
      <stop
         id="stop4218-8-0-7-4"
         offset="0"
         style="stop-color:#ffffff;stop-opacity:1;" />
      <stop
         id="stop4220-1-6-4-0"
         offset="1"
         style="stop-color:#c6c6c6;stop-opacity:1;" />
    </linearGradient>
    <filter
       color-interpolation-filters="sRGB"
       inkscape:collect="always"
       id="filter6960">
      <feGaussianBlur
         inkscape:collect="always"
         stdDeviation="4.16"
         id="feGaussianBlur6962" />
    </filter>
    <radialGradient
       inkscape:collect="always"
       xlink:href="#linearGradient7110-3"
       id="radialGradient6767"
       gradientUnits="userSpaceOnUse"
       gradientTransform="matrix(0.39938788,3.7672235e-7,-3.7672231e-7,0.39938784,133.61688,609.47842)"
       cx="72"
       cy="972.36169"
       fx="72"
       fy="972.36169"
       r="36.000175" />
    <radialGradient
       inkscape:collect="always"
       xlink:href="#linearGradient7110"
       id="radialGradient6780"
       gradientUnits="userSpaceOnUse"
       gradientTransform="matrix(1.0647759,1.0043491e-6,-1.004349e-6,1.0647758,-6.3379101,-69.405707)"
       cx="72"
       cy="972.36169"
       fx="72"
       fy="972.36169"
       r="36.000175" />
    <radialGradient
       inkscape:collect="always"
       xlink:href="#linearGradient7110-3"
       id="radialGradient6861"
       cx="150.00002"
       cy="122.00002"
       fx="150.00002"
       fy="122.00002"
       r="8"
       gradientUnits="userSpaceOnUse"
       gradientTransform="matrix(-1,0,0,-1,304.00002,1164.3622)" />
    <linearGradient
       id="linearGradient7110-3">
      <stop
         style="stop-color:#5a5a5a;stop-opacity:1;"
         offset="0"
         id="stop7112-3" />
      <stop
         style="stop-color:#202020;stop-opacity:1;"
         offset="1"
         id="stop7114-6" />
    </linearGradient>
    <radialGradient
       r="8"
       fy="122.00002"
       fx="150.00002"
       cy="122.00002"
       cx="150.00002"
       gradientTransform="matrix(-1,0,0,-1,308.00002,1220.3622)"
       gradientUnits="userSpaceOnUse"
       id="radialGradient3207"
       xlink:href="#linearGradient7110-3"
       inkscape:collect="always" />
    <radialGradient
       inkscape:collect="always"
       xlink:href="#linearGradient7110-3"
       id="radialGradient3822"
       gradientUnits="userSpaceOnUse"
       gradientTransform="matrix(1.0843142,1.0227787e-6,-1.0227785e-6,1.0843141,-7.6285079,-87.723654)"
       cx="72"
       cy="972.36169"
       fx="72"
       fy="972.36169"
       r="36.000175" />
  </defs>
  <metadata
     id="metadata7">
    <rdf:RDF>
      <cc:Work
         rdf:about="">
        <dc:format>image/svg+xml</dc:format>
        <dc:type
           rdf:resource="http://purl.org/dc/dcmitype/StillImage" />
        <dc:title />
      </cc:Work>
    </rdf:RDF>
  </metadata>
  <g
     transform="translate(0,-924.36218)"
     id="layer1"
     inkscape:groupmode="layer"
     inkscape:label="Layer 1">
    <path
       inkscape:connector-curvature="0"
       id="path6990"
       d="m 156.60021,991.23381 c -4.09075,0 -7.40431,3.32293 -7.40431,7.41367 0,4.09072 3.31356,7.40432 7.40431,7.40432 1.57315,0 3.03153,-0.4929 4.23104,-1.3292 a 1.3468568,1.3468568 0 0 0 0.20594,0.2621 l 7.40431,7.4043 a 1.3468568,1.3468568 0 1 0 1.90022,-1.9002 l -7.40431,-7.4137 a 1.3468568,1.3468568 0 0 0 -0.25274,-0.1966 c 0.8363,-1.1995 1.31986,-2.6579 1.31986,-4.23102 0,-4.09074 -3.31356,-7.41367 -7.40432,-7.41367 z m 0,1.34794 c 3.34699,0 6.05638,2.71877 6.05638,6.06573 0,3.34702 -2.70939,6.05642 -6.05638,6.05642 -3.34698,0 -6.05637,-2.7094 -6.05637,-6.05642 0,-3.34696 2.70939,-6.06573 6.05637,-6.06573 z m -0.91734,3.22008 c -0.52255,0 -0.94544,0.41352 -0.94544,0.93607 l 0,6.0751 c 0.56853,0.2531 1.19546,0.3931 1.86278,0.3931 0.01,0 0.0186,10e-5 0.0281,0 l 0,-5.52277 4.42761,0 c -0.14816,-0.70277 -0.46103,-1.34212 -0.88927,-1.8815 l -4.48377,0 z m 9.35133,0 c 0.20379,0.602 0.34175,1.23049 0.41187,1.8815 l 0.61781,0 1.8815,1.89086 0,6.39331 1.89086,1.8909 0,-9.22964 -2.83629,-2.82693 -1.96575,0 z m -10.29677,11.55107 0,9.1922 c 0,0.5226 0.42289,0.9455 0.94544,0.9455 l 13.20794,0 c 0.52255,0 0.94543,-0.4229 0.94543,-0.9455 l 0,-2.2559 c -0.64468,0.1018 -1.31002,-0.032 -1.89086,-0.3931 l 0,1.713 -11.31708,0 0,-8.0596 c -0.009,0 -0.0186,0 -0.0281,0 -0.63922,0 -1.26102,-0.067 -1.86278,-0.1966 z"
       style="fill:url(#radialGradient6767);fill-opacity:1;stroke:#000000;stroke-width:1;stroke-miterlimit:4;stroke-opacity:0.18823529999999999;stroke-dasharray:none;stroke-linejoin:round" />
    <text
       xml:space="preserve"
       style="font-size:24px;font-style:normal;font-weight:normal;line-height:125%;letter-spacing:0px;word-spacing:0px;fill:#000000;fill-opacity:1;stroke:none;font-family:Sans"
       x="-56"
       y="948.36218"
       id="text5893"
       sodipodi:linespacing="125%"><tspan
         sodipodi:role="line"
         id="tspan5895"
         x="-56"
         y="948.36218">128</tspan></text>
    <text
       sodipodi:linespacing="125%"
       id="text5901"
       y="1000.3622"
       x="184"
       style="font-size:16px;font-style:normal;font-weight:normal;line-height:125%;letter-spacing:0px;word-spacing:0px;fill:#000000;fill-opacity:1;stroke:none;font-family:Sans"
       xml:space="preserve"><tspan
         y="1000.3622"
         x="184"
         id="tspan5903"
         sodipodi:role="line">31 - 17</tspan></text>
    <text
       xml:space="preserve"
       style="font-size:16px;font-style:normal;font-weight:normal;line-height:125%;letter-spacing:0px;word-spacing:0px;fill:#000000;fill-opacity:1;stroke:none;font-family:Sans"
       x="172"
       y="1048.3622"
       id="text5905"
       sodipodi:linespacing="125%"><tspan
         sodipodi:role="line"
         id="tspan5907"
         x="172"
         y="1048.3622">16</tspan></text>
    <rect
       style="fill:none;stroke:#000000;stroke-width:1;stroke-linecap:round;stroke-linejoin:round;stroke-miterlimit:4;stroke-opacity:1;stroke-dasharray:none;stroke-dashoffset:0"
       id="rect5919"
       width="40"
       height="40"
       x="140"
       y="60"
       transform="translate(0,924.36218)"
       rx="4.5902016e-07" />
    <rect
       style="fill:none;stroke:#000000;stroke-width:1;stroke-linecap:round;stroke-linejoin:round;stroke-miterlimit:4;stroke-opacity:1;stroke-dasharray:none;stroke-dashoffset:0"
       id="rect5921"
       width="24"
       height="24"
       x="140"
       y="1032.3622"
       rx="4.5902016e-07" />
    <rect
       style="fill:#b3b3b3;fill-opacity:1;stroke:none"
       id="rect6935"
       width="32"
       height="4"
       x="144"
       y="56"
       transform="translate(0,924.36218)"
       rx="4.5902016e-07" />
    <rect
       style="fill:#b3b3b3;fill-opacity:1;stroke:none"
       id="rect6937"
       width="4"
       height="32"
       x="136"
       y="64"
       transform="translate(0,924.36218)"
       rx="4.5902016e-07" />
    <rect
       style="fill:#b3b3b3;fill-opacity:1;stroke:none"
       id="rect6939"
       width="16"
       height="4"
       x="144"
       y="104"
       rx="4.5902016e-07"
       transform="translate(0,924.36218)" />
    <rect
       style="fill:#b3b3b3;fill-opacity:1;stroke:none"
       id="rect6941"
       width="4"
       height="16"
       x="136"
       y="112"
       transform="translate(0,924.36218)"
       rx="4.5902016e-07" />
    <rect
       ry="8"
       rx="8"
       y="936.36218"
       x="12"
       height="104"
       width="104"
       id="rect6938"
       style="fill:#000000;fill-opacity:1;stroke:none;filter:url(#filter6960)" />
    <rect
       style="fill:url(#radialGradient3171);fill-opacity:1;stroke:none"
       id="rect6936-6"
       width="104"
       height="104"
       x="12"
       y="936.36218"
       rx="8"
       ry="8" />
    <rect
       ry="8"
       rx="8"
       y="932.36218"
       x="12"
       height="104"
       width="104"
       id="rect6964-2"
       style="fill:#ffffff;fill-opacity:1;stroke:none" />
    <rect
       style="opacity:0.5;fill:url(#linearGradient3167);fill-opacity:1;stroke:none"
       id="rect6975"
       width="102"
       height="102"
       x="13"
       y="933.36218"
       rx="8"
       ry="8" />
    <rect
       ry="8"
       rx="8"
       y="933.36218"
       x="13"
       height="102"
       width="102"
       id="rect7002"
       style="opacity:0.5;fill:url(#radialGradient3164);fill-opacity:1;stroke:none" />
    <path
       style="fill:url(#radialGradient3822);fill-opacity:1;stroke:#000000;stroke-width:2.71494007;stroke-linejoin:round;stroke-miterlimit:4;stroke-opacity:0.18823529;stroke-dasharray:none"
       d="m 54.769853,948.71938 c -11.10615,0 -20.10226,9.02155 -20.10226,20.12767 0,11.10606 8.99611,20.10233 20.10226,20.10233 4.271,0 8.23042,-1.3382 11.48702,-3.6087 a 3.6566356,3.6566356 0 0 0 0.55911,0.7115 l 20.10226,20.10232 a 3.6566356,3.6566356 0 1 0 5.15898,-5.159 l -20.10226,-20.12772 a 3.6566356,3.6566356 0 0 0 -0.68617,-0.5338 c 2.2705,-3.25654 3.58334,-7.216 3.58334,-11.48693 0,-11.10612 -8.99612,-20.12767 -20.10228,-20.12767 z m 0,3.65957 c 9.08687,0 16.4427,7.3813 16.4427,16.4681 0,9.08696 -7.35583,16.44283 -16.4427,16.44283 -9.08686,0 -16.44269,-7.35587 -16.44269,-16.44283 0,-9.0868 7.35583,-16.4681 16.44269,-16.4681 z m -2.49053,8.74233 c -1.41869,0 -2.56681,1.12268 -2.56681,2.54137 l 0,16.49353 c 1.54352,0.6872 3.2456,1.0672 5.05734,1.0672 0.0271,0 0.0505,3e-4 0.0763,0 l 0,-14.99394 12.02069,0 c -0.40224,-1.90798 -1.25167,-3.64378 -2.41431,-5.10816 l -12.17317,0 z m 25.3883,0 c 0.55328,1.63439 0.92783,3.34071 1.11821,5.10816 l 1.67731,0 5.10816,5.13357 0,17.35747 5.13357,5.1337 0,-25.05796 -7.70035,-7.67494 -5.3369,0 z m -27.95511,31.3605 0,24.95622 c 0,1.4189 1.14812,2.567 2.56681,2.567 l 35.85877,0 c 1.41869,0 2.56678,-1.1481 2.56678,-2.567 l 0,-6.1246 c -1.75026,0.2764 -3.55662,-0.087 -5.13357,-1.0672 l 0,4.6507 -30.72519,0 0,-21.88142 c -0.0244,0 -0.0505,0 -0.0763,0 -1.73545,0 -3.4236,-0.1819 -5.05734,-0.5337 z"
       id="path3820"
       inkscape:connector-curvature="0" />
    <path
       inkscape:connector-curvature="0"
       style="fill:#555753;fill-opacity:1;stroke:none"
       d="m 146,1036.3622 0,5 1,0 0,-4 8.3125,0 1.6875,1.6875 0,2.3125 1,0 0,-2.6875 -2.3125,-2.3125 -8.6875,0 -1,0 z m 3,2 0,4 -2,0 c -0.554,0 -1,0.446 -1,1 l 0,5 c 0,0.554 0.446,1 1,1 l 1,0 0,1 8,0 0,-1 1,0 c 0.554,0 1,-0.446 1,-1 l 0,-5 c 0,-0.554 -0.446,-1 -1,-1 l -2,0 0,-4 -6,0 z m 1,1 4,0 0,4 -4,0 0,-4 z m -3,4 2,0 0,1 5.5,0 0.5,0 0,-1 1,0 1,0 0,1 0,0.5 0,3.5 -1,0 0,-1 -8,0 0,1 -1,0 0,-5 z m 6,2 0,1 1,0 0,-1 -1,0 z m 2,0 0,1 1,0 0,-1 -1,0 z m -6,3 6,0 0,1 -6,0 0,-1 z m -3,2 0,2 1,0 10,0 1,0 0,-2 -1,0 0,1 -10,0 0,-1 -1,0 z"
       id="rect7382" />
  </g>
</svg>
