<?xml version="1.0" encoding="UTF-8" standalone="no"?>
<!-- Created with Inkscape (http://www.inkscape.org/) -->

<svg
   xmlns:dc="http://purl.org/dc/elements/1.1/"
   xmlns:cc="http://creativecommons.org/ns#"
   xmlns:rdf="http://www.w3.org/1999/02/22-rdf-syntax-ns#"
   xmlns:svg="http://www.w3.org/2000/svg"
   xmlns="http://www.w3.org/2000/svg"
   xmlns:xlink="http://www.w3.org/1999/xlink"
   xmlns:sodipodi="http://sodipodi.sourceforge.net/DTD/sodipodi-0.dtd"
   xmlns:inkscape="http://www.inkscape.org/namespaces/inkscape"
   sodipodi:docname="edit-find-replace.svg"
   inkscape:version="0.48.4 r9939"
   version="1.1"
   id="svg2"
   height="128"
   width="128">
  <sodipodi:namedview
     id="base"
     pagecolor="#ffffff"
     bordercolor="#666666"
     borderopacity="1.0"
     inkscape:pageopacity="0.0"
     inkscape:pageshadow="2"
     inkscape:zoom="5.1200001"
     inkscape:cx="116.61862"
     inkscape:cy="11.849944"
     inkscape:document-units="px"
     inkscape:current-layer="layer1"
     showgrid="true"
     showguides="true"
     inkscape:guide-bbox="true"
     inkscape:window-width="1366"
     inkscape:window-height="744"
     inkscape:window-x="0"
     inkscape:window-y="24"
     inkscape:window-maximized="1">
    <inkscape:grid
       snapvisiblegridlinesonly="true"
       enabled="true"
       visible="true"
       empspacing="4"
       id="grid2985"
       type="xygrid" />
  </sodipodi:namedview>
  <defs
     id="defs4">
    <linearGradient
       id="linearGradient7110">
      <stop
         style="stop-color:#5a5a5a;stop-opacity:1;"
         offset="0"
         id="stop7112" />
      <stop
         style="stop-color:#202020;stop-opacity:1;"
         offset="1"
         id="stop7114" />
    </linearGradient>
    <linearGradient
       id="linearGradient4216-4-8-2">
      <stop
         id="stop4218-8-0-7"
         offset="0"
         style="stop-color:#494949;stop-opacity:1;" />
      <stop
         id="stop4220-1-6-4"
         offset="1"
         style="stop-color:#0f0f0f;stop-opacity:1;" />
    </linearGradient>
    <radialGradient
       inkscape:collect="always"
       xlink:href="#linearGradient4216-4-8-2"
       id="radialGradient5899"
       gradientUnits="userSpaceOnUse"
       gradientTransform="translate(0,2)"
       cx="64"
       cy="1020.3622"
       fx="64"
       fy="1020.3622"
       r="52" />
    <radialGradient
       inkscape:collect="always"
       xlink:href="#linearGradient7110"
       id="radialGradient7116"
       cx="80"
       cy="972.36218"
       fx="80"
       fy="972.36218"
       r="52.5"
       gradientUnits="userSpaceOnUse" />
    <linearGradient
       id="linearGradient6964-4">
      <stop
         style="stop-color:#ffffff;stop-opacity:1;"
         offset="0"
         id="stop6966-4" />
      <stop
         style="stop-color:#cacaca;stop-opacity:1;"
         offset="1"
         id="stop6970-3" />
    </linearGradient>
    <radialGradient
       inkscape:collect="always"
       xlink:href="#linearGradient7110"
       id="radialGradient10066"
       cx="156"
       cy="1040.3622"
       fx="156"
       fy="1040.3622"
       r="7.9998608"
       gradientTransform="matrix(1,0,0,0.99999781,0,-924.35989)"
       gradientUnits="userSpaceOnUse" />
    <radialGradient
       inkscape:collect="always"
       xlink:href="#linearGradient6964-4"
       id="radialGradient10014"
       gradientUnits="userSpaceOnUse"
       gradientTransform="matrix(1.4444368,3.2381007e-7,-3.2381004e-7,1.4444367,-37.332384,-1354.737)"
       cx="84"
       cy="968.36157"
       fx="84"
       fy="968.36157"
       r="36.000191" />
    <radialGradient
       inkscape:collect="always"
       xlink:href="#linearGradient6964-4"
       id="radialGradient10027"
       gradientUnits="userSpaceOnUse"
       gradientTransform="matrix(1.4444368,3.2381007e-7,-3.2381004e-7,1.4444367,-37.332384,-1354.737)"
       cx="84"
       cy="968.36157"
       fx="84"
       fy="968.36157"
       r="36.000191" />
    <radialGradient
       inkscape:collect="always"
       xlink:href="#linearGradient7110-5"
       id="radialGradient6761"
       gradientUnits="userSpaceOnUse"
       gradientTransform="matrix(0.76126091,0,0,1.0943125,15.279286,916.51481)"
       cx="84"
       cy="46.695652"
       fx="84"
       fy="46.695652"
       r="32" />
    <linearGradient
       id="linearGradient7110-5">
      <stop
         style="stop-color:#5a5a5a;stop-opacity:1;"
         offset="0"
         id="stop7112-7" />
      <stop
         style="stop-color:#202020;stop-opacity:1;"
         offset="1"
         id="stop7114-8" />
    </linearGradient>
    <radialGradient
       inkscape:collect="always"
       xlink:href="#linearGradient7006-8"
       id="radialGradient6053"
       gradientUnits="userSpaceOnUse"
       gradientTransform="translate(1.1814697e-6,924.36217)"
       cx="88"
       cy="36"
       fx="88"
       fy="36"
       r="51" />
    <linearGradient
       inkscape:collect="always"
       id="linearGradient7006-8">
      <stop
         style="stop-color:#ffffff;stop-opacity:1;"
         offset="0"
         id="stop7008-1" />
      <stop
         style="stop-color:#ffffff;stop-opacity:0;"
         offset="1"
         id="stop7010-1" />
    </linearGradient>
    <linearGradient
       inkscape:collect="always"
       xlink:href="#linearGradient6978-3"
       id="linearGradient6051"
       gradientUnits="userSpaceOnUse"
       gradientTransform="translate(1.1814697e-6,924.36217)"
       x1="64"
       y1="188"
       x2="64"
       y2="8" />
    <linearGradient
       inkscape:collect="always"
       id="linearGradient6978-3">
      <stop
         style="stop-color:#000000;stop-opacity:0.25"
         offset="0"
         id="stop6980-5" />
      <stop
         style="stop-color:#000000;stop-opacity:0;"
         offset="1"
         id="stop6982-7" />
    </linearGradient>
    <radialGradient
       inkscape:collect="always"
       xlink:href="#linearGradient4216-4-8-2-6"
       id="radialGradient6049"
       gradientUnits="userSpaceOnUse"
       gradientTransform="translate(1.1814697e-6,-3.1772461e-5)"
       cx="64"
       cy="1020.3622"
       fx="64"
       fy="1020.3622"
       r="52" />
    <linearGradient
       id="linearGradient4216-4-8-2-6">
      <stop
         id="stop4218-8-0-7-4"
         offset="0"
         style="stop-color:#ffffff;stop-opacity:1;" />
      <stop
         id="stop4220-1-6-4-0"
         offset="1"
         style="stop-color:#c6c6c6;stop-opacity:1;" />
    </linearGradient>
    <filter
       color-interpolation-filters="sRGB"
       inkscape:collect="always"
       id="filter6960">
      <feGaussianBlur
         inkscape:collect="always"
         stdDeviation="4.16"
         id="feGaussianBlur6962" />
    </filter>
    <radialGradient
       r="32"
       fy="46.695652"
       fx="84"
       cy="46.695652"
       cx="84"
       gradientTransform="matrix(0.76126091,0,0,1.0943125,15.279286,916.51481)"
       gradientUnits="userSpaceOnUse"
       id="radialGradient7115"
       xlink:href="#linearGradient7110-5"
       inkscape:collect="always" />
    <radialGradient
       inkscape:collect="always"
       xlink:href="#linearGradient7110"
       id="radialGradient3869"
       gradientUnits="userSpaceOnUse"
       gradientTransform="matrix(0.51771681,1.160604e-7,-1.1606039e-7,0.51771678,123.68032,496.57356)"
       cx="84"
       cy="968.36157"
       fx="84"
       fy="968.36157"
       r="36.000191" />
    <radialGradient
       inkscape:collect="always"
       xlink:href="#linearGradient7110"
       id="radialGradient3875"
       gradientUnits="userSpaceOnUse"
       gradientTransform="matrix(1.4291782,3.2038943e-7,-3.2038941e-7,1.4291781,-36.200964,-417.40885)"
       cx="84"
       cy="968.36157"
       fx="84"
       fy="968.36157"
       r="36.000191" />
  </defs>
  <metadata
     id="metadata7">
    <rdf:RDF>
      <cc:Work
         rdf:about="">
        <dc:format>image/svg+xml</dc:format>
        <dc:type
           rdf:resource="http://purl.org/dc/dcmitype/StillImage" />
        <dc:title />
      </cc:Work>
    </rdf:RDF>
  </metadata>
  <g
     transform="translate(0,-924.36218)"
     id="layer1"
     inkscape:groupmode="layer"
     inkscape:label="Layer 1">
    <path
       sodipodi:nodetypes="ssscccscccssssssssssssssssccccc"
       inkscape:connector-curvature="0"
       id="path10020"
       d="m 155.95656,991.45901 c -4.89485,0 -8.85973,3.96491 -8.85973,8.85969 0,4.8949 3.96488,8.871 8.85973,8.871 1.88237,0 3.62741,-0.5899 5.0627,-1.5905 0.0695,0.1102 0.15245,0.212 0.24641,0.3024 l 8.85973,8.8709 c 0.59819,0.5982 1.68674,0.5982 2.28493,0 0.5982,-0.5982 0.5982,-1.6867 0,-2.2849 l -8.87092,-8.8597 c -0.0904,-0.094 -0.19214,-0.177 -0.30242,-0.2465 1.00068,-1.4353 1.59049,-3.1803 1.59049,-5.0627 0,-4.89478 -3.97607,-8.85969 -8.87092,-8.85969 z m 0,1.6129 c 4.00488,0 7.25803,3.24194 7.25803,7.24679 0,4.0049 -3.25315,7.2581 -7.25803,7.2581 -4.00488,0 -7.24683,-3.2532 -7.24683,-7.2581 0,-4.00485 3.24195,-7.24679 7.24683,-7.24679 z m -6.7092,18.45869 c -0.79426,0 -1.43368,0.6394 -1.43368,1.4337 l 0,2.8674 c 0,0.7942 0.63942,1.4336 1.43368,1.4336 l 10.0358,0 c 0.79426,0 1.43368,-0.6394 1.43368,-1.4336 l 0,-2.8674 c 0,-0.7943 -0.63942,-1.4337 -1.43368,-1.4337 z m 0,1.4337 10.0358,0 0,2.8674 -10.0358,0 z"
       style="fill:url(#radialGradient3869);fill-opacity:1;stroke:#000000;stroke-width:1;stroke-miterlimit:4;stroke-opacity:0.18823529999999999;stroke-dasharray:none;stroke-linejoin:round" />
    <text
       xml:space="preserve"
       style="font-size:24px;font-style:normal;font-weight:normal;line-height:125%;letter-spacing:0px;word-spacing:0px;fill:#000000;fill-opacity:1;stroke:none;font-family:Sans"
       x="-56"
       y="948.36218"
       id="text5893"
       sodipodi:linespacing="125%"><tspan
         sodipodi:role="line"
         id="tspan5895"
         x="-56"
         y="948.36218">128</tspan></text>
    <text
       sodipodi:linespacing="125%"
       id="text5901"
       y="1000.3622"
       x="184"
       style="font-size:16px;font-style:normal;font-weight:normal;line-height:125%;letter-spacing:0px;word-spacing:0px;fill:#000000;fill-opacity:1;stroke:none;font-family:Sans"
       xml:space="preserve"><tspan
         y="1000.3622"
         x="184"
         id="tspan5903"
         sodipodi:role="line">31 - 17</tspan></text>
    <text
       xml:space="preserve"
       style="font-size:16px;font-style:normal;font-weight:normal;line-height:125%;letter-spacing:0px;word-spacing:0px;fill:#000000;fill-opacity:1;stroke:none;font-family:Sans"
       x="172"
       y="1048.3622"
       id="text5905"
       sodipodi:linespacing="125%"><tspan
         sodipodi:role="line"
         id="tspan5907"
         x="172"
         y="1048.3622">16</tspan></text>
    <rect
       style="fill:none;stroke:#000000;stroke-width:1;stroke-linecap:round;stroke-linejoin:round;stroke-miterlimit:4;stroke-opacity:1;stroke-dasharray:none;stroke-dashoffset:0"
       id="rect5919"
       width="40"
       height="40"
       x="140"
       y="60"
       transform="translate(0,924.36218)"
       rx="4.5902016e-07" />
    <rect
       style="fill:none;stroke:#000000;stroke-width:1;stroke-linecap:round;stroke-linejoin:round;stroke-miterlimit:4;stroke-opacity:1;stroke-dasharray:none;stroke-dashoffset:0"
       id="rect5921"
       width="24"
       height="24"
       x="140"
       y="1032.3622"
       rx="4.5902016e-07" />
    <rect
       style="fill:#b3b3b3;fill-opacity:1;stroke:none"
       id="rect6935"
       width="32"
       height="4"
       x="144"
       y="56"
       transform="translate(0,924.36218)"
       rx="4.5902016e-07" />
    <rect
       style="fill:#b3b3b3;fill-opacity:1;stroke:none"
       id="rect6937"
       width="4"
       height="32"
       x="136"
       y="64"
       transform="translate(0,924.36218)"
       rx="4.5902016e-07" />
    <rect
       style="fill:#b3b3b3;fill-opacity:1;stroke:none"
       id="rect6939"
       width="16"
       height="4"
       x="144"
       y="104"
       rx="4.5902016e-07"
       transform="translate(0,924.36218)" />
    <rect
       style="fill:#b3b3b3;fill-opacity:1;stroke:none"
       id="rect6941"
       width="4"
       height="16"
       x="136"
       y="112"
       transform="translate(0,924.36218)"
       rx="4.5902016e-07" />
    <path
       style="fill:url(#radialGradient7115);fill-opacity:1;stroke:none"
       d="m 42.695436,949.33806 c -1.68696,0 -3.05214,1.3652 -3.05214,3.05216 l 0,63.94388 c 0,1.6871 1.36518,3.0522 3.05214,3.0522 l 42.6091,0 c 1.68697,0 3.05217,-1.3651 3.05217,-3.0522 l 0,-57.86982 -9.12622,-9.12622 -36.53505,0 z m 3.02192,6.1043 30.46099,0 6.10427,6.07406 0,51.76548 -36.56526,0 0,-57.83954 z m 9.54928,17.25519 -2.93127,2.93135 0,20.39788 8.03832,-8.0383 -5.10705,0 0,-10.90908 1.45053,-1.4505 14.56567,0 1.4505,1.4505 0,14.56558 -1.4505,1.4505 -12.3899,0 -2.90105,2.9313 16.74145,0 2.93127,-2.9313 0,-17.46658 -2.93127,-2.93135 -17.4667,0 z"
       id="path6759"
       inkscape:connector-curvature="0" />
    <rect
       ry="8"
       rx="8"
       y="936.36218"
       x="12"
       height="104"
       width="104"
       id="rect6938"
       style="fill:#000000;fill-opacity:1;stroke:none;filter:url(#filter6960)" />
    <rect
       style="fill:url(#radialGradient6049);fill-opacity:1;stroke:none"
       id="rect6936-6"
       width="104"
       height="104"
       x="12"
       y="936.36218"
       rx="8"
       ry="8" />
    <rect
       ry="8"
       rx="8"
       y="932.36218"
       x="12"
       height="104"
       width="104"
       id="rect6964-2"
       style="fill:#ffffff;fill-opacity:1;stroke:none" />
    <rect
       style="opacity:0.5;fill:url(#linearGradient6051);fill-opacity:1;stroke:none"
       id="rect6975"
       width="102"
       height="102"
       x="13"
       y="933.36218"
       rx="8"
       ry="8" />
    <rect
       ry="8"
       rx="8"
       y="933.36218"
       x="13"
       height="102"
       width="102"
       id="rect7002"
       style="opacity:0.5;fill:url(#radialGradient6053);fill-opacity:1;stroke:none" />
    <path
       style="fill:url(#radialGradient3875);fill-opacity:1;stroke:#000000;stroke-width:2.76054049;stroke-linejoin:round;stroke-miterlimit:4;stroke-opacity:0.18823529;stroke-dasharray:none"
       d="m 52.898914,948.74253 c -13.51243,0 -24.45764,10.94529 -24.45764,24.45753 0,13.51257 10.94521,24.48877 24.45764,24.48877 5.19636,0 10.01361,-1.6285 13.97579,-4.3907 0.19186,0.3043 0.42084,0.5853 0.68022,0.8348 l 24.45765,24.48847 c 1.65132,1.6514 4.65631,1.6514 6.30764,0 1.65135,-1.6513 1.65135,-4.6562 0,-6.3075 l -24.48854,-24.45757 c -0.24955,-0.2595 -0.53041,-0.4886 -0.83484,-0.6805 2.76242,-3.9622 4.39061,-8.77932 4.39061,-13.97577 0,-13.51224 -10.9761,-24.45753 -24.48853,-24.45753 z m 0,4.45248 c 11.05563,0 20.03609,8.9495 20.03609,20.00505 0,11.05567 -8.98046,20.03627 -20.03609,20.03627 -11.05563,0 -20.00517,-8.9806 -20.00517,-20.03627 0,-11.05555 8.94954,-20.00505 20.00517,-20.00505 z m -18.52102,50.95589 c -2.19259,0 -3.95773,1.7651 -3.95773,3.9578 l 0,7.9156 c 0,2.1924 1.76514,3.9575 3.95773,3.9575 l 27.70423,0 c 2.19259,0 3.95774,-1.7651 3.95774,-3.9575 l 0,-7.9156 c 0,-2.1927 -1.76515,-3.9578 -3.95774,-3.9578 z m 0,3.9578 27.70423,0 0,7.9156 -27.70423,0 z"
       id="path3873"
       inkscape:connector-curvature="0"
       sodipodi:nodetypes="ssscccscccssssssssssssssssccccc" />
    <path
       inkscape:connector-curvature="0"
       style="color:#000000;fill:#555753;fill-opacity:1;fill-rule:nonzero;stroke:none;stroke-width:2;marker:none;visibility:visible;display:inline;overflow:visible;enable-background:accumulate"
       d="m 149.5,1036.3626 c -3.03757,0 -5.5,2.4624 -5.5,5.5 0,3.0376 2.46243,5.5 5.5,5.5 1.34476,0 2.57569,-0.4798 3.53125,-1.2813 l 0.59375,0.5625 0,0.031 a 1.50015,1.50015 0 0 0 0.3125,1.75 l 3,3 a 1.5026019,1.5026019 0 1 0 2.125,-2.125 l -3,-3 a 1.50015,1.50015 0 0 0 -1.21875,-0.4687 1.50015,1.50015 0 0 0 -0.15625,0.031 1.50015,1.50015 0 0 0 -0.375,0.125 l -0.59375,-0.5938 c 0.80147,-0.9554 1.28125,-2.1864 1.28125,-3.5311 0,-3.0376 -2.46243,-5.5 -5.5,-5.5 z m 0,1 c 2.48528,0 4.5,2.0147 4.5,4.5 0,2.4853 -2.01472,4.5 -4.5,4.5 -2.48528,0 -4.5,-2.0147 -4.5,-4.5 0,-2.4853 2.01472,-4.5 4.5,-4.5 z m 5.3125,9.5 a 0.50005,0.50005 0 0 1 0.0312,0 0.50005,0.50005 0 0 1 0.0625,0 0.50005,0.50005 0 0 1 0.4375,0.1562 l 3,3 a 0.50005,0.50005 0 1 1 -0.6875,0.6875 l -3,-3 a 0.50005,0.50005 0 0 1 0.1563,-0.8437 z"
       id="path3037" />
    <path
       style="color:#000000;fill:#555753;fill-opacity:1;fill-rule:nonzero;stroke:none;stroke-width:2;marker:none;visibility:visible;display:inline;overflow:visible;enable-background:accumulate"
       d="m 144,124 0,3 8,0 0,-3 z m 1,1 6,0 0,1 -6,0 z"
       transform="translate(0,924.36218)"
       id="rect3050"
       inkscape:connector-curvature="0"
       sodipodi:nodetypes="cccccccccc" />
  </g>
</svg>
