<?xml version="1.0" encoding="UTF-8" standalone="no"?>
<!-- Created with Inkscape (http://www.inkscape.org/) -->

<svg
   xmlns:dc="http://purl.org/dc/elements/1.1/"
   xmlns:cc="http://creativecommons.org/ns#"
   xmlns:rdf="http://www.w3.org/1999/02/22-rdf-syntax-ns#"
   xmlns:svg="http://www.w3.org/2000/svg"
   xmlns="http://www.w3.org/2000/svg"
   xmlns:xlink="http://www.w3.org/1999/xlink"
   xmlns:sodipodi="http://sodipodi.sourceforge.net/DTD/sodipodi-0.dtd"
   xmlns:inkscape="http://www.inkscape.org/namespaces/inkscape"
   sodipodi:docname="podcast-new.svg"
   inkscape:version="0.48.4 r9939"
   version="1.1"
   id="svg2"
   height="128"
   width="128">
  <sodipodi:namedview
     id="base"
     pagecolor="#ffffff"
     bordercolor="#666666"
     borderopacity="1.0"
     inkscape:pageopacity="0.0"
     inkscape:pageshadow="2"
     inkscape:zoom="3.6203869"
     inkscape:cx="135.53276"
     inkscape:cy="79.235385"
     inkscape:document-units="px"
     inkscape:current-layer="layer1"
     showgrid="true"
     showguides="true"
     inkscape:guide-bbox="true"
     inkscape:window-width="1221"
     inkscape:window-height="1000"
     inkscape:window-x="59"
     inkscape:window-y="24"
     inkscape:window-maximized="1">
    <inkscape:grid
       snapvisiblegridlinesonly="true"
       enabled="true"
       visible="true"
       empspacing="4"
       id="grid2985"
       type="xygrid" />
  </sodipodi:namedview>
  <defs
     id="defs4">
    <linearGradient
       id="linearGradient7110">
      <stop
         style="stop-color:#5a5a5a;stop-opacity:1;"
         offset="0"
         id="stop7112" />
      <stop
         style="stop-color:#202020;stop-opacity:1;"
         offset="1"
         id="stop7114" />
    </linearGradient>
    <linearGradient
       id="linearGradient4216-4-8-2">
      <stop
         id="stop4218-8-0-7"
         offset="0"
         style="stop-color:#494949;stop-opacity:1;" />
      <stop
         id="stop4220-1-6-4"
         offset="1"
         style="stop-color:#0f0f0f;stop-opacity:1;" />
    </linearGradient>
    <radialGradient
       inkscape:collect="always"
       xlink:href="#linearGradient4216-4-8-2"
       id="radialGradient5899"
       gradientUnits="userSpaceOnUse"
       gradientTransform="translate(0,2)"
       cx="64"
       cy="1020.3622"
       fx="64"
       fy="1020.3622"
       r="52" />
    <radialGradient
       inkscape:collect="always"
       xlink:href="#linearGradient7110"
       id="radialGradient7116"
       cx="80"
       cy="972.36218"
       fx="80"
       fy="972.36218"
       r="52.5"
       gradientUnits="userSpaceOnUse" />
    <linearGradient
       id="linearGradient6964-4">
      <stop
         style="stop-color:#ffffff;stop-opacity:1;"
         offset="0"
         id="stop6966-4" />
      <stop
         style="stop-color:#cacaca;stop-opacity:1;"
         offset="1"
         id="stop6970-3" />
    </linearGradient>
    <linearGradient
       id="linearGradient8794-33">
      <stop
         style="stop-color:#ffffff;stop-opacity:1;"
         offset="0"
         id="stop8796-9" />
      <stop
         style="stop-color:#cacaca;stop-opacity:1;"
         offset="1"
         id="stop8798-6" />
    </linearGradient>
    <radialGradient
       r="32"
       fy="46.695652"
       fx="84"
       cy="46.695652"
       cx="84"
       gradientTransform="matrix(0.78722727,0,0,1.1316392,13.617455,-8.16161)"
       gradientUnits="userSpaceOnUse"
       id="radialGradient5944"
       xlink:href="#linearGradient8794-33"
       inkscape:collect="always" />
    <radialGradient
       inkscape:collect="always"
       xlink:href="#linearGradient8794-33"
       id="radialGradient10267"
       gradientUnits="userSpaceOnUse"
       gradientTransform="matrix(0.78722727,0,0,1.1316392,13.617455,-8.16161)"
       cx="84"
       cy="46.695652"
       fx="84"
       fy="46.695652"
       r="32" />
    <radialGradient
       inkscape:collect="always"
       xlink:href="#linearGradient6964-4"
       id="radialGradient10297"
       cx="154"
       cy="118.5"
       fx="154"
       fy="118.5"
       r="6"
       gradientTransform="matrix(1.6666671,-2.1327557e-6,2.1327544e-6,1.6666661,-102.66697,-79.499605)"
       gradientUnits="userSpaceOnUse" />
    <radialGradient
       inkscape:collect="always"
       xlink:href="#linearGradient8794-33"
       id="radialGradient3924"
       gradientUnits="userSpaceOnUse"
       gradientTransform="matrix(5.625,0,0,5.625,-793.25,304.61216)"
       cx="154"
       cy="118"
       fx="154"
       fy="118"
       r="8" />
    <radialGradient
       inkscape:collect="always"
       xlink:href="#linearGradient8794-33"
       id="radialGradient3944"
       gradientUnits="userSpaceOnUse"
       gradientTransform="matrix(5.625,0,0,5.625,-793.25,304.61216)"
       cx="154"
       cy="118"
       fx="154"
       fy="118"
       r="8" />
    <radialGradient
       inkscape:collect="always"
       xlink:href="#linearGradient8794-33"
       id="radialGradient4305"
       cx="154.00002"
       cy="1046.1122"
       fx="154.00002"
       fy="1046.1122"
       r="7"
       gradientTransform="matrix(-1.6312602e-5,1.4285802,-1.4285787,-1.6312585e-5,1648.4561,826.37783)"
       gradientUnits="userSpaceOnUse" />
    <radialGradient
       inkscape:collect="always"
       xlink:href="#linearGradient8794-33"
       id="radialGradient4317"
       gradientUnits="userSpaceOnUse"
       gradientTransform="matrix(-1.6312602e-5,1.4285802,-1.4285787,-1.6312585e-5,1648.4561,826.37783)"
       cx="154.00002"
       cy="1046.1122"
       fx="154.00002"
       fy="1046.1122"
       r="7" />
    <radialGradient
       inkscape:collect="always"
       xlink:href="#linearGradient8794-33"
       id="radialGradient4355"
       gradientUnits="userSpaceOnUse"
       gradientTransform="matrix(-1.6312602e-5,1.4285802,-1.4285787,-1.6312585e-5,1648.4561,826.37783)"
       cx="154.00002"
       cy="1046.1122"
       fx="154.00002"
       fy="1046.1122"
       r="7" />
    <radialGradient
       inkscape:collect="always"
       xlink:href="#linearGradient6964-4"
       id="radialGradient4769"
       cx="150.8"
       cy="118"
       fx="150.8"
       fy="118"
       r="8"
       gradientUnits="userSpaceOnUse"
       gradientTransform="matrix(-1.25,0,0,1.25,342.5,894.86218)" />
    <radialGradient
       inkscape:collect="always"
       xlink:href="#linearGradient6964-4"
       id="radialGradient4773"
       gradientUnits="userSpaceOnUse"
       gradientTransform="matrix(5.625,0,0,5.625,-793.25,313.61216)"
       cx="150.26666"
       cy="117.82223"
       fx="150.26666"
       fy="117.82223"
       r="8" />
    <radialGradient
       inkscape:collect="always"
       xlink:href="#linearGradient6964-4"
       id="radialGradient4791"
       gradientUnits="userSpaceOnUse"
       gradientTransform="matrix(5.625,0,0,5.625,-793.25,313.61216)"
       cx="150.416"
       cy="118.11201"
       fx="150.416"
       fy="118.11201"
       r="8" />
    <radialGradient
       inkscape:collect="always"
       xlink:href="#linearGradient8794-33"
       id="radialGradient4892"
       cx="154"
       cy="118"
       fx="154"
       fy="118"
       r="7"
       gradientUnits="userSpaceOnUse"
       gradientTransform="matrix(1.4285714,1.0571428e-6,-1.0571428e-6,1.4285714,-65.999879,-50.571591)" />
    <radialGradient
       inkscape:collect="always"
       xlink:href="#linearGradient7110"
       id="radialGradient4896"
       gradientUnits="userSpaceOnUse"
       gradientTransform="matrix(1.4285714,1.0571428e-6,-1.0571428e-6,1.4285714,-65.999879,871.79059)"
       cx="154"
       cy="118"
       fx="154"
       fy="118"
       r="7" />
    <radialGradient
       inkscape:collect="always"
       xlink:href="#linearGradient8794-33"
       id="radialGradient4900"
       gradientUnits="userSpaceOnUse"
       gradientTransform="matrix(6.4285713,4.7571426e-6,-4.7571426e-6,6.4285713,-916.99946,209.78992)"
       cx="154"
       cy="118"
       fx="154"
       fy="118"
       r="7" />
    <filter
       inkscape:collect="always"
       id="filter4904"
       x="-0.12857195"
       width="1.2571439"
       y="-0.1124996"
       height="1.2249992">
      <feGaussianBlur
         inkscape:collect="always"
         stdDeviation="3.374989"
         id="feGaussianBlur4906" />
    </filter>
    <radialGradient
       inkscape:collect="always"
       xlink:href="#linearGradient8794-33"
       id="radialGradient4918"
       gradientUnits="userSpaceOnUse"
       gradientTransform="matrix(6.4285713,4.7571426e-6,-4.7571426e-6,6.4285713,-916.99946,209.78992)"
       cx="154"
       cy="118"
       fx="154"
       fy="118"
       r="7" />
    <radialGradient
       inkscape:collect="always"
       xlink:href="#linearGradient7110-9"
       id="radialGradient3851"
       gradientUnits="userSpaceOnUse"
       gradientTransform="matrix(-4.4524659,0,0,-4.4524659,740.77485,1518.658)"
       cx="149.52"
       cy="122.47999"
       fx="149.52"
       fy="122.47999"
       r="8" />
    <linearGradient
       id="linearGradient7110-9">
      <stop
         style="stop-color:#5a5a5a;stop-opacity:1;"
         offset="0"
         id="stop7112-0" />
      <stop
         style="stop-color:#202020;stop-opacity:1;"
         offset="1"
         id="stop7114-3" />
    </linearGradient>
    <radialGradient
       inkscape:collect="always"
       xlink:href="#linearGradient7006-8"
       id="radialGradient6053"
       gradientUnits="userSpaceOnUse"
       gradientTransform="translate(1.9814697e-6,924.36215)"
       cx="88"
       cy="36"
       fx="88"
       fy="36"
       r="51" />
    <linearGradient
       inkscape:collect="always"
       id="linearGradient7006-8">
      <stop
         style="stop-color:#ffffff;stop-opacity:1;"
         offset="0"
         id="stop7008-1" />
      <stop
         style="stop-color:#ffffff;stop-opacity:0;"
         offset="1"
         id="stop7010-1" />
    </linearGradient>
    <linearGradient
       inkscape:collect="always"
       xlink:href="#linearGradient6978-3"
       id="linearGradient6051"
       gradientUnits="userSpaceOnUse"
       gradientTransform="translate(1.9814697e-6,924.36215)"
       x1="64"
       y1="188"
       x2="64"
       y2="8" />
    <linearGradient
       inkscape:collect="always"
       id="linearGradient6978-3">
      <stop
         style="stop-color:#000000;stop-opacity:0.25"
         offset="0"
         id="stop6980-5" />
      <stop
         style="stop-color:#000000;stop-opacity:0;"
         offset="1"
         id="stop6982-7" />
    </linearGradient>
    <radialGradient
       inkscape:collect="always"
       xlink:href="#linearGradient4216-4-8-2-6"
       id="radialGradient6049"
       gradientUnits="userSpaceOnUse"
       gradientTransform="translate(1.9814697e-6,-5.1772461e-5)"
       cx="64"
       cy="1020.3622"
       fx="64"
       fy="1020.3622"
       r="52" />
    <linearGradient
       id="linearGradient4216-4-8-2-6">
      <stop
         id="stop4218-8-0-7-4"
         offset="0"
         style="stop-color:#ffffff;stop-opacity:1;" />
      <stop
         id="stop4220-1-6-4-0"
         offset="1"
         style="stop-color:#c6c6c6;stop-opacity:1;" />
    </linearGradient>
    <filter
       color-interpolation-filters="sRGB"
       inkscape:collect="always"
       id="filter6960">
      <feGaussianBlur
         inkscape:collect="always"
         stdDeviation="4.16"
         id="feGaussianBlur6962" />
    </filter>
    <radialGradient
       inkscape:collect="always"
       xlink:href="#linearGradient7110"
       id="radialGradient3865"
       gradientUnits="userSpaceOnUse"
       gradientTransform="matrix(2.3324014,1.725977e-6,-1.725977e-6,2.3324014,-195.92427,722.60777)"
       cx="154"
       cy="118"
       fx="154"
       fy="118"
       r="7" />
    <radialGradient
       inkscape:collect="always"
       xlink:href="#linearGradient7110"
       id="radialGradient3870"
       gradientUnits="userSpaceOnUse"
       gradientTransform="matrix(6.3635463,4.7090241e-6,-4.7090241e-6,6.3635463,-907.07668,215.6449)"
       cx="154"
       cy="118"
       fx="154"
       fy="118"
       r="7" />
  </defs>
  <metadata
     id="metadata7">
    <rdf:RDF>
      <cc:Work
         rdf:about="">
        <dc:format>image/svg+xml</dc:format>
        <dc:type
           rdf:resource="http://purl.org/dc/dcmitype/StillImage" />
        <dc:title />
      </cc:Work>
    </rdf:RDF>
  </metadata>
  <g
     transform="translate(0,-924.36218)"
     id="layer1"
     inkscape:groupmode="layer"
     inkscape:label="Layer 1">
    <path
       id="path4916"
       d="m 158.36732,991.30072 c -3.95721,0 -7.25162,2.80412 -8.01034,6.53073 -0.0536,-0.0163 -0.0981,0 -0.15298,0 -0.90451,0 -1.63268,1.45635 -1.63268,3.26535 0,1.809 0.72817,3.2654 1.63268,3.2654 0,0.5652 0.0447,1.1002 0.15298,1.6327 l 3.1123,0 0,-0.6123 c -1.00126,-1.1474 -1.63268,-2.6348 -1.63268,-4.2858 l 0,-1.63267 c 0,-3.61802 2.9127,-6.53072 6.53072,-6.53072 l 3.26536,0 c 3.61802,0 6.53073,2.9127 6.53073,6.53072 l 0,1.63267 c 0,1.651 -0.63143,3.1384 -1.63268,4.2858 l 0,0.6123 3.11229,0 c 0.10841,-0.5325 0.15299,-1.0675 0.15299,-1.6327 0.9045,0 1.63268,-1.4564 1.63268,-3.2654 0,-1.809 -0.72818,-3.26535 -1.63268,-3.26535 -0.055,0 -0.0994,-0.0163 -0.15299,0 -0.75872,-3.72661 -4.05312,-6.53073 -8.01034,-6.53073 z M 160,994.56609 c -3.60682,0 -6.53072,2.9238 -6.53072,6.53071 0,3.6067 2.9239,6.5307 6.53072,6.5307 3.60682,0 6.53073,-2.924 6.53073,-6.5307 0,-3.60691 -2.92391,-6.53071 -6.53073,-6.53071 z m 0,13.06141 -3.26536,0 c -2.71352,0 -4.89804,2.1846 -4.89804,4.8981 l 0,4.898 16.32681,0 0,-4.898 c 0,-2.7135 -2.18453,-4.8981 -4.89805,-4.8981 z"
       style="fill:url(#radialGradient3865);fill-opacity:1;stroke:#000000;stroke-width:1;stroke-miterlimit:4;stroke-opacity:0.18823529999999999;stroke-dasharray:none;stroke-linejoin:round"
       inkscape:connector-curvature="0"
       sodipodi:nodetypes="scssccccssssssccccsscssssssscssccssc" />
    <text
       xml:space="preserve"
       style="font-size:24px;font-style:normal;font-weight:normal;line-height:125%;letter-spacing:0px;word-spacing:0px;fill:#000000;fill-opacity:1;stroke:none;font-family:Sans"
       x="-56"
       y="948.36218"
       id="text5893"
       sodipodi:linespacing="125%"><tspan
         sodipodi:role="line"
         id="tspan5895"
         x="-56"
         y="948.36218">128</tspan></text>
    <text
       sodipodi:linespacing="125%"
       id="text5901"
       y="1000.3622"
       x="184"
       style="font-size:16px;font-style:normal;font-weight:normal;line-height:125%;letter-spacing:0px;word-spacing:0px;fill:#000000;fill-opacity:1;stroke:none;font-family:Sans"
       xml:space="preserve"><tspan
         y="1000.3622"
         x="184"
         id="tspan5903"
         sodipodi:role="line">31 - 17</tspan></text>
    <text
       xml:space="preserve"
       style="font-size:16px;font-style:normal;font-weight:normal;line-height:125%;letter-spacing:0px;word-spacing:0px;fill:#000000;fill-opacity:1;stroke:none;font-family:Sans"
       x="172"
       y="1048.3622"
       id="text5905"
       sodipodi:linespacing="125%"><tspan
         sodipodi:role="line"
         id="tspan5907"
         x="172"
         y="1048.3622">16</tspan></text>
    <rect
       style="fill:none;stroke:#000000;stroke-width:1;stroke-linecap:round;stroke-linejoin:round;stroke-miterlimit:4;stroke-opacity:1;stroke-dasharray:none;stroke-dashoffset:0"
       id="rect5919"
       width="40"
       height="40"
       x="140"
       y="60"
       transform="translate(0,924.36218)"
       rx="4.5902016e-07" />
    <rect
       style="fill:none;stroke:#000000;stroke-width:1;stroke-linecap:round;stroke-linejoin:round;stroke-miterlimit:4;stroke-opacity:1;stroke-dasharray:none;stroke-dashoffset:0"
       id="rect5921"
       width="24"
       height="24"
       x="140"
       y="1032.3622"
       rx="4.5902016e-07" />
    <rect
       style="fill:#b3b3b3;fill-opacity:1;stroke:none"
       id="rect6935"
       width="32"
       height="4"
       x="144"
       y="56"
       transform="translate(0,924.36218)"
       rx="4.5902016e-07" />
    <rect
       style="fill:#b3b3b3;fill-opacity:1;stroke:none"
       id="rect6937"
       width="4"
       height="32"
       x="136"
       y="64"
       transform="translate(0,924.36218)"
       rx="4.5902016e-07" />
    <rect
       style="fill:#b3b3b3;fill-opacity:1;stroke:none"
       id="rect6939"
       width="16"
       height="4"
       x="144"
       y="104"
       rx="4.5902016e-07"
       transform="translate(0,924.36218)" />
    <rect
       style="fill:#b3b3b3;fill-opacity:1;stroke:none"
       id="rect6941"
       width="4"
       height="16"
       x="136"
       y="112"
       transform="translate(0,924.36218)"
       rx="4.5902016e-07" />
    <path
       id="path4894"
       d="m 151,1036.3622 c -2.42375,0 -4.44154,1.7175 -4.90625,4 -0.0328,-0.01 -0.0601,0 -0.0937,0 -0.554,0 -1,0.892 -1,2 0,1.108 0.446,2 1,2 0,0.3462 0.0274,0.6739 0.0937,1 l 1.90625,0 0,-0.375 c -0.61326,-0.7028 -1,-1.6138 -1,-2.625 l 0,-1 c 0,-2.216 1.784,-4 4,-4 l 2,0 c 2.216,0 4,1.784 4,4 l 0,1 c 0,1.0112 -0.38674,1.9222 -1,2.625 l 0,0.375 1.90625,0 c 0.0664,-0.3261 0.0937,-0.6538 0.0937,-1 0.554,0 1,-0.892 1,-2 0,-1.108 -0.446,-2 -1,-2 -0.0337,0 -0.0609,-0.01 -0.0937,0 -0.46471,-2.2825 -2.4825,-4 -4.90625,-4 z m 1,2 c -2.20914,0 -4,1.7908 -4,4 0,2.2091 1.79086,4 4,4 2.20914,0 4,-1.7909 4,-4 0,-2.2092 -1.79086,-4 -4,-4 z m 0,8 -2,0 c -1.662,0 -3,1.338 -3,3 l 0,3 10,0 0,-3 c 0,-1.662 -1.338,-3 -3,-3 z"
       style="fill:url(#radialGradient4896);fill-opacity:1.0;stroke:none"
       inkscape:connector-curvature="0"
       sodipodi:nodetypes="scssccccssssssccccsscssssssscssccssc" />
    <rect
       ry="8"
       rx="8"
       y="936.36218"
       x="12"
       height="104"
       width="104"
       id="rect6938"
       style="fill:#000000;fill-opacity:1;stroke:none;filter:url(#filter6960)" />
    <rect
       style="fill:url(#radialGradient6049);fill-opacity:1;stroke:none"
       id="rect6936-6"
       width="104"
       height="104"
       x="12"
       y="936.36218"
       rx="8"
       ry="8" />
    <rect
       ry="8"
       rx="8"
       y="932.36218"
       x="12"
       height="104"
       width="104"
       id="rect6964-2"
       style="fill:#ffffff;fill-opacity:1;stroke:none" />
    <rect
       style="opacity:0.5;fill:url(#linearGradient6051);fill-opacity:1;stroke:none"
       id="rect6975"
       width="102"
       height="102"
       x="13"
       y="933.36218"
       rx="8"
       ry="8" />
    <rect
       ry="8"
       rx="8"
       y="933.36218"
       x="13"
       height="102"
       width="102"
       id="rect7002"
       style="opacity:0.5;fill:url(#radialGradient6053);fill-opacity:1;stroke:none" />
    <path
       sodipodi:nodetypes="scssccccssssssccccsscssssssscssccssc"
       inkscape:connector-curvature="0"
       style="fill:url(#radialGradient3870);fill-opacity:1;stroke:#000000;stroke-width:2.72832394;stroke-linejoin:round;stroke-miterlimit:4;stroke-opacity:0.18823529;stroke-dasharray:none"
       d="m 59.545505,948.72634 c -10.79655,0 -19.78477,7.65055 -21.8548,17.81795 -0.14624,-0.0445 -0.26765,0 -0.41738,0 -2.4678,0 -4.45448,3.97339 -4.45448,8.90893 0,4.9355 1.98668,8.9091 4.45448,8.9091 0,1.542 0.12196,3.0017 0.41738,4.4545 l 8.49136,0 0,-1.6705 c -2.73176,-3.1305 -4.45448,-7.18864 -4.45448,-11.6931 l 0,-4.45445 c 0,-9.87113 7.94679,-17.81792 17.81792,-17.81792 l 8.90896,0 c 9.87113,0 17.81795,7.94679 17.81795,17.81792 l 0,4.45445 c 0,4.50446 -1.72275,8.5626 -4.45448,11.6931 l 0,1.6705 8.49133,0 c 0.29578,-1.4528 0.41741,-2.9125 0.41741,-4.4545 2.46777,0 4.45448,-3.9736 4.45448,-8.9091 0,-4.93554 -1.98671,-8.90893 -4.45448,-8.90893 -0.15006,0 -0.2712,-0.0445 -0.41741,0 -2.07003,-10.1674 -11.05822,-17.81795 -21.8548,-17.81795 z m 4.45448,8.90899 c -9.84057,0 -17.81792,7.97707 -17.81792,17.81789 0,9.8402 7.97735,17.8179 17.81792,17.8179 9.84057,0 17.81795,-7.9777 17.81795,-17.8179 0,-9.84082 -7.97738,-17.81789 -17.81795,-17.81789 z m 0,35.63579 -8.90896,0 c -7.40336,0 -13.36344,5.9603 -13.36344,13.36358 l 0,13.3633 44.54483,0 0,-13.3633 c 0,-7.40328 -5.96011,-13.36358 -13.36347,-13.36358 z"
       id="path3868" />
  </g>
</svg>
