<?xml version="1.0" encoding="UTF-8" standalone="no"?>
<!-- Created with Inkscape (http://www.inkscape.org/) -->

<svg
   xmlns:dc="http://purl.org/dc/elements/1.1/"
   xmlns:cc="http://creativecommons.org/ns#"
   xmlns:rdf="http://www.w3.org/1999/02/22-rdf-syntax-ns#"
   xmlns:svg="http://www.w3.org/2000/svg"
   xmlns="http://www.w3.org/2000/svg"
   xmlns:xlink="http://www.w3.org/1999/xlink"
   xmlns:sodipodi="http://sodipodi.sourceforge.net/DTD/sodipodi-0.dtd"
   xmlns:inkscape="http://www.inkscape.org/namespaces/inkscape"
   width="128"
   height="128"
   id="svg2"
   version="1.1"
   inkscape:version="0.48.4 r9939"
   sodipodi:docname="applications-internet.svg">
  <defs
     id="defs4">
    <linearGradient
       id="linearGradient3150">
      <stop
         id="stop3152"
         offset="0"
         style="stop-color:#494949;stop-opacity:1;" />
      <stop
         id="stop3154"
         offset="1"
         style="stop-color:#0f0f0f;stop-opacity:1;" />
    </linearGradient>
    <linearGradient
       id="linearGradient3165">
      <stop
         id="stop3167"
         offset="0"
         style="stop-color:#ffffff;stop-opacity:1;" />
      <stop
         id="stop3169"
         offset="1"
         style="stop-color:#c6c6c6;stop-opacity:1;" />
    </linearGradient>
    <linearGradient
       inkscape:collect="always"
       xlink:href="#linearGradient7227"
       id="linearGradient7233"
       x1="100"
       y1="100"
       x2="16"
       y2="16"
       gradientUnits="userSpaceOnUse" />
    <linearGradient
       inkscape:collect="always"
       id="linearGradient7227">
      <stop
         style="stop-color:#d3d7cf;stop-opacity:1;"
         offset="0"
         id="stop7229" />
      <stop
         style="stop-color:#d3d7cf;stop-opacity:0;"
         offset="1"
         id="stop7231" />
    </linearGradient>
    <filter
       color-interpolation-filters="sRGB"
       inkscape:collect="always"
       id="filter7622">
      <feGaussianBlur
         inkscape:collect="always"
         stdDeviation="3.4144029"
         id="feGaussianBlur7624" />
    </filter>
    <linearGradient
       id="linearGradient7219">
      <stop
         style="stop-color:#ffffff;stop-opacity:1;"
         offset="0"
         id="stop7221" />
      <stop
         style="stop-color:#ffffff;stop-opacity:0;"
         offset="1"
         id="stop7223" />
    </linearGradient>
    <linearGradient
       inkscape:collect="always"
       xlink:href="#linearGradient7219"
       id="linearGradient4839"
       gradientUnits="userSpaceOnUse"
       x1="12"
       y1="12"
       x2="64"
       y2="64"
       gradientTransform="translate(0,924.36218)" />
    <filter
       inkscape:collect="always"
       id="filter4868"
       x="-0.12006614"
       width="1.2401323"
       y="-0.11993393"
       height="1.2398679">
      <feGaussianBlur
         inkscape:collect="always"
         stdDeviation="3.6019857"
         id="feGaussianBlur4870" />
    </filter>
    <radialGradient
       inkscape:collect="always"
       xlink:href="#linearGradient3165"
       id="radialGradient4876"
       gradientUnits="userSpaceOnUse"
       gradientTransform="matrix(5.6393946,1.5807009e-6,-1.5807011e-6,5.639395,-584.4542,381.56013)"
       cx="154"
       cy="118.00253"
       fx="154"
       fy="118.00253"
       r="7.9898915" />
    <radialGradient
       inkscape:collect="always"
       xlink:href="#linearGradient7110"
       id="radialGradient4882"
       gradientUnits="userSpaceOnUse"
       gradientTransform="matrix(1.2515825,3.5081382e-7,-3.5081387e-7,1.2515826,-38.743667,894.67222)"
       cx="154"
       cy="118.00253"
       fx="154"
       fy="118.00253"
       r="7.9898915" />
    <radialGradient
       inkscape:collect="always"
       xlink:href="#linearGradient3150"
       id="radialGradient4886"
       gradientUnits="userSpaceOnUse"
       gradientTransform="matrix(1.2515825,3.5081382e-7,-3.5081387e-7,1.2515826,-38.747315,1042.6728)"
       cx="154"
       cy="118.00253"
       fx="154"
       fy="118.00253"
       r="7.9898915" />
    <radialGradient
       inkscape:collect="always"
       xlink:href="#linearGradient3150"
       id="radialGradient4911"
       gradientUnits="userSpaceOnUse"
       gradientTransform="matrix(5.6332059,1.5789662e-6,-1.5789664e-6,5.6332061,-783.65824,434.94589)"
       cx="154"
       cy="118.00253"
       fx="154"
       fy="118.00253"
       r="7.9898915" />
    <linearGradient
       id="linearGradient7110">
      <stop
         style="stop-color:#5a5a5a;stop-opacity:1;"
         offset="0"
         id="stop7112" />
      <stop
         style="stop-color:#202020;stop-opacity:1;"
         offset="1"
         id="stop7114" />
    </linearGradient>
    <radialGradient
       r="8.0074568"
       fy="121.20335"
       fx="150.79701"
       cy="121.20335"
       cx="150.79701"
       gradientTransform="matrix(1.2488367,-6.1427845e-7,6.1427805e-7,1.2488359,-150.32091,938.99919)"
       gradientUnits="userSpaceOnUse"
       id="radialGradient4136"
       xlink:href="#linearGradient7110"
       inkscape:collect="always" />
    <radialGradient
       inkscape:collect="always"
       xlink:href="#linearGradient7110"
       id="radialGradient3855"
       gradientUnits="userSpaceOnUse"
       gradientTransform="matrix(2.0210439,5.6649092e-7,-5.66491e-7,2.021044,-148.0276,762.64671)"
       cx="154"
       cy="118.00253"
       fx="154"
       fy="118.00253"
       r="7.9898915" />
  </defs>
  <sodipodi:namedview
     id="base"
     pagecolor="#ffffff"
     bordercolor="#666666"
     borderopacity="1.0"
     inkscape:pageopacity="0.0"
     inkscape:pageshadow="2"
     inkscape:zoom="4.0000002"
     inkscape:cx="80.813183"
     inkscape:cy="33.678289"
     inkscape:document-units="px"
     inkscape:current-layer="layer1"
     showgrid="true"
     showguides="true"
     inkscape:guide-bbox="true"
     inkscape:window-width="1221"
     inkscape:window-height="1000"
     inkscape:window-x="59"
     inkscape:window-y="24"
     inkscape:window-maximized="1">
    <inkscape:grid
       type="xygrid"
       id="grid2985"
       empspacing="4"
       visible="true"
       enabled="true"
       snapvisiblegridlinesonly="true" />
  </sodipodi:namedview>
  <metadata
     id="metadata7">
    <rdf:RDF>
      <cc:Work
         rdf:about="">
        <dc:format>image/svg+xml</dc:format>
        <dc:type
           rdf:resource="http://purl.org/dc/dcmitype/StillImage" />
        <dc:title></dc:title>
      </cc:Work>
    </rdf:RDF>
  </metadata>
  <g
     inkscape:label="Layer 1"
     inkscape:groupmode="layer"
     id="layer1"
     transform="translate(0,-924.36218)">
    <path
       id="path4862"
       d="m 159.98351,991.44629 c 0.15485,0 0.30059,0.0452 0.45416,0.05 0.37379,0.0161 0.74514,0 1.11016,0.0501 -0.51537,-0.063 -1.03206,-0.1001 -1.56432,-0.1001 z m 1.56432,0.1001 c 0.0363,0 0.0648,0.0452 0.10093,0.0501 -0.40511,-0.0549 -0.80825,-0.0856 -1.21109,-0.10013 -0.38607,-0.0161 -0.77691,-0.0193 -1.16063,0 -0.54093,0.029 -1.09361,0.0566 -1.6148,0.15181 -0.0163,0 -0.0342,0 -0.0504,0 -0.0824,0.0161 -0.17007,0.034 -0.25231,0.0501 -0.0822,0.0176 -0.1702,0.0322 -0.25231,0.0501 -0.0366,0.0161 -0.0643,0.042 -0.10093,0.05 -0.0693,0.0161 -0.13289,0.0323 -0.20184,0.0501 -1.03683,0.26194 -2.00685,0.66515 -2.92681,1.16072 -0.0313,0.0403 -0.0402,0.0727 0,0.10013 0.0146,0.0161 -0.0113,0.042 0,0.05 -0.0904,-0.029 -0.2474,0 -0.45416,0.10013 -0.99793,0.591 -1.92327,1.29117 -2.72496,2.11942 -0.0257,0.0258 -0.025,0.0743 -0.0504,0.1001 -0.13209,0.13726 -0.27838,0.26079 -0.4037,0.40371 -0.22258,0.25531 -0.40329,0.53513 -0.60555,0.8074 -0.0423,0.0565 -0.11013,0.0936 -0.1513,0.15177 -0.0276,0.0388 -0.0738,0.063 -0.10093,0.10013 -0.0431,0.0613 -0.0589,0.13887 -0.10092,0.20184 -0.0677,0.10013 -0.13694,0.20055 -0.20185,0.30279 -0.0599,0.0936 -0.094,0.20686 -0.15131,0.30276 -0.0935,0.15665 -0.21572,0.29391 -0.30277,0.45407 -0.0533,0.0985 -0.1006,0.20331 -0.15131,0.3028 -0.58886,1.15602 -0.99254,2.40986 -1.21109,3.73426 -0.0719,0.4351 -0.12531,0.8708 -0.1513,1.312 -0.026,0.4413 -0.0213,0.9189 0,1.3625 0.0268,0.5565 0.083,0.9726 0.1513,1.413 -0.0352,-0.2287 -0.12837,-0.4236 -0.1513,-0.6561 0.0391,0.3854 0.12966,0.786 0.20184,1.1607 0.0927,0.4416 0.24007,0.8636 0.4037,1.312 0.40858,1.1194 0.57529,1.4275 1.36248,2.2707 0.63841,0.6841 0.78196,0.9978 0.75693,1.6148 -0.008,0.1993 0.008,0.3286 0.0504,0.3028 -0.0578,-0.073 -0.14549,-0.1276 -0.20184,-0.2018 2.3584,3.1179 6.08356,5.1471 10.29429,5.1471 1.02168,0 2.02401,-0.1292 2.97727,-0.3532 0.29215,-0.069 0.57147,-0.1635 0.85786,-0.2523 0.1379,-0.042 0.26732,-0.1034 0.40369,-0.1518 0.13791,-0.048 0.26757,-0.099 0.4037,-0.1518 0.29171,-0.1131 0.57682,-0.2205 0.85786,-0.3532 0.0339,-0.016 0.0672,-0.034 0.10092,-0.05 0.33241,-0.1599 0.64235,-0.3684 0.95878,-0.5551 -0.30157,0.1998 -0.87053,0.4457 -1.26155,0.6056 -0.70284,0.2858 -0.69392,0.3063 -1.16063,0.1518 -0.25969,-0.086 -0.48452,-0.2022 -0.45416,-0.2523 0.0304,-0.05 0.01,-0.1001 -0.0504,-0.1001 -0.0612,0 -0.0688,-0.058 -0.0504,-0.1518 0.0195,-0.1001 -0.13791,-0.299 -0.35324,-0.5046 -0.24457,-0.2333 -0.35323,-0.4331 -0.35323,-0.6055 0,-0.1421 0.0473,-0.2522 0.10092,-0.2522 0.0536,0 0.10093,-0.126 0.10093,-0.2525 0,-0.1324 0.11303,-0.2987 0.25231,-0.4036 0.23721,-0.1781 0.3469,-0.656 0.1513,-0.656 -0.0536,0 -0.10092,-0.1195 -0.10092,-0.3027 0,-0.1833 -0.0478,-0.3356 -0.10093,-0.3534 -0.0531,-0.018 -0.14,-0.1917 -0.1513,-0.3531 -0.0129,-0.1962 -0.10432,-0.4208 -0.35324,-0.6561 -0.20396,-0.1928 -0.40369,-0.3927 -0.40369,-0.4541 0,-0.061 -0.0483,-0.1001 -0.10093,-0.1001 -0.0526,0 -0.11772,-0.1179 -0.15131,-0.2524 -0.0338,-0.134 -0.0996,-0.2522 -0.1513,-0.2522 -0.0515,0 -0.0338,-0.068 0.0504,-0.1518 0.21456,-0.2141 0.26365,-1.4129 0.0504,-1.4129 -0.0804,0 -0.15131,-0.063 -0.15131,-0.1519 0,-0.1388 -0.10318,-0.1533 -0.60554,-0.1 -0.57047,0.06 -0.60555,0.079 -0.60555,-0.1519 0,-0.1582 -0.0538,-0.2559 -0.20185,-0.3027 -0.12062,-0.037 -0.26256,-0.1421 -0.30277,-0.2019 -0.0533,-0.079 -0.098,-0.079 -0.15131,0 -0.0402,0.06 -0.2499,0.1244 -0.50462,0.1518 l -0.45416,0.05 0,-0.4541 c 0,-0.2615 -0.0473,-0.4542 -0.10092,-0.4542 -0.0536,0 -0.0961,0.034 -0.10093,0.1001 -0.006,0.097 -0.0615,0.097 -0.10092,0 -0.0494,-0.1227 -0.4037,-0.1651 -0.4037,-0.05 0,0.034 0.0827,0.1486 0.20185,0.2522 0.13257,0.1147 0.23939,0.2994 0.25231,0.5047 0.0191,0.2971 0.008,0.3533 -0.20185,0.3533 -0.13096,0 -0.25231,0.048 -0.25231,0.1001 0,0.055 -0.1182,0.1001 -0.25231,0.1001 -0.13403,0 -0.25231,-0.048 -0.25231,-0.1001 0,-0.055 -0.13871,-0.1001 -0.35324,-0.1001 -0.21449,0 -0.40369,0 -0.40369,0.05 0,0.113 -0.58075,0.2144 -0.90832,0.1517 -0.14388,-0.028 -0.27064,-0.1001 -0.30278,-0.2018 -0.0321,-0.1001 -0.14694,-0.2019 -0.25231,-0.2019 -0.10544,0 -0.22147,-0.071 -0.25231,-0.1518 -0.0309,-0.081 -0.15066,-0.1517 -0.25231,-0.1517 -0.10157,0 -0.20185,-0.071 -0.20185,-0.1518 0,-0.081 -0.0205,-0.1518 -0.10093,-0.1518 -0.0907,0 -0.1513,-0.1018 -0.1513,-0.2524 0,-0.1421 -0.1308,-0.3404 -0.30277,-0.5047 -0.16084,-0.1533 -0.30278,-0.3213 -0.30278,-0.4036 0,-0.082 -0.1182,-0.2184 -0.25231,-0.2523 -0.13403,-0.034 -0.25231,-0.098 -0.25231,-0.1518 0,-0.1372 0.19418,-0.094 0.25231,0.05 0.0271,0.066 0.0457,0.021 0.0504,-0.1001 0.005,-0.134 -0.0623,-0.2524 -0.1513,-0.2524 -0.0804,0 -0.15131,-0.024 -0.15131,-0.1001 0,-0.076 -0.0339,-0.1712 -0.10092,-0.2019 -0.0975,-0.045 -0.0975,-0.055 0,-0.1001 0.067,-0.031 0.10092,-0.1736 0.10092,-0.3028 0,-0.1308 0.0473,-0.2522 0.10093,-0.2522 0.0555,0 0.10092,-0.2705 0.10092,-0.6561 0,-0.5897 -0.0315,-0.7019 -0.20185,-0.7568 -0.25221,-0.081 -0.25221,-0.4239 0,-0.5046 0.10722,-0.034 0.20185,-0.1099 0.20185,-0.2019 0,-0.092 0.0946,-0.2613 0.20185,-0.3533 0.10722,-0.092 0.20185,-0.2304 0.20185,-0.3532 0,-0.1227 0.11756,-0.302 0.25231,-0.4037 0.13419,-0.1001 0.25231,-0.2613 0.25231,-0.3533 0,-0.1179 0.0675,-0.2135 0.30277,-0.2522 0.43245,-0.069 0.85625,-0.4501 0.85786,-0.80744 0.002,-0.4636 0.10787,-0.70647 0.30277,-0.70647 0.10109,0 0.15131,-0.0533 0.15131,-0.10014 0,-0.0484 0.11917,-0.11787 0.25231,-0.15177 0.13984,-0.0355 0.27129,-0.12597 0.30277,-0.25223 0.0518,-0.21445 0.1329,-0.2524 1.00925,-0.2524 0.70673,0 0.94191,0 1.00924,-0.1001 0.0649,-0.10497 0.33678,-0.17281 1.05971,-0.20187 0.53944,-0.0208 0.95878,-0.10494 0.95878,-0.15178 0,-0.0485 0.11837,-0.0501 0.25231,-0.0501 0.13419,0 0.25232,0.0485 0.25232,0.10013 0,0.0533 0.0709,0.10009 0.1513,0.10009 0.0804,0 0.1513,-0.0468 0.1513,-0.10009 0,-0.0549 0.0908,-0.10013 0.20185,-0.10013 0.21587,0 0.45416,0.18134 0.45416,0.35332 0,0.0565 0.0896,0.1001 0.15131,0.1001 0.0618,0 0.0145,0.10174 -0.10092,0.20187 -0.26003,0.22557 -0.29762,0.40368 -0.0504,0.40368 0.10271,0 0.23181,0.0388 0.25231,0.10013 0.0207,0.063 0.2885,0.12594 0.60555,0.15178 0.55276,0.0452 0.8074,0.18005 0.8074,0.40371 0,0.0565 0.15066,0.1001 0.35323,0.1001 0.25663,0 0.45723,0.0662 0.55509,0.20181 0.17945,0.249 0.32473,0.249 0.40369,0 0.0341,-0.10652 0.13839,-0.20099 0.20185,-0.20181 -0.0129,-0.0161 -0.0244,-0.034 -0.0504,-0.05 -0.12999,-0.0856 -0.12999,-0.11142 0,-0.20188 0.17401,-0.12271 1.41496,-0.0387 1.46341,0.10013 0.0179,0.0517 0.15082,0.10013 0.30277,0.10013 0.15195,0 0.2834,0.042 0.30277,0.1001 0.0539,0.16153 0.95572,0.11303 1.05971,-0.0501 0.0615,-0.0985 0.1,-0.0856 0.10092,0 0.001,0.0775 0.15293,0.10014 0.4037,0.10014 0.23904,0 0.33911,-0.042 0.30277,-0.10014 -0.0331,-0.0549 0.006,-0.05 0.0504,-0.05 0.0814,0 0.0874,-0.10013 0.1513,-0.95888 0.0291,-0.38948 0.0145,-0.5114 -0.10092,-0.55498 -0.082,-0.0308 -0.17069,-0.0485 -0.20185,0 -0.0329,0.05 -0.28813,0.0678 -0.55509,0 -0.2524,-0.0662 -0.43131,-0.0953 -0.40369,-0.0501 0.0278,0.0452 -0.041,0.1001 -0.15131,0.1001 -0.11045,0 -0.20185,-0.0468 -0.20185,-0.1001 0,-0.0533 -0.0702,-0.10013 -0.20185,-0.10013 -0.19635,0 -0.25029,-0.0726 -0.30277,-0.35315 -0.0352,-0.18714 -0.10367,-0.35332 -0.15131,-0.35332 -0.0476,0 -0.10092,-0.0436 -0.10092,-0.1001 0,-0.063 0.10189,-0.0872 0.30277,-0.0501 0.21282,0.0403 0.41533,0.0355 0.50462,-0.0501 0.0753,-0.071 0.19556,-0.15177 0.30278,-0.15177 0.10722,0 0.31965,-0.0161 0.45416,-0.0501 0.17168,-0.0485 0.31803,-0.0226 0.45416,0.1001 0.22378,0.20524 0.89241,0.40937 0.95878,0.30279 0.0247,-0.0404 -0.14097,-0.24692 -0.35324,-0.4541 -0.21227,-0.20732 -0.40369,-0.41096 -0.40369,-0.5046 0,-0.21137 -0.12838,-0.32587 -0.50463,-0.35333 -0.13273,-0.0161 -0.23711,-0.0161 -0.25231,0 -0.0145,0.0161 0.0714,0.042 0.15131,0.10014 0.11982,0.0888 0.12498,0.15499 0.0504,0.20183 -0.14242,0.0888 -0.16955,0.0371 -0.20185,-0.25222 -0.003,-0.0258 5e-5,-0.029 0,-0.0501 -2.2e-4,-0.10497 0.0305,-0.16614 0.10093,-0.15177 0.0709,0.0161 0.0793,-0.0549 0.0504,-0.10013 -0.0399,-0.0646 -0.66772,-0.0581 -0.8074,0 -0.0129,0 -0.0331,0.0161 -0.0504,0 -0.0888,-0.0694 -0.40216,0.32652 -0.35323,0.45406 0.0315,0.0791 0.0473,0.13081 0,0.10013 -0.0473,-0.029 -0.11595,0.0161 -0.15131,0.10014 -0.0355,0.092 -0.006,0.18245 0.0504,0.20184 0.17518,0.0581 0.10464,0.30003 -0.10092,0.35332 -0.10722,0.029 -0.20185,0 -0.20185,-0.0501 0,-0.10014 -0.52505,-0.0888 -0.85786,0 -0.16312,0.0436 -0.20185,0.0936 -0.20185,0.30275 0,0.21607 -0.052,0.3028 -0.20185,0.3028 -0.20314,0 -0.60554,-0.33541 -0.60554,-0.50463 0,-0.0549 -0.003,-0.10014 -0.0504,-0.10014 -0.0468,0 -0.11933,-0.092 -0.1513,-0.25222 -0.0409,-0.20475 -0.12886,-0.30971 -0.30277,-0.35333 -0.13565,-0.034 -0.25232,-0.10332 -0.25232,-0.15177 0,-0.0485 -0.12207,-0.10013 -0.25231,-0.10013 -0.22088,0 -0.55508,-0.20152 -0.55508,-0.3533 0,-0.0372 -0.0901,-0.13242 -0.20185,-0.20187 -0.28314,-0.17679 -0.75693,-0.0937 -0.75693,0.15181 0,0.10336 0.0451,0.20184 0.10092,0.20184 0.11045,0 0.26531,0.084 0.70647,0.50463 0.15825,0.15016 0.41696,0.32247 0.60555,0.35315 0.34295,0.0549 0.49905,0.20184 0.20185,0.20184 -0.11045,0 -0.13645,0.0662 -0.10093,0.20187 0.0331,0.12594 -0.0113,0.20184 -0.10092,0.20184 -0.0754,0 -0.15131,-0.0308 -0.15131,-0.10013 0,-0.19875 -0.39709,-0.49685 -0.75693,-0.55498 -0.18204,-0.029 -0.30277,-0.1082 -0.30277,-0.15181 0,-0.0436 -0.0837,-0.063 -0.20185,-0.1001 -0.24681,-0.0791 -0.50462,-0.312 -0.50462,-0.4541 0,-0.0549 -0.0924,-0.11626 -0.20185,-0.15178 -0.26178,-0.0824 -0.95878,0.0244 -0.95878,0.15178 0,0.0646 -0.19233,0.0937 -0.60555,0.0501 -0.6274,-0.0678 -0.65601,-0.0872 -0.65601,0.15181 0,0.24496 -0.16708,0.40368 -0.50462,0.40368 -0.10286,0 -0.15131,3.2e-4 -0.15131,0.0501 0,0.0501 -0.0924,0.11626 -0.20185,0.15177 -0.1182,0.0372 -0.21856,0.18428 -0.25231,0.35318 -0.0313,0.15662 -0.10431,0.30276 -0.1513,0.30276 -0.047,0 -0.10093,0.0711 -0.10093,0.15178 0,0.0807 -0.0709,0.15181 -0.15131,0.15181 -0.0804,0 -0.1513,0.0485 -0.1513,0.10013 0,0.0532 -0.16238,0.10009 -0.4037,0.10009 -0.2413,0 -0.45416,0.0485 -0.45416,0.10014 0,0.15987 -0.4913,0.0662 -0.55508,-0.10014 -0.0328,-0.0856 -0.12951,-0.11625 -0.25231,-0.10009 -0.39992,0.0322 -0.45416,0 -0.45416,-0.25226 0,-0.134 -0.0473,-0.25238 -0.10093,-0.25238 -0.0536,0 -0.10092,-0.0711 -0.10092,-0.15181 0,-0.0807 0.0473,-0.15177 0.10092,-0.15177 0.0536,0 0.10093,-0.22947 0.10093,-0.50463 l 0,-0.5046 1.11017,0.10009 c 0.95187,0.0501 1.11016,0.0226 1.11016,-0.10009 0,-0.0791 0.0473,-0.15181 0.10093,-0.15181 0.0536,0 0.10092,-0.071 0.10092,-0.15178 0,-0.0807 0.0339,-0.1518 0.10093,-0.1518 0.0975,0 0.0975,-0.0161 0,-0.0501 -0.067,-0.0276 -0.10093,-0.12594 -0.10093,-0.20184 0,-0.0759 -0.0434,-0.1001 -0.10092,-0.1001 -0.0575,0 -0.1719,-0.0711 -0.25231,-0.1518 -0.0804,-0.0807 -0.27339,-0.15178 -0.4037,-0.15178 -0.13015,0 -0.20185,-0.0468 -0.20185,-0.10013 0,-0.0549 0.13871,-0.10013 0.35324,-0.10013 0.21449,0 0.40369,-0.05 0.40369,-0.1001 0,-0.0549 0.12854,-0.0775 0.30278,-0.0501 0.24648,0.0404 0.42848,0 0.65601,-0.20184 0.21538,-0.18604 0.40134,-0.25223 0.70647,-0.25241 0.28454,0 0.40369,-0.0161 0.40369,-0.10009 0,-0.0888 0.0888,-0.13242 0.25231,-0.10013 0.13678,0.0258 0.20185,0 0.20185,-0.0501 0,-0.0565 0.2704,-0.1631 0.60555,-0.20184 0.33522,-0.0371 0.57164,-0.0791 0.50462,-0.10013 -0.067,-0.0226 -0.10092,-0.0759 -0.10092,-0.15177 0,-0.0759 -0.0473,-0.15181 -0.10093,-0.15181 -0.0536,0 -0.10092,-0.0484 -0.10092,-0.1001 0,-0.0549 0.077,-0.10013 0.20185,-0.10013 0.17133,0 0.25877,0.0404 0.25231,0.20184 -0.006,0.19248 0.0652,0.25466 0.70647,0.35318 0.39245,0.0597 0.93443,0.0662 1.2111,0.05 0.27667,-0.0161 0.5554,0.0485 0.656,0.10013 0.21687,0.11626 0.95027,0.0194 0.75694,-0.10013 -0.20208,-0.12432 0.0825,-0.26932 0.30277,-0.15177 0.24149,0.12271 0.43171,0.12758 0.35324,0 -0.0819,-0.13242 0.3303,-0.0355 0.45416,0.10013 0.13887,0.15338 0.45416,0.21395 0.45416,0.10009 0,-0.0517 -0.0434,-0.10009 -0.10093,-0.10009 -0.0575,0 -0.17416,-0.0226 -0.25231,-0.10013 -0.0782,-0.0824 -0.21509,-0.13404 -0.30277,-0.10013 -0.1153,0.0436 -0.10803,0.0436 -0.0504,-0.05 0.0531,-0.0856 0.0246,-0.14698 -0.0504,-0.10014 -0.063,0.0387 -0.1,0.0211 -0.10092,-0.0501 -0.001,-0.10171 -0.0342,-0.10497 -0.10093,0 -0.0681,0.10658 -0.13338,0.14048 -0.40369,0 -0.29002,-0.15016 -0.31823,-0.1941 -0.15131,-0.25223 0.16655,-0.0581 0.15195,-0.0662 -0.10092,-0.15177 -0.15809,-0.0533 -0.50138,-0.13565 -0.75694,-0.15181 -0.44605,-0.0211 -0.44762,0.0179 -0.50462,0.30279 -0.0328,0.16403 -0.0911,0.30226 -0.15131,0.30276 -0.0604,0 -0.30353,0.0161 -0.50462,0.0501 -0.29772,0.0501 -0.35323,0.029 -0.35323,-0.10013 0,-0.0888 -0.0402,-0.15178 -0.10093,-0.15178 -0.0607,0 -0.21606,-0.10174 -0.30277,-0.20187 -0.17768,-0.20442 -0.55509,-0.33749 -0.55509,-0.20184 0,0.0485 -0.17895,0.0856 -0.35323,0.10013 -0.17427,0.0161 -0.3974,-0.0161 -0.50462,0 -0.13355,0.0161 -0.161,0.0161 -0.15131,-0.10013 0.008,-0.0953 -0.0609,-0.20184 -0.15131,-0.20184 -0.1014,0 -0.10011,-0.0404 0.0504,-0.10013 0.45474,-0.18084 2.57698,-0.21768 3.22958,-0.05 0.39391,0.10009 0.48095,0.11948 0.50462,0.10009 0.0113,0 0.0954,0 0.10093,0 -0.0969,-0.0403 -0.20465,-0.063 -0.30278,-0.10009 -0.97396,-0.37576 -2.00681,-0.67727 -3.07819,-0.80743 z m 3.38097,0.90831 c 0.32906,0.13565 0.64404,0.2923 0.95878,0.45425 -0.31763,-0.16389 -0.62649,-0.31649 -0.95878,-0.45425 z m 0.95878,0.45425 c -0.043,0 -0.0504,3.2e-4 -0.0504,0.0501 0,0.0759 0.0294,0.1292 0.10093,0.10013 0.0651,-0.0258 0.14177,-0.034 0.1513,-0.0501 -0.0667,-0.0355 -0.13451,-0.0662 -0.20185,-0.10013 z m 0.65601,22.50615 c 0.0449,-0.026 0.1069,-0.023 0.15131,-0.05 0.16561,-0.1001 0.34414,-0.1947 0.50462,-0.3027 0.0899,-0.061 0.164,-0.1389 0.25231,-0.2019 0.20857,-0.1485 0.40644,-0.2934 0.60555,-0.4541 -0.0743,0.06 -0.12612,0.1438 -0.20185,0.2019 0.35895,-0.2765 0.6816,-0.5964 1.00924,-0.9083 0.42565,-0.4147 0.75532,-0.7751 0.75693,-0.8074 0.01,-0.1629 0.30423,-0.4753 0.40371,-0.4543 -0.0296,0.037 -0.0205,0.1147 -0.0504,0.1518 0.0389,-0.047 0.0627,-0.1033 0.10093,-0.1518 0.11465,-0.1421 0.19417,-0.3061 0.30277,-0.454 -0.0483,0.021 0.0252,-0.018 0.0504,-0.05 0.008,-0.016 -0.008,-0.039 0,-0.05 0.8441,-1.1705 1.50159,-2.4667 1.91757,-3.8856 0.0191,-0.066 0.0325,-0.1357 0.0504,-0.2019 0.0457,-0.1678 0.11255,-0.3357 0.1513,-0.5046 0.15761,-0.6819 0.25788,-1.4008 0.30278,-2.1194 0.0265,-0.4399 0.0207,-0.8752 0,-1.312 -0.0269,-0.5709 -0.0869,-1.1029 -0.15131,-1.4633 -0.0323,-0.1803 -0.0691,-0.3304 -0.10092,-0.4038 -0.006,0 -0.0442,-0.018 -0.0504,0 -0.024,0.068 -0.008,0.236 0.0504,0.4038 0.24869,0.7133 0.0162,2.2035 -0.4037,2.7249 -0.33536,0.4171 -0.56994,0.6559 -0.65601,0.6559 -0.12838,0 -0.20023,-0.3111 -0.20185,-0.8074 -7.2e-4,-0.2165 -0.0946,-0.5466 -0.20185,-0.7568 -0.10722,-0.2104 -0.20185,-0.4632 -0.20185,-0.5552 0,-0.092 -0.0677,-0.2692 -0.1513,-0.3531 -0.0837,-0.084 -0.17375,-0.3031 -0.20185,-0.5047 -0.0488,-0.3497 -0.27177,-1.0068 -0.4037,-1.1101 -0.0342,-0.028 -0.1685,-0.2027 -0.25231,-0.4037 -0.0838,-0.2012 -0.19596,-0.3533 -0.25231,-0.3533 -0.0564,0 -0.0961,-0.105 -0.10093,-0.2523 -0.01,-0.2491 0.008,-0.258 -0.0504,-0.05 l -0.10092,0.2018 -0.15131,-0.2018 c -0.0938,-0.1098 -0.15131,-0.2495 -0.15131,-0.3028 0,-0.053 -0.0438,-0.1001 -0.10092,-0.1001 -0.13661,0 -0.0276,0.4131 0.15131,0.5552 0.0749,0.06 0.10092,0.1747 0.10092,0.2522 0,0.076 0.0933,0.2921 0.20185,0.5046 0.10868,0.2124 0.22066,0.5607 0.25231,0.757 0.0383,0.2377 0.12999,0.3714 0.25231,0.4037 0.14969,0.039 0.20185,0.1518 0.20185,0.555 0,0.3223 0.0749,0.5991 0.20185,0.8074 0.10706,0.1756 0.20164,0.4651 0.20185,0.6056 2.1e-4,0.1566 0.0946,0.3781 0.30277,0.6055 0.18769,0.2048 0.34355,0.3977 0.35324,0.4542 0.0168,0.1034 0.0754,0.3916 0.10092,0.7065 0.01,0.1147 0.0904,0.1518 0.25231,0.1518 0.13419,0 0.25232,-0.055 0.25232,-0.1001 0,-0.047 0.093,-0.1227 0.20184,-0.1518 0.17989,-0.047 0.15906,0.028 0.10093,0.3532 -0.16986,0.9499 -0.51745,1.7568 -1.16063,2.7249 -1.08638,1.6353 -1.07247,1.6463 -1.16063,2.3213 -0.0859,0.6583 -0.27586,0.9629 -1.00925,1.6653 -0.36392,0.3485 -0.68628,0.7036 -0.70647,0.7568 -0.0509,0.1357 -0.90717,0.8268 -1.56433,1.2617 z m 6.15639,-13.0192 c 0.0239,0.1517 0.0824,0.3001 0.10093,0.454 -0.0557,-0.4739 -0.14663,-0.9559 -0.25232,-1.4129 0.0727,0.3097 0.10142,0.6409 0.15131,0.9589 z m 0.10093,0.454 c 0.0407,0.3387 0.0365,0.6631 0.0504,1.0093 0.006,0.1737 0.0504,0.3292 0.0504,0.5046 0,-0.5154 -0.0421,-1.0141 -0.10093,-1.5139 z m -2.82589,9.7393 c -0.0975,0.1195 -0.25163,0.1875 -0.35323,0.3028 -0.17274,0.1959 -0.32051,0.4203 -0.50463,0.6055 0.29222,-0.2922 0.59459,-0.5894 0.85786,-0.9083 z m -22.65753,-5.7527 c 0.04,0.2077 0.10157,0.4016 0.15131,0.6056 -0.0481,-0.1959 -0.11239,-0.4063 -0.15131,-0.6056 z m -0.20185,-3.2801 c 0.0171,-0.2716 0.0168,-0.5405 0.0504,-0.8074 -0.0333,0.2655 -0.0336,0.5374 -0.0504,0.8074 z m 7.72072,-10.7989 c -0.002,0.0276 -0.0883,0.0726 -0.30278,0.15177 -0.24391,0.0905 -0.45415,0.17553 -0.45415,0.15181 0,-0.0597 0.5585,-0.26886 0.75693,-0.3028 z m 8.42719,0.0501 c -0.15438,0 -0.12079,0.0226 0.0504,0.15178 0.22399,0.17116 0.4037,0.20234 0.4037,0.0501 0,-0.0565 -0.0205,-0.0807 -0.10093,-0.0501 -0.0804,0.0308 -0.1513,0 -0.1513,-0.0501 0,-0.0517 -0.10803,-0.10171 -0.20185,-0.1001 z m -6.00501,0.15178 c 0.0162,0 0.0171,0 0.0504,0 0.10044,0 0.29332,0.0308 0.45416,0.0501 0.30308,0.0371 0.30301,0.0452 0.1513,0.10013 -0.16731,0.0597 -0.12046,0.092 0.15131,0.15178 0.17425,0.0387 0.30277,0.10174 0.30277,0.15177 0,0.0501 0.0982,0.10013 0.20185,0.10013 0.10367,0 0.21824,0.0953 0.25231,0.20184 0.0434,0.13726 0.13564,0.18571 0.35324,0.20188 0.22946,0.0161 0.26308,0.0194 0.10092,0.05 -0.12062,0.0226 -0.20185,0.0517 -0.20185,0.10013 0,0.0501 -0.27039,0.10174 -0.60555,0.10013 -0.44367,0 -0.61103,-0.0276 -0.50462,-0.10013 0.10852,-0.0743 0.098,-0.0969 -0.10092,-0.0501 -0.20713,0.0468 -0.25231,0.0711 -0.25231,-0.0501 0,-0.0872 0.0709,-0.20184 0.15131,-0.20184 0.0812,0 0.1513,-0.0436 0.1513,-0.15178 0,-0.13726 -0.0951,-0.20187 -0.25231,-0.20187 -0.25465,0 -0.589,-0.38641 -0.4037,-0.45421 z m 8.88135,0.0501 c 0.42426,0.22897 0.76684,0.5337 1.16064,0.80739 -0.0754,0 -0.12854,0.0549 -0.10093,0.10014 0.0276,0.0452 0.0804,0.05 0.10093,0.05 0.0205,0 0.0733,0 0.10092,-0.05 0.58837,0.41837 1.20636,0.80284 1.71571,1.31199 -0.87665,-0.87667 -1.879,-1.62368 -2.97727,-2.22034 z m -9.43643,0.50464 c 0.17427,0 0.30277,0 0.30277,0.05 0,0.0533 -0.0473,0.10013 -0.10092,0.10013 -0.0536,0 -0.10093,0.0759 -0.10093,0.15177 0,0.0775 -0.12385,0.16632 -0.30277,0.20188 -0.17426,0.034 -0.4108,0.0743 -0.50462,0.10009 -0.0938,0.0276 -0.15131,0 -0.15131,-0.05 0,-0.0566 0.0473,-0.10013 0.10093,-0.10013 0.0536,0 0.10092,-0.0387 0.10092,-0.10013 0,-0.18632 0.32151,-0.35315 0.65601,-0.35315 z m 1.00924,0.6559 c 0.0496,0 0.10093,0.0404 0.10093,0.10013 0,0.0549 -0.13161,0.10171 -0.25231,0.1001 -0.17747,0 -0.16867,-0.024 -0.0504,-0.1001 0.0945,-0.0614 0.15243,-0.10013 0.20185,-0.10013 z m 3.28005,1.0598 c -0.0536,0 -0.10092,0.0485 -0.10092,0.1001 0,0.0533 0.0473,0.10013 0.10092,0.10013 0.0536,0 0.10092,-0.0485 0.10092,-0.10013 0,-0.0549 -0.0473,-0.1001 -0.10092,-0.1001 z m 8.2758,0.20184 c 0.23045,0.23933 0.44438,0.50044 0.65601,0.75686 -0.005,0 -0.0431,0 -0.0504,0 -0.053,0.034 -0.10093,0.10175 -0.10093,0.15178 0,0.14048 0.0867,0.0678 0.15131,-0.1001 0.15777,0.19231 0.35795,0.35361 0.50462,0.55499 -0.35214,-0.48493 -0.74593,-0.93157 -1.16063,-1.36238 z m -7.26656,0.90831 c 0.0536,0 0.10093,0.0485 0.10093,0.10014 0,0.0533 -0.0473,0.0501 -0.10093,0.0501 -0.0536,0 -0.10092,0 -0.10092,-0.0501 0,-0.0549 0.0473,-0.10014 0.10092,-0.10014 z m -0.10092,0.45411 c 0.22833,0 0.25336,0.25126 0.0504,0.45421 -0.20306,0.20252 -0.25231,0.17553 -0.25231,-0.15178 0,-0.22721 0.0502,-0.30276 0.20185,-0.30276 z m 8.78042,0.35329 c 0.14889,0.21961 0.21771,0.4775 0.35324,0.70647 -0.098,-0.22864 -0.21509,-0.43195 -0.30278,-0.5046 -0.23117,-0.19184 -0.22978,-0.084 0.10093,0.45407 0.16083,0.26144 0.30277,0.52965 0.30277,0.60555 0,0.0759 0.11627,0.30455 0.25231,0.5046 0.3068,0.4507 0.38066,0.42794 0.20185,0 -0.0693,-0.16535 -0.12514,-0.2934 -0.10092,-0.35315 -0.006,0 -0.0404,-0.0161 -0.0504,0 -0.10319,0.0598 -0.0967,0.0211 -0.0504,-0.10009 0.0342,-0.0905 0.003,-0.15181 -0.0504,-0.15181 0.0402,0.0743 0.11272,0.12597 0.15131,0.20184 -0.24107,-0.47313 -0.51194,-0.92509 -0.80739,-1.36238 z m 0.8074,1.41294 c 0.22237,0.43827 0.43317,0.89735 0.60554,1.36242 -0.17255,-0.4712 -0.38147,-0.91867 -0.60554,-1.36242 z m -5.09668,-0.95884 c 0.0113,0 0.0425,0 0.0504,0 0.0342,0.034 -0.0396,0.14049 -0.15131,0.25237 -0.24372,0.24338 -0.27734,0.24804 -0.35323,0.0501 -0.0851,-0.22188 -0.0727,-0.2175 0.10092,-0.15178 0.0857,0.0323 0.20694,0.0226 0.25231,-0.0501 0.0339,-0.0549 0.066,-0.10013 0.10093,-0.10013 z m -2.87635,0.1001 c 0.23825,0 0.30277,0 0.30277,0.10013 0,0.14693 -0.0467,0.18005 -0.45416,0.10013 -0.34306,-0.0662 -0.22763,-0.20188 0.15131,-0.20188 z m 8.22534,2.77553 c -0.0113,0.2952 0.36325,1.1941 0.45416,1.1102 0.0433,-0.04 0.0334,0.063 0,0.2018 -0.0334,0.1389 -0.0347,0.2673 0,0.3028 0.11642,0.1162 0.19305,0.069 0.25231,-0.1518 0.0828,-0.3092 0.0604,-0.3431 -0.10092,-0.5046 -0.0793,-0.079 -0.22244,-0.3695 -0.35324,-0.6559 -0.0993,-0.2172 -0.21236,-0.2823 -0.25231,-0.3028 z m -2.57357,1.7661 c -0.008,0 -0.0407,0.016 -0.0504,0.05 -0.0246,0.094 -0.0748,0.1518 -0.15131,0.1518 -0.0764,0 -0.15131,0.052 -0.15131,0.1001 0,0.05 -0.0195,0.1534 -0.0504,0.2524 -0.0525,0.1695 -0.052,0.2102 0.0504,0.05 0.0604,-0.094 0.17448,-0.2018 0.25231,-0.2018 0.0919,0 0.109,-0.078 0.10093,-0.2523 -0.005,-0.1033 0.0129,-0.1517 0,-0.1517 z m -11.65678,2.5737 c -0.0536,0 -0.10092,0.071 -0.10092,0.1517 0,0.081 0.0473,0.1518 0.10092,0.1518 0.0536,0 0.10093,-0.071 0.10093,-0.1518 0,-0.081 -0.0473,-0.1517 -0.10093,-0.1517 z m 5.70224,0.7064 c 0.01,0.016 -0.0312,0.05 0,0.05 0.0625,0 0.1513,0.095 0.1513,0.2018 0,0.1421 0.0736,0.2019 0.25231,0.2019 0.37497,0 0.28485,-0.3685 -0.10092,-0.4541 -0.12353,-0.026 -0.23641,-0.016 -0.30277,0 z m 7.01424,0.5046 c -0.0113,0.016 -0.0488,0.044 -0.0504,0.1002 -0.005,0.1033 0.0181,0.1324 0.0504,0.1001 0.0326,-0.032 0.0281,-0.1308 0,-0.2019 z m -0.65601,0.05 c -0.0236,0 -0.1182,0.048 -0.1513,0.1001 -0.0333,0.055 -0.006,0.1001 0.0504,0.1001 0.0568,0 0.10092,-0.047 0.10092,-0.1001 0,-0.053 0.0236,-0.1001 0,-0.1001 z m -9.23458,0.2019 c -0.0501,0 -0.10092,0.048 -0.10092,0.1001 0,0.055 0.0473,0.1001 0.10092,0.1001 0.0536,0 0.10093,0.063 0.10093,0.1518 0,0.089 0.0189,0.1324 0.0504,0.1001 0.0814,-0.081 -0.0415,-0.4542 -0.15131,-0.4542 z m -3.38097,1.1607 c -0.0313,0.016 -0.0504,0.069 -0.0504,0.1518 0,0.081 0.0935,0.1517 0.20185,0.1517 0.2324,0 0.26831,-0.1684 0.0504,-0.2523 -0.109,-0.05 -0.1702,-0.066 -0.20185,-0.05 z m 12.8174,1.0596 c -0.0479,0.023 -0.0937,0.1807 -0.0504,0.3533 0.0352,0.1405 0.1027,0.2522 0.15131,0.2522 0.0781,0 0.0417,-0.4989 -0.0504,-0.6055 -0.0223,-0.026 -0.0344,0 -0.0504,0 z m -1.11017,0.6055 c -0.0208,0 -0.0383,0.039 -0.10092,0.1002 -0.0804,0.081 -0.1513,0.1877 -0.1513,0.2523 0,0.094 0.0409,0.092 0.1513,0 0.0804,-0.066 0.15131,-0.1748 0.15131,-0.2523 0,-0.061 -0.0296,-0.1002 -0.0504,-0.1002 z m 0.20185,0.2019 c -0.0234,0.024 -0.0194,0.1001 0,0.1518 0.0309,0.081 0.0864,0.1001 0.10093,0.1001 0.0146,0 0.0848,-0.021 0.1513,-0.1001 0.10125,-0.1227 0.0693,-0.1518 -0.10092,-0.1518 -0.0709,0 -0.12805,-0.024 -0.15131,0 z m 0.15131,0.3533 c -0.0564,0.016 -0.10093,0.05 -0.10093,0.1001 0,0.055 -0.0709,0.1001 -0.1513,0.1001 -0.11045,0 -0.15777,0.1034 -0.15131,0.4541 0.005,0.2555 0.0215,0.426 0.0504,0.3533 0.0446,-0.113 0.0804,-0.113 0.15131,0 0.0617,0.1018 0.1,0.089 0.10092,0 7.2e-4,-0.066 0.0709,-0.1001 0.15131,-0.1001 0.0804,0 0.15131,-0.099 0.15131,-0.2018 0,-0.1034 0.0286,-0.2301 0.10092,-0.3028 0.10835,-0.1082 0.10496,-0.1534 0,-0.2524 -0.0961,-0.089 -0.20879,-0.1675 -0.30277,-0.1518 z m -0.95878,1.2615 c -0.16399,0 -0.13225,0.68 0.0504,0.9588 0.0917,0.1405 0.18086,0.2143 0.20185,0.1518 0.0208,-0.063 -0.0362,-0.1747 -0.10093,-0.2522 -0.0665,-0.081 -0.0853,-0.2648 -0.0504,-0.4037 0.0373,-0.1469 0.0129,-0.2524 -0.0504,-0.2524 -0.057,0 -0.0835,-0.047 -0.0504,-0.1001 0.0333,-0.053 0.0568,-0.1001 0,-0.1001 z m -4.1379,0.2018 c -0.0536,0 -0.10093,0.048 -0.10093,0.1001 0,0.055 0.0473,0.1002 0.10093,0.1002 0.0536,0 0.10092,-0.047 0.10092,-0.1002 0,-0.053 -0.0473,-0.1001 -0.10092,-0.1001 z m 4.99575,1.2111 c -0.0328,0.026 -0.10867,0.057 -0.1513,0.2019 -0.0622,0.2108 -0.078,0.4545 -0.0504,0.5046 0.0725,0.134 0.26386,-0.5397 0.20185,-0.7065 z"
       style="fill:url(#radialGradient3855);fill-opacity:1;stroke:#000000;stroke-width:1;stroke-miterlimit:4;stroke-opacity:0.18823529999999999;stroke-dasharray:none;stroke-linejoin:round"
       inkscape:connector-curvature="0" />
    <text
       xml:space="preserve"
       style="font-size:24px;font-style:normal;font-weight:normal;line-height:125%;letter-spacing:0px;word-spacing:0px;fill:#000000;fill-opacity:1;stroke:none;font-family:Sans"
       x="-56"
       y="948.36218"
       id="text5893"
       sodipodi:linespacing="125%"><tspan
         sodipodi:role="line"
         id="tspan5895"
         x="-56"
         y="948.36218">128</tspan></text>
    <text
       sodipodi:linespacing="125%"
       id="text5901"
       y="1000.3622"
       x="184"
       style="font-size:16px;font-style:normal;font-weight:normal;line-height:125%;letter-spacing:0px;word-spacing:0px;fill:#000000;fill-opacity:1;stroke:none;font-family:Sans"
       xml:space="preserve"><tspan
         y="1000.3622"
         x="184"
         id="tspan5903"
         sodipodi:role="line">31 - 17</tspan></text>
    <text
       xml:space="preserve"
       style="font-size:16px;font-style:normal;font-weight:normal;line-height:125%;letter-spacing:0px;word-spacing:0px;fill:#000000;fill-opacity:1;stroke:none;font-family:Sans"
       x="172"
       y="1048.3622"
       id="text5905"
       sodipodi:linespacing="125%"><tspan
         sodipodi:role="line"
         id="tspan5907"
         x="172"
         y="1048.3622">16</tspan></text>
    <rect
       style="fill:none;stroke:#000000;stroke-width:1;stroke-linecap:round;stroke-linejoin:round;stroke-miterlimit:4;stroke-opacity:1;stroke-dasharray:none;stroke-dashoffset:0"
       id="rect5919"
       width="40"
       height="40"
       x="140"
       y="984.36218"
       rx="4.5902016e-07" />
    <rect
       style="fill:none;stroke:#000000;stroke-width:1;stroke-linecap:round;stroke-linejoin:round;stroke-miterlimit:4;stroke-opacity:1;stroke-dasharray:none;stroke-dashoffset:0"
       id="rect5921"
       width="24"
       height="24"
       x="140"
       y="1032.3622"
       rx="4.5902016e-07" />
    <rect
       style="fill:#b3b3b3;fill-opacity:1;stroke:none"
       id="rect6935"
       width="32"
       height="4"
       x="144"
       y="980.36218"
       rx="4.5902016e-07" />
    <rect
       style="fill:#b3b3b3;fill-opacity:1;stroke:none"
       id="rect6937"
       width="4"
       height="32"
       x="136"
       y="988.36218"
       rx="4.5902016e-07" />
    <rect
       style="fill:#b3b3b3;fill-opacity:1;stroke:none"
       id="rect6939"
       width="16"
       height="4"
       x="144"
       y="1028.3622"
       rx="4.5902016e-07" />
    <rect
       style="fill:#b3b3b3;fill-opacity:1;stroke:none"
       id="rect6941"
       width="4"
       height="16"
       x="136"
       y="1036.3622"
       rx="4.5902016e-07" />
    <path
       sodipodi:type="arc"
       style="color:#000000;fill:#2e3436;fill-opacity:1;fill-rule:nonzero;stroke:url(#linearGradient7233);stroke-width:4;stroke-linecap:round;stroke-linejoin:round;stroke-miterlimit:4;stroke-opacity:1;stroke-dasharray:none;stroke-dashoffset:0;marker:none;visibility:visible;display:inline;overflow:visible;enable-background:accumulate"
       id="path7199"
       sodipodi:cx="64"
       sodipodi:cy="64"
       sodipodi:rx="48"
       sodipodi:ry="48"
       d="M 112,64 C 112,90.509668 90.509668,112 64,112 37.490332,112 16,90.509668 16,64 16,37.490332 37.490332,16 64,16 c 26.509668,0 48,21.490332 48,48 z"
       transform="translate(0,924.36218)" />
    <path
       sodipodi:type="arc"
       style="opacity:0.5;color:#000000;fill:#3465a4;fill-opacity:1;fill-rule:nonzero;stroke:none;stroke-width:1;marker:none;visibility:visible;display:inline;overflow:visible;enable-background:accumulate"
       id="path6544"
       sodipodi:cx="64"
       sodipodi:cy="64"
       sodipodi:rx="64"
       sodipodi:ry="64"
       d="M 128,64 C 128,99.346224 99.346224,128 64,128 28.653776,128 0,99.346224 0,64 0,28.653776 28.653776,0 64,0 c 35.346224,0 64,28.653776 64,64 z"
       transform="translate(0,924.36218)" />
    <path
       style="color:#000000;fill:#000000;fill-opacity:1;fill-rule:nonzero;stroke:none;stroke-width:1;marker:none;visibility:visible;display:inline;overflow:visible;filter:url(#filter7622);enable-background:accumulate"
       d="m 67.34375,934.76845 c -2.833214,0.52363 -4.038356,1.86719 -6.40625,-0.21875 -3.891716,0.40562 -9.98151,0.0118 -11.625,4.15625 0.08806,2.44711 1.65168,5.23056 4.59375,5.28125 3.342988,2.245 -2.751814,2.05345 -4.342474,1.66825 -5.225561,-1.29858 -7.870201,-0.15643 -6.751276,5.363 -1.981365,2.20398 0.253506,5.1322 1.5,7 1.668392,0.16107 4.018775,0.34228 2.03125,1.9375 -3.25417,0.89331 -5.295845,3.63236 -5.03125,7.0625 -1.782512,2.17122 -5.37635,1.7994 -6.15625,4.90625 -2.239756,2.27807 -2.485421,5.74467 -5.15625,7.625 -2.26144,3.27383 3.084361,4.87469 1.25,8.34375 -0.581369,2.43682 -3.205389,4.75008 -0.65625,6.84375 -1.083009,3.16728 3.09192,3.62374 3.9375,6.1875 1.854475,1.9756 1.841176,5.3811 5.03125,6.0938 2.673936,1.8378 5.200114,4.663 8.96875,3.4687 1.97319,-0.73 3.639472,-1.5297 5.53125,-0.1562 3.92017,0.069 7.325988,-3.3595 11.25,-2.4688 0.403732,3.3201 4.222312,2.93 6.71875,2.9375 3.101289,2.7631 -2.476138,6.8321 0.9375,9.375 1.802385,2.8728 4.794098,4.9957 5.4375,8.4688 -0.02295,1.9404 2.069611,3.9334 -0.3125,5.125 -1.20936,2.3264 -2.221104,4.7074 -2.3125,7.4375 9.02036,-2.3156 17.543463,-6.4482 24.40625,-12.8125 0.23745,-0.9016 3.3737,-2.6783 5.1875,-5.3438 2.88292,-3.5014 4.41887,-6.7391 6.875,-10.4375 3.76175,-8.0455 6.71991,-17.38701 5.25,-26.25 -1.54082,-2.10041 -0.98135,-6.15909 -1.65625,-7.09375 1.38241,-3.70197 -1.11848,-10.15511 -3.28125,-14.53125 -4.82565,-7.10503 -1.4891,0.23662 -6.40625,-1 -2.90667,2.06366 -5.97174,-1.04254 -9.0625,-1.34375 -3.090961,-0.73993 -7.223078,-0.30439 -8.6875,1.96875 -2.969541,0.0914 -4.261082,-2.83146 -7.3125,-2.875 -1.76052,-0.0185 -4.037744,-0.14776 -2.5625,-2.28125 0.176995,-1.99447 -3.294072,-3.70609 -3.5,-4.59375 2.286704,-0.92214 -0.0051,-5.73348 2.53125,-3.3125 0.987023,1.21131 4.565915,1.26895 4.21875,1.96875 -3.739661,-1.15768 -5.839363,4.68064 -1.4375,5.0625 2.30755,1.10595 4.844576,-0.47605 5.0625,-2.5 2.297199,-0.19354 2.876905,-4.74059 4.40625,-1.1875 2.160914,1.20242 2.183971,6.07135 5.59375,4.03125 2.191767,-0.96345 2.686041,-4.05178 2.59375,-5.25 1.324854,2.0244 1.334106,5.74339 4.5,5.90625 1.3697,1.68217 6.17658,0.4046 5.125,-0.5625 2.08985,-1.91759 -3.01907,-5.44813 -4.4375,-7.5625 -9.185627,-9.65062 -22.62973,-16.41247 -35.84375,-16.4375 z m 4.0625,14.125 c -0.897726,1.55605 -1.262428,4.64913 -0.59375,5.9375 -3.491537,0.10883 -6.885716,1.34018 -10.5,1.1875 -3.025003,1.26207 -0.165214,-1.97072 0.0625,-3.0625 1.701011,-1.35909 4.663608,-1.15807 5.3125,-3.71875 1.84804,0.20035 4.211536,0.51647 5.71875,-0.34375 z m 37.71875,10.75 c 2.39929,1.0761 -1.09068,-2.88868 0,0 z m 6.09375,18.96875 c -1.02302,-0.10282 -1.30241,-1.8419 0,0 z"
       id="path6538-3"
       inkscape:connector-curvature="0" />
    <path
       style="color:#000000;fill:#eeeeec;fill-opacity:1;fill-rule:nonzero;stroke:none;stroke-width:1;marker:none;visibility:visible;display:inline;overflow:visible;enable-background:accumulate"
       d="m 64,924.36218 c -9.747865,0 -18.980772,2.19581 -27.25,6.09375 15.340928,-6.99109 31.301281,-7.87641 47.5,-2.6875 5.183773,1.66051 5.970879,2.34967 1.3125,1.15625 -3.233188,-0.8283 -13.778397,-0.68127 -16.03125,0.21875 -0.746612,0.29827 -0.908484,0.48058 -0.40625,0.5 0.447662,0.0173 0.787936,0.39699 0.75,0.875 -0.04594,0.57848 0.213878,0.79673 0.875,0.71875 0.531321,-0.0627 1.699104,-0.14072 2.5625,-0.1875 0.863396,-0.0468 1.5625,-0.29073 1.5625,-0.53125 0,-0.66931 2.057237,0.14554 2.9375,1.15625 0.42965,0.49332 1.042834,0.90625 1.34375,0.90625 0.300911,0 0.53125,0.348 0.53125,0.78125 0,0.64148 0.337476,0.7438 1.8125,0.5 0.996226,-0.16467 2.076132,-0.30958 2.375,-0.3125 0.298868,-0.003 0.650612,-0.65931 0.8125,-1.46875 0.28259,-1.41297 0.414981,-1.47613 2.625,-1.375 1.266036,0.0579 2.935351,0.32916 3.71875,0.59375 1.252888,0.42316 1.293954,0.52304 0.46875,0.8125 -0.826551,0.28994 -0.717984,0.41329 0.71875,1.15625 1.339049,0.69245 1.693325,0.72069 2.03125,0.1875 0.330694,-0.52178 0.400304,-0.50808 0.40625,0 0.0043,0.3542 0.250108,0.47432 0.5625,0.28125 0.371036,-0.22931 0.450571,-0.1444 0.1875,0.28125 -0.285677,0.46223 -0.195657,0.56273 0.375,0.34375 0.434379,-0.16669 1.112798,0.019 1.5,0.40625 0.387203,0.3872 0.934117,0.71875 1.21875,0.71875 0.284638,0 0.53125,0.18018 0.53125,0.4375 0,0.55587 -1.499893,0.10718 -2.1875,-0.65625 -0.613598,-0.68125 -2.811619,-0.93715 -2.40625,-0.28125 0.388985,0.6294 -0.553891,0.60887 -1.75,-0.0312 -1.091173,-0.58398 -2.376004,-0.0874 -1.375,0.53125 0.95787,0.592 -2.64443,1.13746 -3.71875,0.5625 -0.498688,-0.26689 -2.035558,-0.43658 -3.40625,-0.375 -1.370687,0.0616 -4.086998,-0.14053 -6.03125,-0.4375 -3.177057,-0.48528 -3.534468,-0.63834 -3.5,-1.59375 0.02894,-0.80214 -0.244771,-1.0625 -1.09375,-1.0625 -0.618829,0 -1.125,0.20309 -1.125,0.46875 0,0.26566 0.23434,0.5 0.5,0.5 0.26566,0 0.46875,0.31115 0.46875,0.6875 0,0.37635 0.292924,0.76303 0.625,0.875 0.332075,0.11197 -0.777122,0.34223 -2.4375,0.53125 -1.660377,0.18902 -3,0.59156 -3,0.875 0,0.28925 -0.540997,0.41081 -1.21875,0.28125 -0.809738,-0.15479 -1.1875,-0.003 -1.1875,0.4375 0,0.45148 -0.653003,0.65584 -2.0625,0.65625 -1.511637,4.3e-4 -2.432963,0.33033 -3.5,1.25 -1.127168,0.9715 -1.810154,1.19689 -3.03125,1 -0.863396,-0.13921 -1.5625,-0.0615 -1.5625,0.1875 0,0.24896 -0.874858,0.46875 -1.9375,0.46875 -1.062641,0 -1.9375,0.20309 -1.9375,0.46875 0,0.26566 0.542327,0.46875 1.1875,0.46875 0.645178,0 1.50776,0.35151 1.90625,0.75 0.398491,0.39849 0.934117,0.71875 1.21875,0.71875 0.284639,0 0.53125,0.31115 0.53125,0.6875 0,0.37635 0.261675,0.77225 0.59375,0.90625 0.483019,0.1949 0.483019,0.25074 0,0.28125 C 57.261675,945.1019 57,945.46369 57,945.86218 c 0,0.39849 -0.23434,0.71875 -0.5,0.71875 -0.265661,0 -0.46875,0.32547 -0.46875,0.71875 0,0.60705 -0.846777,0.65683 -5.5625,0.40625 l -5.5625,-0.28125 0,2.46875 c 0,1.36302 -0.20309,2.46875 -0.46875,2.46875 -0.265661,0 -0.46875,0.35151 -0.46875,0.75 0,0.39849 0.203089,0.71875 0.46875,0.71875 0.26566,0 0.46875,0.52335 0.46875,1.1875 0,1.21871 0.331237,1.41065 2.3125,1.25 0.607917,-0.0493 1.212281,0.23221 1.375,0.65625 0.316203,0.82401 2.59375,1.0717 2.59375,0.28125 0,-0.26566 0.992028,-0.46875 2.1875,-0.46875 1.195472,0 2.1875,-0.23434 2.1875,-0.5 0,-0.26566 0.32026,-0.46875 0.71875,-0.46875 0.398491,0 0.71875,-0.35151 0.71875,-0.75 0,-0.39849 0.173797,-0.71875 0.40625,-0.71875 0.232453,0 0.563628,-0.63064 0.71875,-1.40625 0.167424,-0.83712 0.69602,-1.53301 1.28125,-1.71875 0.542237,-0.1721 0.96875,-0.50224 0.96875,-0.75 0,-0.24776 0.42791,-0.46875 0.9375,-0.46875 1.672308,0 2.4375,-0.56808 2.4375,-1.78125 0,-1.1824 0.04798,-1.17662 3.15625,-0.84375 2.047184,0.21923 3.125,0.16771 3.125,-0.15625 0,-0.63531 3.515666,-1.25535 4.8125,-0.84375 0.542522,0.17219 1,0.54577 1,0.8125 0,0.7072 1.089752,1.67441 2.3125,2.0625 0.585346,0.18578 1.0625,0.50575 1.0625,0.71875 0,0.213 0.723001,0.50988 1.625,0.65625 1.782755,0.2893 3.6875,1.64066 3.6875,2.625 0,0.33945 0.31388,0.625 0.6875,0.625 0.441503,0 0.570438,-0.34089 0.40625,-0.96875 -0.175688,-0.67184 -0.01182,-0.96875 0.53125,-0.96875 1.472391,0 0.793068,-0.84924 -0.90625,-1.125 -0.93427,-0.15161 -2.340939,-0.87846 -3.125,-1.625 -2.185592,-2.08102 -2.827962,-2.5625 -3.375,-2.5625 -0.276876,0 -0.5,-0.42729 -0.5,-0.9375 0,-1.21264 2.409827,-1.78223 3.8125,-0.90625 0.55366,0.34577 1.03125,0.78597 1.03125,0.96875 0,0.75246 1.593163,1.84375 2.6875,1.84375 0.645173,0 1.15625,0.20064 1.15625,0.4375 0,0.23686 0.546543,0.55004 1.21875,0.71875 0.861832,0.21631 1.328711,0.73728 1.53125,1.75 0.157981,0.7899 0.455047,1.4375 0.6875,1.4375 0.232453,0 0.4375,0.20309 0.4375,0.46875 0,0.83862 1.899904,2.4375 2.90625,2.4375 0.74268,0 0.9375,-0.33554 0.9375,-1.40625 0,-1.036 0.285326,-1.47085 1.09375,-1.6875 1.64876,-0.44185 4.25,-0.33763 4.25,0.15625 0,0.24079 0.40618,0.32644 0.9375,0.1875 1.01857,-0.26636 1.33659,-1.39822 0.46875,-1.6875 -0.28086,-0.0936 -0.36338,-0.54169 -0.1875,-1 0.17586,-0.45831 0.51522,-0.73885 0.75,-0.59375 0.23478,0.1451 0.28059,-0.0633 0.125,-0.46875 -0.24259,-0.63218 1.15373,-2.65473 1.59375,-2.3125 0.0854,0.0664 0.21484,0.0902 0.28125,0.0625 0.69239,-0.28897 3.83367,-0.19469 4.03125,0.125 0.14205,0.22984 -0.0232,0.3855 -0.375,0.3125 -0.4181,-0.0867 -0.58573,0.2615 -0.5,1.03125 0.15994,1.43606 0.35669,1.68621 1.0625,1.25 0.36915,-0.22815 0.28065,-0.56197 -0.3125,-1 -0.79327,-0.5858 -0.75351,-0.6279 0.5625,-0.53125 1.86355,0.13687 2.65625,0.63775 2.65625,1.6875 0,0.46173 0.85461,1.69185 1.90625,2.71875 1.05164,1.0269 1.80959,2.02121 1.6875,2.21875 -0.32887,0.53212 -3.67254,-0.60984 -4.78125,-1.625 -0.67451,-0.6176 -1.3369,-0.76482 -2.1875,-0.53125 -0.66675,0.18309 -1.65618,0.34606 -2.1875,0.375 -0.53132,0.0289 -1.25205,0.33353 -1.625,0.6875 -0.44232,0.41982 -1.25819,0.54154 -2.3125,0.34375 -0.99557,-0.18677 -1.59375,-0.0923 -1.59375,0.21875 0,0.2777 0.17015,0.5 0.40625,0.5 0.23609,0 0.57557,0.75769 0.75,1.6875 0.26017,1.3868 0.52738,1.6875 1.5,1.6875 0.65211,0 1.1875,0.23434 1.1875,0.5 0,0.26566 0.453,0.46875 1,0.46875 0.547,0 0.887,-0.18458 0.75,-0.40625 -0.13699,-0.22167 0.78087,-0.13263 2.03125,0.1875 1.3226,0.33862 2.36828,0.37917 2.53125,0.125 0.15407,-0.24029 0.62478,-0.28097 1.03125,-0.125 0.56811,0.21801 0.7064,0.85161 0.5625,2.78125 -0.31754,4.25806 -0.40927,4.6875 -0.8125,4.6875 -0.21493,0 -0.25789,0.20309 -0.0937,0.46875 0.18029,0.29171 -0.47219,0.5 -1.65625,0.5 -1.24251,0 -1.96406,-0.24236 -1.96875,-0.625 -0.005,-0.42716 -0.13252,-0.38801 -0.4375,0.0937 -0.51521,0.81387 -4.98295,0.89487 -5.25,0.0937 -0.0962,-0.28878 -0.7786,-0.53125 -1.5313,-0.53125 -0.752703,0 -1.442693,-0.21599 -1.53125,-0.46875 -0.239901,-0.68476 -6.325456,-1.13443 -7.1875,-0.53125 -0.644023,0.45063 -0.644023,0.57722 0,1 0.430177,0.28239 0.495401,0.46436 0.15625,0.46875 -0.314175,0.004 -0.706364,0.43743 -0.875,0.96875 -0.391511,1.23354 -1.267162,1.23354 -2.15625,0 -0.484927,-0.6728 -1.25991,-0.96875 -2.53125,-0.96875 -1.003993,0 -1.84375,-0.21536 -1.84375,-0.5 0,-1.10748 -1.35527,-1.7729 -4.09375,-2 -1.570725,-0.13026 -2.929309,-0.50668 -3.03125,-0.8125 -0.101941,-0.30582 -0.61582,-0.53125 -1.125,-0.53125 -1.22451,0 -1.163414,-0.88256 0.125,-2 0.571972,-0.49607 0.806311,-0.90625 0.5,-0.90625 -0.306311,0 -0.5625,-0.24661 -0.5625,-0.53125 0,-0.8524 -1.30563,-1.875 -2.375,-1.875 -0.550299,0 -1.03125,0.20309 -1.03125,0.46875 0,0.26566 -0.32026,0.5 -0.71875,0.5 -0.398491,0 -0.71875,-0.23434 -0.71875,-0.5 0,-0.26566 -0.554599,-0.46875 -1.21875,-0.46875 -0.664151,0 -1.1875,0.17149 -1.1875,0.40625 0,0.23476 -2.20251,0.51766 -4.875,0.625 -3.581503,0.14385 -4.959506,0.38566 -5.28125,0.90625 -0.333394,0.53944 -1.529996,0.71875 -5.03125,0.71875 -4.341939,0 -4.587146,0.0401 -4.84375,1.0625 -0.15628,0.62267 -0.776417,1.20124 -1.46875,1.375 -0.660105,0.16568 -1.21875,0.51314 -1.21875,0.75 0,0.23686 -0.405914,0.4375 -0.90625,0.4375 -0.965678,0 -1.488782,1.2032 -1.5,3.5 -0.0086,1.7699 -1.982606,3.71484 -4.125,4.0625 -1.165596,0.18915 -1.65625,0.54573 -1.65625,1.125 0,0.45935 -0.554599,1.21999 -1.21875,1.71875 -0.667754,0.50146 -1.21875,1.39302 -1.21875,2 0,0.6037 -0.43743,1.48257 -0.96875,1.9375 -0.531321,0.45493 -0.9375,1.20187 -0.9375,1.65625 0,0.45438 -0.437429,0.95636 -0.96875,1.125 -1.249531,0.39659 -1.249531,2.04091 0,2.4375 0.843655,0.26777 0.96875,0.70063 0.96875,3.625 0,1.91037 -0.224436,3.375 -0.5,3.375 -0.26566,0 -0.46875,0.51424 -0.46875,1.15625 0,0.64201 -0.292924,1.28253 -0.625,1.4375 -0.483018,0.22541 -0.483018,0.33709 0,0.5625 0.332076,0.15497 0.625,0.5924 0.625,0.96875 0,0.37635 0.32026,0.6875 0.71875,0.6875 0.440649,0 0.710691,0.43278 0.6875,1.09375 -0.02097,0.59774 -0.147254,0.80083 -0.28125,0.46875 -0.288272,-0.71441 -1.125,-0.80624 -1.125,-0.125 0,0.2606 0.523349,0.61455 1.1875,0.78125 0.664151,0.16669 1.21875,0.65516 1.21875,1.0625 0,0.40735 0.640519,1.36337 1.4375,2.125 0.85173,0.81392 1.46875,1.85522 1.46875,2.56252 0,0.7476 0.268607,1.2187 0.71875,1.2187 0.39849,0 0.71875,0.3203 0.71875,0.7188 0,0.3985 0.403352,0.7187 0.90625,0.7187 0.502898,0 1.034585,0.3203 1.1875,0.7188 0.152915,0.3985 0.728243,0.75 1.25,0.75 0.521756,0 1.059423,0.4042 1.21875,0.9062 0.159327,0.502 0.881217,1.0201 1.59375,1.1563 1.622866,0.3102 4.46875,-0.1278 4.46875,-0.6875 0,-0.2309 0.874858,-0.4063 1.9375,-0.4063 1.062641,0 1.9375,0.2031 1.9375,0.4688 0,0.2656 0.52335,0.4687 1.1875,0.4687 0.664151,0 1.21875,-0.2031 1.21875,-0.4687 0,-0.2657 0.538434,-0.4688 1.1875,-0.4688 1.043321,0 1.156452,-0.2189 1.0625,-1.6875 -0.06507,-1.0171 -0.529976,-2.0235 -1.1875,-2.5937 -0.590621,-0.5123 -1.0625,-1.0507 -1.0625,-1.2188 0,-0.5717 1.848976,-0.3253 2.09375,0.2813 0.194903,0.483 0.250742,0.483 0.28125,0 0.02097,-0.3321 0.265589,-0.5938 0.53125,-0.5938 0.26566,0 0.46875,1.0481 0.46875,2.3438 l 0,2.375 2.3125,-0.25 c 1.261887,-0.1386 2.457005,-0.4876 2.65625,-0.7813 0.2641,-0.3893 0.45465,-0.3928 0.71875,0 0.199246,0.2963 0.839764,0.6885 1.4375,0.875 0.733778,0.229 1.09375,0.7117 1.09375,1.5 0,1.1387 0.07985,1.1704 2.90625,0.875 2.488754,-0.2601 2.875,-0.2125 2.875,0.4688 0,0.4363 0.35151,0.8125 0.75,0.8125 1.056179,0 0.998922,5.9073 -0.0625,6.9687 -0.417464,0.4175 -0.537086,0.75 -0.28125,0.75 0.255836,0 0.61456,0.5546 0.78125,1.2188 0.166695,0.6641 0.520652,1.1875 0.78125,1.1875 0.260599,0 0.46875,0.256 0.46875,0.5625 0,0.3065 0.801995,1.3571 1.8125,2.3125 1.232823,1.1656 1.871099,2.2152 1.9375,3.1875 0.05443,0.797 0.330379,1.5052 0.59375,1.5937 0.263371,0.089 0.46875,0.9049 0.46875,1.8125 0,0.9077 0.23434,1.6563 0.5,1.6563 0.968642,0 0.456691,2.211 -0.71875,3.0937 -0.690751,0.5188 -1.21875,1.3792 -1.21875,2.0313 0,0.6269 -0.23434,1.1562 -0.5,1.1562 -0.26566,0 -0.46875,0.576 -0.46875,1.2813 0,0.8537 0.60048,1.8438 1.8125,3 1.066877,1.0177 1.75311,2.0984 1.65625,2.5937 -0.0909,0.4649 0.07418,0.8438 0.375,0.8438 0.300819,0 0.431822,0.1939 0.28125,0.4375 -0.150567,0.2436 0.776182,0.7915 2.0625,1.2187 2.312154,0.768 2.392941,0.7608 5.875,-0.6562 1.937177,-0.7884 4.72471,-2.2298 6.21875,-3.2188 3.255692,-2.155 7.49784,-5.547 7.75,-6.2187 0.0997,-0.2657 1.63452,-1.8982 3.4375,-3.625 3.63333,-3.4798 4.54288,-4.9884 4.96875,-8.25 0.4366,-3.3438 0.46144,-3.3677 5.84375,-11.4688 3.18647,-4.796 4.97099,-8.9805 5.8125,-13.68747 0.28772,-1.60934 0.20377,-1.76432 -0.6875,-1.53125 -0.53909,0.14084 -0.96875,0.45282 -0.96875,0.6875 0,0.23467 -0.5546,0.4375 -1.21875,0.4375 -0.80198,0 -1.20459,-0.28236 -1.25,-0.84375 -0.12622,-1.56025 -0.26051,-2.76804 -0.34375,-3.28125 -0.0455,-0.28016 -0.85144,-1.35988 -1.78125,-2.375 -1.03138,-1.12601 -1.6864,-2.32041 -1.6875,-3.09375 -9.7e-4,-0.69718 -0.43842,-2.00518 -0.96875,-2.875 -0.62885,-1.03141 -0.96875,-2.4343 -0.96875,-4.03125 0,-1.99312 -0.16471,-2.49358 -0.90625,-2.6875 -0.60607,-0.15849 -0.99804,-0.82288 -1.1875,-2 -0.15662,-0.97316 -0.74347,-2.6351 -1.28125,-3.6875 -0.53779,-1.0524 -0.96875,-2.2143 -0.96875,-2.59375 0,-0.37945 -0.31584,-0.9238 -0.6875,-1.21875 -0.88653,-0.70354 -1.45856,-2.71875 -0.78125,-2.71875 0.28357,0 0.5,0.20613 0.5,0.46875 0,0.26262 0.37884,0.925 0.84375,1.46875 l 0.84375,1 0.3125,-1.09375 c 0.29266,-1.02849 0.33014,-1.01884 0.375,0.21875 0.0265,0.73057 0.28328,1.3125 0.5625,1.3125 0.27921,0 0.83521,0.81627 1.25,1.8125 0.41479,0.99623 0.89312,1.92967 1.0625,2.0625 0.65398,0.51283 1.94604,3.70527 2.1875,5.4375 0.13924,0.99894 0.58525,2.14775 1,2.5625 0.41475,0.41475 0.75,1.13758 0.75,1.59375 0,0.45617 0.43743,1.67659 0.96875,2.71875 0.53132,1.04216 0.96512,2.77086 0.96875,3.84375 0.008,2.45857 0.45757,4.125 1.09375,4.125 0.42624,0 1.58849,-1.18349 3.25,-3.25 2.07709,-2.58339 3.1071,-10.02809 1.875,-13.5625 -0.28968,-0.83098 -0.4319,-1.78728 -0.3125,-2.125 0.4884,-1.38136 1.38933,3.62433 1.65625,9.28125 0.47112,9.98433 -1.56766,20.26687 -5.875,29.71877 -0.23704,0.5201 -0.48676,1.0342 -0.75,1.5625 4.31978,-8.6176 6.78125,-18.32897 6.78125,-28.62502 0,-10.40595 -2.49967,-20.22076 -6.90625,-28.90625 -0.12024,0.29511 0.0326,1.08661 0.375,1.90625 0.88582,2.12006 0.58237,2.08044 -0.9375,-0.15625 -0.67373,-0.99148 -1.21875,-2.12614 -1.21875,-2.5 0,-0.37386 -0.67176,-1.73599 -1.46875,-3.03125 -1.63839,-2.66273 -1.80128,-3.23154 -0.65625,-2.28125 0.43479,0.36084 1.20192,1.58593 1.6875,2.71875 0.48558,1.13282 1.10824,2.0625 1.375,2.0625 0.26677,0 0.32588,0.37043 0.15625,0.8125 -0.22974,0.59869 -0.13586,0.70284 0.375,0.40625 0.10029,-0.0582 0.15224,-0.0655 0.21875,-0.0937 -5.94787,-11.64074 -15.33264,-21.24437 -26.84375,-27.40625 -0.04588,0.0841 -0.302725,0.22008 -0.625,0.34375 -0.354217,0.13593 -0.625,-0.0272 -0.625,-0.375 0,-0.24783 0.131031,-0.41557 0.34375,-0.4375 -8.768033,-4.51411 -18.709157,-7.0625 -29.25,-7.0625 z m 29.25,7.0625 c 0.303507,0.15626 0.605589,0.30781 0.90625,0.46875 0.0045,-0.008 0.03125,-0.0244 0.03125,-0.0312 0,-0.076 -0.302038,-0.27032 -0.65625,-0.40625 -0.101837,-0.0391 -0.195416,-0.0401 -0.28125,-0.0312 z m 27.75,27.875 c 0.0277,0.0542 0.0662,0.10198 0.0937,0.15625 0.0112,-0.0275 0.0152,-0.0759 0.0312,-0.0937 0.13854,-0.15356 0.0587,-0.14061 -0.125,-0.0625 z M 38.4375,930.76843 c -0.983049,0.16396 -3.65625,1.26765 -3.65625,1.5625 0,0.11654 0.979084,-0.17713 2.1875,-0.625 1.208416,-0.44787 2.012336,-0.86047 1.78125,-0.9375 -0.05809,-0.0194 -0.172064,-0.0234 -0.3125,0 z m 41.875,0.375 c 0.464906,-0.008 0.84375,0.18018 0.84375,0.4375 0,0.25732 0.32026,0.34041 0.71875,0.1875 0.398491,-0.15292 0.71875,-0.0128 0.71875,0.28125 0,0.75139 -1.077827,0.65182 -2.1875,-0.1875 -0.848374,-0.64168 -0.85859,-0.70485 -0.09375,-0.71875 z m -45.5,0.25 c -2.453856,1.25992 -4.805409,2.69505 -7.0625,4.25 2.783777,-1.94944 5.04079,-3.07025 5.9375,-2.78125 0.70625,0.22762 0.716796,0.19927 0.125,-0.21875 -0.399232,-0.282 -0.159566,-0.63042 1,-1.25 z m -7.0625,4.25 C 10.996905,947.18492 0,966.47994 0,988.36218 c 0,16.56002 6.3044364,31.63642 16.625,43.00002 -0.533587,-0.6533 -0.951045,-1.2565 -1.21875,-1.7813 -0.530343,-1.0395 -1.133842,-1.7859 -1.34375,-1.6562 -0.209907,0.1297 -0.352307,-0.5788 -0.3125,-1.5625 0.123717,-3.0574 -0.586894,-4.5802 -3.75,-7.9688 -3.8998364,-4.1778 -4.8196256,-5.6728 -6.84375,-11.2187 -1.8668099,-5.1149 -2.67790853,-9.47119 -3,-16.15627 -0.84686733,-17.57703 5.944546,-35.1229 18.40625,-47.5625 3.077628,-3.07217 6.403723,-5.86306 9.1875,-7.8125 z m 23,-3.75 c -0.165876,0.0126 -0.2658,0.0341 -0.34375,0.0625 -0.918045,0.33389 0.83209,2.0625 2.09375,2.0625 0.778187,0 1.125,0.28546 1.125,0.96875 0,0.53669 -0.347486,0.96875 -0.75,0.96875 -0.398491,0 -0.71875,0.35396 -0.71875,0.78125 0,0.6003 0.317368,0.70716 1.34375,0.46875 0.985508,-0.22892 1.131302,-0.17627 0.59375,0.1875 -0.527529,0.35698 0.11446,0.49461 2.3125,0.5 1.660377,0.004 3,-0.22157 3,-0.46875 0,-0.24718 0.496014,-0.54112 1.09375,-0.65625 0.803396,-0.15474 0.698898,-0.20137 -0.4375,-0.25 -1.077924,-0.0461 -1.628759,-0.35387 -1.84375,-1.03125 -0.168637,-0.53132 -0.73658,-0.96875 -1.25,-0.96875 -0.513415,0 -0.9375,-0.22419 -0.9375,-0.46875 0,-0.24455 -0.699103,-0.58971 -1.5625,-0.78125 -1.34655,-0.29872 -1.453648,-0.39133 -0.625,-0.6875 0.75077,-0.26834 0.532791,-0.40876 -0.96875,-0.59375 -0.796982,-0.0982 -1.627371,-0.13143 -2.125,-0.0937 z m -3.0625,2.625 c -1.657227,0.0162 -3.25,0.92003 -3.25,1.84375 0,0.30279 -0.20309,0.5625 -0.46875,0.5625 -0.26566,0 -0.5,0.21643 -0.5,0.5 0,0.28356 0.378844,0.41215 0.84375,0.28125 0.464906,-0.1309 1.542854,-0.35748 2.40625,-0.53125 0.886076,-0.17833 1.59375,-0.64396 1.59375,-1.03125 0,-0.37738 0.203089,-0.65625 0.46875,-0.65625 0.26566,0 0.5,-0.23434 0.5,-0.5 0,-0.26566 -0.730354,-0.4772 -1.59375,-0.46875 z m 52.53125,1.59375 c 0.37511,0 0.57432,0.18486 0.4375,0.40625 -0.13682,0.22138 -0.33603,0.40625 -0.4375,0.40625 -0.10148,0 -0.30068,-0.18487 -0.4375,-0.40625 -0.136825,-0.22139 0.06238,-0.40625 0.4375,-0.40625 z M 52.75,937.92468 c -0.245207,0 -0.594271,0.13491 -1.0625,0.4375 -0.585883,0.37862 -0.535074,0.46277 0.34375,0.46875 0.597736,0.004 1.09375,-0.20309 1.09375,-0.46875 0,-0.30259 -0.129793,-0.4375 -0.375,-0.4375 z m 16.3125,5.28125 c 0.265661,0 0.5,0.20309 0.5,0.46875 0,0.26566 -0.234339,0.5 -0.5,0.5 -0.26566,0 -0.46875,-0.23434 -0.46875,-0.5 0,-0.26566 0.20309,-0.46875 0.46875,-0.46875 z m 44.125,4.53125 c 0.13055,0.003 0.15496,0.17761 0.0312,0.5 -0.32111,0.83679 -0.6875,1.00729 -0.6875,0.3125 0,-0.24998 0.23739,-0.58769 0.5,-0.75 0.0684,-0.0423 0.11273,-0.0636 0.15625,-0.0625 z m -39.28125,0.78125 c -0.265661,0 -0.5,0.20309 -0.5,0.46875 0,0.26566 0.234339,0.5 0.5,0.5 0.26566,0 0.46875,-0.23434 0.46875,-0.5 0,-0.26566 -0.20309,-0.46875 -0.46875,-0.46875 z m -0.5,2.40625 c -0.751365,0 -0.96875,0.31046 -0.96875,1.4375 0,1.6206 0.244114,1.78714 1.25,0.78125 1.005211,-1.00521 0.849613,-2.21875 -0.28125,-2.21875 z M 95.75,954.83093 c -0.172613,-0.01 -0.394196,0.13393 -0.5625,0.40625 -0.224401,0.36309 -0.762197,0.5382 -1.1875,0.375 -0.860155,-0.33007 -0.890266,-0.25471 -0.46875,0.84375 0.375697,0.97905 0.44879,0.95746 1.65625,-0.25 0.553462,-0.55346 0.888164,-1.14309 0.71875,-1.3125 -0.04235,-0.0423 -0.09871,-0.0592 -0.15625,-0.0625 z m -14.375,0.4375 c -1.877726,0 -2.293146,0.79768 -0.59375,1.125 2.01883,0.38884 2.3125,0.32017 2.3125,-0.40625 0,-0.50602 -0.538039,-0.71875 -1.71875,-0.71875 z m 40.96875,13.5625 c 0.17595,-0.009 0.58119,0.62133 1.125,1.8125 0.64797,1.41928 1.4821,2.91959 1.875,3.3125 0.79951,0.79951 0.81675,0.90573 0.40625,2.4375 -0.29362,1.09565 -0.70469,1.35782 -1.28125,0.78125 -0.17227,-0.17227 -0.16532,-0.87137 0,-1.5625 0.16537,-0.69113 0.12035,-1.1051 -0.0937,-0.90625 -0.45068,0.41861 -2.18381,-4.1932 -2.125,-5.65625 0.006,-0.15149 0.0351,-0.21588 0.0937,-0.21875 z m -12.90625,8.96875 c 0.0674,-6.9e-4 0.13471,0.27049 0.15625,0.78125 0.0365,0.86423 -0.20047,1.34375 -0.65625,1.34375 -0.38529,0 -0.95108,0.37884 -1.25,0.84375 -0.50757,0.78942 -0.50961,0.76382 -0.25,-0.0625 0.15289,-0.48663 0.28125,-1.06857 0.28125,-1.3125 0,-0.24393 0.30849,-0.4375 0.6875,-0.4375 0.37901,0 0.78476,-0.37884 0.90625,-0.84375 0.051,-0.19502 0.0845,-0.31209 0.125,-0.3125 z m -57.75,12.75 c 0.26566,0 0.46875,0.32026 0.46875,0.71875 0,0.39849 -0.20309,0.71875 -0.46875,0.71875 -0.265661,0 -0.5,-0.32026 -0.5,-0.71875 0,-0.39849 0.234339,-0.71875 0.5,-0.71875 z m 28.375,3.46875 c 0.329103,-0.0534 0.91927,-0.009 1.53125,0.125 1.91119,0.41977 2.139313,2.1875 0.28125,2.1875 -0.885533,0 -1.21875,-0.26032 -1.21875,-0.96875 0,-0.53132 -0.252561,-0.96875 -0.5625,-0.96875 -0.309933,0 -0.439361,-0.12314 -0.28125,-0.28125 0.03953,-0.0395 0.140299,-0.0759 0.25,-0.0937 z m 34.5625,2.5 c 0.0508,-0.0508 0.1104,0.0261 0.1875,0.21875 0.13953,0.34868 0.12922,0.74574 -0.0312,0.90625 -0.16051,0.1605 -0.30223,-0.11582 -0.28125,-0.625 0.0116,-0.28135 0.0742,-0.44922 0.125,-0.5 z m -3.25,0.28125 c 0.11715,0 0.1875,0.23434 0.1875,0.5 0,0.26566 -0.21866,0.46875 -0.5,0.46875 -0.28134,0 -0.38294,-0.20309 -0.21875,-0.46875 0.16419,-0.26566 0.4141,-0.5 0.53125,-0.5 z m -45.71875,0.96875 c 0.543889,0 1.215439,1.90956 0.8125,2.31247 -0.157088,0.1571 -0.28125,-0.0885 -0.28125,-0.53122 0,-0.44277 -0.23434,-0.8125 -0.5,-0.8125 -0.26566,0 -0.46875,-0.20309 -0.46875,-0.46875 0,-0.26566 0.189746,-0.5 0.4375,-0.5 z m -16.6875,5.84377 c 0.157063,-0.058 0.428959,0.043 0.96875,0.25 1.079257,0.4141 0.964138,1.1562 -0.1875,1.1562 -0.536687,0 -0.96875,-0.3162 -0.96875,-0.7187 0,-0.4065 0.03044,-0.6295 0.1875,-0.6875 z m 63.46875,5.1875 c 0.0792,-0.036 0.17145,-0 0.28125,0.125 0.45584,0.5286 0.76221,2.875 0.375,2.875 -0.24192,0 -0.57544,-0.5858 -0.75,-1.2813 -0.2147,-0.8554 -0.14373,-1.6095 0.0937,-1.7187 z m -5.34375,3.1875 c 0.10346,-0 0.125,0.1374 0.125,0.4375 0,0.3849 -0.32026,0.9505 -0.71875,1.2812 -0.54769,0.4546 -0.71875,0.4672 -0.71875,0.031 0,-0.3172 0.32026,-0.8828 0.71875,-1.2813 0.31068,-0.3106 0.49029,-0.4652 0.59375,-0.4687 z m 1.65625,0.7812 c 0.84303,0 0.90814,0.114 0.40625,0.7188 -0.33071,0.3985 -0.64687,0.7187 -0.71875,0.7187 -0.0719,0 -0.25333,-0.3202 -0.40625,-0.7187 -0.1925,-0.5017 0.0194,-0.7188 0.71875,-0.7188 z m -0.0937,1.9375 c 0.46535,-0.082 1.18029,0.1179 1.65625,0.5625 0.51981,0.4856 0.53661,0.7134 0,1.25 -0.35862,0.3586 -0.65625,1.0814 -0.65625,1.5938 0,0.5123 -0.3515,0.9062 -0.75,0.9062 -0.39849,0 -0.71468,0.293 -0.71875,0.625 -0.005,0.4422 -0.13202,0.4197 -0.4375,-0.062 -0.35219,-0.5559 -0.43518,-0.5559 -0.65625,0 -0.14401,0.3622 -0.29152,-0.3631 -0.3125,-1.625 -0.0288,-1.7343 0.13981,-2.3125 0.6875,-2.3125 0.39849,0 0.71875,-0.2031 0.71875,-0.4687 0,-0.2524 0.18954,-0.4198 0.46875,-0.4688 z m 11.75,3.875 c -0.27989,0.5211 -0.55676,1.0329 -0.84375,1.5313 0.2898,-0.5059 0.56749,-1.0168 0.84375,-1.5313 z m -0.8438,1.5313 c -1.43494,2.4916 -2.91617,4.6094 -3.8125,5.375 -0.57129,0.4879 -0.71099,0.7381 -0.3125,0.5625 0.39849,-0.1756 0.28132,0.039 -0.25,0.4687 -0.53132,0.4297 -0.95668,1.0231 -0.96875,1.3438 -0.003,0.08 -0.0311,0.1549 -0.0625,0.2187 1.98911,-2.5088 3.8059,-5.175 5.40625,-7.9687 z m -15.6875,0.8437 c 0.28134,0 0.38293,0.2344 0.21875,0.5 -0.16419,0.2657 -0.0677,0.4688 0.21875,0.4688 0.31497,0 0.40302,0.4845 0.21875,1.2187 -0.17254,0.6875 -0.0487,1.5087 0.28125,1.9063 0.32044,0.3861 0.47862,0.9704 0.375,1.2812 -0.10405,0.3122 -0.54534,0.01 -1,-0.6875 -0.90492,-1.3811 -1.12525,-4.6875 -0.3125,-4.6875 z m -20.3125,0.9688 c 0.265661,0 0.46875,0.2343 0.46875,0.5 0,0.2656 -0.203089,0.4687 -0.46875,0.4687 -0.26566,0 -0.46875,-0.2031 -0.46875,-0.4687 0,-0.2657 0.20309,-0.5 0.46875,-0.5 z m 24.5625,5.6875 c 0.0579,-0.01 0.1182,0.054 0.15625,0.1562 0.30711,0.8258 -0.76535,4.2222 -1.125,3.5625 -0.13685,-0.2509 0.005,-1.3296 0.3125,-2.375 0.24764,-0.8417 0.48246,-1.3247 0.65625,-1.3437 z m 5.90625,0.625 c -0.10682,0.085 -0.25022,0.1256 -0.40625,0.094 -0.49278,-0.1007 -1.73248,1.5364 -1.78125,2.3437 -0.009,0.1559 -1.73506,1.9454 -3.84375,4 -12.885961,12.5558 -31.777466,19.049 -50.03125,17.375 1.990616,0.1866 3.991857,0.3126 6.03125,0.3126 20.263809,0 38.30464,-9.4279 50.03125,-24.125 z m -56.0625,23.8125 c -0.472451,-0.043 -0.934732,-0.102 -1.40625,-0.1563 0.46668,0.054 0.936565,0.1123 1.40625,0.1563 z m -41,-20.3125 c 0.512712,0.5975 1.104029,1.2114 1.78125,1.875 -0.609344,-0.6094 -1.196766,-1.2416 -1.78125,-1.875 z m 1.78125,1.875 c 0.489302,0.4794 1.003314,0.9985 1.5625,1.5 -0.527255,-0.493 -1.052167,-0.9897 -1.5625,-1.5 z m 1.5625,1.5 c 4.450543,4.1609 9.501731,7.6737 15,10.4375 -4.90063,-2.5016 -10.830533,-6.6986 -15,-10.4375 z m 15,10.4375 c 5.861284,2.9462 12.217206,5.0356 18.9375,6.0625 -5.140441,-0.7971 -12.330967,-3.0166 -17.4375,-5.3438 -0.486538,-0.2217 -0.987904,-0.4573 -1.5,-0.7187 z m 65.21875,-10.0625 c 0.07,-0.017 0.12448,-5e-4 0.15625,0.031 0.12707,0.1271 -0.25809,0.492 -0.84375,0.8437 -1.017387,0.611 -1.015388,0.613 -0.21875,-0.2187 0.343934,-0.3591 0.69638,-0.6065 0.90625,-0.6563 z"
       id="path6538"
       inkscape:connector-curvature="0" />
    <path
       style="color:#000000;fill:url(#linearGradient4839);fill-opacity:1;fill-rule:nonzero;stroke:none;stroke-width:1;marker:none;visibility:visible;display:inline;overflow:visible;enable-background:accumulate"
       d="m 64,928.36218 c -33.137085,0 -60,26.86291 -60,60 0,27.76552 18.86089,51.12482 44.46875,57.96872 C 38.333874,1036.8423 32,1023.3411 32,1008.3622 c 0,-28.71883 23.281193,-52.00002 52,-52.00002 14.978876,0 28.48007,6.33387 37.96875,16.46875 C 115.12479,947.22307 91.765535,928.36218 64,928.36218 z"
       id="path7201"
       inkscape:connector-curvature="0" />
    <path
       style="fill:url(#radialGradient4882);fill-opacity:1.0;stroke:none"
       d="m 152,1036.3622 c 0.40094,0.053 1.24901,0.059 0.36634,0.01 -0.122,-0.01 -0.24417,-0.01 -0.36634,-0.01 z m 0.96875,0.062 c -1.57955,-0.1369 -3.22855,0.037 -4.6192,0.8527 -3.02585,1.4457 -4.80969,5.0118 -4.22426,8.3033 -0.16489,-0.6734 0.0757,0.711 0.20756,0.9194 0.15341,0.9412 1.00839,1.5195 1.36598,2.3265 -0.1118,0.8083 0.85245,1.2937 1.40209,1.8532 2.33432,1.8339 5.72362,2.2407 8.37646,0.859 0.29215,-0.1309 0.73028,-0.417 0.18813,-0.1202 -0.63716,0.4922 -1.55922,0.3129 -1.75659,-0.5212 -0.28305,-0.6562 0.64061,-1.1201 0.0618,-1.7875 -0.41147,-0.601 -0.92686,-1.1202 -0.62723,-1.9072 -0.14995,-0.5488 -0.91303,-0.096 -1.18252,-0.6402 -0.39342,-0.1523 -0.8599,0.213 -0.79063,-0.4752 -0.73514,-0.259 0.41755,1.0712 -0.57224,0.7116 -0.68692,0.1255 -1.43342,0.132 -1.91747,-0.4519 -0.35469,-0.5473 -0.71041,-0.9723 -0.86235,-1.3242 -0.0194,-0.5137 0.327,-1.1497 -0.0205,-1.5301 0.24618,-0.7456 0.80884,-1.242 1.35698,-1.7194 0.17067,-0.6933 0.81875,-1.0716 1.50712,-1.0681 0.7727,-0.016 1.52361,-0.3022 2.29795,-0.2241 0.7649,-9e-4 -0.1238,0.7763 0.5831,0.67 0.60241,0.01 1.36061,0.9695 1.75978,0.2431 0.79407,-0.129 1.53342,0.4664 2.32722,0.1332 0.45548,-0.5548 -0.0365,-1.2368 -0.70936,-0.9486 -0.59573,-0.073 -0.80913,-0.8296 -0.0508,-0.6891 0.3698,-0.1695 1.0229,0.1169 1.16636,0.09 -0.0273,-0.4274 -0.85525,-0.9792 -0.76462,-0.6033 0.0817,-0.7467 -0.96563,-0.1459 -0.84614,0.4552 -0.61878,-0.4356 -0.9144,0.7736 -1.29734,-0.013 -0.36273,-0.4352 -0.98272,-1.0602 -1.49792,-0.8114 -0.0348,0.4608 1.39942,0.5909 0.76225,1.0283 -0.48498,-0.3642 -1.09027,-0.987 -1.69947,-0.85 -0.70894,-0.051 -1.3039,0.2901 -1.6782,0.8562 -0.28539,0.5998 -1.42216,0.6445 -1.66941,-0.01 -0.0475,-0.565 0.19071,-1.0185 0.81195,-0.7264 0.7264,0.2701 1.13824,-0.6689 0.27822,-0.7804 0.29236,-0.1854 1.19303,-0.3477 1.70065,-0.56 0.37673,-0.036 1.00434,-0.346 0.84455,-0.4878 0.65689,0.3202 1.5362,0.4466 2.21204,0.2815 0.26968,-0.2983 1.41088,0.288 0.57451,-0.1995 -0.50907,-0.021 -1.04221,-0.8454 -1.47051,-0.1412 -0.41404,0.4639 -1.07203,-0.6145 -1.65497,-0.2582 -0.30572,-0.3981 0.94232,-0.3086 1.27242,-0.3047 0.35782,0.029 1.28242,0.2215 0.43188,-0.05 -0.51131,-0.1785 -1.04016,-0.3122 -1.57726,-0.3804 z m 2.09375,0.5625 c 0.54171,0.2474 0.40173,0.1776 0,-5e-4 l 0,5e-4 z m 0.59375,0.2812 c -0.17415,0.2161 0.36617,-0.01 0,0 z m 0.40625,13.9375 c 0.64742,-0.3365 1.15962,-0.7314 1.63817,-1.2817 0.4947,-0.4914 0.93626,-1.0256 1.25168,-1.6543 0.86157,-1.5601 1.26833,-3.4249 0.89657,-5.1846 -0.0679,-0.049 0.13345,0.9984 -0.0936,1.3446 -0.10361,0.5213 -0.81929,1.1302 -0.73789,0.2279 -0.3101,-0.8555 -0.51739,-1.7698 -1.05223,-2.5216 -0.22995,0.022 -0.5405,-0.6347 -0.30314,0.028 0.38456,0.7316 0.62161,1.5185 0.88477,2.2967 0.245,0.5382 0.45517,1.3161 0.98795,1.2743 -0.082,1.2059 -1.14147,2.022 -1.45475,3.1425 -0.13755,0.9162 -1.03626,1.4671 -1.65761,2.0738 -0.11768,0.088 -0.23739,0.1733 -0.35995,0.2543 z m 3.8125,-8.0625 c 0.14623,0.6059 -0.18677,-1.1562 -0.0214,-0.1488 0.007,0.05 0.0143,0.099 0.0214,0.1488 z m 0.0625,0.2813 c 0.009,0.3942 0.0922,1.2036 0.0357,0.3486 -0.01,-0.1164 -0.0222,-0.2326 -0.0357,-0.3486 z m -1.75,6.0312 c -0.28982,0.2071 -0.65184,0.7399 -0.19228,0.2173 0.0661,-0.071 0.13069,-0.1427 0.19228,-0.2173 z m -14.03125,-3.5625 c 0.0998,0.4084 0.0898,0.3698 0,0 z m -0.125,-2.0312 c 0.013,-0.2716 0.003,-0.06 0,0 z m 4.78125,-6.6875 c -0.36671,0.2269 -0.55556,0.1341 -0.0376,0.01 l 0.0376,-0.01 0,10e-5 0,-10e-5 z m 5.21875,0.031 c -0.0515,0.2756 0.60007,0.1336 0,0 z m -3.71875,0.094 c 0.42043,0.03 0.99944,0.4161 1.16959,0.6686 -0.37366,0.1592 -1.14728,0.072 -0.80526,-0.3408 -0.11347,-0.078 -0.4877,-0.1127 -0.36433,-0.3278 z m 5.5,0.031 c 0.58935,0.4401 1.18561,0.8717 1.77504,1.3075 -0.52797,-0.5148 -1.12763,-0.9554 -1.77504,-1.3075 z m -5.84375,0.3125 c 0.48784,0.2938 -1.07514,0.5076 -0.23833,0.05 0.0743,-0.04 0.15749,-0.04 0.23833,-0.05 z m 0.625,0.4062 c 0.22653,0.2388 -0.44391,0.043 0,0 z m 2.03125,0.6563 c -0.2498,0.1546 0.23139,0.1287 0,0 z m 5.125,0.125 c 0.27714,0.2105 0.46671,0.7698 0.68397,0.7871 -0.21676,-0.2717 -0.44177,-0.5377 -0.68397,-0.7871 z m -4.5,0.5625 c 0.24491,0.126 -0.23828,0.1113 0,0 z m -0.0625,0.2812 c 0.39084,0.3795 -0.52814,0.4141 0,0 z m 5.4375,0.2188 c 0.13927,0.3223 0.24959,0.3768 -0.068,0.096 0.18833,0.274 0.52694,1.2448 0.63282,1.0203 -0.11567,-0.4087 -0.31757,-0.764 -0.56482,-1.1163 z m 0.5,0.875 c 0.18093,0.3443 0.48267,1.0889 0.15145,0.3108 -0.0487,-0.1045 -0.0995,-0.2079 -0.15145,-0.3108 z m -3.15625,-0.5938 c -0.016,0.432 -0.61273,0.1346 0,0 z m -1.78125,0.062 c 0.76248,0.2012 -0.68427,0.1046 0,0 z m 5.09375,1.7188 c 0.0401,0.3004 0.52468,1.4682 0.39534,0.5991 -0.10028,-0.2197 -0.27721,-0.3904 -0.39534,-0.5991 z m -1.59375,1.0937 c -0.59489,0.4479 0.0417,0.5276 0,0 z m -7.21875,1.5938 c -0.26955,0.2182 0.26367,0.244 0,0 z M 154,1045.0809 c 0.003,0.5302 0.88833,0.06 0,0 z m 4.34375,0.3125 c -0.12831,0.1352 0.0946,0.1803 0,0 z m -0.40625,0.031 c -0.2396,0.044 0.0445,0.2192 0,0 z m -5.71875,0.125 c -0.1003,0.2644 0.31285,0.2663 0,0 z m -2.09375,0.7188 c -0.10708,0.3697 0.47179,-0.013 0,0 z m 7.9375,0.6562 c -0.18202,0.4773 0.31933,0.4305 0,0 z m -0.6875,0.375 c -0.36134,0.2141 0.0777,0.347 0,0 z m 0.125,0.125 c -0.0518,0.4081 0.41576,-0.1323 0,0 z m 0.0937,0.2188 c -0.55614,0.1551 -0.0483,1.0919 0.14773,0.3524 0.13188,-0.1495 0.0638,-0.3628 -0.14773,-0.3524 z M 157,1048.4247 c -0.27476,0.3255 0.34157,0.9992 0.0625,0.2812 0.0816,-0.1201 -0.12108,-0.1657 -0.0625,-0.2812 z m -2.5625,0.125 c -0.2505,0.155 0.23148,0.1289 0,0 z m 3.09375,0.75 c -0.2961,0.2898 0.007,0.7562 0,0 z"
       id="path4847"
       inkscape:connector-curvature="0" />
  </g>
</svg>
