<?xml version="1.0" encoding="UTF-8" standalone="no"?>
<!-- Created with Inkscape (http://www.inkscape.org/) -->

<svg
   xmlns:dc="http://purl.org/dc/elements/1.1/"
   xmlns:cc="http://creativecommons.org/ns#"
   xmlns:rdf="http://www.w3.org/1999/02/22-rdf-syntax-ns#"
   xmlns:svg="http://www.w3.org/2000/svg"
   xmlns="http://www.w3.org/2000/svg"
   xmlns:xlink="http://www.w3.org/1999/xlink"
   xmlns:sodipodi="http://sodipodi.sourceforge.net/DTD/sodipodi-0.dtd"
   xmlns:inkscape="http://www.inkscape.org/namespaces/inkscape"
   sodipodi:docname="system-lock-screen.svg"
   inkscape:version="0.48.4 r9939"
   version="1.1"
   id="svg2"
   height="128"
   width="128">
  <sodipodi:namedview
     id="base"
     pagecolor="#ffffff"
     bordercolor="#666666"
     borderopacity="1.0"
     inkscape:pageopacity="0.0"
     inkscape:pageshadow="2"
     inkscape:zoom="5.1200002"
     inkscape:cx="98.253085"
     inkscape:cy="37.111904"
     inkscape:document-units="px"
     inkscape:current-layer="layer1"
     showgrid="true"
     showguides="true"
     inkscape:guide-bbox="true"
     inkscape:window-width="1221"
     inkscape:window-height="1000"
     inkscape:window-x="59"
     inkscape:window-y="24"
     inkscape:window-maximized="1">
    <inkscape:grid
       snapvisiblegridlinesonly="true"
       enabled="true"
       visible="true"
       empspacing="4"
       id="grid2985"
       type="xygrid" />
  </sodipodi:namedview>
  <defs
     id="defs4">
    <linearGradient
       id="linearGradient7110">
      <stop
         style="stop-color:#5a5a5a;stop-opacity:1;"
         offset="0"
         id="stop7112" />
      <stop
         style="stop-color:#202020;stop-opacity:1;"
         offset="1"
         id="stop7114" />
    </linearGradient>
    <linearGradient
       id="linearGradient4216-4-8-2">
      <stop
         id="stop4218-8-0-7"
         offset="0"
         style="stop-color:#494949;stop-opacity:1;" />
      <stop
         id="stop4220-1-6-4"
         offset="1"
         style="stop-color:#0f0f0f;stop-opacity:1;" />
    </linearGradient>
    <linearGradient
       id="linearGradient6964-4">
      <stop
         style="stop-color:#ffffff;stop-opacity:1;"
         offset="0"
         id="stop6966-4" />
      <stop
         style="stop-color:#cacaca;stop-opacity:1;"
         offset="1"
         id="stop6970-3" />
    </linearGradient>
    <linearGradient
       id="linearGradient8794-33">
      <stop
         style="stop-color:#ffffff;stop-opacity:1;"
         offset="0"
         id="stop8796-9" />
      <stop
         style="stop-color:#cacaca;stop-opacity:1;"
         offset="1"
         id="stop8798-6" />
    </linearGradient>
    <radialGradient
       r="32"
       fy="46.695652"
       fx="84"
       cy="46.695652"
       cx="84"
       gradientTransform="matrix(0.78722727,0,0,1.1316392,13.617455,-8.16161)"
       gradientUnits="userSpaceOnUse"
       id="radialGradient5944"
       xlink:href="#linearGradient8794-33"
       inkscape:collect="always" />
    <radialGradient
       inkscape:collect="always"
       xlink:href="#linearGradient8794-33"
       id="radialGradient10267"
       gradientUnits="userSpaceOnUse"
       gradientTransform="matrix(0.78722727,0,0,1.1316392,13.617455,-8.16161)"
       cx="84"
       cy="46.695652"
       fx="84"
       fy="46.695652"
       r="32" />
    <radialGradient
       inkscape:collect="always"
       xlink:href="#linearGradient6964-4"
       id="radialGradient10297"
       cx="154"
       cy="118.5"
       fx="154"
       fy="118.5"
       r="6"
       gradientTransform="matrix(1.6666671,-2.1327557e-6,2.1327544e-6,1.6666661,-102.66697,-79.499605)"
       gradientUnits="userSpaceOnUse" />
    <radialGradient
       inkscape:collect="always"
       xlink:href="#linearGradient8794-33"
       id="radialGradient3924"
       gradientUnits="userSpaceOnUse"
       gradientTransform="matrix(5.625,0,0,5.625,-793.25,304.61216)"
       cx="154"
       cy="118"
       fx="154"
       fy="118"
       r="8" />
    <radialGradient
       inkscape:collect="always"
       xlink:href="#linearGradient8794-33"
       id="radialGradient3944"
       gradientUnits="userSpaceOnUse"
       gradientTransform="matrix(5.625,0,0,5.625,-793.25,304.61216)"
       cx="154"
       cy="118"
       fx="154"
       fy="118"
       r="8" />
    <radialGradient
       inkscape:collect="always"
       xlink:href="#linearGradient8794-33"
       id="radialGradient4305"
       cx="154.00002"
       cy="1046.1122"
       fx="154.00002"
       fy="1046.1122"
       r="7"
       gradientTransform="matrix(-1.6312602e-5,1.4285802,-1.4285787,-1.6312585e-5,1648.4561,826.37783)"
       gradientUnits="userSpaceOnUse" />
    <radialGradient
       inkscape:collect="always"
       xlink:href="#linearGradient8794-33"
       id="radialGradient4317"
       gradientUnits="userSpaceOnUse"
       gradientTransform="matrix(-1.6312602e-5,1.4285802,-1.4285787,-1.6312585e-5,1648.4561,826.37783)"
       cx="154.00002"
       cy="1046.1122"
       fx="154.00002"
       fy="1046.1122"
       r="7" />
    <filter
       inkscape:collect="always"
       id="filter4325"
       x="-0.1125"
       width="1.225"
       y="-0.12857143"
       height="1.2571429">
      <feGaussianBlur
         inkscape:collect="always"
         stdDeviation="0.75"
         id="feGaussianBlur4327" />
    </filter>
    <radialGradient
       inkscape:collect="always"
       xlink:href="#linearGradient8794-33"
       id="radialGradient4355"
       gradientUnits="userSpaceOnUse"
       gradientTransform="matrix(-1.6312602e-5,1.4285802,-1.4285787,-1.6312585e-5,1648.4561,826.37783)"
       cx="154.00002"
       cy="1046.1122"
       fx="154.00002"
       fy="1046.1122"
       r="7" />
    <radialGradient
       inkscape:collect="always"
       xlink:href="#linearGradient8794-33"
       id="radialGradient4896"
       gradientUnits="userSpaceOnUse"
       gradientTransform="matrix(1.4285714,1.0571428e-6,-1.0571428e-6,1.4285714,-65.999879,871.79059)"
       cx="154"
       cy="118"
       fx="154"
       fy="118"
       r="7" />
    <radialGradient
       inkscape:collect="always"
       xlink:href="#linearGradient4040"
       id="radialGradient4060"
       cx="64"
       cy="103"
       fx="64"
       fy="103"
       r="32.5"
       gradientTransform="matrix(1,0,0,0.61538464,0,44.615383)"
       gradientUnits="userSpaceOnUse" />
    <linearGradient
       id="linearGradient4040">
      <stop
         style="stop-color:#000000;stop-opacity:1;"
         offset="0"
         id="stop4042" />
      <stop
         id="stop4048"
         offset="0.5"
         style="stop-color:#4c4c4c;stop-opacity:1;" />
      <stop
         style="stop-color:#000000;stop-opacity:1;"
         offset="1"
         id="stop4044" />
    </linearGradient>
    <linearGradient
       inkscape:collect="always"
       xlink:href="#linearGradient4270-9-9"
       id="linearGradient4068"
       x1="31.5"
       y1="116"
       x2="96.5"
       y2="116"
       gradientUnits="userSpaceOnUse" />
    <linearGradient
       id="linearGradient4270-9-9">
      <stop
         id="stop4272-5-10"
         offset="0"
         style="stop-color:#f9f9f9;stop-opacity:0.50196081;" />
      <stop
         style="stop-color:#7d7d7d;stop-opacity:0.50196081;"
         offset="0.25"
         id="stop5033-8" />
      <stop
         style="stop-color:#808080;stop-opacity:0.50196081;"
         offset="0.5"
         id="stop4278-7-50" />
      <stop
         id="stop5035-4"
         offset="0.75"
         style="stop-color:#ffffff;stop-opacity:0.50196081;" />
      <stop
         id="stop4274-4-85"
         offset="1"
         style="stop-color:#000000;stop-opacity:0.50196081;" />
    </linearGradient>
    <linearGradient
       id="linearGradient3151">
      <stop
         style="stop-color:#000000;stop-opacity:1;"
         offset="0"
         id="stop3153" />
      <stop
         id="stop3155"
         offset="0.5"
         style="stop-color:#4c4c4c;stop-opacity:1;" />
      <stop
         style="stop-color:#000000;stop-opacity:1;"
         offset="1"
         id="stop3157" />
    </linearGradient>
    <linearGradient
       id="linearGradient3160">
      <stop
         id="stop3162"
         offset="0"
         style="stop-color:#f9f9f9;stop-opacity:0.50196081;" />
      <stop
         style="stop-color:#7d7d7d;stop-opacity:0.50196081;"
         offset="0.25"
         id="stop3164" />
      <stop
         style="stop-color:#808080;stop-opacity:0.50196081;"
         offset="0.5"
         id="stop3166" />
      <stop
         id="stop3168"
         offset="0.75"
         style="stop-color:#ffffff;stop-opacity:0.50196081;" />
      <stop
         id="stop3170"
         offset="1"
         style="stop-color:#000000;stop-opacity:0.50196081;" />
    </linearGradient>
    <linearGradient
       id="linearGradient3813">
      <stop
         id="stop3815"
         offset="0"
         style="stop-color:#ff00bf;stop-opacity:1;" />
      <stop
         id="stop3817"
         offset="1"
         style="stop-color:#1d0031;stop-opacity:1;" />
    </linearGradient>
    <linearGradient
       id="linearGradient4270-9-28">
      <stop
         id="stop4272-5-33"
         offset="0"
         style="stop-color:#f9f9f9;stop-opacity:0.50196081;" />
      <stop
         style="stop-color:#7d7d7d;stop-opacity:0.50196081;"
         offset="0.25"
         id="stop5033-81" />
      <stop
         style="stop-color:#808080;stop-opacity:0.50196081;"
         offset="0.5"
         id="stop4278-7-4" />
      <stop
         id="stop5035-3"
         offset="0.75"
         style="stop-color:#ffffff;stop-opacity:0.50196081;" />
      <stop
         id="stop4274-4-83"
         offset="1"
         style="stop-color:#000000;stop-opacity:0.50196081;" />
    </linearGradient>
    <linearGradient
       id="linearGradient3891">
      <stop
         style="stop-color:#ffffff;stop-opacity:1;"
         offset="0"
         id="stop3893" />
      <stop
         style="stop-color:#ffffff;stop-opacity:0;"
         offset="1"
         id="stop3895" />
    </linearGradient>
    <radialGradient
       inkscape:collect="always"
       xlink:href="#linearGradient3891"
       id="radialGradient5084"
       gradientUnits="userSpaceOnUse"
       gradientTransform="matrix(2.125,0,0,1.375,-45.665246,902.19826)"
       cx="32.783646"
       cy="77.210121"
       fx="32.783646"
       fy="77.210121"
       r="64" />
    <radialGradient
       inkscape:collect="always"
       xlink:href="#linearGradient3813"
       id="radialGradient5101"
       gradientUnits="userSpaceOnUse"
       gradientTransform="matrix(1.2000001,-8.8182638e-8,6.858649e-8,0.93333333,-17.600011,929.16219)"
       cx="88"
       cy="42"
       fx="88"
       fy="42"
       r="60" />
    <linearGradient
       inkscape:collect="always"
       xlink:href="#linearGradient4270-9-28"
       id="linearGradient5103"
       gradientUnits="userSpaceOnUse"
       gradientTransform="translate(0,920.36218)"
       x1="-8"
       y1="0"
       x2="136"
       y2="120" />
    <linearGradient
       inkscape:collect="always"
       xlink:href="#linearGradient4040"
       id="linearGradient5107"
       gradientUnits="userSpaceOnUse"
       gradientTransform="translate(0,920.36218)"
       x1="47.5"
       y1="106"
       x2="80.5"
       y2="106" />
    <linearGradient
       inkscape:collect="always"
       xlink:href="#linearGradient4270-9-9"
       id="linearGradient5109"
       gradientUnits="userSpaceOnUse"
       gradientTransform="translate(0,920.36218)"
       x1="44"
       y1="92"
       x2="84"
       y2="120" />
    <radialGradient
       inkscape:collect="always"
       xlink:href="#linearGradient4040"
       id="radialGradient5201"
       gradientUnits="userSpaceOnUse"
       gradientTransform="matrix(1,0,0,0.61538464,0,44.615383)"
       cx="64"
       cy="103"
       fx="64"
       fy="103"
       r="32.5" />
    <linearGradient
       inkscape:collect="always"
       xlink:href="#linearGradient4270-9-9"
       id="linearGradient5203"
       gradientUnits="userSpaceOnUse"
       x1="31.5"
       y1="116"
       x2="96.5"
       y2="116" />
    <radialGradient
       inkscape:collect="always"
       xlink:href="#linearGradient3891"
       id="radialGradient5224"
       gradientUnits="userSpaceOnUse"
       gradientTransform="matrix(0.53124658,0,0,0.34374779,132.58386,981.83275)"
       cx="32.783646"
       cy="77.210121"
       fx="32.783646"
       fy="77.210121"
       r="64" />
    <radialGradient
       inkscape:collect="always"
       xlink:href="#linearGradient3813"
       id="radialGradient5241"
       gradientUnits="userSpaceOnUse"
       gradientTransform="matrix(0.29999809,-2.2045518e-8,1.7146512e-8,0.23333183,139.60013,988.57369)"
       cx="88"
       cy="42"
       fx="88"
       fy="42"
       r="60" />
    <linearGradient
       inkscape:collect="always"
       xlink:href="#linearGradient4270-9-28"
       id="linearGradient5243"
       gradientUnits="userSpaceOnUse"
       gradientTransform="matrix(0.24999839,0,0,0.24999839,144.0001,986.3737)"
       x1="-8"
       y1="0"
       x2="136"
       y2="120" />
    <linearGradient
       inkscape:collect="always"
       xlink:href="#linearGradient4040"
       id="linearGradient5247"
       gradientUnits="userSpaceOnUse"
       gradientTransform="matrix(0.24999839,0,0,0.24999839,144.0001,986.3737)"
       x1="47.5"
       y1="106"
       x2="80.5"
       y2="106" />
    <linearGradient
       inkscape:collect="always"
       xlink:href="#linearGradient4270-9-9"
       id="linearGradient5249"
       gradientUnits="userSpaceOnUse"
       gradientTransform="matrix(0.24999839,0,0,0.24999839,144.0001,986.3737)"
       x1="44"
       y1="92"
       x2="84"
       y2="120" />
    <radialGradient
       inkscape:collect="always"
       xlink:href="#linearGradient3813"
       id="radialGradient5409"
       cx="155"
       cy="117.16666"
       fx="155"
       fy="117.16666"
       r="7"
       gradientTransform="matrix(1.2857144,-1.2928866e-6,1.1492317e-6,1.1428564,-44.285857,-15.904462)"
       gradientUnits="userSpaceOnUse" />
    <radialGradient
       inkscape:collect="always"
       xlink:href="#linearGradient8794-33"
       id="radialGradient5434"
       cx="153"
       cy="119.92857"
       fx="153"
       fy="119.92857"
       r="3"
       gradientTransform="matrix(1.6666673,-4.0047412e-6,4.0047451e-6,1.6666689,-102.00057,-79.880601)"
       gradientUnits="userSpaceOnUse" />
    <linearGradient
       inkscape:collect="always"
       xlink:href="#linearGradient3151"
       id="linearGradient5444"
       x1="152"
       y1="112"
       x2="152"
       y2="128"
       gradientUnits="userSpaceOnUse" />
  </defs>
  <metadata
     id="metadata7">
    <rdf:RDF>
      <cc:Work
         rdf:about="">
        <dc:format>image/svg+xml</dc:format>
        <dc:type
           rdf:resource="http://purl.org/dc/dcmitype/StillImage" />
        <dc:title></dc:title>
      </cc:Work>
    </rdf:RDF>
  </metadata>
  <g
     transform="translate(0,-924.36218)"
     id="layer1"
     inkscape:groupmode="layer"
     inkscape:label="Layer 1">
    <text
       xml:space="preserve"
       style="font-size:24px;font-style:normal;font-weight:normal;line-height:125%;letter-spacing:0px;word-spacing:0px;fill:#000000;fill-opacity:1;stroke:none;font-family:Sans"
       x="-56"
       y="948.36218"
       id="text5893"
       sodipodi:linespacing="125%"><tspan
         sodipodi:role="line"
         id="tspan5895"
         x="-56"
         y="948.36218">128</tspan></text>
    <text
       sodipodi:linespacing="125%"
       id="text5901"
       y="1000.3622"
       x="184"
       style="font-size:16px;font-style:normal;font-weight:normal;line-height:125%;letter-spacing:0px;word-spacing:0px;fill:#000000;fill-opacity:1;stroke:none;font-family:Sans"
       xml:space="preserve"><tspan
         y="1000.3622"
         x="184"
         id="tspan5903"
         sodipodi:role="line">31 - 17</tspan></text>
    <text
       xml:space="preserve"
       style="font-size:16px;font-style:normal;font-weight:normal;line-height:125%;letter-spacing:0px;word-spacing:0px;fill:#000000;fill-opacity:1;stroke:none;font-family:Sans"
       x="172"
       y="1048.3622"
       id="text5905"
       sodipodi:linespacing="125%"><tspan
         sodipodi:role="line"
         id="tspan5907"
         x="172"
         y="1048.3622">16</tspan></text>
    <rect
       style="fill:none;stroke:#000000;stroke-width:1;stroke-linecap:round;stroke-linejoin:round;stroke-miterlimit:4;stroke-opacity:1;stroke-dasharray:none;stroke-dashoffset:0"
       id="rect5919"
       width="40"
       height="40"
       x="140"
       y="60"
       transform="translate(0,924.36218)"
       rx="4.5902016e-07" />
    <rect
       style="fill:none;stroke:#000000;stroke-width:1;stroke-linecap:round;stroke-linejoin:round;stroke-miterlimit:4;stroke-opacity:1;stroke-dasharray:none;stroke-dashoffset:0"
       id="rect5921"
       width="24"
       height="24"
       x="140"
       y="1032.3622"
       rx="4.5902016e-07" />
    <rect
       style="fill:#b3b3b3;fill-opacity:1;stroke:none"
       id="rect6935"
       width="32"
       height="4"
       x="144"
       y="56"
       transform="translate(0,924.36218)"
       rx="4.5902016e-07" />
    <rect
       style="fill:#b3b3b3;fill-opacity:1;stroke:none"
       id="rect6937"
       width="4"
       height="32"
       x="136"
       y="64"
       transform="translate(0,924.36218)"
       rx="4.5902016e-07" />
    <rect
       style="fill:#b3b3b3;fill-opacity:1;stroke:none"
       id="rect6939"
       width="16"
       height="4"
       x="144"
       y="104"
       rx="4.5902016e-07"
       transform="translate(0,924.36218)" />
    <rect
       style="fill:#b3b3b3;fill-opacity:1;stroke:none"
       id="rect6941"
       width="4"
       height="16"
       x="136"
       y="112"
       transform="translate(0,924.36218)"
       rx="4.5902016e-07" />
    <g
       id="g5116">
      <path
         transform="translate(0,920.36218)"
         d="m 100,116 a 36,8 0 1 1 -72,0 36,8 0 1 1 72,0 z"
         sodipodi:ry="8"
         sodipodi:rx="36"
         sodipodi:cy="116"
         sodipodi:cx="64"
         id="path4050"
         style="fill:url(#radialGradient4060);fill-opacity:1;stroke:url(#linearGradient4068);stroke-width:1;stroke-linecap:round;stroke-linejoin:round;stroke-miterlimit:4;stroke-opacity:1;stroke-dasharray:none;stroke-dashoffset:0"
         sodipodi:type="arc" />
      <rect
         y="1016.3622"
         x="48"
         height="20"
         width="32"
         id="rect4022"
         style="fill:url(#linearGradient5107);fill-opacity:1;stroke:url(#linearGradient5109);stroke-width:1;stroke-linecap:round;stroke-linejoin:round;stroke-miterlimit:4;stroke-opacity:1;stroke-dasharray:none;stroke-dashoffset:0" />
      <rect
         ry="4"
         rx="4"
         y="936.36218"
         x="0"
         height="88"
         width="128"
         id="rect3094"
         style="fill:#000000;fill-opacity:1;stroke:none" />
      <rect
         ry="4"
         rx="4"
         y="940.36218"
         x="4"
         height="80"
         width="120"
         id="rect3096"
         style="fill:url(#radialGradient5101);fill-opacity:1;stroke:url(#linearGradient5103);stroke-width:1;stroke-miterlimit:4;stroke-dasharray:none" />
      <path
         id="path4119"
         d="m 7.28125,939.86218 c -2.09481,0 -3.78125,1.50525 -3.78125,3.375 l 0,74.25002 c 0,1.8697 1.68644,3.375 3.78125,3.375 l 67.20581,0 c 16.52692,-13.4365 27.32544,-35.63167 27.32544,-60.75001 0,-7.02415 -0.87396,-13.80958 -2.4519,-20.25001 l -92.07935,0 z"
         style="opacity:0.25;fill:#ffffff;fill-opacity:1;stroke:none"
         inkscape:connector-curvature="0" />
      <path
         id="path4103"
         d="m 124.5,970.50086 c -4.89948,7.29295 -12.34508,13.86938 -21.74219,19.3535 -17.60673,10.27524 -42.02659,16.66404 -69.00781,16.66404 -10.5668,0 -20.72431,-0.9854 -30.25,-2.7949 l 0,1.7138 c 9.54187,1.7879 19.70059,2.7686 30.25,2.7686 27.31527,0 52.06636,-6.4637 70.04175,-16.95412 8.61058,-5.02503 15.68365,-10.98317 20.70825,-17.61327 l 0,-3.13765 z"
         style="font-size:medium;font-style:normal;font-variant:normal;font-weight:normal;font-stretch:normal;text-indent:0;text-align:start;text-decoration:none;line-height:normal;letter-spacing:normal;word-spacing:normal;text-transform:none;direction:ltr;block-progression:tb;writing-mode:lr-tb;text-anchor:start;baseline-shift:baseline;opacity:0.5;color:#000000;fill:#ffffff;fill-opacity:1;stroke:none;stroke-width:2;marker:none;visibility:visible;display:inline;overflow:visible;enable-background:accumulate;font-family:Sans;-inkscape-font-specification:Sans"
         inkscape:connector-curvature="0" />
      <path
         id="path4105"
         d="m 124.5,970.50086 c -4.89948,7.29295 -12.34508,13.86938 -21.74219,19.3535 -17.60673,10.27524 -42.02659,16.66404 -69.00781,16.66404 -10.5668,0 -20.72431,-0.9854 -30.25,-2.7949 l 0,1.7138 c 9.54187,1.7879 19.70059,2.7686 30.25,2.7686 27.31527,0 52.06636,-6.4637 70.04175,-16.95412 8.61058,-5.02503 15.68365,-10.98317 20.70825,-17.61327 l 0,-3.13765 z"
         style="font-size:medium;font-style:normal;font-variant:normal;font-weight:normal;font-stretch:normal;text-indent:0;text-align:start;text-decoration:none;line-height:normal;letter-spacing:normal;word-spacing:normal;text-transform:none;direction:ltr;block-progression:tb;writing-mode:lr-tb;text-anchor:start;baseline-shift:baseline;opacity:0.5;color:#000000;fill:#ffffff;fill-opacity:1;stroke:none;stroke-width:2;marker:none;visibility:visible;display:inline;overflow:visible;enable-background:accumulate;font-family:Sans;-inkscape-font-specification:Sans"
         inkscape:connector-curvature="0" />
      <path
         id="path4107"
         d="m 124.5,969.76258 c -4.83957,6.24636 -11.59841,11.90024 -19.85156,16.71678 -17.60673,10.27524 -42.02659,16.66404 -69.00782,16.66404 -11.26731,0 -22.07628,-1.118 -32.14062,-3.164 l 0,1.7138 c 10.0858,2.0225 20.89071,3.1377 32.14062,3.1377 27.31527,0 52.06636,-6.4637 70.04175,-16.95412 7.59354,-4.43154 13.96749,-9.58811 18.81763,-15.29296 l 0,-2.82124 z"
         style="font-size:medium;font-style:normal;font-variant:normal;font-weight:normal;font-stretch:normal;text-indent:0;text-align:start;text-decoration:none;line-height:normal;letter-spacing:normal;word-spacing:normal;text-transform:none;direction:ltr;block-progression:tb;writing-mode:lr-tb;text-anchor:start;baseline-shift:baseline;opacity:0.5;color:#000000;fill:#ffffff;fill-opacity:1;stroke:none;stroke-width:2;marker:none;visibility:visible;display:inline;overflow:visible;enable-background:accumulate;font-family:Sans;-inkscape-font-specification:Sans"
         inkscape:connector-curvature="0" />
      <path
         id="path4109"
         d="m 124.5,968.65515 c -4.64966,5.3444 -10.72636,10.22709 -17.96094,14.44922 -17.60673,10.27526 -42.02659,16.66403 -69.00781,16.66403 -11.9732,0 -23.43839,-1.2621 -34.03125,-3.5596 l 0,1.7402 c 10.61615,2.2704 22.08082,3.5069 34.03125,3.5069 27.31527,0 52.06636,-6.46369 70.04175,-16.95412 6.64402,-3.87745 12.35067,-8.31346 16.927,-13.18358 l 0,-2.66305 z"
         style="font-size:medium;font-style:normal;font-variant:normal;font-weight:normal;font-stretch:normal;text-indent:0;text-align:start;text-decoration:none;line-height:normal;letter-spacing:normal;word-spacing:normal;text-transform:none;direction:ltr;block-progression:tb;writing-mode:lr-tb;text-anchor:start;baseline-shift:baseline;opacity:0.5;color:#000000;fill:#ffffff;fill-opacity:1;stroke:none;stroke-width:2;marker:none;visibility:visible;display:inline;overflow:visible;enable-background:accumulate;font-family:Sans;-inkscape-font-specification:Sans"
         inkscape:connector-curvature="0" />
      <path
         id="path4111"
         d="m 124.5,965.86023 c -4.00384,3.81071 -8.7671,7.33539 -14.17969,10.49414 -17.60673,10.27527 -42.02659,16.66405 -69.00781,16.66405 -13.41142,0 -26.18894,-1.58 -37.8125,-4.42968 l 0,1.74023 c 11.66051,2.81872 24.424,4.37695 37.8125,4.37695 27.31527,0 52.06636,-6.46371 70.04175,-16.95413 4.91674,-2.86934 9.32896,-6.03492 13.14575,-9.46578 l 0,-2.42578 z"
         style="font-size:medium;font-style:normal;font-variant:normal;font-weight:normal;font-stretch:normal;text-indent:0;text-align:start;text-decoration:none;line-height:normal;letter-spacing:normal;word-spacing:normal;text-transform:none;direction:ltr;block-progression:tb;writing-mode:lr-tb;text-anchor:start;baseline-shift:baseline;opacity:0.5;color:#000000;fill:#ffffff;fill-opacity:1;stroke:none;stroke-width:2;marker:none;visibility:visible;display:inline;overflow:visible;enable-background:accumulate;font-family:Sans;-inkscape-font-specification:Sans"
         inkscape:connector-curvature="0" />
      <path
         id="path4113"
         d="m 124.5,963.90906 c -2.6221,2.00053 -5.45257,3.9123 -8.50781,5.69531 -17.60673,10.27527 -42.02659,16.66406 -69.00782,16.66406 -15.63652,0 -30.39593,-2.1546 -43.48437,-5.95898 l 0,1.79296 c 13.13544,3.75722 27.89596,5.85352 43.48437,5.85352 27.31527,0 52.06636,-6.46372 70.04175,-16.95414 2.65004,-1.54651 5.13103,-3.18777 7.47388,-4.90429 l 0,-2.18844 z"
         style="font-size:medium;font-style:normal;font-variant:normal;font-weight:normal;font-stretch:normal;text-indent:0;text-align:start;text-decoration:none;line-height:normal;letter-spacing:normal;word-spacing:normal;text-transform:none;direction:ltr;block-progression:tb;writing-mode:lr-tb;text-anchor:start;baseline-shift:baseline;opacity:0.5;color:#000000;fill:#ffffff;fill-opacity:1;stroke:none;stroke-width:2;marker:none;visibility:visible;display:inline;overflow:visible;enable-background:accumulate;font-family:Sans;-inkscape-font-specification:Sans"
         inkscape:connector-curvature="0" />
      <path
         id="rect4129"
         d="m 7.28125,939.86218 c -2.09481,0 -3.78125,1.50525 -3.78125,3.375 l 0,54.47462 c 7.0993,1.8674 14.72833,2.9004 22.6875,2.9004 37.58988,0 68.0625,-22.66559 68.0625,-50.62502 0,-3.46663 -0.46648,-6.8542 -1.35889,-10.125 l -85.60986,0 z"
         style="opacity:0.25;fill:#ffffff;fill-opacity:1;stroke:none"
         inkscape:connector-curvature="0" />
      <path
         inkscape:connector-curvature="0"
         id="path4217"
         d="m 116.9375,980.36216 c 0,5.59188 -5.07877,10.125 -11.34375,10.125 -6.26498,0 -11.34375,-4.53312 -11.34375,-10.125 0,-5.59188 5.07877,-10.12499 11.34375,-10.12499 6.26498,0 11.34375,4.53311 11.34375,10.12499 z"
         style="opacity:0.5;fill:#ffffff;fill-opacity:1;stroke:none" />
      <path
         inkscape:connector-curvature="0"
         id="path4219"
         d="m 116.9375,958.42467 c 0,2.79594 -2.53938,5.0625 -5.67188,5.0625 -3.13249,0 -5.67187,-2.26656 -5.67187,-5.0625 0,-2.79594 2.53938,-5.0625 5.67187,-5.0625 3.1325,0 5.67188,2.26656 5.67188,5.0625 z"
         style="opacity:0.25;fill:#ffffff;fill-opacity:1;stroke:none" />
      <path
         inkscape:connector-curvature="0"
         id="path4221"
         d="m 113.15625,953.36217 c 0,3.72792 -3.38584,6.75 -7.5625,6.75 -4.17666,0 -7.5625,-3.02208 -7.5625,-6.75 0,-3.72792 3.38584,-6.74999 7.5625,-6.74999 4.17666,0 7.5625,3.02207 7.5625,6.74999 z"
         style="opacity:0.25;fill:#ffffff;fill-opacity:1;stroke:none" />
      <path
         inkscape:connector-curvature="0"
         id="path4223"
         d="m 48.875,975.29967 c 0,4.6599 -4.23231,8.43749 -9.45313,8.43749 -5.22081,0 -9.45312,-3.77759 -9.45312,-8.43749 0,-4.6599 4.23231,-8.4375 9.45312,-8.4375 5.22082,0 9.45313,3.7776 9.45313,8.4375 z"
         style="opacity:0.25;fill:#ffffff;fill-opacity:1;stroke:none" />
      <path
         inkscape:connector-curvature="0"
         id="path4225"
         d="m 45.09375,958.42467 c 0,2.79594 -2.53939,5.0625 -5.67188,5.0625 -3.13248,0 -5.67187,-2.26656 -5.67187,-5.0625 0,-2.79594 2.53939,-5.0625 5.67187,-5.0625 3.13249,0 5.67188,2.26656 5.67188,5.0625 z"
         style="opacity:0.25;fill:#ffffff;fill-opacity:1;stroke:none" />
      <path
         inkscape:connector-curvature="0"
         id="path4229"
         d="m 41.3125,966.86217 c 0,5.59188 -5.07877,10.12499 -11.34375,10.12499 -6.26498,0 -11.34375,-4.53311 -11.34375,-10.12499 0,-5.59188 5.07877,-10.125 11.34375,-10.125 6.26498,0 11.34375,4.53312 11.34375,10.125 z"
         style="opacity:0.25;fill:#ffffff;fill-opacity:1;stroke:none" />
      <path
         inkscape:connector-curvature="0"
         id="path3886"
         d="m 4,936.36218 c -2.216,0 -4,1.784 -4,4 l 0,55.46875 c 0.98076837,0.53107 1.9802765,1.06045 3,1.5625 l 0,-53.03125 c 0,-2.7527 2.2472972,-5 5,-5 l 112,0 c 2.7527,0 5,2.2473 5,5 l 0,37.9375 c 1.07012,-1.17028 2.07375,-2.3684 3,-3.59375 l 0,-38.34375 c 0,-2.216 -1.784,-4 -4,-4 l -120,0 z m 4,5 c -1.6792972,0 -3,1.3207 -3,3 l 0,53.96872 c 13.623772,6.3002 30.407571,10.0313 48.59375,10.0313 29.157527,0 54.76152,-9.5741 69.40625,-24.00002 l 0,-40 c 0,-1.6793 -1.3207,-3 -3,-3 l -112,0 z"
         style="fill:url(#radialGradient5084);fill-opacity:1;stroke:none" />
      <rect
         ry="4"
         rx="0"
         y="1020.3622"
         x="100"
         height="4"
         width="16"
         id="rect4018"
         style="opacity:0.5;fill:none;stroke:#ffffff;stroke-width:1;stroke-linecap:round;stroke-linejoin:round;stroke-miterlimit:4;stroke-opacity:1;stroke-dasharray:none;stroke-dashoffset:0" />
      <rect
         ry="0"
         y="1020.3622"
         x="80"
         height="4"
         width="16"
         id="rect4020"
         style="opacity:0.5;fill:none;stroke:#ffffff;stroke-width:1;stroke-linecap:round;stroke-linejoin:round;stroke-miterlimit:4;stroke-opacity:1;stroke-dasharray:none;stroke-dashoffset:0" />
      <path
         sodipodi:type="arc"
         style="opacity:0.25;fill:#000000;fill-opacity:1;stroke:none"
         id="path3102"
         sodipodi:cx="64"
         sodipodi:cy="116"
         sodipodi:rx="36"
         sodipodi:ry="8"
         d="m 100,116 a 36,8 0 1 1 -72,0 36,8 0 1 1 72,0 z"
         transform="matrix(1.1116071,0,0,1.1116071,-7.1428571,907.41575)" />
      <path
         transform="matrix(1.2653769,0,0,1.2653769,-16.984127,889.57845)"
         d="m 100,116 a 36,8 0 1 1 -72,0 36,8 0 1 1 72,0 z"
         sodipodi:ry="8"
         sodipodi:rx="36"
         sodipodi:cy="116"
         sodipodi:cx="64"
         id="path3872"
         style="opacity:0.1;fill:#000000;fill-opacity:1;stroke:none"
         sodipodi:type="arc" />
      <path
         sodipodi:type="arc"
         style="opacity:0.1;fill:#000000;fill-opacity:1;stroke:none"
         id="path3874"
         sodipodi:cx="64"
         sodipodi:cy="116"
         sodipodi:rx="36"
         sodipodi:ry="8"
         d="m 100,116 a 36,8 0 1 1 -72,0 36,8 0 1 1 72,0 z"
         transform="matrix(1.4885912,0,0,1.4885912,-31.269841,863.68559)" />
      <g
         transform="matrix(0.65213694,0,0,0.65213694,22.263236,343.03179)"
         id="g5112">
        <path
           id="path3885"
           d="m 57.866319,955.82746 c -3.39806,0 -6.133681,2.73562 -6.133681,6.13368 l 0,15.3342 c -3.39806,0 -6.133681,2.73562 -6.133681,6.13368 l 0,15.33422 c 0,3.39806 2.735621,6.13366 6.133681,6.13366 l 24.534724,0 c 3.39806,0 6.133681,-2.7356 6.133681,-6.13366 l 0,-15.33422 c 0,-3.39806 -2.735621,-6.13368 -6.133681,-6.13368 l 0,-15.3342 c 0,-3.39806 -2.735621,-6.13368 -6.133681,-6.13368 l -12.267362,0 z m 3.06684,6.13368 6.133682,0 c 1.699029,0 3.06684,1.36781 3.06684,3.06684 l 0,12.26736 -12.267362,0 0,-12.26736 c 0,-1.69903 1.367811,-3.06684 3.06684,-3.06684 z"
           style="opacity:0.5;fill:#ffffff;fill-opacity:1;stroke:#000000;stroke-width:6.1336813;stroke-miterlimit:4;stroke-dasharray:none"
           inkscape:connector-curvature="0" />
        <path
           style="fill:#ffffff;fill-opacity:1;stroke:none"
           d="m 57.866319,955.82746 c -3.39806,0 -6.133681,2.73562 -6.133681,6.13368 l 0,15.3342 c -3.39806,0 -6.133681,2.73562 -6.133681,6.13368 l 0,15.33422 c 0,3.39806 2.735621,6.13366 6.133681,6.13366 l 24.534724,0 c 3.39806,0 6.133681,-2.7356 6.133681,-6.13366 l 0,-15.33422 c 0,-3.39806 -2.735621,-6.13368 -6.133681,-6.13368 l 0,-15.3342 c 0,-3.39806 -2.735621,-6.13368 -6.133681,-6.13368 l -12.267362,0 z m 3.06684,6.13368 6.133682,0 c 1.699029,0 3.06684,1.36781 3.06684,3.06684 l 0,12.26736 -12.267362,0 0,-12.26736 c 0,-1.69903 1.367811,-3.06684 3.06684,-3.06684 z"
           id="rect3876"
           inkscape:connector-curvature="0" />
      </g>
    </g>
    <path
       transform="matrix(0.24999839,0,0,0.24999839,144.0001,986.3737)"
       d="m 100,116 a 36,8 0 1 1 -72,0 36,8 0 1 1 72,0 z"
       sodipodi:ry="8"
       sodipodi:rx="36"
       sodipodi:cy="116"
       sodipodi:cx="64"
       id="path5147"
       style="fill:url(#radialGradient5201);fill-opacity:1;stroke:url(#linearGradient5203);stroke-width:1;stroke-linecap:round;stroke-linejoin:round;stroke-miterlimit:4;stroke-opacity:1;stroke-dasharray:none;stroke-dashoffset:0"
       sodipodi:type="arc" />
    <rect
       y="1010.3735"
       x="156.00002"
       height="4.9999676"
       width="7.9999485"
       id="rect5149"
       style="fill:url(#linearGradient5247);fill-opacity:1;stroke:url(#linearGradient5249);stroke-width:0.24999839;stroke-linecap:round;stroke-linejoin:round;stroke-miterlimit:4;stroke-opacity:1;stroke-dasharray:none;stroke-dashoffset:0" />
    <rect
       ry="0.99999356"
       rx="0.99999356"
       y="990.37366"
       x="144.00011"
       height="21.999859"
       width="31.999794"
       id="rect5151"
       style="fill:#000000;fill-opacity:1;stroke:none" />
    <rect
       ry="0.99999356"
       rx="0.99999356"
       y="991.37366"
       x="145.00009"
       height="19.99987"
       width="29.999807"
       id="rect5153"
       style="fill:url(#radialGradient5241);fill-opacity:1;stroke:url(#linearGradient5243);stroke-width:0.24999839;stroke-miterlimit:4;stroke-dasharray:none" />
    <path
       id="path5155"
       d="m 145.8204,991.24867 c -0.5237,0 -0.94531,0.37631 -0.94531,0.84375 l 0,18.56238 c 0,0.4674 0.42161,0.8437 0.94531,0.8437 l 16.80135,0 c 4.1317,-3.3591 6.83131,-8.9078 6.83131,-15.18736 0,-1.75602 -0.21849,-3.45237 -0.61297,-5.06247 l -23.01969,0 z"
       style="opacity:0.25;fill:#ffffff;fill-opacity:1;stroke:none"
       inkscape:connector-curvature="0" />
    <path
       id="path5157"
       d="m 175.1249,998.90829 c -1.22486,1.82321 -3.08625,3.46731 -5.43551,4.83831 -4.40166,2.5688 -10.50658,4.166 -17.25184,4.166 -2.64169,0 -5.18105,-0.2463 -7.56246,-0.6987 l 0,0.4284 c 2.38546,0.447 4.92512,0.6922 7.56246,0.6922 6.82877,0 13.0165,-1.6159 17.51032,-4.2385 2.15263,-1.2563 3.92089,-2.7458 5.17703,-4.4033 l 0,-0.78441 z"
       style="font-size:medium;font-style:normal;font-variant:normal;font-weight:normal;font-stretch:normal;text-indent:0;text-align:start;text-decoration:none;line-height:normal;letter-spacing:normal;word-spacing:normal;text-transform:none;direction:ltr;block-progression:tb;writing-mode:lr-tb;text-anchor:start;baseline-shift:baseline;opacity:0.5;color:#000000;fill:#ffffff;fill-opacity:1;stroke:none;stroke-width:2;marker:none;visibility:visible;display:inline;overflow:visible;enable-background:accumulate;font-family:Sans;-inkscape-font-specification:Sans"
       inkscape:connector-curvature="0" />
    <path
       id="path5159"
       d="m 175.1249,998.90829 c -1.22486,1.82321 -3.08625,3.46731 -5.43551,4.83831 -4.40166,2.5688 -10.50658,4.166 -17.25184,4.166 -2.64169,0 -5.18105,-0.2463 -7.56246,-0.6987 l 0,0.4284 c 2.38546,0.447 4.92512,0.6922 7.56246,0.6922 6.82877,0 13.0165,-1.6159 17.51032,-4.2385 2.15263,-1.2563 3.92089,-2.7458 5.17703,-4.4033 l 0,-0.78441 z"
       style="font-size:medium;font-style:normal;font-variant:normal;font-weight:normal;font-stretch:normal;text-indent:0;text-align:start;text-decoration:none;line-height:normal;letter-spacing:normal;word-spacing:normal;text-transform:none;direction:ltr;block-progression:tb;writing-mode:lr-tb;text-anchor:start;baseline-shift:baseline;opacity:0.5;color:#000000;fill:#ffffff;fill-opacity:1;stroke:none;stroke-width:2;marker:none;visibility:visible;display:inline;overflow:visible;enable-background:accumulate;font-family:Sans;-inkscape-font-specification:Sans"
       inkscape:connector-curvature="0" />
    <path
       id="path5161"
       d="m 175.1249,998.72372 c -1.20989,1.56158 -2.89958,2.97508 -4.96286,4.17918 -4.40165,2.5688 -10.50658,4.166 -17.25184,4.166 -2.81681,0 -5.51904,-0.2795 -8.03511,-0.791 l 0,0.4284 c 2.52144,0.5056 5.22265,0.7844 8.03511,0.7844 6.82877,0 13.0165,-1.6159 17.51032,-4.2385 1.89838,-1.1078 3.49185,-2.397 4.70438,-3.82317 l 0,-0.70531 z"
       style="font-size:medium;font-style:normal;font-variant:normal;font-weight:normal;font-stretch:normal;text-indent:0;text-align:start;text-decoration:none;line-height:normal;letter-spacing:normal;word-spacing:normal;text-transform:none;direction:ltr;block-progression:tb;writing-mode:lr-tb;text-anchor:start;baseline-shift:baseline;opacity:0.5;color:#000000;fill:#ffffff;fill-opacity:1;stroke:none;stroke-width:2;marker:none;visibility:visible;display:inline;overflow:visible;enable-background:accumulate;font-family:Sans;-inkscape-font-specification:Sans"
       inkscape:connector-curvature="0" />
    <path
       id="path5163"
       d="m 175.1249,998.44687 c -1.16241,1.33609 -2.68157,2.55673 -4.49021,3.61223 -4.40165,2.5688 -10.50658,4.166 -17.25184,4.166 -2.99328,0 -5.85956,-0.3155 -8.50776,-0.8899 l 0,0.4351 c 2.65402,0.5676 5.52017,0.8767 8.50776,0.8767 6.82878,0 13.01651,-1.6159 17.51033,-4.2385 1.66099,-0.9694 3.08764,-2.0784 4.23172,-3.29587 l 0,-0.66576 z"
       style="font-size:medium;font-style:normal;font-variant:normal;font-weight:normal;font-stretch:normal;text-indent:0;text-align:start;text-decoration:none;line-height:normal;letter-spacing:normal;word-spacing:normal;text-transform:none;direction:ltr;block-progression:tb;writing-mode:lr-tb;text-anchor:start;baseline-shift:baseline;opacity:0.5;color:#000000;fill:#ffffff;fill-opacity:1;stroke:none;stroke-width:2;marker:none;visibility:visible;display:inline;overflow:visible;enable-background:accumulate;font-family:Sans;-inkscape-font-specification:Sans"
       inkscape:connector-curvature="0" />
    <path
       id="path5165"
       d="m 175.1249,997.74814 c -1.00095,0.95267 -2.19176,1.83384 -3.5449,2.62356 -4.40165,2.5688 -10.50658,4.1659 -17.25184,4.1659 -3.35283,0 -6.54719,-0.395 -9.45307,-1.1074 l 0,0.4351 c 2.91511,0.7047 6.10597,1.0942 9.45307,1.0942 6.82877,0 13.0165,-1.6159 17.51032,-4.2385 1.22918,-0.7173 2.33223,-1.50871 3.28642,-2.36642 l 0,-0.60644 z"
       style="font-size:medium;font-style:normal;font-variant:normal;font-weight:normal;font-stretch:normal;text-indent:0;text-align:start;text-decoration:none;line-height:normal;letter-spacing:normal;word-spacing:normal;text-transform:none;direction:ltr;block-progression:tb;writing-mode:lr-tb;text-anchor:start;baseline-shift:baseline;opacity:0.5;color:#000000;fill:#ffffff;fill-opacity:1;stroke:none;stroke-width:2;marker:none;visibility:visible;display:inline;overflow:visible;enable-background:accumulate;font-family:Sans;-inkscape-font-specification:Sans"
       inkscape:connector-curvature="0" />
    <path
       id="path5167"
       d="m 175.1249,997.26035 c -0.65552,0.50013 -1.36313,0.97807 -2.12694,1.42382 -4.40165,2.56883 -10.50658,4.16603 -17.25184,4.16603 -3.90911,0 -7.59894,-0.5387 -10.87103,-1.4898 l 0,0.4483 c 3.28384,0.9393 6.97395,1.4633 10.87103,1.4633 6.82877,0 13.0165,-1.6159 17.51032,-4.23848 0.66251,-0.38662 1.28275,-0.79693 1.86846,-1.22606 l 0,-0.54711 z"
       style="font-size:medium;font-style:normal;font-variant:normal;font-weight:normal;font-stretch:normal;text-indent:0;text-align:start;text-decoration:none;line-height:normal;letter-spacing:normal;word-spacing:normal;text-transform:none;direction:ltr;block-progression:tb;writing-mode:lr-tb;text-anchor:start;baseline-shift:baseline;opacity:0.5;color:#000000;fill:#ffffff;fill-opacity:1;stroke:none;stroke-width:2;marker:none;visibility:visible;display:inline;overflow:visible;enable-background:accumulate;font-family:Sans;-inkscape-font-specification:Sans"
       inkscape:connector-curvature="0" />
    <path
       id="path5169"
       d="m 145.8204,991.24867 c -0.5237,0 -0.94531,0.37631 -0.94531,0.84375 l 0,13.61858 c 1.77482,0.4668 3.68206,0.7251 5.67184,0.7251 9.39741,0 17.01552,-5.6664 17.01552,-12.65619 0,-0.86666 -0.11662,-1.71354 -0.33972,-2.53124 l -21.40233,0 z"
       style="opacity:0.25;fill:#ffffff;fill-opacity:1;stroke:none"
       inkscape:connector-curvature="0" />
    <path
       inkscape:connector-curvature="0"
       id="path5171"
       d="m 173.23429,1001.3736 c 0,1.398 -1.26969,2.5312 -2.83592,2.5312 -1.56624,0 -2.83592,-1.1332 -2.83592,-2.5312 0,-1.39796 1.26968,-2.53123 2.83592,-2.53123 1.56623,0 2.83592,1.13327 2.83592,2.53123 z"
       style="opacity:0.5;fill:#ffffff;fill-opacity:1;stroke:none" />
    <path
       inkscape:connector-curvature="0"
       id="path5173"
       d="m 173.23429,995.88926 c 0,0.69898 -0.63484,1.26562 -1.41796,1.26562 -0.78312,0 -1.41796,-0.56664 -1.41796,-1.26562 0,-0.69898 0.63484,-1.26561 1.41796,-1.26561 0.78312,0 1.41796,0.56663 1.41796,1.26561 z"
       style="opacity:0.25;fill:#ffffff;fill-opacity:1;stroke:none" />
    <path
       inkscape:connector-curvature="0"
       id="path5175"
       d="m 172.28898,994.62365 c 0,0.93197 -0.84645,1.68749 -1.89061,1.68749 -1.04416,0 -1.89062,-0.75552 -1.89062,-1.68749 0,-0.93198 0.84646,-1.68749 1.89062,-1.68749 1.04416,0 1.89061,0.75551 1.89061,1.68749 z"
       style="opacity:0.25;fill:#ffffff;fill-opacity:1;stroke:none" />
    <path
       inkscape:connector-curvature="0"
       id="path5177"
       d="m 156.21877,1000.108 c 0,1.165 -1.05807,2.1093 -2.36327,2.1093 -1.30519,0 -2.36326,-0.9443 -2.36326,-2.1093 0,-1.16498 1.05807,-2.10937 2.36326,-2.10937 1.3052,0 2.36327,0.94439 2.36327,2.10937 z"
       style="opacity:0.25;fill:#ffffff;fill-opacity:1;stroke:none" />
    <path
       inkscape:connector-curvature="0"
       id="path5179"
       d="m 155.27346,995.88926 c 0,0.69898 -0.63484,1.26562 -1.41796,1.26562 -0.78311,0 -1.41795,-0.56664 -1.41795,-1.26562 0,-0.69898 0.63484,-1.26561 1.41795,-1.26561 0.78312,0 1.41796,0.56663 1.41796,1.26561 z"
       style="opacity:0.25;fill:#ffffff;fill-opacity:1;stroke:none" />
    <path
       inkscape:connector-curvature="0"
       id="path5181"
       d="m 154.32816,997.99863 c 0,1.39796 -1.26969,2.53127 -2.83592,2.53127 -1.56624,0 -2.83592,-1.13331 -2.83592,-2.53127 0,-1.39797 1.26968,-2.53124 2.83592,-2.53124 1.56623,0 2.83592,1.13327 2.83592,2.53124 z"
       style="opacity:0.25;fill:#ffffff;fill-opacity:1;stroke:none" />
    <path
       inkscape:connector-curvature="0"
       id="path5183"
       d="m 145.00009,990.37368 c -0.55399,0 -0.99999,0.44599 -0.99999,0.99999 l 0,13.86713 c 0.24519,0.1327 0.49507,0.2651 0.75,0.3906 l 0,-13.25774 c 0,-0.68817 0.56182,-1.24999 1.24999,-1.24999 l 27.99982,0 c 0.68817,0 1.24999,0.56182 1.24999,1.24999 l 0,9.48434 c 0.26753,-0.2926 0.51843,-0.5921 0.74999,-0.8985 l 0,-9.58583 c 0,-0.554 -0.44599,-0.99999 -0.99999,-0.99999 l -29.99981,0 z m 1,1.24999 c -0.41982,0 -0.75,0.33017 -0.75,0.74999 l 0,13.49214 c 3.40592,1.575 7.60185,2.5078 12.14836,2.5078 7.28934,0 13.69029,-2.3935 17.35145,-6 l 0,-9.99994 c 0,-0.41982 -0.33017,-0.74999 -0.74999,-0.74999 l -27.99982,0 z"
       style="fill:url(#radialGradient5224);fill-opacity:1;stroke:none" />
    <rect
       ry="0.99999356"
       rx="0"
       y="1011.3735"
       x="168.99994"
       height="0.99999356"
       width="3.9999743"
       id="rect5185"
       style="opacity:0.5;fill:none;stroke:#ffffff;stroke-width:0.24999839;stroke-linecap:round;stroke-linejoin:round;stroke-miterlimit:4;stroke-opacity:1;stroke-dasharray:none;stroke-dashoffset:0" />
    <rect
       ry="0"
       y="1011.3735"
       x="163.99997"
       height="0.99999356"
       width="3.9999743"
       id="rect5187"
       style="opacity:0.5;fill:none;stroke:#ffffff;stroke-width:0.24999839;stroke-linecap:round;stroke-linejoin:round;stroke-miterlimit:4;stroke-opacity:1;stroke-dasharray:none;stroke-dashoffset:0" />
    <path
       sodipodi:type="arc"
       style="opacity:0.25;fill:#000000;fill-opacity:1;stroke:none"
       id="path5189"
       sodipodi:cx="64"
       sodipodi:cy="116"
       sodipodi:rx="36"
       sodipodi:ry="8"
       d="m 100,116 a 36,8 0 1 1 -72,0 36,8 0 1 1 72,0 z"
       transform="matrix(0.27789999,0,0,0.27789999,142.2144,983.13712)" />
    <path
       transform="matrix(0.31634219,0,0,0.31634219,139.7541,978.67782)"
       d="m 100,116 a 36,8 0 1 1 -72,0 36,8 0 1 1 72,0 z"
       sodipodi:ry="8"
       sodipodi:rx="36"
       sodipodi:cy="116"
       sodipodi:cx="64"
       id="path5191"
       style="opacity:0.1;fill:#000000;fill-opacity:1;stroke:none"
       sodipodi:type="arc" />
    <path
       sodipodi:type="arc"
       style="opacity:0.1;fill:#000000;fill-opacity:1;stroke:none"
       id="path5193"
       sodipodi:cx="64"
       sodipodi:cy="116"
       sodipodi:rx="36"
       sodipodi:ry="8"
       d="m 100,116 a 36,8 0 1 1 -72,0 36,8 0 1 1 72,0 z"
       transform="matrix(0.3721454,0,0,0.3721454,136.18269,972.20465)" />
    <g
       transform="matrix(0.23379458,0,0,0.23379458,145.03714,772.67025)"
       id="g5195">
      <path
         id="path5197"
         d="m 57.866319,955.82746 c -3.39806,0 -6.133681,2.73562 -6.133681,6.13368 l 0,15.3342 c -3.39806,0 -6.133681,2.73562 -6.133681,6.13368 l 0,15.33422 c 0,3.39806 2.735621,6.13366 6.133681,6.13366 l 24.534724,0 c 3.39806,0 6.133681,-2.7356 6.133681,-6.13366 l 0,-15.33422 c 0,-3.39806 -2.735621,-6.13368 -6.133681,-6.13368 l 0,-15.3342 c 0,-3.39806 -2.735621,-6.13368 -6.133681,-6.13368 l -12.267362,0 z m 3.06684,6.13368 6.133682,0 c 1.699029,0 3.06684,1.36781 3.06684,3.06684 l 0,12.26736 -12.267362,0 0,-12.26736 c 0,-1.69903 1.367811,-3.06684 3.06684,-3.06684 z"
         style="opacity:0.5;fill:#ffffff;fill-opacity:1;stroke:#000000;stroke-width:6.1336813;stroke-miterlimit:4;stroke-dasharray:none"
         inkscape:connector-curvature="0" />
      <path
         style="fill:#ffffff;fill-opacity:1;stroke:none"
         d="m 57.866319,955.82746 c -3.39806,0 -6.133681,2.73562 -6.133681,6.13368 l 0,15.3342 c -3.39806,0 -6.133681,2.73562 -6.133681,6.13368 l 0,15.33422 c 0,3.39806 2.735621,6.13366 6.133681,6.13366 l 24.534724,0 c 3.39806,0 6.133681,-2.7356 6.133681,-6.13366 l 0,-15.33422 c 0,-3.39806 -2.735621,-6.13368 -6.133681,-6.13368 l 0,-15.3342 c 0,-3.39806 -2.735621,-6.13368 -6.133681,-6.13368 l -12.267362,0 z m 3.06684,6.13368 6.133682,0 c 1.699029,0 3.06684,1.36781 3.06684,3.06684 l 0,12.26736 -12.267362,0 0,-12.26736 c 0,-1.69903 1.367811,-3.06684 3.06684,-3.06684 z"
         id="path5199"
         inkscape:connector-curvature="0" />
    </g>
    <path
       style="fill:url(#linearGradient5444);fill-opacity:1;stroke:none;stroke-width:2;stroke-linejoin:round;stroke-miterlimit:4;stroke-opacity:0.31372549000000000;stroke-dasharray:none"
       d="M 144 114 L 144 125 L 150 125 L 150 127 L 149 127 L 149 128 L 155 128 L 155 127 L 154 127 L 154 125 L 160 125 L 160 114 L 144 114 z "
       transform="translate(0,924.36218)"
       id="rect5394" />
    <rect
       style="fill:url(#radialGradient5409);fill-opacity:1;stroke:none"
       id="rect5401"
       width="14"
       height="9"
       x="145"
       y="115"
       transform="translate(0,924.36218)"
       rx="4.5902016e-07" />
    <path
       style="fill:url(#radialGradient5434);fill-opacity:1;stroke:none"
       d="M 151 116 C 150.446 116 150 116.446 150 117 L 150 119 L 149 119 L 149 123 L 155 123 L 155 119 L 154 119 L 154 117 C 154 116.446 153.554 116 153 116 L 151 116 z M 151 117 L 152 117 L 153 117 L 153 118 L 153 119 L 152 119 L 151 119 L 151 118 L 151 117 z "
       transform="translate(0,924.36218)"
       id="rect5417" />
  </g>
</svg>
